<?xml version="1.0" encoding="utf-8"?>
<!-- Generator: Adobe Illustrator 19.0.0, SVG Export Plug-In . SVG Version: 6.00 Build 0)  -->
<!DOCTYPE svg PUBLIC "-//W3C//DTD SVG 1.0//EN" "http://www.w3.org/TR/2001/REC-SVG-20010904/DTD/svg10.dtd">
<svg version="1.0" id="Ebene_1" xmlns="http://www.w3.org/2000/svg" xmlns:xlink="http://www.w3.org/1999/xlink" x="0px" y="0px"
	 viewBox="0 0 16 16" enable-background="new 0 0 16 16" xml:space="preserve">
<g>
	<path d="M7,4.4L6,4.2c0.1-0.4,0.3-0.7,0.6-0.9S7.3,3,7.8,3s0.9,0.1,1.1,0.2s0.4,0.3,0.5,0.4s0.1,0.5,0.1,1v1.3c0,0.4,0,0.7,0.1,0.9
		c0,0.2,0.1,0.3,0.2,0.5H8.7c0-0.1-0.1-0.4-0.1-0.4C8.3,7.1,8.1,7.2,7.9,7.3c-0.2,0-0.4,0.1-0.7,0.1c-0.4,0-0.8-0.1-1-0.3
		S5.9,6.5,5.9,6.2C5.9,6,6,5.8,6.1,5.6s0.3-0.3,0.5-0.4s1.7-0.5,1.9-0.6V4.5c0-0.2-0.1-0.4-0.2-0.5C8.2,3.9,8,3.9,7.7,3.9
		c-0.2,0-0.3,0-0.5,0.1C7.1,4.1,7,4.2,7,4.4z M8.4,5.3C8.3,5.3,8,5.4,7.7,5.5c-0.1,0-0.4,0.1-0.5,0.2C7,5.8,7,5.9,7,6.1
		c0,0.1,0,0.2,0.1,0.3s0.3,0.2,0.4,0.2c0.2,0,0.4-0.1,0.6-0.2C8.2,6.3,8.3,6.2,8.4,6c0-0.1,0-0.3,0-0.5V5.3z"/>
	<path d="M6.1,15V9.3h1.1v2.1c0.3-0.4,0.7-0.6,1.2-0.6s0.9,0.2,1.3,0.5c0.4,0.4,0.5,0.9,0.5,1.6c0,0.7-0.2,1.3-0.5,1.6
		S9,15.1,8.5,15.1c-0.2,0-0.5-0.1-0.7-0.2c-0.2-0.1-0.4-0.3-0.6-0.5V15H6.1z M7.2,12.9c0,0.4,0.1,0.7,0.2,1c0.2,0.3,0.4,0.4,0.8,0.4
		c0.2,0,0.4-0.1,0.6-0.3S9,13.4,9,13c0-0.5-0.1-0.8-0.3-1S8.3,11.7,8,11.7C7.3,11.6,7.3,12.3,7.2,12.9z"/>
</g>
<g id="XMLID_11_">
	<polygon id="XMLID_12_" points="13.7,12.2 16,8.3 14.3,8.3 14.3,0.8 13.2,0.8 13.2,8.3 11.5,8.3 	"/>
</g>
<g id="XMLID_1_">
	<polygon id="XMLID_2_" points="2.3,12.2 4.5,8.3 2.8,8.3 2.8,0.8 1.7,0.8 1.7,8.3 0,8.3 	"/>
</g>
</svg>
