<?xml version="1.0" encoding="utf-8"?>
<!-- Generator: Adobe Illustrator 19.0.0, SVG Export Plug-In . SVG Version: 6.00 Build 0)  -->
<!DOCTYPE svg PUBLIC "-//W3C//DTD SVG 1.1//EN" "http://www.w3.org/Graphics/SVG/1.1/DTD/svg11.dtd">
<svg version="1.1" id="Ebene_1" xmlns="http://www.w3.org/2000/svg" xmlns:xlink="http://www.w3.org/1999/xlink" x="0px" y="0px"
	 viewBox="0 0 16 16" style="enable-background:new 0 0 16 16;" xml:space="preserve">
<style type="text/css">
	.st0{fill:#FFFFFF;}
</style>
<g>
	<rect x="0.9" y="7.3" class="st0" width="2.3" height="2.3"/>
	<rect x="7.3" y="0.9" class="st0" width="2.3" height="2.3"/>
	<rect x="4.1" y="4.1" class="st0" width="2.3" height="2.3"/>
	<rect x="7.3" y="7.3" class="st0" width="2.3" height="2.3"/>
	<rect x="7.3" y="4.1" class="st0" width="2.3" height="2.3"/>
	<rect x="0.9" y="4.1" class="st0" width="2.3" height="2.3"/>
	<rect x="0.9" y="0.9" class="st0" width="2.3" height="2.3"/>
	<rect x="4.1" y="0.9" class="st0" width="2.3" height="2.3"/>
	<rect x="4.1" y="7.3" class="st0" width="2.3" height="2.3"/>
	<path d="M10.5,0H0v0.4V10v0.4h10.5V0z M3.2,9.6H0.9V7.3h2.3V9.6z M3.2,6.4H0.9V4.1h2.3V6.4z M3.2,3.2H0.9V0.9h2.3V3.2z M6.4,9.6
		H4.1V7.3h2.3V9.6z M6.4,6.4H4.1V4.1h2.3V6.4z M6.4,3.2H4.1V0.9h2.3V3.2z M9.6,9.6H7.3V7.3h2.3V9.6z M9.6,6.4H7.3V4.1h2.3V6.4z
		 M9.6,3.2H7.3V0.9h2.3V3.2z"/>
</g>
<polygon id="XMLID_190_" points="16,12.4 13.9,12.4 13.9,10.4 12.5,10.4 12.5,12.4 10.4,12.4 10.4,13.9 12.5,13.9 12.5,16 13.9,16 
	13.9,13.9 16,13.9 "/>
</svg>
