<?xml version="1.0" encoding="UTF-8" standalone="no"?>
<!-- Generator: Adobe Illustrator 19.0.0, SVG Export Plug-In . SVG Version: 6.00 Build 0)  -->

<svg
   xmlns:dc="http://purl.org/dc/elements/1.1/"
   xmlns:cc="http://creativecommons.org/ns#"
   xmlns:rdf="http://www.w3.org/1999/02/22-rdf-syntax-ns#"
   xmlns:svg="http://www.w3.org/2000/svg"
   xmlns="http://www.w3.org/2000/svg"
   xmlns:sodipodi="http://sodipodi.sourceforge.net/DTD/sodipodi-0.dtd"
   xmlns:inkscape="http://www.inkscape.org/namespaces/inkscape"
   version="1.1"
   id="Ebene_1"
   x="0px"
   y="0px"
   viewBox="0 0 16 16"
   style="enable-background:new 0 0 16 16;"
   xml:space="preserve"
   inkscape:version="0.91 r13725"
   sodipodi:docname="missingapply - Kopie.svg"
   inkscape:export-filename="C:\Users\Simon\Desktop\missingvalueextractor.png"
   inkscape:export-xdpi="90"
   inkscape:export-ydpi="90"><metadata
     id="metadata3345"><rdf:RDF><cc:Work
         rdf:about=""><dc:format>image/svg+xml</dc:format><dc:type
           rdf:resource="http://purl.org/dc/dcmitype/StillImage" /></cc:Work></rdf:RDF></metadata><defs
     id="defs3343" /><sodipodi:namedview
     pagecolor="#ffffff"
     bordercolor="#666666"
     borderopacity="1"
     objecttolerance="10"
     gridtolerance="10"
     guidetolerance="10"
     inkscape:pageopacity="0"
     inkscape:pageshadow="2"
     inkscape:window-width="2048"
     inkscape:window-height="1089"
     id="namedview3341"
     showgrid="false"
     inkscape:zoom="28.75"
     inkscape:cx="1.7653087"
     inkscape:cy="10.863537"
     inkscape:window-x="-8"
     inkscape:window-y="-8"
     inkscape:window-maximized="1"
     inkscape:current-layer="Ebene_1" /><g
     id="XMLID_13_"
     transform="matrix(0.84080702,0,0,0.91122525,-3.4003834,-5.9598575)"><path
       id="XMLID_14_"
       d="m 8.7,13.5 -1.5,0 c 0,0 -0.1,-1.7 0.2,-2 C 7.7,11.2 9.5,9.9 9.5,9.1 9.5,8.3 9,8 8.1,8 7.2,8 6.4,8.8 6.4,9.3 L 4.9,9.1 C 5.1,7.7 6.3,6.6 8,6.6 c 1.7,0 3.1,0.9 3.1,2.4 0,1.5 -2,2.9 -2.3,3.2 -0.3,0.3 -0.1,1.3 -0.1,1.3 z m -1.5,2.5 0,-1.7 1.6,0 0,1.7 -1.6,0 0,0 z"
       inkscape:connector-curvature="0" /></g><text
     xml:space="preserve"
     style="font-style:normal;font-weight:normal;font-size:8.57274628px;line-height:125%;font-family:sans-serif;letter-spacing:0px;word-spacing:0px;fill:#000000;fill-opacity:1;stroke:none;stroke-width:1px;stroke-linecap:butt;stroke-linejoin:miter;stroke-opacity:1"
     x="-0.54484475"
     y="15.028188"
     id="text3349"
     sodipodi:linespacing="125%"
     transform="scale(0.94862541,1.0541569)"><tspan
       sodipodi:role="line"
       id="tspan3351"
       x="-0.54484475"
       y="15.028188"
       style="font-style:normal;font-variant:normal;font-weight:normal;font-stretch:normal;font-family:sans-serif;-inkscape-font-specification:sans-serif">ERR</tspan></text>
<path
     style="fill:none;fill-rule:evenodd;stroke:#000000;stroke-width:1.21934974px;stroke-linecap:butt;stroke-linejoin:miter;stroke-opacity:1"
     d="m 7.1605605,1.4615777 4.3077165,0 0,3.716412"
     id="path3356"
     inkscape:connector-curvature="0" /><path
     sodipodi:type="star"
     style="fill:#000000;fill-opacity:1;fill-rule:evenodd;stroke:#000000;stroke-width:1px;stroke-linecap:butt;stroke-linejoin:miter;stroke-opacity:1"
     id="path4520"
     sodipodi:sides="3"
     sodipodi:cx="11.686956"
     sodipodi:cy="6.1913042"
     sodipodi:r1="2.0941904"
     sodipodi:r2="1.0470952"
     sodipodi:arg1="1.5707963"
     sodipodi:arg2="2.6179939"
     inkscape:flatsided="false"
     inkscape:rounded="0"
     inkscape:randomized="0"
     d="M 11.686956,8.2854946 10.780145,6.7148518 9.8733343,5.1442091 l 1.8136217,-1e-7 1.813622,0 -0.906811,1.5706428 z"
     inkscape:transform-center-y="0.35105107"
     transform="matrix(0.99811791,0,0,0.67052365,-0.15191707,1.5469279)" /></svg>