<?xml version="1.0" encoding="utf-8"?>
<!-- Generator: Adobe Illustrator 19.1.0, SVG Export Plug-In . SVG Version: 6.00 Build 0)  -->
<!DOCTYPE svg PUBLIC "-//W3C//DTD SVG 1.1//EN" "http://www.w3.org/Graphics/SVG/1.1/DTD/svg11.dtd">
<svg version="1.1" id="Ebene_1" xmlns="http://www.w3.org/2000/svg" xmlns:xlink="http://www.w3.org/1999/xlink" x="0px" y="0px"
	 viewBox="-289 412.9 16 16" style="enable-background:new -289 412.9 16 16;" xml:space="preserve">
<style type="text/css">
	.st0{fill:#F1933B;}
	.st1{fill:#FFFFFF;}
	.st2{fill:#1A171B;}
</style>
<g>
	<rect x="-278" y="413.9" class="st0" width="4" height="4"/>
	<path d="M-279,412.9v16h6v-11v-5H-279z M-274,422.9h-4v-4h4V422.9z M-274,427.9h-4v-4h4V427.9z M-274,417.9h-4v-4h4V417.9z"/>
	<rect x="-278" y="418.9" class="st1" width="4" height="4"/>
	<rect x="-278" y="423.9" class="st1" width="4" height="4"/>
</g>
<g id="XMLID_7_">
	<polygon id="XMLID_9_" points="-280.6,421.9 -283.4,420.3 -283.4,423.5 	"/>
</g>
<path class="st2" d="M-283.1,415.4l-1-0.2c0.1-0.4,0.3-0.7,0.6-0.9c0.3-0.2,0.7-0.3,1.2-0.3s0.9,0.1,1.1,0.2
	c0.2,0.1,0.5,0.3,0.5,0.4c0.1,0.2,0.1,0.5,0.1,1v1.3c0,0.4,0.2,1.2,0.3,1.4h-1.1c0-0.1-0.1-0.4-0.1-0.4c-0.4,0.3-1.1,0.5-1.4,0.5
	c-0.4,0-0.8-0.1-1-0.3c-0.2-0.2-0.3-0.6-0.3-0.9c0-0.2,0-0.8,0.7-1c0.3-0.1,1.7-0.5,1.9-0.6v-0.1c0-0.2-0.1-0.4-0.2-0.5
	c-0.1-0.1-0.3-0.1-0.6-0.1C-282.9,414.9-283.1,415.4-283.1,415.4z M-281.7,416.3c-0.1,0-1.1,0.3-1.2,0.4c-0.2,0.1-0.2,0.4-0.2,0.6
	c0,0.1,0.2,0.3,0.5,0.3c0.2,0,0.7-0.2,0.9-0.6c0-0.1,0-0.3,0-0.5V416.3z"/>
<path class="st2" d="M-288.6,428.6v-5.7h1.1v2.1c0.3-0.4,0.7-0.6,1.2-0.6s0.9,0.2,1.3,0.5c0.5,0.4,0.5,0.9,0.5,1.6
	c0,0.7-0.2,1.3-0.5,1.6c-0.3,0.3-0.7,0.6-1.2,0.6c-0.2,0-0.5-0.1-0.7-0.2c-0.2-0.1-0.4-0.3-0.6-0.5v0.6
	C-287.5,428.6-288.6,428.6-288.6,428.6z M-287.5,426.5c0,0.4,0.1,0.7,0.2,1c0.2,0.3,0.4,0.4,0.8,0.4c0.2,0,0.4-0.1,0.6-0.3
	c0.2-0.2,0.2-0.6,0.2-1c0-0.5-0.1-0.8-0.3-1c-0.2-0.2-0.4-0.3-0.7-0.3C-287.4,425.2-287.4,425.8-287.5,426.5z"/>
</svg>
