<?xml version="1.0" encoding="UTF-8" standalone="no"?>
<!-- Generator: Adobe Illustrator 21.0.0, SVG Export Plug-In . SVG Version: 6.00 Build 0)  -->

<svg
   xmlns:dc="http://purl.org/dc/elements/1.1/"
   xmlns:cc="http://creativecommons.org/ns#"
   xmlns:rdf="http://www.w3.org/1999/02/22-rdf-syntax-ns#"
   xmlns:svg="http://www.w3.org/2000/svg"
   xmlns="http://www.w3.org/2000/svg"
   xmlns:sodipodi="http://sodipodi.sourceforge.net/DTD/sodipodi-0.dtd"
   xmlns:inkscape="http://www.inkscape.org/namespaces/inkscape"
   version="1.0"
   id="Ebene_1"
   x="0px"
   y="0px"
   viewBox="0 0 16 16"
   style="enable-background:new 0 0 16 16;"
   xml:space="preserve"
   inkscape:version="0.91 r13725"
   sodipodi:docname="extractduration-icon.svg"
   inkscape:export-filename="/home/simon/git/knime-core/org.knime.time/src/org/knime/time/node/extract/extractduration@2x.png"
   inkscape:export-xdpi="180.92249"
   inkscape:export-ydpi="180.92249"><metadata
     id="metadata31"><rdf:RDF><cc:Work
         rdf:about=""><dc:format>image/svg+xml</dc:format><dc:type
           rdf:resource="http://purl.org/dc/dcmitype/StillImage" /><dc:title /></cc:Work></rdf:RDF></metadata><defs
     id="defs29" /><sodipodi:namedview
     pagecolor="#ffffff"
     bordercolor="#666666"
     borderopacity="1"
     objecttolerance="10"
     gridtolerance="10"
     guidetolerance="10"
     inkscape:pageopacity="0"
     inkscape:pageshadow="2"
     inkscape:window-width="2560"
     inkscape:window-height="1343"
     id="namedview27"
     showgrid="false"
     inkscape:zoom="45.254834"
     inkscape:cx="-2.8880157"
     inkscape:cy="9.9997178"
     inkscape:window-x="0"
     inkscape:window-y="27"
     inkscape:window-maximized="1"
     inkscape:current-layer="Ebene_1" /><style
     type="text/css"
     id="style3">
	.st0{fill:#222221;}
	.st1{fill:#FFFFFF;}
	.st2{fill:#9B9A9A;}
	.st3{fill:none;stroke:#222221;stroke-linecap:round;stroke-linejoin:round;stroke-miterlimit:10;}
</style><g
     id="g5"
     transform="matrix(0.72769599,0,0,0.72769599,-0.81154555,-0.38898054)"><path
       class="st0"
       d="m 9.1,3.6 -2,0 c -0.6,0 -1,-0.4 -1,-1 l 0,-1 c 0,-0.6 0.4,-1 1,-1 l 2,0 c 0.6,0 1,0.4 1,1 l 0,0.9 c 0,0.6 -0.5,1.1 -1,1.1 z"
       id="path7"
       inkscape:connector-curvature="0"
       style="fill:#222221" /><path
       class="st0"
       d="M 12.4,5.9 11.7,5.2 c -0.4,-0.4 -0.4,-1 0,-1.4 l 0.7,-0.7 c 0.4,-0.4 1,-0.4 1.4,0 l 0.7,0.7 c 0.4,0.4 0.4,1 0,1.4 l -0.7,0.7 c -0.4,0.4 -1,0.4 -1.4,0 z"
       id="path9"
       inkscape:connector-curvature="0"
       style="fill:#222221" /><g
       id="g11"><g
         id="g13"><circle
           class="st1"
           cx="8"
           cy="8.6000004"
           r="6.3000002"
           id="circle15"
           style="fill:#ffffff" /></g></g><g
       id="g17"><path
         class="st2"
         d="M 14.1,9 8,9 8,2.5 c 3.6,0 6.3,3 6.1,6.5 z"
         id="path19"
         inkscape:connector-curvature="0"
         style="fill:#9b9a9a" /></g><line
       class="st3"
       x1="8"
       y1="9"
       x2="8"
       y2="4.5999999"
       id="line21"
       style="fill:none;stroke:#222221;stroke-linecap:round;stroke-linejoin:round;stroke-miterlimit:10" /><line
       class="st3"
       x1="8"
       y1="9"
       x2="11.5"
       y2="9"
       id="line23"
       style="fill:none;stroke:#222221;stroke-linecap:round;stroke-linejoin:round;stroke-miterlimit:10" /><path
       class="st0"
       d="M 8,15.4 C 4.2,15.4 1.2,12.3 1.2,8.6 1.2,4.8 4.3,1.8 8,1.8 c 3.8,0 6.8,3.1 6.8,6.8 0,3.7 -3.1,6.8 -6.8,6.8 z M 8,2.7 c -3.2,0 -5.9,2.6 -5.9,5.9 0,3.2 2.6,5.9 5.9,5.9 3.3,0 5.9,-2.6 5.9,-5.9 C 13.8,5.3 11.2,2.7 8,2.7 Z"
       id="path25"
       inkscape:connector-curvature="0"
       style="fill:#222221" /></g><path
     style="opacity:1;fill:#000000;fill-opacity:1;stroke:none;stroke-width:1.73300004;stroke-miterlimit:4;stroke-dasharray:none;stroke-opacity:1"
     inkscape:transform-center-y="0.035317592"
     d="M 11.1408,13.811095 10.265059,11.54467 c 0,0 -0.7481432,0.275319 -1.7276802,0.556967 -1.0432532,0.299974 -2.2929236,0.495402 -3.1978052,0.2918 C 4.740175,12.25857 4.3204182,12.125673 3.6499679,11.745935 2.6409972,11.174461 1.682223,9.7497347 1.682223,9.7497347 c 0,0 0.8149156,2.0870143 1.2963205,2.7798453 0.4699916,0.676406 0.9363793,1.098737 1.6588104,1.514092 0.620838,0.356945 1.2465561,0.501803 1.8706533,0.574279 0.5432776,0.06309 0.6476781,0.07244 1.0581307,0.07437 0.4306914,0.002 0.9447294,-0.04331 1.3794,-0.122794 C 10.113921,14.355881 11.1408,13.811095 11.1408,13.811095 Z"
     id="path4204"
     inkscape:connector-curvature="0"
     sodipodi:nodetypes="ccssscsssssc"
     inkscape:transform-center-x="1.7889639" /><path
     sodipodi:type="star"
     style="opacity:1;fill:#000000;fill-opacity:1;stroke:none;stroke-width:1.73300004;stroke-miterlimit:4;stroke-dasharray:none;stroke-opacity:1"
     id="path4207"
     sodipodi:sides="3"
     sodipodi:cx="13.143039"
     sodipodi:cy="4.2615752"
     sodipodi:r1="2.6858473"
     sodipodi:r2="1.3429236"
     sodipodi:arg1="-0.011764163"
     sodipodi:arg2="1.0354334"
     inkscape:flatsided="true"
     inkscape:rounded="0"
     inkscape:randomized="0"
     d="M 15.8287,4.2299792 11.827571,6.6032243 11.772845,1.9515222 Z"
     inkscape:transform-center-x="-0.30193308"
     inkscape:transform-center-y="0.7011935"
     transform="matrix(1.3478011,-0.53803193,-0.53803193,-1.3478011,-3.1073829,24.930487)" /></svg>