<?xml version="1.0" encoding="utf-8"?>
<!-- Generator: Adobe Illustrator 19.1.0, SVG Export Plug-In . SVG Version: 6.00 Build 0)  -->
<!DOCTYPE svg PUBLIC "-//W3C//DTD SVG 1.1//EN" "http://www.w3.org/Graphics/SVG/1.1/DTD/svg11.dtd">
<svg version="1.1" id="Ebene_1" xmlns="http://www.w3.org/2000/svg" xmlns:xlink="http://www.w3.org/1999/xlink" x="0px" y="0px"
	 viewBox="-289 412.9 16 16" style="enable-background:new -289 412.9 16 16;" xml:space="preserve">
<style type="text/css">
	.st0{fill:#FFFFFF;}
	.st1{enable-background:new    ;}
	.st2{fill:#F1933B;}
</style>
<rect id="XMLID_14_" x="-282.9" y="424.4" class="st0" width="3.9" height="4.5"/>
<polygon id="XMLID_15_" class="st0" points="-278,424.4 -278,428.9 -277.9,428.9 -274,428.9 -274,424.4 "/>
<polygon id="XMLID_16_" points="-277.9,423.4 -279,423.4 -282.9,423.4 -283.9,423.4 -289,423.4 -289,428.9 -288,428.9 -288,428.9 
	-288,424.4 -283.9,424.4 -283.9,428.9 -283.9,428.9 -282.9,428.9 -282.9,428.9 -282.9,424.4 -279,424.4 -279,428.9 -279,428.9 
	-278.9,428.9 -278,428.9 -277.9,428.9 -277.9,428.9 -278,428.9 -278,424.4 -274,424.4 -274,428.9 -274,428.9 -273,428.9 -273,423.4 
	"/>
<rect id="XMLID_17_" x="-288" y="424.4" class="st0" width="4.1" height="4.5"/>
<rect id="XMLID_18_" x="-283" y="412.9" class="st0" width="4" height="4.6"/>
<polygon id="XMLID_19_" points="-278,412.9 -278.5,412.9 -279,412.9 -279,417.5 -283,417.5 -283,412.9 -283.5,412.9 -284,412.9 
	-284,418.5 -278,418.5 "/>
<g id="XMLID_7_">
	<polygon id="XMLID_9_" points="-281,422.4 -279.4,419.6 -280.6,419.6 -280.6,415.5 -281.4,415.5 -281.4,419.6 -282.6,419.6 	"/>
</g>
<g id="XMLID_2_">
	<polygon id="XMLID_3_" points="-275.6,422.4 -274,419.6 -275.3,419.6 -275.3,415.5 -276,415.5 -276,419.6 -277.3,419.6 	"/>
</g>
<g id="XMLID_4_">
	<polygon id="XMLID_5_" points="-286.3,422.4 -284.7,419.6 -286,419.6 -286,415.5 -286.7,415.5 -286.7,419.6 -288,419.6 	"/>
</g>
<g class="st1">
	<g>
		<rect x="-288.5" y="423.9" class="st2" width="5.1" height="3.2"/>
		<path d="M-282.9,427.6h-6.1v-4.2h6.1V427.6z M-288,426.6h4.1v-2.2h-4.1V426.6z"/>
	</g>
</g>
<g class="st1">
	<g>
		<rect x="-278.5" y="423.9" class="st2" width="5" height="3.2"/>
		<path d="M-273,427.6h-6v-4.2h6V427.6z M-278,426.6h4v-2.2h-4V426.6z"/>
	</g>
</g>
<g class="st1">
	<g>
		<rect x="-283.4" y="423.9" class="st2" width="4.9" height="3.2"/>
		<path d="M-278,427.6h-5.9v-4.2h5.9V427.6z M-282.9,426.6h3.9v-2.2h-3.9V426.6z"/>
	</g>
</g>
</svg>
