<?xml version="1.0" encoding="UTF-8" standalone="no"?>
<!-- Generator: Adobe Illustrator 21.0.0, SVG Export Plug-In . SVG Version: 6.00 Build 0)  -->

<svg
   xmlns:dc="http://purl.org/dc/elements/1.1/"
   xmlns:cc="http://creativecommons.org/ns#"
   xmlns:rdf="http://www.w3.org/1999/02/22-rdf-syntax-ns#"
   xmlns:svg="http://www.w3.org/2000/svg"
   xmlns="http://www.w3.org/2000/svg"
   xmlns:sodipodi="http://sodipodi.sourceforge.net/DTD/sodipodi-0.dtd"
   xmlns:inkscape="http://www.inkscape.org/namespaces/inkscape"
   version="1.0"
   id="Ebene_1"
   x="0px"
   y="0px"
   viewBox="0 0 16 16"
   style="enable-background:new 0 0 16 16;"
   xml:space="preserve"
   inkscape:version="0.91 r13725"
   sodipodi:docname="old_to_new-icon.svg"
   inkscape:export-filename="/home/simon/git/knime-core/org.knime.time/src/org/knime/time/node/convert/oldtonew/old_to_new@2x.png"
   inkscape:export-xdpi="180.40984"
   inkscape:export-ydpi="180.40984"><metadata
     id="metadata26"><rdf:RDF><cc:Work
         rdf:about=""><dc:format>image/svg+xml</dc:format><dc:type
           rdf:resource="http://purl.org/dc/dcmitype/StillImage" /><dc:title /></cc:Work></rdf:RDF></metadata><defs
     id="defs24" /><sodipodi:namedview
     pagecolor="#ffffff"
     bordercolor="#666666"
     borderopacity="1"
     objecttolerance="10"
     gridtolerance="10"
     guidetolerance="10"
     inkscape:pageopacity="0"
     inkscape:pageshadow="2"
     inkscape:window-width="2560"
     inkscape:window-height="1343"
     id="namedview22"
     showgrid="false"
     inkscape:zoom="45.254834"
     inkscape:cx="7.1963231"
     inkscape:cy="5.7199097"
     inkscape:window-x="0"
     inkscape:window-y="27"
     inkscape:window-maximized="1"
     inkscape:current-layer="Ebene_1" /><style
     type="text/css"
     id="style3">
	.st0{fill:#FFFFFF;}
	.st1{fill:#222221;}
	.st2{fill:#9B9A9A;}
</style><polygon
     transform="translate(3.9400655,1.6252003)"
     id="XMLID_19_"
     points="10.7,3.6 10.7,1.2 10.7,1.2 10.7,1.2 5.4,1.2 5.4,1.9 10,1.9 10,3.6 8.7,3.6 10.4,6.4 12,3.6 " /><g
     transform="matrix(0.74483845,0,0,0.74483845,-1.2986756,-1.1030078)"
     id="g5"><g
       id="g7"
       transform="translate(-0.00741674,0.02966695)"><ellipse
         class="st0"
         cx="8"
         cy="8"
         rx="5.6999998"
         ry="6"
         id="ellipse9"
         style="fill:#ffffff" /><path
         inkscape:connector-curvature="0"
         d="M 8,14.5 C 4.6,14.5 1.8,11.6 1.8,8 1.8,4.4 4.6,1.5 8,1.5 c 3.4,0 6.2,2.9 6.2,6.5 0,3.6 -2.8,6.5 -6.2,6.5 z M 8,2.5 C 5.1,2.5 2.8,5 2.8,8 2.8,11 5.1,13.5 8,13.5 10.9,13.5 13.2,11 13.2,8 13.2,5 10.9,2.5 8,2.5 Z"
         id="path11" /></g><path
       inkscape:connector-curvature="0"
       d="M 8,8.5 C 7.7,8.5 7.5,8.3 7.5,8 l 0,-4.5 C 7.5,3.2 7.7,3 8,3 8.3,3 8.5,3.2 8.5,3.5 L 8.5,8 C 8.5,8.3 8.3,8.5 8,8.5 Z"
       id="path13" /><path
       inkscape:connector-curvature="0"
       d="m 8,8.5 -2.8,0 C 4.9,8.5 4.7,8.3 4.7,8 4.7,7.7 4.9,7.5 5.2,7.5 L 8,7.5 C 8.3,7.5 8.5,7.7 8.5,8 8.5,8.3 8.3,8.5 8,8.5 Z"
       id="path15" /></g><text
     xml:space="preserve"
     style="font-style:normal;font-weight:normal;font-size:6.52988005px;line-height:125%;font-family:sans-serif;letter-spacing:0px;word-spacing:0px;fill:#000000;fill-opacity:1;stroke:none;stroke-width:1px;stroke-linecap:butt;stroke-linejoin:miter;stroke-opacity:1"
     x="0.7226752"
     y="16"
     id="text4142"
     sodipodi:linespacing="125%"><tspan
       sodipodi:role="line"
       id="tspan4144"
       x="0.7226752"
       y="16">NEW</tspan></text>
</svg>