<?xml version="1.0" encoding="utf-8"?>
<!-- Generator: Adobe Illustrator 20.1.0, SVG Export Plug-In . SVG Version: 6.00 Build 0)  -->
<svg version="1.0" id="Ebene_1" xmlns="http://www.w3.org/2000/svg" xmlns:xlink="http://www.w3.org/1999/xlink" x="0px" y="0px"
	 viewBox="0 0 16 16" style="enable-background:new 0 0 16 16;" xml:space="preserve">
<style type="text/css">
	.st0{fill:#FFFFFF;}
	.st1{fill:#222221;}
	.st2{fill:#74AC77;}
</style>
<g>
	<g>
		<g>
			<polygon class="st0" points="9.3,15.5 0.5,15.5 0.5,0.5 6.9,0.5 9.3,3 			"/>
			<path class="st1" d="M9.8,16H0V0h7.1l2.7,2.7V16z M1,15h7.8V3.2L6.7,1H1V15z"/>
		</g>
		<polygon class="st1" points="9.5,3.5 6.3,3.5 6.3,0.3 		"/>
	</g>
</g>
<g>
	<path class="st1" d="M12.5,13.9l-2-5.6h1.2l1.4,4.1l1.4-4.1h1.2l-2,5.6H12.5z"/>
</g>
<g>
	<path class="st1" d="M1.7,13.4l0-0.7l0.7,0l0,0.7L1.7,13.4z"/>
	<path class="st1" d="M3.1,13.4l0-0.7l0.7,0l0,0.7L3.1,13.4z"/>
	<path class="st1" d="M4.5,13.5l0.9-3.8l0.5,0L5,13.5L4.5,13.5z"/>
	<path class="st1" d="M5.9,13.4l0-0.7l0.7,0l0,0.7L5.9,13.4z"/>
	<path class="st1" d="M7.4,13.4l0-0.7l0.7,0l0,0.7L7.4,13.4z"/>
</g>
<polygon id="XMLID_403_" class="st2" points="5.8,3.2 4.2,3.2 4.2,1.6 3.1,1.6 3.1,3.2 1.5,3.2 1.5,4.3 3.1,4.3 3.1,5.9 4.2,5.9 
	4.2,4.3 5.8,4.3 "/>
<polygon class="st1" points="13.1,7 11.6,4.4 12.7,4.4 12.7,2.8 10.5,2.8 10.5,2 13.5,2 13.5,2.8 13.5,4.4 14.6,4.4 "/>
</svg>
