<?xml version="1.0" encoding="UTF-8" standalone="no"?>
<!-- Created with Inkscape (http://www.inkscape.org/) -->

<svg
   xmlns:ns0="http://www.iki.fi/pav/software/textext/"
   xmlns:dc="http://purl.org/dc/elements/1.1/"
   xmlns:cc="http://creativecommons.org/ns#"
   xmlns:rdf="http://www.w3.org/1999/02/22-rdf-syntax-ns#"
   xmlns:svg="http://www.w3.org/2000/svg"
   xmlns="http://www.w3.org/2000/svg"
   xmlns:sodipodi="http://sodipodi.sourceforge.net/DTD/sodipodi-0.dtd"
   xmlns:inkscape="http://www.inkscape.org/namespaces/inkscape"
   sodipodi:docname="icon.svg"
   inkscape:version="0.48.4 r9939"
   version="1.1"
   id="svg2"
   height="16"
   width="16"
   inkscape:export-filename="C:\DEVELOPMENT\workspaces\KNIME-workspace_3_7\plugins\org.knime.base\src\org\knime\base\node\mine\bayes\naivebayes\predictor3\naiveBayesPredictor.png"
   inkscape:export-xdpi="90"
   inkscape:export-ydpi="90"
   enable-background="new">
  <sodipodi:namedview
     id="base"
     pagecolor="#ffffff"
     bordercolor="#666666"
     borderopacity="1.0"
     inkscape:pageopacity="0.0"
     inkscape:pageshadow="2"
     inkscape:zoom="54.358834"
     inkscape:cx="0.7950276"
     inkscape:cy="7.5926194"
     inkscape:document-units="px"
     inkscape:current-layer="layer1"
     showgrid="true"
     inkscape:window-width="2498"
     inkscape:window-height="1417"
     inkscape:window-x="54"
     inkscape:window-y="-8"
     inkscape:window-maximized="1"
     inkscape:snap-from-guide="false">
    <inkscape:grid
       type="xygrid"
       id="grid3029"
       empspacing="5"
       visible="true"
       enabled="true"
       snapvisiblegridlinesonly="true" />
  </sodipodi:namedview>
  <defs
     id="defs4">
    <filter
       inkscape:collect="always"
       id="filter3794">
      <feBlend
         inkscape:collect="always"
         mode="multiply"
         in2="BackgroundImage"
         id="feBlend3796" />
    </filter>
  </defs>
  <metadata
     id="metadata7">
    <rdf:RDF>
      <cc:Work
         rdf:about="">
        <dc:format>image/svg+xml</dc:format>
        <dc:type
           rdf:resource="http://purl.org/dc/dcmitype/StillImage" />
        <dc:title></dc:title>
      </cc:Work>
    </rdf:RDF>
  </metadata>
  <g
     id="layer1"
     inkscape:groupmode="layer"
     inkscape:label="P(A)"
     transform="translate(0,-1036.3622)"
     style="display:inline;filter:url(#filter3794)">
    <g
       ns0:preamble=""
       ns0:text="P(A)"
       word-spacing="normal"
       letter-spacing="normal"
       font-size-adjust="none"
       font-stretch="normal"
       font-weight="normal"
       font-variant="normal"
       font-style="normal"
       stroke-miterlimit="10.433"
       xml:space="preserve"
       transform="matrix(0.66016319,0,0,-1.0974159,-146.19796,1821.1673)"
       id="content"
       style="font-style:normal;font-variant:normal;font-weight:normal;font-stretch:normal;letter-spacing:normal;word-spacing:normal;text-anchor:start;fill:none;stroke:#000000;stroke-width:0.35246011;stroke-linecap:butt;stroke-linejoin:miter;stroke-miterlimit:10.43299961;stroke-opacity:1;stroke-dasharray:none;stroke-dashoffset:0">
<path
   id="path2991"
   d="m 225.69,709.33802 -0.03,0.26 0,2.69 c 0,0.32 0.02,0.39 0.49,0.39 l 0.88,0 c 1.59,0 1.59,-1.05 1.59,-1.54 0,-0.47 0,-1.54 -1.59,-1.54 l -1.37,0 0.03,-0.26 1.68,0 c 1.2,0 2.27,0.81 2.27,1.8 0,0.98 -0.99004,1.84351 -2.35,1.85 l -3.51,0 0,-0.31 0.24,0 c 0.77,0 0.78,-0.11 0.78,-0.46 l 0,-5.24 c 0,-0.36 -0.0151,-0.52342 -0.78,-0.47 l -0.24,0 0,-0.3 c 0.35,0.03 1.09,0.03 1.46,0.03 0.38,0 1.13,0 1.47,-0.03 l 0,0.3 -0.23,0 c -0.77,0 -0.79,0.11 -0.79,0.47 z"
   inkscape:connector-curvature="0"
   style="fill:#000000;stroke-width:0.35246012;stroke-miterlimit:10.43299961;stroke-dasharray:none"
   sodipodi:nodetypes="ccsssssccsssccssssccsccssc" />
<path
   style="fill:#000000;stroke-width:0.35246012;stroke-miterlimit:10.43299961;stroke-dasharray:none"
   d="m 233.28707,705.36024 c -0.0674,0.15896 -0.21304,0.22646 -0.33971,0.39983 -1.16084,1.32365 -1.22576,2.55006 -1.17018,4.25517 0.042,1.6039 0.35076,2.73172 1.54937,3.86032 -0.1024,0.39304 -0.64074,-0.32644 -0.81432,-0.47642 -1.32925,-1.4953 -1.49947,-3.0833 -1.22227,-5.01219 0.19778,-1.40618 0.62909,-2.17587 1.76743,-3.05868 0.0684,-0.0686 0.22969,-0.11452 0.22968,0.032 z"
   id="path2993"
   inkscape:connector-curvature="0"
   sodipodi:nodetypes="ccccccccc" />
<path
   id="path2995"
   d="m 237.7992,712.91686 -0.01,0.01 0,0.01 -0.01,0.01 0,0.01 0,0.02 -0.01,0.01 0,0.01 -0.01,0 0,0.01 -0.01,0.01 0,0.01 -0.01,0.01 0,0.01 -0.01,0 0,0.01 -0.01,0.01 0,0 -0.01,0.01 -0.01,0 0,0.01 -0.01,0 -0.01,0.01 -0.01,0 -0.01,0.01 -0.01,0 -0.01,0 -0.01,0 -0.01,0 -0.01,0.01 -0.01,0 -0.02,0 0,0 -0.01,0 c -0.16,0 -0.60799,0.0573 -0.65799,-0.0827 l -2.25506,-5.73884 c -0.18,-0.51 -0.16201,-0.66 -0.70201,-0.67 l 0,-0.36705 c 2.19507,0.003 0.18072,0.0197 2.3272,0 l 0,0.36705 c -0.49,0 -0.9072,0.23324 -0.9072,0.49324 0,0.03 0.01,0.13 0.02,0.15 l 0.46,1.3 0.1,0.31 1.31506,3.23 1.17574,-3.23 -2.4908,0 -0.1,-0.31 2.7008,0 0.55786,-1.52 c 0.01,-0.04 0.03,-0.1 0.03,-0.14 0,-0.3 -0.44853,-0.3 -0.70853,-0.3 l 0,-0.40058 c 2.02868,-0.0122 1.7524,0.009 2.33987,0 l 0,0.40058 -0.18,0 c -0.59,0 -0.46134,0.07 -0.56134,0.4 z"
   inkscape:connector-curvature="0"
   style="fill:#000000;stroke-width:0.35246012;stroke-miterlimit:10.43299961;stroke-dasharray:none"
   sodipodi:nodetypes="cccccccccccccccccccccccccccccccccsccccccscccccccccsccccscc" />
<path
   style="fill:#000000;stroke-width:0.35246012;stroke-miterlimit:10.43299961;stroke-dasharray:none"
   d="m 243.81694,709.61 c 0.0309,1.79386 -0.57692,3.19113 -1.97442,4.37315 -0.44484,-0.24212 -0.0422,-0.24134 0.45617,-0.94196 1.02067,-1.64684 1.09295,-3.20291 0.81672,-5.0739 -0.20646,-1.17813 -0.67281,-1.77444 -1.5544,-2.60606 0.51904,-0.093 0.85643,0.32847 1.10317,0.68239 0.81437,0.95264 1.05005,1.78062 1.13593,3.01019 0.0117,0.18514 0.0172,0.37068 0.0168,0.55619 z"
   id="path2997"
   inkscape:connector-curvature="0"
   sodipodi:nodetypes="ccccccccc" />
</g>  </g>
  <g
     inkscape:groupmode="layer"
     id="layer2"
     inkscape:label="Arrow"
     style="display:inline">
    <path
       transform="translate(0,-1036.3622)"
       style="fill:#ffd800;fill-opacity:1;stroke:#f8c71a;stroke-width:1;stroke-linecap:square;stroke-miterlimit:4;stroke-opacity:1;stroke-dasharray:none"
       d="m 8.9971679,1051.3799 2.7458251,-1.5088 2.774728,-1.5089 -2.774728,-1.5089 -2.7458251,-1.5088 0.00283,2.0177 -7.5177208,0 0,2 7.5177208,0 z"
       id="path2992"
       inkscape:connector-curvature="0"
       sodipodi:nodetypes="cccccccccc" />
  </g>
</svg>
