<?xml version="1.0" encoding="utf-8"?>
<!-- Generator: Adobe Illustrator 19.0.0, SVG Export Plug-In . SVG Version: 6.00 Build 0)  -->
<!DOCTYPE svg PUBLIC "-//W3C//DTD SVG 1.0//EN" "http://www.w3.org/TR/2001/REC-SVG-20010904/DTD/svg10.dtd">
<svg version="1.0" id="Ebene_1" xmlns="http://www.w3.org/2000/svg" xmlns:xlink="http://www.w3.org/1999/xlink" x="0px" y="0px"
	 viewBox="0 0 16 16" enable-background="new 0 0 16 16" xml:space="preserve">
<g id="XMLID_1_">
	<path id="XMLID_3_" d="M8.7,10.2H7.2c0-0.2,0-0.8,0-0.8c0-0.5,0.1-0.9,0.2-1.2s0.5-0.7,1-1.1s0.8-0.6,0.9-0.8
		C9.4,6.2,9.5,6,9.5,5.8c0-0.3-0.1-0.6-0.4-0.8s-0.6-0.3-1-0.3C7.7,4.7,7.3,4.8,7,5C6.7,5.3,6.5,5.5,6.4,6L4.9,5.8
		c0-0.7,0.3-1.3,0.9-1.8S7.1,3.3,8,3.3S9.7,3.5,10.3,4s0.8,1.1,0.8,1.7c0,0.4-0.1,0.7-0.3,1S10.2,7.5,9.5,8C9.1,8.4,8.9,8.7,8.8,8.9
		C8.7,9,8.7,9.8,8.7,10.2z M7.2,12.7V11h1.6v1.7H7.2L7.2,12.7z"/>
</g>
</svg>
