<?xml version="1.0" encoding="UTF-8" standalone="no"?>
<!-- Created with Inkscape (http://www.inkscape.org/) -->

<svg
   xmlns:dc="http://purl.org/dc/elements/1.1/"
   xmlns:cc="http://creativecommons.org/ns#"
   xmlns:rdf="http://www.w3.org/1999/02/22-rdf-syntax-ns#"
   xmlns:svg="http://www.w3.org/2000/svg"
   xmlns="http://www.w3.org/2000/svg"
   xmlns:sodipodi="http://sodipodi.sourceforge.net/DTD/sodipodi-0.dtd"
   xmlns:inkscape="http://www.inkscape.org/namespaces/inkscape"
   width="360"
   height="360"
   id="svg2"
   version="1.1"
   inkscape:version="0.48.2 r9819"
   sodipodi:docname="1326904278.svg"
   inkscape:export-filename="C:\Users\adae\Desktop\try32.png"
   inkscape:export-xdpi="8"
   inkscape:export-ydpi="8">
  <defs
     id="defs4" />
  <sodipodi:namedview
     id="base"
     pagecolor="#ffffff"
     bordercolor="#666666"
     borderopacity="1.0"
     inkscape:pageopacity="0.0"
     inkscape:pageshadow="2"
     inkscape:zoom="0.7"
     inkscape:cx="-90.535759"
     inkscape:cy="84.285697"
     inkscape:document-units="px"
     inkscape:current-layer="layer1"
     showgrid="false"
     inkscape:window-width="1366"
     inkscape:window-height="706"
     inkscape:window-x="-8"
     inkscape:window-y="32"
     inkscape:window-maximized="1"
     fit-margin-top="10"
     fit-margin-left="10"
     fit-margin-right="10"
     fit-margin-bottom="10" />
  <metadata
     id="metadata7">
    <rdf:RDF>
      <cc:Work
         rdf:about="">
        <dc:format>image/svg+xml</dc:format>
        <dc:type
           rdf:resource="http://purl.org/dc/dcmitype/StillImage" />
        <dc:title></dc:title>
      </cc:Work>
    </rdf:RDF>
  </metadata>
  <g
     inkscape:label="Layer 1"
     inkscape:groupmode="layer"
     id="layer1"
     transform="translate(-191.96433,-256.64787)">
    <path
       style="fill:#ff0000;fill-opacity:1;stroke-width:0;stroke-miterlimit:4"
       d="m 196.25004,449.50502 c 0,76.53089 229.50099,150 332.85713,150 103.35615,0 -238.57142,-107.75482 -238.57142,-184.28571 0,-76.53088 179.07043,-147.14286 75.71428,-147.14286 -103.35614,0 -169.99999,104.89769 -169.99999,181.42857 z"
       id="path2985"
       inkscape:connector-curvature="0"
       sodipodi:nodetypes="sssss" />
    <path
       style="fill:#ff0000;fill-opacity:1;stroke:none"
       d="m 66.03567,222.66419 c -26.170863,-6.37126 -31.667999,-34.90402 -7.116877,-36.93999 10.163457,-0.84284 18.405726,2.24634 25.570498,9.58373 14.583136,14.93449 2.725703,32.51234 -18.453621,27.35626 z m 7.951059,-11.57159 c 6.952084,-3.72064 0.563622,-14.23545 -8.649003,-14.23545 -9.34919,0 -11.41978,5.93446 -4.192449,12.01586 4.699347,3.95424 8.40381,4.59454 12.841452,2.21959 z"
       id="path2987"
       inkscape:connector-curvature="0"
       transform="translate(191.96433,265.21931)" />
    <path
       style="fill:#ff0000;fill-opacity:1;stroke:none"
       d="m 61.749956,220.84779 c -13.592441,-4.75127 -21.274879,-17.68531 -16.214709,-27.29885 2.089645,-3.97 3.522817,-4.91447 10.30417,-6.79055 11.858652,-3.28074 26.810234,3.67762 32.308889,15.03633 3.659441,7.5594 2.819235,12.23514 -3.092455,17.2095 -3.383527,2.84705 -5.731404,3.54444 -11.629788,3.45443 -4.064716,-0.062 -9.318964,-0.78692 -11.676107,-1.61086 z M 75.03567,209.42858 c 0.942857,-0.94286 1.714286,-2.42879 1.714286,-3.30206 0,-2.17247 -5.433795,-7.8408 -7.516373,-7.8408 -0.929933,0 -0.225457,1.02636 1.565504,2.28079 4.756744,3.33176 3.644694,8.3097 -1.979273,8.85996 -5.920005,0.57922 -10.612144,-4.28613 -8.06577,-8.36352 1.407982,-2.25454 1.357596,-2.77723 -0.267713,-2.77723 -3.670232,0 -3.659647,4.15768 0.02172,8.53274 3.900057,4.63496 11.192562,5.94517 14.527616,2.61012 z"
       id="path2989"
       inkscape:connector-curvature="0"
       transform="translate(191.96433,265.21931)" />
    <path
       style="fill:#ff0000;fill-opacity:1;stroke:none"
       d="M 59.01742,219.66834 C 46.064252,213.2047 41.001377,203.33759 45.533823,193.38996 c 2.293123,-5.03286 12.073271,-8.58571 20.256378,-7.35858 9.278778,1.39144 19.120402,8.18502 22.43482,15.48654 3.808523,8.39002 3.526302,10.62357 -2.046494,16.19637 -4.437144,4.43714 -5.579788,4.85222 -13.214286,4.80022 -5.329591,-0.0363 -10.382121,-1.06739 -13.946821,-2.84617 l 0,0 z M 74.502226,208.9008 c 2.302648,-2.30265 1.262701,-6.43229 -2.15113,-8.54215 -0.875085,-0.54083 -0.775609,0.25879 0.23314,1.87406 2.2975,3.67888 0.889494,7.10054 -3.246925,7.89051 -3.177504,0.60684 -3.184625,0.63786 -0.189397,0.8251 1.711736,0.107 4.121176,-0.81439 5.354312,-2.04752 l 0,0 z m -13.488432,-9.62796 c 0.01203,-0.63566 -0.620981,-0.75843 -1.406695,-0.27284 -0.785715,0.4856 -1.418728,1.96997 -1.406696,3.2986 0.01885,2.08182 0.213268,2.11953 1.406696,0.27283 0.761651,-1.17857 1.394664,-2.66294 1.406695,-3.29859 z"
       id="path2991"
       inkscape:connector-curvature="0"
       transform="translate(191.96433,265.21931)" />
  </g>
</svg>
