<?xml version="1.0" encoding="utf-8"?>
<!-- Generator: Adobe Illustrator 19.1.0, SVG Export Plug-In . SVG Version: 6.00 Build 0)  -->
<!DOCTYPE svg PUBLIC "-//W3C//DTD SVG 1.1//EN" "http://www.w3.org/Graphics/SVG/1.1/DTD/svg11.dtd">
<svg version="1.1" id="Ebene_1" xmlns="http://www.w3.org/2000/svg" xmlns:xlink="http://www.w3.org/1999/xlink" x="0px" y="0px"
	 viewBox="-412 290.3 16 16" style="enable-background:new -412 290.3 16 16;" xml:space="preserve">
<style type="text/css">
	.st0{fill:#E64E4F;}
</style>
<path class="st0" d="M-396.3,303.5c-0.2-0.4-0.9-0.6-1.3-0.7c-1.2-0.5-2.3-1-3.5-1.5c-1.3-0.6-0.9-0.4-0.2-0.1
	c-1.5-0.6-3.3-1.3-4.5-2.4c-1.4-1.2-0.5-2.5,0.2-3.8c0.1-0.2,0.9-1.1,2-2.3l0.3-0.3c0,0-0.2-0.3-1-0.4c-2.5-0.4-4.1,1.1-5.4,2.3
	c-1.5,1.4-2.8,3.7-1.7,5.7c0.9,1.7,2.9,2.4,4.6,3c2.5,0.9,5.2,1.5,7.8,1.7C-398.3,304.7-395.5,304.7-396.3,303.5z"/>
</svg>
