<?xml version="1.0" encoding="utf-8"?>
<!-- Generator: Adobe Illustrator 19.0.0, SVG Export Plug-In . SVG Version: 6.00 Build 0)  -->
<!DOCTYPE svg PUBLIC "-//W3C//DTD SVG 1.1//EN" "http://www.w3.org/Graphics/SVG/1.1/DTD/svg11.dtd">
<svg version="1.1" id="Ebene_1" xmlns="http://www.w3.org/2000/svg" xmlns:xlink="http://www.w3.org/1999/xlink" x="0px" y="0px"
	 viewBox="0 0 16 16" style="enable-background:new 0 0 16 16;" xml:space="preserve">
<path d="M15.7,13.2c-0.2-0.4-0.9-0.6-1.3-0.7c-1.2-0.5-2.3-1-3.5-1.5c-1.3-0.6-0.9-0.4-0.2-0.1c-1.5-0.6-3.3-1.3-4.5-2.4
	C4.8,7.3,5.7,6,6.4,4.7c0.1-0.2,0.9-1.1,2-2.3l0.3-0.3l-1-0.4C5.7,1.4,3.6,2.8,2.3,4C0.8,5.4-0.5,7.7,0.6,9.7c0.9,1.7,2.9,2.4,4.6,3
	c2.5,0.9,5.2,1.5,7.8,1.7C13.7,14.4,16.5,14.4,15.7,13.2z"/>
</svg>
