<?xml version="1.0" encoding="UTF-8" standalone="no"?>
<!-- Generator: Adobe Illustrator 19.0.0, SVG Export Plug-In . SVG Version: 6.00 Build 0)  -->

<svg
   xmlns:dc="http://purl.org/dc/elements/1.1/"
   xmlns:cc="http://creativecommons.org/ns#"
   xmlns:rdf="http://www.w3.org/1999/02/22-rdf-syntax-ns#"
   xmlns:svg="http://www.w3.org/2000/svg"
   xmlns="http://www.w3.org/2000/svg"
   xmlns:sodipodi="http://sodipodi.sourceforge.net/DTD/sodipodi-0.dtd"
   xmlns:inkscape="http://www.inkscape.org/namespaces/inkscape"
   version="1.1"
   id="Ebene_1"
   x="0px"
   y="0px"
   viewBox="0 0 16 16"
   style="enable-background:new 0 0 16 16;"
   xml:space="preserve"
   inkscape:version="0.91 r13725"
   sodipodi:docname="add_time-icon.svg"><metadata
     id="metadata19"><rdf:RDF><cc:Work
         rdf:about=""><dc:format>image/svg+xml</dc:format><dc:type
           rdf:resource="http://purl.org/dc/dcmitype/StillImage" /></cc:Work></rdf:RDF></metadata><defs
     id="defs17" /><sodipodi:namedview
     pagecolor="#ffffff"
     bordercolor="#666666"
     borderopacity="1"
     objecttolerance="10"
     gridtolerance="10"
     guidetolerance="10"
     inkscape:pageopacity="0"
     inkscape:pageshadow="2"
     inkscape:window-width="640"
     inkscape:window-height="480"
     id="namedview15"
     showgrid="false"
     inkscape:zoom="14.75"
     inkscape:cx="8"
     inkscape:cy="8"
     inkscape:window-x="0"
     inkscape:window-y="27"
     inkscape:window-maximized="0"
     inkscape:current-layer="g5" /><style
     type="text/css"
     id="style3">
	.st0{fill:#FFFFFF;}
</style><g
     id="g5"><g
       id="XMLID_78_"
       transform="matrix(1.0302664,0,0,1.0302664,0.5272397,0.61016949)"><g
         id="XMLID_80_"><path
           id="XMLID_76_"
           class="st0"
           d="M 6.1,0.8 C 3.5,0.8 1.3,3 1.3,5.6 c 0,2.6 2.2,4.8 4.8,4.8 2.6,0 4.8,-2.2 4.8,-4.8 C 10.9,3 8.8,0.8 6.1,0.8 Z"
           inkscape:connector-curvature="0"
           style="fill:#ffffff" /><path
           id="XMLID_81_"
           d="m 6.1,0 c -3,0 -5.6,2.5 -5.6,5.6 0,3 2.5,5.6 5.6,5.6 3,0 5.6,-2.5 5.6,-5.6 C 11.7,2.5 9.2,0 6.1,0 Z m 0,10.4 C 3.5,10.4 1.3,8.2 1.3,5.6 1.3,3 3.5,0.8 6.1,0.8 c 2.6,0 4.8,2.2 4.8,4.8 0,2.6 -2.1,4.8 -4.8,4.8 z"
           inkscape:connector-curvature="0" /></g><polygon
         id="XMLID_73_"
         points="5.7,5.2 5.7,1.3 6.5,1.3 6.5,6 2.9,6 2.9,5.2 " /></g><g
       id="XMLID_140_" /><polygon
       transform="translate(0.23898309,0.10677966)"
       id="XMLID_190_"
       points="11.3,13 11.3,15.1 12.8,15.1 12.8,13 14.9,13 14.9,11.6 12.8,11.6 12.8,9.5 11.3,9.5 11.3,11.6 9.3,11.6 9.3,13 " /></g></svg>