<?xml version="1.0" encoding="utf-8"?>
<!-- Generator: Adobe Illustrator 19.1.0, SVG Export Plug-In . SVG Version: 6.00 Build 0)  -->
<!DOCTYPE svg PUBLIC "-//W3C//DTD SVG 1.1//EN" "http://www.w3.org/Graphics/SVG/1.1/DTD/svg11.dtd">
<svg version="1.1" id="Ebene_1" xmlns="http://www.w3.org/2000/svg" xmlns:xlink="http://www.w3.org/1999/xlink" x="0px" y="0px"
	 viewBox="-289 412.9 16 16" style="enable-background:new -289 412.9 16 16;" xml:space="preserve">
<style type="text/css">
	.st0{fill:#F1933B;}
	.st1{fill:#FFFFFF;}
</style>
<g id="cHEcMn.tif">
	<g>
		<path d="M-285.6,414.8c-1.2,0.7-2.3,1.4-3.4,2.1c1.6,2.6,3.2,5.3,4.8,7.9c1.1-0.7,2.2-1.4,3.4-2.1
			C-282.4,420.2-284,417.5-285.6,414.8z"/>
		<path d="M-283.8,425.5c1,0.4,2,0.9,3.2,1.4c0.1-1.2,0.2-2.4,0.2-3.4C-281.5,424.1-282.6,424.8-283.8,425.5z"/>
	</g>
</g>
<g>
	<rect x="-278" y="413.9" class="st0" width="4" height="4"/>
	<path d="M-279,412.9v16h6v-11v-5H-279z M-274,422.9h-4v-4h4V422.9z M-274,427.9h-4v-4h4V427.9z M-274,417.9h-4v-4h4V417.9z"/>
	<rect x="-278" y="418.9" class="st1" width="4" height="4"/>
	<rect x="-278" y="423.9" class="st1" width="4" height="4"/>
</g>
</svg>
