<?xml version="1.0" encoding="UTF-8" standalone="no"?>
<!-- Generator: Adobe Illustrator 21.0.0, SVG Export Plug-In . SVG Version: 6.00 Build 0)  -->

<svg
   xmlns:dc="http://purl.org/dc/elements/1.1/"
   xmlns:cc="http://creativecommons.org/ns#"
   xmlns:rdf="http://www.w3.org/1999/02/22-rdf-syntax-ns#"
   xmlns:svg="http://www.w3.org/2000/svg"
   xmlns="http://www.w3.org/2000/svg"
   xmlns:sodipodi="http://sodipodi.sourceforge.net/DTD/sodipodi-0.dtd"
   xmlns:inkscape="http://www.inkscape.org/namespaces/inkscape"
   version="1.1"
   id="Ebene_1"
   inkscape:export-filename="/home/simon/git/knime-core/org.knime.time/src/org/knime/time/node/manipulate/adddate/modify_date@2x.png"
   inkscape:export-xdpi="180.76891"
   inkscape:export-ydpi="180.76891"
   inkscape:version="0.91 r13725"
   sodipodi:docname="modify_date-icon.svg"
   x="0px"
   y="0px"
   viewBox="0 0 16 16"
   style="enable-background:new 0 0 16 16;"
   xml:space="preserve"><metadata
     id="metadata16"><rdf:RDF><cc:Work
         rdf:about=""><dc:format>image/svg+xml</dc:format><dc:type
           rdf:resource="http://purl.org/dc/dcmitype/StillImage" /></cc:Work></rdf:RDF></metadata><defs
     id="defs14" /><style
     type="text/css"
     id="style3">
	.st0{fill:#FFFFFF;}
</style><sodipodi:namedview
     bordercolor="#666666"
     borderopacity="1"
     gridtolerance="10"
     guidetolerance="10"
     id="namedview15"
     inkscape:current-layer="g5"
     inkscape:cx="-4.4613795"
     inkscape:cy="11.316721"
     inkscape:pageopacity="0"
     inkscape:pageshadow="2"
     inkscape:window-height="1343"
     inkscape:window-maximized="1"
     inkscape:window-width="2560"
     inkscape:window-x="0"
     inkscape:window-y="27"
     inkscape:zoom="32"
     objecttolerance="10"
     pagecolor="#ffffff"
     showgrid="false"
     showguides="false" /><g
     id="g5"><g
       id="XMLID_140_" /><path
       id="path41"
       inkscape:connector-curvature="0"
       inkscape:export-xdpi="308.62"
       inkscape:export-ydpi="308.62"
       d="m 11.616618,2.9449814 c -0.5,0.5 -0.9,1.2 -1.5,1.7 -0.8999998,1 -1.6999998,0.4 -2.4999998,-0.4 -0.8,-0.8 -1.1,-1.5 -0.2,-2.4 0.5,-0.5 1,-1.19999994 1.7,-1.79999994 -3.1,-0.3 -4.8,1.29999994 -4.9,3.69999994 0,0.3 0,0.6 0.1,1 -0.8999999,1 -3,3.2 -3.89999999,4.1 -0.8,1 -0.3,1.7000006 0.4,2.3000006 0.69999999,0.7 1.50000009,1.4 2.40000009,0.5 0.8999999,-0.8 3.0999999,-3.1000005 4.0999999,-3.9000006 0.3,0.1 0.7,0.1 1.0000001,0.1 2.3999998,-0.2 3.8999998,-2.1 3.2999998,-4.9 l 0,0 z" /><g
       transform="matrix(0.53860641,0,0,0.53860641,7.8097928,7.7551792)"
       id="g7"><g
         id="g9"><rect
           x="1.3"
           y="1.2"
           class="st0"
           width="13.4"
           height="13.6"
           id="rect11"
           style="fill:#ffffff" /><path
           inkscape:connector-curvature="0"
           class="st1"
           d="m 15.2,15.3 -14.4,0 0,-14.6 14.4,0 0,14.6 z m -13.4,-1 12.4,0 0,-12.6 -12.4,0 0,12.6 z"
           id="path13" /></g><rect
         x="1.8"
         y="3.5999999"
         class="st1"
         width="13.4"
         height="1"
         id="rect15" /><rect
         x="1.8"
         y="1.6"
         class="st2"
         width="12.4"
         height="2.0999999"
         id="rect17"
         style="fill:#999999" /></g><g
       transform="matrix(0.96230359,0,0,0.96230359,4.4015726,4.246792)"
       id="XMLID_404_"><path
         inkscape:connector-curvature="0"
         id="XMLID_407_"
         class="st1"
         d="M 5,10.1 5.9,10 C 6,10.7 6.8,11 7.1,10.3 7.5,9.6 6.8,9 6.1,9.2 L 6.2,8.5 C 6.7,8.5 7.2,8.1 6.9,7.6 6.5,7.1 5.9,7.5 5.9,8 L 5,7.8 C 5.2,6.8 6.2,6.2 7.1,6.7 8,7.2 8,8.3 7.1,8.8 8.3,9 8.2,10.5 7.4,11.1 6.5,11.8 5.1,11.2 5,10.1 Z" /><path
         inkscape:connector-curvature="0"
         id="XMLID_405_"
         class="st1"
         d="m 11,11.3 -0.9,0 0,-3.4 C 9.7,8.2 9.4,8.4 8.9,8.6 l 0,-0.8 C 9.5,7.6 10,7.2 10.2,6.6 l 0.8,0 0,4.7 z" /></g></g></svg>