<?xml version="1.0" encoding="utf-8"?>
<!-- Generator: Adobe Illustrator 19.1.0, SVG Export Plug-In . SVG Version: 6.00 Build 0)  -->
<!DOCTYPE svg PUBLIC "-//W3C//DTD SVG 1.1//EN" "http://www.w3.org/Graphics/SVG/1.1/DTD/svg11.dtd">
<svg version="1.1" id="Ebene_1" xmlns="http://www.w3.org/2000/svg" xmlns:xlink="http://www.w3.org/1999/xlink" x="0px" y="0px"
	 viewBox="-289 412.9 16 16" style="enable-background:new -289 412.9 16 16;" xml:space="preserve">
<style type="text/css">
	.st0{fill:#F1933B;}
	.st1{fill:#FFFFFF;}
</style>
<g>
	<rect x="-278" y="413.9" class="st0" width="4" height="4"/>
	<path d="M-279,412.9v16h6v-11v-5H-279z M-274,422.9h-4v-4h4V422.9z M-274,427.9h-4v-4h4V427.9z M-274,417.9h-4v-4h4V417.9z"/>
	<rect x="-278" y="418.9" class="st1" width="4" height="4"/>
	<rect x="-278" y="423.9" class="st1" width="4" height="4"/>
</g>
<g>
	<path d="M-282.5,415.5l-0.9-0.2c0.1-0.4,0.3-0.6,0.6-0.8c0.3-0.2,0.6-0.3,1.1-0.3s0.8,0.1,1,0.2c0.4,0.2,0.5,0.8,0.5,1.3v1.2
		c0,0.4,0.2,1.1,0.3,1.3h-1c0-0.1-0.1-0.4-0.1-0.4c-0.3,0.3-1,0.4-1.3,0.4c-0.4,0-0.7,0-0.9-0.2c-0.2-0.2-0.3-0.6-0.3-0.9
		c0-0.2,0-0.7,0.6-0.9c0.3-0.1,1.6-0.5,1.7-0.6l0,0c0-0.2,0-0.4-0.1-0.5c0-0.1-0.3-0.1-0.5-0.1C-282.3,415-282.5,415.5-282.5,415.5z
		 M-281.2,416.3c-0.1,0-1,0.3-1.1,0.4c-0.2,0.1-0.2,0.3-0.2,0.5c0,0.1,0.2,0.3,0.5,0.3c0.2,0,0.6-0.1,0.8-0.6c0-0.1,0-0.3,0-0.5
		V416.3z"/>
	<path d="M-283.4,427.6v-5.3h1v1.9c0.3-0.4,0.6-0.6,1.1-0.6s0.8,0.2,1.2,0.5c0.4,0.4,0.5,0.8,0.5,1.5s-0.1,1.2-0.4,1.6
		c-0.3,0.3-0.7,0.5-1.2,0.5c-0.2,0-0.9-0.2-1.2-0.7v0.6C-282.4,427.6-283.4,427.6-283.4,427.6z M-282.3,425.3
		c-0.1,0.5,0,1.1,0.1,1.3c0.2,0.2,0.5,0.3,0.9,0.3c0.2,0,0.3-0.1,0.5-0.3c0.2-0.2,0.2-0.6,0.2-0.9c0-0.5,0-1-0.6-1.2
		C-281.8,424.3-282.2,424.7-282.3,425.3z"/>
	<polygon points="-286.8,425.8 -288.3,425.8 -288.3,416 -286.8,416 -286.8,417.2 -284,415.6 -286.8,414 -286.8,415.2 -289,415.2 
		-289,415.2 -289,415.2 -289,426.5 -289,426.5 -289,426.6 -286.8,426.6 -286.8,427.8 -284,426.2 -286.8,424.6 	"/>
</g>
</svg>
