<?xml version="1.0" encoding="utf-8"?>
<!-- Generator: Adobe Illustrator 19.1.0, SVG Export Plug-In . SVG Version: 6.00 Build 0)  -->
<!DOCTYPE svg PUBLIC "-//W3C//DTD SVG 1.1//EN" "http://www.w3.org/Graphics/SVG/1.1/DTD/svg11.dtd">
<svg version="1.1" id="Ebene_1" xmlns="http://www.w3.org/2000/svg" xmlns:xlink="http://www.w3.org/1999/xlink" x="0px" y="0px"
	 viewBox="0 0 16 16" style="enable-background:new 0 0 16 16;" xml:space="preserve">
<style type="text/css">
	.st0{fill:#6BC15F;enable-background:new    ;}
	.st1{fill:#4C8442;enable-background:new    ;}
</style>
<path d="M15.8,4.8c-0.4-0.4-1-0.5-1.4-0.1L9,9.2L5,5.8c-0.3-0.3-0.9-0.3-1.2,0L0.4,8.3c-1,0.8,0.2,2.4,1.2,1.6l2.7-2l4.1,3.4
	c0.4,0.3,0.9,0.3,1.3,0l6-5C16.1,5.9,16.1,5.3,15.8,4.8C15.4,4.4,16.1,5.3,15.8,4.8z"/>
<g>
	<polygon class="st0" points="15,1.7 12.5,1.7 12.5,3.9 13.1,9.9 14.4,9.9 15,3.8 	"/>
	<rect x="13.1" y="12.8" class="st0" width="1.2" height="1.5"/>
	<path class="st1" d="M12.1,15.3h3.2v-3.5h-3.2V15.3z M13.1,12.8h1.2v1.5h-1.2V12.8z"/>
	<path class="st1" d="M11.5,0.7v3.2l0.7,7h3l0.7-7V0.7H11.5z M13.1,9.9l-0.6-6V1.7H15v2.1l-0.6,6.1H13.1z"/>
</g>
</svg>
