<?xml version="1.0" encoding="utf-8"?>
<!-- Generator: Adobe Illustrator 21.0.0, SVG Export Plug-In . SVG Version: 6.00 Build 0)  -->
<svg version="1.1"
	 id="Ebene_1" inkscape:export-filename="/home/simon/git/knime-core/org.knime.time/src/org/knime/time/node/manipulate/addtime/modify_time@2x.png" inkscape:export-xdpi="179.87286" inkscape:export-ydpi="179.87286" inkscape:version="0.91 r13725" sodipodi:docname="modify_time-icon.svg" xmlns:cc="http://creativecommons.org/ns#" xmlns:dc="http://purl.org/dc/elements/1.1/" xmlns:inkscape="http://www.inkscape.org/namespaces/inkscape" xmlns:rdf="http://www.w3.org/1999/02/22-rdf-syntax-ns#" xmlns:sodipodi="http://sodipodi.sourceforge.net/DTD/sodipodi-0.dtd" xmlns:svg="http://www.w3.org/2000/svg"
	 xmlns="http://www.w3.org/2000/svg" xmlns:xlink="http://www.w3.org/1999/xlink" x="0px" y="0px" viewBox="0 0 16 16"
	 style="enable-background:new 0 0 16 16;" xml:space="preserve">
<style type="text/css">
	.st0{fill:#FFFFFF;}
</style>
<sodipodi:namedview  bordercolor="#666666" borderopacity="1" gridtolerance="10" guidetolerance="10" id="namedview15" inkscape:current-layer="g5" inkscape:cx="-4.9340963" inkscape:cy="7.4374274" inkscape:pageopacity="0" inkscape:pageshadow="2" inkscape:window-height="1343" inkscape:window-maximized="1" inkscape:window-width="2560" inkscape:window-x="0" inkscape:window-y="27" inkscape:zoom="20.85965" objecttolerance="10" pagecolor="#ffffff" showgrid="false">
	</sodipodi:namedview>
<g id="g5">
	
		<g id="XMLID_78_" transform="matrix(0.78208239,0,0,0.78208239,7.0242131,7.322034)" inkscape:export-xdpi="178.1879" inkscape:export-ydpi="178.1879">
		<g id="XMLID_80_">
			<path id="XMLID_76_" inkscape:connector-curvature="0" class="st0" d="M5.9,0.7c-2.6,0-4.8,2.2-4.8,4.8s2.2,4.8,4.8,4.8
				s4.8-2.2,4.8-4.8C10.7,2.9,8.6,0.7,5.9,0.7z"/>
			<path id="XMLID_81_" inkscape:connector-curvature="0" d="M5.9-0.1c-3,0-5.6,2.5-5.6,5.6c0,3,2.5,5.6,5.6,5.6
				c3,0,5.6-2.5,5.6-5.6S9-0.1,5.9-0.1z M5.9,10.3c-2.6,0-4.8-2.2-4.8-4.8s2.2-4.8,4.8-4.8s4.8,2.2,4.8,4.8S8.6,10.3,5.9,10.3z"/>
		</g>
		<polygon id="XMLID_73_" points="5.5,5.1 5.5,1.2 6.3,1.2 6.3,5.9 2.7,5.9 2.7,5.1 		"/>
	</g>
	<g id="XMLID_140_">
	</g>
	<path id="path41" inkscape:connector-curvature="0" inkscape:export-xdpi="308.62" inkscape:export-ydpi="308.62" d="M11.6,3
		c-0.5,0.5-0.9,1.2-1.5,1.7C9.2,5.7,8.4,5.1,7.6,4.3C6.8,3.5,6.5,2.8,7.4,1.9c0.5-0.5,1-1.2,1.7-1.8C6-0.2,4.3,1.4,4.2,3.8
		c0,0.3,0,0.6,0.1,1c-0.9,1-3,3.2-3.9,4.1c-0.8,1-0.3,1.7,0.4,2.3c0.7,0.7,1.5,1.4,2.4,0.5c0.9-0.8,3.1-3.1,4.1-3.9
		c0.3,0.1,0.7,0.1,1,0.1C10.7,7.7,12.2,5.8,11.6,3L11.6,3z"/>
</g>
</svg>
