<?xml version="1.0" encoding="utf-8"?>
<!-- Generator: Adobe Illustrator 19.1.0, SVG Export Plug-In . SVG Version: 6.00 Build 0)  -->
<!DOCTYPE svg PUBLIC "-//W3C//DTD SVG 1.1//EN" "http://www.w3.org/Graphics/SVG/1.1/DTD/svg11.dtd">
<svg version="1.1" id="Ebene_1" xmlns="http://www.w3.org/2000/svg" xmlns:xlink="http://www.w3.org/1999/xlink" x="0px" y="0px"
	 viewBox="-289 412.9 16 16" style="enable-background:new -289 412.9 16 16;" xml:space="preserve">
<style type="text/css">
	.st0{fill:#FFFFFF;}
	.st1{fill:#F1933B;}
	.st2{enable-background:new    ;}
</style>
<polygon points="-274.3,415.7 -273,415.7 -274.6,412.9 -276.3,415.7 -275,415.7 -275,426.1 -276.3,426.1 -274.6,428.9 -273,426.1 
	-274.3,426.1 "/>
<g>
	<rect x="-286.1" y="419" class="st0" width="3.4" height="3.9"/>
	<rect x="-289" y="419" class="st0" width="1.9" height="3.9"/>
	<rect x="-289" y="423.8" class="st0" width="1.9" height="4.1"/>
	<rect x="-281.7" y="419" class="st0" width="3.7" height="3.9"/>
	<rect x="-281.7" y="423.8" class="st0" width="3.7" height="4.1"/>
	<rect x="-286.1" y="423.8" class="st0" width="3.4" height="4.1"/>
	<path d="M-289,419h1.9v3.9h-1.9v1h1.9v4h-1.9v1h12v-16h-12v1V419z M-282.7,427.9h-3.4v-4.1h3.4V427.9z M-282.7,422.8h-3.4V419h3.4
		V422.8z M-278,427.9h-3.7v-4.1h3.7V427.9z M-278,422.8h-3.7V419h3.7V422.8z"/>
	<rect x="-289" y="413.9" class="st1" width="11" height="4"/>
</g>
<g class="st2">
</g>
</svg>
