<?xml version="1.0" encoding="utf-8"?>
<!-- Generator: Adobe Illustrator 19.1.0, SVG Export Plug-In . SVG Version: 6.00 Build 0)  -->
<!DOCTYPE svg PUBLIC "-//W3C//DTD SVG 1.1//EN" "http://www.w3.org/Graphics/SVG/1.1/DTD/svg11.dtd">
<svg version="1.1" id="Ebene_1" xmlns="http://www.w3.org/2000/svg" xmlns:xlink="http://www.w3.org/1999/xlink" x="0px" y="0px"
	 viewBox="-289 412.9 16 16" style="enable-background:new -289 412.9 16 16;" xml:space="preserve">
<style type="text/css">
	.st0{fill:#E64E4F;}
	.st1{fill:#C4D13B;}
	.st2{fill:#FFD104;}
	.st3{fill:none;}
</style>
<g id="XMLID_3_">
	<path id="XMLID_4_" class="st0" d="M-281.8,417.4c-0.6-0.4-1.3-0.6-2.1-0.6c-2.3,0-4.1,1.9-4.1,4.1c0,2.3,1.8,4.2,4.1,4.1
		c0.8,0,1.5-0.2,2.1-0.6c-0.9-0.9-1.4-2.2-1.4-3.5C-283.3,419.6-282.7,418.3-281.8,417.4z"/>
	<path id="XMLID_34_" class="st1" d="M-280.2,424.5c0.6,0.4,1.3,0.6,2.1,0.6c2.3,0,4.1-1.9,4.1-4.1c0-2.3-1.9-4.2-4.1-4.2
		c-0.8,0-1.5,0.2-2.1,0.6c0.9,0.9,1.4,2.2,1.4,3.5C-278.8,422.3-279.3,423.6-280.2,424.5z"/>
	<path id="XMLID_35_" class="st2" d="M-281,418c-0.8,0.7-1.2,1.8-1.2,2.9c0,1.2,0.5,2.2,1.2,3c0.8-0.8,1.2-1.8,1.2-3
		C-279.7,419.8-280.3,418.7-281,418z"/>
</g>
<g>
	<path class="st3" d="M-281.8,417.4c-0.6-0.4-1.3-0.6-2.1-0.6c-2.3,0-4.1,1.9-4.1,4.1c0,2.3,1.8,4.2,4,4.1c0.8,0,1.5-0.2,2.1-0.6
		c-0.8-0.9-1.4-2.2-1.4-3.5S-282.7,418.3-281.8,417.4z"/>
	<path class="st3" d="M-281,418c-0.8,0.7-1.2,1.8-1.2,2.9s0.4,2.1,1.2,2.9c0.7-0.7,1.2-1.7,1.2-2.9
		C-279.8,419.8-280.3,418.7-281,418z"/>
	<path class="st3" d="M-278.1,416.8c-0.8,0-1.5,0.2-2.1,0.6c0.9,0.9,1.4,2.3,1.4,3.6c0,1.3-0.5,2.6-1.4,3.5c0.6,0.4,1.3,0.6,2.1,0.6
		c2.2,0,4.1-2,4.1-4.2S-275.9,416.8-278.1,416.8z"/>
	<path d="M-278.1,415.8c-1.1,0-2.1,0.3-2.9,0.9c-0.8-0.6-1.8-0.9-2.9-0.9c-2.8,0-5.1,2.3-5.1,5.1c0,2.8,2.3,5.1,5.1,5.1
		c1.1,0,2.1-0.3,2.9-0.9c0.8,0.6,1.8,0.9,2.9,0.9c2.8,0,5.1-2.3,5.1-5.1C-273,418.1-275.3,415.8-278.1,415.8z M-284,425
		c-2.2,0.1-4-1.8-4-4.1c0-2.2,1.8-4.1,4.1-4.1c0.8,0,1.5,0.2,2.1,0.6c-0.9,0.9-1.5,2.2-1.5,3.5s0.6,2.6,1.4,3.5
		C-282.5,424.8-283.2,425-284,425z M-282.2,420.9c0-1.1,0.4-2.2,1.2-2.9c0.7,0.7,1.2,1.8,1.2,2.9c0,1.2-0.5,2.2-1.2,2.9
		C-281.8,423-282.2,422-282.2,420.9z M-278.1,425.1c-0.8,0-1.5-0.2-2.1-0.6c0.9-0.9,1.4-2.2,1.4-3.5s-0.5-2.7-1.4-3.6
		c0.6-0.4,1.3-0.6,2.1-0.6c2.2,0,4.1,1.9,4.1,4.1S-275.9,425.1-278.1,425.1z"/>
</g>
</svg>
