<?xml version="1.0" encoding="utf-8"?>
<!-- Generator: Adobe Illustrator 19.1.0, SVG Export Plug-In . SVG Version: 6.00 Build 0)  -->
<!DOCTYPE svg PUBLIC "-//W3C//DTD SVG 1.1//EN" "http://www.w3.org/Graphics/SVG/1.1/DTD/svg11.dtd">
<svg version="1.1" id="Ebene_1" xmlns="http://www.w3.org/2000/svg" xmlns:xlink="http://www.w3.org/1999/xlink" x="0px" y="0px"
	 viewBox="-412 290.3 16 16" style="enable-background:new -412 290.3 16 16;" xml:space="preserve">
<style type="text/css">
	.st0{fill:#4EAF75;}
	.st1{fill:#FFFFFF;}
	.st2{fill:#E64E4F;}
</style>
<circle class="st0" cx="-408.5" cy="294.8" r="3.5"/>
<path id="XMLID_172_" class="st1" d="M-409.1,296.6l-1.4-1.4c-0.4-0.4,0.2-1,0.7-0.6l1,1l1.6-2.6c0.3-0.5,1.1,0,0.8,0.5l-1.9,3
	C-408.5,296.7-408.8,296.9-409.1,296.6z"/>
<circle class="st2" cx="-399.5" cy="294.8" r="3.5"/>
<g id="XMLID_132_">
	<path id="XMLID_133_" class="st1" d="M-398.8,294.8l1.2-1.2c0.4-0.4-0.2-1.1-0.7-0.7l-1.2,1.2l-1.2-1.2c-0.4-0.4-1.1,0.2-0.7,0.7
		l1.3,1.2l-1.2,1.2c-0.4,0.4,0.2,1.1,0.7,0.7l1.2-1.2l1.2,1.2c0.4,0.4,1.1-0.2,0.7-0.7L-398.8,294.8z"/>
</g>
<polygon points="-399.5,299.3 -401.1,302.1 -399.8,302.1 -399.8,304.5 -408.2,304.5 -408.2,302.1 -406.9,302.1 -408.5,299.3 
	-410.2,302.1 -408.9,302.1 -408.9,305.3 -399.1,305.3 -399.1,302.1 -397.8,302.1 "/>
</svg>
