<?xml version="1.0" encoding="utf-8"?>
<!-- Generator: Adobe Illustrator 19.0.0, SVG Export Plug-In . SVG Version: 6.00 Build 0)  -->
<!DOCTYPE svg PUBLIC "-//W3C//DTD SVG 1.1//EN" "http://www.w3.org/Graphics/SVG/1.1/DTD/svg11.dtd">
<svg version="1.1" id="Ebene_1" xmlns="http://www.w3.org/2000/svg" xmlns:xlink="http://www.w3.org/1999/xlink" x="0px" y="0px"
	 viewBox="0 0 16 16" style="enable-background:new 0 0 16 16;" xml:space="preserve">
<style type="text/css">
	.st0{fill:#CBCBCB;}
</style>
<g>
	<g>
		<circle class="st0" cx="3.5" cy="4" r="3.5"/>
		<path id="XMLID_172_" d="M2.9,5.8L1.5,4.4C1.1,4,1.7,3.4,2.2,3.8l1,1l1.6-2.6c0.3-0.5,1.1,0,0.8,0.5l-1.9,3
			C3.5,5.9,3.2,6.1,2.9,5.8z"/>
	</g>
	<g>
		<circle class="st0" cx="12.5" cy="4" r="3.5"/>
		<g id="XMLID_132_">
			<path id="XMLID_133_" d="M13.2,4l1.2-1.2c0.4-0.4-0.2-1.1-0.7-0.7l-1.2,1.2l-1.2-1.2c-0.4-0.4-1.1,0.2-0.7,0.7L11.9,4l-1.2,1.2
				c-0.4,0.4,0.2,1.1,0.7,0.7l1.2-1.2l1.2,1.2c0.4,0.4,1.1-0.2,0.7-0.7L13.2,4z"/>
		</g>
	</g>
	<polygon points="12.5,8.5 10.9,11.3 12.2,11.3 12.2,14.7 3.8,14.7 3.8,11.3 5.1,11.3 3.5,8.5 1.8,11.3 3.1,11.3 3.1,15.5 
		12.9,15.5 12.9,11.3 14.2,11.3 	"/>
</g>
</svg>
