<?xml version="1.0" encoding="UTF-8" standalone="no"?>
<svg
   xmlns:dc="http://purl.org/dc/elements/1.1/"
   xmlns:cc="http://creativecommons.org/ns#"
   xmlns:rdf="http://www.w3.org/1999/02/22-rdf-syntax-ns#"
   xmlns:svg="http://www.w3.org/2000/svg"
   xmlns="http://www.w3.org/2000/svg"
   xmlns:sodipodi="http://sodipodi.sourceforge.net/DTD/sodipodi-0.dtd"
   xmlns:inkscape="http://www.inkscape.org/namespaces/inkscape"
   width="500"
   height="500"
   id="svg2"
   version="1.1"
   inkscape:version="0.48.2 r9819"
   sodipodi:docname="inverter.svg"
   inkscape:export-filename="E:\eclipse-3.7.2-workspace_trunk\plugins\org.knime.base\src\org\knime\base\node\flowcontrol\trycatch\inverter\inverter.png"
   inkscape:export-xdpi="3.2575037"
   inkscape:export-ydpi="3.2575037">
  <metadata
     id="metadata19">
    <rdf:RDF>
      <cc:Work
         rdf:about="">
        <dc:format>image/svg+xml</dc:format>
        <dc:type
           rdf:resource="http://purl.org/dc/dcmitype/StillImage" />
        <dc:title></dc:title>
      </cc:Work>
    </rdf:RDF>
  </metadata>
  <defs
     id="defs17" />
  <sodipodi:namedview
     pagecolor="#ffffff"
     bordercolor="#666666"
     borderopacity="1"
     objecttolerance="10"
     gridtolerance="10"
     guidetolerance="10"
     inkscape:pageopacity="0"
     inkscape:pageshadow="2"
     inkscape:window-width="770"
     inkscape:window-height="508"
     id="namedview15"
     showgrid="false"
     inkscape:zoom="0.43098489"
     inkscape:cx="199.56432"
     inkscape:cy="255.94367"
     inkscape:window-x="221"
     inkscape:window-y="40"
     inkscape:window-maximized="0"
     inkscape:current-layer="svg2" />
  <path
     style="fill:#552200;fill-opacity:1;stroke:none"
     d=""
     id="path3006"
     inkscape:connector-curvature="0" />
  <path
     style="fill:none;stroke:#00ff00;stroke-width:27.78200000000000000;stroke-linecap:round;stroke-linejoin:bevel;stroke-opacity:1;stroke-miterlimit:4;stroke-dasharray:none"
     d="m 34.94608,130.27314 c 0,16.59819 -2.923157,11.59297 2.480382,18.20177 0.826794,1.0112 2.196794,1.64625 2.480382,3.03361 0.601581,2.94305 -0.921191,6.28423 0,9.10088 0.286697,0.87662 9.298943,10.86542 9.921526,12.13451 1.345177,2.74203 1.135207,6.35886 2.480382,9.10087 2.480382,5.05604 4.960763,5.05604 7.441145,9.10088 1.788628,2.91677 3.172135,6.18411 4.960763,9.10088 0.701558,1.14405 1.957472,1.75454 2.480382,3.03363 0.739507,1.8089 -1.169263,4.63719 0,6.06724 3.307175,4.04484 2.380075,-6.43528 4.960764,3.03363 0.52291,1.91864 -0.522911,4.14863 0,6.06726 0.369753,1.35668 1.83179,1.84374 2.480381,3.03362 1.025512,1.88138 1.45487,4.18588 2.480382,6.06726 3.783911,6.94185 1.963395,-1.89689 4.960763,9.10088 1.527265,5.60376 -3.784822,1.43823 2.480382,9.10088 0.584631,0.71503 2.110628,-0.90446 2.480382,0 0.739506,1.8089 -0.739507,4.25834 0,6.06724 0.369752,0.90446 1.740874,-0.45222 2.48038,0 10.322755,6.31262 -2.651615,-0.20942 2.480382,6.06726 0.584633,0.71503 1.89575,-0.71504 2.480382,0 1.102392,1.34828 -1.929186,5.73018 2.480381,3.03362 5.237669,-3.20296 1.092463,-10.07564 2.480382,-15.16812 0.369754,-1.35669 2.110627,-1.67695 2.480377,-3.03363 0.52291,-1.91863 -0.52291,-4.14862 0,-6.06725 0.36976,-1.35669 1.95748,-1.75454 2.48039,-3.03363 1.16926,-2.86013 1.50936,-6.13186 2.48038,-9.10088 0.68661,-2.0994 1.89575,-3.92216 2.48038,-6.06725 0.26145,-0.95932 0,-2.02242 0,-3.03363 0,-5.05604 -0.81074,-10.21027 0,-15.16813 0.36257,-2.21722 1.65359,-4.04484 2.48038,-6.06725 1.65358,-4.04484 3.7915,-7.8443 4.96076,-12.13451 5.85755,-21.49218 -0.6325,-4.52009 4.96077,-18.20175 0.82679,-2.02241 1.65358,-4.04484 2.48037,-6.06725 0.82681,-2.02242 2.11781,-3.85004 2.48039,-6.06726 0.48644,-2.97471 -0.60158,-6.15782 0,-9.10087 0.56718,-2.77473 4.39359,-3.29252 4.96077,-6.06725 0.60157,-2.94305 -0.60158,-6.15783 0,-9.10088 0.56717,-2.77474 3.91494,-3.50908 4.96076,-6.06726 11.97762,-29.298422 -3.19549,5.65744 2.48038,-15.16812 0.36975,-1.35669 1.77882,-1.88958 2.48038,-3.03363 2.50281,-4.081421 7.41871,-14.120339 9.92153,-18.201757 0.70155,-1.144056 1.95747,-1.754542 2.48038,-3.033631 0.36975,-0.904452 -0.36976,-2.129164 0,-3.033616 0.5743,-1.404813 8.46271,-10.3503 9.92153,-12.134508 0.82679,-1.011205 1.95747,-1.754541 2.48037,-3.03363 0.36976,-0.904452 -0.58462,-2.318587 0,-3.03363 0.58464,-0.715029 1.74088,0.452233 2.48039,0 1.04582,-0.639537 1.43456,-2.394079 2.48038,-3.033617 0.73951,-0.452233 1.89575,0.71503 2.48038,0 0.58464,-0.715042 -0.58463,-2.3186 0,-3.03363 1.16927,-1.430059 3.48175,0.904453 4.96077,0 1.04582,-0.639551 1.43455,-2.394079 2.48037,-3.03363 1.55898,-0.953351 8.36256,0.953351 9.92153,0 1.04582,-0.639538 1.43457,-2.394078 2.48039,-3.033622 1.5648,-0.956911 10.83711,0.956911 12.4019,0 6.13003,-3.748658 -0.85617,-3.033626 4.96077,-3.033626"
     id="path2988"
     inkscape:connector-curvature="0" />
  <path
     style="fill:none;stroke:#ff0000;stroke-width:20.69999999999999900;stroke-linecap:round;stroke-linejoin:round;stroke-opacity:1;stroke-miterlimit:4;stroke-dasharray:none"
     d="m 445.49126,272.61384 c -3.86712,3.09369 -7.73423,6.18738 -11.60134,9.28107 0,0.77342 0.54689,1.77337 0,2.32026 -1.22289,1.22289 -3.41764,1.09738 -4.64053,2.32027 -0.54689,0.54689 0.54689,1.77337 0,2.32027 -1.22289,1.22288 -3.20157,1.36095 -4.64054,2.32026 -3.19199,2.128 -2.38634,3.57952 -4.64053,6.9608 -0.60672,0.91009 -1.54685,1.54685 -2.32027,2.32027 -1.54684,1.54685 -3.09369,3.09369 -4.64053,4.64054 -1.54685,1.54684 -3.42709,2.82036 -4.64054,4.64053 -0.42901,0.64353 0.42902,1.67674 0,2.32027 -1.21344,1.82016 -3.32799,2.89048 -4.64053,4.64053 -1.03765,1.38354 -0.93673,3.60288 -2.32027,4.64053 -1.95662,1.46747 -4.77323,1.22649 -6.9608,2.32027 -0.97831,0.48916 -1.54684,1.54685 -2.32026,2.32027 -1.54685,1.54684 -2.89048,3.32799 -4.64054,4.64053 -1.38354,1.03766 -3.25699,1.28261 -4.64053,2.32027 -1.75006,1.31254 -2.89048,3.32799 -4.64054,4.64053 -1.38354,1.03766 -3.25699,1.28261 -4.64053,2.32027 -1.75005,1.31254 -2.89048,3.32799 -4.64053,4.64053 -1.38354,1.03766 -3.257,1.28262 -4.64054,2.32027 -1.75005,1.31254 -2.76471,3.51504 -4.64053,4.64053 -2.09724,1.25835 -5.05097,0.79241 -6.9608,2.32027 -2.17754,1.74203 -2.49826,5.17558 -4.64054,6.9608 -2.65716,2.2143 -6.40313,2.72191 -9.28106,4.64054 -1.82017,1.21344 -2.76471,3.51504 -4.64054,4.64053 -2.09723,1.25834 -5.05097,0.7924 -6.9608,2.32027 -2.17754,1.74203 -2.96736,4.72991 -4.64053,6.9608 -1.96881,2.62508 -4.64054,4.64053 -6.9608,6.9608 -0.77343,0.77342 -1.41019,1.71354 -2.32027,2.32027 -1.43897,0.95931 -3.41765,1.09737 -4.64053,2.32026 -0.5469,0.5469 0.54689,1.77338 0,2.32027 -1.22289,1.22289 -3.41765,1.09738 -4.64054,2.32027 -0.54689,0.54689 0.54689,1.77337 0,2.32026 -1.22289,1.22289 -3.20156,1.36096 -4.64053,2.32027 -0.91009,0.60672 -1.54685,1.54685 -2.32027,2.32027 -2.32027,2.32026 -4.64053,4.64053 -6.9608,6.9608 -0.77342,0.77342 -1.34196,1.83111 -2.32027,2.32027 -0.69177,0.34588 -1.97438,-0.69177 -2.32026,0 -0.69177,1.38354 0.48915,3.17306 0,4.64053 -0.34589,1.03765 -1.83112,1.34196 -2.32027,2.32027 -0.69177,1.38354 1.09378,3.54675 0,4.64053 -0.54689,0.54689 -1.77338,-0.54689 -2.32027,0 -0.54689,0.54689 0.34589,1.6285 0,2.32027 -0.48915,0.97831 -1.83111,1.34195 -2.32026,2.32026 -0.69177,1.38354 1.09378,3.54675 0,4.64054 -0.5469,0.54689 -1.77338,-0.54689 -2.32027,0 -4.80072,4.80071 7.33613,-0.18767 -2.32027,4.64053 -0.69177,0.34589 -1.77337,-0.54689 -2.32027,0 -0.54689,0.54689 0.34589,1.6285 0,2.32027 -7.69535,7.69536 1.09379,-2.18757 -2.32026,4.64053 -1.54073,3.08145 -3.09981,1.55909 -4.64054,4.64054 -0.34588,0.69177 0.5469,1.77337 0,2.32026 -0.54689,0.5469 -1.54684,0 -2.32026,0 -0.77343,0.77343 -1.71355,1.41019 -2.32027,2.32027 -1.41302,2.11954 -1.98054,5.6308 -4.64053,6.9608 -2.91868,1.45934 -4.64054,-3.33236 -4.64054,2.32027"
     id="path3758"
     inkscape:connector-curvature="0" />
  <path
     style="fill:none;stroke:#ff0000;stroke-width:20.69999999999999900;stroke-linecap:round;stroke-linejoin:round;stroke-opacity:1;stroke-miterlimit:4;stroke-dasharray:none"
     d="m 266.8307,277.25437 c 6.675,11.58086 15.46711,21.65396 23.20267,32.48374 1.62085,2.26919 2.52326,5.14599 4.64053,6.9608 3.42409,2.93493 8.13682,4.0737 11.60134,6.9608 1.32858,1.10715 1.43048,3.15757 2.32027,4.64054 1.43473,2.39121 2.66868,4.98895 4.64053,6.9608 1.97185,1.97184 4.72991,2.96736 6.9608,4.64053 0.77342,0.77342 1.54684,1.54684 2.32027,2.32027 0,0.77342 -0.54689,1.77337 0,2.32026 1.22289,1.22289 3.41764,1.09738 4.64053,2.32027 0.54689,0.54689 -0.34588,1.6285 0,2.32027 7.69536,7.69535 -1.09378,-2.18757 2.32027,4.64053 0.97831,1.95662 3.42709,2.82037 4.64053,4.64054 0.95931,1.43896 1.36096,3.20156 2.32027,4.64053 0.60672,0.91008 1.54684,1.54684 2.32027,2.32027 1.54684,0.77342 3.60287,0.93672 4.64053,2.32026 1.46747,1.95662 0.59084,5.23138 2.32027,6.9608 1.72942,1.72943 4.77323,1.22649 6.9608,2.32027 0.97831,0.48916 1.41018,1.71355 2.32026,2.32027 1.43897,0.95931 3.257,1.28261 4.64054,2.32027 6.44153,4.83114 2.43966,3.56994 6.9608,6.9608 2.23089,1.67316 4.72991,2.96736 6.9608,4.64053 2.62508,1.96881 4.3985,4.91096 6.9608,6.9608 2.17754,1.74203 4.56959,3.2058 6.9608,4.64053 1.48297,0.88979 3.15757,1.43049 4.64054,2.32027 2.39121,1.43473 4.39766,3.54205 6.9608,4.64054 2.93106,1.25617 6.42882,0.89414 9.28106,2.32026 1.95663,0.97831 2.89048,3.328 4.64054,4.64054 3.58421,2.68816 10.0578,4.38493 13.9216,6.9608 0.96492,0.64327 8.86614,8.45121 9.28107,9.28107 0.34588,0.69177 0.77342,2.32026 0,2.32026 -0.77342,0 0,-3.09369 0,-2.32026 0,2.32026 0,4.64053 0,6.9608 0,0.77342 -0.54689,1.77337 0,2.32026 0.54689,0.5469 1.77337,-0.54689 2.32027,0 1.09378,1.09379 -1.09379,3.54675 0,4.64054 0.54689,0.54689 1.77337,-0.5469 2.32026,0 0.54689,0.54689 -0.54689,1.77337 0,2.32026 0.54689,0.5469 1.77338,-0.54689 2.32027,0 0.54689,0.5469 -0.54689,1.77338 0,2.32027 0.54689,0.54689 1.77337,-0.54689 2.32027,0 0.54689,0.54689 -0.5469,1.77338 0,2.32027 0.54689,0.54689 1.77337,-0.54689 2.32026,0 0.5469,0.54689 -0.54689,1.77337 0,2.32026 1.09379,1.09379 4.64054,-1.54684 4.64054,0 0,3.41406 -7.69536,-5.37509 0,2.32027"
     id="path3762"
     inkscape:connector-curvature="0" />
</svg>
