<?xml version="1.0" encoding="utf-8"?>
<!-- Generator: Adobe Illustrator 19.1.0, SVG Export Plug-In . SVG Version: 6.00 Build 0)  -->
<!DOCTYPE svg PUBLIC "-//W3C//DTD SVG 1.1//EN" "http://www.w3.org/Graphics/SVG/1.1/DTD/svg11.dtd">
<svg version="1.1" id="Ebene_1" xmlns="http://www.w3.org/2000/svg" xmlns:xlink="http://www.w3.org/1999/xlink" x="0px" y="0px"
	 viewBox="-289 412.9 16 16" style="enable-background:new -289 412.9 16 16;" xml:space="preserve">
<style type="text/css">
	.st0{fill:#FFFFFF;}
	.st1{fill:#FFD104;}
</style>
<g>
	<polygon class="st0" points="-274,420 -277.1,420 -277.1,417 -277.1,417 -282.6,417 -282.6,419.3 -285.1,419.3 -285.1,422.5 
		-282.6,422.5 -282.6,428.9 -273.5,428.9 -273.5,428.9 -274,428.9 	"/>
	<rect x="-288" y="413.9" class="st1" width="4.4" height="4.4"/>
	<rect x="-288" y="423.5" class="st1" width="4.4" height="4.4"/>
	<path d="M-276.7,416h-5.9v-3.1h-6.4v6.4h2.9v3.2h-2.9v6.4h3.4h3v-6.4h-2.5v-3.2h2.5V417h5.5v3h3.1v8.9h0.5h0.5v-9.3L-276.7,416z
		 M-283.6,423.5v4.4h-4.4v-4.4H-283.6z M-283.6,418.3h-4.4v-4.4h4.4V418.3z"/>
</g>
</svg>
