<?xml version="1.0" encoding="utf-8"?>
<!-- Generator: Adobe Illustrator 19.0.0, SVG Export Plug-In . SVG Version: 6.00 Build 0)  -->
<!DOCTYPE svg PUBLIC "-//W3C//DTD SVG 1.1//EN" "http://www.w3.org/Graphics/SVG/1.1/DTD/svg11.dtd">
<svg version="1.1" id="Ebene_1" xmlns="http://www.w3.org/2000/svg" xmlns:xlink="http://www.w3.org/1999/xlink" x="0px" y="0px"
	 viewBox="0 0 16 16" style="enable-background:new 0 0 16 16;" xml:space="preserve">
<style type="text/css">
	.st0{fill:none;stroke:#FFFFFF;stroke-width:0;stroke-linecap:round;stroke-linejoin:round;}
	.st1{fill:#1A171B;}
</style>
<g id="XMLID_11_">
	<polygon id="XMLID_12_" points="16,13.7 12.1,11.5 12.1,13.2 6.4,13.2 6.4,14.2 12.1,14.2 12.1,16 	"/>
</g>
<line class="st0" x1="11.6" y1="1.1" x2="11.6" y2="1.1"/>
<line class="st0" x1="0.5" y1="1.1" x2="0.5" y2="1.1"/>
<path class="st1" d="M8.8,2.5c0-0.3,0-0.7,0-1H0c0,0.3,0,0.7,0,1H8.8z"/>
<line class="st0" x1="11.6" y1="3.4" x2="11.6" y2="3.4"/>
<line class="st0" x1="0.5" y1="3.4" x2="0.5" y2="3.4"/>
<path class="st1" d="M0,3.9c0,0.3,0,0.7,0,1h8.8c0-0.3,0-0.7,0-1H0z"/>
<line class="st0" x1="11.6" y1="5.9" x2="11.6" y2="5.9"/>
<line class="st0" x1="0.5" y1="5.9" x2="0.5" y2="5.9"/>
<path class="st1" d="M0,6.4c0,0.3,0,0.7,0,1h8.8c0-0.3,0-0.7,0-1H0z"/>
</svg>
