<?xml version="1.0" encoding="utf-8"?>
<!-- Generator: Adobe Illustrator 19.0.0, SVG Export Plug-In . SVG Version: 6.00 Build 0)  -->
<!DOCTYPE svg PUBLIC "-//W3C//DTD SVG 1.1//EN" "http://www.w3.org/Graphics/SVG/1.1/DTD/svg11.dtd">
<svg version="1.1" id="Ebene_1" xmlns="http://www.w3.org/2000/svg" xmlns:xlink="http://www.w3.org/1999/xlink" x="0px" y="0px"
	 viewBox="0 0 16 16" style="enable-background:new 0 0 16 16;" xml:space="preserve">
<style type="text/css">
	.st0{fill:#FFFFFF;}
</style>
<g>
	<path class="st0" d="M12.4,6.6c0,1.3-1.1,2.3-2.3,2.3H6C4.7,9,3.6,7.9,3.6,6.5V1.4H1.4v13.5l3.4,0.1v-2.6c0-0.9,0.8-1.5,1.6-1.5h3
		c1.1,0,1.9,0.5,1.9,1.4v2.4h3.1V1.4h-2.1V6.6z"/>
	<path class="st0" d="M6,7.9h4.1c0.7,0,1.4-0.5,1.4-1.2V1.4H4.6v5.1C4.6,7.3,5,7.9,6,7.9z"/>
	<path d="M0.4,0.4v15.1h15.1V0.4H0.4z M4.6,1.4h6.9v5.2c0,0.7-0.6,1.3-1.3,1.3H6C5.2,8,4.6,7.3,4.6,6.5V1.4z M10.4,14.7H5.6v-2.3
		c0-0.4,0.4-0.7,0.9-0.7h3c0.5,0,1,0.3,1,0.7v2.3H10.4z M14.6,14.6h-3.1v-2.1c0-1-0.9-1.7-2-1.7h-3c-1,0-1.9,0.8-1.9,1.7v2.2H1.4
		V1.4h2.1v5.1C3.6,7.9,4.7,9,6,9h4.1c1.3,0,2.3-1.1,2.3-2.3V1.4h2.1v13.2H14.6z"/>
	<path class="st0" d="M9.5,11.7h-3c-0.5,0-0.9,0.3-0.9,0.7v2.3h4.9v-2.2C10.4,12,10,11.7,9.5,11.7z"/>
</g>
</svg>
