<?xml version="1.0" encoding="utf-8"?>
<!-- Generator: Adobe Illustrator 19.1.0, SVG Export Plug-In . SVG Version: 6.00 Build 0)  -->
<!DOCTYPE svg PUBLIC "-//W3C//DTD SVG 1.1//EN" "http://www.w3.org/Graphics/SVG/1.1/DTD/svg11.dtd">
<svg version="1.1" id="Ebene_1" xmlns="http://www.w3.org/2000/svg" xmlns:xlink="http://www.w3.org/1999/xlink" x="0px" y="0px"
	 viewBox="-412 290.3 16 16" style="enable-background:new -412 290.3 16 16;" xml:space="preserve">
<style type="text/css">
	.st0{fill:#EEF7FC;}
	.st1{fill:#FFFFFF;}
	.st2{fill:#9EA3AD;}
</style>
<g>
	<path class="st0" d="M-399.6,296.9c0,1.3-1.1,2.3-2.3,2.3h-4.1c-1.3,0.1-2.4-1-2.4-2.4v-5.1h-2.2v13.5l3.4,0.1v-2.6
		c0-0.9,0.8-1.5,1.6-1.5h3c1.1,0,1.9,0.5,1.9,1.4v2.4h3.3v-13.3h-2.3v5.2H-399.6z"/>
	<path class="st1" d="M-406,298.2h4.1c0.7,0,1.4-0.5,1.4-1.2v-5.3h-6.9v5.1C-407.4,297.6-407,298.2-406,298.2z"/>
	<path class="st2" d="M-411.6,290.7v15.1h15.1v-15.1H-411.6z M-407.4,291.7h6.9v5.2c0,0.7-0.6,1.3-1.3,1.3h-4.2
		c-0.8,0.1-1.4-0.6-1.4-1.4V291.7z M-401.6,305h-4.8v-2.3c0-0.4,0.4-0.7,0.9-0.7h3c0.5,0,1,0.3,1,0.7v2.3H-401.6z M-397.4,304.9
		h-3.1v-2.1c0-1-0.9-1.7-2-1.7h-3c-1,0-1.9,0.8-1.9,1.7v2.2h-3.2v-13.3h2.1v5.1c0.1,1.4,1.2,2.5,2.5,2.5h4.1c1.3,0,2.3-1.1,2.3-2.3
		v-5.3h2.1v13.2C-397.5,304.9-397.4,304.9-397.4,304.9z"/>
	<path class="st1" d="M-402.5,302h-3c-0.5,0-0.9,0.3-0.9,0.7v2.3h4.9v-2.2C-401.6,302.3-402,302-402.5,302z"/>
</g>
</svg>
