<?xml version="1.0" encoding="utf-8"?>
<!-- Generator: Adobe Illustrator 19.0.0, SVG Export Plug-In . SVG Version: 6.00 Build 0)  -->
<!DOCTYPE svg PUBLIC "-//W3C//DTD SVG 1.1//EN" "http://www.w3.org/Graphics/SVG/1.1/DTD/svg11.dtd">
<svg version="1.1" id="Ebene_1" xmlns="http://www.w3.org/2000/svg" xmlns:xlink="http://www.w3.org/1999/xlink" x="0px" y="0px"
	 viewBox="0 0 16 16" style="enable-background:new 0 0 16 16;" xml:space="preserve">
<style type="text/css">
	.st0{fill:#CBCBCB;}
</style>
<g>
	<polygon class="st0" points="8.5,15 8.5,3.7 5.9,3.7 5.9,1 0,1 0,15 	"/>
	<polygon points="9.5,3.2 6.4,0 0,0 0,1 5.9,1 5.9,3.7 8.5,3.7 8.5,15 0,15 0,16 9.5,16 	"/>
</g>
<g>
	<rect x="2.1" y="7.5" width="4.3" height="1"/>
	<rect x="2.1" y="9.3" width="4.3" height="1"/>
	<rect x="2.1" y="11.2" width="4.3" height="1"/>
</g>
<g id="XMLID_129_">
	<path id="XMLID_130_" d="M14.6,4.3H16v4.5c0,0.6,0,1.1-0.2,1.4c-0.4,1.1-0.9,1.4-2.2,1.4c-0.7,0-1.2-0.2-1.6-0.6s-0.6-1-0.6-1.7
		l1.4-0.2c0,0.4,0.1,0.7,0.2,0.9c0.2,0.3,0.4,0.4,0.7,0.4c0.7,0,0.9-0.3,0.9-1.4V4.3z"/>
</g>
</svg>
