<?xml version="1.0" encoding="utf-8"?>
<!-- Generator: Adobe Illustrator 19.1.0, SVG Export Plug-In . SVG Version: 6.00 Build 0)  -->
<!DOCTYPE svg PUBLIC "-//W3C//DTD SVG 1.1//EN" "http://www.w3.org/Graphics/SVG/1.1/DTD/svg11.dtd">
<svg version="1.1" id="Ebene_1" xmlns="http://www.w3.org/2000/svg" xmlns:xlink="http://www.w3.org/1999/xlink" x="0px" y="0px"
	 viewBox="-289 412.9 16 16" style="enable-background:new -289 412.9 16 16;" xml:space="preserve">
<style type="text/css">
	.st0{fill:#FFFFFF;}
	.st1{fill:#F1933B;}
	.st2{fill:#4EAF75;}
	.st3{fill:#1A171B;}
</style>
<g>
	<polygon class="st0" points="-274,416.6 -274,412.9 -274,412.9 -274,416.6 -280.3,416.6 -280.3,412.9 -280.3,412.9 -280.3,416.6 	
		"/>
	<polygon class="st0" points="-280.3,422.9 -274,422.9 -274,422.9 -274,417.6 -280.3,417.6 	"/>
	<polygon class="st0" points="-274,423.9 -274,423.9 -280.3,423.9 -280.3,428.9 -280.8,428.9 -280.8,428.9 -273.5,428.9 
		-273.5,428.9 -274,428.9 	"/>
	<path d="M-274,412.9L-274,412.9v3.7h-6.3v-3.7l0,0h-1v16h0.5h0.5v-5h6.3l0,0v5h0.5h0.5v-16H-274z M-274,422.9L-274,422.9h-6.3v-5.3
		h6.3V422.9z"/>
	<rect x="-280.3" y="412.9" class="st1" width="6.3" height="3.7"/>
</g>
<polygon class="st2" points="-283.4,420.2 -285.5,420.2 -285.5,418.1 -286.9,418.1 -286.9,420.2 -289,420.2 -289,421.6 
	-286.9,421.6 -286.9,423.7 -285.5,423.7 -285.5,421.6 -283.4,421.6 "/>
<path id="XMLID_6_" class="st3" d="M-277.2,418.5c-0.1,0.2-0.2,0.4-0.4,0.5c-0.2,0.1-0.4,0.2-0.5,0.3v0.6c0.3-0.1,0.6-0.3,0.9-0.5
	v2.5h0.7v-3.4H-277.2L-277.2,418.5z"/>
<path id="XMLID_1_" class="st3" d="M-277.2,424.7c-0.1,0.2-0.2,0.4-0.4,0.5c-0.2,0.1-0.4,0.2-0.5,0.3v0.6c0.3-0.1,0.6-0.3,0.9-0.5
	v2.5h0.7v-3.5L-277.2,424.7L-277.2,424.7z"/>
</svg>
