<?xml version="1.0" encoding="utf-8"?>
<!-- Generator: Adobe Illustrator 19.1.0, SVG Export Plug-In . SVG Version: 6.00 Build 0)  -->
<!DOCTYPE svg PUBLIC "-//W3C//DTD SVG 1.1//EN" "http://www.w3.org/Graphics/SVG/1.1/DTD/svg11.dtd">
<svg version="1.1" id="Ebene_1" xmlns="http://www.w3.org/2000/svg" xmlns:xlink="http://www.w3.org/1999/xlink" x="0px" y="0px"
	 viewBox="-412 290.3 16 16" style="enable-background:new -412 290.3 16 16;" xml:space="preserve">
<style type="text/css">
	.st0{fill:#FFFFFF;}
	.st1{opacity:0.8;fill:#FFFFFF;enable-background:new    ;}
	.st2{fill:#C4D13B;}
	.st3{fill:#1A171B;}
</style>
<g>
	<g>
		<polygon class="st0" points="-406.7,297 -411,297 -411,302.7 -401,302.7 		"/>
		<path d="M-406.3,296h-5.7v7.7h13.4L-406.3,296z M-411,297h4.3l5.7,5.7h-10V297z"/>
	</g>
	<g>
		<polygon class="st1" points="-406.2,302.7 -397,302.7 -397,293.7 -399.9,293.7 		"/>
		<path d="M-400.4,292.9l-7.7,10.8h12.1v-10.8H-400.4z M-397,302.7h-9.2l6.3-8.9h2.9V302.7z"/>
	</g>
</g>
<g id="XMLID_1_">
	<polygon id="XMLID_3_" class="st2" points="-409,304.4 -399.1,298.3 -409,292.2 	"/>
	<path id="XMLID_2_" class="st3" d="M-397.9,297.9l-11.4-7c-0.3-0.2-0.7,0-0.7,0.4v14c0,0.4,0.4,0.6,0.8,0.4l11.4-7
		C-397.6,298.5-397.6,298.1-397.9,297.9z M-409,304.4v-12.2l9.9,6.1L-409,304.4z"/>
</g>
</svg>
