<?xml version="1.0" encoding="utf-8"?>
<!-- Generator: Adobe Illustrator 19.0.0, SVG Export Plug-In . SVG Version: 6.00 Build 0)  -->
<!DOCTYPE svg PUBLIC "-//W3C//DTD SVG 1.1//EN" "http://www.w3.org/Graphics/SVG/1.1/DTD/svg11.dtd">
<svg version="1.1" id="Ebene_1" xmlns="http://www.w3.org/2000/svg" xmlns:xlink="http://www.w3.org/1999/xlink" x="0px" y="0px"
	 viewBox="0 0 16 16" style="enable-background:new 0 0 16 16;" xml:space="preserve">
<style type="text/css">
	.st0{fill:#FFFFFF;}
	.st1{opacity:0.8;fill:#FFFFFF;enable-background:new    ;}
	.st2{fill:#CBCBCB;}
	.st3{fill:#1A171B;}
</style>
<g>
	<g>
		<polygon class="st0" points="5.3,6.7 1,6.7 1,12.4 11,12.4 		"/>
		<path d="M5.7,5.7H0v7.7h13.4L5.7,5.7z M1,6.7h4.3l5.7,5.7H1V6.7z"/>
	</g>
	<g>
		<polygon class="st1" points="5.8,12.4 15,12.4 15,3.6 12.1,3.6 		"/>
		<path d="M11.6,2.6L3.9,13.4H16V2.6H11.6z M15,12.4H5.8l6.3-8.9H15V12.4z"/>
	</g>
</g>
<g id="XMLID_18_">
	<polygon id="XMLID_51_" class="st2" points="3,14.1 12.9,8 3,1.9 	"/>
	<path id="XMLID_20_" class="st3" d="M14.2,7.6l-11.4-7C2.4,0.4,2,0.6,2,1v14c0,0.4,0.4,0.6,0.8,0.4l11.4-7
		C14.5,8.2,14.5,7.8,14.2,7.6z M3,14.1V1.9L12.9,8L3,14.1z"/>
</g>
</svg>
