<?xml version="1.0" encoding="utf-8"?>
<!-- Generator: Adobe Illustrator 19.1.0, SVG Export Plug-In . SVG Version: 6.00 Build 0)  -->
<!DOCTYPE svg PUBLIC "-//W3C//DTD SVG 1.1//EN" "http://www.w3.org/Graphics/SVG/1.1/DTD/svg11.dtd">
<svg version="1.1" id="Ebene_1" xmlns="http://www.w3.org/2000/svg" xmlns:xlink="http://www.w3.org/1999/xlink" x="0px" y="0px"
	 viewBox="-412 290.3 16 16" style="enable-background:new -412 290.3 16 16;" xml:space="preserve">
<style type="text/css">
	.st0{fill:#4BA1BF;}
</style>
<polygon class="st0" points="-396,302.3 -399.9,300.1 -399.9,301.8 -402.4,301.8 -405.6,301.8 -408.1,301.8 -408.1,300.1 
	-412,302.3 -408.1,304.6 -408.1,302.9 -405.6,302.9 -402.4,302.9 -399.9,302.9 -399.9,304.6 "/>
<g>
	<path d="M-405.8,298.4v-1.1h-2.4v-1l2.5-3.6h0.9v3.6h0.7v1h-0.7v1.2h-1V298.4z M-405.8,296.3v-2l-1.3,2H-405.8z"/>
	<path d="M-399.8,297.4v1h-3.9c0-0.4,0.2-0.8,0.4-1.1c0.2-0.3,0.6-0.8,1.2-1.4c0.5-0.5,0.8-0.8,0.9-0.9c0.2-0.2,0.3-0.4,0.3-0.7
		c0-0.2-0.1-0.4-0.2-0.6c-0.1-0.2-0.3-0.2-0.5-0.2c-0.2,0-0.4,0.1-0.5,0.2s-0.3,0.5-0.4,0.8l-1-0.1c0.1-0.6,0.3-1,0.6-1.3
		c0.3-0.3,0.8-0.4,1.3-0.4c0.6,0,1,0.2,1.3,0.5c0.3,0.3,0.5,0.7,0.5,1.1c0,0.3,0,0.5-0.1,0.7c-0.1,0.2-0.2,0.5-0.4,0.7
		c-0.1,0.2-0.4,0.4-0.7,0.7c-0.3,0.3-0.6,0.5-0.7,0.6c-0.1,0.1-0.2,0.3-0.3,0.4H-399.8z"/>
</g>
</svg>
