<?xml version="1.0" encoding="utf-8"?>
<!-- Generator: Adobe Illustrator 19.0.0, SVG Export Plug-In . SVG Version: 6.00 Build 0)  -->
<!DOCTYPE svg PUBLIC "-//W3C//DTD SVG 1.1//EN" "http://www.w3.org/Graphics/SVG/1.1/DTD/svg11.dtd">
<svg version="1.1" id="Ebene_1" xmlns="http://www.w3.org/2000/svg" xmlns:xlink="http://www.w3.org/1999/xlink" x="0px" y="0px"
	 viewBox="0 0 16 16" style="enable-background:new 0 0 16 16;" xml:space="preserve">
<style type="text/css">
	.st0{fill:#CBCBCB;}
</style>
<rect x="5.2" y="0" class="st0" width="5.6" height="16"/>
<path d="M14.8,5.4l-0.8-5l-1.5,1.1C9.2-1.2,3.7-0.1,0.9,3L2,4c2.2-2.4,6.5-3.5,9.3-1.5l-1.2,0.9L14.8,5.4z"/>
<path d="M0.9,10.5l0.8,5l1.5-1.1c3.4,2.8,8.9,1.7,11.6-1.4l-1.1-1c-2.2,2.4-6.5,3.5-9.3,1.5l1.2-0.9L0.9,10.5z"/>
<g>
	<path d="M7.6,7.8V6.7h1.1v1.1H7.6z M7.6,10.8V9.7h1.1v1.1H7.6z"/>
	<path id="XMLID_128_" d="M6.5,9.9v1H2.6C2.7,10,3.3,9.3,4,8.7c0.5-0.5,1.4-1.1,1.4-1.8c0-1-1.1-0.9-1.6-0.3C3.7,6.6,3.5,7,3.5,7
		L2.7,6.8C2.8,5,5.6,4.4,6.3,6.1C7.1,7.9,5,8.7,4.3,9.9H6.5z"/>
	<path id="XMLID_1_" d="M13.3,9.9v1H9.5c0.1-0.9,0.7-1.6,1.4-2.2c0.5-0.5,1.4-1.1,1.4-1.8c0-1-1.1-0.9-1.6-0.3
		C10.6,6.6,10.4,7,10.4,7L9.6,6.8c0.1-1.9,2.8-2.5,3.6-0.7c0.7,1.7-1.4,2.6-2.1,3.8H13.3z"/>
</g>
</svg>
