<?xml version="1.0" encoding="utf-8"?>
<!-- Generator: Adobe Illustrator 19.1.0, SVG Export Plug-In . SVG Version: 6.00 Build 0)  -->
<!DOCTYPE svg PUBLIC "-//W3C//DTD SVG 1.1//EN" "http://www.w3.org/Graphics/SVG/1.1/DTD/svg11.dtd">
<svg version="1.1" id="Ebene_1" xmlns="http://www.w3.org/2000/svg" xmlns:xlink="http://www.w3.org/1999/xlink" x="0px" y="0px"
	 viewBox="-412 290.3 16 16" style="enable-background:new -412 290.3 16 16;" xml:space="preserve">
<style type="text/css">
	.st0{fill:#E4E4E4;}
	.st1{fill:#1A171B;}
</style>
<rect x="-406.8" y="290.3" class="st0" width="5.6" height="16"/>
<g>
	<g id="XMLID_2_">
		<polygon id="XMLID_3_" points="-404,301.6 -402.4,298.8 -403.6,298.8 -403.6,293 -404.4,293 -404.4,298.8 -405.6,298.8 		"/>
	</g>
	<rect id="XMLID_1_" x="-405.6" y="302.6" class="st1" width="3.3" height="1"/>
</g>
<g>
	<path d="M-400.7,300.4l1.5-2.1l-1.4-2h1.3l0.7,1.1l0.8-1.1h1.3l-1.4,2l1.5,2.2h-1.3l-0.8-1.3l-0.9,1.3h-1.3V300.4z"/>
</g>
<g>
	<path d="M-411.6,300.4l1.5-2.1l-1.4-2h1.3l0.7,1.1l0.8-1.1h1.3l-1.4,2l1.5,2.2h-1.3l-0.9-1.4l-0.9,1.3H-411.6z"/>
</g>
</svg>
