<?xml version="1.0" encoding="utf-8"?>
<!-- Generator: Adobe Illustrator 19.0.0, SVG Export Plug-In . SVG Version: 6.00 Build 0)  -->
<!DOCTYPE svg PUBLIC "-//W3C//DTD SVG 1.1//EN" "http://www.w3.org/Graphics/SVG/1.1/DTD/svg11.dtd">
<svg version="1.1" id="Ebene_1" xmlns="http://www.w3.org/2000/svg" xmlns:xlink="http://www.w3.org/1999/xlink" x="0px" y="0px"
	 viewBox="0 0 16 16" style="enable-background:new 0 0 16 16;" xml:space="preserve">
<style type="text/css">
	.st0{fill:#CBCBCB;}
	.st1{fill:#1A171B;}
</style>
<rect x="5.2" y="0" class="st0" width="5.6" height="16"/>
<g>
	<g id="XMLID_2_">
		<polygon id="XMLID_3_" points="8,11.3 9.6,8.5 8.4,8.5 8.4,2.7 7.6,2.7 7.6,8.5 6.4,8.5 		"/>
	</g>
	<rect id="XMLID_1_" x="6.4" y="12.3" class="st1" width="3.3" height="1"/>
</g>
<g>
	<path d="M11.3,10.1l1.5-2.1l-1.4-2h1.3l0.7,1.1l0.8-1.1h1.3l-1.4,2l1.5,2.2h-1.3l-0.8-1.3l-0.9,1.3H11.3z"/>
</g>
<g>
	<path d="M0.4,10.1l1.5-2.1l-1.4-2h1.3l0.7,1.1l0.8-1.1h1.3l-1.4,2l1.5,2.2H3.4L2.5,8.8l-0.9,1.3H0.4z"/>
</g>
</svg>
