<?xml version="1.0" encoding="utf-8"?>
<!-- Generator: Adobe Illustrator 19.0.0, SVG Export Plug-In . SVG Version: 6.00 Build 0)  -->
<!DOCTYPE svg PUBLIC "-//W3C//DTD SVG 1.1//EN" "http://www.w3.org/Graphics/SVG/1.1/DTD/svg11.dtd">
<svg version="1.1" id="Ebene_1" xmlns="http://www.w3.org/2000/svg" xmlns:xlink="http://www.w3.org/1999/xlink" x="0px" y="0px"
	 viewBox="0 0 16 16" style="enable-background:new 0 0 16 16;" xml:space="preserve">
<style type="text/css">
	.st0{fill:#CBCBCB;}
</style>
<rect x="5.2" y="0" class="st0" width="5.6" height="16"/>
<path d="M14.8,5.4l-0.8-5l-1.5,1.1C9.2-1.2,3.7-0.1,0.9,3L2,4c2.2-2.4,6.5-3.5,9.3-1.5l-1.2,0.9L14.8,5.4z"/>
<path d="M0.9,10.5l0.8,5l1.5-1.1c3.4,2.8,8.9,1.7,11.6-1.4l-1.1-1c-2.2,2.4-6.5,3.5-9.3,1.5l1.2-0.9L0.9,10.5z"/>
<g>
	<path d="M5.5,10.8H4.5v-4C4.1,7.1,3.6,7.4,3.1,7.6v-1c0.7-0.2,1.3-0.7,1.6-1.4h0.9V10.8z"/>
	<path d="M7.6,7.8V6.7h1.1v1.1H7.6z M7.6,10.8V9.7h1.1v1.1H7.6z"/>
	<path d="M12.5,10.8h-1.1v-4C11,7.1,10.6,7.4,10,7.6v-1c0.7-0.2,1.3-0.7,1.6-1.4h0.9V10.8z"/>
</g>
</svg>
