<?xml version="1.0" encoding="utf-8"?>
<!-- Generator: Adobe Illustrator 19.1.0, SVG Export Plug-In . SVG Version: 6.00 Build 0)  -->
<!DOCTYPE svg PUBLIC "-//W3C//DTD SVG 1.1//EN" "http://www.w3.org/Graphics/SVG/1.1/DTD/svg11.dtd">
<svg version="1.1" id="Ebene_1" xmlns="http://www.w3.org/2000/svg" xmlns:xlink="http://www.w3.org/1999/xlink" x="0px" y="0px"
	 viewBox="-412 290.3 16 16" style="enable-background:new -412 290.3 16 16;" xml:space="preserve">
<style type="text/css">
	.st0{fill:#FFFFFF;}
	.st1{fill:#E64E4F;}
</style>
<g>
	<rect x="-407.1" y="290.7" class="st0" width="5.6" height="15"/>
	<path d="M-401,306.3h-6.6v-16h6.6V306.3z M-406.6,305.3h4.6v-14h-4.6V305.3z"/>
</g>
<path class="st1" d="M-404.3,306c-4.3,0-7.7-3.5-7.7-7.7s3.4-7.7,7.7-7.7c4.2,0,7.7,3.4,7.7,7.7C-396.7,302.5-400.1,306-404.3,306z
	 M-404.3,291.6c-3.7,0-6.7,3-6.7,6.7s3,6.7,6.7,6.7c3.7,0,6.7-3,6.7-6.7S-400.7,291.6-404.3,291.6z"/>
<rect x="-400.1" y="296.3" width="4.1" height="4.1"/>
</svg>
