<?xml version="1.0" encoding="utf-8"?>
<!-- Generator: Adobe Illustrator 19.1.0, SVG Export Plug-In . SVG Version: 6.00 Build 0)  -->
<!DOCTYPE svg PUBLIC "-//W3C//DTD SVG 1.1//EN" "http://www.w3.org/Graphics/SVG/1.1/DTD/svg11.dtd">
<svg version="1.1" id="Ebene_1" xmlns="http://www.w3.org/2000/svg" xmlns:xlink="http://www.w3.org/1999/xlink" x="0px" y="0px"
	 viewBox="-412 290.3 16 16" style="enable-background:new -412 290.3 16 16;" xml:space="preserve">
<style type="text/css">
	.st0{enable-background:new    ;}
	.st1{fill:#FFFFFF;}
	.st2{fill:#E4E4E4;}
	.st3{fill:#4EAF75;}
</style>
<g class="st0">
	<rect x="-406.8" y="290.7" class="st1" width="5.6" height="15"/>
	<path class="st2" d="M-400.7,306.2h-6.6v-16h6.6V306.2z M-406.3,305.2h4.6v-14h-4.6V305.2z"/>
</g>
<path class="st3" d="M-397.2,295.7l-0.8-5l-1.5,1.1c-3.3-2.7-8.8-1.6-11.6,1.5l1.1,1c2.2-2.4,6.5-3.5,9.3-1.5l-1.2,0.9L-397.2,295.7
	z"/>
<path class="st3" d="M-411.1,300.8l0.8,5l1.5-1.1c3.4,2.8,8.9,1.7,11.6-1.4l-1.1-1c-2.2,2.4-6.5,3.5-9.3,1.5l1.2-0.9L-411.1,300.8z"
	/>
<g>
	<path d="M-406.4,301.1h-1v-4c-0.4,0.3-0.9,0.6-1.4,0.8v-1c0.7-0.2,1.3-0.7,1.6-1.4h0.9v5.6H-406.4z"/>
	<path d="M-404.4,298.1V297h1.1v1.1C-403.3,298.1-404.4,298.1-404.4,298.1z M-404.4,301.1V300h1.1v1.1H-404.4z"/>
	<path d="M-399.6,301.1h-1.1v-4c-0.4,0.3-0.8,0.6-1.4,0.8v-1c0.7-0.2,1.3-0.7,1.6-1.4h0.9V301.1z"/>
</g>
</svg>
