<?xml version="1.0" encoding="utf-8"?>
<!-- Generator: Adobe Illustrator 19.0.0, SVG Export Plug-In . SVG Version: 6.00 Build 0)  -->
<!DOCTYPE svg PUBLIC "-//W3C//DTD SVG 1.0//EN" "http://www.w3.org/TR/2001/REC-SVG-20010904/DTD/svg10.dtd">
<svg version="1.0" id="Ebene_1" xmlns="http://www.w3.org/2000/svg" xmlns:xlink="http://www.w3.org/1999/xlink" x="0px" y="0px"
	 viewBox="0 0 16 16" enable-background="new 0 0 16 16" xml:space="preserve">
<g id="XMLID_11_">
	<polygon id="XMLID_12_" points="9.6,8.9 6.2,6.9 6.2,10.8 	"/>
</g>
<g>
	<path d="M9.6,9.9l1-0.1c0,0.4,0.2,0.7,0.3,1c0.2,0.3,0.4,0.5,0.8,0.6c0.4,0.2,0.8,0.2,1.2,0.2c0.4,0,0.8-0.1,1.1-0.2
		c0.3-0.1,0.5-0.3,0.7-0.5c0.2-0.2,0.2-0.4,0.2-0.7c0-0.3-0.1-0.5-0.2-0.7c-0.1-0.2-0.4-0.3-0.7-0.5c-0.2-0.1-0.7-0.2-1.4-0.4
		s-1.2-0.3-1.5-0.5c-0.4-0.2-0.7-0.4-0.9-0.7c-0.2-0.3-0.3-0.6-0.3-1c0-0.4,0.1-0.8,0.3-1.1s0.6-0.6,1-0.8c0.4-0.2,0.9-0.3,1.5-0.3
		c0.6,0,1.1,0.1,1.6,0.3c0.5,0.2,0.8,0.5,1,0.8s0.4,0.8,0.4,1.3l-1,0.1c-0.1-0.5-0.2-0.9-0.6-1.1c-0.3-0.3-0.8-0.4-1.4-0.4
		c-0.6,0-1.1,0.1-1.4,0.4C11.1,5.9,11,6.2,11,6.5c0,0.3,0.1,0.5,0.3,0.7c0.2,0.2,0.7,0.4,1.6,0.6c0.9,0.2,1.4,0.4,1.8,0.5
		c0.5,0.2,0.8,0.5,1,0.8c0.2,0.3,0.3,0.7,0.3,1.1c0,0.4-0.1,0.8-0.4,1.2c-0.2,0.4-0.6,0.7-1,0.9s-1,0.3-1.5,0.3
		c-0.7,0-1.3-0.1-1.8-0.3c-0.5-0.2-0.9-0.5-1.1-1C9.8,10.9,9.7,10.5,9.6,9.9z"/>
</g>
<g>
	<path d="M5.4,11.7v1H0c0-0.2,0-0.5,0.1-0.7c0.1-0.4,0.4-0.7,0.7-1.1s0.7-0.8,1.3-1.2C3,8.9,3.6,8.3,3.9,7.8S4.4,7,4.4,6.6
		c0-0.4-0.1-0.7-0.4-1C3.7,5.3,3.3,5.2,2.8,5.2C2.4,5.2,2,5.3,1.7,5.6S1.2,6.3,1.2,6.9l-1-0.1C0.3,6,0.5,5.4,1,5s1.1-0.6,1.9-0.6
		c0.8,0,1.4,0.2,1.9,0.7c0.5,0.4,0.7,1,0.7,1.6c0,0.3-0.1,0.7-0.2,1s-0.4,0.7-0.7,1C4.2,9,3.7,9.5,3,10.1c-0.6,0.5-1,0.9-1.2,1
		s-0.3,0.4-0.4,0.5H5.4z"/>
</g>
</svg>
