<?xml version="1.0" encoding="utf-8"?>
<!-- Generator: Adobe Illustrator 19.0.0, SVG Export Plug-In . SVG Version: 6.00 Build 0)  -->
<!DOCTYPE svg PUBLIC "-//W3C//DTD SVG 1.0//EN" "http://www.w3.org/TR/2001/REC-SVG-20010904/DTD/svg10.dtd">
<svg version="1.0" id="Ebene_1" xmlns="http://www.w3.org/2000/svg" xmlns:xlink="http://www.w3.org/1999/xlink" x="0px" y="0px"
	 viewBox="0 0 16 16" enable-background="new 0 0 16 16" xml:space="preserve">
<g>
	<path d="M0,6.1h0.9V5.7c0-0.5,0.1-0.9,0.2-1.2S1.4,4,1.7,3.9s0.7-0.2,1.1-0.2c0.5,0,0.9,0.1,1.4,0.2L4,5C3.7,4.9,3.5,4.9,3.2,4.9
		C3,4.9,2.8,4.9,2.7,5.1S2.6,5.4,2.6,5.7v0.4h1.2v1.3H2.6v4.9H0.9V7.4H0V6.1z"/>
	<path d="M5.4,10.1V8.4h3.2v1.6H5.4z"/>
	<path d="M10.4,12.4V3.8H16v1.5h-3.9v2h3.4v1.5h-3.4v3.7H10.4z"/>
</g>
</svg>
