<?xml version="1.0" encoding="UTF-8" standalone="no"?>
<!-- Generator: Adobe Illustrator 21.0.0, SVG Export Plug-In . SVG Version: 6.00 Build 0)  -->

<svg
   xmlns:dc="http://purl.org/dc/elements/1.1/"
   xmlns:cc="http://creativecommons.org/ns#"
   xmlns:rdf="http://www.w3.org/1999/02/22-rdf-syntax-ns#"
   xmlns:svg="http://www.w3.org/2000/svg"
   xmlns="http://www.w3.org/2000/svg"
   xmlns:sodipodi="http://sodipodi.sourceforge.net/DTD/sodipodi-0.dtd"
   xmlns:inkscape="http://www.inkscape.org/namespaces/inkscape"
   version="1.0"
   id="Ebene_1"
   x="0px"
   y="0px"
   viewBox="0 0 16 16"
   style="enable-background:new 0 0 16 16;"
   xml:space="preserve"
   inkscape:version="0.91 r13725"
   sodipodi:docname="durationtostring-icon.svg"
   inkscape:export-filename="/home/simon/git/knime-core/org.knime.time/src/org/knime/time/node/convert/durationtonumber/durationtonumber@2x.png"
   inkscape:export-xdpi="181.07761"
   inkscape:export-ydpi="181.07761"><metadata
     id="metadata26"><rdf:RDF><cc:Work
         rdf:about=""><dc:format>image/svg+xml</dc:format><dc:type
           rdf:resource="http://purl.org/dc/dcmitype/StillImage" /><dc:title /></cc:Work></rdf:RDF></metadata><defs
     id="defs24" /><sodipodi:namedview
     pagecolor="#ffffff"
     bordercolor="#666666"
     borderopacity="1"
     objecttolerance="10"
     gridtolerance="10"
     guidetolerance="10"
     inkscape:pageopacity="0"
     inkscape:pageshadow="2"
     inkscape:window-width="2560"
     inkscape:window-height="1343"
     id="namedview22"
     showgrid="false"
     inkscape:zoom="32"
     inkscape:cx="17.448959"
     inkscape:cy="8.9193128"
     inkscape:window-x="0"
     inkscape:window-y="27"
     inkscape:window-maximized="1"
     inkscape:current-layer="Ebene_1" /><style
     type="text/css"
     id="style3">
	.st0{fill:#FFFFFF;}
	.st1{fill:#222221;}
	.st2{fill:#9B9A9A;}
</style><polygon
     transform="translate(3.9400655,1.6252003)"
     id="XMLID_19_"
     points="10.7,3.6 10.7,1.2 10.7,1.2 10.7,1.2 5.4,1.2 5.4,1.9 10,1.9 10,3.6 8.7,3.6 10.4,6.4 12,3.6 " /><g
     id="g5"
     transform="matrix(0.64364222,0,0,0.64364222,-0.67724696,-0.2982934)"><path
       class="st0"
       d="m 9.1,3.6 -2,0 c -0.6,0 -1,-0.4 -1,-1 l 0,-1 c 0,-0.6 0.4,-1 1,-1 l 2,0 c 0.6,0 1,0.4 1,1 l 0,0.9 c 0,0.6 -0.5,1.1 -1,1.1 z"
       id="path7"
       inkscape:connector-curvature="0"
       style="fill:#222221" /><path
       class="st0"
       d="M 12.4,5.9 11.7,5.2 c -0.4,-0.4 -0.4,-1 0,-1.4 l 0.7,-0.7 c 0.4,-0.4 1,-0.4 1.4,0 l 0.7,0.7 c 0.4,0.4 0.4,1 0,1.4 l -0.7,0.7 c -0.4,0.4 -1,0.4 -1.4,0 z"
       id="path9"
       inkscape:connector-curvature="0"
       style="fill:#222221" /><g
       id="g11"><g
         id="g13"><circle
           class="st1"
           cx="8"
           cy="8.6000004"
           r="6.3000002"
           id="circle15"
           style="fill:#ffffff" /></g></g><g
       id="g17"><path
         class="st2"
         d="M 14.1,9 8,9 8,2.5 c 3.6,0 6.3,3 6.1,6.5 z"
         id="path19"
         inkscape:connector-curvature="0"
         style="fill:#9b9a9a" /></g><line
       class="st3"
       x1="8"
       y1="9"
       x2="8"
       y2="4.5999999"
       id="line21"
       style="fill:none;stroke:#222221;stroke-linecap:round;stroke-linejoin:round;stroke-miterlimit:10" /><line
       class="st3"
       x1="8"
       y1="9"
       x2="11.5"
       y2="9"
       id="line23"
       style="fill:none;stroke:#222221;stroke-linecap:round;stroke-linejoin:round;stroke-miterlimit:10" /><path
       class="st0"
       d="M 8,15.4 C 4.2,15.4 1.2,12.3 1.2,8.6 1.2,4.8 4.3,1.8 8,1.8 c 3.8,0 6.8,3.1 6.8,6.8 0,3.7 -3.1,6.8 -6.8,6.8 z M 8,2.7 c -3.2,0 -5.9,2.6 -5.9,5.9 0,3.2 2.6,5.9 5.9,5.9 3.3,0 5.9,-2.6 5.9,-5.9 C 13.8,5.3 11.2,2.7 8,2.7 Z"
       id="path25"
       inkscape:connector-curvature="0"
       style="fill:#222221" /></g><text
     xml:space="preserve"
     style="font-style:normal;font-weight:normal;font-size:6.67707014px;line-height:125%;font-family:sans-serif;letter-spacing:0px;word-spacing:0px;fill:#000000;fill-opacity:1;stroke:none;stroke-width:1px;stroke-linecap:butt;stroke-linejoin:miter;stroke-opacity:1"
     x="4.8161516"
     y="14.921049"
     id="text4147"
     sodipodi:linespacing="125%"
     transform="scale(0.93890469,1.0650708)"><tspan
       sodipodi:role="line"
       id="tspan4149"
       x="4.8161516"
       y="14.921049">123</tspan></text>
</svg>