<?xml version="1.0" encoding="utf-8"?>
<!-- Generator: Adobe Illustrator 19.0.0, SVG Export Plug-In . SVG Version: 6.00 Build 0)  -->
<!DOCTYPE svg PUBLIC "-//W3C//DTD SVG 1.1//EN" "http://www.w3.org/Graphics/SVG/1.1/DTD/svg11.dtd">
<svg version="1.1" id="Ebene_1" xmlns="http://www.w3.org/2000/svg" xmlns:xlink="http://www.w3.org/1999/xlink" x="0px" y="0px"
	 viewBox="0 0 16 16" style="enable-background:new 0 0 16 16;" xml:space="preserve">
<style type="text/css">
	.st0{fill:#FFFFFF;}
	.st1{fill:#1A171B;}
</style>
<g>
	<rect x="1" y="10.8" class="st0" width="4.2" height="4.2"/>
	<path class="st1" d="M0,16h6.2V9.8H0V16z M1,10.8h4.2V15H1V10.8z"/>
</g>
<g>
	<polygon class="st0" points="11.4,1.7 8.7,5.5 14.1,5.5 	"/>
	<path class="st1" d="M11.4,0L6.7,6.5H16L11.4,0z M11.4,1.7l2.7,3.8H8.7L11.4,1.7z"/>
</g>
<g>
	<circle class="st0" cx="3.1" cy="3.6" r="2.1"/>
	<path class="st1" d="M3.1,0.5C1.4,0.5,0,1.9,0,3.6s1.4,3.1,3.1,3.1s3.1-1.4,3.1-3.1S4.8,0.5,3.1,0.5z M3.1,5.7C1.9,5.7,1,4.8,1,3.6
		s0.9-2.1,2.1-2.1s2.1,0.9,2.1,2.1S4.2,5.7,3.1,5.7z"/>
</g>
<g id="XMLID_83_">
	<polygon id="XMLID_84_" points="16,12 11.8,9.9 11.8,11.5 8,11.5 8,12.5 11.8,12.5 11.8,14.1 	"/>
</g>
</svg>
