<?xml version="1.0" encoding="utf-8"?>
<!-- Generator: Adobe Illustrator 19.0.0, SVG Export Plug-In . SVG Version: 6.00 Build 0)  -->
<!DOCTYPE svg PUBLIC "-//W3C//DTD SVG 1.1//EN" "http://www.w3.org/Graphics/SVG/1.1/DTD/svg11.dtd">
<svg version="1.1" id="Ebene_1" xmlns="http://www.w3.org/2000/svg" xmlns:xlink="http://www.w3.org/1999/xlink" x="0px" y="0px"
	 viewBox="0 0 16 16" style="enable-background:new 0 0 16 16;" xml:space="preserve">
<style type="text/css">
	.st0{fill:#FFFFFF;}
	.st1{fill:#1A171B;}
</style>
<g>
	<rect x="5.9" y="10.8" class="st0" width="4.2" height="4.2"/>
	<path class="st1" d="M4.9,16h6.2V9.8H4.9V16z M5.9,10.8h4.2V15H5.9V10.8z"/>
	<polygon class="st0" points="11.4,1.7 8.7,5.5 14.1,5.5 	"/>
	<path class="st1" d="M11.4,0L6.7,6.5H16L11.4,0z M11.4,1.7l2.7,3.8H8.7L11.4,1.7z"/>
	<path class="st1" d="M6.2,6.4c0-1.7-1.4-3.1-3.1-3.1C1.4,3.3,0,4.6,0,6.4c0,1.8,1.4,3.1,3.1,3.1C4.8,9.5,6.2,8.1,6.2,6.4z M3.1,8.5
		C1.9,8.5,1,7.6,1,6.4c0-1.2,0.9-2.1,2.1-2.1s2.1,0.9,2.1,2.1C5.2,7.6,4.3,8.5,3.1,8.5z"/>
	<circle class="st0" cx="3.1" cy="6.4" r="2.1"/>
</g>
</svg>
