<?xml version="1.0" encoding="utf-8"?>
<!-- Generator: Adobe Illustrator 19.1.0, SVG Export Plug-In . SVG Version: 6.00 Build 0)  -->
<!DOCTYPE svg PUBLIC "-//W3C//DTD SVG 1.1//EN" "http://www.w3.org/Graphics/SVG/1.1/DTD/svg11.dtd">
<svg version="1.1" id="Ebene_1" xmlns="http://www.w3.org/2000/svg" xmlns:xlink="http://www.w3.org/1999/xlink" x="0px" y="0px"
	 viewBox="-289 412.9 16 16" style="enable-background:new -289 412.9 16 16;" xml:space="preserve">
<style type="text/css">
	.st0{fill:#FFFFFF;}
	.st1{fill:#E64E4F;}
</style>
<g>
	<path class="st0" d="M-280.8,417.8c0,0.3-0.3,0.4-0.6,0.4h-2.4v2.5c0,0.2-0.2,0.4-0.5,0.4h-1.1v5.8l10.9-11.3h-6.3V417.8z"/>
	<path class="st1" d="M-273,415c-0.1-0.2-0.2-0.3-0.4-0.3h-7.9c-0.3,0-0.5,0.2-0.5,0.4v2.2h-2.5c-0.3,0-0.5,0.2-0.5,0.5v2.4h-1.1
		c-0.3,0-0.5,0.2-0.5,0.5v7.4c0,0.4,0.5,0.6,0.8,0.3l12.5-13C-273,415.3-273,415.1-273,415C-273.1,414.8-273,415.1-273,415z
		 M-285.4,426.9v-5.8h1.1c0.3,0,0.5-0.2,0.5-0.5v-2.4h2.5c0.3,0,0.5-0.2,0.5-0.5v-2.1h6.3L-285.4,426.9z"/>
</g>
<polygon points="-288,427.9 -288,412.9 -289,412.9 -289,428.9 -273,428.9 -273,427.9 "/>
</svg>
