<?xml version="1.0" encoding="utf-8"?>
<!-- Generator: Adobe Illustrator 19.0.0, SVG Export Plug-In . SVG Version: 6.00 Build 0)  -->
<!DOCTYPE svg PUBLIC "-//W3C//DTD SVG 1.1//EN" "http://www.w3.org/Graphics/SVG/1.1/DTD/svg11.dtd">
<svg version="1.1" id="Ebene_1" xmlns="http://www.w3.org/2000/svg" xmlns:xlink="http://www.w3.org/1999/xlink" x="0px" y="0px"
	 viewBox="0 0 16 16" style="enable-background:new 0 0 16 16;" xml:space="preserve">
<style type="text/css">
	.st0{fill:#CBCBCB;}
</style>
<g>
	<path class="st0" d="M12.2,8.7L12,6.4l-1.6,1.7c0,0.1-0.5,0.2-0.7,0.1l-2-1l0.6,2.1c0.1,0.2,0.1,0.3-0.1,0.6l-2,1.2l2.3,0.6
		c0.2,0,0.5,0.2,0.5,0.5v2.2l1.6-1.7c0.1-0.2,0.5-0.2,0.7-0.1l2,1l-0.7-2.1c-0.1-0.2,0-0.5,0.2-0.7l2-1.1L12.4,9
		C12.3,9,12.3,8.9,12.2,8.7z"/>
	<path d="M16,9.5c0-0.2-0.2-0.3-0.4-0.4l-2.7-0.6l-0.2-2.8c-0.1-1.1-1.2,0-1.4,0.3c-0.4,0.5-0.9,1-1.3,1.4L7.4,6.2
		C6.4,5.7,6.9,7.3,7,7.7c0.2,0.6,0.4,1.2,0.5,1.8l-2.3,1.6c-0.9,0.6,0.6,1,1,1.1c0.6,0.2,1.3,0.3,1.9,0.5l0.2,2.8
		c0.1,1.1,1.2,0,1.4-0.3c0.4-0.5,0.9-1,1.3-1.4l2.5,1.2c1.1,0.5,0.5-1.1,0.4-1.5c-0.2-0.6-0.4-1.2-0.5-1.8l2.3-1.6
		C16,9.9,16,9.6,16,9.5C16,9.5,16,9.6,16,9.5C16,9.3,16,9.7,16,9.5z M12.6,10.9c-0.2,0.1-0.3,0.3-0.2,0.6l0.6,1.9l-1.8-0.9
		c-0.2-0.1-0.4-0.1-0.6,0.1l-1.4,1.5l-0.2-2c0-0.2-0.2-0.4-0.4-0.4l-2-0.5l1.7-1.1C8.5,10,8.6,9.8,8.5,9.5L8,7.6l1.8,0.9
		c0.2,0.1,0.4,0.1,0.6-0.1l1.4-1.5l0.2,2c0,0.2,0.2,0.4,0.4,0.4l2,0.5L12.6,10.9z"/>
</g>
<path id="XMLID_6_" d="M5.9,0.1C5.8,0.4,5.5,0.8,5.2,1C4.9,1.2,4.6,1.4,4.3,1.5v1c0.5-0.2,1-0.5,1.4-0.8v4.1h1.1V0H5.9V0.1z"/>
<path id="XMLID_2_" d="M2.8,2.7C3.3,2.4,3.6,2,3.6,1.5S3.4,0,1.9,0S0.2,1.5,0.2,1.5l0.9,0.2c0,0,0.2-0.8,0.8-0.8s0.7,0.3,0.7,0.7
	S2,2.3,1.7,2.3l0,0.8c0.2,0,1.1,0.2,1.1,0.9S2.5,5,1.9,5S1.1,4.4,1.1,4.1L0,4.2c0.1,0.5,0.4,1.7,1.9,1.7s2-0.9,2-1.8
	S3.1,2.8,2.8,2.7z"/>
</svg>
