<?xml version="1.0" encoding="utf-8"?>
<!-- Generator: Adobe Illustrator 19.1.0, SVG Export Plug-In . SVG Version: 6.00 Build 0)  -->
<!DOCTYPE svg PUBLIC "-//W3C//DTD SVG 1.1//EN" "http://www.w3.org/Graphics/SVG/1.1/DTD/svg11.dtd">
<svg version="1.1" id="Ebene_1" xmlns="http://www.w3.org/2000/svg" xmlns:xlink="http://www.w3.org/1999/xlink" x="0px" y="0px"
	 viewBox="-412 290.3 16 16" style="enable-background:new -412 290.3 16 16;" xml:space="preserve">
<style type="text/css">
	.st0{fill:#FFFFFF;}
	.st1{fill:#FFD302;}
</style>
<g id="XMLID_4_">
	<polygon id="XMLID_8_" class="st0" points="-403.4,291.3 -409.7,291.3 -409.7,305.3 -400.8,305.3 -400.8,294 -403.4,294 	"/>
	<path id="XMLID_5_" d="M-402.9,290.3h-7.8v16h10.9v-12.8L-402.9,290.3z M-400.8,305.3h-8.9v-14h6.3v2.7h2.6
		C-400.8,294-400.8,305.3-400.8,305.3z"/>
</g>
<g>
	<path class="st1" d="M-399.8,298.2l-0.2-2.3l-1.6,1.7c0,0.1-0.5,0.2-0.7,0.1l-2-1l0.6,2.1c0.1,0.2,0.1,0.3-0.1,0.6l-2,1.2l2.3,0.6
		c0.2,0,0.5,0.2,0.5,0.5v2.2l1.6-1.7c0.1-0.2,0.5-0.2,0.7-0.1l2,1l-0.7-2.1c-0.1-0.2,0-0.5,0.2-0.7l2-1.1l-2.4-0.7
		C-399.7,298.5-399.7,298.4-399.8,298.2z"/>
	<path d="M-396,299c0-0.2-0.2-0.3-0.4-0.4l-2.7-0.6l-0.2-2.8c-0.1-1.1-1.2,0-1.4,0.3c-0.4,0.5-0.9,1-1.3,1.4l-2.6-1.2
		c-1-0.5-0.5,1.1-0.4,1.5c0.2,0.6,0.4,1.2,0.5,1.8l-2.3,1.6c-0.9,0.6,0.6,1,1,1.1c0.6,0.2,1.3,0.3,1.9,0.5l0.2,2.8
		c0.1,1.1,1.2,0,1.4-0.3c0.4-0.5,0.9-1,1.3-1.4l2.5,1.2c1.1,0.5,0.5-1.1,0.4-1.5c-0.2-0.6-0.4-1.2-0.5-1.8l2.3-1.6
		C-396,299.4-396,299.1-396,299C-396,299-396,299.1-396,299C-396,298.8-396,299.2-396,299z M-399.4,300.4c-0.2,0.1-0.3,0.3-0.2,0.6
		l0.6,1.9l-1.8-0.9c-0.2-0.1-0.4-0.1-0.6,0.1l-1.4,1.5l-0.2-2c0-0.2-0.2-0.4-0.4-0.4l-2-0.5l1.7-1.1c0.2-0.1,0.3-0.3,0.2-0.6
		l-0.5-1.9l1.8,0.9c0.2,0.1,0.4,0.1,0.6-0.1l1.4-1.5l0.2,2c0,0.2,0.2,0.4,0.4,0.4l2,0.5L-399.4,300.4z"/>
</g>
</svg>
