<?xml version="1.0" encoding="utf-8"?>
<!-- Generator: Adobe Illustrator 19.0.0, SVG Export Plug-In . SVG Version: 6.00 Build 0)  -->
<!DOCTYPE svg PUBLIC "-//W3C//DTD SVG 1.1//EN" "http://www.w3.org/Graphics/SVG/1.1/DTD/svg11.dtd">
<svg version="1.1" id="Ebene_1" xmlns="http://www.w3.org/2000/svg" xmlns:xlink="http://www.w3.org/1999/xlink" x="0px" y="0px"
	 viewBox="0 0 16 16" style="enable-background:new 0 0 16 16;" xml:space="preserve">
<style type="text/css">
	.st0{fill:#FFFFFF;}
	.st1{fill:#CBCBCB;}
</style>
<g id="XMLID_4_">
	<polygon id="XMLID_8_" class="st0" points="8.6,1 2.3,1 2.3,15 11.2,15 11.2,3.7 8.6,3.7 	"/>
	<path id="XMLID_5_" d="M9.1,0H1.3v16h10.9V3.2L9.1,0z M11.2,15H2.3V1h6.3v2.7h2.6C11.2,3.7,11.2,15,11.2,15z"/>
</g>
<g>
	<path class="st1" d="M12.2,7.9L12,5.6l-1.6,1.7c0,0.1-0.5,0.2-0.7,0.1l-2-1l0.6,2.1c0.1,0.2,0.1,0.3-0.1,0.6l-2,1.2l2.3,0.6
		c0.2,0,0.5,0.2,0.5,0.5L9,13.6l1.6-1.7c0.1-0.2,0.5-0.2,0.7-0.1l2,1l-0.7-2.1c-0.1-0.2,0-0.5,0.2-0.7l2-1.1l-2.4-0.7
		C12.3,8.2,12.3,8.1,12.2,7.9z"/>
	<path d="M16,8.7c0-0.2-0.2-0.3-0.4-0.4l-2.7-0.6l-0.2-2.8c-0.1-1.1-1.2,0-1.4,0.3c-0.4,0.5-0.9,1-1.3,1.4L7.4,5.4
		C6.4,4.9,6.9,6.5,7,6.9c0.2,0.6,0.4,1.2,0.5,1.8l-2.3,1.6c-0.9,0.6,0.6,1,1,1.1c0.6,0.2,1.3,0.3,1.9,0.5l0.2,2.8
		c0.1,1.1,1.2,0,1.4-0.3c0.4-0.5,0.9-1,1.3-1.4l2.5,1.2c1.1,0.5,0.5-1.1,0.4-1.5c-0.2-0.6-0.4-1.2-0.5-1.8l2.3-1.6
		C16,9.1,16,8.8,16,8.7C16,8.7,16,8.8,16,8.7C16,8.5,16,8.9,16,8.7z M12.6,10.1c-0.2,0.1-0.3,0.3-0.2,0.6l0.6,1.9l-1.8-0.9
		c-0.2-0.1-0.4-0.1-0.6,0.1l-1.4,1.5l-0.2-2c0-0.2-0.2-0.4-0.4-0.4l-2-0.5l1.7-1.1C8.5,9.2,8.6,9,8.5,8.7L8,6.8l1.8,0.9
		c0.2,0.1,0.4,0.1,0.6-0.1l1.4-1.5l0.2,2c0,0.2,0.2,0.4,0.4,0.4l2,0.5L12.6,10.1z"/>
</g>
</svg>
