<?xml version="1.0" encoding="utf-8"?>
<!-- Generator: Adobe Illustrator 19.0.0, SVG Export Plug-In . SVG Version: 6.00 Build 0)  -->
<!DOCTYPE svg PUBLIC "-//W3C//DTD SVG 1.1//EN" "http://www.w3.org/Graphics/SVG/1.1/DTD/svg11.dtd">
<svg version="1.1" id="Ebene_1" xmlns="http://www.w3.org/2000/svg" xmlns:xlink="http://www.w3.org/1999/xlink" x="0px" y="0px"
	 viewBox="0 0 16 16" style="enable-background:new 0 0 16 16;" xml:space="preserve">
<polygon points="16,7.6 8.8,7.6 8.8,0 7.8,0 7.8,7.6 0,7.6 0,8.6 7.8,8.6 7.8,16 8.8,16 8.8,8.6 16,8.6 "/>
<path d="M1.2,15.4l-1-0.1c0.5-3.7,1.3-7.4,2.2-11.1c0.1-0.3,0.1-0.6,0.2-0.9c0.3-1.4,0.6-3.1,1.9-3.1c1.1,0,1.3,1.3,1.5,2.5
	C6.2,3.5,6.3,4.5,6.8,5C7,5.3,7.5,5.5,7.9,5.5c0.5,0,0.9-0.2,1.1-0.5c0.2-0.2,0.3-0.5,0.5-0.7c0.4-0.7,0.9-1.5,1.6-1.5
	c0.7,0,0.8,0.8,0.8,3c0.1,2.4,0.2,5.9,1.4,7.7c0,0,0,0,0,0c0-0.1,0.1-0.2,0.1-0.4l1.2-11.8l1,0.1l-1.2,11.8c0,0.2-0.1,0.8-0.5,1.2
	c-0.2,0.1-0.4,0.2-0.7,0.2c-0.4-0.1-0.6-0.4-0.7-0.6c-1.3-2-1.4-5.7-1.5-8.2c0-0.6,0-1.4-0.1-1.8c-0.2,0.2-0.4,0.6-0.5,0.8
	C10.2,5,10.1,5.3,9.9,5.6C9.4,6.1,8.7,6.5,8,6.5C7.2,6.5,6.5,6.2,6,5.7C5.4,5,5.2,3.8,5,2.8C4.9,2.3,4.7,1.1,4.5,1.1
	c-0.5,0-0.8,1.4-1,2.3c-0.1,0.4-0.1,0.7-0.2,1C2.4,8,1.7,11.7,1.2,15.4z"/>
</svg>
