<?xml version="1.0" encoding="utf-8"?>
<!-- Generator: Adobe Illustrator 19.2.1, SVG Export Plug-In . SVG Version: 6.00 Build 0)  -->
<svg version="1.1" id="Ebene_1" xmlns="http://www.w3.org/2000/svg" xmlns:xlink="http://www.w3.org/1999/xlink" x="0px" y="0px"
	 viewBox="0 0 16 16" style="enable-background:new 0 0 16 16;" xml:space="preserve">
<style type="text/css">
	.st0{fill:#7D7D7D;}
	.st1{fill:#F2F8FC;}
	.st2{fill:none;stroke:#3E69A6;stroke-linecap:round;stroke-linejoin:round;stroke-miterlimit:10;}
	.st3{fill:#8D94A8;}
	.st4{fill:#3E69A6;}
</style>
<path class="st0" d="M14.1,12.3L7.1,0L0,12.3H14.1z M5.2,4.9l5.6,3.2l-5.6,3.2L5.2,4.9z"/>
<path class="st1" d="M10.1,11.3c-0.5-0.7-1.3-1.9-1.3-3.1c0-1.8,1.5-3.3,3.3-3.3c1.8,0,3.3,1.5,3.3,3.3c0,1.1-0.7,2-1.2,3
	C13.7,12,13.8,13,13.8,13l-3.4,0C10.5,13,10.6,12.1,10.1,11.3z"/>
<path class="st2" d="M13.4,13"/>
<path class="st2" d="M10.5,13"/>
<path class="st2" d="M13.6,13.8"/>
<path class="st2" d="M10.5,13.8"/>
<path class="st2" d="M13.6,14.7"/>
<path class="st2" d="M10.5,14.7"/>
<path class="st3" d="M12.4,6.3c-0.3,0-0.5,0.2-0.5,0.5s0.2,0.5,0.5,0.5c0.3,0,0.6,0.3,0.6,0.6c0,0.3,0.2,0.5,0.5,0.5
	c0.3,0,0.5-0.2,0.5-0.5C13.9,7,13.2,6.3,12.4,6.3z"/>
<path class="st4" d="M12,4.4c-1.9,0-3.5,1.4-3.8,3.3c-0.1,1.1,0.2,2.1,0.7,3c0.4,0.7,1.2,1.4,1,2.3c0,0.2,0.1,0.4,0.2,0.5
	c-0.4,0.3-0.2,0.8,0.2,0.9c-0.2,0.3,0.1,0.7,0.4,0.7h0.1c-0.1,0.3,0.1,0.7,0.5,0.7h1.5c0.3,0,0.6-0.3,0.5-0.7h0.1
	c0.4,0,0.6-0.4,0.4-0.7c0.4-0.1,0.6-0.6,0.2-0.9c0.3-0.2,0.2-0.5,0.2-0.8c0-0.6,0.2-1.1,0.4-1.6c0.5-1,1.1-2,1.1-3.2
	C15.7,5.9,14,4.4,12,4.4z M14,10.3c-0.4,0.7-0.7,1.4-0.7,2.2l-2.3,0c-0.1-1.4-1.4-2.4-1.7-3.7C9,7.5,9.7,6.2,10.9,5.6
	c1.1-0.5,2.5-0.2,3.3,0.8C15.2,7.6,14.8,9,14,10.3C13.9,10.5,14.4,9.6,14,10.3z"/>
</svg>
