<?xml version="1.0" encoding="utf-8"?>
<!-- Generator: Adobe Illustrator 19.1.0, SVG Export Plug-In . SVG Version: 6.00 Build 0)  -->
<!DOCTYPE svg PUBLIC "-//W3C//DTD SVG 1.1//EN" "http://www.w3.org/Graphics/SVG/1.1/DTD/svg11.dtd">
<svg version="1.1" id="Ebene_1" xmlns="http://www.w3.org/2000/svg" xmlns:xlink="http://www.w3.org/1999/xlink" x="0px" y="0px"
	 viewBox="-289 412.9 16 16" style="enable-background:new -289 412.9 16 16;" xml:space="preserve">
<style type="text/css">
	.st0{fill:#FFFFFF;}
	.st1{fill:#F1933B;}
</style>
<g>
	<rect x="-283" y="413.8" class="st0" width="3.9" height="14.1"/>
	
		<rect x="-288.1" y="413.8" transform="matrix(-1 4.035623e-03 -4.035623e-03 -1 -570.4041 842.938)" class="st0" width="4.1" height="14.1"/>
	<path d="M-289,412.8v16.1h16v-16.1H-289z M-284,427.9h-4v-14.1h4V427.9z M-279.1,427.9h-3.9v-14.1h3.9V427.9z M-274,427.9h-4.1
		v-5.5v-4.7v-3.9h4.1V427.9z"/>
	<polygon class="st1" points="-274,427.9 -274,413.8 -278,413.8 -278.1,413.8 -278.1,427.9 -278,427.9 	"/>
	<g id="XMLID_11_">
		<polygon id="XMLID_12_" points="-277.1,420 -280.9,417.7 -280.9,419.4 -286.7,419.4 -286.7,420.5 -280.9,420.5 -280.9,422.2 		"/>
	</g>
</g>
</svg>
