<?xml version="1.0" encoding="utf-8"?>
<!-- Generator: Adobe Illustrator 19.1.0, SVG Export Plug-In . SVG Version: 6.00 Build 0)  -->
<!DOCTYPE svg PUBLIC "-//W3C//DTD SVG 1.1//EN" "http://www.w3.org/Graphics/SVG/1.1/DTD/svg11.dtd">
<svg version="1.1" id="Ebene_1" xmlns="http://www.w3.org/2000/svg" xmlns:xlink="http://www.w3.org/1999/xlink" x="0px" y="0px"
	 viewBox="-289 412.9 16 16" style="enable-background:new -289 412.9 16 16;" xml:space="preserve">
<style type="text/css">
	.st0{fill:#6BC15F;enable-background:new    ;}
	.st1{fill:#4C8442;enable-background:new    ;}
</style>
<g id="XMLID_1_">
	<path id="XMLID_6_" class="st0" d="M-282.9,413.7c-2.9,0-5.3,2.4-5.3,5.3c0,2.9,2.4,5.3,5.3,5.3s5.3-2.4,5.3-5.3
		C-277.6,416.1-280,413.7-282.9,413.7z M-282.9,420.8c-1,0-1.8-0.8-1.8-1.8s0.8-1.8,1.8-1.8s1.8,0.8,1.8,1.8
		S-281.9,420.8-282.9,420.8z"/>
	<path id="XMLID_15_" class="st1" d="M-282.9,412.9c-3.4,0-6.1,2.7-6.1,6.1c0,3.4,2.7,6.1,6.1,6.1s6.1-2.7,6.1-6.1
		C-276.8,415.6-279.5,412.9-282.9,412.9z M-282.9,424.3c-2.9,0-5.3-2.4-5.3-5.3c0-2.9,2.4-5.3,5.3-5.3s5.3,2.4,5.3,5.3
		C-277.6,421.9-280,424.3-282.9,424.3z"/>
	<circle id="XMLID_16_" cx="-282.9" cy="419" r="1.8"/>
</g>
<polygon id="XMLID_190_" points="-273,425.3 -275.1,425.3 -275.1,423.3 -276.6,423.3 -276.6,425.3 -278.6,425.3 -278.6,426.8 
	-276.6,426.8 -276.6,428.9 -275.1,428.9 -275.1,426.8 -273,426.8 "/>
</svg>
