<?xml version="1.0" encoding="utf-8"?>
<!-- Generator: Adobe Illustrator 19.0.0, SVG Export Plug-In . SVG Version: 6.00 Build 0)  -->
<!DOCTYPE svg PUBLIC "-//W3C//DTD SVG 1.1//EN" "http://www.w3.org/Graphics/SVG/1.1/DTD/svg11.dtd">
<svg version="1.1" id="Ebene_1" xmlns="http://www.w3.org/2000/svg" xmlns:xlink="http://www.w3.org/1999/xlink" x="0px" y="0px"
	 viewBox="0 0 16 16" style="enable-background:new 0 0 16 16;" xml:space="preserve">
<style type="text/css">
	.st0{fill:#FFFFFF;}
</style>
<g id="XMLID_1_">
	<path id="XMLID_6_" class="st0" d="M6.1,0.8c-2.9,0-5.3,2.4-5.3,5.3c0,2.9,2.4,5.3,5.3,5.3c2.9,0,5.3-2.4,5.3-5.3
		C11.4,3.2,9,0.8,6.1,0.8z M6.1,7.9c-1,0-1.8-0.8-1.8-1.8s0.8-1.8,1.8-1.8s1.8,0.8,1.8,1.8S7.1,7.9,6.1,7.9z"/>
	<path id="XMLID_15_" d="M6.1,0C2.7,0,0,2.7,0,6.1s2.7,6.1,6.1,6.1s6.1-2.7,6.1-6.1S9.5,0,6.1,0z M6.1,11.4c-2.9,0-5.3-2.4-5.3-5.3
		c0-2.9,2.4-5.3,5.3-5.3c2.9,0,5.3,2.4,5.3,5.3C11.4,9,9,11.4,6.1,11.4z"/>
	<circle id="XMLID_16_" cx="6.1" cy="6.1" r="1.8"/>
</g>
<polygon id="XMLID_190_" points="16,12.4 13.9,12.4 13.9,10.4 12.4,10.4 12.4,12.4 10.4,12.4 10.4,13.9 12.4,13.9 12.4,16 13.9,16 
	13.9,13.9 16,13.9 "/>
</svg>
