<?xml version="1.0" encoding="utf-8"?>
<!-- Generator: Adobe Illustrator 19.0.0, SVG Export Plug-In . SVG Version: 6.00 Build 0)  -->
<!DOCTYPE svg PUBLIC "-//W3C//DTD SVG 1.1//EN" "http://www.w3.org/Graphics/SVG/1.1/DTD/svg11.dtd">
<svg version="1.1" id="Ebene_1" xmlns="http://www.w3.org/2000/svg" xmlns:xlink="http://www.w3.org/1999/xlink" x="0px" y="0px"
	 viewBox="0 0 16 16" style="enable-background:new 0 0 16 16;" xml:space="preserve">
<style type="text/css">
	.st0{fill:#FFFFFF;}
	.st1{fill:#CBCBCB;}
	.st2{fill:#1A171B;}
</style>
<polygon points="11.4,6.2 11.4,0 1.9,0 1.9,12.2 2.9,12.2 2.9,1 10.4,1 10.4,6.2 7.6,6.2 7.6,12.2 8.6,12.2 8.6,7.2 13.1,7.2 
	13.1,12.2 14.1,12.2 14.1,6.2 "/>
<g>
	<rect x="1" y="12.1" class="st0" width="2.8" height="2.9"/>
	<path d="M0,11.1V16h4.8v-4.9H0z M3.8,15H1v-2.9h2.8V15z"/>
</g>
<g>
	<rect x="6.6" y="12.1" class="st1" width="2.8" height="2.9"/>
	<path d="M5.6,11.1V16h4.8v-4.9H5.6z M9.4,15H6.6v-2.9h2.8V15z"/>
</g>
<g>
	<rect x="12.2" y="12.1" class="st1" width="2.8" height="2.9"/>
	<path d="M11.2,11.1V16H16v-4.9H11.2z M15,15h-2.8v-2.9H15V15z"/>
</g>
<g id="XMLID_18_">
	<polygon id="XMLID_51_" class="st1" points="3.6,14.1 13.5,8 3.6,1.9 	"/>
	<path id="XMLID_20_" class="st2" d="M14.8,7.6l-11.4-7C3,0.4,2.6,0.6,2.6,1v14c0,0.4,0.4,0.6,0.8,0.4l11.4-7
		C15.1,8.2,15.1,7.8,14.8,7.6z M3.6,14.1V1.9L13.5,8L3.6,14.1z"/>
</g>
</svg>
