<?xml version="1.0" encoding="utf-8"?>
<!-- Generator: Adobe Illustrator 19.1.0, SVG Export Plug-In . SVG Version: 6.00 Build 0)  -->
<!DOCTYPE svg PUBLIC "-//W3C//DTD SVG 1.1//EN" "http://www.w3.org/Graphics/SVG/1.1/DTD/svg11.dtd">
<svg version="1.1" id="Ebene_1" xmlns="http://www.w3.org/2000/svg" xmlns:xlink="http://www.w3.org/1999/xlink" x="0px" y="0px"
	 viewBox="-412 290.3 16 16" style="enable-background:new -412 290.3 16 16;" xml:space="preserve">
<style type="text/css">
	.st0{fill:#E64E4F;enable-background:new    ;}
	.st1{fill:#C4D13B;}
	.st2{fill:#4BA1BF;enable-background:new    ;}
</style>
<polygon points="-400.6,296.5 -400.6,290.3 -410.1,290.3 -410.1,302.5 -409.1,302.5 -409.1,291.3 -401.6,291.3 -401.6,296.5 
	-404.4,296.5 -404.4,302.5 -403.4,302.5 -403.4,297.5 -398.9,297.5 -398.9,302.5 -397.9,302.5 -397.9,296.5 "/>
<g>
	<rect x="-411" y="302.4" class="st0" width="2.8" height="2.9"/>
	<path d="M-412,301.4v4.9h4.8v-4.9H-412z M-408.2,305.3h-2.8v-2.9h2.8V305.3z"/>
</g>
<g>
	<rect x="-405.4" y="302.4" class="st1" width="2.8" height="2.9"/>
	<path d="M-406.4,301.4v4.9h4.8v-4.9H-406.4z M-402.6,305.3h-2.8v-2.9h2.8V305.3z"/>
</g>
<g>
	<rect x="-399.8" y="302.4" class="st2" width="2.8" height="2.9"/>
	<path d="M-400.8,301.4v4.9h4.8v-4.9H-400.8z M-397,305.3h-2.8v-2.9h2.8V305.3z"/>
</g>
<g id="XMLID_18_">
	<polygon id="XMLID_51_" class="st1" points="-408.4,304.4 -398.5,298.3 -408.4,292.2 	"/>
	<path id="XMLID_20_" d="M-397.2,297.9l-11.4-7c-0.4-0.2-0.8,0-0.8,0.4v14c0,0.4,0.4,0.6,0.8,0.4l11.4-7
		C-396.9,298.5-396.9,298.1-397.2,297.9z M-408.4,304.4v-12.2l9.9,6.1L-408.4,304.4z"/>
</g>
</svg>
