<?xml version="1.0" encoding="utf-8"?>
<!-- Generator: Adobe Illustrator 19.0.0, SVG Export Plug-In . SVG Version: 6.00 Build 0)  -->
<!DOCTYPE svg PUBLIC "-//W3C//DTD SVG 1.0//EN" "http://www.w3.org/TR/2001/REC-SVG-20010904/DTD/svg10.dtd">
<svg version="1.0" id="Ebene_1" xmlns="http://www.w3.org/2000/svg" xmlns:xlink="http://www.w3.org/1999/xlink" x="0px" y="0px"
	 viewBox="0 0 16 16" enable-background="new 0 0 16 16" xml:space="preserve">
<g id="XMLID_1_">
	<path id="XMLID_3_" d="M0,6.4h0.8V6c0-0.4,0-0.8,0.1-1C1,4.5,1.3,4.2,2.4,4.2c0.4,0,0.8,0.1,1.2,0.2l-0.2,1C3.2,5.3,3,5.3,2.8,5.3
		s-0.3,0-0.4,0.1C2.2,5.5,2.2,5.7,2.2,6v0.4h1v1.1h-1v4.2H0.8V7.5H0V6.4z"/>
	<path id="XMLID_5_" d="M6.8,12.8h-1c-0.5-0.8-0.9-1.6-1.2-2.4C4.4,9.6,4.2,8.8,4.2,8c0-1,0.2-1.9,0.5-2.7s0.7-1.5,1.1-2.1h1
		c-0.5,1-0.8,1.9-1,2.6C5.7,6.5,5.6,7.2,5.6,8c0,0.5,0.1,1.1,0.2,1.7c0.1,0.6,0.2,1.1,0.4,1.6C6.3,11.7,6.5,12.2,6.8,12.8z"/>
	<path id="XMLID_7_" d="M7.1,9.3l1.4-0.1c0.1,0.4,0.3,0.8,0.5,1c0.3,0.2,0.6,0.3,1.1,0.3s0.8-0.1,1.1-0.3c0.2-0.2,0.4-0.4,0.4-0.7
		c0-0.2-0.1-0.3-0.2-0.4c-0.1-0.1-0.3-0.2-0.5-0.3s-0.6-0.2-1.2-0.3C8.9,8.3,8.3,8,8,7.7C7.6,7.3,7.3,6.8,7.3,6.3
		c0-0.4,0.1-0.7,0.3-1C7.8,5,8.6,4.1,10,4.2c0.9,0,1.6,0.2,2.1,0.6s0.7,0.9,0.7,1.6l-1.5,0.1c-0.1-0.4-0.2-0.6-0.4-0.8
		c-0.2-0.2-0.5-0.3-0.9-0.3c-0.7,0-1.1,0.1-1.3,0.8c0,0.2,0.1,0.3,0.2,0.4c0.2,0.2,0.6,0.3,1.4,0.5s1.3,0.3,1.6,0.5s0.6,0.4,0.8,0.7
		C12.9,8.7,13,9.1,13,9.5s-0.1,0.8-0.3,1.2s-0.6,0.6-1,0.8s-1,0.3-1.6,0.3c-0.9,0-1.6-0.2-2.1-0.6C7.5,10.7,7.2,10.1,7.1,9.3z"/>
	<path id="XMLID_9_" d="M14.1,11.4c0.1-0.3,0.2-0.7,0.3-1.1c0.1-0.4,0.2-0.8,0.2-1.2c0-0.4,0.1-0.8,0.1-1.1c0-0.8-0.1-1.5-0.3-2.3
		c-0.2-0.7-0.5-1.6-0.9-2.6h1c0.5,0.7,0.9,1.5,1.2,2.3C15.9,6.2,16,7.1,16,7.9c0,0.7-0.1,1.4-0.3,2.2c-0.2,0.9-0.7,1.8-1.2,2.6h-1
		C13.5,12.7,14,11.8,14.1,11.4z"/>
</g>
</svg>
