<?xml version="1.0" encoding="utf-8"?>
<!-- Generator: Adobe Illustrator 19.0.0, SVG Export Plug-In . SVG Version: 6.00 Build 0)  -->
<!DOCTYPE svg PUBLIC "-//W3C//DTD SVG 1.1//EN" "http://www.w3.org/Graphics/SVG/1.1/DTD/svg11.dtd">
<svg version="1.1" id="Ebene_1" xmlns="http://www.w3.org/2000/svg" xmlns:xlink="http://www.w3.org/1999/xlink" x="0px" y="0px"
	 viewBox="0 0 16 16" style="enable-background:new 0 0 16 16;" xml:space="preserve">
<style type="text/css">
	.st0{fill:#CBCBCB;}
</style>
<g>
	<polygon class="st0" points="11.9,5.2 11.9,5.2 11.9,5.7 5,5.7 5,10.3 11.9,10.3 11.9,10.7 11.9,10.7 	"/>
	<polygon points="5,10.3 5,5.7 11.9,5.7 11.9,4.8 4.1,4.8 4.1,11.2 11.9,11.2 11.9,10.3 	"/>
</g>
<g>
	<g id="XMLID_96_">
		<path id="XMLID_98_" d="M14.1,11.2c-2,3.1-7.3,4.5-10.2,1.9l1.3-0.9L0.6,10l0.6,5l1.5-1c3.5,3.5,10.2,2,12.7-2L14.1,11.2z"/>
		<path id="XMLID_97_" d="M5.6,1.9c2.2-0.7,4.4-0.4,5.9,0.6l-1.2,0.9l4.7,2l-0.8-5l-1.5,1.1C9.3-1.2,3.8-0.1,1.1,3l1.1,1
			C3,3,4.2,2.3,5.6,1.9C7.8,1.2,4.2,2.3,5.6,1.9z"/>
	</g>
	<g id="XMLID_1_">
		<path id="XMLID_2_" d="M11.4,4.9l4,3.2L16,3L11.4,4.9z"/>
	</g>
	<g id="XMLID_3_">
		<path id="XMLID_4_" d="M4.6,10.6l-4-3.2l-0.6,5L4.6,10.6z"/>
	</g>
</g>
</svg>
