<?xml version="1.0" encoding="utf-8"?>
<!-- Generator: Adobe Illustrator 19.0.0, SVG Export Plug-In . SVG Version: 6.00 Build 0)  -->
<!DOCTYPE svg PUBLIC "-//W3C//DTD SVG 1.1//EN" "http://www.w3.org/Graphics/SVG/1.1/DTD/svg11.dtd">
<svg version="1.1" id="Ebene_1" xmlns="http://www.w3.org/2000/svg" xmlns:xlink="http://www.w3.org/1999/xlink" x="0px" y="0px"
	 viewBox="0 0 16 16" style="enable-background:new 0 0 16 16;" xml:space="preserve">
<style type="text/css">
	.st0{fill:#FFFFFF;}
</style>
<g>
	<rect x="7" y="11.2" class="st0" width="2" height="2.5"/>
	<rect x="7" y="8.4" class="st0" width="2" height="2"/>
	<rect x="9.9" y="8.4" class="st0" width="2" height="2"/>
	<rect x="4.2" y="8.4" class="st0" width="2" height="2"/>
	<polygon class="st0" points="12.7,8.4 12.7,10.4 13.5,10.4 14.7,8.4 	"/>
	<polygon class="st0" points="12.7,11.2 12.7,11.9 13.1,11.2 	"/>
	<polygon class="st0" points="3.4,10.4 3.4,8.4 1.3,8.4 2.5,10.4 	"/>
	<polygon class="st0" points="3.4,11.2 3,11.2 3.4,11.9 	"/>
	<polygon class="st0" points="6.2,13.7 6.2,11.2 4.2,11.2 4.2,13.3 4.4,13.7 	"/>
	<polygon class="st0" points="11.8,13.3 11.8,11.2 9.8,11.2 9.8,13.7 11.6,13.7 	"/>
	<path d="M0,7.6l4,6.9h8.2L16,7.6H0z M13.5,10.4h-0.8v-2h2L13.5,10.4z M6.2,8.4v2h-2v-2H6.2z M7,8.4h2v2H7V8.4z M11.9,8.4v2h-2v-2
		H11.9z M9,11.2v2.5H7v-2.5H9z M9.8,11.2h2v2.1l-0.2,0.4H9.8V11.2z M12.7,11.2h0.4l-0.4,0.7V11.2z M3.4,8.4v2H2.5l-1.2-2H3.4z
		 M3.4,11.2v0.7L3,11.2H3.4z M4.2,11.2h2v2.5H4.4l-0.2-0.4C4.2,13.3,4.2,11.2,4.2,11.2z"/>
</g>
<g>
	<rect x="2.7" y="13.3" class="st0" width="1.9" height="1.9"/>
	<path d="M1.9,16h3.5v-3.5H1.9V16z M2.7,13.3h1.9v1.9H2.7V13.3z"/>
</g>
<g>
	<rect x="11.5" y="13.3" class="st0" width="1.9" height="1.9"/>
	<path d="M10.7,12.5V16h3.5v-3.5H10.7z M13.4,15.2h-1.9v-1.9h1.9V15.2z"/>
</g>
<g>
	<path id="XMLID_216_" d="M5.9,5.8V4.6H3.6v-1L6.1,0H7v3.6h0.7v1H7v1.2H5.9z M5.9,3.7v-2l-1.3,2H5.9z"/>
	<path id="XMLID_128_" d="M12.4,4.8v1H8.5c0.1-0.9,0.7-1.6,1.4-2.2c0.5-0.5,1.4-1.1,1.4-1.8c0-1-1.1-0.9-1.6-0.3
		C9.6,1.6,9.4,1.9,9.4,1.9L8.7,1.8c0.1-1.9,2.8-2.5,3.6-0.7c0.7,1.7-1.4,2.6-2.1,3.8L12.4,4.8L12.4,4.8z"/>
</g>
</svg>
