<?xml version="1.0" encoding="utf-8"?>
<!-- Generator: Adobe Illustrator 19.1.0, SVG Export Plug-In . SVG Version: 6.00 Build 0)  -->
<!DOCTYPE svg PUBLIC "-//W3C//DTD SVG 1.1//EN" "http://www.w3.org/Graphics/SVG/1.1/DTD/svg11.dtd">
<svg version="1.1" id="Ebene_1" xmlns="http://www.w3.org/2000/svg" xmlns:xlink="http://www.w3.org/1999/xlink" x="0px" y="0px"
	 viewBox="-412 290.3 16 16" style="enable-background:new -412 290.3 16 16;" xml:space="preserve">
<style type="text/css">
	.st0{fill:#FFFFFF;}
</style>
<g>
	<rect x="-401" y="292.7" class="st0" width="4" height="4"/>
	<path d="M-396,291.7h-16v6h11h5V291.7z M-406,296.7v-4h4v4H-406z M-411,296.7v-4h4v4H-411z M-401,296.7v-4h4v4H-401z"/>
	<rect x="-406" y="292.7" class="st0" width="4" height="4"/>
	<rect x="-411" y="292.7" class="st0" width="4" height="4"/>
</g>
<polygon id="XMLID_19_" points="-408.2,302.8 -411.3,302.8 -411.3,302.8 -411.4,302.8 -411.4,299.6 -410.6,299.6 -410.6,302 
	-408.2,302 -408.2,300.8 -405.4,302.4 -408.2,304 "/>
<g>
	<path d="M-398.5,303.8v-4h2.5v-1h-8.5v6h8.5v-1H-398.5z M-399.5,303.8h-4v-4h4V303.8z"/>
	<rect x="-398.5" y="299.8" class="st0" width="2.5" height="4"/>
	<rect x="-403.5" y="299.8" class="st0" width="4" height="4"/>
</g>
</svg>
