<?xml version="1.0" encoding="utf-8"?>
<!-- Generator: Adobe Illustrator 19.0.0, SVG Export Plug-In . SVG Version: 6.00 Build 0)  -->
<!DOCTYPE svg PUBLIC "-//W3C//DTD SVG 1.1//EN" "http://www.w3.org/Graphics/SVG/1.1/DTD/svg11.dtd">
<svg version="1.1" id="Ebene_1" xmlns="http://www.w3.org/2000/svg" xmlns:xlink="http://www.w3.org/1999/xlink" x="0px" y="0px"
	 viewBox="0 0 16 16" style="enable-background:new 0 0 16 16;" xml:space="preserve">
<style type="text/css">
	.st0{fill:#FFFFFF;}
</style>
<g>
	<g id="XMLID_1_">
		<rect id="XMLID_72_" x="1" y="2.1" class="st0" width="14" height="4"/>
		<path id="XMLID_69_" d="M16,1.1H0l0,6h16V1.1z M1,6.1v-4h14v4H1z"/>
	</g>
	<g id="XMLID_11_">
		<polygon id="XMLID_12_" points="9.6,11.8 5.8,9.6 5.8,11.3 0,11.3 0,12.3 5.8,12.3 5.8,14.1 		"/>
	</g>
	<g id="XMLID_132_">
		<path id="XMLID_133_" d="M14,11.7l1.8-1.8c0.3-0.3,0.3-0.8,0-1.1c-0.3-0.3-0.8-0.3-1.1,0l-1.8,1.8l-1.8-1.8
			c-0.3-0.3-0.8-0.3-1.1,0c-0.3,0.3-0.3,0.8,0,1.1l1.8,1.8L10,13.6c-0.3,0.3-0.3,0.8,0,1.1c0.1,0.1,0.3,0.2,0.5,0.2s0.4-0.1,0.5-0.2
			l1.8-1.8l1.8,1.8c0.1,0.1,0.3,0.2,0.5,0.2s0.4-0.1,0.5-0.2c0.3-0.3,0.3-0.8,0-1.1L14,11.7z"/>
	</g>
</g>
</svg>
