<?xml version="1.0" encoding="utf-8"?>
<!-- Generator: Adobe Illustrator 19.1.0, SVG Export Plug-In . SVG Version: 6.00 Build 0)  -->
<!DOCTYPE svg PUBLIC "-//W3C//DTD SVG 1.1//EN" "http://www.w3.org/Graphics/SVG/1.1/DTD/svg11.dtd">
<svg version="1.1" id="Ebene_1" xmlns="http://www.w3.org/2000/svg" xmlns:xlink="http://www.w3.org/1999/xlink" x="0px" y="0px"
	 viewBox="-289 412.9 16 16" style="enable-background:new -289 412.9 16 16;" xml:space="preserve">
<style type="text/css">
	.st0{fill:#FFFFFF;}
	.st1{fill:#E64E4F;}
</style>
<g>
	<g id="XMLID_1_">
		<rect id="XMLID_72_" x="-288" y="415" class="st0" width="14" height="4"/>
		<path id="XMLID_69_" d="M-273,414h-16v6h16V414z M-288,419v-4h14v4H-288z"/>
	</g>
	<g id="XMLID_11_">
		<polygon id="XMLID_12_" points="-279.4,424.7 -283.2,422.5 -283.2,424.2 -289,424.2 -289,425.2 -283.2,425.2 -283.2,427 		"/>
	</g>
	<g id="XMLID_132_">
		<path id="XMLID_133_" class="st1" d="M-275,424.6l1.8-1.8c0.3-0.3,0.3-0.8,0-1.1c-0.3-0.3-0.8-0.3-1.1,0l-1.8,1.8l-1.8-1.8
			c-0.3-0.3-0.8-0.3-1.1,0c-0.3,0.3-0.3,0.8,0,1.1l1.8,1.8l-1.8,1.9c-0.3,0.3-0.3,0.8,0,1.1c0.1,0.1,0.3,0.2,0.5,0.2
			s0.4-0.1,0.5-0.2l1.8-1.8l1.8,1.8c0.1,0.1,0.3,0.2,0.5,0.2c0.2,0,0.4-0.1,0.5-0.2c0.3-0.3,0.3-0.8,0-1.1L-275,424.6z"/>
	</g>
</g>
</svg>
