<?xml version="1.0" encoding="utf-8"?>
<!-- Generator: Adobe Illustrator 19.1.0, SVG Export Plug-In . SVG Version: 6.00 Build 0)  -->
<!DOCTYPE svg PUBLIC "-//W3C//DTD SVG 1.1//EN" "http://www.w3.org/Graphics/SVG/1.1/DTD/svg11.dtd">
<svg version="1.1" id="Ebene_1" xmlns="http://www.w3.org/2000/svg" xmlns:xlink="http://www.w3.org/1999/xlink" x="0px" y="0px"
	 viewBox="-412 290.3 16 16" style="enable-background:new -412 290.3 16 16;" xml:space="preserve">
<style type="text/css">
	.st0{fill:#4BA1BF;}
</style>
<g>
	<path id="XMLID_6_" d="M-401.4,292.7c-0.1,0.3-0.4,0.7-0.7,0.9c-0.3,0.2-0.6,0.4-0.9,0.5v1c0.5-0.2,1-0.5,1.4-0.8v4.1h1.1v-5.8
		h-0.9V292.7z"/>
	<g id="XMLID_1_">
		<path id="XMLID_3_" d="M-405.7,292.5c0.6,0,1,0.2,1.3,0.6c0.4,0.5,0.6,1.3,0.6,2.4c0,1.1-0.2,1.9-0.6,2.3
			c-0.3,0.4-0.7,0.6-1.3,0.6c-0.6,0-1-0.2-1.3-0.6s-0.5-1.2-0.5-2.3c0-1.1,0.2-1.9,0.5-2.4C-406.7,292.7-406.2,292.5-405.7,292.5z
			 M-405.7,293.5c-0.1,0-0.2,0-0.4,0.1c-0.2,0.2-0.2,0.4-0.2,0.6c0,0.3-0.1,0.7-0.1,1.3c0,0.6,0,1.1,0.1,1.4
			c0.1,0.3,0.2,0.4,0.3,0.5s0.2,0.1,0.4,0.1c0.2,0,0.3,0,0.4-0.1c0.1-0.1,0.2-0.2,0.3-0.5c0.1-0.3,0.1-0.8,0.1-1.4
			c0-0.6-0.1-1.1-0.2-1.4c-0.1-0.3-0.2-0.4-0.3-0.5C-405.4,293.5-405.5,293.5-405.7,293.5z"/>
	</g>
</g>
<polygon class="st0" points="-396,302.3 -399.9,300.1 -399.9,301.8 -402.4,301.8 -405.6,301.8 -408.1,301.8 -408.1,300.1 
	-412,302.3 -408.1,304.6 -408.1,302.9 -405.6,302.9 -402.4,302.9 -399.9,302.9 -399.9,304.6 "/>
</svg>
