<?xml version="1.0" encoding="utf-8"?>
<!-- Generator: Adobe Illustrator 19.0.0, SVG Export Plug-In . SVG Version: 6.00 Build 0)  -->
<!DOCTYPE svg PUBLIC "-//W3C//DTD SVG 1.1//EN" "http://www.w3.org/Graphics/SVG/1.1/DTD/svg11.dtd">
<svg version="1.1" id="Ebene_1" xmlns="http://www.w3.org/2000/svg" xmlns:xlink="http://www.w3.org/1999/xlink" x="0px" y="0px"
	 viewBox="0 0 16 16" style="enable-background:new 0 0 16 16;" xml:space="preserve">
<style type="text/css">
	.st0{fill:#FFFFFF;}
</style>
<g id="XMLID_4_">
	<polygon id="XMLID_8_" class="st0" points="7.3,1 1,1 1,15 9.9,15 9.9,3.7 7.3,3.7 	"/>
	<path id="XMLID_5_" d="M7.8,0H0v16h10.9V3.2L7.8,0z M9.9,15H1V1h6.3v2.7h2.6V15z"/>
</g>
<g>
	<path id="XMLID_6_" d="M14,9c-0.1,0.3-0.4,0.7-0.7,0.9s-0.6,0.4-0.9,0.5v1c0.5-0.2,1-0.5,1.4-0.8v4.1h1.1V8.9H14V9z"/>
	<path id="XMLID_3_" d="M14,1.2c2.6,0,2.7,5.9,0,5.8C11.4,7.1,11.4,1.2,14,1.2z M14,2.2c-1.1,0-1.1,4,0,4C15.1,6.2,15.1,2.2,14,2.2z
		"/>
</g>
<g id="XMLID_11_">
	<polygon id="XMLID_12_" points="12.4,8.6 8.6,6.3 8.6,8.1 2.8,8.1 2.8,9.1 8.6,9.1 8.6,10.8 	"/>
</g>
</svg>
