<?xml version="1.0" encoding="utf-8"?>
<!-- Generator: Adobe Illustrator 19.1.0, SVG Export Plug-In . SVG Version: 6.00 Build 0)  -->
<!DOCTYPE svg PUBLIC "-//W3C//DTD SVG 1.1//EN" "http://www.w3.org/Graphics/SVG/1.1/DTD/svg11.dtd">
<svg version="1.1" id="Ebene_1" xmlns="http://www.w3.org/2000/svg" xmlns:xlink="http://www.w3.org/1999/xlink" x="0px" y="0px"
	 viewBox="-412 290.3 16 16" style="enable-background:new -412 290.3 16 16;" xml:space="preserve">
<style type="text/css">
	.st0{fill:#FFFFFF;}
	.st1{fill:#4BA1BF;}
</style>
<g id="XMLID_4_">
	<polygon id="XMLID_8_" class="st0" points="-404.7,291.3 -411,291.3 -411,305.3 -402.1,305.3 -402.1,294 -404.7,294 	"/>
	<path id="XMLID_5_" d="M-404.2,290.3h-7.8v16h10.9v-12.8L-404.2,290.3z M-402.1,305.3h-8.9v-14h6.3v2.7h2.6V305.3z"/>
</g>
<g>
	<path id="XMLID_6_" d="M-398,299.3c-0.1,0.3-0.4,0.7-0.7,0.9c-0.3,0.2-0.6,0.4-0.9,0.5v1c0.5-0.2,1-0.5,1.4-0.8v4.1h1.1v-5.8h-0.9
		V299.3z"/>
	<path id="XMLID_3_" d="M-398,291.5c2.6,0,2.7,5.9,0,5.8C-400.6,297.4-400.6,291.5-398,291.5z M-398,292.5c-1.1,0-1.1,4,0,4
		S-396.9,292.5-398,292.5z"/>
</g>
<g id="XMLID_11_">
	<polygon id="XMLID_12_" class="st1" points="-399.6,298.9 -403.4,296.6 -403.4,298.4 -409.2,298.4 -409.2,299.4 -403.4,299.4 
		-403.4,301.1 	"/>
</g>
</svg>
