<?xml version="1.0" encoding="utf-8"?>
<!-- Generator: Adobe Illustrator 19.0.0, SVG Export Plug-In . SVG Version: 6.00 Build 0)  -->
<!DOCTYPE svg PUBLIC "-//W3C//DTD SVG 1.1//EN" "http://www.w3.org/Graphics/SVG/1.1/DTD/svg11.dtd">
<svg version="1.1" id="Ebene_1" xmlns="http://www.w3.org/2000/svg" xmlns:xlink="http://www.w3.org/1999/xlink" x="0px" y="0px"
	 viewBox="0 0 16 16" style="enable-background:new 0 0 16 16;" xml:space="preserve">
<g>
	<path d="M3.7,1.8L2.7,2C2.6,1.5,2,1.2,1.5,1.5C1.1,1.8,1.1,2.3,1.1,2.8c0.1,1.1,1.4,1.7,1.6,0.4l1,0.2C3.3,5.4,0.3,5.1,0,3
		c-0.1-0.9,0.2-1.9,1.1-2.3C2.2,0.3,3.4,0.7,3.7,1.8z"/>
	<path d="M5.1,1.9l-1-0.2c0.3-1,1.1-1.2,2.1-1.1c1,0.1,1.3,0.6,1.3,1.5l0,1.2c0,0.5,0,0.9,0.2,1.3h-1c0-0.1-0.1-0.2-0.1-0.3
		c0-0.1,0-0.1,0-0.1C5.9,4.9,4.4,5,4.1,3.8C3.8,2.3,5.7,2.4,6.6,2.1V1.9C6.6,1.1,5.4,1.2,5.1,1.9z M6.6,2.7C6.2,2.9,5.7,2.9,5.3,3.1
		C4.9,3.4,5.3,4,5.7,4c0.6,0,0.8-0.5,0.8-1V2.7z"/>
	<path d="M8.1,3.5l1.1-0.2c0.1,0.6,1,0.8,1.5,0.5c0.4-0.3,0-0.6-0.3-0.6C9.4,3,7.3,2.4,8.6,1c0.8-0.9,2.8-0.6,3.1,0.6l-1,0.2
		c-0.1-0.5-0.9-0.6-1.3-0.4c-0.6,0.4,1.3,0.8,1.4,0.8c0.6,0.2,1.2,0.6,1,1.4C11.4,5.3,8.5,5,8.1,3.5z"/>
	<path d="M14.9,3.4l1,0.2c-0.4,1-1.5,1.4-2.5,1.1c-1-0.4-1.3-1.6-1.1-2.5C12.6,1,13,0.6,14.1,0.6C15.8,0.6,16,2,16,3h-2.6
		C13.4,3.8,14.6,4.4,14.9,3.4z M15,2.3c0-1.2-1.6-1.2-1.6,0H15z"/>
</g>
<g>
	<g id="XMLID_11_">
		<polygon id="XMLID_12_" points="8.2,8.6 4.3,6.4 4.3,8.1 0,8.1 0,9.1 4.3,9.1 4.3,10.9 		"/>
	</g>
	<g id="XMLID_1_">
		<polygon id="XMLID_2_" points="0,13.1 3.9,15.4 3.9,13.7 8.2,13.7 8.2,12.6 3.9,12.6 3.9,10.9 		"/>
	</g>
</g>
<g id="XMLID_99_">
	<path id="XMLID_100_" d="M12.7,13.5l-2-5.7h1.3l1.4,4.2l1.4-4.2H16l-2.1,5.7H12.7z"/>
</g>
</svg>
