<?xml version="1.0" encoding="utf-8"?>
<!-- Generator: Adobe Illustrator 19.0.0, SVG Export Plug-In . SVG Version: 6.00 Build 0)  -->
<!DOCTYPE svg PUBLIC "-//W3C//DTD SVG 1.1//EN" "http://www.w3.org/Graphics/SVG/1.1/DTD/svg11.dtd">
<svg version="1.1" id="Ebene_1" xmlns="http://www.w3.org/2000/svg" xmlns:xlink="http://www.w3.org/1999/xlink" x="0px" y="0px"
	 viewBox="0 0 16 16" style="enable-background:new 0 0 16 16;" xml:space="preserve">
<g>
	<g id="XMLID_99_">
		<path id="XMLID_100_" d="M12.7,11.2l-2.1-5.7h1.2l1.4,4.2l1.4-4.2H16l-2,5.7H12.7z"/>
	</g>
</g>
<g>
	<g id="XMLID_1_">
		<path id="XMLID_2_" d="M1.5,3.9L0.1,0h0.8l1,2.9l1-2.9h0.9L2.3,3.9H1.5z"/>
	</g>
</g>
<g>
	<g id="XMLID_4_">
		<path id="XMLID_5_" d="M1.5,15.9l-1.4-3.9h0.8l1,2.9l1-2.9h0.9l-1.4,3.9H1.5z"/>
	</g>
</g>
<polygon points="10.8,8 8,6.4 8,7.6 6.9,7.6 6.9,1.4 6.9,0.9 4.1,0.9 4.1,1.9 5.9,1.9 5.9,14.1 4,14.1 4,15.1 6.9,15.1 6.9,8.4 
	8,8.4 8,9.6 "/>
</svg>
