<?xml version="1.0" encoding="utf-8"?>
<!-- Generator: Adobe Illustrator 19.1.0, SVG Export Plug-In . SVG Version: 6.00 Build 0)  -->
<!DOCTYPE svg PUBLIC "-//W3C//DTD SVG 1.1//EN" "http://www.w3.org/Graphics/SVG/1.1/DTD/svg11.dtd">
<svg version="1.1" id="Ebene_1" xmlns="http://www.w3.org/2000/svg" xmlns:xlink="http://www.w3.org/1999/xlink" x="0px" y="0px"
	 viewBox="0 0 16 16" style="enable-background:new 0 0 16 16;" xml:space="preserve">
<style type="text/css">
	.st0{fill:#F1933B;}
	.st1{fill:#FFFFFF;}
</style>
<g id="XMLID_1_">
	<polygon id="XMLID_2_" class="st0" points="6.1,12 8.7,12 15.4,12 15.4,9.3 6.1,9.3 	"/>
	<rect id="XMLID_20_" x="6.1" y="5.9" class="st1" width="2.7" height="2.7"/>
	<rect id="XMLID_31_" x="9.3" y="5.9" class="st1" width="2.7" height="2.7"/>
	<rect id="XMLID_32_" x="12.8" y="5.9" class="st1" width="2.7" height="2.7"/>
	<rect id="XMLID_33_" x="6.1" y="12.6" class="st1" width="2.7" height="2.7"/>
	<path id="XMLID_7_" d="M16.1,5.3H5.3V16h10.7V5.3z M9.3,5.9h2.7v2.7H9.3V5.9z M6.1,5.9h2.7v2.7H6.1V5.9z M8.7,15.3H5.9v-2.7h2.7
		V15.3z M6.1,12V9.3h9.4V12H8.7H6.1z M12.1,15.3H9.3v-2.7h2.7V15.3z M15.3,15.3h-2.7v-2.7h2.7V15.3z M15.3,8.6h-2.7V5.9h2.7V8.6z"/>
	<rect id="XMLID_39_" x="9.3" y="12.6" class="st1" width="2.7" height="2.7"/>
	<rect id="XMLID_40_" x="12.8" y="12.6" class="st1" width="2.7" height="2.7"/>
</g>
<g>
	<g>
		<path d="M0.1,2c1.5,0.7,3,0.7,4.5,0c0,0.2,0,0.4,0,0.7c0,0.1-0.2,0.2-0.3,0.3C4,3.2,3.6,3.3,3.2,3.4C2.4,3.5,1.6,3.5,0.8,3.3
			c-0.1,0-0.1,0-0.2-0.1C0.1,3-0.1,2.9-0.1,2.3V2H0.1z"/>
		<path d="M0.1,3.8c1.5,0.7,3,0.7,4.5,0c0,0.2,0,0.4,0,0.7c0,0.1-0.2,0.2-0.3,0.3C4,5,3.6,5.1,3.2,5.2C2.4,5.3,1.6,5.3,0.8,5.1
			c-0.1,0-0.1,0-0.2-0.1C0.1,4.8-0.1,4.7-0.1,4.1V3.8H0.1z"/>
		<ellipse cx="2.3" cy="0.8" rx="2.3" ry="0.8"/>
	</g>
</g>
</svg>
