<?xml version="1.0" encoding="UTF-8" standalone="no"?>
<!-- Generator: Adobe Illustrator 19.1.0, SVG Export Plug-In . SVG Version: 6.00 Build 0)  -->

<svg
   xmlns:dc="http://purl.org/dc/elements/1.1/"
   xmlns:cc="http://creativecommons.org/ns#"
   xmlns:rdf="http://www.w3.org/1999/02/22-rdf-syntax-ns#"
   xmlns:svg="http://www.w3.org/2000/svg"
   xmlns="http://www.w3.org/2000/svg"
   xmlns:sodipodi="http://sodipodi.sourceforge.net/DTD/sodipodi-0.dtd"
   xmlns:inkscape="http://www.inkscape.org/namespaces/inkscape"
   version="1.1"
   id="Ebene_1"
   x="0px"
   y="0px"
   viewBox="0 0 16 16"
   style="enable-background:new 0 0 16 16;"
   xml:space="preserve"
   inkscape:version="0.91 r13725"
   sodipodi:docname="db_sampling-icon.svg"
   inkscape:export-filename="C:\DEVELOPMENT\workspaces\trunk_3.1\org.knime.base\src\org\knime\base\node\io\database\sampling\db_sampling-icon.png"
   inkscape:export-xdpi="90"
   inkscape:export-ydpi="90"><metadata
     id="metadata28"><rdf:RDF><cc:Work
         rdf:about=""><dc:format>image/svg+xml</dc:format><dc:type
           rdf:resource="http://purl.org/dc/dcmitype/StillImage" /></cc:Work></rdf:RDF></metadata><defs
     id="defs26" /><sodipodi:namedview
     pagecolor="#ffffff"
     bordercolor="#666666"
     borderopacity="1"
     objecttolerance="10"
     gridtolerance="10"
     guidetolerance="10"
     inkscape:pageopacity="0"
     inkscape:pageshadow="2"
     inkscape:window-width="2498"
     inkscape:window-height="1417"
     id="namedview24"
     showgrid="true"
     inkscape:zoom="64"
     inkscape:cx="6.5367502"
     inkscape:cy="9.8018445"
     inkscape:window-x="54"
     inkscape:window-y="-8"
     inkscape:window-maximized="1"
     inkscape:current-layer="Ebene_1"><inkscape:grid
       type="xygrid"
       id="grid4145" /></sodipodi:namedview><style
     type="text/css"
     id="style3">
	.st0{fill:#F1933B;}
	.st1{fill:#FFFFFF;}
</style><g
     id="XMLID_1_"
     transform="matrix(0.92592593,0,0,1.0572687,1.0925926,-2.9162994)"><polygon
       id="XMLID_2_"
       class="st0"
       points="15.4,12 15.4,9.3 6.1,9.3 6.1,12 8.7,12 "
       style="fill:#f1933b" /><rect
       id="XMLID_20_"
       x="6.0999999"
       y="5.9000001"
       class="st1"
       width="2.7"
       height="2.7"
       style="fill:#ffffff" /><rect
       id="XMLID_33_"
       x="6.0999999"
       y="12.6"
       class="st1"
       width="2.7"
       height="2.7"
       style="fill:#ffffff" /><path
       id="XMLID_7_"
       d="m 16.15,4.65 -10.85,0 0,11.35 10.75,0 0,-11.35 z m -6.5300001,1 2.1100001,0 0,2.7833334 -2.1100001,0 z M 6.48,5.65 l 2.16,0 0,2.7833334 -2.16,0 z m 2.06,9.404167 -2.26,0 0,-2.8375 2.16,0 0,2.8375 z M 6.48044,11.270833 6.48,9.3791667 l 8.53978,0 4.4e-4,1.8916663 -6.47978,0 z m 5.34956,3.783334 -2.2100001,0 0,-2.8375 2.1100001,0 0,2.8375 z m 3.09,0 -2.06,0 0,-2.8375 2.06,0 z m 0,-6.6208336 -2.06,0 0,-2.7833334 2.06,0 z"
       inkscape:connector-curvature="0"
       sodipodi:nodetypes="cccccccccccccccccccccccccccccccccccccccccccc" /></g><path
     style="fill:#000000"
     inkscape:connector-curvature="0"
     id="path11"
     d="m 0,10.100012 c 2.8,0 3.9,-0.5 4.5,-1.1 0.5,-0.6 0.6,-2.5 0.6,-3 -1.7,0.8 -3.4,1.2 -5.1,1.2 l 0,2.9 0,0 z"
     class="st0" /><path
     style="fill:#000000"
     inkscape:connector-curvature="0"
     id="path13"
     d="m 0,14.900012 0,0 c 2.8,0 3.9,-0.5 4.5,-1.1 0.5,-0.6 0.6,-2.5 0.6,-3 -1.7,0.8 -3.4,1.2 -5.1,1.2 l 0,2.9 z"
     class="st0" /><path
     style="fill:#000000"
     inkscape:connector-curvature="0"
     id="path15"
     d="m 5.1,3.200012 c 0,-1.2 -2.3,-2.1 -5.1,-2.1 l 0,4.3 c 2.8,-0.1 5.1,-1 5.1,-2.2 z"
     class="st0" /></svg>