<?xml version="1.0" encoding="UTF-8" standalone="no"?>
<!-- Generator: Adobe Illustrator 19.1.0, SVG Export Plug-In . SVG Version: 6.00 Build 0)  -->

<svg
   xmlns:dc="http://purl.org/dc/elements/1.1/"
   xmlns:cc="http://creativecommons.org/ns#"
   xmlns:rdf="http://www.w3.org/1999/02/22-rdf-syntax-ns#"
   xmlns:svg="http://www.w3.org/2000/svg"
   xmlns="http://www.w3.org/2000/svg"
   xmlns:sodipodi="http://sodipodi.sourceforge.net/DTD/sodipodi-0.dtd"
   xmlns:inkscape="http://www.inkscape.org/namespaces/inkscape"
   version="1.1"
   id="Ebene_1"
   x="0px"
   y="0px"
   viewBox="-289 412.9 16 16"
   style="enable-background:new -289 412.9 16 16;"
   xml:space="preserve"
   inkscape:version="0.91 r13725"
   sodipodi:docname="icon.svg"
   inkscape:export-filename="C:\DEVELOPMENT\workspaces\trunk_3.1\org.knime.base\src\org\knime\base\node\io\database\sampling\icon.png"
   inkscape:export-xdpi="90"
   inkscape:export-ydpi="90"><metadata
     id="metadata18"><rdf:RDF><cc:Work
         rdf:about=""><dc:format>image/svg+xml</dc:format><dc:type
           rdf:resource="http://purl.org/dc/dcmitype/StillImage" /></cc:Work></rdf:RDF></metadata><defs
     id="defs16" /><sodipodi:namedview
     pagecolor="#ffffff"
     bordercolor="#666666"
     borderopacity="1"
     objecttolerance="10"
     gridtolerance="10"
     guidetolerance="10"
     inkscape:pageopacity="0"
     inkscape:pageshadow="2"
     inkscape:window-width="2498"
     inkscape:window-height="1417"
     id="namedview14"
     showgrid="true"
     inkscape:zoom="1"
     inkscape:cx="8"
     inkscape:cy="6.974359"
     inkscape:window-x="54"
     inkscape:window-y="-8"
     inkscape:window-maximized="1"
     inkscape:current-layer="Ebene_1"><inkscape:grid
       type="xygrid"
       id="grid4156" /></sodipodi:namedview><style
     type="text/css"
     id="style3">
	.st0{fill:#F1933B;}
	.st1{fill:#FFFFFF;}
</style><polygon
     style="fill:#f1933b"
     points="-284,422.9 -274,422.9 -274,418.9 -288,418.9 -288,422.9 "
     class="st0"
     id="XMLID_2_"
     transform="matrix(0.625,0,0,1,-102.375,0)" /><rect
     style="fill:#ffffff"
     height="4"
     width="2.5"
     class="st1"
     y="413.89999"
     x="-282.375"
     id="XMLID_20_" /><rect
     style="fill:#ffffff"
     height="4"
     width="2.5"
     class="st1"
     y="413.89999"
     x="-279.25"
     id="XMLID_31_" /><rect
     style="fill:#ffffff"
     height="4"
     width="2.5"
     class="st1"
     y="413.89999"
     x="-276.125"
     id="XMLID_32_" /><rect
     style="fill:#ffffff"
     height="4"
     width="2"
     class="st1"
     y="423.89999"
     x="-282"
     id="XMLID_33_" /><path
     sodipodi:nodetypes="ccccccccccccccccccccccccccccccc"
     inkscape:connector-curvature="0"
     d="m -273,413.89999 -10,0 0,14 10,0 z m -6,1 2,0 0,3.00001 -2,0 z m -3,0 2,0 0,3.00001 -2,0 z m 2,12 -2,0 0,-2.99999 2,0 z m -2,-3.99999 0,-4 8,0 0,4 -6,0 z m 8,-5 -2,0 0,-3.00001 2,0 z"
     id="XMLID_7_" /><rect
     style="fill:#ffffff"
     height="3"
     width="2"
     class="st1"
     y="423.89999"
     x="-279"
     id="XMLID_39_" /><rect
     style="fill:#ffffff"
     height="3"
     width="2"
     class="st1"
     y="423.89999"
     x="-276"
     id="XMLID_40_" /><path
     style="fill:#ffd104"
     inkscape:connector-curvature="0"
     id="path11"
     d="m -289,423.00001 c 2.8,0 3.9,-0.5 4.5,-1.1 0.5,-0.6 0.6,-2.5 0.6,-3 -1.7,0.8 -3.4,1.2 -5.1,1.2 l 0,2.9 0,0 z"
     class="st0" /><path
     style="fill:#ffd104"
     inkscape:connector-curvature="0"
     id="path13"
     d="m -289,427.80001 0,0 c 2.8,0 3.9,-0.5 4.5,-1.1 0.5,-0.6 0.6,-2.5 0.6,-3 -1.7,0.8 -3.4,1.2 -5.1,1.2 l 0,2.9 z"
     class="st0" /><path
     style="fill:#ffd104"
     inkscape:connector-curvature="0"
     id="path15"
     d="m -283.9,416.10001 c 0,-1.2 -2.3,-2.1 -5.1,-2.1 l 0,4.3 c 2.8,-0.1 5.1,-1 5.1,-2.2 z"
     class="st0" /></svg>