<?xml version="1.0" encoding="utf-8"?>
<!-- Generator: Adobe Illustrator 19.0.0, SVG Export Plug-In . SVG Version: 6.00 Build 0)  -->
<!DOCTYPE svg PUBLIC "-//W3C//DTD SVG 1.1//EN" "http://www.w3.org/Graphics/SVG/1.1/DTD/svg11.dtd">
<svg version="1.1" id="Ebene_1" xmlns="http://www.w3.org/2000/svg" xmlns:xlink="http://www.w3.org/1999/xlink" x="0px" y="0px"
	 viewBox="0 0 16 16" style="enable-background:new 0 0 16 16;" xml:space="preserve">
<style type="text/css">
	.st0{fill:#FFFFFF;}
	.st1{fill:#CBCBCB;}
</style>
<g>
	<g>
		<g>
			<path id="XMLID_57_" class="st0" d="M4,1.6c-1.9,0-3.5,1.6-3.5,3.5S2.1,8.6,4,8.6S7.5,7,7.5,5.1S5.9,1.6,4,1.6z"/>
			<path d="M4,1.1c-2.2,0-4,1.8-4,4s1.8,4,4,4s4-1.8,4-4S6.2,1.1,4,1.1z M4,8.6C2.1,8.6,0.5,7,0.5,5.1S2.1,1.6,4,1.6
				s3.5,1.6,3.5,3.5C7.5,7,5.9,8.6,4,8.6z"/>
		</g>
		<g>
			<path id="XMLID_36_" class="st0" d="M12,0.7c-1.9,0-3.5,1.6-3.5,3.5s1.6,3.5,3.5,3.5s3.5-1.6,3.5-3.5S13.9,0.7,12,0.7z"/>
			<path d="M12,0.1c-2.2,0-4,1.8-4,4s1.8,4,4,4s4-1.8,4-4S14.2,0.1,12,0.1z M12,7.7c-1.9,0-3.5-1.6-3.5-3.5s1.6-3.5,3.5-3.5
				s3.5,1.6,3.5,3.5S13.9,7.7,12,7.7z"/>
		</g>
		<g>
			<path id="XMLID_33_" class="st0" d="M11.8,11.8c0-1.9-1.6-3.5-3.5-3.5s-3.5,1.6-3.5,3.5s1.6,3.5,3.5,3.5S11.8,13.8,11.8,11.8z"/>
			<path d="M8.4,7.8c-2.2,0-4,1.8-4,4s1.8,4,4,4s4-1.8,4-4S10.6,7.8,8.4,7.8z M4.8,11.8c0-1.9,1.6-3.5,3.5-3.5s3.5,1.6,3.5,3.5
				s-1.6,3.5-3.5,3.5S4.8,13.8,4.8,11.8z"/>
		</g>
	</g>
	<path id="XMLID_30_" class="st1" d="M2.6,4.5c0-0.7-0.5-1.2-1.2-1.2C1.3,3.3,1,3.4,1,3.4C0.7,3.8,0.5,4.5,0.5,5.1
		c0,0.1,0,0.1,0,0.2C0.7,5.5,1,5.7,1.4,5.7C2.1,5.7,2.6,5.1,2.6,4.5z"/>
	<circle id="XMLID_29_" class="st1" cx="4" cy="4.9" r="1.2"/>
	<path id="XMLID_28_" class="st1" d="M3.3,7c0-0.7-0.5-1.2-1.2-1.2c-0.6,0-1,0.4-1.2,0.9c0.3,0.6,0.8,1.2,1.5,1.5
		C2.9,8,3.3,7.5,3.3,7z"/>
	<circle id="XMLID_27_" class="st1" cx="12.7" cy="4.4" r="1.2"/>
	<path id="XMLID_26_" class="st1" d="M9.8,3.7c0.7,0,1.2-0.5,1.2-1.2c0-0.6-0.5-1-1-1.2C9.3,1.8,8.8,2.5,8.6,3.2
		C8.8,3.6,9.3,3.7,9.8,3.7z"/>
	<path id="XMLID_25_" class="st1" d="M12.7,5.9c-0.7,0-1.2,0.5-1.2,1.2c0,0.2,0.1,0.4,0.2,0.6c0.1,0,0.3,0,0.4,0
		c0.7,0,1.2-0.2,1.8-0.6l0,0C13.9,6.5,13.4,5.9,12.7,5.9z"/>
	<circle id="XMLID_24_" class="st1" cx="8.8" cy="9.8" r="1.2"/>
	<circle id="XMLID_23_" class="st1" cx="9" cy="13.7" r="1.2"/>
	<circle id="XMLID_20_" class="st1" cx="6.6" cy="12.8" r="1.2"/>
</g>
</svg>
