<?xml version="1.0" encoding="utf-8"?>
<!-- Generator: Adobe Illustrator 19.1.0, SVG Export Plug-In . SVG Version: 6.00 Build 0)  -->
<!DOCTYPE svg PUBLIC "-//W3C//DTD SVG 1.1//EN" "http://www.w3.org/Graphics/SVG/1.1/DTD/svg11.dtd">
<svg version="1.1" id="Ebene_1" xmlns="http://www.w3.org/2000/svg" xmlns:xlink="http://www.w3.org/1999/xlink" x="0px" y="0px"
	 viewBox="-412 290.3 16 16" style="enable-background:new -412 290.3 16 16;" xml:space="preserve">
<style type="text/css">
	.st0{fill:#FFFFFF;}
	.st1{fill:#4BA1BF;}
</style>
<g id="XMLID_3_">
	<polygon id="XMLID_5_" class="st0" points="-404.7,291.3 -411,291.3 -411,305.3 -402.1,305.3 -402.1,294 -404.7,294 	"/>
	<path id="XMLID_10_" d="M-404.2,290.3h-7.8v16h10.9v-12.8L-404.2,290.3z M-402.1,305.3h-8.9v-14h6.3v2.7h2.6V305.3z"/>
</g>
<g id="XMLID_4_">
	<polygon id="XMLID_15_" class="st1" points="-400,299.3 -403.9,297 -403.9,298.7 -409.6,298.7 -409.6,299.8 -403.9,299.8 
		-403.9,301.5 	"/>
</g>
<path d="M-397.8,296.9v-1.1h-2.3v-1l2.5-3.6h0.9v3.6h0.7v1h-0.7v1.2h-1.1V296.9z M-397.8,294.8v-2l-1.3,2H-397.8z"/>
<path d="M-396,304.4v1h-3.8c0-0.4,0.2-0.8,0.4-1.1c0.2-0.3,0.6-0.8,1.2-1.4c0.5-0.5,0.8-0.8,0.9-0.9c0.2-0.2,0.2-0.5,0.2-0.7
	s-0.1-0.4-0.2-0.6c-0.1-0.2-0.3-0.2-0.5-0.2c-0.2,0-0.4,0.1-0.5,0.2c-0.1,0.1-0.2,0.4-0.2,0.7l-1.2-0.1c0.1-0.6,0.3-1,0.6-1.3
	c0.3-0.3,0.8-0.4,1.3-0.4c0.6,0,1,0.2,1.3,0.5c0.3,0.3,0.5,0.7,0.5,1.1c0,0.3,0,0.5-0.1,0.7c-0.1,0.2-0.2,0.5-0.4,0.7
	c-0.1,0.2-0.4,0.4-0.7,0.7c-0.3,0.3-0.6,0.5-0.7,0.6s-0.2,0.2-0.2,0.3h2.1V304.4z"/>
</svg>
