<?xml version="1.0" encoding="utf-8"?>
<!-- Generator: Adobe Illustrator 19.0.0, SVG Export Plug-In . SVG Version: 6.00 Build 0)  -->
<!DOCTYPE svg PUBLIC "-//W3C//DTD SVG 1.0//EN" "http://www.w3.org/TR/2001/REC-SVG-20010904/DTD/svg10.dtd">
<svg version="1.0" id="Ebene_1" xmlns="http://www.w3.org/2000/svg" xmlns:xlink="http://www.w3.org/1999/xlink" x="0px" y="0px"
	 viewBox="0 0 16 16" enable-background="new 0 0 16 16" xml:space="preserve">
<g id="XMLID_4_">
	<polygon id="XMLID_8_" fill="#FFFFFF" points="9.9,1 3.6,1 3.6,15 12.4,15 12.4,3.7 9.9,3.7 	"/>
	<path id="XMLID_5_" d="M10.4,0H2.6v16h10.9V3.2L10.4,0z M12.4,15H3.6V1h6.3v2.7h2.6V15H12.4z"/>
</g>
<path d="M7.6,12.3c-0.2,0-0.4-0.1-0.5-0.2L4.9,9.9c-0.3-0.3-0.3-0.7,0-1s0.7-0.3,1,0l1.5,1.5l2.5-4c0.2-0.3,0.7-0.4,1-0.2
	c0.3,0.2,0.4,0.7,0.2,1l-3,4.7C7.9,12.1,7.9,12.3,7.6,12.3C7.7,12.3,7.6,12.3,7.6,12.3z"/>
</svg>
