<?xml version="1.0" encoding="utf-8"?>
<!-- Generator: Adobe Illustrator 19.0.0, SVG Export Plug-In . SVG Version: 6.00 Build 0)  -->
<!DOCTYPE svg PUBLIC "-//W3C//DTD SVG 1.0//EN" "http://www.w3.org/TR/2001/REC-SVG-20010904/DTD/svg10.dtd">
<svg version="1.0" id="Ebene_1" xmlns="http://www.w3.org/2000/svg" xmlns:xlink="http://www.w3.org/1999/xlink" x="0px" y="0px"
	 viewBox="0 0 16 16" enable-background="new 0 0 16 16" xml:space="preserve">
<path d="M1.4,0.8H4c1.3,0,2.1,0.5,2.4,0.8s0.5,0.7,0.7,1.1s0.2,1,0.2,1.7c0,0.6-0.1,1.1-0.2,1.5C6.9,6.4,6.6,6.8,6.3,7.1
	c-0.2,0.2-1,0.7-2.2,0.7H1.4V0.8z M2.8,2v4.6h1.1c0.9,0,1.2-0.1,1.4-0.3c0.2-0.1,0.3-0.4,0.4-0.7s0.1-0.7,0.1-1.3s0-1-0.1-1.2
	S5.5,2.5,5.3,2.4C5,2.1,4.5,2,3.5,2H2.8z"/>
<path d="M12.5,14.6v-7h1.4v7H12.5z"/>
<polygon id="XMLID_19_" points="7.5,13.2 3.1,13.2 3.1,13.1 3.1,13.1 3.1,9 3.8,9 3.8,12.4 7.5,12.4 7.5,11.1 10.3,12.8 7.5,14.4 
	"/>
</svg>
