<?xml version="1.0" encoding="UTF-8" standalone="no"?>
<!-- Generator: Adobe Illustrator 19.0.0, SVG Export Plug-In . SVG Version: 6.00 Build 0)  -->

<svg
   xmlns:dc="http://purl.org/dc/elements/1.1/"
   xmlns:cc="http://creativecommons.org/ns#"
   xmlns:rdf="http://www.w3.org/1999/02/22-rdf-syntax-ns#"
   xmlns:svg="http://www.w3.org/2000/svg"
   xmlns="http://www.w3.org/2000/svg"
   xmlns:sodipodi="http://sodipodi.sourceforge.net/DTD/sodipodi-0.dtd"
   xmlns:inkscape="http://www.inkscape.org/namespaces/inkscape"
   version="1.1"
   id="Ebene_1"
   x="0px"
   y="0px"
   viewBox="0 0 16 16"
   style="enable-background:new 0 0 16 16;"
   xml:space="preserve"
   inkscape:version="0.91 r13725"
   sodipodi:docname="create_date_time-icon.svg"
   inkscape:export-filename="/home/simon/git/knime-core/org.knime.time/src/org/knime/time/node/create/createdatetime/create_date_time@2x.png"
   inkscape:export-xdpi="180.06761"
   inkscape:export-ydpi="180.06761"><metadata
     id="metadata16"><rdf:RDF><cc:Work
         rdf:about=""><dc:format>image/svg+xml</dc:format><dc:type
           rdf:resource="http://purl.org/dc/dcmitype/StillImage" /><dc:title></dc:title></cc:Work></rdf:RDF></metadata><defs
     id="defs14" /><sodipodi:namedview
     pagecolor="#ffffff"
     bordercolor="#666666"
     borderopacity="1"
     objecttolerance="10"
     gridtolerance="10"
     guidetolerance="10"
     inkscape:pageopacity="0"
     inkscape:pageshadow="2"
     inkscape:window-width="2560"
     inkscape:window-height="1343"
     id="namedview12"
     showgrid="false"
     inkscape:zoom="45.254834"
     inkscape:cx="6.3593023"
     inkscape:cy="8.8144859"
     inkscape:window-x="0"
     inkscape:window-y="27"
     inkscape:window-maximized="1"
     inkscape:current-layer="Ebene_1" /><style
     type="text/css"
     id="style3">
	.st0{fill:#FFFFFF;}
</style><g
     id="XMLID_11_"
     transform="matrix(1.2370833,0,0,1,-3.7933332,0)"><polygon
       id="XMLID_12_"
       points="12.1,11.5 12.1,13.2 6.4,13.2 6.4,14.2 12.1,14.2 12.1,16 16,13.7 " /></g><g
     transform="matrix(0.86479774,0,0,0.86479774,-1.5411015,-1.3168448)"
     id="g5"><g
       id="g7"
       transform="translate(-0.00741674,0.02966695)"><ellipse
         class="st0"
         cx="8"
         cy="8"
         rx="5.6999998"
         ry="6"
         id="ellipse9"
         style="fill:#ffffff" /><path
         inkscape:connector-curvature="0"
         d="M 8,14.5 C 4.6,14.5 1.8,11.6 1.8,8 1.8,4.4 4.6,1.5 8,1.5 c 3.4,0 6.2,2.9 6.2,6.5 0,3.6 -2.8,6.5 -6.2,6.5 z M 8,2.5 C 5.1,2.5 2.8,5 2.8,8 2.8,11 5.1,13.5 8,13.5 10.9,13.5 13.2,11 13.2,8 13.2,5 10.9,2.5 8,2.5 Z"
         id="path11" /></g><path
       inkscape:connector-curvature="0"
       d="M 8,8.5 C 7.7,8.5 7.5,8.3 7.5,8 l 0,-4.5 C 7.5,3.2 7.7,3 8,3 8.3,3 8.5,3.2 8.5,3.5 L 8.5,8 C 8.5,8.3 8.3,8.5 8,8.5 Z"
       id="path13" /><path
       inkscape:connector-curvature="0"
       d="m 8,8.5 -2.8,0 C 4.9,8.5 4.7,8.3 4.7,8 4.7,7.7 4.9,7.5 5.2,7.5 L 8,7.5 C 8.3,7.5 8.5,7.7 8.5,8 8.5,8.3 8.3,8.5 8,8.5 Z"
       id="path15" /></g></svg>