<?xml version="1.0" encoding="utf-8"?>
<!-- Generator: Adobe Illustrator 19.0.0, SVG Export Plug-In . SVG Version: 6.00 Build 0)  -->
<!DOCTYPE svg PUBLIC "-//W3C//DTD SVG 1.1//EN" "http://www.w3.org/Graphics/SVG/1.1/DTD/svg11.dtd">
<svg version="1.1" id="Ebene_1" xmlns="http://www.w3.org/2000/svg" xmlns:xlink="http://www.w3.org/1999/xlink" x="0px" y="0px"
	 viewBox="0 0 16 16" style="enable-background:new 0 0 16 16;" xml:space="preserve">
<g>
	<path d="M1.3,0.3h1V3c0,0.7,0,1.4,0.9,1.5c1,0.1,1.1-0.7,1.1-1.4V0.3h1v2.6c0,1.3-0.2,2.4-1.8,2.5C1.8,5.5,1.3,4.5,1.3,3V0.3z"/>
	<path d="M6.2,5.3v-5h2.1c0.8,0,1.6,0.1,1.9,1C10.5,2.2,9.9,3,9,3.1c0.5,0.3,0.8,0.7,1.1,1.2l0.6,1H9.5L8.8,4.2
		c-0.4-0.6-0.6-1-1.3-1H7.3v2.1H6.2z M7.3,2.4H8c0.5,0,1.3,0.1,1.3-0.6c0-0.7-0.8-0.6-1.3-0.6H7.3V2.4z"/>
	<path d="M11.2,5.3v-5h1v4.1h2.5v0.8H11.2z"/>
	<path d="M1.3,11h0.9v0.5c0.9-1.4,2.6-0.2,2.6,1.1c0.1,1.4-1.3,2.9-2.6,1.6V16h-1V11z M2.2,12.7c0,1.3,1.5,1.6,1.6,0.2
		C3.9,11.5,2.2,11.2,2.2,12.7z"/>
	<path d="M6.2,12.1l-0.9-0.2c0.2-0.9,1-1.1,1.9-1C8,11,8.4,11.4,8.4,12.3l0,1.1c0,0.4,0,0.8,0.2,1.2h-1c0-0.1-0.1-0.2-0.1-0.3
		c0-0.1,0-0.1,0-0.1c-0.7,0.7-2.3,0.7-2.3-0.6c0-1.2,1.5-1,2.3-1.4v-0.1C7.5,11.4,6.4,11.5,6.2,12.1z M7.5,12.9
		C7.1,13,6.7,13,6.3,13.2C5.9,13.5,6.3,14,6.7,14c0.6,0,0.8-0.5,0.8-1V12.9z"/>
	<path d="M10.9,11v0.8h-0.7v1.5c0,0.5,0,0.8,0.7,0.6l0.1,0.7c-1.1,0.5-1.7-0.2-1.7-1.2v-1.6H8.8V11h0.4v-0.7l1-0.6V11H10.9z"/>
	<path d="M12.4,9.6v1.8c0.4-0.5,1.1-0.7,1.7-0.4c0.6,0.3,0.6,0.9,0.6,1.5v2.1h-1v-1.9c0-1.5-1.4-1.2-1.4,0.1v1.8h-1v-5H12.4z"/>
</g>
<g id="XMLID_7_">
	<polygon id="XMLID_9_" points="16,8 13.2,6.4 13.2,7.6 0,7.6 0,8.4 13.2,8.4 13.2,9.6 	"/>
</g>
</svg>
