<?xml version="1.0" encoding="utf-8"?>
<!-- Generator: Adobe Illustrator 19.1.0, SVG Export Plug-In . SVG Version: 6.00 Build 0)  -->
<!DOCTYPE svg PUBLIC "-//W3C//DTD SVG 1.1//EN" "http://www.w3.org/Graphics/SVG/1.1/DTD/svg11.dtd">
<svg version="1.1" id="Ebene_1" xmlns="http://www.w3.org/2000/svg" xmlns:xlink="http://www.w3.org/1999/xlink" x="0px" y="0px"
	 viewBox="-412 290.3 16 16" style="enable-background:new -412 290.3 16 16;" xml:space="preserve">
<style type="text/css">
	.st0{fill:#FFFFFF;}
</style>
<g id="XMLID_6_">
	<rect id="XMLID_19_" x="-411" y="291.3" class="st0" width="4.1" height="14"/>
	<polygon id="XMLID_20_" points="-406.9,300.2 -406.9,305.3 -411,305.3 -411,291.3 -406.9,291.3 -406.9,294.4 -405.9,294.4 
		-405.9,290.3 -412,290.3 -412,306.3 -405.9,306.3 -405.9,300.2 	"/>
	<rect id="XMLID_21_" x="-401.1" y="291.3" class="st0" width="4" height="14"/>
	<polygon id="XMLID_22_" points="-402.1,290.3 -402.1,293.5 -402.1,293.5 -402.1,294.4 -401.1,294.4 -401.1,291.3 -397,291.3 
		-397,305.3 -401.1,305.3 -401.1,300.2 -402.1,300.2 -402.1,303.1 -402.1,303.1 -402.1,306.3 -396,306.3 -396,290.3 	"/>
	<g id="XMLID_1_">
		<path id="XMLID_3_" d="M-403.5,301.2h-1.4c0-0.2,0-0.3,0-0.4c0-0.5,0.1-0.9,0.2-1.2c0.1-0.3,0.5-0.7,1-1.1
			c0.4-0.3,0.7-0.6,0.8-0.7c0.1-0.2,0.2-0.4,0.2-0.6c0-0.3-0.1-0.6-0.4-0.8c-0.3-0.2-0.6-0.3-1-0.3s-0.8,0.1-1,0.4
			c-0.2,0.3-0.5,0.5-0.6,1l-1.5-0.2c0-0.7,0.3-1.3,0.9-1.8c0.6-0.5,1.3-0.7,2.2-0.7s1.7,0.2,2.3,0.7c0.6,0.5,0.8,1.1,0.8,1.7
			c0,0.4-0.1,0.7-0.3,1c-0.3,0.4-0.7,0.8-1.4,1.4c-0.3,0.3-0.6,0.5-0.6,0.7C-403.4,300.5-403.5,300.8-403.5,301.2z M-404.9,303.4
			v-1.6h1.6v1.6H-404.9z"/>
	</g>
</g>
</svg>
