<?xml version="1.0" encoding="utf-8"?>
<!-- Generator: Adobe Illustrator 19.0.0, SVG Export Plug-In . SVG Version: 6.00 Build 0)  -->
<!DOCTYPE svg PUBLIC "-//W3C//DTD SVG 1.0//EN" "http://www.w3.org/TR/2001/REC-SVG-20010904/DTD/svg10.dtd">
<svg version="1.0" id="Ebene_1" xmlns="http://www.w3.org/2000/svg" xmlns:xlink="http://www.w3.org/1999/xlink" x="0px" y="0px"
	 viewBox="0 0 16 16" enable-background="new 0 0 16 16" xml:space="preserve">
<g>
	<polygon points="16,11.5 13.9,11.5 13.9,9.4 12.5,9.4 12.5,11.5 10.4,11.5 10.4,12.9 12.5,12.9 12.5,15 13.9,15 13.9,12.9 16,12.9 
			"/>
	<g>
		<rect x="11" y="3.1" fill="#FFFFFF" width="4" height="4"/>
		<path d="M16,2.1H0l0,6h11h5V2.1z M6,7.1v-4h4v4H6z M1,7.1v-4h4v4H1z M11,7.1v-4h4v4H11z"/>
		<rect x="6" y="3.1" fill="#FFFFFF" width="4" height="4"/>
		<rect x="1" y="3.1" fill="#FFFFFF" width="4" height="4"/>
	</g>
</g>
</svg>
