<?xml version="1.0" encoding="utf-8"?>
<!-- Generator: Adobe Illustrator 19.0.0, SVG Export Plug-In . SVG Version: 6.00 Build 0)  -->
<!DOCTYPE svg PUBLIC "-//W3C//DTD SVG 1.0//EN" "http://www.w3.org/TR/2001/REC-SVG-20010904/DTD/svg10.dtd">
<svg version="1.0" id="Ebene_1" xmlns="http://www.w3.org/2000/svg" xmlns:xlink="http://www.w3.org/1999/xlink" x="0px" y="0px"
	 viewBox="0 0 16 16" enable-background="new 0 0 16 16" xml:space="preserve">
<g id="XMLID_1_">
	<polygon id="XMLID_2_" fill="#FFFFFF" points="1,4.5 3.8,4.5 3.8,7.3 1,7.3 1,8.3 3.8,8.3 3.8,11.1 1,11.1 1,12.2 3.8,12.2 3.8,15 
		4.9,15 4.9,1 1,1 	"/>
	<polygon id="XMLID_7_" fill="#FFFFFF" points="5.9,12.2 8.7,12.2 8.7,15 10.1,15 10.1,1 5.9,1 	"/>
	<polygon id="XMLID_8_" fill="#FFFFFF" points="11.1,15 12.2,15 12.2,12.2 15,12.2 15,11.1 12.2,11.1 12.2,8.3 15,8.3 15,1 11.1,1 	
		"/>
	<path id="XMLID_15_" d="M11,0h-1H5.9h-1H0v16h4.9h1h4.2h1H16V0H11z M4.9,15H3.8v-2.8H1v-1h2.8V8.3H1v-1h2.8V4.5H1V1h3.9V15z
		 M10.1,15H8.7v-2.8H5.9V1h4.1V15z M15,8.3h-2.8v2.8H15v1h-2.8V15h-1.1V1H15V8.3z"/>
</g>
</svg>
