<?xml version="1.0" encoding="utf-8"?>
<!-- Generator: Adobe Illustrator 19.0.0, SVG Export Plug-In . SVG Version: 6.00 Build 0)  -->
<!DOCTYPE svg PUBLIC "-//W3C//DTD SVG 1.1//EN" "http://www.w3.org/Graphics/SVG/1.1/DTD/svg11.dtd">
<svg version="1.1" id="Ebene_1" xmlns="http://www.w3.org/2000/svg" xmlns:xlink="http://www.w3.org/1999/xlink" x="0px" y="0px"
	 viewBox="0 0 16 16" style="enable-background:new 0 0 16 16;" xml:space="preserve">
<style type="text/css">
	.st0{fill:#CBCBCB;}
	.st1{fill:#FFFFFF;}
</style>
<g>
	<rect y="1" class="st0" width="3" height="4"/>
	<rect y="6" class="st1" width="3" height="4"/>
	<rect y="11" class="st1" width="3" height="4"/>
	<rect x="4" y="1" class="st0" width="4" height="4"/>
	<path d="M4,0H3H0v1h3v4H0v1h3v4H0v1h3v4H0v1h3h1h5V5V0H4z M8,15H4v-4h4V15z M8,10H4V6h4V10z M8,5H4V1h4V5z"/>
	<rect x="4" y="6" class="st1" width="4" height="4"/>
	<rect x="4" y="11" class="st1" width="4" height="4"/>
</g>
<path id="XMLID_42_" d="M11.2,9.3h2.1c0.5,0,2.7,0.1,2.7,2.9S13.8,15,13.4,15h-2.2V9.3z M12.4,10.2V14h0.9c0.3,0,1.6,0,1.6-1.9
	s-1-1.9-1.5-1.9H12.4z"/>
<g id="XMLID_11_">
	<polygon id="XMLID_12_" points="16,3.4 12.1,1.1 12.1,2.9 6.4,2.9 6.4,3.9 12.1,3.9 12.1,5.7 	"/>
</g>
</svg>
