<?xml version="1.0" encoding="utf-8"?>
<!-- Generator: Adobe Illustrator 19.1.0, SVG Export Plug-In . SVG Version: 6.00 Build 0)  -->
<!DOCTYPE svg PUBLIC "-//W3C//DTD SVG 1.1//EN" "http://www.w3.org/Graphics/SVG/1.1/DTD/svg11.dtd">
<svg version="1.1" id="Ebene_1" xmlns="http://www.w3.org/2000/svg" xmlns:xlink="http://www.w3.org/1999/xlink" x="0px" y="0px"
	 viewBox="-289 412.9 16 16" style="enable-background:new -289 412.9 16 16;" xml:space="preserve">
<style type="text/css">
	.st0{fill:#F1933B;}
	.st1{fill:#FFFFFF;}
</style>
<g>
	<rect x="-289" y="413.9" class="st0" width="3" height="4"/>
	<rect x="-289" y="418.9" class="st1" width="3" height="4"/>
	<rect x="-289" y="423.9" class="st1" width="3" height="4"/>
	<rect x="-285" y="413.9" class="st0" width="4" height="4"/>
	<path d="M-285,412.9h-1h-3v1h3v4h-3v1h3v4h-3v1h3v4h-3v1h3h1h5v-11v-5H-285z M-281,427.9h-4v-4h4V427.9z M-281,422.9h-4v-4h4V422.9
		z M-281,417.9h-4v-4h4V417.9z"/>
	<rect x="-285" y="418.9" class="st1" width="4" height="4"/>
	<rect x="-285" y="423.9" class="st1" width="4" height="4"/>
</g>
<path id="XMLID_42_" d="M-277.8,422.2h2.1c0.5,0,2.7,0.1,2.7,2.9c0,2.8-2.2,2.8-2.6,2.8h-2.2V422.2z M-276.6,423.1v3.8h0.9
	c0.3,0,1.6,0,1.6-1.9c0-1.9-1-1.9-1.5-1.9C-275.6,423.1-276.6,423.1-276.6,423.1z"/>
<g id="XMLID_11_">
	<polygon id="XMLID_12_" points="-273,416.3 -276.9,414 -276.9,415.8 -282.6,415.8 -282.6,416.8 -276.9,416.8 -276.9,418.6 	"/>
</g>
</svg>
