<?xml version="1.0" encoding="utf-8"?>
<!-- Generator: Adobe Illustrator 19.1.0, SVG Export Plug-In . SVG Version: 6.00 Build 0)  -->
<!DOCTYPE svg PUBLIC "-//W3C//DTD SVG 1.1//EN" "http://www.w3.org/Graphics/SVG/1.1/DTD/svg11.dtd">
<svg version="1.1" id="Ebene_1" xmlns="http://www.w3.org/2000/svg" xmlns:xlink="http://www.w3.org/1999/xlink" x="0px" y="0px"
	 viewBox="-412 290.3 16 16" style="enable-background:new -412 290.3 16 16;" xml:space="preserve">
<style type="text/css">
	.st0{fill:#E64E4F;}
	.st1{fill:#FFD104;}
</style>
<g>
	<g id="XMLID_99_">
		<path id="XMLID_100_" d="M-400.3,297.9l-2-5.7h1.2l1.4,4.2l1.4-4.2h1.3l-2,5.7H-400.3z"/>
	</g>
	<g id="XMLID_2_">
		<polygon id="XMLID_12_" class="st0" points="-405.6,302.1 -401.8,299.8 -401.8,301.6 -396,301.6 -396,302.6 -401.8,302.6 
			-401.8,304.3 		"/>
	</g>
	<g>
		<path class="st1" d="M-412,300.4c3.2,0,4.5-0.5,5.1-1.1s0.7-2.5,0.7-3c-1.9,0.8-3.9,1.2-5.8,1.2V300.4L-412,300.4z"/>
		<path class="st1" d="M-412,302.3v2.9l0,0c3.2,0,4.5-0.5,5.1-1.1c0.6-0.6,0.7-2.5,0.7-3C-408.1,301.9-410.1,302.3-412,302.3z"/>
		<path class="st1" d="M-412,295.6c3.2,0,5.8-1,5.8-2.1c0-1.2-2.6-2.1-5.8-2.1l0,0V295.6L-412,295.6z"/>
	</g>
</g>
</svg>
