<?xml version="1.0" encoding="utf-8"?>
<!-- Generator: Adobe Illustrator 19.0.0, SVG Export Plug-In . SVG Version: 6.00 Build 0)  -->
<!DOCTYPE svg PUBLIC "-//W3C//DTD SVG 1.1//EN" "http://www.w3.org/Graphics/SVG/1.1/DTD/svg11.dtd">
<svg version="1.1" id="Ebene_1" xmlns="http://www.w3.org/2000/svg" xmlns:xlink="http://www.w3.org/1999/xlink" x="0px" y="0px"
	 viewBox="0 0 16 16" style="enable-background:new 0 0 16 16;" xml:space="preserve">
<g>
	<g id="XMLID_99_">
		<path id="XMLID_100_" d="M11.7,7.6L9.7,1.9h1.2l1.4,4.2l1.4-4.2H15l-2,5.7H11.7z"/>
	</g>
	<g id="XMLID_2_">
		<polygon id="XMLID_12_" points="6.4,11.8 10.2,9.5 10.2,11.3 16,11.3 16,12.3 10.2,12.3 10.2,14 		"/>
	</g>
	<g>
		<path d="M0,10.1c3.2,0,4.5-0.5,5.1-1.1c0.6-0.6,0.7-2.5,0.7-3C3.9,6.8,1.9,7.2,0,7.2L0,10.1C0,10.1,0,10.1,0,10.1z"/>
		<path d="M0,12v2.9c0,0,0,0,0,0c3.2,0,4.5-0.5,5.1-1.1c0.6-0.6,0.7-2.5,0.7-3C3.9,11.6,1.9,12,0,12z"/>
		<path d="M0,5.3c3.2,0,5.8-1,5.8-2.1C5.8,2,3.2,1.1,0,1.1c0,0,0,0,0,0L0,5.3C0,5.3,0,5.3,0,5.3z"/>
	</g>
</g>
</svg>
