<?xml version="1.0" encoding="utf-8"?>
<!-- Generator: Adobe Illustrator 19.1.0, SVG Export Plug-In . SVG Version: 6.00 Build 0)  -->
<!DOCTYPE svg PUBLIC "-//W3C//DTD SVG 1.1//EN" "http://www.w3.org/Graphics/SVG/1.1/DTD/svg11.dtd">
<svg version="1.1" id="Ebene_1" xmlns="http://www.w3.org/2000/svg" xmlns:xlink="http://www.w3.org/1999/xlink" x="0px" y="0px"
	 viewBox="-412 290.3 16 16" style="enable-background:new -412 290.3 16 16;" xml:space="preserve">
<style type="text/css">
	.st0{fill:#FFFFFF;}
	.st1{fill:#F1933B;}
</style>
<g id="XMLID_1_">
	<g id="XMLID_7_">
		<polygon id="XMLID_9_" points="-404,297.8 -402.4,295 -403.6,295 -403.6,291.9 -404.4,291.9 -404.4,295 -405.6,295 		"/>
	</g>
</g>
<g id="XMLID_3_">
	<polygon id="XMLID_50_" class="st0" points="-411,295.1 -408.9,295.1 -408.9,290.3 -408.4,290.3 -408.4,290.3 -411.5,290.3 
		-411.5,290.3 -411,290.3 	"/>
	<polygon id="XMLID_51_" points="-407.9,290.3 -408.4,290.3 -408.9,290.3 -408.9,295.1 -411,295.1 -411,290.3 -411.5,290.3 
		-412,290.3 -412,296.1 -407.9,296.1 	"/>
</g>
<g id="XMLID_12_">
	<polygon id="XMLID_52_" class="st0" points="-399.1,295.1 -397,295.1 -397,290.3 -396.5,290.3 -396.5,290.3 -399.6,290.3 
		-399.6,290.3 -399.1,290.3 	"/>
	<polygon id="XMLID_53_" points="-396.5,290.3 -397,290.3 -397,295.1 -399.1,295.1 -399.1,290.3 -399.6,290.3 -400.1,290.3 
		-400.1,296.1 -396,296.1 -396,290.3 	"/>
</g>
<g id="XMLID_13_">
	<rect id="XMLID_54_" x="-407.6" y="302.8" class="st0" width="3.1" height="3.5"/>
	<rect id="XMLID_55_" x="-403.5" y="302.8" class="st0" width="3.1" height="3.5"/>
	<polygon id="XMLID_56_" class="st1" points="-403.5,301.8 -400.4,301.8 -400.4,300.1 -407.6,300.1 -407.6,301.8 -404.5,301.8 	"/>
	<path id="XMLID_59_" d="M-408.6,301.8v1v3.5h1l0,0v-3.5h3.1v3.5l0,0h1l0,0v-3.5h3.1v3.5l0,0h1v-3.5v-1v-2.7h-9.2V301.8z
		 M-407.6,300.1h7.1v1.7h-3h-1h-3.1V300.1z"/>
</g>
</svg>
