<?xml version="1.0" encoding="utf-8"?>
<!-- Generator: Adobe Illustrator 19.1.0, SVG Export Plug-In . SVG Version: 6.00 Build 0)  -->
<!DOCTYPE svg PUBLIC "-//W3C//DTD SVG 1.1//EN" "http://www.w3.org/Graphics/SVG/1.1/DTD/svg11.dtd">
<svg version="1.1" id="Ebene_1" xmlns="http://www.w3.org/2000/svg" xmlns:xlink="http://www.w3.org/1999/xlink" x="0px" y="0px"
	 viewBox="-412 290.3 16 16" style="enable-background:new -412 290.3 16 16;" xml:space="preserve">
<style type="text/css">
	.st0{fill:#FFFFFF;}
	.st1{fill:#F1933B;enable-background:new    ;}
</style>
<path id="XMLID_16_" d="M-412,294.7h5.5v1.3h-0.6v-0.6h-4.3v0.6h-0.6V294.7z"/>
<path id="XMLID_14_" d="M-406.5,299.3h-5.5V298h0.6v0.6h4.2V298h0.6v1.3H-406.5z"/>
<path id="XMLID_12_" d="M-412,301.6h5.5v1.3h-0.6v-0.6h-4.3v0.6h-0.6V301.6z"/>
<path id="XMLID_10_" d="M-406.5,306.3h-5.5V305h0.6v0.6h4.2V305h0.6v1.3H-406.5z"/>
<g id="XMLID_1_">
	<rect id="XMLID_4_" x="-396" y="290.8" class="st0" width="0" height="0.5"/>
	<rect id="XMLID_6_" x="-399.1" y="291.3" class="st0" width="0" height="3.1"/>
	<rect id="XMLID_7_" x="-399.1" y="303.8" class="st0" width="3.1" height="2.5"/>
	<rect id="XMLID_9_" x="-403.5" y="299.6" class="st0" width="3.4" height="3.2"/>
	<rect id="XMLID_18_" x="-399.1" y="295.4" class="st0" width="3.1" height="3.2"/>
	<rect id="XMLID_23_" x="-403.5" y="295.4" class="st0" width="3.4" height="3.2"/>
	<rect id="XMLID_24_" x="-399.1" y="299.6" class="st0" width="3.1" height="3.2"/>
	<rect id="XMLID_25_" x="-403.5" y="303.8" class="st0" width="3.4" height="2.5"/>
	<path id="XMLID_28_" d="M-399.1,295.4h3.1l0,0v-1l0,0l0,0h-3.1l0,0l0,0v-3.1l0,0l0,0h3.1v-0.5v-0.5h-3.1h-1h-4.4v16h1l0,0v-2.5h3.4
		v2.5l0,0h1l0,0v-2.5h3.1l0,0v-1l0,0h-3.1v-3.2h3.1l0,0v-1l0,0h-3.1V295.4z M-403.5,294.4v-3.1h3.4v3.1H-403.5z M-400.1,295.4v3.2
		h-3.4v-3.2H-400.1z M-403.5,302.8v-3.2h3.4v3.2H-403.5z"/>
	<rect id="XMLID_31_" x="-403.5" y="291.3" class="st1" width="3.4" height="3.1"/>
	<polygon id="XMLID_32_" class="st1" points="-399.1,291.3 -399.1,291.3 -399.1,294.4 -399.1,294.4 -396,294.4 -396,294.4 
		-396,291.3 -396,291.3 	"/>
</g>
</svg>
