<?xml version="1.0" encoding="utf-8"?>
<!-- Generator: Adobe Illustrator 19.0.0, SVG Export Plug-In . SVG Version: 6.00 Build 0)  -->
<!DOCTYPE svg PUBLIC "-//W3C//DTD SVG 1.0//EN" "http://www.w3.org/TR/2001/REC-SVG-20010904/DTD/svg10.dtd">
<svg version="1.0" id="Ebene_1" xmlns="http://www.w3.org/2000/svg" xmlns:xlink="http://www.w3.org/1999/xlink" x="0px" y="0px"
	 viewBox="0 0 16 16" enable-background="new 0 0 16 16" xml:space="preserve">
<g>
	<rect x="11" y="2.4" fill="#FFFFFF" width="4" height="4"/>
	<path d="M16,1.4H0l0,6h11h5V1.4z M6,6.4v-4h4v4H6z M1,6.4v-4h4v4H1z M11,6.4v-4h4v4H11z"/>
	<rect x="6" y="2.4" fill="#FFFFFF" width="4" height="4"/>
	<rect x="1" y="2.4" fill="#FFFFFF" width="4" height="4"/>
</g>
<g>
	<polygon id="XMLID_19_" points="12.1,12.5 15.3,12.5 15.3,12.5 15.3,12.5 15.3,9.3 14.5,9.3 14.5,11.7 12.1,11.7 12.1,10.5 
		9.3,12.1 12.1,13.7 	"/>
	<g>
		<path d="M0,13.5l0,1l8.5,0v-6L0,8.5l0,1h2.5v4H0z M3.5,9.5h4v4h-4V9.5z"/>
		<rect x="0" y="9.5" fill="#FFFFFF" width="2.5" height="4"/>
		<rect x="3.5" y="9.5" fill="#FFFFFF" width="4" height="4"/>
	</g>
</g>
</svg>
