<?xml version="1.0" encoding="utf-8"?>
<!-- Generator: Adobe Illustrator 19.1.0, SVG Export Plug-In . SVG Version: 6.00 Build 0)  -->
<!DOCTYPE svg PUBLIC "-//W3C//DTD SVG 1.1//EN" "http://www.w3.org/Graphics/SVG/1.1/DTD/svg11.dtd">
<svg version="1.1" id="Ebene_1" xmlns="http://www.w3.org/2000/svg" xmlns:xlink="http://www.w3.org/1999/xlink" x="0px" y="0px"
	 viewBox="-289 412.9 16 16" style="enable-background:new -289 412.9 16 16;" xml:space="preserve">
<style type="text/css">
	.st0{fill:#F1933B;enable-background:new    ;}
</style>
<polygon id="XMLID_190_" points="-273,425.3 -275.1,425.3 -275.1,423.3 -276.5,423.3 -276.5,425.3 -278.6,425.3 -278.6,426.8 
	-276.5,426.8 -276.5,428.9 -275.1,428.9 -275.1,426.8 -273,426.8 "/>
<g>
	<g>
		<rect x="-289" y="412.9" class="st0" width="10.4" height="10.4"/>
		<path d="M-278.6,416.7v-1h-3v-2.8h-1v2.8h-2.4v-2.8h-1v2.8h-3v1h3v2.8h-3v1h3v2.8h1v-2.8h2.4v2.9h1v-2.9h3v-1h-3v-2.8H-278.6z
			 M-282.6,416.7v2.8h-2.4v-2.8H-282.6z"/>
	</g>
</g>
</svg>
