<?xml version="1.0" encoding="utf-8"?>
<!-- Generator: Adobe Illustrator 19.1.0, SVG Export Plug-In . SVG Version: 6.00 Build 0)  -->
<!DOCTYPE svg PUBLIC "-//W3C//DTD SVG 1.1//EN" "http://www.w3.org/Graphics/SVG/1.1/DTD/svg11.dtd">
<svg version="1.1" id="Ebene_1" xmlns="http://www.w3.org/2000/svg" xmlns:xlink="http://www.w3.org/1999/xlink" x="0px" y="0px"
	 viewBox="-412 290.3 16 16" style="enable-background:new -412 290.3 16 16;" xml:space="preserve">
<style type="text/css">
	.st0{fill:#FFFFFF;}
	.st1{fill:none;}
	.st2{fill:#4EAF75;}
</style>
<g id="XMLID_6_">
	<path id="XMLID_19_" class="st0" d="M-411,305.3h7.5v-14h-7.5V305.3z M-409.3,293.7h4.5v0.5l0,0l0,0v0.5h-4.5V293.7z M-409.3,295.7
		h4.5v0.5l0,0l0,0v0.5h-4.5V295.7z M-409.3,297.8h4.5v0.5l0,0l0,0v0.5h-4.5V297.8z"/>
	<path id="XMLID_24_" d="M-412,290.3v16h9.5v-16H-412z M-403.5,305.3h-7.5v-14h7.5V305.3z"/>
	<line id="XMLID_25_" class="st1" x1="-404.8" y1="294.2" x2="-404.8" y2="294.2"/>
	<polygon id="XMLID_26_" points="-404.8,294.2 -404.8,293.7 -409.3,293.7 -409.3,294.7 -404.8,294.7 	"/>
	<line id="XMLID_27_" class="st1" x1="-404.8" y1="296.2" x2="-404.8" y2="296.2"/>
	<polygon id="XMLID_28_" points="-404.8,296.2 -404.8,295.7 -409.3,295.7 -409.3,296.7 -404.8,296.7 	"/>
	<line id="XMLID_29_" class="st1" x1="-404.8" y1="298.3" x2="-404.8" y2="298.3"/>
	<polygon id="XMLID_30_" points="-404.8,298.3 -404.8,297.8 -409.3,297.8 -409.3,298.8 -404.8,298.8 	"/>
</g>
<g id="XMLID_140_">
	<path id="XMLID_141_" d="M-401.4,296.7c0.2,0,1.1-0.1,1.1-0.1s0.2,0.5,0.3,0.7c0.2,0.3,0.6,0.4,1,0.4c0.5,0,1.3-0.3,1.1-1
		c-0.2-0.5-1.2-0.6-1.6-0.7c-0.7-0.2-1.3-0.5-1.6-1.2c-0.2-0.7,0.1-1.4,0.7-1.8c1.2-0.7,3.4-0.2,3.5,1.5c-0.2,0-1.1,0-1.1,0
		s-0.2-0.5-0.4-0.6c-0.2-0.2-0.5-0.2-0.7-0.2c-0.6,0-1.4,0.4-0.7,1c0.5,0.4,1.4,0.4,1.9,0.6c1.5,0.6,1.5,2.6,0,3.2
		C-399.4,299.1-401.2,298.4-401.4,296.7z"/>
</g>
<g id="XMLID_11_">
	<polygon id="XMLID_12_" class="st2" points="-397,302.4 -400.8,300.1 -400.8,301.8 -406.6,301.8 -406.6,302.9 -400.8,302.9 
		-400.8,304.6 	"/>
</g>
</svg>
