<?xml version="1.0" encoding="utf-8"?>
<!-- Generator: Adobe Illustrator 19.1.0, SVG Export Plug-In . SVG Version: 6.00 Build 0)  -->
<!DOCTYPE svg PUBLIC "-//W3C//DTD SVG 1.1//EN" "http://www.w3.org/Graphics/SVG/1.1/DTD/svg11.dtd">
<svg version="1.1" id="Ebene_1" xmlns="http://www.w3.org/2000/svg" xmlns:xlink="http://www.w3.org/1999/xlink" x="0px" y="0px"
	 viewBox="-289 412.9 16 16" style="enable-background:new -289 412.9 16 16;" xml:space="preserve">
<style type="text/css">
	.st0{fill:#EEF7FC;}
	.st1{fill:#8B95AA;}
	.st2{fill:#C4D13B;}
</style>
<g id="XMLID_54_">
	<polygon id="XMLID_191_" class="st0" points="-281.9,413.9 -287.2,413.9 -288,415.4 -288,417.4 -274,417.4 -274,415.8 
		-280.9,415.8 	"/>
	<path id="XMLID_56_" class="st1" d="M-280.3,414.8l-1-1.9h-6.5l-1.2,2.3v2.2v11.5h16v-11.5v-2.6H-280.3z M-274,427.9h-14v-9.5h14
		V427.9z M-274,417.4h-14v-2l0.8-1.5h5.3l1,1.9h6.9V417.4z"/>
	<rect id="XMLID_55_" x="-288" y="418.4" class="st0" width="14" height="9.6"/>
</g>
<g>
	<polygon id="XMLID_1_" class="st2" points="-274,424.5 -276.1,424.5 -276.1,422.4 -277.5,422.4 -277.5,424.5 -279.6,424.5 
		-279.6,425.9 -277.5,425.9 -277.5,428 -276.1,428 -276.1,425.9 -274,425.9 	"/>
</g>
</svg>
