<?xml version="1.0" encoding="utf-8"?>
<!-- Generator: Adobe Illustrator 19.0.0, SVG Export Plug-In . SVG Version: 6.00 Build 0)  -->
<!DOCTYPE svg PUBLIC "-//W3C//DTD SVG 1.1//EN" "http://www.w3.org/Graphics/SVG/1.1/DTD/svg11.dtd">
<svg version="1.1" id="Ebene_1" xmlns="http://www.w3.org/2000/svg" xmlns:xlink="http://www.w3.org/1999/xlink" x="0px" y="0px"
	 viewBox="0 0 16 16" style="enable-background:new 0 0 16 16;" xml:space="preserve">
<style type="text/css">
	.st0{fill:#FFFFFF;}
</style>
<g id="XMLID_54_">
	<polygon id="XMLID_191_" class="st0" points="7.1,1 1.8,1 1,2.5 1,4.5 15,4.5 15,2.9 8.1,2.9 	"/>
	<path id="XMLID_56_" d="M8.7,1.9L7.7,0H1.2L0,2.3v2.2V16h16V4.5V1.9H8.7z M15,15H1V5.5h14V15z M15,4.5H1v-2L1.8,1h5.3l1,1.9H15V4.5
		z"/>
	<rect id="XMLID_55_" x="1" y="5.5" class="st0" width="14" height="9.6"/>
</g>
<polygon id="XMLID_190_" points="15.3,11.8 13.2,11.8 13.2,9.7 11.8,9.7 11.8,11.8 9.7,11.8 9.7,13.2 11.8,13.2 11.8,15.3 
	13.2,15.3 13.2,13.2 15.3,13.2 "/>
</svg>
