<?xml version="1.0" encoding="utf-8"?>
<!-- Generator: Adobe Illustrator 19.1.0, SVG Export Plug-In . SVG Version: 6.00 Build 0)  -->
<!DOCTYPE svg PUBLIC "-//W3C//DTD SVG 1.1//EN" "http://www.w3.org/Graphics/SVG/1.1/DTD/svg11.dtd">
<svg version="1.1" id="Ebene_1" xmlns="http://www.w3.org/2000/svg" xmlns:xlink="http://www.w3.org/1999/xlink" x="0px" y="0px"
	 viewBox="-289 412.9 16 16" style="enable-background:new -289 412.9 16 16;" xml:space="preserve">
<style type="text/css">
	.st0{fill:#EEF7FC;}
	.st1{fill:#8B95AA;}
</style>
<g>
	<path class="st0" d="M-275.5,416h-11c-0.8,0-1.5,0.7-1.5,1.5v6.8c0,0.8,0.7,1.5,1.5,1.5h11c0.8,0,1.5-0.7,1.5-1.5v-6.8
		C-274,416.7-274.7,416-275.5,416z M-275.9,423.2h-5.1v-1h5.1V423.2z M-275.9,421.2h-5.1v-1h5.1V421.2z M-275.9,419.2h-5.1v-1h5.1
		V419.2z"/>
	<path class="st1" d="M-275.5,415h-11c-1.4,0-2.5,1.1-2.5,2.5v6.8c0,1.4,1.1,2.5,2.5,2.5h11c1.4,0,2.5-1.1,2.5-2.5v-6.8
		C-273,416.1-274.1,415-275.5,415z M-274,424.3c0,0.8-0.7,1.5-1.5,1.5h-11c-0.8,0-1.5-0.7-1.5-1.5v-6.8c0-0.8,0.7-1.5,1.5-1.5h11
		c0.8,0,1.5,0.7,1.5,1.5V424.3z"/>
	<rect x="-281" y="418.2" class="st1" width="5.1" height="1"/>
	<rect x="-281" y="420.2" class="st1" width="5.1" height="1"/>
	<rect x="-281" y="422.2" class="st1" width="5.1" height="1"/>
</g>
</svg>
