<?xml version="1.0" encoding="utf-8"?>
<!-- Generator: Adobe Illustrator 19.0.0, SVG Export Plug-In . SVG Version: 6.00 Build 0)  -->
<!DOCTYPE svg PUBLIC "-//W3C//DTD SVG 1.1//EN" "http://www.w3.org/Graphics/SVG/1.1/DTD/svg11.dtd">
<svg version="1.1" id="Ebene_1" xmlns="http://www.w3.org/2000/svg" xmlns:xlink="http://www.w3.org/1999/xlink" x="0px" y="0px"
	 viewBox="0 0 16 16" style="enable-background:new 0 0 16 16;" xml:space="preserve">
<path d="M10.5,9.1l5.2-5.2c0.4-0.4,0.4-1,0-1.4s-1-0.4-1.4,0L8.7,8H4.3c-0.6,0-1,0.4-1,1c0,0.6,0.4,1,1,1h4.3l5.7,5.7
	c0.2,0.2,0.5,0.3,0.7,0.3s0.5-0.1,0.7-0.3c0.4-0.4,0.4-1,0-1.4L10.5,9.1z"/>
<g>
	<path d="M0,1.3V0.2h1.2v1.1H0z M0,6.6V2h1.2v4.7H0z"/>
	<path d="M2,2h0.7V1.6c0-1.4,1.2-1.8,2.5-1.4L4.9,1.1C4.4,1,3.9,1,3.9,1.6V2h0.9v1H3.9v3.7H2.6V2.9H2V2z"/>
</g>
</svg>
