<?xml version="1.0" encoding="UTF-8" standalone="no"?>
<!-- Generator: Adobe Illustrator 19.0.0, SVG Export Plug-In . SVG Version: 6.00 Build 0)  -->

<svg
   xmlns:dc="http://purl.org/dc/elements/1.1/"
   xmlns:cc="http://creativecommons.org/ns#"
   xmlns:rdf="http://www.w3.org/1999/02/22-rdf-syntax-ns#"
   xmlns:svg="http://www.w3.org/2000/svg"
   xmlns="http://www.w3.org/2000/svg"
   xmlns:sodipodi="http://sodipodi.sourceforge.net/DTD/sodipodi-0.dtd"
   xmlns:inkscape="http://www.inkscape.org/namespaces/inkscape"
   version="1.0"
   id="Ebene_1"
   x="0px"
   y="0px"
   viewBox="0 0 16 16"
   enable-background="new 0 0 16 16"
   xml:space="preserve"
   inkscape:version="0.91 r13725"
   sodipodi:docname="string_manipulation_variable-icon.svg"
   inkscape:export-filename="C:\Users\Simon\Desktop\string_manipulation-variable-icon.png"
   inkscape:export-xdpi="90"
   inkscape:export-ydpi="90"><metadata
     id="metadata12"><rdf:RDF><cc:Work
         rdf:about=""><dc:format>image/svg+xml</dc:format><dc:type
           rdf:resource="http://purl.org/dc/dcmitype/StillImage" /></cc:Work></rdf:RDF></metadata><defs
     id="defs10" /><sodipodi:namedview
     pagecolor="#ffffff"
     bordercolor="#666666"
     borderopacity="1"
     objecttolerance="10"
     gridtolerance="10"
     guidetolerance="10"
     inkscape:pageopacity="0"
     inkscape:pageshadow="2"
     inkscape:window-width="2048"
     inkscape:window-height="1089"
     id="namedview8"
     showgrid="false"
     inkscape:zoom="29.5"
     inkscape:cx="6.804192"
     inkscape:cy="7.0102269"
     inkscape:window-x="-8"
     inkscape:window-y="-8"
     inkscape:window-maximized="1"
     inkscape:current-layer="Ebene_1" /><g
     id="XMLID_1_"
     transform="matrix(0.73728814,0,0,0.80080377,-0.03389831,-2.2638476)"><path
       id="XMLID_3_"
       d="m 0,6.4 0.8,0 0,-0.4 C 0.8,5.6 0.8,5.2 0.9,5 1,4.5 1.3,4.2 2.4,4.2 c 0.4,0 0.8,0.1 1.2,0.2 l -0.2,1 C 3.2,5.3 3,5.3 2.8,5.3 2.6,5.3 2.5,5.3 2.4,5.4 2.2,5.5 2.2,5.7 2.2,6 l 0,0.4 1,0 0,1.1 -1,0 0,4.2 -1.4,0 0,-4.2 -0.8,0 0,-1.1 z"
       inkscape:connector-curvature="0" /><path
       id="XMLID_5_"
       d="m 6.8,12.8 -1,0 C 5.3,12 4.9,11.2 4.6,10.4 4.4,9.6 4.2,8.8 4.2,8 4.2,7 4.4,6.1 4.7,5.3 5,4.5 5.4,3.8 5.8,3.2 l 1,0 C 6.3,4.2 6,5.1 5.8,5.8 5.7,6.5 5.6,7.2 5.6,8 c 0,0.5 0.1,1.1 0.2,1.7 0.1,0.6 0.2,1.1 0.4,1.6 0.1,0.4 0.3,0.9 0.6,1.5 z"
       inkscape:connector-curvature="0" /><path
       id="XMLID_7_"
       d="M 7.1,9.3 8.5,9.2 c 0.1,0.4 0.3,0.8 0.5,1 0.3,0.2 0.6,0.3 1.1,0.3 0.5,0 0.8,-0.1 1.1,-0.3 C 11.4,10 11.6,9.8 11.6,9.5 11.6,9.3 11.5,9.2 11.4,9.1 11.3,9 11.1,8.9 10.9,8.8 10.7,8.7 10.3,8.6 9.7,8.5 8.9,8.3 8.3,8 8,7.7 7.6,7.3 7.3,6.8 7.3,6.3 7.3,5.9 7.4,5.6 7.6,5.3 7.8,5 8.6,4.1 10,4.2 c 0.9,0 1.6,0.2 2.1,0.6 0.5,0.4 0.7,0.9 0.7,1.6 L 11.3,6.5 C 11.2,6.1 11.1,5.9 10.9,5.7 10.7,5.5 10.4,5.4 10,5.4 9.3,5.4 8.9,5.5 8.7,6.2 c 0,0.2 0.1,0.3 0.2,0.4 0.2,0.2 0.6,0.3 1.4,0.5 0.8,0.2 1.3,0.3 1.6,0.5 0.3,0.2 0.6,0.4 0.8,0.7 0.2,0.4 0.3,0.8 0.3,1.2 0,0.4 -0.1,0.8 -0.3,1.2 -0.2,0.4 -0.6,0.6 -1,0.8 -0.4,0.2 -1,0.3 -1.6,0.3 C 9.2,11.8 8.5,11.6 8,11.2 7.5,10.7 7.2,10.1 7.1,9.3 Z"
       inkscape:connector-curvature="0" /><path
       id="XMLID_9_"
       d="m 14.1,11.4 c 0.1,-0.3 0.2,-0.7 0.3,-1.1 C 14.5,9.9 14.6,9.5 14.6,9.1 14.6,8.7 14.7,8.3 14.7,8 14.7,7.2 14.6,6.5 14.4,5.7 14.2,5 13.9,4.1 13.5,3.1 l 1,0 c 0.5,0.7 0.9,1.5 1.2,2.3 0.2,0.8 0.3,1.7 0.3,2.5 0,0.7 -0.1,1.4 -0.3,2.2 -0.2,0.9 -0.7,1.8 -1.2,2.6 l -1,0 c 0,0 0.5,-0.9 0.6,-1.3 z"
       inkscape:connector-curvature="0" /></g><text
     xml:space="preserve"
     style="font-style:normal;font-weight:normal;font-size:10.73718452px;line-height:125%;font-family:sans-serif;letter-spacing:0px;word-spacing:0px;fill:#000000;fill-opacity:1;stroke:none;stroke-width:1px;stroke-linecap:butt;stroke-linejoin:miter;stroke-opacity:1"
     x="11.164729"
     y="13.210551"
     id="text4144"
     sodipodi:linespacing="125%"
     transform="scale(0.87772818,1.1393049)"><tspan
       sodipodi:role="line"
       id="tspan4146"
       x="11.164729"
       y="13.210551"
       style="font-style:normal;font-variant:normal;font-weight:bold;font-stretch:normal;font-family:sans-serif;-inkscape-font-specification:'sans-serif Bold'">v</tspan></text>
</svg>