<?xml version="1.0" encoding="utf-8"?>
<!-- Generator: Adobe Illustrator 19.0.0, SVG Export Plug-In . SVG Version: 6.00 Build 0)  -->
<!DOCTYPE svg PUBLIC "-//W3C//DTD SVG 1.1//EN" "http://www.w3.org/Graphics/SVG/1.1/DTD/svg11.dtd">
<svg version="1.1" id="Ebene_1" xmlns="http://www.w3.org/2000/svg" xmlns:xlink="http://www.w3.org/1999/xlink" x="0px" y="0px"
	 viewBox="0 0 16 16" style="enable-background:new 0 0 16 16;" xml:space="preserve">
<style type="text/css">
	.st0{fill:#FFFFFF;}
</style>
<g>
	<g id="XMLID_78_">
		<g id="XMLID_80_">
			<path id="XMLID_76_" class="st0" d="M6.1,0.8C3.5,0.8,1.3,3,1.3,5.6s2.2,4.8,4.8,4.8s4.8-2.2,4.8-4.8S8.8,0.8,6.1,0.8z"/>
			<path id="XMLID_81_" d="M6.1,0c-3,0-5.6,2.5-5.6,5.6c0,3,2.5,5.6,5.6,5.6c3,0,5.6-2.5,5.6-5.6S9.2,0,6.1,0z M6.1,10.4
				c-2.6,0-4.8-2.2-4.8-4.8s2.2-4.8,4.8-4.8s4.8,2.2,4.8,4.8S8.8,10.4,6.1,10.4z"/>
		</g>
		<polygon id="XMLID_73_" points="6.5,6 2.9,6 2.9,5.2 5.7,5.2 5.7,1.3 6.5,1.3 		"/>
	</g>
	<polygon id="XMLID_19_" points="5.7,14.7 2.5,14.7 2.5,14.7 2.5,14.7 2.5,11.6 3.2,11.6 3.2,14 5.7,14 5.7,12.7 8.4,14.4 5.7,16 	
		"/>
	<g id="XMLID_140_">
		<path id="XMLID_141_" d="M10.8,14c0.2,0,1.1-0.1,1.1-0.1s0.2,0.5,0.3,0.7c0.2,0.3,0.6,0.4,1,0.4c0.5,0,1.3-0.3,1.1-1
			c-0.2-0.5-1.2-0.6-1.6-0.7c-0.7-0.2-1.3-0.5-1.6-1.2c-0.2-0.7,0.1-1.4,0.7-1.8c1.3-0.8,3.5-0.3,3.5,1.4c-0.2,0-1.1,0-1.1,0
			s-0.2-0.5-0.4-0.6C13.7,11,13.4,11,13.1,11c-0.6,0-1.4,0.4-0.7,1c0.5,0.4,1.4,0.4,1.9,0.6c1.5,0.6,1.5,2.6,0,3.2
			C12.8,16.4,11.1,15.7,10.8,14z"/>
	</g>
</g>
</svg>
