<?xml version="1.0" encoding="utf-8"?>
<!-- Generator: Adobe Illustrator 19.0.0, SVG Export Plug-In . SVG Version: 6.00 Build 0)  -->
<!DOCTYPE svg PUBLIC "-//W3C//DTD SVG 1.1//EN" "http://www.w3.org/Graphics/SVG/1.1/DTD/svg11.dtd">
<svg version="1.1" id="Ebene_1" xmlns="http://www.w3.org/2000/svg" xmlns:xlink="http://www.w3.org/1999/xlink" x="0px" y="0px"
	 viewBox="0 0 16 16" style="enable-background:new 0 0 16 16;" xml:space="preserve">
<style type="text/css">
	.st0{fill:none;stroke:#FFFFFF;stroke-width:0;stroke-linecap:round;stroke-linejoin:round;}
</style>
<g id="XMLID_11_">
	<polygon id="XMLID_12_" points="16,13.7 12.1,11.5 12.1,13.2 6.4,13.2 6.4,14.2 12.1,14.2 12.1,16 	"/>
</g>
<line class="st0" x1="0.5" y1="1.1" x2="0.5" y2="1.1"/>
<line class="st0" x1="0.5" y1="3.4" x2="0.5" y2="3.4"/>
<line class="st0" x1="0.5" y1="5.9" x2="0.5" y2="5.9"/>
<g>
	<path d="M0,7.2V3c0.9,0,2.5-0.3,3,0.5C3.5,4,3.3,5,2.6,5.4C2.1,5.7,1.4,5.6,0.8,5.6v1.6H0z M0.8,3.7v1.2c0.5,0,1.5,0.1,1.5-0.6
		C2.4,3.5,1.3,3.7,0.8,3.7z"/>
	<path d="M3.7,7.2V3H5l0.8,2.9L6.6,3h1.3v4.3H7.1V3.9L6.2,7.2H5.4L4.5,3.9v3.4H3.7z"/>
	<path d="M8.6,7.2V3h1.3l0.8,2.9L11.4,3h1.3v4.3h-0.8V3.9l-0.9,3.4h-0.8L9.4,3.9v3.4H8.6z"/>
	<path d="M13.4,7.2V3h0.9v3.5H16v0.7H13.4z"/>
</g>
</svg>
