<?xml version="1.0" encoding="utf-8"?>
<!-- Generator: Adobe Illustrator 19.1.0, SVG Export Plug-In . SVG Version: 6.00 Build 0)  -->
<!DOCTYPE svg PUBLIC "-//W3C//DTD SVG 1.1//EN" "http://www.w3.org/Graphics/SVG/1.1/DTD/svg11.dtd">
<svg version="1.1" id="Ebene_1" xmlns="http://www.w3.org/2000/svg" xmlns:xlink="http://www.w3.org/1999/xlink" x="0px" y="0px"
	 viewBox="-412 290.3 16 16" style="enable-background:new -412 290.3 16 16;" xml:space="preserve">
<style type="text/css">
	.st0{fill:#1A171B;}
	.st1{fill:#C4D13B;}
</style>
<g>
	<rect x="-398.5" y="291.9" class="st0" width="1" height="2.9"/>
	<polygon class="st0" points="-401.1,303.2 -401.1,300.4 -400.2,300.4 -400.2,299.1 -396,299.1 -396,298.1 -400.2,298.1 
		-400.2,295.3 -401.1,295.3 -401.1,293.2 -402.1,293.2 -402.1,298.1 -404.1,298.1 -404.1,293.4 -405.1,293.4 -405.1,297.8 
		-405.9,297.8 -405.9,298.1 -411,298.1 -411,290.3 -412,290.3 -412,306.3 -396,306.3 -396,305.3 -411,305.3 -411,299.1 
		-407.9,299.1 -407.9,303.8 -406.9,303.8 -406.9,299.1 -405.9,299.1 -405.9,303.1 -404.9,303.1 -404.9,300.4 -404.1,300.4 
		-404.1,299.1 -402.1,299.1 -402.1,303.2 	"/>
</g>
<g>
	<polygon class="st1" points="-408.3,304.4 -398.4,298.3 -408.3,292.2 	"/>
	<path class="st0" d="M-397.2,297.9l-11.4-7c-0.3-0.2-0.7,0-0.7,0.4v14c0,0.4,0.4,0.6,0.8,0.4l11.4-7
		C-396.9,298.5-396.9,298.1-397.2,297.9z M-408.3,304.4v-12.2l9.9,6.1L-408.3,304.4z"/>
</g>
</svg>
