<?xml version="1.0" encoding="UTF-8" standalone="no"?>
<!-- Generator: Adobe Illustrator 19.0.0, SVG Export Plug-In . SVG Version: 6.00 Build 0)  -->

<svg
   xmlns:dc="http://purl.org/dc/elements/1.1/"
   xmlns:cc="http://creativecommons.org/ns#"
   xmlns:rdf="http://www.w3.org/1999/02/22-rdf-syntax-ns#"
   xmlns:svg="http://www.w3.org/2000/svg"
   xmlns="http://www.w3.org/2000/svg"
   xmlns:sodipodi="http://sodipodi.sourceforge.net/DTD/sodipodi-0.dtd"
   xmlns:inkscape="http://www.inkscape.org/namespaces/inkscape"
   version="1.0"
   id="Ebene_1"
   x="0px"
   y="0px"
   viewBox="0 0 16 16"
   enable-background="new 0 0 16 16"
   xml:space="preserve"
   inkscape:version="0.48.4 r9939"
   sodipodi:docname="icon.svg"
   inkscape:export-filename="/data/dev/eclipse/eclipse trunk2/plugins/org.knime.base/src/org/knime/base/node/io/database/binning/icon.png"
   inkscape:export-xdpi="90"
   inkscape:export-ydpi="90"
   width="100%"
   height="100%"><metadata
     id="metadata12"><rdf:RDF><cc:Work
         rdf:about=""><dc:format>image/svg+xml</dc:format><dc:type
           rdf:resource="http://purl.org/dc/dcmitype/StillImage" /><dc:title></dc:title></cc:Work></rdf:RDF></metadata><defs
     id="defs10" /><sodipodi:namedview
     pagecolor="#ffffff"
     bordercolor="#666666"
     borderopacity="1"
     objecttolerance="10"
     gridtolerance="10"
     guidetolerance="10"
     inkscape:pageopacity="0"
     inkscape:pageshadow="2"
     inkscape:window-width="2560"
     inkscape:window-height="1549"
     id="namedview8"
     showgrid="true"
     inkscape:zoom="45.254834"
     inkscape:cx="11.197102"
     inkscape:cy="6.4259602"
     inkscape:window-x="0"
     inkscape:window-y="0"
     inkscape:window-maximized="1"
     inkscape:current-layer="Ebene_1"><inkscape:grid
       type="xygrid"
       id="grid4154" /></sodipodi:namedview><polygon
     style="fill:#ffffff"
     points="3.8,15 4.9,15 4.9,1 1,1 1,4.5 3.8,4.5 3.8,7.3 1,7.3 1,8.3 3.8,8.3 3.8,11.1 1,11.1 1,12.2 3.8,12.2 "
     id="XMLID_2_"
     transform="matrix(0.625,0,0,1,6,0)" /><polygon
     style="fill:#ffffff"
     points="10.1,1 5.9,1 5.9,12.2 8.7,12.2 8.7,15 10.1,15 "
     id="XMLID_7_"
     transform="matrix(0.625,0,0,1,6,0)" /><polygon
     style="fill:#ffffff"
     points="11.1,15 12.2,15 12.2,12.2 15,12.2 15,11.1 12.2,11.1 12.2,8.3 15,8.3 15,1 11.1,1 "
     id="XMLID_8_"
     transform="matrix(0.625,0,0,1,6,0)" /><path
     inkscape:connector-curvature="0"
     d="m 12.96875,0 -1,0 L 9.6875,0 9.03125,0 6,0 l 0,16 3.03125,0 0.65625,0 2.34375,0 1,0 L 16,16 16,0 Z M 9.03125,15 8.96875,15 9,12.2 l -2,0 0,-1 2,0 0,-2.9 -2,0 0,-1 2,0 L 9,4.5 7,4.5 7,1 9.03125,1 Z m 3,0 L 12,15 l 0,-2.8 -2,0 0,-11.2 1.96875,0 0,14 z M 15,8.3 l -2,0 0,2.8 2,0 0,1 -2,0 0,2.9 0.03125,0 0,-14 L 15,1 Z"
     id="XMLID_15_"
     sodipodi:nodetypes="ccccccccccccccccccccccccccccccccccccccccccccccc" /><path
     style="fill:#000000"
     inkscape:connector-curvature="0"
     id="path11"
     d="m 0,10.100012 c 2.8,0 3.9,-0.5 4.5,-1.1 0.5,-0.6 0.6,-2.5 0.6,-3 -1.7,0.8 -3.4,1.2 -5.1,1.2 l 0,2.9 0,0 z"
     class="st0" /><path
     style="fill:#000000"
     inkscape:connector-curvature="0"
     id="path13"
     d="m 0,14.900012 0,0 c 2.8,0 3.9,-0.5 4.5,-1.1 0.5,-0.6 0.6,-2.5 0.6,-3 -1.7,0.8 -3.4,1.2 -5.1,1.2 l 0,2.9 z"
     class="st0" /><path
     style="fill:#000000"
     inkscape:connector-curvature="0"
     id="path15"
     d="m 5.1,3.200012 c 0,-1.2 -2.3,-2.1 -5.1,-2.1 l 0,4.3 c 2.8,-0.1 5.1,-1 5.1,-2.2 z"
     class="st0" /></svg>