<?xml version="1.0" encoding="utf-8"?>
<!-- Generator: Adobe Illustrator 19.1.0, SVG Export Plug-In . SVG Version: 6.00 Build 0)  -->
<!DOCTYPE svg PUBLIC "-//W3C//DTD SVG 1.1//EN" "http://www.w3.org/Graphics/SVG/1.1/DTD/svg11.dtd">
<svg version="1.1" id="Ebene_1" xmlns="http://www.w3.org/2000/svg" xmlns:xlink="http://www.w3.org/1999/xlink" x="0px" y="0px"
	 viewBox="-412 290.3 16 16" style="enable-background:new -412 290.3 16 16;" xml:space="preserve">
<style type="text/css">
	.st0{fill:#FFFFFF;}
	.st1{fill:#4EAF75;}
</style>
<g id="XMLID_6_">
	<rect id="XMLID_19_" x="-411" y="291.3" class="st0" width="4" height="14"/>
	<polygon id="XMLID_20_" points="-406.9,300.2 -406.9,305.3 -411,305.3 -411,291.3 -406.9,291.3 -406.9,296.4 -405.9,296.4 
		-405.9,290.3 -412,290.3 -412,306.3 -405.9,306.3 -405.9,300.2 	"/>
	<rect id="XMLID_21_" x="-401.1" y="291.3" class="st0" width="4" height="14"/>
	<polygon id="XMLID_22_" points="-402.1,290.3 -402.1,293.5 -402.1,293.5 -402.1,296.4 -401.1,296.4 -401.1,291.3 -397,291.3 
		-397,305.3 -401.1,305.3 -401.1,300.2 -402.1,300.2 -402.1,303.1 -402.1,303.1 -402.1,306.3 -396,306.3 -396,290.3 	"/>
	<polygon id="XMLID_23_" class="st1" points="-400.2,299.2 -400.2,297.4 -403.1,297.4 -403.1,294.5 -404.9,294.5 -404.9,297.4 
		-407.9,297.4 -407.9,299.2 -404.9,299.2 -404.9,302.1 -403.1,302.1 -403.1,299.2 	"/>
</g>
</svg>
