<?xml version="1.0" encoding="UTF-8" standalone="no"?>
<!-- Generator: Adobe Illustrator 21.0.0, SVG Export Plug-In . SVG Version: 6.00 Build 0)  -->

<svg
   xmlns:dc="http://purl.org/dc/elements/1.1/"
   xmlns:cc="http://creativecommons.org/ns#"
   xmlns:rdf="http://www.w3.org/1999/02/22-rdf-syntax-ns#"
   xmlns:svg="http://www.w3.org/2000/svg"
   xmlns="http://www.w3.org/2000/svg"
   xmlns:sodipodi="http://sodipodi.sourceforge.net/DTD/sodipodi-0.dtd"
   xmlns:inkscape="http://www.inkscape.org/namespaces/inkscape"
   version="1.0"
   id="Ebene_1"
   x="0px"
   y="0px"
   viewBox="0 0 16 16"
   style="enable-background:new 0 0 16 16;"
   xml:space="preserve"
   inkscape:version="0.91 r13725"
   sodipodi:docname="date_time_difference-icon.svg"><metadata
     id="metadata21"><rdf:RDF><cc:Work
         rdf:about=""><dc:format>image/svg+xml</dc:format><dc:type
           rdf:resource="http://purl.org/dc/dcmitype/StillImage" /></cc:Work></rdf:RDF></metadata><defs
     id="defs19" /><sodipodi:namedview
     pagecolor="#ffffff"
     bordercolor="#666666"
     borderopacity="1"
     objecttolerance="10"
     gridtolerance="10"
     guidetolerance="10"
     inkscape:pageopacity="0"
     inkscape:pageshadow="2"
     inkscape:window-width="2560"
     inkscape:window-height="1343"
     id="namedview17"
     showgrid="false"
     inkscape:zoom="41.7193"
     inkscape:cx="0.62836289"
     inkscape:cy="10.049915"
     inkscape:window-x="0"
     inkscape:window-y="27"
     inkscape:window-maximized="1"
     inkscape:current-layer="Ebene_1" /><style
     type="text/css"
     id="style3">
	.st0{fill:#FFFFFF;}
</style><ellipse
     class="st0"
     cx="7.9750056"
     cy="8.0257664"
     rx="6.8569255"
     ry="6.9182248"
     id="ellipse9"
     style="fill:#ffffff" /><path
     style="fill:#999999"
     id="path19"
     d="m 0.726953,8.0097693 7.3381134,0 0,-7.49474343 c -4.3306899,0 -7.57870728,3.45911233 -7.3381134,7.49474343 z"
     class="st2"
     inkscape:connector-curvature="0" /><path
     inkscape:connector-curvature="0"
     d="m 8.0277297,15.478647 c -4.0900962,0 -7.45841056,-3.343809 -7.45841056,-7.4947441 0,-4.1509352 3.36831436,-7.49474381 7.45841056,-7.49474381 4.0900953,0 7.4584103,3.34380861 7.4584103,7.49474381 0,4.1509351 -3.368315,7.4947441 -7.4584103,7.4947441 z m 0,-13.8364505 c -3.4886113,0 -6.2554412,2.8825936 -6.2554412,6.3417064 0,3.4591131 2.7668299,6.3417061 6.2554412,6.3417061 3.4886113,0 6.2554403,-2.882593 6.2554403,-6.3417061 0,-3.4591128 -2.766829,-6.3417064 -6.2554403,-6.3417064 z"
     id="path11" /><path
     inkscape:connector-curvature="0"
     d="m 8.0277297,8.5604217 c -0.3608908,0 -0.6014847,-0.2306075 -0.6014847,-0.5765188 l 0,-5.1886689 c 0,-0.3459112 0.2405939,-0.5765187 0.6014847,-0.5765187 0.3608908,0 0.6014847,0.2306075 0.6014847,0.5765187 l 0,5.1886689 c 0,0.3459113 -0.2405939,0.5765188 -0.6014847,0.5765188 z"
     id="path13" /><path
     inkscape:connector-curvature="0"
     d="m 8.0277297,8.5604217 -3.3683143,0 c -0.3608911,0 -0.601485,-0.2306075 -0.601485,-0.5765188 0,-0.3459112 0.2405939,-0.5765187 0.601485,-0.5765187 l 3.3683143,0 c 0.3608908,0 0.6014847,0.2306075 0.6014847,0.5765187 0,0.3459113 -0.2405939,0.5765188 -0.6014847,0.5765188 z"
     id="path15" /></svg>