<?xml version="1.0" encoding="UTF-8" standalone="no"?>
<!-- Generator: Adobe Illustrator 19.1.0, SVG Export Plug-In . SVG Version: 6.00 Build 0)  -->

<svg
   xmlns:dc="http://purl.org/dc/elements/1.1/"
   xmlns:cc="http://creativecommons.org/ns#"
   xmlns:rdf="http://www.w3.org/1999/02/22-rdf-syntax-ns#"
   xmlns:svg="http://www.w3.org/2000/svg"
   xmlns="http://www.w3.org/2000/svg"
   xmlns:sodipodi="http://sodipodi.sourceforge.net/DTD/sodipodi-0.dtd"
   xmlns:inkscape="http://www.inkscape.org/namespaces/inkscape"
   version="1.1"
   id="Ebene_1"
   x="0px"
   y="0px"
   viewBox="0 0 16 16"
   style="enable-background:new 0 0 16 16;"
   xml:space="preserve"
   inkscape:version="0.91 r13725"
   sodipodi:docname="db_table_creator.svg"
   inkscape:export-filename="C:\DEVELOPMENT\workspaces\main\org.knime.base\src\org\knime\base\node\io\database\tablecreator\db_table_creator.png"
   inkscape:export-xdpi="90"
   inkscape:export-ydpi="90"><metadata
     id="metadata17"><rdf:RDF><cc:Work
         rdf:about=""><dc:format>image/svg+xml</dc:format><dc:type
           rdf:resource="http://purl.org/dc/dcmitype/StillImage" /><dc:title></dc:title></cc:Work></rdf:RDF></metadata><defs
     id="defs15" /><sodipodi:namedview
     pagecolor="#ffffff"
     bordercolor="#666666"
     borderopacity="1"
     objecttolerance="10"
     gridtolerance="10"
     guidetolerance="10"
     inkscape:pageopacity="0"
     inkscape:pageshadow="2"
     inkscape:window-width="1538"
     inkscape:window-height="877"
     id="namedview13"
     showgrid="true"
     inkscape:zoom="1"
     inkscape:cx="8"
     inkscape:cy="8"
     inkscape:window-x="54"
     inkscape:window-y="-8"
     inkscape:window-maximized="1"
     inkscape:current-layer="Ebene_1"><inkscape:grid
       type="xygrid"
       id="grid4231" /></sodipodi:namedview><g
     id="g5"><path
       d="M0,10.1c2.8,0,3.9-0.5,4.5-1.1C5,8.4,5.1,6.5,5.1,6C3.4,6.8,1.7,7.2,0,7.2V10.1L0,10.1z"
       id="path7" /><path
       d="M0,14.9L0,14.9c2.8,0,3.9-0.5,4.5-1.1c0.5-0.6,0.6-2.5,0.6-3C3.4,11.6,1.7,12,0,12V14.9z"
       id="path9" /><path
       d="M5.1,3.2C5.1,2,2.8,1.1,0,1.1v4.3C2.8,5.3,5.1,4.4,5.1,3.2z"
       id="path11" /></g><path
     style="fill:none;fill-rule:evenodd;stroke:#000000;stroke-width:2;stroke-linecap:butt;stroke-linejoin:miter;stroke-miterlimit:4;stroke-dasharray:none;stroke-opacity:1"
     d="M 15,11 7,11"
     id="path4237"
     inkscape:connector-curvature="0" /><path
     style="fill:none;fill-rule:evenodd;stroke:#000000;stroke-width:2;stroke-linecap:butt;stroke-linejoin:miter;stroke-miterlimit:4;stroke-dasharray:none;stroke-opacity:1"
     d="M 11,15 11,7"
     id="path4237-4"
     inkscape:connector-curvature="0" /></svg>