<?xml version="1.0" encoding="utf-8"?>
<!-- Generator: Adobe Illustrator 19.1.0, SVG Export Plug-In . SVG Version: 6.00 Build 0)  -->
<!DOCTYPE svg PUBLIC "-//W3C//DTD SVG 1.1//EN" "http://www.w3.org/Graphics/SVG/1.1/DTD/svg11.dtd">
<svg version="1.1" id="Ebene_1" xmlns="http://www.w3.org/2000/svg" xmlns:xlink="http://www.w3.org/1999/xlink" x="0px" y="0px"
	 viewBox="-412 290.3 16 16" style="enable-background:new -412 290.3 16 16;" xml:space="preserve">
<style type="text/css">
	.st0{fill:#FFFFFF;}
	.st1{fill:#88D8EA;}
</style>
<g>
	<g id="XMLID_7_">
		<polygon id="XMLID_9_" points="-404,301.5 -404,302.7 -406,302.7 -406,303.5 -404,303.5 -404,304.7 -401.2,303.1 		"/>
	</g>
	<polygon points="-396,305.3 -396,306.3 -400.8,306.3 -400.8,290.3 -396,290.3 -396,291.3 -399.8,291.3 -399.8,299.2 -399.8,301.1 
		-399.8,305.3 	"/>
	<g>
		<path class="st0" d="M-396,291.3v7.1c-2-0.3-3.6,0.7-3.8,0.8v-7.9H-396z"/>
		<path class="st1" d="M-396,298.4v6.9h-3.8v-4.2v-1.9C-399.6,299.1-398,298.1-396,298.4z"/>
		<path class="st1" d="M-396,293.1c-0.3-0.3-0.6-0.5-1.1-0.5c-0.8,0-1.4,0.6-1.4,1.4c0,0.8,0.6,1.4,1.4,1.4c0.5,0,0.8-0.2,1.1-0.5
			V293.1z"/>
	</g>
</g>
<g>
	<polygon points="-407.6,293.4 -407.6,290.3 -409.8,290.3 -409.8,293.4 -412,293.4 -412,295.6 -405.2,295.6 -405.2,298.8 
		-403,298.8 -403,293.4 	"/>
	<polygon points="-409.8,301.6 -409.8,306.3 -407.7,306.3 -407.7,299.4 -412,299.4 -412,301.6 	"/>
</g>
</svg>
