<?xml version="1.0" encoding="utf-8"?>
<!-- Generator: Adobe Illustrator 19.0.0, SVG Export Plug-In . SVG Version: 6.00 Build 0)  -->
<!DOCTYPE svg PUBLIC "-//W3C//DTD SVG 1.1//EN" "http://www.w3.org/Graphics/SVG/1.1/DTD/svg11.dtd">
<svg version="1.1" id="Ebene_1" xmlns="http://www.w3.org/2000/svg" xmlns:xlink="http://www.w3.org/1999/xlink" x="0px" y="0px"
	 viewBox="0 0 16 16" style="enable-background:new 0 0 16 16;" xml:space="preserve">
<style type="text/css">
	.st0{fill:#FFFFFF;}
	.st1{fill:#CBCBCB;}
</style>
<g>
	<g id="XMLID_7_">
		<polygon id="XMLID_9_" points="8,11.2 8,12.4 6,12.4 6,13.2 8,13.2 8,14.4 10.8,12.8 		"/>
	</g>
	<polygon points="16,15 16,16 11.2,16 11.2,0 16,0 16,1 12.2,1 12.2,8.9 12.2,10.8 12.2,15 	"/>
	<g>
		<path class="st0" d="M16,1v7.1c-2-0.3-3.6,0.7-3.8,0.8V1H16z"/>
		<path class="st1" d="M16,8.1V15h-3.8v-4.2V8.9C12.4,8.8,14,7.8,16,8.1z"/>
		<path class="st1" d="M16,2.8c-0.3-0.3-0.6-0.5-1.1-0.5c-0.8,0-1.4,0.6-1.4,1.4s0.6,1.4,1.4,1.4c0.5,0,0.8-0.2,1.1-0.5V2.8z"/>
	</g>
</g>
<g>
	<polygon points="4.4,3.1 4.4,0 2.2,0 2.2,3.1 0,3.1 0,5.3 6.8,5.3 6.8,8.5 9,8.5 9,3.1 	"/>
	<polygon points="2.2,11.3 2.2,16 4.3,16 4.3,9.1 0,9.1 0,11.3 	"/>
</g>
</svg>
