<?xml version="1.0" encoding="utf-8"?>
<!-- Generator: Adobe Illustrator 19.1.0, SVG Export Plug-In . SVG Version: 6.00 Build 0)  -->
<!DOCTYPE svg PUBLIC "-//W3C//DTD SVG 1.1//EN" "http://www.w3.org/Graphics/SVG/1.1/DTD/svg11.dtd">
<svg version="1.1" id="Ebene_1" xmlns="http://www.w3.org/2000/svg" xmlns:xlink="http://www.w3.org/1999/xlink" x="0px" y="0px"
	 viewBox="-289 412.9 16 16" style="enable-background:new -289 412.9 16 16;" xml:space="preserve">
<style type="text/css">
	.st0{fill:#FFFFFF;}
	.st1{enable-background:new    ;}
	.st2{fill:#F1933B;}
</style>
<polygon id="XMLID_26_" points="-277.2,417.7 -278.5,417.7 -276.8,420.5 -275.2,417.7 -276.5,417.7 -276.5,414.6 -276.5,414.6 
	-276.5,414.5 -281.3,414.5 -281.3,415.3 -277.2,415.3 "/>
<rect id="XMLID_32_" x="-288" y="413.9" class="st0" width="3.7" height="10.3"/>
<path id="XMLID_35_" d="M-289,425.2h5.7v-12.3h-5.7V425.2z M-288,413.9h3.7v10.3h-3.7V413.9z"/>
<g id="XMLID_1_">
	<rect id="XMLID_27_" x="-274.6" y="426.6" class="st0" width="1.6" height="2.3"/>
	<rect id="XMLID_29_" x="-277.9" y="426.6" class="st0" width="2.2" height="2.3"/>
	<rect id="XMLID_30_" x="-277.9" y="423" class="st0" width="2.2" height="2.6"/>
	<rect id="XMLID_31_" x="-274.6" y="423" class="st0" width="1.6" height="2.6"/>
	<rect id="XMLID_36_" x="-281.3" y="426.6" class="st0" width="2.4" height="2.3"/>
	<rect id="XMLID_37_" x="-281.3" y="423" class="st0" width="2.4" height="2.6"/>
	<path id="XMLID_40_" d="M-274.6,423h1.6v-1h-8.8h-0.5v6.9h1v-2.3h2.4v2.3h1v-2.3h2.2v2.3h1v-2.3h1.7v-1h-1.6V423z M-278.9,423v2.6
		h-2.4V423H-278.9z M-277.9,425.6V423h2.2v2.6C-275.7,425.6-277.9,425.6-277.9,425.6z"/>
</g>
<g class="st1">
	<g>
		<rect x="-288.5" y="413.4" class="st2" width="4.6" height="3.2"/>
		<path d="M-283.3,417.1h-5.7v-4.2h5.7V417.1z M-287.9,416.1h3.5v-2.2h-3.5V416.1z"/>
	</g>
</g>
</svg>
