<?xml version="1.0" encoding="utf-8"?>
<!-- Generator: Adobe Illustrator 19.0.0, SVG Export Plug-In . SVG Version: 6.00 Build 0)  -->
<!DOCTYPE svg PUBLIC "-//W3C//DTD SVG 1.1//EN" "http://www.w3.org/Graphics/SVG/1.1/DTD/svg11.dtd">
<svg version="1.1" id="Ebene_1" xmlns="http://www.w3.org/2000/svg" xmlns:xlink="http://www.w3.org/1999/xlink" x="0px" y="0px"
	 viewBox="0 0 16 16" style="enable-background:new 0 0 16 16;" xml:space="preserve">
<g>
	<g>
		<path d="M16,2.3l-3.9,6l3.5,5.5h-2.7L10.6,10l-2.3,3.7H5.7l3.6-5.6L5.3,2.3h2.8l2.5,4l2.5-4H16z"/>
	</g>
</g>
<g>
	<path d="M5.7,7v2c-2.2,0.1-1.8,2.6-1.9,4.2c0,0.8-0.1,1.6-0.7,2.1C2.4,15.9,1.4,16,0.4,16H0l0-2c0.6,0,1.4,0.1,1.6-0.6
		c0.2-0.5,0.1-1.2,0.1-1.7C1.8,10.2,1.9,8.9,3.3,8C1.9,7.2,1.8,5.7,1.7,4.2c0-0.5,0.1-1.2-0.1-1.6C1.4,1.9,0.6,2,0,2l0-2h0.4
		c0.9,0,1.9,0,2.6,0.7C3.7,1.3,3.8,2.2,3.9,3C3.9,4.6,3.5,6.9,5.7,7z"/>
</g>
</svg>
