<?xml version="1.0" encoding="utf-8"?>
<!-- Generator: Adobe Illustrator 19.1.0, SVG Export Plug-In . SVG Version: 6.00 Build 0)  -->
<!DOCTYPE svg PUBLIC "-//W3C//DTD SVG 1.1//EN" "http://www.w3.org/Graphics/SVG/1.1/DTD/svg11.dtd">
<svg version="1.1" id="Ebene_1" xmlns="http://www.w3.org/2000/svg" xmlns:xlink="http://www.w3.org/1999/xlink" x="0px" y="0px"
	 viewBox="-412 290.3 16 16" style="enable-background:new -412 290.3 16 16;" xml:space="preserve">
<style type="text/css">
	.st0{fill:#4EAF75;}
	.st1{enable-background:new    ;}
	.st2{fill:#E64E4F;}
</style>
<g>
	<path d="M-401.7,299.3v-2c2.2-0.1,1.8-2.6,1.9-4.2c0-0.8,0.1-1.6,0.7-2.1c0.7-0.7,1.7-0.7,2.7-0.7h0.4v2c-0.6,0-1.4-0.1-1.6,0.6
		c-0.2,0.5-0.1,1.2-0.1,1.7c-0.1,1.5-0.2,2.8-1.5,3.7c1.4,0.8,1.5,2.3,1.5,3.8c0,0.5-0.1,1.2,0.1,1.6c0.3,0.7,1,0.6,1.6,0.6v2h-0.4
		c-0.9,0-1.9,0-2.6-0.7c-0.7-0.6-0.8-1.5-0.8-2.4C-399.9,301.7-399.5,299.4-401.7,299.3z"/>
</g>
<g>
	<g>
		<g>
			<path class="st0" d="M-406.3,296.5l2.5-4h2.8l-3.9,6l3.5,5.5h-2.7l-2.3-3.7"/>
		</g>
	</g>
	<g class="st1">
		<g>
			<path class="st2" d="M-406.4,300.3l-2.3,3.7h-2.7l3.6-5.6l-3.9-5.9h2.8l2.5,4"/>
		</g>
	</g>
</g>
</svg>
