<?xml version="1.0" encoding="utf-8"?>
<!-- Generator: Adobe Illustrator 19.0.0, SVG Export Plug-In . SVG Version: 6.00 Build 0)  -->
<!DOCTYPE svg PUBLIC "-//W3C//DTD SVG 1.1//EN" "http://www.w3.org/Graphics/SVG/1.1/DTD/svg11.dtd">
<svg version="1.1" id="Ebene_1" xmlns="http://www.w3.org/2000/svg" xmlns:xlink="http://www.w3.org/1999/xlink" x="0px" y="0px"
	 viewBox="0 0 16 16" style="enable-background:new 0 0 16 16;" xml:space="preserve">
<g>
	<g>
		<path d="M0,13.7l3.9-6L0.4,2.3h2.7l2.3,3.7l2.3-3.7h2.7L6.7,7.8l3.9,5.9H7.9l-2.5-4l-2.5,4H0z"/>
	</g>
</g>
<g>
	<path d="M10.3,9V7c2.2-0.1,1.8-2.6,1.9-4.2c0-0.8,0.1-1.6,0.7-2.1C13.6,0,14.6,0,15.6,0H16v2c-0.6,0-1.4-0.1-1.6,0.6
		c-0.2,0.5-0.1,1.2-0.1,1.7c-0.1,1.5-0.2,2.8-1.5,3.7c1.4,0.8,1.5,2.3,1.5,3.8c0,0.5-0.1,1.2,0.1,1.6c0.3,0.7,1,0.6,1.6,0.6v2h-0.4
		c-0.9,0-1.9,0-2.6-0.7c-0.7-0.6-0.8-1.5-0.8-2.4C12.1,11.4,12.5,9.1,10.3,9z"/>
</g>
</svg>
