<?xml version="1.0" encoding="utf-8"?>
<!-- Generator: Adobe Illustrator 19.1.0, SVG Export Plug-In . SVG Version: 6.00 Build 0)  -->
<!DOCTYPE svg PUBLIC "-//W3C//DTD SVG 1.1//EN" "http://www.w3.org/Graphics/SVG/1.1/DTD/svg11.dtd">
<svg version="1.1" id="Ebene_1" xmlns="http://www.w3.org/2000/svg" xmlns:xlink="http://www.w3.org/1999/xlink" x="0px" y="0px"
	 viewBox="0 0 16 16" style="enable-background:new 0 0 16 16;" xml:space="preserve">
<style type="text/css">
	.st0{fill:#F1933B;}
</style>
<g id="YCp0BI.tif_2_">
	<g id="XMLID_136_">
		<path id="XMLID_137_" class="st0" d="M9,13.8c-1.1-0.2-0.6-1.8-1.1-2.3c-0.6-0.9-1.8-0.2-2.7,0.3C4.6,12.1,3.8,12,4.1,11
			c0.2-0.6,0.8-0.9,0.8-1.5C5,8.9,5,8.4,4.3,8c-0.6-0.3-2.4,0-2-1.2c0.3-0.9,1.8-0.3,2.4-1.2s0-1.5-0.5-2.3C4,2.7,3.8,2.5,4.4,2.1
			s0.6,0,1.2,0.3C6.4,3,7.5,3,8.1,2.1c0.3-0.5,0.2-2.5,1.5-2c0.6,0.2,0,2,1.2,2.6c0.3,0.2,0.6,0.3,1.1,0.2C12.5,2.7,12.8,2,13.3,2
			c0.3,0,0.6,0.2,0.8,0.5c0.3,0.5,0.2,0.6-0.2,1.1c-0.6,0.9-0.9,2,0.2,2.6c0.8,0.5,2.1,0,2,1.1c-0.2,1.1-1.2,0.5-2,0.9
			c-1.1,0.8-0.6,1.8,0,2.6c0.3,0.5,0.5,0.5,0.2,1.1c-0.3,0.3-0.3,0.5-0.9,0.3c-0.6-0.2-1.2-0.9-2-0.9c-0.5,0-0.9,0.3-1.2,0.8
			C9.6,12.6,10.2,13.8,9,13.8C8.8,13.8,9,13.8,9,13.8z M5.8,7c0,1.8,1.4,3.2,3.2,3.2s3.2-1.4,3.2-3.2S10.8,3.8,9,3.8
			C7.3,3.8,5.8,5.3,5.8,7z"/>
	</g>
</g>
<g id="Rr4t8y.tif_5_">
	<g>
		<path d="M2.6,5.1c2.8-0.9,4.7,0.4,5.1,2.7C8,10.2,6.4,12.2,4,12.3c-2.5,0.1-4-1.6-4-4.5c0.7,0.6,1.3,1,1.9,1.5
			c0.9,0.8,1.6,0.5,2.4-0.4C5,8.1,5.5,7.3,4.4,6.4C3.8,6,3.2,5.6,2.6,5.1z"/>
		<path d="M6.3,13.3C7.2,12.2,8,11.2,9,10.1c0.6,0.6,1.7,1.5,2.8,2.6c0.9,0.9,0.3,1.7-0.3,2.4c-0.6,0.8-1.3,1.3-2.3,0.6
			C8,14.8,6.9,13.8,6.3,13.3z"/>
	</g>
</g>
</svg>
