<?xml version="1.0" encoding="utf-8"?>
<!-- Generator: Adobe Illustrator 19.1.0, SVG Export Plug-In . SVG Version: 6.00 Build 0)  -->
<!DOCTYPE svg PUBLIC "-//W3C//DTD SVG 1.1//EN" "http://www.w3.org/Graphics/SVG/1.1/DTD/svg11.dtd">
<svg version="1.1" id="Ebene_1" xmlns="http://www.w3.org/2000/svg" xmlns:xlink="http://www.w3.org/1999/xlink" x="0px" y="0px"
	 viewBox="0 0 16 16" style="enable-background:new 0 0 16 16;" xml:space="preserve">
<style type="text/css">
	.st0{fill:#88D8EA;enable-background:new    ;}
	.st1{fill:#8B95AA;}
	.st2{fill:#E64F51;enable-background:new    ;}
</style>
<path class="st0" d="M14.9,3.7L11.4,2c-0.1,0-2.6-1.2-3.3-1.6C8,0.3,7.8,0.3,7.7,0.3l-7,3C0.6,3.5,0.6,3.6,0.6,3.8c0,0,0,0,0,0.1V4
	v7.2c0,0,0,0,0,0.1v0.1c0,0,0,0,0,0.1c0,0,0,0,0,0.1c0,0,0,0,0.1,0.1l7.1,3.7c0.2,0.1,0.4,0.1,0.6,0c1.3-0.8,6.8-3.8,6.8-3.8
	c0.2-0.1,0.2-0.3,0.2-0.5v-7C15.2,4,15.1,3.8,14.9,3.7z"/>
<g>
	<g id="XMLID_2_">
		<g id="XMLID_3_">
			<path class="st1" d="M11.7,1.8c-0.1,0-2.7-1.3-3.5-1.7C8.1,0,7.9,0,7.8,0.1L0.5,3.3C0.4,3.4,0.3,3.5,0.3,3.7c0,0,0,0,0,0.1v0.1
				v7.6c0,0,0,0,0,0.1v0.1c0,0,0,0,0,0.1c0,0,0,0,0,0.1c0,0,0,0,0.1,0.1l7.4,3.9C8,16,8.2,16,8.4,15.9c1.4-0.8,7.1-4,7.1-4
				c0.2-0.1,0.2-0.3,0.2-0.5V4.1c0-0.2-0.1-0.4-0.3-0.5L11.7,1.8z M14.5,3.9l-2.6,1.5L9,3.9l2.6-1.4L14.5,3.9z M8.2,7.4l-3-1.5
				l3-1.6L11,5.8L8.2,7.4z M8,0.8l2.8,1.3L8.2,3.5L5.4,2L8,0.8z M3.9,12.9L1,11.3V8.1l2.9,1.6V12.9z M3.9,8.9L1,7.2V4.6l2.9,1.6V8.9
				z M1.3,3.9l3.3-1.5l0.1,0.1l2.6,1.4l-3,1.6L1.3,3.9z M7.8,15l-3.1-1.7v-3.2l3.1,1.7V15z M7.8,10.9L4.7,9.2V6.5l3.1,1.7
				C7.8,8.2,7.8,10.9,7.8,10.9z M11.5,13.3l-3,1.7v-3.2l3-1.7V13.3z M8.5,10.8V8.2l3-1.7v2.6L8.5,10.8z M14.9,11.2L14.9,11.2
				l-2.7,1.6V9.6h0.1l2.6-1.5V11.2z M12.4,8.7V5.9L15,4.4v2.8L12.4,8.7z"/>
		</g>
	</g>
	<polygon id="XMLID_5_" class="st2" points="15,7.2 12.4,8.7 12.4,5.9 15,4.4 	"/>
	<polygon id="XMLID_4_" class="st2" points="9,3.9 11.9,5.4 14.5,3.9 11.6,2.5 	"/>
</g>
</svg>
