<?xml version="1.0" encoding="utf-8"?>
<!-- Generator: Adobe Illustrator 19.0.0, SVG Export Plug-In . SVG Version: 6.00 Build 0)  -->
<!DOCTYPE svg PUBLIC "-//W3C//DTD SVG 1.1//EN" "http://www.w3.org/Graphics/SVG/1.1/DTD/svg11.dtd">
<svg version="1.1" id="Ebene_1" xmlns="http://www.w3.org/2000/svg" xmlns:xlink="http://www.w3.org/1999/xlink" x="0px" y="0px"
	 viewBox="0 0 16 16" style="enable-background:new 0 0 16 16;" xml:space="preserve">
<style type="text/css">
	.st0{fill:#FFFFFF;}
</style>
<g>
	<polygon class="st0" points="13,12.9 3,12.9 3,8.7 1,8.7 1,15 15,15 15,8.7 13,8.7 	"/>
	<path d="M12,7.7v4.2H4V7.7H0V16h16V7.7H12z M15,15H1V8.7h2v4.2h10V8.7h2V15z"/>
</g>
<g>
	<g id="XMLID_7_">
		<polygon id="XMLID_9_" points="6.6,9.5 8.2,6.7 7,6.7 7,0 6.2,0 6.2,6.7 5,6.7 		"/>
	</g>
	<g id="XMLID_1_">
		<polygon id="XMLID_2_" points="9.4,0 7.8,2.8 9,2.8 9,9.5 9.8,9.5 9.8,2.8 11,2.8 		"/>
	</g>
</g>
</svg>
