<?xml version="1.0" encoding="utf-8"?>
<!-- Generator: Adobe Illustrator 19.1.0, SVG Export Plug-In . SVG Version: 6.00 Build 0)  -->
<!DOCTYPE svg PUBLIC "-//W3C//DTD SVG 1.1//EN" "http://www.w3.org/Graphics/SVG/1.1/DTD/svg11.dtd">
<svg version="1.1" id="Ebene_1" xmlns="http://www.w3.org/2000/svg" xmlns:xlink="http://www.w3.org/1999/xlink" x="0px" y="0px"
	 viewBox="0 0 16 16" style="enable-background:new 0 0 16 16;" xml:space="preserve">
<style type="text/css">
	.st0{fill:#FFFFFF;}
	.st1{fill:#F1933B;}
</style>
<g id="XMLID_78_">
	<g id="XMLID_80_">
		<path id="XMLID_76_" class="st0" d="M8,1.8C4.6,1.8,1.8,4.6,1.8,8s2.8,6.2,6.2,6.2s6.2-2.8,6.2-6.2S11.4,1.8,8,1.8z"/>
		<path id="XMLID_81_" d="M8,0.7C4.1,0.7,0.7,3.9,0.7,8c0,3.9,3.2,7.3,7.3,7.3c3.9,0,7.3-3.2,7.3-7.3S11.9,0.7,8,0.7z M8,14.2
			c-3.4,0-6.2-2.8-6.2-6.2S4.6,1.8,8,1.8s6.2,2.8,6.2,6.2S11.4,14.2,8,14.2z"/>
	</g>
	<polygon id="XMLID_73_" points="8.5,8.5 3.8,8.5 3.8,7.5 7.5,7.5 7.5,2.4 8.5,2.4 	"/>
</g>
<path id="XMLID_98_" class="st1" d="M13.6,10.6c-2,3.1-6.5,4.8-9.4,2.2l1.3-0.9L0.8,9.6l0.6,5l1.5-1c3.5,3.5,9.4,1.7,11.9-2.3
	L13.6,10.6z"/>
</svg>
