<?xml version="1.0" encoding="utf-8"?>
<!-- Generator: Adobe Illustrator 19.1.0, SVG Export Plug-In . SVG Version: 6.00 Build 0)  -->
<!DOCTYPE svg PUBLIC "-//W3C//DTD SVG 1.1//EN" "http://www.w3.org/Graphics/SVG/1.1/DTD/svg11.dtd">
<svg version="1.1" id="Ebene_1" xmlns="http://www.w3.org/2000/svg" xmlns:xlink="http://www.w3.org/1999/xlink" x="0px" y="0px"
	 viewBox="0 0 16 16" style="enable-background:new 0 0 16 16;" xml:space="preserve">
<style type="text/css">
	.st0{fill:#E64F51;enable-background:new    ;}
	.st1{enable-background:new    ;}
	.st2{fill:#FFFFFF;}
</style>
<path d="M7.2,6.9l5.2-5.2c0.4-0.4,0.4-1,0-1.4s-1-0.4-1.4,0L5.4,5.8H1c-0.6,0-1,0.4-1,1s0.4,1,1,1h4.3l5.7,5.7
	c0.2,0.2,0.5,0.3,0.7,0.3s0.5-0.1,0.7-0.3c0.4-0.4,0.4-1,0-1.4L7.2,6.9z"/>
<g>
	<circle class="st0" cx="11.4" cy="11.4" r="4.6"/>
	<g id="XMLID_132_" class="st1">
		<path id="XMLID_133_" class="st2" d="M12.5,11.4l1.8-1.8c0.3-0.3,0.3-0.8,0-1.1s-0.8-0.3-1.1,0l-1.8,1.8L9.6,8.5
			c-0.3-0.3-0.8-0.3-1.1,0s-0.3,0.8,0,1.1l1.8,1.8l-1.8,1.8c-0.3,0.3-0.3,0.8,0,1.1c0.1,0.1,0.3,0.2,0.5,0.2s0.4-0.1,0.5-0.2
			l1.8-1.8l1.8,1.8c0.1,0.1,0.3,0.2,0.5,0.2s0.4-0.1,0.5-0.2c0.3-0.3,0.3-0.8,0-1.1L12.5,11.4z"/>
	</g>
</g>
</svg>
