<?xml version="1.0" encoding="utf-8"?>
<!-- Generator: Adobe Illustrator 19.1.0, SVG Export Plug-In . SVG Version: 6.00 Build 0)  -->
<!DOCTYPE svg PUBLIC "-//W3C//DTD SVG 1.1//EN" "http://www.w3.org/Graphics/SVG/1.1/DTD/svg11.dtd">
<svg version="1.1" id="Ebene_1" xmlns="http://www.w3.org/2000/svg" xmlns:xlink="http://www.w3.org/1999/xlink" x="0px" y="0px"
	 viewBox="-412 290.3 16 16" style="enable-background:new -412 290.3 16 16;" xml:space="preserve">
<style type="text/css">
	.st0{fill:#FFFFFF;}
	.st1{fill:#E64E4F;}
</style>
<g>
	<rect x="-406" y="291.2" class="st0" width="3.9" height="14.1"/>
	
		<rect x="-411.1" y="291.2" transform="matrix(1 -4.035656e-03 4.035656e-03 1 -1.207 -1.6483)" class="st0" width="4.1" height="14.1"/>
	<polygon class="st0" points="-401.1,295.1 -401,295.1 -397,295.1 -397,299.8 -401,299.8 -401.1,299.8 -401.1,305.3 -397,305.3 
		-397,291.2 -401.1,291.2 	"/>
	<path d="M-412,290.2v16.1h16v-16.1H-412z M-407,305.3h-4v-14.1h4V305.3z M-402.1,305.3h-3.9v-14.1h3.9V305.3z M-397,305.3h-4.1
		v-5.5v-4.7v-3.9h4.1V305.3z"/>
	<polygon class="st1" points="-397,299.8 -397,295.1 -401,295.1 -401.1,295.1 -401.1,299.8 -401,299.8 	"/>
	<g id="XMLID_11_">
		<polygon id="XMLID_12_" points="-400.1,297.4 -403.9,295.1 -403.9,296.8 -409.7,296.8 -409.7,297.9 -403.9,297.9 -403.9,299.6 		
			"/>
	</g>
</g>
</svg>
