<?xml version="1.0" encoding="utf-8"?>
<!-- Generator: Adobe Illustrator 19.1.0, SVG Export Plug-In . SVG Version: 6.00 Build 0)  -->
<!DOCTYPE svg PUBLIC "-//W3C//DTD SVG 1.1//EN" "http://www.w3.org/Graphics/SVG/1.1/DTD/svg11.dtd">
<svg version="1.1" id="Ebene_1" xmlns="http://www.w3.org/2000/svg" xmlns:xlink="http://www.w3.org/1999/xlink" x="0px" y="0px"
	 viewBox="-412 290.3 16 16" style="enable-background:new -412 290.3 16 16;" xml:space="preserve">
<style type="text/css">
	.st0{fill:#FFFFFF;}
	.st1{fill:#4EAF75;}
</style>
<path d="M-398.4,305.6v0.7h-2.8c0-0.3,0.1-0.6,0.3-0.8c0.2-0.3,0.5-0.6,0.9-1c0.4-0.3,0.6-0.6,0.7-0.7c0.1-0.2,0.2-0.3,0.2-0.5
	s0-0.3-0.1-0.4c-0.1-0.1-0.2-0.1-0.4-0.1c-0.2,0-0.3,0.1-0.4,0.2c-0.1,0.1-0.2,0.3-0.2,0.5l-1-0.2c0-0.4,0.2-0.8,0.5-1
	c0.3-0.2,0.6-0.3,1-0.3c0.4,0,0.7,0.1,1,0.3c0.2,0.2,0.4,0.5,0.4,0.8c0,0.2,0,0.4-0.1,0.5c-0.1,0.2-0.2,0.4-0.3,0.5
	c-0.1,0.1-0.3,0.3-0.5,0.5c-0.2,0.2-0.4,0.4-0.5,0.5c-0.1,0.1-0.1,0.2-0.2,0.2h1.5V305.6z"/>
<g>
	<path d="M-399.9,290.3c0.4,0,0.7,0.1,1,0.4c0.3,0.4,0.4,0.9,0.4,1.7c0,0.8-0.1,1.4-0.4,1.8c-0.2,0.3-0.6,0.4-1,0.4s-0.8-0.2-1-0.5
		c-0.2-0.3-0.4-0.8-0.4-1.6c0-0.8,0.1-1.4,0.4-1.7C-400.6,290.4-400.3,290.3-399.9,290.3z M-399.9,291c-0.1,0-0.2,0-0.3,0.1
		c-0.1,0.1-0.2,0.2-0.2,0.3c-0.1,0.2-0.1,0.6-0.1,1.1s0.1,0.9,0.1,1c0,0.2,0.1,0.3,0.2,0.4c0.1,0.1,0.2,0.1,0.3,0.1s0.2,0,0.3-0.1
		s0.1-0.1,0.2-0.3c0.1-0.3,0.1-0.6,0.1-1.1s-0.1-0.9-0.1-1c0-0.2-0.1-0.3-0.2-0.4C-399.7,291-399.8,291-399.9,291z"/>
	<path d="M-397.5,300.4h-0.8v-3.1c-0.3,0.3-0.7,0.5-1.1,0.6v-0.7c0.2-0.1,0.4-0.2,0.7-0.4c0.3-0.2,0.4-0.4,0.5-0.7h0.7
		C-397.5,296.1-397.5,300.4-397.5,300.4z"/>
</g>
<g>
	<rect x="-408.2" y="291.3" class="st0" width="4" height="14"/>
	<path d="M-409.2,290.3v16h6v-16H-409.2z M-404.2,305.3h-4v-14h4V305.3z"/>
</g>
<g id="XMLID_11_">
	<polygon id="XMLID_12_" class="st1" points="-401.4,298.3 -405.2,296 -405.2,297.8 -411,297.8 -411,298.8 -405.2,298.8 
		-405.2,300.6 	"/>
</g>
</svg>
