<?xml version="1.0" encoding="utf-8"?>
<!-- Generator: Adobe Illustrator 19.1.0, SVG Export Plug-In . SVG Version: 6.00 Build 0)  -->
<!DOCTYPE svg PUBLIC "-//W3C//DTD SVG 1.1//EN" "http://www.w3.org/Graphics/SVG/1.1/DTD/svg11.dtd">
<svg version="1.1" id="Ebene_1" xmlns="http://www.w3.org/2000/svg" xmlns:xlink="http://www.w3.org/1999/xlink" x="0px" y="0px"
	 viewBox="-289 412.9 16 16" style="enable-background:new -289 412.9 16 16;" xml:space="preserve">
<style type="text/css">
	.st0{fill:#FFFFFF;}
	.st1{fill:#EEF7FC;}
	.st2{fill:#8B95AA;}
</style>
<g>
	<g>
		<path class="st0" d="M-282,413.9c-3.3,0-6,2.7-6,6c0,3.3,2.7,6,6,6s6-2.7,6-6C-276.1,416.6-278.7,413.9-282,413.9z"/>
		<path d="M-282,412.9c-3.9,0-7,3.1-7,7c0,3.8,3.1,7,7,7c3.8,0,7-3.1,7-7C-275.1,416-278.2,412.9-282,412.9z M-282,425.8
			c-3.3,0-6-2.7-6-6c0-3.3,2.7-6,6-6s6,2.7,6,6C-276.1,423.1-278.7,425.8-282,425.8z"/>
	</g>
	<polygon points="-281.5,420.4 -286.1,420.4 -286.1,419.4 -282.5,419.4 -282.5,414.5 -281.5,414.5 	"/>
</g>
<g>
	<g>
		<rect x="-280.3" y="421.6" class="st1" width="6.3" height="6.3"/>
		<path class="st2" d="M-281.3,420.6v8.3h8.3v-8.3H-281.3z M-274,427.9h-6.3v-6.3h6.3V427.9z"/>
	</g>
	<rect x="-279" y="422.5" class="st2" width="3.7" height="1"/>
	<rect x="-279" y="424.2" class="st2" width="3.7" height="1"/>
	<rect x="-279" y="426" class="st2" width="3.7" height="1"/>
</g>
</svg>
