<?xml version="1.0" encoding="utf-8"?>
<!-- Generator: Adobe Illustrator 19.0.0, SVG Export Plug-In . SVG Version: 6.00 Build 0)  -->
<!DOCTYPE svg PUBLIC "-//W3C//DTD SVG 1.1//EN" "http://www.w3.org/Graphics/SVG/1.1/DTD/svg11.dtd">
<svg version="1.1" id="Ebene_1" xmlns="http://www.w3.org/2000/svg" xmlns:xlink="http://www.w3.org/1999/xlink" x="0px" y="0px"
	 viewBox="0 0 16 16" style="enable-background:new 0 0 16 16;" xml:space="preserve">
<style type="text/css">
	.st0{fill:#FFFFFF;}
</style>
<g>
	<g>
		<path class="st0" d="M7,1C3.7,1,1,3.7,1,7c0,3.3,2.7,6,6,6s6-2.7,6-6C12.9,3.7,10.3,1,7,1z"/>
		<path d="M7,0C3.1,0,0,3.1,0,7c0,3.8,3.1,7,7,7c3.8,0,7-3.1,7-7C13.9,3.1,10.8,0,7,0z M7,12.9c-3.3,0-6-2.7-6-6c0-3.3,2.7-6,6-6
			s6,2.7,6,6C12.9,10.2,10.3,12.9,7,12.9z"/>
	</g>
	<polygon points="7.5,7.5 2.9,7.5 2.9,6.5 6.5,6.5 6.5,1.6 7.5,1.6 	"/>
</g>
<g>
	<g>
		<rect x="8.7" y="8.7" class="st0" width="6.3" height="6.3"/>
		<path d="M7.7,7.7V16H16V7.7H7.7z M15,15H8.7V8.7H15V15z"/>
	</g>
	<rect x="10" y="9.6" width="3.7" height="1"/>
	<rect x="10" y="11.3" width="3.7" height="1"/>
	<rect x="10" y="13.1" width="3.7" height="1"/>
</g>
</svg>
