<?xml version="1.0" encoding="utf-8"?>
<!-- Generator: Adobe Illustrator 19.1.0, SVG Export Plug-In . SVG Version: 6.00 Build 0)  -->
<!DOCTYPE svg PUBLIC "-//W3C//DTD SVG 1.1//EN" "http://www.w3.org/Graphics/SVG/1.1/DTD/svg11.dtd">
<svg version="1.1" id="Ebene_1" xmlns="http://www.w3.org/2000/svg" xmlns:xlink="http://www.w3.org/1999/xlink" x="0px" y="0px"
	 viewBox="-412 290.3 16 16" style="enable-background:new -412 290.3 16 16;" xml:space="preserve">
<style type="text/css">
	.st0{enable-background:new    ;}
	.st1{fill:#FFFFFF;}
	.st2{fill:#E4E4E4;}
	.st3{fill:#88D8EA;}
</style>
<g class="st0">
	<rect x="-411.5" y="290.8" class="st1" width="5.6" height="15"/>
	<path class="st2" d="M-405.4,306.3h-6.6v-16h6.6V306.3z M-411,305.3h4.6v-14h-4.6V305.3z"/>
</g>
<g class="st0">
	<rect x="-411.5" y="290.8" class="st1" width="15" height="5.6"/>
	<path class="st2" d="M-396,296.9h-16v-6.6h16V296.9z M-411,295.9h14v-4.6h-14V295.9z"/>
</g>
<g>
	<polygon points="-401.2,300.2 -398.6,296 -399.3,295.6 -401.6,299.5 -406.7,295.5 -407.2,296.1 -402.2,300.1 -406.6,303 
		-406.2,303.6 -401.2,300.3 	"/>
	<g class="st0">
		<g>
			<path class="st3" d="M-407,298.3c1.4,0,2.5-1.1,2.5-2.5s-1.1-2.5-2.5-2.5s-2.5,1.2-2.5,2.5S-408.4,298.3-407,298.3z"/>
			<path d="M-407,298.8c-1.6,0-3-1.4-3-3s1.4-3,3-3c1.7,0,3,1.4,3,3S-405.3,298.8-407,298.8z M-407,293.7c-1.1,0-2,0.9-2,2
				s0.9,2,2,2c1.1,0,2-0.9,2-2S-405.8,293.7-407,293.7z"/>
		</g>
		<g>
			<path class="st3" d="M-398.9,293.2c-1.4,0-2.5,1.1-2.5,2.5s1.1,2.5,2.5,2.5s2.5-1.1,2.5-2.5S-397.5,293.2-398.9,293.2z"/>
			<path d="M-398.9,298.8c-1.7,0-3-1.4-3-3s1.4-3,3-3s3,1.4,3,3S-397.2,298.8-398.9,298.8z M-398.9,293.7c-1.1,0-2,0.9-2,2
				s0.9,2,2,2s2-0.9,2-2S-397.8,293.7-398.9,293.7z"/>
		</g>
		<g>
			<path class="st3" d="M-406.4,300.8c-1.4,0-2.5,1.1-2.5,2.5s1.1,2.5,2.5,2.5s2.5-1.1,2.5-2.5S-405.1,300.8-406.4,300.8z"/>
			<path d="M-406.4,306.4c-1.7,0-3-1.4-3-3s1.4-3,3-3c1.6,0,3,1.4,3,3C-403.4,305-404.7,306.4-406.4,306.4z M-406.4,301.3
				c-1.1,0-2,0.9-2,2s0.9,2,2,2s2-0.9,2-2C-404.4,302.3-405.3,301.3-406.4,301.3z"/>
		</g>
	</g>
	<circle cx="-401.5" cy="300.1" r="1.8"/>
</g>
</svg>
