<?xml version="1.0" encoding="utf-8"?>
<!-- Generator: Adobe Illustrator 19.1.0, SVG Export Plug-In . SVG Version: 6.00 Build 0)  -->
<!DOCTYPE svg PUBLIC "-//W3C//DTD SVG 1.1//EN" "http://www.w3.org/Graphics/SVG/1.1/DTD/svg11.dtd">
<svg version="1.1" id="Ebene_1" xmlns="http://www.w3.org/2000/svg" xmlns:xlink="http://www.w3.org/1999/xlink" x="0px" y="0px"
	 viewBox="-412 290.3 16 16" style="enable-background:new -412 290.3 16 16;" xml:space="preserve">
<style type="text/css">
	.st0{fill:#FFFFFF;}
	.st1{fill:#88D8EA;}
	.st2{fill:#F1933B;}
	.st3{fill:#1A171B;}
</style>
<g id="XMLID_7_">
	<polygon id="XMLID_9_" points="-402,298.3 -404.8,296.7 -404.8,297.9 -406.8,297.9 -406.8,298.7 -404.8,298.7 -404.8,299.9 	"/>
</g>
<polygon points="-408.2,305.3 -408.2,301.1 -408.2,299.2 -408.2,291.3 -412,291.3 -412,290.3 -407.2,290.3 -407.2,306.3 -412,306.3 
	-412,305.3 "/>
<g>
	<path class="st0" d="M-408.2,291.3v7.9c-0.2-0.1-1.8-1.1-3.8-0.8v-7.1H-408.2z"/>
	<path class="st1" d="M-408.2,299.2v1.9v4.2h-3.8v-6.9C-410,298.1-408.4,299.1-408.2,299.2z"/>
	<path class="st1" d="M-412,294.9c0.3,0.3,0.6,0.5,1.1,0.5c0.8,0,1.4-0.6,1.4-1.4c0-0.8-0.6-1.4-1.4-1.4c-0.5,0-0.8,0.2-1.1,0.5
		V294.9z"/>
</g>
<g>
	<rect x="-400.7" y="294.6" class="st0" width="2.2" height="3.1"/>
	<rect x="-400.7" y="298.7" class="st0" width="2.2" height="3.1"/>
	<polygon class="st0" points="-400.7,293.7 -396,293.7 -396,293.7 	"/>
	<rect x="-397.8" y="298.7" class="st0" width="1.8" height="3.1"/>
	<rect x="-397.8" y="294.6" class="st0" width="1.8" height="3.1"/>
	<rect x="-400.7" y="302.7" class="st0" width="2.2" height="2.6"/>
	<rect x="-397.8" y="302.7" class="st0" width="1.8" height="2.6"/>
	<polygon class="st2" points="-400.7,293.7 -400.6,293.7 -396,293.7 -396,291.2 -396,291.2 -400.7,291.2 	"/>
	<path class="st3" d="M-401.6,290.3v16h5.6v-0.5v-0.5h-1.8v-2.6h1.8v-0.9h-1.8v-3.1h1.8v-1h-1.8v-3.1h1.8v-0.9h-4.7l0,0l0,0v-2.5
		h4.7v-0.4v-0.5H-401.6z M-400.7,294.6h2.2v3.1h-2.2V294.6z M-400.7,298.7h2.2v3.1h-2.2V298.7z M-400.7,302.7h2.2v2.6h-2.2V302.7z"
		/>
</g>
</svg>
