<?xml version="1.0" encoding="utf-8"?>
<!-- Generator: Adobe Illustrator 19.1.0, SVG Export Plug-In . SVG Version: 6.00 Build 0)  -->
<!DOCTYPE svg PUBLIC "-//W3C//DTD SVG 1.1//EN" "http://www.w3.org/Graphics/SVG/1.1/DTD/svg11.dtd">
<svg version="1.1" id="Ebene_1" xmlns="http://www.w3.org/2000/svg" xmlns:xlink="http://www.w3.org/1999/xlink" x="0px" y="0px"
	 viewBox="-7 9 16 16" style="enable-background:new -7 9 16 16;" xml:space="preserve">
<style type="text/css">
	.st0{fill:#FFD302;}
	.st1{fill:#E64E4F;}
</style>
<g>
	<path d="M4.5,12c0-0.4,0-0.8,0-1.2c0.1-1,0.9-1.7,1.9-1.7s1.8,0.7,1.9,1.7c0,0.4,0,0.8,0,1.2c0.2,0,0.3,0,0.5,0
		C8.9,12,9,12.1,9,12.3c0,1.1,0,2.2,0,3.4c0,0.2-0.1,0.2-0.3,0.2c-1.6,0-3.1,0-4.7,0c-0.2,0-0.3-0.1-0.3-0.3c0-1.1,0-2.2,0-3.3
		C3.7,12.1,3.8,12,4,12S4.3,12,4.5,12z M7.6,12c0-0.4,0-0.7,0-1.1c0-0.6-0.5-1.1-1-1.1C6,9.7,5.4,10.1,5.3,10.7
		c-0.1,0.4,0,0.8,0,1.3C6,12,6.8,12,7.6,12z"/>
</g>
<g>
	<g>
		<path d="M7,24v-4.1H3.8v-3H0.5V9h-4.3v4H-6V9h-1v16H9v-1H7z M-3.8,24H-6V14h2.2V24z M-0.5,16.9V24h-0.1h-2.2V13v-3h2.2h0.1
			C-0.5,10-0.5,16.9-0.5,16.9z M2.7,19.9V24H0.5v-6.1h2.2V19.9z M6,24H3.8v-3.2H6V24z"/>
		<rect x="-6" y="14" class="st0" width="2.2" height="10"/>
		<polygon class="st1" points="-2.8,10 -2.8,13 -2.8,24 -0.6,24 -0.5,24 -0.5,10 		"/>
		<rect x="3.8" y="20.8" class="st1" width="2.2" height="3.2"/>
		<rect x="0.5" y="17.9" class="st0" width="2.2" height="6.1"/>
	</g>
</g>
</svg>
