<?xml version="1.0" encoding="utf-8"?>
<!-- Generator: Adobe Illustrator 21.0.0, SVG Export Plug-In . SVG Version: 6.00 Build 0)  -->
<svg version="1.0" id="Ebene_1" xmlns="http://www.w3.org/2000/svg" xmlns:xlink="http://www.w3.org/1999/xlink" x="0px" y="0px"
	 viewBox="0 0 16 16" style="enable-background:new 0 0 16 16;" xml:space="preserve">
<style type="text/css">
	.st0{fill:#FFFFFF;}
	.st1{fill:#222221;}
	.st2{fill:#9B9A9A;}
</style>
<g>
	<g>
		<g>
			<rect x="1.3" y="1.2" class="st0" width="13.4" height="13.6"/>
			<path class="st1" d="M15.2,15.3H0.8V0.7h14.4V15.3z M1.8,14.3h12.4V1.7H1.8V14.3z"/>
		</g>
		<rect x="1.8" y="3.6" class="st1" width="13.4" height="1"/>
		<rect x="1.8" y="1.6" class="st2" width="12.4" height="2.1"/>
	</g>
	<g id="XMLID_404_">
		<path id="XMLID_407_" class="st1" d="M5,10.1l0.9-0.1c0.1,0.7,0.9,1,1.2,0.3c0.4-0.7-0.3-1.3-1-1.1l0.1-0.7c0.5,0,1-0.4,0.7-0.9
			c-0.4-0.5-1-0.1-1,0.4L5,7.8c0.2-1,1.2-1.6,2.1-1.1c0.9,0.5,0.9,1.6,0,2.1c1.2,0.2,1.1,1.7,0.3,2.3C6.5,11.8,5.1,11.2,5,10.1z"/>
		<path id="XMLID_405_" class="st1" d="M11,11.3h-0.9V7.9C9.7,8.2,9.4,8.4,8.9,8.6V7.8c0.6-0.2,1.1-0.6,1.3-1.2H11V11.3z"/>
	</g>
</g>
</svg>
