<?xml version="1.0" encoding="utf-8"?>
<!-- Generator: Adobe Illustrator 19.0.0, SVG Export Plug-In . SVG Version: 6.00 Build 0)  -->
<!DOCTYPE svg PUBLIC "-//W3C//DTD SVG 1.0//EN" "http://www.w3.org/TR/2001/REC-SVG-20010904/DTD/svg10.dtd">
<svg version="1.0" id="Ebene_1" xmlns="http://www.w3.org/2000/svg" xmlns:xlink="http://www.w3.org/1999/xlink" x="0px" y="0px"
	 viewBox="0 0 16 16" enable-background="new 0 0 16 16" xml:space="preserve">
<g>
	<path d="M6.8,6.8H5.6L5.1,5.5H2.8L2.3,6.8H1.1L3.3,1h1.2L6.8,6.8z M4.7,4.5L3.9,2.4L3.1,4.5H4.7z"/>
</g>
<g>
	<path d="M9.8,9.1h2.3c0.5,0,0.8,0,1,0.1c0.2,0,0.4,0.1,0.6,0.2c0.2,0.1,0.3,0.3,0.4,0.5s0.2,0.4,0.2,0.7c0,0.3-0.1,0.5-0.2,0.7
		c-0.1,0.2-0.3,0.4-0.6,0.5c0.3,0.1,0.6,0.3,0.8,0.5c0.2,0.2,0.3,0.5,0.3,0.9c0,0.3-0.1,0.5-0.2,0.8s-0.3,0.4-0.5,0.6
		c-0.2,0.1-0.5,0.2-0.8,0.3c-0.2,0-0.7,0-1.4,0H9.8V9.1z M10.9,10.1v1.3h0.8c0.5,0,0.7,0,0.8,0c0.2,0,0.4-0.1,0.5-0.2
		s0.2-0.3,0.2-0.4c0-0.2,0-0.3-0.1-0.4c-0.1-0.1-0.2-0.2-0.4-0.2c-0.1,0-0.4,0-1,0H10.9z M10.9,12.3v1.5H12c0.4,0,0.7,0,0.8,0
		c0.2,0,0.3-0.1,0.4-0.2s0.2-0.3,0.2-0.5c0-0.2,0-0.3-0.1-0.4c-0.1-0.1-0.2-0.2-0.4-0.3s-0.5-0.1-1-0.1H10.9z"/>
</g>
<polygon id="XMLID_19_" points="13.1,5 13.1,1.9 13.1,1.9 13.1,1.9 7.3,1.9 7.3,2.6 12.3,2.6 12.3,5 11.1,5 12.7,7.8 14.4,5 "/>
<polygon id="XMLID_1_" points="2.7,10.8 2.7,13.9 2.7,13.9 2.7,14 8.5,14 8.5,13.2 3.4,13.2 3.4,10.8 4.7,10.8 3,8 1.4,10.8 "/>
</svg>
