<?xml version="1.0" encoding="utf-8"?>
<!-- Generator: Adobe Illustrator 19.1.0, SVG Export Plug-In . SVG Version: 6.00 Build 0)  -->
<!DOCTYPE svg PUBLIC "-//W3C//DTD SVG 1.1//EN" "http://www.w3.org/Graphics/SVG/1.1/DTD/svg11.dtd">
<svg version="1.1" id="Ebene_1" xmlns="http://www.w3.org/2000/svg" xmlns:xlink="http://www.w3.org/1999/xlink" x="0px" y="0px"
	 viewBox="-289 412.9 16 16" style="enable-background:new -289 412.9 16 16;" xml:space="preserve">
<style type="text/css">
	.st0{fill:#4EAF75;enable-background:new    ;}
	.st1{fill:#E64E4F;}
</style>
<g id="XMLID_15_">
	<path id="XMLID_16_" d="M-285.3,417.3v-1.7c0.6-0.7,1.4-1,2.3-1c0.3,0,0.7,0,1.1,0.1s0.9,0.3,1.6,0.6c0.4,0.2,1.3,0.4,1.5,0.4
		c0.4,0,0.7-0.1,1.1-0.3c0.4-0.2,0.7-0.5,1-0.8v1.8c-0.3,0.3-0.7,0.5-1,0.7c-0.4,0.2-0.8,0.2-1.2,0.2c-0.3,0-1.8-0.4-2.5-0.7
		c-0.7-0.3-1.2-0.4-1.7-0.4c-0.4,0-0.7,0.1-1,0.2C-284.4,416.5-284.8,416.9-285.3,417.3z M-285.3,420.4v-1.8c0.6-0.7,1.4-1,2.3-1
		c0.3,0,0.7,0,1.1,0.1c0.4,0.2,0.9,0.4,1.6,0.7c0.4,0.2,1.3,0.4,1.5,0.4c0.4,0,0.7-0.1,1.1-0.3c0.4-0.2,0.7-0.5,1-0.8v1.8
		c-0.4,0.3-0.7,0.6-1.1,0.7c-0.4,0.2-0.8,0.2-1.2,0.2c-0.3,0-1.7-0.4-2.4-0.7c-0.7-0.3-1.2-0.5-1.7-0.5c-0.4,0-0.7,0.1-1,0.2
		C-284.4,419.6-284.8,419.9-285.3,420.4z"/>
</g>
<path id="XMLID_4_" class="st0" d="M-286.8,427.6h-1V424c-0.4,0.3-0.8,0.6-1.2,0.7v-0.8c0.3-0.1,0.5-0.2,0.8-0.5
	c0.3-0.2,0.5-0.5,0.6-0.8h0.8V427.6z"/>
<path id="XMLID_6_" class="st0" d="M-286,427.6v-1h1v1H-286z"/>
<path id="XMLID_8_" class="st0" d="M-282.3,427.6v-1h-2v-0.8l2.2-3.2h0.8v3.2h0.6v0.8h-0.6v1H-282.3z M-282.3,425.8v-1.7l-1.2,1.7
	H-282.3z"/>
<path id="XMLID_11_" class="st1" d="M-276.9,426.7v0.9h-3.3c0-0.3,0.1-0.7,0.3-1c0.2-0.3,0.5-0.7,1.1-1.2c0.4-0.4,0.7-0.7,0.8-0.8
	c0.1-0.2,0.2-0.4,0.2-0.6c0-0.2-0.1-0.4-0.2-0.5s-0.3-0.2-0.5-0.2s-0.4,0.1-0.5,0.2c-0.1,0.1-0.2,0.4-0.2,0.7l-1-0.1
	c0.1-0.5,0.2-0.9,0.5-1.1c0.3-0.2,0.7-0.3,1.1-0.3c0.5,0,0.9,0.1,1.2,0.4c0.3,0.3,0.4,0.6,0.4,1c0,0.2,0,0.4-0.1,0.6
	s-0.2,0.4-0.4,0.6c-0.1,0.1-0.3,0.4-0.6,0.6c-0.3,0.3-0.5,0.5-0.6,0.6c-0.1,0.1-0.1,0.2-0.2,0.3h2
	C-276.9,426.8-276.9,426.7-276.9,426.7z"/>
<path id="XMLID_13_" class="st1" d="M-276.4,426.3l0.9-0.1c0,0.2,0.1,0.4,0.2,0.5c0.1,0.1,0.3,0.2,0.5,0.2c0.2,0,0.4-0.1,0.5-0.2
	c0.1-0.1,0.2-0.4,0.2-0.6s0-0.3-0.1-0.5c-0.1-0.2-0.4-0.3-0.6-0.3c-0.1,0-0.3,0.1-0.3,0.1v-0.8c0.3,0,0.4-0.1,0.6-0.2
	c0.1-0.1,0.2-0.3,0.2-0.5c0-0.2,0-0.6-0.6-0.6c-0.2,0-0.3,0.1-0.4,0.2c-0.1,0.1-0.2,0.3-0.2,0.5l-0.8-0.1c0.1-0.3,0.2-0.5,0.3-0.7
	c0.2-0.4,0.9-0.6,1.2-0.6c0.5,0,0.8,0.2,1.1,0.5c0.2,0.2,0.4,0.5,0.4,0.8c0,0.4-0.2,0.8-0.7,1.1c0.3,0.1,0.5,0.2,0.7,0.4
	c0.2,0.2,0.3,0.5,0.3,0.8c0,0.4-0.2,0.8-0.5,1.1c-0.3,0.3-0.7,0.5-1.2,0.5s-0.8-0.1-1.1-0.4C-276.2,427.1-276.4,426.7-276.4,426.3z"
	/>
</svg>
