<?xml version="1.0" encoding="utf-8"?>
<!-- Generator: Adobe Illustrator 19.0.0, SVG Export Plug-In . SVG Version: 6.00 Build 0)  -->
<!DOCTYPE svg PUBLIC "-//W3C//DTD SVG 1.1//EN" "http://www.w3.org/Graphics/SVG/1.1/DTD/svg11.dtd">
<svg version="1.1" id="Ebene_1" xmlns="http://www.w3.org/2000/svg" xmlns:xlink="http://www.w3.org/1999/xlink" x="0px" y="0px"
	 viewBox="0 0 16 16" style="enable-background:new 0 0 16 16;" xml:space="preserve">
<style type="text/css">
	.st0{fill:#FFFFFF;}
</style>
<g>
	<g>
		<path class="st0" d="M8,2C4.7,2,2,4.7,2,8c0,3.3,2.7,6,6,6s6-2.7,6-6C14,4.7,11.3,2,8,2z"/>
		<path d="M8,1C4.2,1,1,4.1,1,8c0,3.8,3.1,7,7,7c3.8,0,7-3.1,7-7C15,4.1,11.8,1,8,1z M8,14c-3.3,0-6-2.7-6-6c0-3.3,2.7-6,6-6
			s6,2.7,6,6C14,11.3,11.3,14,8,14z"/>
	</g>
	<polygon points="8.5,8.5 4,8.5 4,7.5 7.5,7.5 7.5,2.6 8.5,2.6 	"/>
</g>
</svg>
