<?xml version="1.0" encoding="utf-8"?>
<!-- Generator: Adobe Illustrator 19.0.0, SVG Export Plug-In . SVG Version: 6.00 Build 0)  -->
<!DOCTYPE svg PUBLIC "-//W3C//DTD SVG 1.0//EN" "http://www.w3.org/TR/2001/REC-SVG-20010904/DTD/svg10.dtd">
<svg version="1.0" id="Ebene_1" xmlns="http://www.w3.org/2000/svg" xmlns:xlink="http://www.w3.org/1999/xlink" x="0px" y="0px"
	 viewBox="0 0 16 16" enable-background="new 0 0 16 16" xml:space="preserve">
<polygon id="XMLID_19_" points="5.7,11.6 2.6,11.6 2.6,11.6 2.5,11.6 2.5,8.5 3.3,8.5 3.3,10.9 5.7,10.9 5.7,9.6 8.5,11.3 5.7,12.9 
	"/>
<path d="M1.9,6.4l1.9-2.7L2,1.3h1.7l0.9,1.4l1-1.4h1.6L5.4,3.7l1.9,2.7H5.7L4.6,4.8L3.5,6.4H1.9z"/>
<path d="M9.3,14.4V7.2h2.3c0.9,0,1.5,0,1.7,0.1c0.4,0.1,0.8,0.3,1,0.7c0.3,0.4,0.4,0.8,0.4,1.4c0,0.4-0.1,0.8-0.2,1.1
	c-0.2,0.3-0.4,0.5-0.6,0.7c-0.2,0.2-0.5,0.3-0.7,0.3c-0.3,0.1-0.8,0.1-1.5,0.1h-0.9v2.7H9.3z M10.7,8.4v2h0.8c0.6,0,0.9,0,1.1-0.1
	c0.2-0.1,0.3-0.2,0.5-0.4c0.1-0.2,0.2-0.3,0.2-0.6c0-0.3-0.1-0.5-0.2-0.6c-0.2-0.2-0.3-0.3-0.6-0.3c-0.2,0-0.5,0-1,0H10.7z"/>
</svg>
