<?xml version="1.0" encoding="utf-8"?>
<!-- Generator: Adobe Illustrator 19.0.0, SVG Export Plug-In . SVG Version: 6.00 Build 0)  -->
<!DOCTYPE svg PUBLIC "-//W3C//DTD SVG 1.1//EN" "http://www.w3.org/Graphics/SVG/1.1/DTD/svg11.dtd">
<svg version="1.1" id="Ebene_1" xmlns="http://www.w3.org/2000/svg" xmlns:xlink="http://www.w3.org/1999/xlink" x="0px" y="0px"
	 viewBox="0 0 16 16" style="enable-background:new 0 0 16 16;" xml:space="preserve">
<path d="M5.5,9.1L0.3,3.9c-0.4-0.4-0.4-1,0-1.4s1-0.4,1.4,0L7.3,8h4.4c0.6,0,1,0.4,1,1c0,0.6-0.4,1-1,1H7.4l-5.7,5.7
	C1.5,15.9,1.3,16,1,16s-0.5-0.1-0.7-0.3c-0.4-0.4-0.4-1,0-1.4L5.5,9.1z"/>
<g>
	<path d="M10.9,1.3V0.2h1.2v1.1H10.9z M10.9,6.6V2h1.2v4.7H10.9z"/>
	<path d="M12.9,2h0.7V1.6c0-1.4,1.2-1.8,2.5-1.4l-0.2,0.9C15.3,1,14.8,1,14.8,1.6V2h0.9v1h-0.9v3.7h-1.2V2.9h-0.7V2z"/>
</g>
</svg>
