<?xml version="1.0" encoding="utf-8"?>
<!-- Generator: Adobe Illustrator 19.1.0, SVG Export Plug-In . SVG Version: 6.00 Build 0)  -->
<!DOCTYPE svg PUBLIC "-//W3C//DTD SVG 1.1//EN" "http://www.w3.org/Graphics/SVG/1.1/DTD/svg11.dtd">
<svg version="1.1" id="Ebene_1" xmlns="http://www.w3.org/2000/svg" xmlns:xlink="http://www.w3.org/1999/xlink" x="0px" y="0px"
	 viewBox="-289 412.9 16 16" style="enable-background:new -289 412.9 16 16;" xml:space="preserve">
<style type="text/css">
	.st0{fill:#F1933B;}
</style>
<path class="st0" d="M-283.5,422l-5.2-5.2c-0.4-0.4-0.4-1,0-1.4s1-0.4,1.4,0l5.6,5.5h4.4c0.6,0,1,0.4,1,1s-0.4,1-1,1h-4.3l-5.7,5.7
	c-0.2,0.2-0.4,0.3-0.7,0.3s-0.5-0.1-0.7-0.3c-0.4-0.4-0.4-1,0-1.4L-283.5,422z"/>
<g>
	<path d="M-278.1,414.2v-1.1h1.2v1.1H-278.1z M-278.1,419.5v-4.6h1.2v4.7h-1.2V419.5z"/>
	<path d="M-276.1,414.9h0.7v-0.4c0-1.4,1.2-1.8,2.5-1.4l-0.2,0.9c-0.6-0.1-1.1-0.1-1.1,0.5v0.4h0.9v1h-0.9v3.7h-1.2v-3.8h-0.7
		C-276.1,415.8-276.1,414.9-276.1,414.9z"/>
</g>
</svg>
