<?xml version="1.0" encoding="utf-8"?>
<!-- Generator: Adobe Illustrator 19.0.0, SVG Export Plug-In . SVG Version: 6.00 Build 0)  -->
<!DOCTYPE svg PUBLIC "-//W3C//DTD SVG 1.1//EN" "http://www.w3.org/Graphics/SVG/1.1/DTD/svg11.dtd">
<svg version="1.1" id="Ebene_1" xmlns="http://www.w3.org/2000/svg" xmlns:xlink="http://www.w3.org/1999/xlink" x="0px" y="0px"
	 viewBox="0 0 16 16" style="enable-background:new 0 0 16 16;" xml:space="preserve">
<style type="text/css">
	.st0{fill:#FFFFFF;}
	.st1{fill:#CBCBCB;}
</style>
<g id="XMLID_197_">
	<rect id="XMLID_236_" x="8" y="7.1" class="st0" width="2.6" height="2.5"/>
	<rect id="XMLID_235_" x="4.5" y="3.5" class="st0" width="2.4" height="2.6"/>
	<rect id="XMLID_234_" x="1" y="7.1" class="st0" width="2.5" height="2.5"/>
	<rect id="XMLID_233_" x="8" y="3.5" class="st0" width="2.6" height="2.6"/>
	<rect id="XMLID_232_" x="4.5" y="7.1" class="st0" width="2.4" height="2.5"/>
	<rect id="XMLID_231_" x="1" y="3.5" class="st0" width="2.5" height="2.6"/>
	<path id="XMLID_219_" d="M0,0v10.6h11.5V0H0z M3.5,9.6H1V7.1h2.5V9.6z M3.5,6.1H1V3.5h2.5V6.1z M7,9.6H4.5V7.1H7V9.6z M7,6.1H4.5
		V3.5H7V6.1z M10.5,9.6H8V7.1h2.6V9.6z M10.5,6.1H8V3.5h2.6V6.1z M10.7,2.7H0.8V0.8h9.9V2.7z"/>
	<rect id="XMLID_198_" x="0.8" y="0.8" class="st1" width="9.9" height="1.9"/>
</g>
<g>
	<rect x="-1.1" y="8.3" transform="matrix(0.7161 -0.698 0.698 0.7161 -3.6882 8.5286)" width="19.6" height="1"/>
	<rect x="8.1" y="2" transform="matrix(0.3937 -0.9192 0.9192 0.3937 -3.6152 13.7832)" class="st1" width="1" height="15.3"/>
</g>
</svg>
