<?xml version="1.0" encoding="utf-8"?>
<!-- Generator: Adobe Illustrator 19.1.0, SVG Export Plug-In . SVG Version: 6.00 Build 0)  -->
<!DOCTYPE svg PUBLIC "-//W3C//DTD SVG 1.1//EN" "http://www.w3.org/Graphics/SVG/1.1/DTD/svg11.dtd">
<svg version="1.1" id="Ebene_1" xmlns="http://www.w3.org/2000/svg" xmlns:xlink="http://www.w3.org/1999/xlink" x="0px" y="0px"
	 viewBox="-412 290.3 16 16" style="enable-background:new -412 290.3 16 16;" xml:space="preserve">
<style type="text/css">
	.st0{fill:#FFFFFF;}
	.st1{fill:#F1933B;}
	.st2{fill:#E64E4F;}
	.st3{fill:#4BA1BF;}
</style>
<g id="XMLID_197_">
	<rect id="XMLID_236_" x="-404" y="297.4" class="st0" width="2.6" height="2.5"/>
	<rect id="XMLID_235_" x="-407.5" y="293.8" class="st0" width="2.4" height="2.6"/>
	<rect id="XMLID_234_" x="-411" y="297.4" class="st0" width="2.5" height="2.5"/>
	<rect id="XMLID_233_" x="-404" y="293.8" class="st0" width="2.6" height="2.6"/>
	<rect id="XMLID_232_" x="-407.5" y="297.4" class="st0" width="2.4" height="2.5"/>
	<rect id="XMLID_231_" x="-411" y="293.8" class="st0" width="2.5" height="2.6"/>
	<path id="XMLID_219_" d="M-412,290.3v10.6h11.5v-10.6H-412z M-408.5,299.9h-2.5v-2.5h2.5V299.9z M-408.5,296.4h-2.5v-2.6h2.5V296.4
		z M-405,299.9h-2.5v-2.5h2.5V299.9z M-405,296.4h-2.5v-2.6h2.5V296.4z M-401.5,299.9h-2.5v-2.5h2.6v2.5H-401.5z M-401.5,296.4h-2.5
		v-2.6h2.6v2.6H-401.5z M-401.3,293h-9.9v-1.9h9.9V293z"/>
	<rect id="XMLID_198_" x="-411.2" y="291.1" class="st1" width="9.9" height="1.9"/>
</g>
<rect x="-413.1" y="298.6" transform="matrix(0.7161 -0.698 0.698 0.7161 -323.2561 -196.6204)" class="st2" width="19.6" height="1"/>
<rect x="-403.9" y="292.3" transform="matrix(0.3937 -0.9192 0.9192 0.3937 -520.2634 -188.9417)" class="st3" width="1" height="15.3"/>
</svg>
