<?xml version="1.0" encoding="utf-8"?>
<!-- Generator: Adobe Illustrator 19.0.0, SVG Export Plug-In . SVG Version: 6.00 Build 0)  -->
<!DOCTYPE svg PUBLIC "-//W3C//DTD SVG 1.1//EN" "http://www.w3.org/Graphics/SVG/1.1/DTD/svg11.dtd">
<svg version="1.1" id="Ebene_1" xmlns="http://www.w3.org/2000/svg" xmlns:xlink="http://www.w3.org/1999/xlink" x="0px" y="0px"
	 viewBox="0 0 16 16" style="enable-background:new 0 0 16 16;" xml:space="preserve">
<style type="text/css">
	.st0{fill:none;}
</style>
<g>
	<path class="st0" d="M7.4,2.1C4.1,2.1,1.5,4.7,1.5,8c0,3.2,2.6,5.9,5.9,5.9c3.2,0,5.9-2.6,5.9-5.9C13.3,4.7,10.6,2.1,7.4,2.1z"/>
	<path d="M7.4,0.6C3.3,0.6,0,3.9,0,8c0,4.1,3.3,7.4,7.4,7.4c4.1,0,7.4-3.3,7.4-7.4C14.8,3.9,11.5,0.6,7.4,0.6z M7.4,13.9
		c-3.2,0-5.9-2.6-5.9-5.9c0-3.2,2.6-5.9,5.9-5.9c3.2,0,5.9,2.6,5.9,5.9C13.3,11.2,10.6,13.9,7.4,13.9z"/>
</g>
<g>
	<rect x="11.2" y="5.6" width="4.8" height="4.8"/>
</g>
<g id="XMLID_99_">
	<path id="XMLID_100_" d="M6.5,10.9l-2-5.7h1.3l1.4,4.2l1.4-4.2h1.2l-2.1,5.7H6.5z"/>
</g>
</svg>
