<?xml version="1.0" encoding="utf-8"?>
<!-- Generator: Adobe Illustrator 19.0.0, SVG Export Plug-In . SVG Version: 6.00 Build 0)  -->
<!DOCTYPE svg PUBLIC "-//W3C//DTD SVG 1.1//EN" "http://www.w3.org/Graphics/SVG/1.1/DTD/svg11.dtd">
<svg version="1.1" id="Ebene_1" xmlns="http://www.w3.org/2000/svg" xmlns:xlink="http://www.w3.org/1999/xlink" x="0px" y="0px"
	 viewBox="0 0 16 16" style="enable-background:new 0 0 16 16;" xml:space="preserve">
<polygon points="1.6,15 4,12.8 4,13.7 5,13.7 5,11.9 6.3,10.7 6.3,12.9 7.3,12.9 7.3,9.7 7.5,9.5 7.5,10.1 8.5,10.1 8.5,8.6 
	10.6,6.7 10.6,13.1 11.6,13.1 11.6,5.8 12,5.5 12,10.1 13,10.1 13,4.6 15,2.7 15,3.4 16,3.4 16,0 15,0 15,1.4 11.6,4.4 11.6,1.5 
	10.6,1.5 10.6,5.3 8.5,7.2 8.5,2.1 7.5,2.1 7.5,8.2 7.3,8.4 7.3,6.8 6.3,6.8 6.3,9.3 5,10.5 5,7.9 4,7.9 4,11.4 1,14.1 1,0 0,0 
	0,16 16,16 16,15 "/>
</svg>
