<?xml version="1.0" encoding="utf-8"?>
<!-- Generator: Adobe Illustrator 19.1.0, SVG Export Plug-In . SVG Version: 6.00 Build 0)  -->
<!DOCTYPE svg PUBLIC "-//W3C//DTD SVG 1.1//EN" "http://www.w3.org/Graphics/SVG/1.1/DTD/svg11.dtd">
<svg version="1.1" id="Ebene_1" xmlns="http://www.w3.org/2000/svg" xmlns:xlink="http://www.w3.org/1999/xlink" x="0px" y="0px"
	 viewBox="-289 412.9 16 16" style="enable-background:new -289 412.9 16 16;" xml:space="preserve">
<style type="text/css">
	.st0{fill:#F1933B;}
	.st1{fill:#FFFFFF;}
</style>
<g id="XMLID_1_">
	<polygon id="XMLID_2_" class="st0" points="-288,422.9 -284,422.9 -274,422.9 -274,418.9 -288,418.9 	"/>
	<rect id="XMLID_20_" x="-288" y="413.9" class="st1" width="4" height="4"/>
	<rect id="XMLID_31_" x="-283" y="413.9" class="st1" width="4" height="4"/>
	<rect id="XMLID_32_" x="-278" y="413.9" class="st1" width="4" height="4"/>
	<rect id="XMLID_33_" x="-288" y="423.9" class="st1" width="4" height="4"/>
	<path id="XMLID_7_" d="M-273,412.9h-16v16h16V412.9z M-283,413.9h4v4h-4V413.9z M-288,413.9h4v4h-4V413.9z M-284,427.9h-4v-4h4
		V427.9z M-288,422.9v-4h14v4h-10H-288z M-279,427.9h-4v-4h4V427.9z M-274,427.9h-4v-4h4V427.9z M-274,417.9h-4v-4h4V417.9z"/>
	<rect id="XMLID_39_" x="-283" y="423.9" class="st1" width="4" height="4"/>
	<rect id="XMLID_40_" x="-278" y="423.9" class="st1" width="4" height="4"/>
</g>
</svg>
