<?xml version="1.0" encoding="utf-8"?>
<!-- Generator: Adobe Illustrator 19.0.0, SVG Export Plug-In . SVG Version: 6.00 Build 0)  -->
<!DOCTYPE svg PUBLIC "-//W3C//DTD SVG 1.1//EN" "http://www.w3.org/Graphics/SVG/1.1/DTD/svg11.dtd">
<svg version="1.1" id="Ebene_1" xmlns="http://www.w3.org/2000/svg" xmlns:xlink="http://www.w3.org/1999/xlink" x="0px" y="0px"
	 viewBox="0 0 32 12" style="enable-background:new 0 0 32 12;" xml:space="preserve">
<style type="text/css">
	.st0{fill:#BDBDBD;enable-background:new    ;}
	.st1{enable-background:new    ;}
	.st2{fill:#F2F1F1;}
	.st3{fill:#BDBDBD;}
</style>
<path id="XMLID_111_" class="st0" d="M29.9,12H2.1C1,12,0,11,0,9.9V2.1C0,1,1,0,2.1,0h27.7C31,0,32,1,32,2.1v7.7
	C32,11,31,12,29.9,12z"/>
<g id="XMLID_95_">
	<g id="XMLID_93_" class="st1">
		<circle id="XMLID_89_" class="st2" cx="25.8" cy="6" r="4"/>
		<path id="XMLID_90_" class="st3" d="M25.8,10.2c-2.3,0-4.2-1.9-4.2-4.2s1.9-4.2,4.2-4.2s4.2,1.9,4.2,4.2S28.1,10.2,25.8,10.2z
			 M25.8,2.3C23.7,2.3,22,3.9,22,6s1.7,3.7,3.7,3.7c2.1,0,3.7-1.7,3.7-3.7S27.8,2.3,25.8,2.3z"/>
	</g>
	<g id="XMLID_88_" class="st1">
		<circle id="XMLID_84_" class="st2" cx="16" cy="6" r="4"/>
		<path id="XMLID_85_" class="st3" d="M16,10.2c-2.3,0-4.2-1.9-4.2-4.2s1.9-4.2,4.2-4.2s4.2,1.9,4.2,4.2S18.3,10.2,16,10.2z M16,2.3
			c-2.1,0-3.7,1.7-3.7,3.7s1.7,3.7,3.7,3.7s3.7-1.7,3.7-3.7S18.1,2.3,16,2.3z"/>
	</g>
	<g id="XMLID_83_" class="st1">
		<circle id="XMLID_79_" class="st2" cx="6.2" cy="6" r="4"/>
		<path id="XMLID_80_" class="st3" d="M6.2,10.2c-2.3,0-4.2-1.9-4.2-4.2s1.9-4.2,4.2-4.2c2.3,0,4.2,1.9,4.2,4.2S8.5,10.2,6.2,10.2z
			 M6.2,2.3C4.2,2.3,2.5,3.9,2.5,6s1.7,3.7,3.7,3.7S10,8.1,10,6S8.3,2.3,6.2,2.3z"/>
	</g>
</g>
</svg>
