<?xml version="1.0" encoding="utf-8"?>
<!-- Generator: Adobe Illustrator 19.0.0, SVG Export Plug-In . SVG Version: 6.00 Build 0)  -->
<!DOCTYPE svg PUBLIC "-//W3C//DTD SVG 1.1//EN" "http://www.w3.org/Graphics/SVG/1.1/DTD/svg11.dtd">
<svg version="1.1" id="Ebene_1" xmlns="http://www.w3.org/2000/svg" xmlns:xlink="http://www.w3.org/1999/xlink" x="0px" y="0px"
	 viewBox="0 0 32 12" style="enable-background:new 0 0 32 12;" xml:space="preserve">
<style type="text/css">
	.st0{fill:#BDBDBD;}
	.st1{fill:#F2F1F1;}
	.st2{fill:#E64F51;}
	.st3{fill:#CC091C;}
</style>
<g id="XMLID_83_">
	<path id="XMLID_85_" class="st0" d="M30.1,0H1.9C0.8,0,0,0.8,0,1.9v8.2c0,1,0.8,1.9,1.9,1.9h28.2c1,0,1.9-0.8,1.9-1.9V1.9
		C32,0.8,31.2,0,30.1,0z"/>
	<circle id="XMLID_89_" class="st1" cx="25.8" cy="6" r="4"/>
	<circle id="XMLID_84_" class="st1" cx="16" cy="6" r="4"/>
	<circle id="XMLID_79_" class="st2" cx="6.2" cy="6" r="4"/>
	<path id="XMLID_80_" class="st3" d="M6.2,10.2c-2.3,0-4.2-1.9-4.2-4.2s1.9-4.2,4.2-4.2c2.3,0,4.2,1.9,4.2,4.2S8.5,10.2,6.2,10.2z
		 M6.2,2.3C4.2,2.3,2.5,3.9,2.5,6s1.7,3.7,3.7,3.7S10,8.1,10,6S8.3,2.3,6.2,2.3z"/>
</g>
</svg>
