<?xml version="1.0" encoding="utf-8"?>
<!-- Generator: Adobe Illustrator 19.0.0, SVG Export Plug-In . SVG Version: 6.00 Build 0)  -->
<!DOCTYPE svg PUBLIC "-//W3C//DTD SVG 1.1//EN" "http://www.w3.org/Graphics/SVG/1.1/DTD/svg11.dtd">
<svg version="1.1" id="Ebene_1" xmlns="http://www.w3.org/2000/svg" xmlns:xlink="http://www.w3.org/1999/xlink" x="0px" y="0px"
	 viewBox="0 0 32 12" style="enable-background:new 0 0 32 12;" xml:space="preserve">
<style type="text/css">
	.st0{fill:#BDBDBD;}
	.st1{fill:#D1E545;}
	.st2{fill:#798C22;}
	.st3{fill:#F2F1F1;}
</style>
<path id="XMLID_81_" class="st0" d="M30.1,0H1.9C0.8,0,0,0.8,0,1.9v8.2c0,1,0.8,1.9,1.9,1.9h28.2c1,0,1.9-0.8,1.9-1.9V1.9
	C32,0.8,31.2,0,30.1,0z"/>
<circle id="XMLID_89_" class="st1" cx="25.8" cy="6" r="4"/>
<path id="XMLID_90_" class="st2" d="M25.8,10.2c-2.3,0-4.2-1.9-4.2-4.2s1.9-4.2,4.2-4.2s4.2,1.9,4.2,4.2S28.1,10.2,25.8,10.2z
	 M25.8,2.3C23.7,2.3,22,3.9,22,6s1.7,3.7,3.7,3.7c2.1,0,3.7-1.7,3.7-3.7S27.8,2.3,25.8,2.3z"/>
<circle id="XMLID_84_" class="st3" cx="16" cy="6" r="4"/>
<circle id="XMLID_79_" class="st3" cx="6.2" cy="6" r="4"/>
</svg>
