<?xml version="1.0" encoding="utf-8"?>
<!-- Generator: Adobe Illustrator 19.0.0, SVG Export Plug-In . SVG Version: 6.00 Build 0)  -->
<!DOCTYPE svg PUBLIC "-//W3C//DTD SVG 1.1//EN" "http://www.w3.org/Graphics/SVG/1.1/DTD/svg11.dtd">
<svg version="1.1" id="Ebene_1" xmlns="http://www.w3.org/2000/svg" xmlns:xlink="http://www.w3.org/1999/xlink" x="0px" y="0px"
	 viewBox="0 0 32 32" style="enable-background:new 0 0 32 32;" xml:space="preserve">
<style type="text/css">
	.st0{enable-background:new    ;}
	.st1{fill:#E64F51;}
	.st2{fill:#CC091C;}
</style>
<g id="XMLID_6_" class="st0">
	<path id="XMLID_2_" class="st1" d="M31,28.9L18,16L31,3.1c0.3-0.3,0.4-0.7,0.4-1S31.2,1.3,31,1c-0.6-0.6-1.5-0.6-2.1,0L15.9,13.9
		L3.1,1.1C2.6,0.5,1.6,0.5,1,1.1C0.5,1.7,0.5,2.6,1,3.2L13.9,16L1,28.8c-0.6,0.6-0.6,1.5,0,2.1c0.6,0.6,1.5,0.6,2.1,0l12.8-12.8
		l13,13c0.3,0.3,0.7,0.4,1,0.4c0.4,0,0.8-0.1,1-0.4C31.6,30.4,31.6,29.5,31,28.9z"/>
	<path id="XMLID_3_" class="st2" d="M29.9,31.7c-0.5,0-0.9-0.2-1.2-0.5L15.9,18.4L3.3,31.1c-0.6,0.7-1.8,0.7-2.4,0
		c-0.3-0.3-0.5-0.8-0.5-1.2s0.2-0.9,0.5-1.2L13.5,16L0.9,3.3C0.5,3,0.4,2.6,0.4,2.1s0.2-0.9,0.5-1.2c0.7-0.6,1.8-0.7,2.4,0
		l12.6,12.6L28.7,0.8c0.7-0.7,1.8-0.6,2.4,0c0.3,0.3,0.5,0.8,0.5,1.2c0,0.5-0.2,0.9-0.5,1.2L18.4,16l12.8,12.8
		c0.3,0.3,0.5,0.8,0.5,1.2c0,0.5-0.2,0.9-0.5,1.2S30.4,31.7,29.9,31.7z M15.9,17.7l13.1,13.1c0.5,0.5,1.3,0.5,1.7,0
		c0.2-0.2,0.4-0.5,0.4-0.9c0-0.3-0.1-0.6-0.4-0.9L17.7,16L30.8,2.9C31,2.6,31.1,2.3,31.1,2c0-0.3-0.1-0.6-0.4-0.9
		c-0.5-0.5-1.3-0.5-1.7,0L15.9,14.3L3,1.3c-0.5-0.5-1.3-0.5-1.7,0C1,1.5,0.9,1.8,0.9,2.1S1,2.8,1.2,3l13,13l-13,13
		c-0.2,0.2-0.4,0.5-0.4,0.9s0.1,0.6,0.4,0.9c0.5,0.5,1.3,0.5,1.7,0L15.9,17.7z"/>
</g>
</svg>
