<?xml version="1.0" encoding="UTF-8" standalone="no"?>
<!-- Generator: Adobe Illustrator 20.1.0, SVG Export Plug-In . SVG Version: 6.00 Build 0)  -->

<svg
   xmlns:dc="http://purl.org/dc/elements/1.1/"
   xmlns:cc="http://creativecommons.org/ns#"
   xmlns:rdf="http://www.w3.org/1999/02/22-rdf-syntax-ns#"
   xmlns:svg="http://www.w3.org/2000/svg"
   xmlns="http://www.w3.org/2000/svg"
   xmlns:sodipodi="http://sodipodi.sourceforge.net/DTD/sodipodi-0.dtd"
   xmlns:inkscape="http://www.inkscape.org/namespaces/inkscape"
   version="1.0"
   id="Ebene_1"
   x="0px"
   y="0px"
   viewBox="0 0 16 16"
   style="enable-background:new 0 0 16 16;"
   xml:space="preserve"
   inkscape:version="0.91 r13725"
   sodipodi:docname="editor_UI_settings.svg"><metadata
     id="metadata47"><rdf:RDF><cc:Work
         rdf:about=""><dc:format>image/svg+xml</dc:format><dc:type
           rdf:resource="http://purl.org/dc/dcmitype/StillImage" /></cc:Work></rdf:RDF></metadata><defs
     id="defs45" /><sodipodi:namedview
     pagecolor="#ffffff"
     bordercolor="#666666"
     borderopacity="1"
     objecttolerance="10"
     gridtolerance="10"
     guidetolerance="10"
     inkscape:pageopacity="0"
     inkscape:pageshadow="2"
     inkscape:window-width="960"
     inkscape:window-height="1030"
     id="namedview43"
     showgrid="false"
     inkscape:zoom="8.0944034"
     inkscape:cx="9.5692818"
     inkscape:cy="26.315525"
     inkscape:window-x="0"
     inkscape:window-y="27"
     inkscape:window-maximized="0"
     inkscape:current-layer="Ebene_1" /><style
     type="text/css"
     id="style3">
	.st0{fill:none;stroke:#C8CDD1;stroke-width:0.5;stroke-miterlimit:10;}
	.st1{fill:#FFFFFF;}
	.st2{fill:#222221;}
</style><g
     id="g5"
     inkscape:export-xdpi="308.62"
     inkscape:export-ydpi="308.62"><line
       class="st0"
       x1="2.9"
       y1="16"
       x2="2.9"
       y2="0"
       id="line7" /><line
       class="st0"
       x1="5.4"
       y1="16"
       x2="5.4"
       y2="0"
       id="line9" /><line
       class="st0"
       x1="8"
       y1="16"
       x2="8"
       y2="0"
       id="line11" /><line
       class="st0"
       x1="10.6"
       y1="16"
       x2="10.6"
       y2="0"
       id="line13" /><line
       class="st0"
       x1="13.1"
       y1="16"
       x2="13.1"
       y2="0"
       id="line15" /><line
       class="st0"
       x1="16"
       y1="13.1"
       x2="0"
       y2="13.1"
       id="line17" /><line
       class="st0"
       x1="16"
       y1="10.6"
       x2="0"
       y2="10.6"
       id="line19" /><line
       class="st0"
       x1="16"
       y1="8"
       x2="0"
       y2="8"
       id="line21" /><line
       class="st0"
       x1="16"
       y1="5.4"
       x2="0"
       y2="5.4"
       id="line23" /><line
       class="st0"
       x1="16"
       y1="2.9"
       x2="0"
       y2="2.9"
       id="line25" /></g><g
     id="g33"
     inkscape:export-xdpi="308.62"
     inkscape:export-ydpi="308.62"
     style="fill:#ff9632;fill-opacity:1"><path
       class="st1"
       d="M4.7,12.6H1.2c-0.4,0-0.7-0.3-0.7-0.7V8.4c0-0.4,0.3-0.7,0.7-0.7h3.5C5,7.8,5.3,8,5.3,8.4v3.5   C5.3,12.3,5,12.6,4.7,12.6z"
       id="path35"
       style="fill:#ff9632;fill-opacity:1" /><path
       class="st2"
       d="M4.7,13.1H1.2c-0.6,0-1.2-0.5-1.2-1.2V8.4c0-0.6,0.5-1.2,1.2-1.2h3.5c0.6,0,1.2,0.5,1.2,1.2v3.5   C5.8,12.6,5.3,13.1,4.7,13.1z M1,8.4v3.5c0,0.1,0.1,0.2,0.2,0.2h3.5c0.1,0,0.2-0.1,0.2-0.2V8.4c0-0.1-0.1-0.2-0.2-0.2H1.2   C1.2,8.2,1,8.3,1,8.4z"
       id="path37"
       style="fill:#ff9632;fill-opacity:1" /></g><polygon
     class="st2"
     points="7.9,2.8 5.2,1.4 5.2,2.5 3.1,2.5 2.5,2.5 2.5,5.4 1.3,7.4 4.3,7.4 3.1,5.4 3.1,3 5.2,3 5.2,4.3 "
     id="polygon39"
     inkscape:export-xdpi="308.62"
     inkscape:export-ydpi="308.62" /><g
     id="g27"
     inkscape:export-xdpi="308.62"
     inkscape:export-ydpi="308.62"
     style="fill:#ff4b4b;fill-opacity:1;opacity:1"><path
       class="st1"
       d="M11.8,5.3H8.3C7.9,5.3,7.6,5,7.6,4.7V1.2c0-0.4,0.3-0.7,0.7-0.7h3.5c0.4,0,0.7,0.3,0.7,0.7v3.5   C12.5,5,12.2,5.3,11.8,5.3z"
       id="path29"
       style="fill:#ff4b4b;fill-opacity:1" /><path
       class="st2"
       d="M11.8,5.8H8.3c-0.6,0-1.2-0.5-1.2-1.2V1.2C7.1,0.5,7.7,0,8.3,0h3.5C12.4,0,13,0.5,13,1.2v3.5   C13,5.3,12.4,5.8,11.8,5.8z M8.3,1C8.2,1,8.1,1.1,8.1,1.2v3.5c0,0.1,0.1,0.2,0.2,0.2h3.5c0.1,0,0.2-0.1,0.2-0.2V1.2   C12,1.1,11.9,1,11.8,1H8.3z"
       id="path31"
       style="fill:#ff4b4b;fill-opacity:1" /></g><path
     class="st2"
     d="M 15.882412,5.9599341 C 15.319129,6.5371128 14.868502,7.2297273 14.305219,7.806906 13.29131,8.9612634 12.502713,8.268649 11.60146,7.4605988 10.700207,6.5371128 10.362237,5.7290627 11.376147,4.8055767 11.93943,4.228398 12.502713,3.5357836 13.178653,2.8431691 9.9116107,2.4968619 7.9964481,4.228398 7.8837915,6.8834201 c 0,0.3463072 0,0.6926144 0.1126566,1.0389216 -1.0139097,1.0389217 -3.2670422,3.4630723 -4.1682952,4.5019943 -0.901253,1.038921 -0.3379699,1.846972 0.4506265,2.539586 0.7885964,0.80805 1.5771928,1.500665 2.5911024,0.577179 1.0139097,-0.923486 3.3796992,-3.347637 4.3936082,-4.271123 0.33797,0.115436 0.788597,0.115436 1.126567,0.115436 2.591102,-0.230871 4.168295,-2.3087148 3.492355,-5.4254799 z"
     id="path41"
     inkscape:export-xdpi="308.62"
     inkscape:export-ydpi="308.62"
     inkscape:connector-curvature="0"
     style="fill:#222221" /></svg>