<?xml version="1.0" encoding="utf-8"?>
<!-- Generator: Adobe Illustrator 19.0.0, SVG Export Plug-In . SVG Version: 6.00 Build 0)  -->
<!DOCTYPE svg PUBLIC "-//W3C//DTD SVG 1.1//EN" "http://www.w3.org/Graphics/SVG/1.1/DTD/svg11.dtd">
<svg version="1.1" id="Ebene_1" xmlns="http://www.w3.org/2000/svg" xmlns:xlink="http://www.w3.org/1999/xlink" x="0px" y="0px"
	 viewBox="0 0 16 16" style="enable-background:new 0 0 16 16;" xml:space="preserve">
<style type="text/css">
	.st0{fill:#E64F51;enable-background:new    ;}
	.st1{fill:#FFFFFF;enable-background:new    ;}
</style>
<circle id="XMLID_44_" class="st0" cx="8" cy="8" r="6.6"/>
<path id="XMLID_43_" class="st1" d="M8.7,8l2.8-2.8c0.2-0.2,0.2-0.5,0-0.7s-0.5-0.2-0.7,0L8,7.3L5.2,4.5C5,4.3,4.7,4.3,4.5,4.5
	S4.3,5,4.5,5.2L7.3,8l-2.8,2.8c-0.2,0.2-0.2,0.5,0,0.7c0.1,0.1,0.2,0.1,0.4,0.1s0.3,0,0.4-0.1L8,8.7l2.8,2.8
	c0.1,0.1,0.2,0.1,0.4,0.1s0.3,0,0.4-0.1c0.2-0.2,0.2-0.5,0-0.7L8.7,8z"/>
</svg>
