<?xml version="1.0" encoding="utf-8"?>
<!-- Generator: Adobe Illustrator 19.0.0, SVG Export Plug-In . SVG Version: 6.00 Build 0)  -->
<!DOCTYPE svg PUBLIC "-//W3C//DTD SVG 1.1//EN" "http://www.w3.org/Graphics/SVG/1.1/DTD/svg11.dtd">
<svg version="1.1" id="Ebene_1" xmlns="http://www.w3.org/2000/svg" xmlns:xlink="http://www.w3.org/1999/xlink" x="0px" y="0px"
	 viewBox="-7 9 16 16" style="enable-background:new -7 9 16 16;" xml:space="preserve">
<style type="text/css">
	.st0{enable-background:new    ;}
	.st1{fill:#D1E545;}
	.st2{fill:#798C22;}
</style>
<g id="XMLID_44_" class="st0">
	<path id="XMLID_40_" class="st1" d="M-3.6,12.3c-2.3,2.3-2.3,6.1,0,8.5c0.4,0.4,1,0.4,1.3,0c0.4-0.4,0.4-1,0-1.3
		c-1.6-1.6-1.6-4.2,0-5.8C-0.6,12,2,12,3.6,13.6c1.4,1.4,1.6,3.5,0.6,5l-1.5-1.4L1,23.3l6.1-1.8L5.5,20c0.8-1,1.1-2.3,1.1-3.5
		c0-1.5-0.6-3.1-1.8-4.2C2.6,10-1.2,10-3.6,12.3z"/>
	<path id="XMLID_41_" class="st2" d="M0.6,23.7l2-7l1.5,1.5c0.8-1.5,0.5-3.3-0.7-4.4c-1.5-1.5-3.9-1.5-5.4,0
		c-0.8,0.7-1.2,1.7-1.2,2.7s0.4,2,1.1,2.7c0.2,0.2,0.4,0.5,0.4,0.8s-0.1,0.7-0.3,0.9c-0.5,0.5-1.2,0.5-1.7,0c-2.4-2.4-2.4-6.4,0-8.8
		c1.1-1.2,2.7-1.8,4.4-1.8s3.2,0.6,4.4,1.8c1.2,1.2,1.8,2.7,1.8,4.4c0,1.2-0.4,2.4-1.1,3.5l1.7,1.7L0.6,23.7z M2.8,17.7L1.3,23
		l5.3-1.5l-1.4-1.4l0.1-0.2c0.7-1,1.1-2.1,1.1-3.4c0-1.5-0.6-3-1.7-4.1s-2.5-1.7-4.1-1.7c-2.5,0-4,1.8-4,1.8c-2.2,2.2-2.2,5.9,0,8.1
		c0.3,0.3,0.7,0.3,1,0c0.1-0.1,0.2-0.3,0.2-0.5s-0.1-0.4-0.2-0.5c-0.8-0.8-1.3-1.9-1.3-3.1s0.5-2.2,1.3-3.1c1.7-1.7,4.4-1.7,6.1,0
		c1.4,1.4,1.7,3.6,0.6,5.3L4.1,19L2.8,17.7z"/>
</g>
</svg>
