<?xml version="1.0" encoding="utf-8"?>
<!-- Generator: Adobe Illustrator 19.0.0, SVG Export Plug-In . SVG Version: 6.00 Build 0)  -->
<!DOCTYPE svg PUBLIC "-//W3C//DTD SVG 1.1//EN" "http://www.w3.org/Graphics/SVG/1.1/DTD/svg11.dtd">
<svg version="1.1" id="Ebene_1" xmlns="http://www.w3.org/2000/svg" xmlns:xlink="http://www.w3.org/1999/xlink" x="0px" y="0px"
	 viewBox="0 0 16 16" style="enable-background:new 0 0 16 16;" xml:space="preserve">
<style type="text/css">
	.st0{enable-background:new    ;}
	.st1{fill:#F8E93F;}
	.st2{fill:#FFCE09;}
</style>
<g id="XMLID_44_" class="st0">
	<path id="XMLID_40_" class="st1" d="M3.4,3.3c-2.3,2.3-2.3,6.1,0,8.5c0.4,0.4,1,0.4,1.3,0c0.4-0.4,0.4-1,0-1.3
		c-1.6-1.6-1.6-4.2,0-5.8C6.4,3,9,3,10.6,4.6c1.4,1.4,1.6,3.5,0.6,5L9.7,8.2L8,14.3l6.1-1.8L12.5,11c0.8-1,1.1-2.3,1.1-3.5
		c0-1.5-0.6-3.1-1.8-4.2C9.6,1,5.8,1,3.4,3.3z"/>
	<path id="XMLID_41_" class="st2" d="M7.6,14.7l2-7l1.5,1.5c0.8-1.5,0.5-3.3-0.7-4.4C8.9,3.3,6.5,3.3,5,4.8C4.2,5.5,3.8,6.5,3.8,7.5
		c0,1,0.4,2,1.1,2.7c0.2,0.2,0.4,0.5,0.4,0.8c0,0.3-0.1,0.6-0.4,0.8c-0.5,0.5-1.2,0.5-1.7,0c-2.4-2.4-2.4-6.4,0-8.8
		C4.4,1.9,6,1.3,7.7,1.3s3.2,0.6,4.4,1.8c1.2,1.2,1.8,2.7,1.8,4.4c0,1.2-0.4,2.4-1.1,3.5l1.7,1.7L7.6,14.7z M9.9,8.7L8.3,14l5.3-1.5
		l-1.4-1.4l0.1-0.2c0.7-1,1.1-2.1,1.1-3.4c0-1.5-0.6-3-1.7-4.1c-1.1-1.1-2.5-1.7-4.1-1.7c-1.5,0-3,0.6-4.1,1.7L3.4,3.3l0.2,0.2
		c-2.2,2.2-2.2,5.9,0,8.1c0.3,0.3,0.7,0.3,1,0c0.1-0.1,0.2-0.3,0.2-0.5s-0.1-0.4-0.2-0.5C3.8,9.8,3.3,8.7,3.3,7.5s0.5-2.2,1.3-3.1
		c1.7-1.7,4.4-1.7,6.1,0c1.4,1.4,1.7,3.6,0.6,5.3l-0.2,0.3L9.9,8.7z"/>
</g>
</svg>
