<?xml version="1.0" encoding="utf-8"?>
<!-- Generator: Adobe Illustrator 19.0.0, SVG Export Plug-In . SVG Version: 6.00 Build 0)  -->
<!DOCTYPE svg PUBLIC "-//W3C//DTD SVG 1.1//EN" "http://www.w3.org/Graphics/SVG/1.1/DTD/svg11.dtd">
<svg version="1.1" id="Ebene_1" xmlns="http://www.w3.org/2000/svg" xmlns:xlink="http://www.w3.org/1999/xlink" x="0px" y="0px"
	 viewBox="0 0 16 16" style="enable-background:new 0 0 16 16;" xml:space="preserve">
<g>
	<path d="M0,1.2V0.1h1.2v1.1H0z M0,6.6V1.9h1.2v4.7H0L0,6.6z"/>
	<path d="M2,1.9h0.7V1.5c0-1.4,1.2-1.8,2.5-1.4L4.9,1c-0.5-0.1-1-0.1-1,0.5v0.4h0.9v1H3.9v3.7H2.6V2.8H2V1.9z"/>
</g>
<path d="M11.3,5.9l4.5-4.5c0.3-0.3,0.3-0.9,0-1.2s-0.9-0.3-1.2,0L9.7,5H6C5.5,5,5.1,5.3,5.1,5.8S5.5,6.7,6,6.7h3.7l4.9,4.9
	c0.2,0.2,0.4,0.3,0.6,0.3c0.2,0,0.4-0.1,0.6-0.3c0.3-0.3,0.3-0.9,0-1.2L11.3,5.9z"/>
<g>
	<path d="M1.8,10.7v3.7c0,1.2-0.5,1.9-1.8,1.5L0.2,15c0.6,0.1,0.7-0.3,0.7-0.7v-3.6C0.9,10.7,1.8,10.7,1.8,10.7z M0.8,10.2v-1h1v0.9
		h-1V10.2z"/>
	<path d="M3.3,11.8l-0.9-0.2c0.3-0.9,1.1-1.1,2-1.1c0.9,0.1,1.3,0.5,1.3,1.4v1.2c0,0.4,0,0.8,0.2,1.2h-1c0-0.1-0.1-0.2-0.1-0.3
		s0-0.1,0-0.1c-0.7,0.7-2.3,0.7-2.4-0.5c-0.1-1.4,1.5-1.2,2.3-1.6v-0.1C4.7,11.1,3.5,11.2,3.3,11.8z M4.7,12.6
		c-0.4,0.1-0.8,0.1-1.2,0.3c-0.4,0.3-0.1,0.8,0.4,0.9c0.6,0,0.8-0.5,0.8-1V12.6z"/>
	<path d="M7.4,14.5l-1.5-3.8H7l0.9,2.6l0.9-2.6h1l-1.5,3.8C8.3,14.5,7.4,14.5,7.4,14.5z"/>
	<path d="M11,11.8l-0.9-0.2c0.3-0.9,1.1-1.1,2-1.1c0.9,0.1,1.3,0.5,1.3,1.4v1.2c0,0.4,0,0.8,0.2,1.2h-1c0-0.1-0.1-0.2-0.1-0.3
		s0-0.1,0-0.1c-0.7,0.7-2.3,0.7-2.4-0.5c-0.1-1.4,1.5-1.2,2.3-1.6v-0.1C12.3,11.1,11.2,11.2,11,11.8z M12.3,12.6
		c-0.4,0.1-0.8,0.1-1.2,0.3c-0.4,0.3-0.1,0.8,0.4,0.9c0.6,0,0.8-0.5,0.8-1V12.6z"/>
</g>
</svg>
