<?xml version="1.0" encoding="utf-8"?>
<!-- Generator: Adobe Illustrator 19.0.0, SVG Export Plug-In . SVG Version: 6.00 Build 0)  -->
<!DOCTYPE svg PUBLIC "-//W3C//DTD SVG 1.1//EN" "http://www.w3.org/Graphics/SVG/1.1/DTD/svg11.dtd">
<svg version="1.1" id="Ebene_1" xmlns="http://www.w3.org/2000/svg" xmlns:xlink="http://www.w3.org/1999/xlink" x="0px" y="0px"
	 viewBox="0 0 16 16" style="enable-background:new 0 0 16 16;" xml:space="preserve">
<style type="text/css">
	.st0{fill:#FFFFFF;}
	.st1{fill:#1A171B;}
</style>
<polygon class="st0" points="5.3,10.2 6.5,9.6 6.5,5.9 11.2,5.9 11.8,10.2 "/>
<g>
	<path d="M12.8,10.3l-0.7-4.9L13,0.7l-1-0.2l-0.8,4.4h-5L0.6,0.2L0,1l5.5,4.6V9l-5.4,2.9l0.5,0.9l2.9-1.6h8.7l3,4.6l0.8-0.6
		L12.8,10.3z M5.3,10.2l1.2-0.6V5.9h4.7l0.6,4.3C11.8,10.2,5.3,10.2,5.3,10.2z"/>
	<rect x="7" y="0.6" width="1" height="1.2"/>
	<rect x="13.6" y="4.9" width="1.2" height="1"/>
	<rect x="1.9" y="6" width="1.4" height="1"/>
	<rect x="7.8" y="7.5" class="st1" width="2.7" height="1"/>
</g>
</svg>
