<?xml version="1.0" encoding="UTF-8" standalone="no"?>
<!-- Generator: Adobe Illustrator 21.0.0, SVG Export Plug-In . SVG Version: 6.00 Build 0)  -->

<svg
   xmlns:dc="http://purl.org/dc/elements/1.1/"
   xmlns:cc="http://creativecommons.org/ns#"
   xmlns:rdf="http://www.w3.org/1999/02/22-rdf-syntax-ns#"
   xmlns:svg="http://www.w3.org/2000/svg"
   xmlns="http://www.w3.org/2000/svg"
   xmlns:sodipodi="http://sodipodi.sourceforge.net/DTD/sodipodi-0.dtd"
   xmlns:inkscape="http://www.inkscape.org/namespaces/inkscape"
   version="1.0"
   id="Ebene_1"
   x="0px"
   y="0px"
   viewBox="0 0 16 16"
   style="enable-background:new 0 0 16 16;"
   xml:space="preserve"
   inkscape:version="0.92.1 r15371"
   sodipodi:docname="extractdatetime-icon.svg"
   inkscape:export-filename="/home/marcel/git/knime-core/org.knime.time/src/org/knime/time/node/extract/datetime/extractdatetime.png"
   inkscape:export-xdpi="96"
   inkscape:export-ydpi="96"><metadata
     id="metadata31"><rdf:RDF><cc:Work
         rdf:about=""><dc:format>image/svg+xml</dc:format><dc:type
           rdf:resource="http://purl.org/dc/dcmitype/StillImage" /><dc:title /></cc:Work></rdf:RDF></metadata><defs
     id="defs29" /><sodipodi:namedview
     pagecolor="#ffffff"
     bordercolor="#666666"
     borderopacity="1"
     objecttolerance="10"
     gridtolerance="10"
     guidetolerance="10"
     inkscape:pageopacity="0"
     inkscape:pageshadow="2"
     inkscape:window-width="1720"
     inkscape:window-height="1343"
     id="namedview27"
     showgrid="false"
     inkscape:zoom="45.254834"
     inkscape:cx="4.5455456"
     inkscape:cy="9.9997178"
     inkscape:window-x="0"
     inkscape:window-y="27"
     inkscape:window-maximized="0"
     inkscape:current-layer="Ebene_1" /><style
     type="text/css"
     id="style3">
	.st0{fill:#222221;}
	.st1{fill:#FFFFFF;}
	.st2{fill:#9B9A9A;}
	.st3{fill:none;stroke:#222221;stroke-linecap:round;stroke-linejoin:round;stroke-miterlimit:10;}
</style><path
     style="opacity:1;fill:#000000;fill-opacity:1;stroke:none;stroke-width:1.73300004;stroke-miterlimit:4;stroke-dasharray:none;stroke-opacity:1"
     inkscape:transform-center-y="0.035317592"
     d="M 11.1408,13.811095 10.265059,11.54467 c 0,0 -0.7481432,0.275319 -1.7276802,0.556967 -1.0432532,0.299974 -2.2929236,0.495402 -3.1978052,0.2918 C 4.740175,12.25857 4.3204182,12.125673 3.6499679,11.745935 2.6409972,11.174461 1.682223,9.7497347 1.682223,9.7497347 c 0,0 0.8149156,2.0870143 1.2963205,2.7798453 0.4699916,0.676406 0.9363793,1.098737 1.6588104,1.514092 0.620838,0.356945 1.2465561,0.501803 1.8706533,0.574279 0.5432776,0.06309 0.6476781,0.07244 1.0581307,0.07437 0.4306914,0.002 0.9447294,-0.04331 1.3794,-0.122794 C 10.113921,14.355881 11.1408,13.811095 11.1408,13.811095 Z"
     id="path4204"
     inkscape:connector-curvature="0"
     sodipodi:nodetypes="ccssscsssssc"
     inkscape:transform-center-x="1.7889639" /><path
     sodipodi:type="star"
     style="opacity:1;fill:#000000;fill-opacity:1;stroke:none;stroke-width:1.73300004;stroke-miterlimit:4;stroke-dasharray:none;stroke-opacity:1"
     id="path4207"
     sodipodi:sides="3"
     sodipodi:cx="13.143039"
     sodipodi:cy="4.2615752"
     sodipodi:r1="2.6858473"
     sodipodi:r2="1.3429236"
     sodipodi:arg1="-0.011764163"
     sodipodi:arg2="1.0354334"
     inkscape:flatsided="true"
     inkscape:rounded="0"
     inkscape:randomized="0"
     d="M 15.8287,4.2299792 11.827571,6.6032243 11.772845,1.9515222 Z"
     inkscape:transform-center-x="-0.30193308"
     inkscape:transform-center-y="0.7011935"
     transform="matrix(1.3478011,-0.53803193,-0.53803193,-1.3478011,-3.1073829,24.930487)" /><g
     id="XMLID_78_"
     transform="matrix(0.88927238,0,0,0.93267737,-0.36432863,0.41347296)"><g
       id="XMLID_80_"><path
         id="XMLID_76_"
         class="st0"
         d="M 6.1,0.8 C 3.5,0.8 1.3,3 1.3,5.6 c 0,2.6 2.2,4.8 4.8,4.8 2.6,0 4.8,-2.2 4.8,-4.8 C 10.9,3 8.8,0.8 6.1,0.8 Z"
         inkscape:connector-curvature="0"
         style="fill:#ffffff" /><path
         id="XMLID_81_"
         d="m 6.1,0 c -3,0 -5.6,2.5 -5.6,5.6 0,3 2.5,5.6 5.6,5.6 3,0 5.6,-2.5 5.6,-5.6 C 11.7,2.5 9.2,0 6.1,0 Z m 0,10.4 C 3.5,10.4 1.3,8.2 1.3,5.6 1.3,3 3.5,0.8 6.1,0.8 c 2.6,0 4.8,2.2 4.8,4.8 0,2.6 -2.1,4.8 -4.8,4.8 z"
         inkscape:connector-curvature="0" /></g><polygon
       id="XMLID_73_"
       points="6.5,1.3 6.5,6 2.9,6 2.9,5.2 5.7,5.2 5.7,1.3 " /></g></svg>