<?xml version="1.0" encoding="utf-8"?>
<!-- Generator: Adobe Illustrator 21.0.0, SVG Export Plug-In . SVG Version: 6.00 Build 0)  -->
<svg version="1.0" id="Ebene_1" xmlns="http://www.w3.org/2000/svg" xmlns:xlink="http://www.w3.org/1999/xlink" x="0px" y="0px"
	 viewBox="0 0 16 16" style="enable-background:new 0 0 16 16;" xml:space="preserve">
<style type="text/css">
	.st0{fill:#FFFFFF;}
	.st1{fill:#222221;}
	.st2{fill:#9B9A9A;}
</style>
<g>
	<g>
		<g>
			<rect x="1.3" y="1.2" class="st0" width="11.9" height="12.1"/>
			<path class="st1" d="M13.6,13.7H0.8v-13h12.8V13.7z M1.7,12.8h11V1.6h-11V12.8z"/>
		</g>
		<rect x="1.7" y="3.3" class="st1" width="11.9" height="0.9"/>
		<rect x="1.7" y="1.5" class="st2" width="11" height="1.8"/>
	</g>
	<g id="XMLID_404_">
		<path id="XMLID_407_" class="st1" d="M4.5,9l0.8-0.1c0.1,0.6,0.8,0.9,1.1,0.3c0.3-0.7-0.2-1.1-0.9-1l0.1-0.7
			c0.4,0,0.9-0.4,0.6-0.8C5.9,6.3,5.4,6.7,5.3,7.1L4.6,7c0.2-0.9,1.1-1.4,1.9-1c0.8,0.4,0.8,1.4,0,1.8c1,0.2,1,1.5,0.2,2.1
			C5.9,10.6,4.6,10.1,4.5,9z"/>
	</g>
</g>
<g>
	<g>
		<ellipse class="st0" cx="11.1" cy="10.9" rx="4.6" ry="4.7"/>
		<path d="M11.1,16c-2.7,0-4.9-2.3-4.9-5.1c0-2.8,2.2-5.1,4.9-5.1c2.7,0,4.9,2.3,4.9,5.1C16,13.7,13.8,16,11.1,16z M11.1,6.5
			c-2.3,0-4.2,2-4.2,4.3c0,2.4,1.9,4.3,4.2,4.3s4.2-2,4.2-4.3C15.2,8.5,13.3,6.5,11.1,6.5z"/>
	</g>
	<path d="M11.1,11.3c-0.2,0-0.4-0.2-0.4-0.4V7.3c0-0.2,0.2-0.4,0.4-0.4s0.4,0.2,0.4,0.4v3.6C11.4,11.1,11.3,11.3,11.1,11.3z"/>
	<path d="M11.1,11.3H8.8c-0.2,0-0.4-0.2-0.4-0.4c0-0.2,0.2-0.4,0.4-0.4h2.2c0.2,0,0.4,0.2,0.4,0.4C11.4,11.1,11.3,11.3,11.1,11.3z"
		/>
</g>
</svg>
