<?xml version="1.0" encoding="utf-8"?>
<!-- Generator: Adobe Illustrator 19.0.0, SVG Export Plug-In . SVG Version: 6.00 Build 0)  -->
<!DOCTYPE svg PUBLIC "-//W3C//DTD SVG 1.1//EN" "http://www.w3.org/Graphics/SVG/1.1/DTD/svg11.dtd">
<svg version="1.1" id="Ebene_1" xmlns="http://www.w3.org/2000/svg" xmlns:xlink="http://www.w3.org/1999/xlink" x="0px" y="0px"
	 viewBox="0 0 16 16" style="enable-background:new 0 0 16 16;" xml:space="preserve">
<style type="text/css">
	.st0{fill:#CBCBCB;}
</style>
<g id="XMLID_264_">
	<rect id="XMLID_268_" x="11" y="1" class="st0" width="4" height="14"/>
	<path id="XMLID_265_" d="M10,0v16h6V0H10z M15,15h-4V1h4V15z"/>
</g>
<g id="XMLID_222_">
	<polygon id="XMLID_225_" points="4.5,7.9 8.3,10.2 8.3,8.4 12.3,8.4 12.3,7.4 8.3,7.4 8.3,5.6 	"/>
</g>
<path id="XMLID_221_" d="M1.6,5.2C1.5,5.5,1.2,5.9,0.9,6.1S0.3,6.5,0,6.6v1c0.5-0.2,1-0.5,1.4-0.8v4.1h1.1V5.1H1.6V5.2z"/>
<path id="XMLID_196_" d="M4.5,0c2.6,0,2.7,5.9,0,5.8C1.8,5.8,1.9,0,4.5,0z M4.5,0.9c-1.1,0-1.1,4,0,4C5.5,4.9,5.6,0.9,4.5,0.9z"/>
<path id="XMLID_117_" d="M6.4,15v1H2.5c0.1-0.9,0.7-1.6,1.4-2.2c0.5-0.5,1.4-1.1,1.4-1.8c0-1-1.1-0.9-1.6-0.3
	c-0.1,0.1-0.2,0.5-0.2,0.5l-0.8-0.1c0.1-1.9,2.8-2.5,3.6-0.7C7,12.9,4.9,13.8,4.2,15H6.4z"/>
</svg>
