<?xml version="1.0" encoding="utf-8"?>
<!-- Generator: Adobe Illustrator 19.1.0, SVG Export Plug-In . SVG Version: 6.00 Build 0)  -->
<!DOCTYPE svg PUBLIC "-//W3C//DTD SVG 1.1//EN" "http://www.w3.org/Graphics/SVG/1.1/DTD/svg11.dtd">
<svg version="1.1" id="Ebene_1" xmlns="http://www.w3.org/2000/svg" xmlns:xlink="http://www.w3.org/1999/xlink" x="0px" y="0px"
	 viewBox="-412 290.3 16 16" style="enable-background:new -412 290.3 16 16;" xml:space="preserve">
<style type="text/css">
	.st0{fill:#FFFFFF;}
	.st1{fill:#4EAF75;}
</style>
<g id="XMLID_264_">
	<rect id="XMLID_268_" x="-401" y="291.3" class="st0" width="4" height="14"/>
	<path id="XMLID_265_" d="M-402,290.3v16h6v-16H-402z M-397,305.3h-4v-14h4V305.3z"/>
</g>
<g id="XMLID_222_">
	<polygon id="XMLID_225_" class="st1" points="-399.7,298.2 -403.5,295.9 -403.5,297.7 -407.5,297.7 -407.5,298.7 -403.5,298.7 
		-403.5,300.5 	"/>
</g>
<path id="XMLID_221_" d="M-410.4,295.5c-0.1,0.3-0.4,0.7-0.7,0.9c-0.3,0.2-0.6,0.4-0.9,0.5v1c0.5-0.2,1-0.5,1.4-0.8v4.1h1.1v-5.8
	h-0.9V295.5z"/>
<path id="XMLID_196_" d="M-407.5,290.3c2.6,0,2.7,5.9,0,5.8C-410.2,296.1-410.1,290.3-407.5,290.3z M-407.5,291.2c-1.1,0-1.1,4,0,4
	C-406.5,295.2-406.4,291.2-407.5,291.2z"/>
<path id="XMLID_117_" d="M-405.6,305.3v1h-3.9c0.1-0.9,0.7-1.6,1.4-2.2c0.5-0.5,1.4-1.1,1.4-1.8c0-1-1.1-0.9-1.6-0.3
	c-0.1,0.1-0.2,0.5-0.2,0.5l-0.8-0.1c0.1-1.9,2.8-2.5,3.6-0.7c0.7,1.5-1.4,2.4-2.1,3.6H-405.6z"/>
</svg>
