<?xml version="1.0" encoding="utf-8"?>
<!-- Generator: Adobe Illustrator 19.1.0, SVG Export Plug-In . SVG Version: 6.00 Build 0)  -->
<!DOCTYPE svg PUBLIC "-//W3C//DTD SVG 1.1//EN" "http://www.w3.org/Graphics/SVG/1.1/DTD/svg11.dtd">
<svg version="1.1" id="Ebene_1" xmlns="http://www.w3.org/2000/svg" xmlns:xlink="http://www.w3.org/1999/xlink" x="0px" y="0px"
	 viewBox="-412 290.3 16 16" style="enable-background:new -412 290.3 16 16;" xml:space="preserve">
<style type="text/css">
	.st0{fill:#FFFFFF;}
	.st1{fill:#F1933B;}
</style>
<g id="XMLID_78_">
	<g id="XMLID_80_">
		<path id="XMLID_76_" class="st0" d="M-404,291.8c-3.4,0-6.2,2.8-6.2,6.2s2.8,6.2,6.2,6.2s6.2-2.8,6.2-6.2S-400.6,291.8-404,291.8z
			"/>
		<path id="XMLID_81_" d="M-404,290.7c-3.9,0-7.3,3.2-7.3,7.3c0,3.9,3.2,7.3,7.3,7.3c3.9,0,7.3-3.2,7.3-7.3S-400.1,290.7-404,290.7z
			 M-404,304.2c-3.4,0-6.2-2.8-6.2-6.2s2.8-6.2,6.2-6.2s6.2,2.8,6.2,6.2S-400.6,304.2-404,304.2z"/>
	</g>
	<polygon id="XMLID_73_" points="-403.5,298.5 -408.2,298.5 -408.2,297.5 -404.5,297.5 -404.5,292.4 -403.5,292.4 	"/>
</g>
<path class="st1" d="M-398.1,300l-0.3,0.4c-1.7,2.7-6.1,4-8.9,2.2l1.4-1l-6.2-2.9l0.8,6.7l1.8-1.2c3.8,3.4,10.5,1.8,13.1-2.4
	l0.3-0.4L-398.1,300z"/>
</svg>
