<?xml version="1.0" encoding="utf-8"?>
<!-- Generator: Adobe Illustrator 19.1.0, SVG Export Plug-In . SVG Version: 6.00 Build 0)  -->
<!DOCTYPE svg PUBLIC "-//W3C//DTD SVG 1.1//EN" "http://www.w3.org/Graphics/SVG/1.1/DTD/svg11.dtd">
<svg version="1.1" id="Ebene_1" xmlns="http://www.w3.org/2000/svg" xmlns:xlink="http://www.w3.org/1999/xlink" x="0px" y="0px"
	 viewBox="-7 9 16 16" style="enable-background:new -7 9 16 16;" xml:space="preserve">
<style type="text/css">
	.st0{fill:#FFFFFF;}
	.st1{fill:#F1933B;}
</style>
<g id="XMLID_197_">
	<rect id="XMLID_236_" x="3.3" y="18.8" class="st0" width="2.6" height="2.5"/>
	<rect id="XMLID_235_" x="-0.1" y="15.2" class="st0" width="2.4" height="2.6"/>
	<rect id="XMLID_234_" x="-3.7" y="18.8" class="st0" width="2.5" height="2.5"/>
	<rect id="XMLID_233_" x="3.3" y="15.2" class="st0" width="2.6" height="2.6"/>
	<rect id="XMLID_232_" x="-0.1" y="18.8" class="st0" width="2.4" height="2.5"/>
	<rect id="XMLID_231_" x="-3.7" y="15.2" class="st0" width="2.5" height="2.6"/>
	<path id="XMLID_219_" d="M-4.8,11.7v10.6H6.8V11.7H-4.8z M-1.1,21.3h-2.6v-2.5h2.5L-1.1,21.3L-1.1,21.3z M-1.1,17.8h-2.6v-2.6h2.5
		L-1.1,17.8L-1.1,17.8z M2.3,21.3h-2.4v-2.5h2.4V21.3z M2.3,17.8h-2.4v-2.6h2.4C2.3,15.2,2.3,17.8,2.3,17.8z M5.9,21.3H3.3v-2.5h2.6
		V21.3z M5.9,17.8H3.3v-2.6h2.6C5.9,15.2,5.9,17.8,5.9,17.8z M6,14.4h-9.9v-1.9h9.9C5.9,12.5,5.9,14.4,6,14.4z"/>
	<rect id="XMLID_198_" x="-3.9" y="12.5" class="st1" width="9.9" height="1.9"/>
</g>
</svg>
