<?xml version="1.0" encoding="UTF-8" standalone="no"?>
<!-- Generator: Adobe Illustrator 21.0.0, SVG Export Plug-In . SVG Version: 6.00 Build 0)  -->

<svg
   xmlns:osb="http://www.openswatchbook.org/uri/2009/osb"
   xmlns:dc="http://purl.org/dc/elements/1.1/"
   xmlns:cc="http://creativecommons.org/ns#"
   xmlns:rdf="http://www.w3.org/1999/02/22-rdf-syntax-ns#"
   xmlns:svg="http://www.w3.org/2000/svg"
   xmlns="http://www.w3.org/2000/svg"
   xmlns:sodipodi="http://sodipodi.sourceforge.net/DTD/sodipodi-0.dtd"
   xmlns:inkscape="http://www.inkscape.org/namespaces/inkscape"
   version="1.0"
   id="Ebene_1"
   x="0px"
   y="0px"
   viewBox="0 0 16 16"
   style="enable-background:new 0 0 16 16;"
   xml:space="preserve"
   inkscape:version="0.91 r13725"
   sodipodi:docname="datetimeshift-icon.svg"
   inkscape:export-filename="/home/simon/git/knime-core/org.knime.time/src/org/knime/time/node/manipulate/datetimeshift/datetimeshift@2x.png"
   inkscape:export-xdpi="180"
   inkscape:export-ydpi="180"><metadata
     id="metadata21"><rdf:RDF><cc:Work
         rdf:about=""><dc:format>image/svg+xml</dc:format><dc:type
           rdf:resource="http://purl.org/dc/dcmitype/StillImage" /></cc:Work></rdf:RDF></metadata><defs
     id="defs19"><linearGradient
       id="linearGradient4151"
       osb:paint="solid"><stop
         style="stop-color:#000000;stop-opacity:1;"
         offset="0"
         id="stop4153" /></linearGradient></defs><sodipodi:namedview
     pagecolor="#ffffff"
     bordercolor="#666666"
     borderopacity="1"
     objecttolerance="10"
     gridtolerance="10"
     guidetolerance="10"
     inkscape:pageopacity="0"
     inkscape:pageshadow="2"
     inkscape:window-width="2560"
     inkscape:window-height="1343"
     id="namedview17"
     showgrid="false"
     inkscape:zoom="32"
     inkscape:cx="16.818186"
     inkscape:cy="2.9171491"
     inkscape:window-x="0"
     inkscape:window-y="27"
     inkscape:window-maximized="1"
     inkscape:current-layer="Ebene_1" /><style
     type="text/css"
     id="style3">
	.st0{fill:#FFFFFF;}
</style><g
     id="g5"
     transform="matrix(0.81451013,0,0,0.81451013,-1.4496193,4.1850347)"><g
       id="g7"><ellipse
         class="st0"
         cx="8"
         cy="8"
         rx="5.6999998"
         ry="6"
         id="ellipse9"
         style="fill:#ffffff" /><path
         d="M 8,14.5 C 4.6,14.5 1.8,11.6 1.8,8 1.8,4.4 4.6,1.5 8,1.5 c 3.4,0 6.2,2.9 6.2,6.5 0,3.6 -2.8,6.5 -6.2,6.5 z M 8,2.5 C 5.1,2.5 2.8,5 2.8,8 2.8,11 5.1,13.5 8,13.5 10.9,13.5 13.2,11 13.2,8 13.2,5 10.9,2.5 8,2.5 Z"
         id="path11"
         inkscape:connector-curvature="0" /></g><path
       d="M 8,8.5 C 7.7,8.5 7.5,8.3 7.5,8 l 0,-4.5 C 7.5,3.2 7.7,3 8,3 8.3,3 8.5,3.2 8.5,3.5 L 8.5,8 C 8.5,8.3 8.3,8.5 8,8.5 Z"
       id="path13"
       inkscape:connector-curvature="0" /><path
       d="m 8,8.5 -2.8,0 C 4.9,8.5 4.7,8.3 4.7,8 4.7,7.7 4.9,7.5 5.2,7.5 L 8,7.5 C 8.3,7.5 8.5,7.7 8.5,8 8.5,8.3 8.3,8.5 8,8.5 Z"
       id="path15"
       inkscape:connector-curvature="0" /></g><path
     style="opacity:1;fill:none;fill-opacity:1;stroke:#000000;stroke-width:1.73300004;stroke-miterlimit:4;stroke-dasharray:none;stroke-opacity:1"
     d="M 4.6577105,2.065858 C 8.6813308,1.972108 13.183901,4.9592716 13.329509,9.4764581"
     id="path4189"
     inkscape:connector-curvature="0"
     sodipodi:nodetypes="cc" /><path
     style="fill:#000000;fill-opacity:1;fill-rule:evenodd;stroke:none;stroke-width:1px;stroke-linecap:butt;stroke-linejoin:miter;stroke-opacity:1"
     d="m 10.456981,9.2238759 5.542552,0.00234 -2.7588,5.0069011 z"
     id="path4193"
     inkscape:connector-curvature="0"
     sodipodi:nodetypes="cccc" /></svg>