<?xml version="1.0" encoding="utf-8"?>
<!-- Generator: Adobe Illustrator 19.1.0, SVG Export Plug-In . SVG Version: 6.00 Build 0)  -->
<!DOCTYPE svg PUBLIC "-//W3C//DTD SVG 1.1//EN" "http://www.w3.org/Graphics/SVG/1.1/DTD/svg11.dtd">
<svg version="1.1" id="Ebene_1" xmlns="http://www.w3.org/2000/svg" xmlns:xlink="http://www.w3.org/1999/xlink" x="0px" y="0px"
	 viewBox="-412 290.3 16 16" style="enable-background:new -412 290.3 16 16;" xml:space="preserve">
<style type="text/css">
	.st0{fill:#FFFFFF;}
	.st1{fill:#88D8EA;}
</style>
<g>
	<path class="st0" d="M-407.6,299.1l0.3,0.2c0.8-0.4,2.8-1.2,5-0.1c2.3,1.2,5.3-1.9,5.3-1.9v-4.7h-10.6V299.1z M-404.9,293.8
		c0.8,0,1.4,0.6,1.4,1.4c0,0.8-0.6,1.4-1.4,1.4c-0.8,0-1.4-0.6-1.4-1.4C-406.3,294.4-405.7,293.8-404.9,293.8z"/>
	<path d="M-408.6,291.6v6.9l-0.9-0.5v1.7h-2.5v1.1h2.5v1.7l0.9-0.5v3h12.6v-13.4H-408.6z M-397,297.3v6.7h-10.6v-2.6l1.9-1.1l-1.6-1
		l-0.3-0.2v-6.5h10.6V297.3z"/>
	<circle class="st1" cx="-404.9" cy="295.2" r="1.4"/>
	<path class="st1" d="M-402.3,299.2c-2.2-1.1-4.2-0.3-5,0.1l1.6,1l-1.9,1.1v2.6h10.6v-6.7C-397,297.3-400,300.4-402.3,299.2z"/>
</g>
</svg>
