<?xml version="1.0" encoding="utf-8"?>
<!-- Generator: Adobe Illustrator 19.0.0, SVG Export Plug-In . SVG Version: 6.00 Build 0)  -->
<!DOCTYPE svg PUBLIC "-//W3C//DTD SVG 1.1//EN" "http://www.w3.org/Graphics/SVG/1.1/DTD/svg11.dtd">
<svg version="1.1" id="Ebene_1" xmlns="http://www.w3.org/2000/svg" xmlns:xlink="http://www.w3.org/1999/xlink" x="0px" y="0px"
	 viewBox="0 0 16 16" style="enable-background:new 0 0 16 16;" xml:space="preserve">
<style type="text/css">
	.st0{fill:#FFFFFF;}
	.st1{fill:#CBCBCB;}
</style>
<g>
	<path class="st0" d="M4.4,8.8L4.7,9c0.8-0.4,2.8-1.2,5-0.1C12,10.1,15,7,15,7V2.3H4.4V8.8z M7.1,3.5c0.8,0,1.4,0.6,1.4,1.4
		S7.9,6.3,7.1,6.3S5.7,5.7,5.7,4.9S6.3,3.5,7.1,3.5z"/>
	<path d="M3.4,1.3v6.9L2.5,7.7v1.7H0v1.1h2.5v1.7l0.9-0.5v3H16V1.3H3.4z M15,7v6.7H4.4v-2.6L6.3,10L4.7,9L4.4,8.8V2.3H15V7z"/>
	<circle class="st1" cx="7.1" cy="4.9" r="1.4"/>
	<path class="st1" d="M9.7,8.9C7.5,7.8,5.5,8.6,4.7,9l1.6,1l-1.9,1.1v2.6H15V7C15,7,12,10.1,9.7,8.9z"/>
</g>
</svg>
