<?xml version="1.0" encoding="utf-8"?>
<!-- Generator: Adobe Illustrator 19.0.0, SVG Export Plug-In . SVG Version: 6.00 Build 0)  -->
<!DOCTYPE svg PUBLIC "-//W3C//DTD SVG 1.1//EN" "http://www.w3.org/Graphics/SVG/1.1/DTD/svg11.dtd">
<svg version="1.1" id="Ebene_1" xmlns="http://www.w3.org/2000/svg" xmlns:xlink="http://www.w3.org/1999/xlink" x="0px" y="0px"
	 viewBox="0 0 16 16" style="enable-background:new 0 0 16 16;" xml:space="preserve">
<style type="text/css">
	.st0{enable-background:new    ;}
	.st1{fill:#E64F51;}
	.st2{fill:#CC091C;}
</style>
<g id="XMLID_45_" class="st0">
	<path id="XMLID_41_" class="st1" d="M15.3,14.3L9,8l6.3-6.3c0.1-0.1,0.2-0.3,0.2-0.5s-0.1-0.4-0.2-0.5c-0.3-0.3-0.7-0.3-1,0L8,7
		L1.7,0.7c-0.3-0.3-0.7-0.3-1,0c-0.3,0.3-0.3,0.7,0,1L7,8l-6.3,6.3c-0.3,0.3-0.3,0.7,0,1c0.3,0.3,0.7,0.3,1,0L8,9l6.3,6.3
		c0.1,0.1,0.3,0.2,0.5,0.2s0.4-0.1,0.5-0.2C15.6,15.1,15.6,14.6,15.3,14.3z"/>
	<path id="XMLID_42_" class="st2" d="M14.8,15.8c-0.3,0-0.5-0.1-0.7-0.3L8,9.4l-6.1,6.1c-0.4,0.4-1,0.4-1.4,0c-0.4-0.4-0.4-1,0-1.4
		L6.6,8L0.5,1.9c-0.4-0.4-0.4-1,0-1.4c0.4-0.4,1-0.4,1.4,0L8,6.6l6.1-6.1c0.2-0.2,0.4-0.3,0.7-0.3c0,0,0,0,0,0
		c0.3,0,0.5,0.1,0.7,0.3c0.2,0.2,0.3,0.4,0.3,0.7c0,0.3-0.1,0.5-0.3,0.7L9.3,8l6.2,6.2c0.2,0.2,0.3,0.4,0.3,0.7s-0.1,0.5-0.3,0.7
		S15.1,15.8,14.8,15.8z M8,8.7l6.5,6.5c0.2,0.2,0.5,0.2,0.7,0c0.1-0.1,0.1-0.2,0.1-0.3c0-0.1,0-0.2-0.1-0.3L8.6,8l6.5-6.5
		c0.1-0.1,0.1-0.2,0.1-0.3s0-0.2-0.1-0.3c-0.1-0.1-0.2-0.1-0.3-0.1c0,0,0,0,0,0c-0.1,0-0.2,0-0.3,0.1L8,7.3L1.5,0.9
		C1.3,0.7,1,0.7,0.9,0.9c-0.2,0.2-0.2,0.5,0,0.7L7.3,8l-6.5,6.5c-0.2,0.2-0.2,0.5,0,0.7c0.2,0.2,0.5,0.2,0.7,0L8,8.7z"/>
</g>
</svg>
