<?xml version="1.0" encoding="UTF-8" standalone="no"?>
<!-- Generator: Adobe Illustrator 19.0.0, SVG Export Plug-In . SVG Version: 6.00 Build 0)  -->

<svg
   xmlns:dc="http://purl.org/dc/elements/1.1/"
   xmlns:cc="http://creativecommons.org/ns#"
   xmlns:rdf="http://www.w3.org/1999/02/22-rdf-syntax-ns#"
   xmlns:svg="http://www.w3.org/2000/svg"
   xmlns="http://www.w3.org/2000/svg"
   xmlns:sodipodi="http://sodipodi.sourceforge.net/DTD/sodipodi-0.dtd"
   xmlns:inkscape="http://www.inkscape.org/namespaces/inkscape"
   version="1.0"
   id="Ebene_1"
   x="0px"
   y="0px"
   viewBox="0 0 16 16"
   enable-background="new 0 0 16 16"
   xml:space="preserve"
   inkscape:version="0.48.4 r9939"
   width="100%"
   height="100%"
   sodipodi:docname="ref_column_resorter-icon.svg"><metadata
     id="metadata17"><rdf:RDF><cc:Work
         rdf:about=""><dc:format>image/svg+xml</dc:format><dc:type
           rdf:resource="http://purl.org/dc/dcmitype/StillImage" /></cc:Work></rdf:RDF></metadata><defs
     id="defs15" /><sodipodi:namedview
     pagecolor="#ffffff"
     bordercolor="#666666"
     borderopacity="1"
     objecttolerance="10"
     gridtolerance="10"
     guidetolerance="10"
     inkscape:pageopacity="0"
     inkscape:pageshadow="2"
     inkscape:window-width="1321"
     inkscape:window-height="912"
     id="namedview13"
     showgrid="false"
     inkscape:zoom="14.75"
     inkscape:cx="-1.0508475"
     inkscape:cy="8"
     inkscape:window-x="0"
     inkscape:window-y="0"
     inkscape:window-maximized="0"
     inkscape:current-layer="XMLID_11_-2" /><g
     id="g3"><rect
       x="6"
       y="1"
       fill="#FFFFFF"
       width="4"
       height="14.1"
       id="rect5" /><path
       d="M5,0V16h6V0H5z M10,15H6V1h4V15z"
       id="path7" /></g><g
     id="XMLID_11_"><polygon
       id="XMLID_12_"
       points="16,5.2 12.1,2.9 12.1,4.7 2.5,4.7 2.5,5.7 12.1,5.7 12.1,7.4  " /></g><g
     id="XMLID_1_"
     transform="translate(-0.13559322,-5.6271186)"><polygon
       id="XMLID_2_"
       points="3.9,13.1 3.9,11.3 13.5,11.3 13.5,10.3 3.9,10.3 3.9,8.5 0,10.8 " /></g><g
     transform="matrix(0.66854991,0,0,1.0150659,-5.9806968,6.8063088)"
     id="XMLID_11_-2"><polygon
       id="XMLID_12_-9"
       points="2.5,5.7 12.1,5.7 12.1,7.4 16,5.2 12.1,2.9 12.1,4.7 2.5,4.7 " /></g></svg>