<?xml version="1.0" encoding="UTF-8" standalone="no"?>
<!-- Generator: Adobe Illustrator 19.0.0, SVG Export Plug-In . SVG Version: 6.00 Build 0)  -->

<svg
   xmlns:dc="http://purl.org/dc/elements/1.1/"
   xmlns:cc="http://creativecommons.org/ns#"
   xmlns:rdf="http://www.w3.org/1999/02/22-rdf-syntax-ns#"
   xmlns:svg="http://www.w3.org/2000/svg"
   xmlns="http://www.w3.org/2000/svg"
   xmlns:sodipodi="http://sodipodi.sourceforge.net/DTD/sodipodi-0.dtd"
   xmlns:inkscape="http://www.inkscape.org/namespaces/inkscape"
   version="1.0"
   id="Ebene_1"
   x="0px"
   y="0px"
   viewBox="0 0 16 16"
   enable-background="new 0 0 16 16"
   xml:space="preserve"
   inkscape:version="0.91 r13725"
   sodipodi:docname="timebasedrowfilter-icon.svg"
   inkscape:export-filename="/home/simon/git/knime-core/org.knime.time/src/org/knime/time/node/filter/timebasedrowfilter/timebased2.png"
   inkscape:export-xdpi="90"
   inkscape:export-ydpi="90"><metadata
     id="metadata16"><rdf:RDF><cc:Work
         rdf:about=""><dc:format>image/svg+xml</dc:format><dc:type
           rdf:resource="http://purl.org/dc/dcmitype/StillImage" /><dc:title></dc:title></cc:Work></rdf:RDF></metadata><defs
     id="defs14" /><sodipodi:namedview
     pagecolor="#ffffff"
     bordercolor="#666666"
     borderopacity="1"
     objecttolerance="10"
     gridtolerance="10"
     guidetolerance="10"
     inkscape:pageopacity="0"
     inkscape:pageshadow="2"
     inkscape:window-width="2159"
     inkscape:window-height="1300"
     id="namedview12"
     showgrid="false"
     inkscape:zoom="29.5"
     inkscape:cx="8.6171252"
     inkscape:cy="15.14453"
     inkscape:window-x="0"
     inkscape:window-y="27"
     inkscape:window-maximized="0"
     inkscape:current-layer="Ebene_1" /><g
     id="XMLID_1_" /><g
     id="XMLID_78_"
     transform="matrix(0.76694922,0,0,0.76694922,7.1012708,7.4847453)"><g
       id="XMLID_80_"><path
         id="XMLID_76_"
         class="st0"
         d="M 6.1,0.8 C 3.5,0.8 1.3,3 1.3,5.6 c 0,2.6 2.2,4.8 4.8,4.8 2.6,0 4.8,-2.2 4.8,-4.8 C 10.9,3 8.8,0.8 6.1,0.8 Z"
         inkscape:connector-curvature="0"
         style="fill:#ffffff" /><path
         id="XMLID_81_"
         d="m 6.1,0 c -3,0 -5.6,2.5 -5.6,5.6 0,3 2.5,5.6 5.6,5.6 3,0 5.6,-2.5 5.6,-5.6 C 11.7,2.5 9.2,0 6.1,0 Z m 0,10.4 C 3.5,10.4 1.3,8.2 1.3,5.6 1.3,3 3.5,0.8 6.1,0.8 c 2.6,0 4.8,2.2 4.8,4.8 0,2.6 -2.1,4.8 -4.8,4.8 z"
         inkscape:connector-curvature="0" /></g><polygon
       id="XMLID_73_"
       points="5.7,1.3 6.5,1.3 6.5,6 2.9,6 2.9,5.2 5.7,5.2 " /></g><g
     id="g7"
     transform="translate(-3.0237288,0.06779666)"><g
       id="XMLID_7_"><polygon
         id="XMLID_9_"
         points="6.9,1.6 4.2,0 4.2,1.2 0,1.2 0,2 4.2,2 4.2,3.3 " /></g><rect
       id="XMLID_176_"
       x="7.9000001"
       y="0"
       class="st0"
       width="1"
       height="3.3" /></g><g
     id="g12"
     transform="translate(-2.8881356,-2.4406779)"><g
       id="XMLID_2_"><polygon
         id="XMLID_3_"
         points="4.2,14 0,14 0,14.7 4.2,14.7 4.2,16 6.9,14.4 4.2,12.7 " /></g><rect
       id="XMLID_1_-6"
       x="7.9000001"
       y="12.7"
       class="st0"
       width="1"
       height="3.3" /></g><polygon
     id="XMLID_10_"
     points="0,6.9 0,9.1 5.5,9.1 5.5,12.1 11.2,8 5.5,3.9 5.5,6.9 "
     transform="translate(-2.0067796,-1.2881355)" /></svg>