<?xml version="1.0" encoding="utf-8"?>
<!-- Generator: Adobe Illustrator 19.0.0, SVG Export Plug-In . SVG Version: 6.00 Build 0)  -->
<!DOCTYPE svg PUBLIC "-//W3C//DTD SVG 1.1//EN" "http://www.w3.org/Graphics/SVG/1.1/DTD/svg11.dtd">
<svg version="1.1" id="Ebene_1" xmlns="http://www.w3.org/2000/svg" xmlns:xlink="http://www.w3.org/1999/xlink" x="0px" y="0px"
	 viewBox="0 0 16 16" style="enable-background:new 0 0 16 16;" xml:space="preserve">
<style type="text/css">
	.st0{fill:#CBCBCB;}
</style>
<rect x="-2.6" y="7.5" transform="matrix(0.6598 0.7514 -0.7514 0.6598 8.5223 -2.8445)" width="20" height="1"/>
<rect x="2" y="6.2" transform="matrix(0.6533 0.7571 -0.7571 0.6533 8.595 -5.3819)" width="16.3" height="1"/>
<rect x="7.8" y="3.6" transform="matrix(0.6204 0.7843 -0.7843 0.6204 7.8589 -7.9536)" width="8.6" height="1"/>
<circle cx="14.5" cy="2.3" r="1.3"/>
<circle class="st0" cx="2.2" cy="13.4" r="1.3"/>
<circle class="st0" cx="1.7" cy="7.8" r="1.3"/>
<circle class="st0" cx="7.2" cy="13.3" r="1.3"/>
<g id="XMLID_18_">
	<polygon id="XMLID_51_" class="st0" points="3.3,14.1 13.3,8 3.3,1.9 	"/>
	<path id="XMLID_20_" d="M14.5,7.6l-11.4-7C2.8,0.4,2.3,0.6,2.3,1v14c0,0.4,0.4,0.6,0.8,0.4l11.4-7C14.8,8.2,14.8,7.8,14.5,7.6z
		 M3.3,14.1V1.9L13.3,8L3.3,14.1z"/>
</g>
</svg>
