<?xml version="1.0" encoding="utf-8"?>
<!-- Generator: Adobe Illustrator 19.1.0, SVG Export Plug-In . SVG Version: 6.00 Build 0)  -->
<!DOCTYPE svg PUBLIC "-//W3C//DTD SVG 1.1//EN" "http://www.w3.org/Graphics/SVG/1.1/DTD/svg11.dtd">
<svg version="1.1" id="Ebene_1" xmlns="http://www.w3.org/2000/svg" xmlns:xlink="http://www.w3.org/1999/xlink" x="0px" y="0px"
	 viewBox="-412 290.3 16 16" style="enable-background:new -412 290.3 16 16;" xml:space="preserve">
<style type="text/css">
	.st0{fill:#E64E4F;enable-background:new    ;}
	.st1{fill:#4EAF75;enable-background:new    ;}
	.st2{fill:#C4D13B;enable-background:new    ;}
</style>
<rect x="-414.6" y="297.8" transform="matrix(-0.6598 -0.7514 0.7514 -0.6598 -895.7042 191.051)" width="20" height="1"/>
<rect x="-410" y="296.5" transform="matrix(-0.6533 -0.7571 0.7571 -0.6533 -889.2009 186.7256)" width="16.3" height="1"/>
<rect x="-404.1" y="293.9" transform="matrix(-0.6204 -0.7843 0.7843 -0.6204 -878.7779 163.3802)" width="8.6" height="1"/>
<circle class="st0" cx="-397.5" cy="292.6" r="1.3"/>
<circle class="st1" cx="-409.8" cy="303.7" r="1.3"/>
<circle class="st1" cx="-410.3" cy="298.1" r="1.3"/>
<circle class="st1" cx="-404.8" cy="303.6" r="1.3"/>
<g id="XMLID_18_">
	<polygon id="XMLID_51_" class="st2" points="-408.7,304.4 -398.7,298.3 -408.7,292.2 	"/>
	<path id="XMLID_20_" d="M-397.5,297.9l-11.4-7c-0.3-0.2-0.8,0-0.8,0.4v14c0,0.4,0.4,0.6,0.8,0.4l11.4-7
		C-397.2,298.5-397.2,298.1-397.5,297.9z M-408.7,304.4v-12.2l10,6.1L-408.7,304.4z"/>
</g>
</svg>
