<?xml version="1.0" encoding="utf-8"?>
<!-- Generator: Adobe Illustrator 19.1.0, SVG Export Plug-In . SVG Version: 6.00 Build 0)  -->
<!DOCTYPE svg PUBLIC "-//W3C//DTD SVG 1.1//EN" "http://www.w3.org/Graphics/SVG/1.1/DTD/svg11.dtd">
<svg version="1.1" id="Ebene_1" xmlns="http://www.w3.org/2000/svg" xmlns:xlink="http://www.w3.org/1999/xlink" x="0px" y="0px"
	 viewBox="-412 290.3 16 16" style="enable-background:new -412 290.3 16 16;" xml:space="preserve">
<style type="text/css">
	.st0{fill:#FFFFFF;}
	.st1{fill:#4EAF75;}
</style>
<g id="XMLID_4_">
	<rect id="XMLID_9_" x="-411.1" y="291.3" class="st0" width="3.8" height="14"/>
	<path id="XMLID_12_" d="M-412,290.3v16h5.6v-16H-412z M-407.3,305.3h-3.8v-14h3.8V305.3z"/>
</g>
<g id="XMLID_1_">
	<polygon id="XMLID_3_" class="st1" points="-398.3,294.4 -402.2,292.1 -402.2,293.9 -409.2,293.9 -409.2,294.9 -402.2,294.9 
		-402.2,296.7 	"/>
</g>
<g id="XMLID_2_">
	<path id="XMLID_5_" d="M-404.6,306.3V299h1.9v0.9h-0.9v5.6h0.9v0.8H-404.6z"/>
	<path id="XMLID_7_" d="M-401.2,301.8l-1-0.2c0.1-0.4,0.3-0.7,0.6-0.9c0.3-0.2,0.7-0.3,1.2-0.3s0.9,0.1,1.1,0.2
		c0.2,0.1,0.4,0.3,0.5,0.4c0.1,0.2,0.1,0.5,0.1,1v1.3c0,0.4,0,0.6,0.1,0.8c0,0.2,0.1,0.4,0.2,0.6h-1.1c0-0.1-0.1-0.2-0.1-0.3
		s0-0.1,0-0.1c-0.2,0.2-0.4,0.3-0.6,0.4c-0.2,0.1-0.4,0.1-0.7,0.1c-0.4,0-0.8-0.1-1-0.3c-0.2-0.2-0.4-0.5-0.4-0.9
		c0-0.2,0.1-0.4,0.2-0.6c0.1-0.2,0.3-0.3,0.5-0.4c0.2-0.1,0.5-0.2,0.9-0.3c0.5-0.1,0.9-0.2,1.1-0.3v-0.1c0-0.2-0.1-0.4-0.2-0.5
		c-0.1-0.1-0.3-0.1-0.6-0.1c-0.2,0-0.3,0-0.5,0.1C-401,301.5-401.1,301.6-401.2,301.8z M-399.7,302.7c-0.1,0-0.4,0.1-0.7,0.2
		c-0.3,0.1-0.5,0.1-0.6,0.2c-0.1,0.1-0.2,0.2-0.2,0.4c0,0.2,0.1,0.3,0.2,0.4s0.3,0.2,0.4,0.2c0.2,0,0.4-0.1,0.6-0.2
		c0.1-0.1,0.2-0.2,0.3-0.4c0-0.1,0-0.3,0-0.5V302.7z"/>
	<path id="XMLID_14_" d="M-396,299v7.3h-2v-0.9h0.9v-5.6h-0.9V299H-396z"/>
</g>
</svg>
