<?xml version="1.0" encoding="utf-8"?>
<!-- Generator: Adobe Illustrator 19.0.0, SVG Export Plug-In . SVG Version: 6.00 Build 0)  -->
<!DOCTYPE svg PUBLIC "-//W3C//DTD SVG 1.0//EN" "http://www.w3.org/TR/2001/REC-SVG-20010904/DTD/svg10.dtd">
<svg version="1.0" id="Ebene_1" xmlns="http://www.w3.org/2000/svg" xmlns:xlink="http://www.w3.org/1999/xlink" x="0px" y="0px"
	 viewBox="0 0 16 16" enable-background="new 0 0 16 16" xml:space="preserve">
<polygon id="XMLID_4_" points="12.4,2 12.4,1 3.5,1 3.5,2 7.4,2 7.4,14 3.5,14 3.5,15 12.4,15 12.4,14 8.4,14 8.4,2 "/>
<path fill="#1A171B" d="M2.7,7.9l-1-0.2C1.8,7.3,2,7,2.3,6.8C2.6,6.6,3,6.5,3.5,6.5s0.9,0.1,1.1,0.2C4.8,6.8,5,7,5.1,7.1
	c0.1,0.1,0.1,0.5,0.1,1v1.3c0,0.4,0,0.7,0.1,0.9c0,0.2,0.1,0.3,0.2,0.5H4.4c0-0.1-0.1-0.4-0.1-0.4c-0.3,0.2-0.5,0.3-0.7,0.4
	c-0.2,0-0.4,0.1-0.7,0.1c-0.4,0-0.8-0.1-1-0.3C1.7,10.4,1.6,10,1.6,9.7c0-0.2,0.1-0.4,0.2-0.6c0.1-0.2,0.3-0.3,0.5-0.4
	C2.5,8.6,4,8.2,4.2,8.1V8c0-0.2-0.1-0.4-0.2-0.5C3.9,7.4,3.7,7.4,3.4,7.4c-0.2,0-0.3,0-0.5,0.1C2.8,7.6,2.7,7.7,2.7,7.9z M4.1,8.8
	C4,8.8,3.7,8.9,3.4,9C3.3,9,3,9.1,2.9,9.2C2.7,9.3,2.7,9.4,2.7,9.6c0,0.1,0,0.2,0.1,0.3s0.3,0.2,0.4,0.2c0.2,0,0.4-0.1,0.6-0.2
	C3.9,9.8,4,9.7,4.1,9.5c0-0.1,0-0.3,0-0.5V8.8z"/>
<path fill="#1A171B" d="M10.8,10.8V5.1h1.1v2.1c0.3-0.4,0.7-0.6,1.2-0.6s0.9,0.2,1.3,0.5c0.4,0.4,0.5,0.9,0.5,1.6
	c0,0.7-0.2,1.3-0.5,1.6s-0.7,0.6-1.2,0.6c-0.2,0-0.5-0.1-0.7-0.2c-0.2-0.1-0.4-0.3-0.6-0.5v0.6H10.8z M11.9,8.7c0,0.4,0.1,0.7,0.2,1
	c0.2,0.3,0.4,0.4,0.8,0.4c0.2,0,0.4-0.1,0.6-0.3s0.2-0.6,0.2-1c0-0.5-0.1-0.8-0.3-1S13,7.5,12.7,7.5C12,7.4,12,8.1,11.9,8.7z"/>
</svg>
