<?xml version="1.0" encoding="UTF-8" standalone="no"?>
<!-- Generator: Adobe Illustrator 21.0.0, SVG Export Plug-In . SVG Version: 6.00 Build 0)  -->

<svg
   xmlns:dc="http://purl.org/dc/elements/1.1/"
   xmlns:cc="http://creativecommons.org/ns#"
   xmlns:rdf="http://www.w3.org/1999/02/22-rdf-syntax-ns#"
   xmlns:svg="http://www.w3.org/2000/svg"
   xmlns="http://www.w3.org/2000/svg"
   xmlns:sodipodi="http://sodipodi.sourceforge.net/DTD/sodipodi-0.dtd"
   xmlns:inkscape="http://www.inkscape.org/namespaces/inkscape"
   version="1.1"
   id="Ebene_1"
   inkscape:export-filename="/home/simon/git/knime-core/org.knime.time/src/org/knime/time/node/manipulate/modifytimezone/modify_time_zone.png"
   inkscape:export-xdpi="90.169708"
   inkscape:export-ydpi="90.169708"
   inkscape:version="0.91 r13725"
   sodipodi:docname="modify_time_zone-icon.svg"
   x="0px"
   y="0px"
   viewBox="0 0 16 16"
   style="enable-background:new 0 0 16 16;"
   xml:space="preserve"><metadata
     id="metadata16"><rdf:RDF><cc:Work
         rdf:about=""><dc:format>image/svg+xml</dc:format><dc:type
           rdf:resource="http://purl.org/dc/dcmitype/StillImage" /><dc:title></dc:title></cc:Work></rdf:RDF></metadata><defs
     id="defs14" /><style
     type="text/css"
     id="style3">
	.st0{fill:#FFFFFF;}
</style><sodipodi:namedview
     bordercolor="#666666"
     borderopacity="1"
     gridtolerance="10"
     guidetolerance="10"
     id="namedview15"
     inkscape:current-layer="Ebene_1"
     inkscape:cx="9.5339288"
     inkscape:cy="9.4112209"
     inkscape:pageopacity="0"
     inkscape:pageshadow="2"
     inkscape:window-height="1343"
     inkscape:window-maximized="1"
     inkscape:window-width="2560"
     inkscape:window-x="0"
     inkscape:window-y="27"
     inkscape:zoom="45.254834"
     objecttolerance="10"
     pagecolor="#ffffff"
     showgrid="false"
     showguides="false" /><g
     id="g5"><g
       id="XMLID_140_" /><path
       id="path41"
       inkscape:connector-curvature="0"
       inkscape:export-xdpi="308.62"
       inkscape:export-ydpi="308.62"
       d="m 11.616618,2.9449814 c -0.5,0.5 -0.9,1.2 -1.5,1.7 -0.8999998,1 -1.6999998,0.4 -2.4999998,-0.4 -0.8,-0.8 -1.1,-1.5 -0.2,-2.4 0.5,-0.5 1,-1.19999994 1.7,-1.79999994 -3.1,-0.3 -4.8,1.29999994 -4.9,3.69999994 0,0.3 0,0.6 0.1,1 -0.8999999,1 -3,3.2 -3.89999999,4.1 -0.8,1 -0.3,1.7000006 0.4,2.3000006 0.69999999,0.7 1.50000009,1.4 2.40000009,0.5 0.8999999,-0.8 3.0999999,-3.1000005 4.0999999,-3.9000006 0.3,0.1 0.7,0.1 1.0000001,0.1 2.3999998,-0.2 3.8999998,-2.1 3.2999998,-4.9 l 0,0 z" /><g
       transform="translate(6.8960786,-0.0656646)"
       id="aNQFsz.tif_2_"><g
         id="g32"><path
           inkscape:connector-curvature="0"
           d="M 2,10.5 C 2,8.8 3,7.2 4.7,6.8 6.8,6.4 8.6,7.7 9,9.6 9.2,10.4 9,11.2 8.8,11.9 8.5,12.7 8,13.5 7.4,14.2 6.9,14.8 6.3,15.4 5.6,16 5.5,16 5.5,16.1 5.4,16 4.4,15.2 3.5,14.2 2.8,13.1 2.4,12.5 2.2,11.9 2,11.2 2,11 2,10.6 2,10.5 Z M 5.6,9 C 4.9,9 4.3,9.6 4.3,10.3 4.3,11 4.9,11.6 5.6,11.6 6.3,11.6 6.9,11 6.9,10.3 6.9,9.6 6.3,9 5.6,9 Z"
           id="path34" /></g></g></g></svg>