<?xml version="1.0" encoding="utf-8"?>
<!-- Generator: Adobe Illustrator 19.1.0, SVG Export Plug-In . SVG Version: 6.00 Build 0)  -->
<!DOCTYPE svg PUBLIC "-//W3C//DTD SVG 1.1//EN" "http://www.w3.org/Graphics/SVG/1.1/DTD/svg11.dtd">
<svg version="1.1" id="Ebene_1" xmlns="http://www.w3.org/2000/svg" xmlns:xlink="http://www.w3.org/1999/xlink" x="0px" y="0px"
	 viewBox="-289 412.9 16 16" style="enable-background:new -289 412.9 16 16;" xml:space="preserve">
<style type="text/css">
	.st0{fill:#F1933B;}
	.st1{fill:#1A171B;}
</style>
<g id="XMLID_8_">
	<polygon id="XMLID_11_" class="st0" points="-278.1,424 -274.5,421.2 -278.1,418.4 -278.1,420.6 -288,420.6 -288,421.7 
		-278.1,421.7 	"/>
	<path id="XMLID_18_" class="st1" d="M-272.9,421.2l-6.2-4.9v3.3h-9.9v3.1h9.9v3.3L-272.9,421.2z M-288,421.7v-1.1h9.9v-2.2l3.5,2.8
		l-3.5,2.8v-2.3H-288z"/>
</g>
<g id="XMLID_1_">
	<g id="XMLID_7_">
		<polygon id="XMLID_9_" points="-282.1,415.5 -284.8,413.9 -284.8,415.2 -289,415.2 -289,415.9 -284.8,415.9 -284.8,417.2 		"/>
	</g>
	<rect id="XMLID_2_" x="-281.1" y="413.9" width="1" height="3.3"/>
</g>
<g id="XMLID_6_">
	<g id="XMLID_4_">
		<polygon id="XMLID_5_" points="-282.1,426.3 -284.8,424.6 -284.8,425.9 -289,425.9 -289,426.6 -284.8,426.6 -284.8,427.9 		"/>
	</g>
	<rect id="XMLID_3_" x="-281.1" y="424.6" width="1" height="3.3"/>
</g>
</svg>
