<?xml version="1.0" encoding="utf-8"?>
<!-- Generator: Adobe Illustrator 19.0.0, SVG Export Plug-In . SVG Version: 6.00 Build 0)  -->
<!DOCTYPE svg PUBLIC "-//W3C//DTD SVG 1.0//EN" "http://www.w3.org/TR/2001/REC-SVG-20010904/DTD/svg10.dtd">
<svg version="1.0" id="Ebene_1" xmlns="http://www.w3.org/2000/svg" xmlns:xlink="http://www.w3.org/1999/xlink" x="0px" y="0px"
	 viewBox="0 0 16 16" enable-background="new 0 0 16 16" xml:space="preserve">
<g>
	<polygon points="11.3,12.1 11.3,8.7 7.1,4.5 5.6,3 5.6,1.1 5.6,-0.1 5.1,-0.1 5.1,-0.1 5.1,-0.1 4.6,-0.1 4.6,3.4 8.2,7 10.3,9.1 
		10.3,11.7 10.3,12.1 8.5,12.1 10.8,15.9 13,12.1 	"/>
	<polygon points="11.3,3.4 11.3,-0.1 10.3,-0.1 10.3,3 8.7,4.6 9.4,5.3 	"/>
	<polygon points="5.7,11.3 5.7,9 6.7,8 7.3,7.4 7,7 7,7 7,7 6.6,6.7 4.7,8.6 4.7,12.1 3,12.1 5.2,15.9 7.5,12.1 5.7,12.1 	"/>
</g>
</svg>
