<?xml version="1.0" encoding="utf-8"?>
<!-- Generator: Adobe Illustrator 19.0.0, SVG Export Plug-In . SVG Version: 6.00 Build 0)  -->
<!DOCTYPE svg PUBLIC "-//W3C//DTD SVG 1.1//EN" "http://www.w3.org/Graphics/SVG/1.1/DTD/svg11.dtd">
<svg version="1.1" id="Ebene_1" xmlns="http://www.w3.org/2000/svg" xmlns:xlink="http://www.w3.org/1999/xlink" x="0px" y="0px"
	 viewBox="0 0 16 16" style="enable-background:new 0 0 16 16;" xml:space="preserve">
<style type="text/css">
	.st0{fill:#FFFFFF;}
</style>
<polygon points="1,15 1,0 0,0 0,16 16,16 16,15 "/>
<g>
	<path class="st0" d="M8.2,4.9c0,0.3-0.3,0.4-0.6,0.4H5.2v2.5C5.2,8,5,8.2,4.7,8.2H3.6V14L14.5,2.7H8.2V4.9z"/>
	<path d="M16,2.1c-0.1-0.2-0.2-0.3-0.4-0.3H7.7C7.4,1.8,7.2,2,7.2,2.2v2.2H4.7c-0.3,0-0.5,0.2-0.5,0.5v2.4H3.1
		c-0.3,0-0.5,0.2-0.5,0.5v7.4c0,0.4,0.5,0.6,0.8,0.3l12.5-13C16,2.4,16,2.2,16,2.1C15.9,1.9,16,2.2,16,2.1z M3.6,14V8.2h1.1
		C5,8.2,5.2,8,5.2,7.7V5.3h2.5c0.3,0,0.5-0.2,0.5-0.5V2.7h6.3L3.6,14z"/>
</g>
</svg>
