<?xml version="1.0" encoding="utf-8"?>
<!-- Generator: Adobe Illustrator 14.0.0, SVG Export Plug-In . SVG Version: 6.00 Build 43363)  -->
<!DOCTYPE svg PUBLIC "-//W3C//DTD SVG 1.1//EN" "http://www.w3.org/Graphics/SVG/1.1/DTD/svg11.dtd">
<svg version="1.1" id="Ebene_1" xmlns="http://www.w3.org/2000/svg" xmlns:xlink="http://www.w3.org/1999/xlink" x="0px" y="0px"
	 width="16px" height="16px" viewBox="-412 290.3 16 16" style="enable-background:new -412 290.3 16 16;" xml:space="preserve">
<style type="text/css">
<![CDATA[
	.st0{fill:#4EAF75;}
	.st1{fill:#FFFFFF;}
]]>
</style>
<g id="XMLID_4_">
	<rect id="XMLID_9_" x="-411.1" y="291.3" class="st1" width="3.8" height="14"/>
	<path id="XMLID_12_" d="M-412,290.3v16h5.6v-16H-412z M-407.3,305.3h-3.8v-14h3.8V305.3z"/>
</g>
<g id="XMLID_1_">
	<polygon id="XMLID_3_" class="st0" points="-398.3,292.6 -402.2,290.3 -402.2,292.1 -409.2,292.1 -409.2,293.1 -402.2,293.1 
		-402.2,294.9 	"/>
</g>
<g id="XMLID_6_">
	<path id="XMLID_11_" d="M-402.1,306.3V299h1.3v0.9h-0.6v5.6h0.6v0.8H-402.1z"/>
	<path id="XMLID_10_" d="M-399.7,301.8l-0.7-0.2c0.1-0.4,0.2-0.7,0.4-0.9s0.5-0.3,0.8-0.3c0.4,0,0.6,0.1,0.8,0.2s0.3,0.3,0.4,0.4
		c0.1,0.2,0.1,0.5,0.1,1v1.3c0,0.4,0,0.6,0.1,0.8c0,0.2,0.1,0.4,0.1,0.6h-0.8c0-0.1-0.1-0.2-0.1-0.3c0-0.1,0-0.1,0-0.1
		c-0.1,0.2-0.3,0.3-0.4,0.4s-0.3,0.1-0.5,0.1c-0.3,0-0.6-0.1-0.7-0.3c-0.1-0.2-0.3-0.5-0.3-0.9c0-0.2,0.1-0.4,0.1-0.6
		c0.1-0.2,0.2-0.3,0.4-0.4s0.4-0.2,0.6-0.3c0.4-0.1,0.6-0.2,0.8-0.3v-0.1c0-0.2-0.1-0.4-0.1-0.5c-0.1-0.1-0.2-0.1-0.4-0.1
		c-0.1,0-0.2,0-0.4,0.1C-399.5,301.5-399.6,301.6-399.7,301.8z M-398.6,302.7c-0.1,0-0.3,0.1-0.5,0.2c-0.2,0.1-0.4,0.1-0.4,0.2
		s-0.1,0.2-0.1,0.4c0,0.2,0.1,0.3,0.1,0.4c0.1,0.1,0.2,0.2,0.3,0.2c0.1,0,0.3-0.1,0.4-0.2c0.1-0.1,0.1-0.2,0.2-0.4
		c0-0.1,0-0.3,0-0.5V302.7z"/>
	<path id="XMLID_8_" d="M-396,299v7.3h-1.4v-0.9h0.6v-5.6h-0.6V299H-396z"/>
</g>
<g id="XMLID_2_">
	<path id="XMLID_13_" d="M-403.7,305.2v-7.3h1.3v0.9h-0.6v5.6h0.6v0.8H-403.7z"/>
</g>
<g id="XMLID_5_">
	<path id="XMLID_7_" d="M-405.1,303.9v-7.3h1.3v0.9h-0.6v5.6h0.6v0.8H-405.1z"/>
</g>
<g id="XMLID_14_">
	<path id="XMLID_15_" d="M-406.7,303v-7.3h1.3v0.9h-0.6v5.6h0.6v0.8H-406.7z"/>
</g>
</svg>
