<?xml version="1.0" encoding="utf-8"?>
<!-- Generator: Adobe Illustrator 19.1.0, SVG Export Plug-In . SVG Version: 6.00 Build 0)  -->
<!DOCTYPE svg PUBLIC "-//W3C//DTD SVG 1.1//EN" "http://www.w3.org/Graphics/SVG/1.1/DTD/svg11.dtd">
<svg version="1.1" id="Ebene_1" xmlns="http://www.w3.org/2000/svg" xmlns:xlink="http://www.w3.org/1999/xlink" x="0px" y="0px"
	 viewBox="0 0 16 16" style="enable-background:new 0 0 16 16;" xml:space="preserve">
<style type="text/css">
	.st0{fill:#C4D13B;}
</style>
<g>
	<polygon points="16,9.1 16,4 11.8,4 11.8,1.1 9.9,1.1 9.9,4 5.7,4 5.7,9.5 1.5,9.5 1.5,16 3.4,16 3.4,11.6 9.9,11.6 9.9,16 
		11.8,16 11.8,9.5 7.6,9.5 7.6,6 14.1,6 14.1,9.1 	"/>
</g>
<polygon id="XMLID_55_" points="5.6,2 3.5,2 3.5,-0.1 2.1,-0.1 2.1,2 0,2 0,3.5 2.1,3.5 2.1,5.6 3.5,5.6 3.5,3.5 5.6,3.5 "/>
<g>
	<polygon class="st0" points="8.1,4.5 15.5,9 8.1,13.5 	"/>
	<path d="M8.1,14c-0.1,0-0.2,0-0.2-0.1c-0.2-0.1-0.3-0.3-0.3-0.4v-9c0-0.2,0.1-0.3,0.3-0.4C8.1,4,8.3,4,8.4,4.1l7.4,4.5
		C15.9,8.7,16,8.8,16,9s-0.1,0.3-0.2,0.4l-7.4,4.5C8.3,14,8.2,14,8.1,14z M8.6,5.4v7.2L14.5,9L8.6,5.4z"/>
</g>
</svg>
