<?xml version="1.0" encoding="utf-8"?>
<!-- Generator: Adobe Illustrator 19.0.0, SVG Export Plug-In . SVG Version: 6.00 Build 0)  -->
<!DOCTYPE svg PUBLIC "-//W3C//DTD SVG 1.1//EN" "http://www.w3.org/Graphics/SVG/1.1/DTD/svg11.dtd">
<svg version="1.1" id="Ebene_1" xmlns="http://www.w3.org/2000/svg" xmlns:xlink="http://www.w3.org/1999/xlink" x="0px" y="0px"
	 viewBox="0 0 16 16" style="enable-background:new 0 0 16 16;" xml:space="preserve">
<style type="text/css">
	.st0{fill:#CBCBCB;}
	.st1{fill:#1A171B;}
</style>
<g>
	<g>
		<path d="M0.5,10.9V5.1h1.9c1.1,0,2.3,0.1,2.5,1.4c0.2,1.6-1.1,2.1-2.5,2.1H1.6v2.2H0.5z M1.6,6.1v1.6h0.6c0.6,0,1.4,0,1.4-0.8
			c0-0.8-0.9-0.8-1.5-0.8H1.6z"/>
		<path d="M7.4,11.7H6.7c-1.5-2.3-1.6-5.2,0-7.5h0.8C6.3,6.8,6.3,9.2,7.4,11.7z"/>
		<path d="M13.5,10.9h-1.3l-0.5-1.3H9.4l-0.5,1.3H7.7l2.2-5.7h1.2L13.5,10.9z M11.3,8.6l-0.8-2.1L9.8,8.6H11.3z"/>
		<path d="M13.6,11.7c1.2-2.5,1.1-5,0-7.5h0.7c1.6,2.3,1.6,5.2,0,7.5H13.6z"/>
	</g>
</g>
<g id="XMLID_18_">
	<polygon id="XMLID_51_" class="st0" points="3.9,14.1 13.8,8 3.9,1.9 	"/>
	<path id="XMLID_20_" class="st1" d="M15,7.6l-11.4-7C3.3,0.4,2.9,0.6,2.9,1v14c0,0.4,0.4,0.6,0.8,0.4l11.4-7
		C15.3,8.2,15.3,7.8,15,7.6z M3.9,14.1V1.9L13.8,8L3.9,14.1z"/>
</g>
</svg>
