<?xml version="1.0" encoding="utf-8"?>
<!-- Generator: Adobe Illustrator 19.1.0, SVG Export Plug-In . SVG Version: 6.00 Build 0)  -->
<!DOCTYPE svg PUBLIC "-//W3C//DTD SVG 1.1//EN" "http://www.w3.org/Graphics/SVG/1.1/DTD/svg11.dtd">
<svg version="1.1" id="Ebene_1" xmlns="http://www.w3.org/2000/svg" xmlns:xlink="http://www.w3.org/1999/xlink" x="0px" y="0px"
	 viewBox="-412 290.3 16 16" style="enable-background:new -412 290.3 16 16;" xml:space="preserve">
<style type="text/css">
	.st0{fill:#C4D13B;}
	.st1{fill:#1A171B;}
</style>
<g>
	<g>
		<path d="M-411.5,301.2v-5.8h1.9c1.1,0,2.3,0.1,2.5,1.4c0.2,1.6-1.1,2.1-2.5,2.1h-0.8v2.2h-1.1V301.2z M-410.4,296.4v1.6h0.6
			c0.6,0,1.4,0,1.4-0.8c0-0.8-0.9-0.8-1.5-0.8C-409.9,296.4-410.4,296.4-410.4,296.4z"/>
		<path d="M-404.6,302h-0.7c-1.5-2.3-1.6-5.2,0-7.5h0.8C-405.7,297.1-405.7,299.5-404.6,302z"/>
		<path d="M-398.5,301.2h-1.3l-0.5-1.3h-2.3l-0.5,1.3h-1.2l2.2-5.7h1.2L-398.5,301.2z M-400.7,298.9l-0.8-2.1l-0.7,2.1H-400.7z"/>
		<path d="M-398.4,302c1.2-2.5,1.1-5,0-7.5h0.7c1.6,2.3,1.6,5.2,0,7.5H-398.4z"/>
	</g>
</g>
<g id="XMLID_18_">
	<polygon id="XMLID_51_" class="st0" points="-408.1,304.4 -398.2,298.3 -408.1,292.2 	"/>
	<path id="XMLID_20_" class="st1" d="M-397,297.9l-11.4-7c-0.3-0.2-0.7,0-0.7,0.4v14c0,0.4,0.4,0.6,0.8,0.4l11.4-7
		C-396.7,298.5-396.7,298.1-397,297.9z M-408.1,304.4v-12.2l9.9,6.1L-408.1,304.4z"/>
</g>
</svg>
