<?xml version="1.0" encoding="utf-8"?>
<!-- Generator: Adobe Illustrator 21.0.0, SVG Export Plug-In . SVG Version: 6.00 Build 0)  -->
<svg version="1.0" id="Ebene_1" xmlns="http://www.w3.org/2000/svg" xmlns:xlink="http://www.w3.org/1999/xlink" x="0px" y="0px"
	 viewBox="0 0 16 16" style="enable-background:new 0 0 16 16;" xml:space="preserve">
<style type="text/css">
	.st0{fill:none;stroke:#222221;stroke-miterlimit:10;}
</style>
<g>
	<path d="M3.6389024,16c-0.0130427,0-0.0260851,0-0.0391281,0c-0.0539773-0.0243158-0.1168418-0.0382071-0.1601057-0.0750895
		c-0.0938542-0.0800133-0.1781526-0.1713142-0.2655334-0.2588234c-0.2770841-0.2774878-0.5521736-0.5569973-0.8316731-0.8320265
		c-0.0789602-0.0776968-0.1142449-0.163456-0.1138959-0.2734461c0.002126-0.6699829,0.000741-1.3399763,0.0018697-2.009964
		c0.0000663-0.0392628-0.0115998-0.0671072-0.0393417-0.0940828c-0.0992596-0.0965176-0.196659-0.1949511-0.294569-0.2928534
		c-0.5528677-0.552824-1.1063149-1.1050711-1.6578566-1.659215C0.1511827,10.4166002,0.0464045,10.3416557,0,10.2188406
		c0-0.0326071,0-0.0652132,0-0.0978203c0.0072489-0.017498,0.0148185-0.0348721,0.0216915-0.0525169
		C0.0521396,9.9903326,0.0981031,9.926405,0.1813313,9.898222c0.0269583-0.0091286,0.0551533-0.0146046,0.0827826-0.0217514
		c1.8618398,0,3.7236795,0,5.5855198,0c0.0156932,0.0036278,0.0312152,0.0085201,0.0471091,0.0106659
		C5.9653983,9.8964033,6.021287,9.9300747,6.0587611,9.9860277c0.0274901,0.0410461,0.0435915,0.0897188,0.0647683,0.1349926
		c0,0.0326071,0,0.0652132,0,0.0978203c-0.0299735,0.0457239-0.0533686,0.0979242-0.090981,0.1361284
		c-0.2548223,0.2588358-0.5126867,0.514677-0.769495,0.7715588c-0.442265,0.4423914-0.8842311,0.8850832-1.3272614,1.3267078
		c-0.0299299,0.0298347-0.0428541,0.0595512-0.0428057,0.1023951c0.0011656,1.0367985,0.0010221,2.0735979,0.0004876,3.1103973
		c-0.0000217,0.042161-0.0040243,0.0846195-0.0099316,0.1264086c-0.0095391,0.0674763-0.0482593,0.1179819-0.1063211,0.1498308
		C3.7336643,15.9661598,3.6851885,15.9810839,3.6389024,16z"/>
</g>
<g>
	<path d="M3.6389024,6.1235294c-0.0130427,0-0.0260851,0-0.0391281,0C3.5457971,6.0992136,3.4829326,6.0853219,3.4396687,6.0484395
		C3.3458145,5.9684272,3.2615161,5.8771257,3.1741352,5.7896166c-0.2770841-0.2774882-0.5521736-0.5569973-0.8316731-0.832027
		c-0.0789602-0.0776968-0.1142449-0.163456-0.1138959-0.2734451c0.002126-0.6699834,0.000741-1.3399765,0.0018697-2.0099642
		C2.2305021,2.6349177,2.2188361,2.6070724,2.1910942,2.580097c-0.0992596-0.0965176-0.196659-0.1949511-0.294569-0.2928531
		C1.3436575,1.7344199,0.7902103,1.1821725,0.2386685,0.6280287C0.1511827,0.54013,0.0464045,0.465185,0,0.3423699
		c0-0.0326066,0-0.0652133,0-0.09782c0.0072489-0.0174986,0.0148185-0.0348724,0.0216915-0.0525175
		c0.0304482-0.0781702,0.0764116-0.1420984,0.1596398-0.1702808C0.2082896,0.0126231,0.2364846,0.0071469,0.2641139,0
		c1.8618398,0,3.7236795,0,5.5855198,0c0.0156932,0.0036282,0.0312152,0.0085202,0.0471091,0.0106656
		C5.9653983,0.0199332,6.021287,0.053604,6.0587611,0.1095571C6.0862513,0.150603,6.1023526,0.199276,6.1235294,0.2445499
		c0,0.0326067,0,0.0652134,0,0.09782c-0.0299735,0.0457245-0.0533686,0.0979244-0.090981,0.1361286
		C5.7777262,0.7373341,5.5198617,0.9931752,5.2630534,1.250057C4.8207884,1.6924484,4.3788223,2.1351404,3.935792,2.5767648
		c-0.0299299,0.029835-0.0428541,0.0595515-0.0428057,0.1023951C3.8941519,3.7159584,3.8940084,4.752758,3.8934739,5.7895575
		C3.8934522,5.831718,3.8894496,5.874177,3.8835423,5.915966C3.8740032,5.9834423,3.835283,6.0339479,3.7772212,6.0657969
		C3.7336643,6.0896888,3.6851885,6.1046133,3.6389024,6.1235294z"/>
</g>
<g>
	<path d="M13.109026,11.5625c-0.0151758,0-0.0303516,0-0.0455275,0c-0.0628052-0.0282927-0.135951-0.0444555-0.1862907-0.0873699
		c-0.1092033-0.0930986-0.2072878-0.1993322-0.30896-0.3011522c-0.3223991-0.3228703-0.6424789-0.6480923-0.9676886-0.9681005
		c-0.0918732-0.0904036-0.1329288-0.1901884-0.1325226-0.3181658c0.0024738-0.7795553,0.0008621-1.559123,0.0021753-2.3386831
		c0.0000772-0.0456839-0.0134974-0.078083-0.0457764-0.1094704c-0.1154928-0.1123023-0.2288208-0.2268343-0.3427439-0.3407478
		C10.438406,6.455575,9.794445,5.8130107,9.1527014,5.1682396C9.0509081,5.0659652,8.9289932,4.9787636,8.875,4.8358626
		c0-0.0379391,0-0.0758786,0-0.1138177c0.0084343-0.0203605,0.0172424-0.040576,0.025239-0.0611067
		C8.935667,4.569984,8.9891472,4.4956007,9.0859871,4.4628091C9.1173544,4.4521875,9.1501608,4.4458156,9.1823082,4.4375
		c2.1663342,0,4.3326674,0,6.4990015,0c0.01826,0.0042214,0.0363207,0.0099134,0.0548143,0.0124097
		c0.0798836,0.0107837,0.1449127,0.0499611,0.1885157,0.1150646C15.956625,4.6127334,15.9753599,4.6693664,16,4.7220445
		c0,0.0379395,0,0.0758791,0,0.1138182c-0.0348759,0.0532026-0.0620966,0.1139393-0.1058598,0.1583915
		c-0.2964983,0.301167-0.5965347,0.5988498-0.8953428,0.8977432c-0.514595,0.5147419-1.028842,1.0298338-1.5443277,1.5436835
		c-0.0348244,0.0347142-0.0498629,0.0692906-0.0498066,0.1191416c0.0013571,1.2063613,0.0011892,2.412724,0.0005674,3.6190867
		c-0.0000248,0.0490551-0.0046825,0.0984583-0.0115557,0.1470814c-0.0110989,0.0785112-0.0561514,0.1372776-0.1237097,0.1743355
		C13.219285,11.5231247,13.1628809,11.5404902,13.109026,11.5625z"/>
</g>
<line class="st0" x1="6.1235294" y1="3.0617647" x2="9.0334587" y2="8.2244883"/>
<line class="st0" x1="6.1235294" y1="12.9382353" x2="9.0201082" y2="7.7395658"/>
</svg>
