<?xml version="1.0" encoding="utf-8"?>
<!-- Generator: Adobe Illustrator 19.0.0, SVG Export Plug-In . SVG Version: 6.00 Build 0)  -->
<!DOCTYPE svg PUBLIC "-//W3C//DTD SVG 1.1//EN" "http://www.w3.org/Graphics/SVG/1.1/DTD/svg11.dtd">
<svg version="1.1" id="Ebene_1" xmlns="http://www.w3.org/2000/svg" xmlns:xlink="http://www.w3.org/1999/xlink" x="0px" y="0px"
	 viewBox="0 0 16 16" style="enable-background:new 0 0 16 16;" xml:space="preserve">
<style type="text/css">
	.st0{fill:#CBCBCB;}
</style>
<g id="XMLID_4_">
	<polygon id="XMLID_8_" class="st0" points="7.3,1 1,1 1,15 9.9,15 9.9,3.7 7.3,3.7 	"/>
	<path id="XMLID_5_" d="M7.8,0H0v16h10.9V3.2L7.8,0z M9.9,15H1V1h6.3v2.7h2.6V15z"/>
</g>
<g id="XMLID_11_">
	<polygon id="XMLID_12_" points="16,8 12.1,5.7 12.1,7.5 6.4,7.5 6.4,8.5 12.1,8.5 12.1,10.3 	"/>
</g>
<polygon points="7.9,11.7 7.9,12.3 3.3,12.3 3.3,11.7 2.3,11.7 2.3,13.9 3.3,13.9 3.3,13.3 7.9,13.3 7.9,13.9 8.9,13.9 8.9,11.7 "/>
</svg>
