<?xml version="1.0" encoding="utf-8"?>
<!-- Generator: Adobe Illustrator 19.1.0, SVG Export Plug-In . SVG Version: 6.00 Build 0)  -->
<!DOCTYPE svg PUBLIC "-//W3C//DTD SVG 1.1//EN" "http://www.w3.org/Graphics/SVG/1.1/DTD/svg11.dtd">
<svg version="1.1" id="Ebene_1" xmlns="http://www.w3.org/2000/svg" xmlns:xlink="http://www.w3.org/1999/xlink" x="0px" y="0px"
	 viewBox="-412 290.3 16 16" style="enable-background:new -412 290.3 16 16;" xml:space="preserve">
<style type="text/css">
	.st0{fill:#EEF7FC;enable-background:new    ;}
	.st1{fill:#8B95AA;}
</style>
<polygon id="XMLID_8_" class="st0" points="-404.7,291.3 -411,291.3 -411,305.3 -402.1,305.3 -402.1,294 -404.7,294 "/>
<path id="XMLID_5_" class="st1" d="M-404.2,290.3h-7.8v16h10.9v-12.8L-404.2,290.3z M-402.1,305.3h-8.9v-14h6.3v2.7h2.6V305.3z"/>
<g id="XMLID_11_">
	<polygon id="XMLID_12_" points="-396,298.3 -399.9,296 -399.9,297.8 -405.6,297.8 -405.6,298.8 -399.9,298.8 -399.9,300.6 	"/>
</g>
<polygon points="-404.1,302 -404.1,302.6 -408.7,302.6 -408.7,302 -409.7,302 -409.7,304.2 -408.7,304.2 -408.7,303.6 -404.1,303.6 
	-404.1,304.2 -403.1,304.2 -403.1,302 "/>
</svg>
