<?xml version="1.0" encoding="utf-8"?>
<!-- Generator: Adobe Illustrator 19.0.0, SVG Export Plug-In . SVG Version: 6.00 Build 0)  -->
<!DOCTYPE svg PUBLIC "-//W3C//DTD SVG 1.1//EN" "http://www.w3.org/Graphics/SVG/1.1/DTD/svg11.dtd">
<svg version="1.1" id="Ebene_1" xmlns="http://www.w3.org/2000/svg" xmlns:xlink="http://www.w3.org/1999/xlink" x="0px" y="0px"
	 viewBox="0 0 16 16" style="enable-background:new 0 0 16 16;" xml:space="preserve">
<style type="text/css">
	.st0{fill:#FFFFFF;}
	.st1{fill:none;}
</style>
<g id="XMLID_2_">
	<path id="XMLID_3_" d="M14.2,6.2l1.1,0.4c-0.4,1.4-1.6,2.1-3,1.8s-2-1.7-2-3c0-1.2,0.6-2.4,1.8-2.7c1.3-0.4,2.7,0.2,3.1,1.6l-1,0.3
		l-0.3-0.4c-0.7-0.7-1.8-0.8-2.3,0.3C11.4,5,11.4,6.4,12,7C12.8,8,14,7.3,14.2,6.2z"/>
</g>
<g id="XMLID_6_">
	<path id="XMLID_19_" class="st0" d="M1,15h7.5V1H1V15z M2.7,3.4h4.5v0.5l0,0l0,0v0.5H2.7V3.4z M2.7,5.4h4.5v0.5l0,0l0,0v0.5H2.7
		V5.4z M2.7,7.5h4.5V8l0,0l0,0v0.5H2.7V7.5z"/>
	<path id="XMLID_24_" d="M0,0v16h9.5V0H0z M8.5,15H1V1h7.5V15z"/>
	<line id="XMLID_25_" class="st1" x1="7.2" y1="3.9" x2="7.2" y2="3.9"/>
	<polygon id="XMLID_26_" points="7.2,3.9 7.2,3.4 2.7,3.4 2.7,4.4 7.2,4.4 	"/>
	<line id="XMLID_27_" class="st1" x1="7.2" y1="5.9" x2="7.2" y2="5.9"/>
	<polygon id="XMLID_28_" points="7.2,5.9 7.2,5.4 2.7,5.4 2.7,6.4 7.2,6.4 	"/>
	<line id="XMLID_29_" class="st1" x1="7.2" y1="8" x2="7.2" y2="8"/>
	<polygon id="XMLID_30_" points="7.2,8 7.2,7.5 2.7,7.5 2.7,8.5 7.2,8.5 	"/>
</g>
<g id="XMLID_11_">
	<polygon id="XMLID_12_" points="15,12.1 11.2,9.8 11.2,11.5 5.4,11.5 5.4,12.6 11.2,12.6 11.2,14.3 	"/>
</g>
</svg>
