<?xml version="1.0" encoding="utf-8"?>
<!-- Generator: Adobe Illustrator 19.0.0, SVG Export Plug-In . SVG Version: 6.00 Build 0)  -->
<!DOCTYPE svg PUBLIC "-//W3C//DTD SVG 1.1//EN" "http://www.w3.org/Graphics/SVG/1.1/DTD/svg11.dtd">
<svg version="1.1" id="Ebene_1" xmlns="http://www.w3.org/2000/svg" xmlns:xlink="http://www.w3.org/1999/xlink" x="0px" y="0px"
	 viewBox="0 0 16 16" style="enable-background:new 0 0 16 16;" xml:space="preserve">
<style type="text/css">
	.st0{fill:#FFFFFF;}
	.st1{fill:#CBCBCB;}
</style>
<g id="XMLID_11_">
	<polygon id="XMLID_12_" points="9.6,13.7 5.7,11.5 5.7,13.2 0,13.2 0,14.2 5.7,14.2 5.7,16 	"/>
</g>
<g>
	<rect x="12.5" y="7.1" class="st0" width="2.6" height="2.5"/>
	<rect x="9" y="3.5" class="st0" width="2.5" height="2.6"/>
	<rect x="5.5" y="7.1" class="st0" width="2.5" height="2.5"/>
	<rect x="12.5" y="3.5" class="st0" width="2.6" height="2.6"/>
	<rect x="9" y="7.1" class="st0" width="2.5" height="2.5"/>
	<rect x="5.5" y="3.5" class="st0" width="2.5" height="2.6"/>
	<path d="M4.5,0v10.6H16V0H4.5z M8,9.6H5.5V7.1H8V9.6z M8,6.1H5.5V3.5H8V6.1z M11.5,9.6H9V7.1h2.5V9.6z M11.5,6.1H9V3.5h2.5V6.1z
		 M15,9.6h-2.5V7.1h2.6v2.5H15z M15,6.1h-2.5V3.5h2.6v2.6H15z M15.2,2.7H5.3V0.8h9.9V2.7z"/>
	<rect x="5.3" y="0.8" class="st1" width="9.9" height="1.9"/>
</g>
</svg>
