<?xml version="1.0" encoding="utf-8"?>
<!-- Generator: Adobe Illustrator 19.1.0, SVG Export Plug-In . SVG Version: 6.00 Build 0)  -->
<!DOCTYPE svg PUBLIC "-//W3C//DTD SVG 1.1//EN" "http://www.w3.org/Graphics/SVG/1.1/DTD/svg11.dtd">
<svg version="1.1" id="Ebene_1" xmlns="http://www.w3.org/2000/svg" xmlns:xlink="http://www.w3.org/1999/xlink" x="0px" y="0px"
	 viewBox="-412 290.3 16 16" style="enable-background:new -412 290.3 16 16;" xml:space="preserve">
<style type="text/css">
	.st0{fill:#FFFFFF;}
	.st1{fill:#F1933B;}
</style>
<g id="XMLID_11_">
	<polygon id="XMLID_12_" points="-402.4,304 -406.3,301.8 -406.3,303.5 -412,303.5 -412,304.5 -406.3,304.5 -406.3,306.3 	"/>
</g>
<g>
	<rect x="-399.5" y="297.4" class="st0" width="2.6" height="2.5"/>
	<rect x="-403" y="293.8" class="st0" width="2.5" height="2.6"/>
	<rect x="-406.5" y="297.4" class="st0" width="2.5" height="2.5"/>
	<rect x="-399.5" y="293.8" class="st0" width="2.6" height="2.6"/>
	<rect x="-403" y="297.4" class="st0" width="2.5" height="2.5"/>
	<rect x="-406.5" y="293.8" class="st0" width="2.5" height="2.6"/>
	<path d="M-407.5,290.3v10.6h11.5v-10.6H-407.5z M-404,299.9h-2.5v-2.5h2.5V299.9z M-404,296.4h-2.5v-2.6h2.5V296.4z M-400.5,299.9
		h-2.5v-2.5h2.5V299.9z M-400.5,296.4h-2.5v-2.6h2.5V296.4z M-397,299.9h-2.5v-2.5h2.6v2.5H-397z M-397,296.4h-2.5v-2.6h2.6v2.6
		H-397z M-396.8,293h-9.9v-1.9h9.9V293z"/>
	<rect x="-406.7" y="291.1" class="st1" width="9.9" height="1.9"/>
</g>
</svg>
