<?xml version="1.0" encoding="utf-8"?>
<!-- Generator: Adobe Illustrator 19.1.0, SVG Export Plug-In . SVG Version: 6.00 Build 0)  -->
<!DOCTYPE svg PUBLIC "-//W3C//DTD SVG 1.1//EN" "http://www.w3.org/Graphics/SVG/1.1/DTD/svg11.dtd">
<svg version="1.1" id="Ebene_1" xmlns="http://www.w3.org/2000/svg" xmlns:xlink="http://www.w3.org/1999/xlink" x="0px" y="0px"
	 viewBox="-289 412.9 16 16" style="enable-background:new -289 412.9 16 16;" xml:space="preserve">
<style type="text/css">
	.st0{fill:#E64E4F;}
	.st1{fill:#C4D13B;}
</style>
<g>
	<g>
		<rect x="-287.5" y="421.5" class="st0" width="6" height="3"/>
		<rect x="-287.5" y="417.3" class="st0" width="6" height="3.2"/>
		<path d="M-280.5,425.5v-9.2h-3.5v-2.4h2.3v-1h-5.6v1h2.3v2.4h-3.5v9.2h3.5v2.4h-2.3v1h5.7v-1h-2.4v-2.4H-280.5z M-287.5,417.3h6
			v3.2h-6V417.3z M-287.5,424.5v-3h6v3H-287.5z"/>
	</g>
	<g>
		<rect x="-280.5" y="421.5" class="st1" width="6" height="3"/>
		<rect x="-280.5" y="417.3" class="st1" width="6" height="3.2"/>
		<path d="M-273.5,425.5v-9.2h-3.5v-2.4h2.3v-1h-5.6v1h2.3v2.4h-3.5v9.2h3.5v2.4h-2.3v1h5.7v-1h-2.4v-2.4H-273.5z M-280.5,417.3h6
			v3.2h-6V417.3z M-280.5,424.5v-3h6v3H-280.5z"/>
	</g>
</g>
</svg>
