<?xml version="1.0" encoding="utf-8"?>
<!-- Generator: Adobe Illustrator 19.1.0, SVG Export Plug-In . SVG Version: 6.00 Build 0)  -->
<!DOCTYPE svg PUBLIC "-//W3C//DTD SVG 1.1//EN" "http://www.w3.org/Graphics/SVG/1.1/DTD/svg11.dtd">
<svg version="1.1" id="Ebene_1" xmlns="http://www.w3.org/2000/svg" xmlns:xlink="http://www.w3.org/1999/xlink" x="0px" y="0px"
	 viewBox="-412 290.3 16 16" style="enable-background:new -412 290.3 16 16;" xml:space="preserve">
<style type="text/css">
	.st0{fill:#FFD302;}
</style>
<g>
	<polygon points="-401.9,299.2 -398.7,294 -399.5,293.4 -402.4,298.2 -408.6,293.3 -409.2,294.1 -403.1,298.9 -408.5,302.5 
		-408,303.3 -402,299.3 	"/>
	<g>
		<circle class="st0" cx="-408.9" cy="293.7" r="2.1"/>
		<path d="M-408.9,296.8c1.7,0,3.1-1.4,3.1-3.1c0-1.7-1.4-3.1-3.1-3.1c-1.7,0-3.1,1.4-3.1,3.1C-412,295.4-410.6,296.8-408.9,296.8z
			 M-408.9,291.6c1.1,0,2.1,0.9,2.1,2.1c0,1.2-1,2.1-2.1,2.1s-2.1-1-2.1-2.1S-410.1,291.6-408.9,291.6z"/>
		<circle class="st0" cx="-399.1" cy="293.7" r="2.1"/>
		<path d="M-399.1,290.6c-1.7,0-3.1,1.4-3.1,3.1c0,1.7,1.4,3.1,3.1,3.1c1.7,0,3.1-1.4,3.1-3.1C-396,292-397.4,290.6-399.1,290.6z
			 M-401.2,293.7c0-1.1,0.9-2.1,2.1-2.1c1.1,0,2.1,0.9,2.1,2.1c0,1.2-0.9,2.1-2.1,2.1C-400.2,295.8-401.2,294.8-401.2,293.7z"/>
		<circle class="st0" cx="-408.3" cy="302.9" r="2.1"/>
		<path d="M-408.3,299.8c-1.7,0-3.1,1.4-3.1,3.1c0,1.7,1.4,3.1,3.1,3.1c1.7,0,3.1-1.4,3.1-3.1C-405.2,301.2-406.6,299.8-408.3,299.8
			z M-408.3,305c-1.1,0-2.1-0.9-2.1-2.1c0-1.2,0.9-2.1,2.1-2.1c1.2,0,2.1,0.9,2.1,2.1C-406.2,304.1-407.1,305-408.3,305z"/>
	</g>
	<circle cx="-402.3" cy="298.9" r="2.2"/>
</g>
</svg>
