<?xml version="1.0" encoding="utf-8"?>
<!-- Generator: Adobe Illustrator 19.0.0, SVG Export Plug-In . SVG Version: 6.00 Build 0)  -->
<!DOCTYPE svg PUBLIC "-//W3C//DTD SVG 1.1//EN" "http://www.w3.org/Graphics/SVG/1.1/DTD/svg11.dtd">
<svg version="1.1" id="Ebene_1" xmlns="http://www.w3.org/2000/svg" xmlns:xlink="http://www.w3.org/1999/xlink" x="0px" y="0px"
	 viewBox="0 0 16 16" style="enable-background:new 0 0 16 16;" xml:space="preserve">
<style type="text/css">
	.st0{fill:#FFFFFF;}
</style>
<g>
	<polygon points="10.1,8.9 13.3,3.7 12.5,3.1 9.6,7.9 3.4,3 2.8,3.8 8.9,8.6 3.5,12.2 4,13 10,9 	"/>
	<g>
		<circle class="st0" cx="3.1" cy="3.4" r="2.1"/>
		<path d="M3.1,6.5c1.7,0,3.1-1.4,3.1-3.1c0-1.7-1.4-3.1-3.1-3.1C1.4,0.3,0,1.7,0,3.4C0,5.1,1.4,6.5,3.1,6.5z M3.1,1.3
			c1.1,0,2.1,0.9,2.1,2.1S4.2,5.5,3.1,5.5S1,4.5,1,3.4S1.9,1.3,3.1,1.3z"/>
		<circle class="st0" cx="12.9" cy="3.4" r="2.1"/>
		<path d="M12.9,0.3c-1.7,0-3.1,1.4-3.1,3.1c0,1.7,1.4,3.1,3.1,3.1S16,5.1,16,3.4C16,1.7,14.6,0.3,12.9,0.3z M10.8,3.4
			c0-1.1,0.9-2.1,2.1-2.1c1.1,0,2.1,0.9,2.1,2.1s-0.9,2.1-2.1,2.1C11.8,5.5,10.8,4.5,10.8,3.4z"/>
		<circle class="st0" cx="3.7" cy="12.6" r="2.1"/>
		<path d="M3.7,9.5c-1.7,0-3.1,1.4-3.1,3.1s1.4,3.1,3.1,3.1c1.7,0,3.1-1.4,3.1-3.1S5.4,9.5,3.7,9.5z M3.7,14.7
			c-1.1,0-2.1-0.9-2.1-2.1s0.9-2.1,2.1-2.1s2.1,0.9,2.1,2.1S4.9,14.7,3.7,14.7z"/>
	</g>
	<circle cx="9.7" cy="8.6" r="2.2"/>
</g>
</svg>
