<?xml version="1.0" encoding="utf-8"?>
<!-- Generator: Adobe Illustrator 19.0.0, SVG Export Plug-In . SVG Version: 6.00 Build 0)  -->
<!DOCTYPE svg PUBLIC "-//W3C//DTD SVG 1.0//EN" "http://www.w3.org/TR/2001/REC-SVG-20010904/DTD/svg10.dtd">
<svg version="1.0" id="Ebene_1" xmlns="http://www.w3.org/2000/svg" xmlns:xlink="http://www.w3.org/1999/xlink" x="0px" y="0px"
	 viewBox="0 0 16 16" enable-background="new 0 0 16 16" xml:space="preserve">
<g>
	<polygon points="12.2,4.7 8.8,4.7 4.6,8.9 3.1,10.4 1.2,10.4 0,10.4 0,10.9 0,10.9 0,10.9 0,11.4 3.5,11.4 7.1,7.8 9.2,5.7 
		11.8,5.7 12.2,5.7 12.2,7.5 16,5.2 12.2,3 	"/>
	<polygon points="3.5,4.7 0,4.7 0,5.7 3.1,5.7 4.7,7.3 5.4,6.6 	"/>
	<polygon points="11.4,10.3 9.1,10.3 8.1,9.3 7.5,8.7 6.8,9.4 8.7,11.3 12.2,11.3 12.2,13 16,10.8 12.2,8.5 12.2,10.3 	"/>
</g>
</svg>
