<?xml version="1.0" encoding="utf-8"?>
<!-- Generator: Adobe Illustrator 19.0.0, SVG Export Plug-In . SVG Version: 6.00 Build 0)  -->
<!DOCTYPE svg PUBLIC "-//W3C//DTD SVG 1.1//EN" "http://www.w3.org/Graphics/SVG/1.1/DTD/svg11.dtd">
<svg version="1.1" id="Ebene_1" xmlns="http://www.w3.org/2000/svg" xmlns:xlink="http://www.w3.org/1999/xlink" x="0px" y="0px"
	 viewBox="0 0 16 16" style="enable-background:new 0 0 16 16;" xml:space="preserve">
<style type="text/css">
	.st0{opacity:0.8;fill:#CBCBCB;enable-background:new    ;}
	.st1{fill:#FFFFFF;}
</style>
<g>
	<path id="XMLID_41_" d="M15.8,4.8c-0.4-0.4-1-0.5-1.4-0.1L9,9.2L5,5.8c-0.3-0.3-0.9-0.3-1.2,0L0.4,8.3c-1,0.8,0.2,2.4,1.2,1.6
		l2.7-2l4.1,3.4c0.4,0.3,0.9,0.3,1.3,0l6-5C16.1,5.9,16.1,5.3,15.8,4.8C15.4,4.4,16.1,5.3,15.8,4.8z"/>
</g>
<rect x="5" y="0" class="st0" width="6" height="16"/>
<g id="XMLID_163_">
	<rect id="XMLID_167_" x="5.7" y="6.8" class="st1" width="4.7" height="2.4"/>
	<path id="XMLID_164_" d="M11.3,5.8H4.7v4.4h6.6V5.8z M5.7,9.2V6.8h4.7v2.4H5.7z"/>
</g>
</svg>
