<?xml version="1.0" encoding="utf-8"?>
<!-- Generator: Adobe Illustrator 21.0.0, SVG Export Plug-In . SVG Version: 6.00 Build 0)  -->
<svg version="1.1" id="Ebene_1" xmlns="http://www.w3.org/2000/svg" xmlns:xlink="http://www.w3.org/1999/xlink" x="0px" y="0px"
	 viewBox="0 0 16 16" style="enable-background:new 0 0 16 16;" xml:space="preserve">
<style type="text/css">
	.st0{stroke:#000000;stroke-miterlimit:10;}
</style>
<g>
	<path d="M7.4652553,12.65625c-0.0267572,0-0.0535135,0-0.0802708,0c-0.1107359-0.0498838-0.2397027-0.0783825-0.3284593-0.154048
		c-0.1925435-0.1641464-0.3654828-0.3514528-0.5447459-0.5309782c-0.5684414-0.5692711-1.1327915-1.1426878-1.7061882-1.7069139
		c-0.1619873-0.1593971-0.2343745-0.3353319-0.2336588-0.560977c0.0043621-1.3744793,0.0015202-2.7489796,0.0038362-4.1234674
		C4.5759044,5.4993176,4.551971,5.4421926,4.4950581,5.3868523C4.2914252,5.1888452,4.0916095,4.986908,3.8907459,4.7860603
		c-1.1342151-1.1341252-2.269619-2.2670681-3.4011142-3.4039011C0.3101532,1.2018336,0.0951994,1.0480829,0,0.7961261
		c0-0.0668929,0-0.133786,0-0.2006789C0.0148712,0.5595486,0.0304004,0.5239061,0.0445004,0.487707
		c0.0624648-0.1603671,0.1567594-0.2915167,0.3275031-0.3493333C0.4273088,0.1196464,0.4851512,0.1084119,0.541833,0.09375
		c3.8195887,0,7.6391773,0,11.458766,0c0.0321951,0.0074432,0.0640392,0.0174793,0.0966454,0.0218806
		c0.1408482,0.0190126,0.2555037,0.0880886,0.3323832,0.2028771C12.4860229,0.402714,12.5190554,0.5025674,12.5625,0.5954472
		c0,0.0668932,0,0.133786,0,0.2006789c-0.061491,0.0938044-0.1094866,0.2008932-0.1866484,0.2792696
		c-0.5227718,0.5310048-1.0517836,1.0558662-1.5786295,1.5828624C9.8899097,3.5658298,8.9832106,4.4740181,8.0743284,5.3800163
		C8.0129271,5.4412231,7.9864125,5.5021873,7.9865122,5.5900812c0.0023913,2.1270061,0.0020967,4.254014,0.0009999,6.3810225
		c-0.0000443,0.0864925-0.0082555,0.1735973-0.0203748,0.2593279c-0.0195694,0.1384287-0.0990047,0.2420425-0.2181187,0.3073807
		C7.6596608,12.5868254,7.5602117,12.6174431,7.4652553,12.65625z"/>
</g>
<g id="XMLID_3_">
	<polygon id="XMLID_4_" class="st0" points="15.2056704,13.7507124 14.1568966,12.7989531 14.1568966,13.572258 
		8.9907169,13.572258 8.9907169,13.9886465 14.1568966,13.9886465 14.1568966,14.7619505 	"/>
</g>
</svg>
