<?xml version="1.0" encoding="utf-8"?>
<!-- Generator: Adobe Illustrator 21.0.0, SVG Export Plug-In . SVG Version: 6.00 Build 0)  -->
<svg version="1.1" id="Ebene_1" xmlns="http://www.w3.org/2000/svg" xmlns:xlink="http://www.w3.org/1999/xlink" x="0px" y="0px"
	 viewBox="0 0 16 16" style="enable-background:new 0 0 16 16;" xml:space="preserve">
<g>
	<path d="M9.4522762,16c-0.0338793,0-0.0677576,0-0.1016369,0c-0.1402102-0.0631618-0.303504-0.099246-0.415885-0.1950502
		c-0.2437925-0.2078381-0.4627628-0.4449987-0.6897402-0.6723089c-0.7197428-0.7207928-1.4343057-1.4468365-2.1603227-2.1612415
		c-0.2051039-0.2018232-0.2967582-0.4245872-0.2958517-0.7102919c0.0055227-1.7403231,0.0019245-3.4806728,0.0048571-5.2210073
		C5.793869,6.9381132,5.7635651,6.8657832,5.691504,6.7957129C5.4336705,6.5450025,5.1806698,6.2893157,4.9263425,6.0350084
		c-1.4361084-1.4359941-2.8737218-2.8704915-4.306386-4.3099146C0.3927064,1.4967713,0.1205385,1.302097,0,0.983077
		c0-0.0846978,0-0.1693956,0-0.2540934c0.0188295-0.0454538,0.038492-0.0905832,0.056345-0.1364174
		c0.079091-0.2030519,0.1984839-0.3691094,0.4146744-0.4423151C0.5410452,0.1265392,0.6142835,0.1123144,0.6860523,0.09375
		c4.8362451,0,9.6724901,0,14.5087357,0c0.0407648,0.0094244,0.0810843,0.0221317,0.1223698,0.0277046
		c0.1783371,0.0240732,0.3235111,0.1115351,0.4208527,0.2568768c0.0714064,0.1066193,0.1132317,0.2330505,0.1682396,0.3506522
		c0,0.084698,0,0.1693957,0,0.2540935c-0.077858,0.1187723-0.138629,0.2543648-0.2363281,0.3536026
		c-0.6619177,0.6723419-1.3317356,1.3369051-1.9988117,2.0041714c-1.1488113,1.1491392-2.2968454,2.2990592-3.4476442,3.4462063
		c-0.0777454,0.0774984-0.1113167,0.1546888-0.1111908,0.2659779c0.0030279,2.6931491,0.002655,5.3863006,0.0012665,8.0794525
		c-0.0000563,0.1095142-0.0104532,0.2198038-0.0257978,0.3283539c-0.0247784,0.1752739-0.1253567,0.3064661-0.2761755,0.3891954
		C9.6984262,15.912097,9.5725069,15.9508638,9.4522762,16z"/>
</g>
</svg>
