<?xml version="1.0" encoding="utf-8"?>
<!-- Generator: Adobe Illustrator 19.0.0, SVG Export Plug-In . SVG Version: 6.00 Build 0)  -->
<!DOCTYPE svg PUBLIC "-//W3C//DTD SVG 1.1//EN" "http://www.w3.org/Graphics/SVG/1.1/DTD/svg11.dtd">
<svg version="1.1" id="Ebene_1" xmlns="http://www.w3.org/2000/svg" xmlns:xlink="http://www.w3.org/1999/xlink" x="0px" y="0px"
	 viewBox="0 0 16 16" style="enable-background:new 0 0 16 16;" xml:space="preserve">
<style type="text/css">
	.st0{fill:#FFFFFF;}
</style>
<g>
	<g id="XMLID_79_">
		<g id="XMLID_82_">
			<g id="XMLID_88_">
				<rect id="XMLID_94_" x="2.1" y="1.8" class="st0" width="9.2" height="1.2"/>
				<rect id="XMLID_93_" x="2.1" y="4.1" class="st0" width="9.2" height="7.5"/>
				<path id="XMLID_89_" d="M1.1,0.8v11.7h11.2V0.8H1.1z M11.3,11.6H2.1V4.1h9.2V11.6z M11.3,3.1H2.1V1.8h9.2V3.1z"/>
			</g>
			<g id="XMLID_83_">
				<path id="XMLID_86_" d="M3.8,8.9l0.9-0.1c0.1,0.7,0.9,1,1.2,0.3c0.4-0.7-0.3-1.3-1-1.1L5,7.3c0.5,0,1-0.4,0.7-0.9
					c-0.4-0.5-1-0.1-1,0.4L3.8,6.6C4,5.7,5,5.1,6,5.6C6.9,6,6.9,7.1,6,7.6c1.2,0.2,1.1,1.7,0.3,2.3C5.4,10.6,3.9,10.1,3.8,8.9z"/>
				<path id="XMLID_84_" d="M9.8,10.2H8.9V6.7C8.6,7,8.2,7.3,7.7,7.4V6.6C8.3,6.4,8.9,6,9.1,5.4h0.7V10.2z"/>
			</g>
		</g>
	</g>
	<polygon id="XMLID_190_" points="14.9,11.6 12.8,11.6 12.8,9.5 11.3,9.5 11.3,11.6 9.3,11.6 9.3,13 11.3,13 11.3,15.1 12.8,15.1 
		12.8,13 14.9,13 	"/>
</g>
</svg>
