<?xml version="1.0" encoding="utf-8"?>
<!-- Generator: Adobe Illustrator 21.0.0, SVG Export Plug-In . SVG Version: 6.00 Build 0)  -->
<svg version="1.0" id="Ebene_1" xmlns="http://www.w3.org/2000/svg" xmlns:xlink="http://www.w3.org/1999/xlink" x="0px" y="0px"
	 viewBox="0 0 16 16" style="enable-background:new 0 0 16 16;" xml:space="preserve">
<style type="text/css">
	.st0{fill:#FFFFFF;}
</style>
<g>
	<g>
		<ellipse class="st0" cx="8" cy="8" rx="5.7" ry="6"/>
		<path d="M8,14.5c-3.4,0-6.2-2.9-6.2-6.5c0-3.6,2.8-6.5,6.2-6.5c3.4,0,6.2,2.9,6.2,6.5C14.2,11.6,11.4,14.5,8,14.5z M8,2.5
			C5.1,2.5,2.8,5,2.8,8c0,3,2.3,5.5,5.2,5.5S13.2,11,13.2,8C13.2,5,10.9,2.5,8,2.5z"/>
	</g>
	<path d="M8,8.5C7.7,8.5,7.5,8.3,7.5,8V3.5C7.5,3.2,7.7,3,8,3s0.5,0.2,0.5,0.5V8C8.5,8.3,8.3,8.5,8,8.5z"/>
	<path d="M8,8.5H5.2C4.9,8.5,4.7,8.3,4.7,8s0.2-0.5,0.5-0.5H8c0.3,0,0.5,0.2,0.5,0.5S8.3,8.5,8,8.5z"/>
</g>
</svg>
