<?xml version="1.0" encoding="utf-8"?>
<!-- Generator: Adobe Illustrator 19.1.0, SVG Export Plug-In . SVG Version: 6.00 Build 0)  -->
<!DOCTYPE svg PUBLIC "-//W3C//DTD SVG 1.1//EN" "http://www.w3.org/Graphics/SVG/1.1/DTD/svg11.dtd">
<svg version="1.1" id="Ebene_1" xmlns="http://www.w3.org/2000/svg" xmlns:xlink="http://www.w3.org/1999/xlink" x="0px" y="0px"
	 viewBox="0 0 16 16" style="enable-background:new 0 0 16 16;" xml:space="preserve">
<g>
	<polygon points="16,9.1 16,4 11.8,4 11.8,1.1 9.9,1.1 9.9,4 5.7,4 5.7,9.5 1.5,9.5 1.5,16 3.4,16 3.4,11.6 9.9,11.6 9.9,16 
		11.8,16 11.8,9.5 7.6,9.5 7.6,6 14.1,6 14.1,9.1 	"/>
</g>
<polygon id="XMLID_55_" points="5.6,2 3.5,2 3.5,-0.1 2.1,-0.1 2.1,2 0,2 0,3.5 2.1,3.5 2.1,5.6 3.5,5.6 3.5,3.5 5.6,3.5 "/>
</svg>
