<svg xmlns="http://www.w3.org/2000/svg" xmlns:xlink="http://www.w3.org/1999/xlink" viewBox="0 0 16 16"><defs><style>.cls-1{fill:#fff;}.cls-2{fill:gray;}.cls-3{fill:#4d4d4d;}</style><symbol id="Border_type" data-name="Border_type" viewBox="0 0 16 16"><rect class="cls-1" x="0.5" y="0.5" width="15" height="15"/><path class="cls-2" d="M15,1V15H1V1H15m1-1H0V16H16V0Z"/></symbol></defs><title>binary_object</title><g id="Layer_2" data-name="Layer 2"><g id="rework"><g id="binary_object"><use width="16" height="16" xlink:href="#Border_type"/><path class="cls-3" d="M7,2H3V7H7V2ZM6,6H4V5H6ZM6,4H4V3H6Z"/><path class="cls-3" d="M13,8H9v5h4V8Zm-1,4H10V11h2Zm0-2H10V9h2Z"/><polygon class="cls-3" points="9 2 9 7 13 7 13 6 10 6 10 2 9 2"/><path class="cls-3" d="M3,8v5H7V8Zm3,4H4V9H6Z"/></g></g></g></svg>