<svg xmlns="http://www.w3.org/2000/svg" xmlns:xlink="http://www.w3.org/1999/xlink" viewBox="0 0 16 16"><defs><style>.cls-1{fill:#fff;}.cls-2{fill:gray;}.cls-3{fill:#4d4d4d;}</style><symbol id="Border_type" data-name="Border_type" viewBox="0 0 16 16"><rect class="cls-1" x="0.5" y="0.5" width="15" height="15"/><path class="cls-2" d="M15,1V15H1V1H15m1-1H0V16H16V0Z"/></symbol></defs><title>boolean</title><g id="Layer_2" data-name="Layer 2"><g id="rework"><g id="boolean"><use width="16" height="16" xlink:href="#Border_type"/><path class="cls-3" d="M4,3.26H7.82a11.6,11.6,0,0,1,1.69.09,2.7,2.7,0,0,1,1,.39,2.48,2.48,0,0,1,.74.8A2.24,2.24,0,0,1,10.19,7.7a2.55,2.55,0,0,1,1.34.86A2.3,2.3,0,0,1,12,10a2.84,2.84,0,0,1-.3,1.26,2.56,2.56,0,0,1-.83,1,2.83,2.83,0,0,1-1.29.45c-.32,0-1.1.05-2.33.06H4ZM5.93,4.84V7H7.19c.75,0,1.22,0,1.4,0a1.28,1.28,0,0,0,.78-.34,1,1,0,0,0,.28-.74,1.06,1.06,0,0,0-.24-.72,1.11,1.11,0,0,0-.73-.33c-.19,0-.74,0-1.64,0Zm0,3.77v2.53H7.71A11,11,0,0,0,9,11.09a1.27,1.27,0,0,0,.7-.38A1.17,1.17,0,0,0,10,9.9a1.22,1.22,0,0,0-.21-.72,1.18,1.18,0,0,0-.6-.44,6.79,6.79,0,0,0-1.71-.13Z"/></g></g></g></svg>