<svg xmlns="http://www.w3.org/2000/svg" xmlns:xlink="http://www.w3.org/1999/xlink" viewBox="0 0 16 16"><defs><style>.cls-1{fill:#fff;}.cls-2{fill:gray;}.cls-3{fill:#4d4d4d;}</style><symbol id="Border_type" data-name="Border_type" viewBox="0 0 16 16"><rect class="cls-1" x="0.5" y="0.5" width="15" height="15"/><path class="cls-2" d="M15,1V15H1V1H15m1-1H0V16H16V0Z"/></symbol></defs><title>complex_number</title><g id="Layer_2" data-name="Layer 2"><g id="rework"><g id="complex_number"><use width="16" height="16" xlink:href="#Border_type"/><path class="cls-3" d="M10.2,9.22l1.8.57A4,4,0,0,1,10.62,12a3.89,3.89,0,0,1-2.44.73,4,4,0,0,1-3-1.25A4.76,4.76,0,0,1,4,8.08,5,5,0,0,1,5.18,4.52,4.06,4.06,0,0,1,8.3,3.25a3.82,3.82,0,0,1,2.74,1A3.56,3.56,0,0,1,12,5.94l-1.83.44a2,2,0,0,0-.68-1.13A1.91,1.91,0,0,0,8.2,4.84a2.06,2.06,0,0,0-1.65.73,3.55,3.55,0,0,0-.64,2.37,3.81,3.81,0,0,0,.63,2.48,2,2,0,0,0,1.63.74,1.84,1.84,0,0,0,1.27-.47A2.7,2.7,0,0,0,10.2,9.22Z"/></g></g></g></svg>