<svg xmlns="http://www.w3.org/2000/svg" viewBox="0 0 16 16"><defs><style>.cls-1{fill:#fff;}.cls-2{fill:gray;}.cls-3{fill:#4d4d4d;}.cls-4{fill:none;stroke:#4d4d4d;stroke-miterlimit:10;}</style></defs><title>credentials_password</title><g id="Layer_2" data-name="Layer 2"><g id="row3"><g id="credentials_password"><rect class="cls-1" x="0.5" y="0.5" width="15" height="15"/><path class="cls-2" d="M15,1V15H1V1H15m1-1H0V16H16V0Z"/><path class="cls-3" d="M3.4,13.41l-.74-.57c.24-.26.48-.51.73-.76l.19-.18-.69-.16-.55-.15.29-.86a7.57,7.57,0,0,1,1.14.57A9.15,9.15,0,0,1,3.65,10h.87a10.93,10.93,0,0,1-.13,1.31l.42-.19c.29-.13.56-.25.81-.34l.26.88q-.54.12-1.26.24l.59.66c.12.13.21.24.28.33l-.75.49-.66-1.09C3.88,12.64,3.65,13,3.4,13.41Z"/><path class="cls-3" d="M7.29,13.41l-.74-.57c.24-.26.48-.51.73-.76l.2-.18c-.09,0-.32-.07-.7-.16l-.55-.15.29-.86a7.13,7.13,0,0,1,1.14.57A9.15,9.15,0,0,1,7.54,10h.87a10.93,10.93,0,0,1-.13,1.31l.42-.19c.29-.13.56-.25.81-.34l.26.88c-.36.08-.78.16-1.25.24l.58.66c.12.13.21.24.28.33l-.75.49L8,12.29C7.77,12.64,7.55,13,7.29,13.41Z"/><path class="cls-3" d="M11.18,13.41l-.74-.57c.24-.26.48-.51.74-.76l.19-.18-.7-.16-.55-.15.29-.86a6.73,6.73,0,0,1,1.14.57,8.91,8.91,0,0,1-.11-1.3h.86a10.93,10.93,0,0,1-.13,1.31l.42-.19c.3-.13.57-.25.81-.34l.26.88c-.36.08-.78.16-1.25.24l.58.66c.12.13.21.24.28.33l-.75.49-.66-1.09C11.67,12.64,11.44,13,11.18,13.41Z"/><rect class="cls-3" x="5" y="5" width="6" height="4"/><rect class="cls-4" x="6" y="3" width="4" height="4" rx="1" ry="1"/></g></g></g></svg>