<svg xmlns="http://www.w3.org/2000/svg" xmlns:xlink="http://www.w3.org/1999/xlink" viewBox="0 0 16 16"><defs><style>.cls-1{fill:#fff;}.cls-2{fill:gray;}.cls-3{fill:#4d4d4d;}</style><symbol id="Border_type" data-name="Border_type" viewBox="0 0 16 16"><rect class="cls-1" x="0.5" y="0.5" width="15" height="15"/><path class="cls-2" d="M15,1V15H1V1H15m1-1H0V16H16V0Z"/></symbol></defs><title>default_type</title><g id="Layer_2" data-name="Layer 2"><g id="rework"><g id="default_type"><use width="16" height="16" xlink:href="#Border_type"/><path class="cls-3" d="M8.79,10.41H7.1c0-.24,0-.39,0-.44a3,3,0,0,1,.27-1.36,4.08,4.08,0,0,1,1.09-1.2,7.69,7.69,0,0,0,1-.87,1.19,1.19,0,0,0-.19-1.65A1.69,1.69,0,0,0,8.07,4.5a1.75,1.75,0,0,0-1.19.4,2.18,2.18,0,0,0-.66,1.24L4.5,5.93a2.89,2.89,0,0,1,1-2A3.64,3.64,0,0,1,8,3.07a3.74,3.74,0,0,1,2.56.84,2.58,2.58,0,0,1,.95,2A2.14,2.14,0,0,1,11.15,7,7.72,7.72,0,0,1,9.66,8.55a2.9,2.9,0,0,0-.74.79A2.74,2.74,0,0,0,8.79,10.41ZM7.1,12.93V11.06H9v1.87Z"/></g></g></g></svg>