<svg xmlns="http://www.w3.org/2000/svg" xmlns:xlink="http://www.w3.org/1999/xlink" viewBox="0 0 16 16"><defs><style>.cls-1{fill:#fff;}.cls-2{fill:#4d4d4d;}</style><symbol id="Array" data-name="Array" viewBox="0 0 16 16"><rect class="cls-1" width="16" height="16"/><rect class="cls-2" width="2" height="16"/><rect class="cls-2" x="2" width="2" height="2"/><rect class="cls-2" x="2" y="14" width="2" height="2"/><polygon class="cls-2" points="14 0 16 0 16 16 14 16 14 0"/><polygon class="cls-2" points="12 14 14 14 14 16 12 16 12 14"/><polygon class="cls-2" points="12 0 14 0 14 2 12 2 12 0"/></symbol></defs><title>double_vector</title><g id="Layer_2" data-name="Layer 2"><g id="rework"><g id="double_vector"><use width="16" height="16" xlink:href="#Array"/><path class="cls-2" d="M4,3.23H7.52a7,7,0,0,1,1.82.18,3.25,3.25,0,0,1,1.44.88,4.19,4.19,0,0,1,.91,1.55A7,7,0,0,1,12,8.09a6.4,6.4,0,0,1-.29,2,4.23,4.23,0,0,1-1,1.69,3.48,3.48,0,0,1-1.36.76,5.94,5.94,0,0,1-1.7.2H4ZM5.93,4.84v6.32H7.37a5.32,5.32,0,0,0,1.16-.09,1.91,1.91,0,0,0,.78-.39,2.12,2.12,0,0,0,.5-.93A6.15,6.15,0,0,0,10,8a5.66,5.66,0,0,0-.2-1.7,2.27,2.27,0,0,0-.54-.93,1.92,1.92,0,0,0-.9-.45,8.71,8.71,0,0,0-1.58-.09Z"/></g></g></g></svg>