<svg xmlns="http://www.w3.org/2000/svg" xmlns:xlink="http://www.w3.org/1999/xlink" viewBox="0 0 16 16"><defs><style>.cls-1{fill:#ff4b4b;}.cls-2{fill:#fff;}.cls-3{fill:gray;}.cls-4{fill:#4d4d4d;}</style><symbol id="Border_type" data-name="Border_type" viewBox="0 0 16 16"><rect class="cls-2" x="0.5" y="0.5" width="15" height="15"/><path class="cls-3" d="M15,1V15H1V1H15m1-1H0V16H16V0Z"/></symbol><symbol id="Border_flowvar" data-name="Border_flowvar" viewBox="0 0 16 16"><use width="16" height="16" xlink:href="#Border_type"/><circle class="cls-1" cx="12" cy="4" r="2"/></symbol></defs><title>flowvar_default</title><g id="Layer_2" data-name="Layer 2"><g id="rework"><g id="flowvar_default"><use width="16" height="16" xlink:href="#Border_flowvar"/><path class="cls-4" d="M7.42,10.91H5.8v-.43a2.75,2.75,0,0,1,.26-1.29,3.84,3.84,0,0,1,1-1.14A8.07,8.07,0,0,0,8,7.21a1.07,1.07,0,0,0,.24-.68,1.13,1.13,0,0,0-.42-.89,1.62,1.62,0,0,0-1.12-.38,1.71,1.71,0,0,0-1.14.39A2.12,2.12,0,0,0,5,6.83l-1.63-.2a2.71,2.71,0,0,1,1-1.93,3.44,3.44,0,0,1,2.36-.79,3.55,3.55,0,0,1,2.45.8A2.45,2.45,0,0,1,10,6.58,2.11,2.11,0,0,1,9.67,7.7,7.32,7.32,0,0,1,8.25,9.13a2.85,2.85,0,0,0-.71.76A2.53,2.53,0,0,0,7.42,10.91ZM5.8,13.31V11.52H7.59v1.79Z"/></g></g></g></svg>