<?xml version="1.0" encoding="UTF-8" standalone="no"?>
<svg
   xmlns:dc="http://purl.org/dc/elements/1.1/"
   xmlns:cc="http://creativecommons.org/ns#"
   xmlns:rdf="http://www.w3.org/1999/02/22-rdf-syntax-ns#"
   xmlns:svg="http://www.w3.org/2000/svg"
   xmlns="http://www.w3.org/2000/svg"
   xmlns:xlink="http://www.w3.org/1999/xlink"
   xmlns:sodipodi="http://sodipodi.sourceforge.net/DTD/sodipodi-0.dtd"
   xmlns:inkscape="http://www.inkscape.org/namespaces/inkscape"
   viewBox="0 0 16 16"
   version="1.1"
   id="svg25"
   sodipodi:docname="flowvar_double_array-icon.svg"
   inkscape:version="0.92.3 (2405546, 2018-03-11)">
  <metadata
     id="metadata29">
    <rdf:RDF>
      <cc:Work
         rdf:about="">
        <dc:format>image/svg+xml</dc:format>
        <dc:type
           rdf:resource="http://purl.org/dc/dcmitype/StillImage" />
      </cc:Work>
    </rdf:RDF>
  </metadata>
  <sodipodi:namedview
     pagecolor="#ffffff"
     bordercolor="#666666"
     borderopacity="1"
     objecttolerance="10"
     gridtolerance="10"
     guidetolerance="10"
     inkscape:pageopacity="0"
     inkscape:pageshadow="2"
     inkscape:window-width="1718"
     inkscape:window-height="656"
     id="namedview27"
     showgrid="false"
     inkscape:zoom="14.75"
     inkscape:cx="8"
     inkscape:cy="8"
     inkscape:window-x="-8"
     inkscape:window-y="0"
     inkscape:window-maximized="0"
     inkscape:current-layer="svg25" />
  <defs
     id="defs14">
    <style
       id="style2">.cls-1{fill:#ff4b4b;}.cls-2{fill:#fff;}.cls-3{fill:gray;}.cls-4{fill:#4d4d4d;}</style>
    <symbol
       id="Border_type"
       data-name="Border_type"
       viewBox="0 0 16 16">
      <rect
         class="cls-2"
         x="0.5"
         y="0.5"
         width="15"
         height="15"
         id="rect4" />
      <path
         class="cls-3"
         d="M15,1V15H1V1H15m1-1H0V16H16V0Z"
         id="path6" />
    </symbol>
    <symbol
       id="Border_flowvar"
       data-name="Border_flowvar"
       viewBox="0 0 16 16">
      <use
         width="16"
         height="16"
         xlink:href="#Border_type"
         id="use9" />
      <circle
         class="cls-1"
         cx="12"
         cy="4"
         r="2"
         id="circle11" />
    </symbol>
  </defs>
  <title
     id="title16">flowvar_double</title>
  <use
     y="0"
     x="0"
     id="use18"
     xlink:href="#Border_flowvar"
     height="16"
     width="16" />
  <path
     style="fill:#4d4d4d"
     inkscape:connector-curvature="0"
     id="path20"
     d="M 9.77,13.31 H 8.11 v -1 a 2.72,2.72 0 0 1 -1,0.86 A 2.48,2.48 0 0 1 6,13.46 2.54,2.54 0 0 1 4,12.52 3.75,3.75 0 0 1 3.17,9.91 3.78,3.78 0 0 1 4,7.31 2.63,2.63 0 0 1 6,6.41 2.56,2.56 0 0 1 8,7.35 V 4 H 9.77 Z M 5,9.79 a 3.06,3.06 0 0 0 0.3,1.56 1.34,1.34 0 0 0 1.2,0.7 1.32,1.32 0 0 0 1,-0.52 A 2.41,2.41 0 0 0 8,10 2.64,2.64 0 0 0 7.58,8.33 1.32,1.32 0 0 0 6.5,7.78 1.35,1.35 0 0 0 5.44,8.28 2.27,2.27 0 0 0 5,9.79 Z"
     class="cls-4" />
  <g
     id="g881"
     transform="matrix(0.64725816,0,0,0.64725816,4.7347582,4.6939821)"
     style="stroke-width:1.54497874">
    <circle
       r="0.89449763"
       cy="12.417066"
       cx="9.0214586"
       id="path872"
       style="opacity:1;fill:#4d4d4d;fill-opacity:1;stroke:none;stroke-width:2.91964531;stroke-linecap:butt;stroke-linejoin:round;stroke-miterlimit:4;stroke-dasharray:none;stroke-dashoffset:0;stroke-opacity:1" />
    <circle
       style="opacity:1;fill:#4d4d4d;fill-opacity:1;stroke:none;stroke-width:2.91964531;stroke-linecap:butt;stroke-linejoin:round;stroke-miterlimit:4;stroke-dasharray:none;stroke-dashoffset:0;stroke-opacity:1"
       id="circle874"
       cx="11.224584"
       cy="12.417066"
       r="0.89449763" />
    <circle
       r="0.89449763"
       cy="12.417066"
       cx="13.427709"
       id="circle876"
       style="opacity:1;fill:#4d4d4d;fill-opacity:1;stroke:none;stroke-width:2.91964531;stroke-linecap:butt;stroke-linejoin:round;stroke-miterlimit:4;stroke-dasharray:none;stroke-dashoffset:0;stroke-opacity:1" />
  </g>
</svg>
