<svg xmlns="http://www.w3.org/2000/svg" xmlns:xlink="http://www.w3.org/1999/xlink" viewBox="0 0 16 16"><defs><style>.cls-1{fill:#ff4b4b;}.cls-2{fill:#fff;}.cls-3{fill:gray;}.cls-4{fill:#4d4d4d;}</style><symbol id="Border_type" data-name="Border_type" viewBox="0 0 16 16"><rect class="cls-2" x="0.5" y="0.5" width="15" height="15"/><path class="cls-3" d="M15,1V15H1V1H15m1-1H0V16H16V0Z"/></symbol><symbol id="Border_flowvar" data-name="Border_flowvar" viewBox="0 0 16 16"><use width="16" height="16" xlink:href="#Border_type"/><circle class="cls-1" cx="12" cy="4" r="2"/></symbol></defs><title>flowvar_boolean</title><g id="Layer_2" data-name="Layer 2"><g id="rework"><g id="flowvar_boolean"><use width="16" height="16" xlink:href="#Border_flowvar"/><path class="cls-4" d="M3.51,13.31V4H5.29V7.35a2.57,2.57,0,0,1,2-.94,2.63,2.63,0,0,1,2,.9,3.66,3.66,0,0,1,.8,2.56,3.89,3.89,0,0,1-.82,2.66,2.56,2.56,0,0,1-2,.93,2.47,2.47,0,0,1-1.14-.29,2.71,2.71,0,0,1-1-.85v1ZM5.28,9.79a2.86,2.86,0,0,0,.33,1.55,1.42,1.42,0,0,0,1.23.71,1.28,1.28,0,0,0,1-.5A2.48,2.48,0,0,0,8.27,10a2.64,2.64,0,0,0-.42-1.67,1.39,1.39,0,0,0-2.14,0A2.23,2.23,0,0,0,5.28,9.79Z"/></g></g></g></svg>