<svg xmlns="http://www.w3.org/2000/svg" xmlns:xlink="http://www.w3.org/1999/xlink" viewBox="0 0 16 16"><defs><style>.cls-1{fill:#ff4b4b;}.cls-2{fill:#fff;}.cls-3{fill:gray;}.cls-4{fill:#4d4d4d;}</style><symbol id="Border_type" data-name="Border_type" viewBox="0 0 16 16"><rect class="cls-2" x="0.5" y="0.5" width="15" height="15"/><path class="cls-3" d="M15,1V15H1V1H15m1-1H0V16H16V0Z"/></symbol><symbol id="Border_flowvar" data-name="Border_flowvar" viewBox="0 0 16 16"><use width="16" height="16" xlink:href="#Border_type"/><circle class="cls-1" cx="12" cy="4" r="2"/></symbol></defs><title>flowvar_double</title><g id="Layer_2" data-name="Layer 2"><g id="rework"><g id="flowvar_double"><use width="16" height="16" xlink:href="#Border_flowvar"/><path class="cls-4" d="M9.77,13.31H8.11v-1a2.72,2.72,0,0,1-1,.86A2.48,2.48,0,0,1,6,13.46a2.54,2.54,0,0,1-2-.94,3.75,3.75,0,0,1-.83-2.61A3.78,3.78,0,0,1,4,7.31a2.63,2.63,0,0,1,2-.9,2.56,2.56,0,0,1,2,.94V4H9.77ZM5,9.79a3.06,3.06,0,0,0,.3,1.56,1.34,1.34,0,0,0,1.2.7,1.32,1.32,0,0,0,1-.52A2.41,2.41,0,0,0,8,10a2.64,2.64,0,0,0-.42-1.67A1.32,1.32,0,0,0,6.5,7.78a1.35,1.35,0,0,0-1.06.5A2.27,2.27,0,0,0,5,9.79Z"/></g></g></g></svg>