<?xml version="1.0" encoding="UTF-8" standalone="no"?>
<svg
   xmlns:dc="http://purl.org/dc/elements/1.1/"
   xmlns:cc="http://creativecommons.org/ns#"
   xmlns:rdf="http://www.w3.org/1999/02/22-rdf-syntax-ns#"
   xmlns:svg="http://www.w3.org/2000/svg"
   xmlns="http://www.w3.org/2000/svg"
   xmlns:xlink="http://www.w3.org/1999/xlink"
   xmlns:sodipodi="http://sodipodi.sourceforge.net/DTD/sodipodi-0.dtd"
   xmlns:inkscape="http://www.inkscape.org/namespaces/inkscape"
   viewBox="0 0 16 16"
   version="1.1"
   id="svg25"
   sodipodi:docname="flowvar_string_array-icon.svg"
   inkscape:version="0.92.3 (2405546, 2018-03-11)">
  <metadata
     id="metadata29">
    <rdf:RDF>
      <cc:Work
         rdf:about="">
        <dc:format>image/svg+xml</dc:format>
        <dc:type
           rdf:resource="http://purl.org/dc/dcmitype/StillImage" />
      </cc:Work>
    </rdf:RDF>
  </metadata>
  <sodipodi:namedview
     pagecolor="#ffffff"
     bordercolor="#666666"
     borderopacity="1"
     objecttolerance="10"
     gridtolerance="10"
     guidetolerance="10"
     inkscape:pageopacity="0"
     inkscape:pageshadow="2"
     inkscape:window-width="1718"
     inkscape:window-height="656"
     id="namedview27"
     showgrid="false"
     inkscape:zoom="14.75"
     inkscape:cx="8"
     inkscape:cy="8"
     inkscape:window-x="-8"
     inkscape:window-y="695"
     inkscape:window-maximized="0"
     inkscape:current-layer="svg25" />
  <defs
     id="defs14">
    <style
       id="style2">.cls-1{fill:#ff4b4b;}.cls-2{fill:#fff;}.cls-3{fill:gray;}.cls-4{fill:#4d4d4d;}</style>
    <symbol
       id="Border_type"
       data-name="Border_type"
       viewBox="0 0 16 16">
      <rect
         class="cls-2"
         x="0.5"
         y="0.5"
         width="15"
         height="15"
         id="rect4" />
      <path
         class="cls-3"
         d="M15,1V15H1V1H15m1-1H0V16H16V0Z"
         id="path6" />
    </symbol>
    <symbol
       id="Border_flowvar"
       data-name="Border_flowvar"
       viewBox="0 0 16 16">
      <use
         width="16"
         height="16"
         xlink:href="#Border_type"
         id="use9" />
      <circle
         class="cls-1"
         cx="12"
         cy="4"
         r="2"
         id="circle11" />
    </symbol>
  </defs>
  <title
     id="title16">flowvar_string</title>
  <use
     y="0"
     x="0"
     id="use18"
     xlink:href="#Border_flowvar"
     height="16"
     width="16" />
  <path
     style="fill:#4d4d4d"
     inkscape:connector-curvature="0"
     id="path20"
     d="M 3.31,11.38 5.1,11.11 a 1.29,1.29 0 0 0 0.47,0.79 1.55,1.55 0 0 0 1,0.27 1.79,1.79 0 0 0 1,-0.25 A 0.59,0.59 0 0 0 7.8,11.44 0.47,0.47 0 0 0 7.67,11.1 1.37,1.37 0 0 0 7.08,10.87 9.88,9.88 0 0 1 4.36,10 1.74,1.74 0 0 1 3.56,8.48 1.88,1.88 0 0 1 4.25,7 3.23,3.23 0 0 1 6.4,6.4 3.77,3.77 0 0 1 8.46,6.85 2.38,2.38 0 0 1 9.38,8.2 L 7.7,8.51 A 1,1 0 0 0 7.29,7.91 1.5,1.5 0 0 0 6.43,7.7 a 2,2 0 0 0 -1,0.19 0.45,0.45 0 0 0 -0.2,0.36 0.4,0.4 0 0 0 0.18,0.33 6.74,6.74 0 0 0 1.66,0.5 5,5 0 0 1 2,0.79 1.63,1.63 0 0 1 0.56,1.33 2,2 0 0 1 -0.77,1.59 3.41,3.41 0 0 1 -2.3,0.67 A 3.75,3.75 0 0 1 4.39,12.9 2.59,2.59 0 0 1 3.31,11.38 Z"
     class="cls-4" />
  <g
     id="g881"
     transform="matrix(0.64725816,0,0,0.64725816,4.7347582,4.6939821)"
     style="stroke-width:1.54497874">
    <circle
       r="0.89449763"
       cy="12.417066"
       cx="9.0214586"
       id="path872"
       style="opacity:1;fill:#4d4d4d;fill-opacity:1;stroke:none;stroke-width:2.91964531;stroke-linecap:butt;stroke-linejoin:round;stroke-miterlimit:4;stroke-dasharray:none;stroke-dashoffset:0;stroke-opacity:1" />
    <circle
       style="opacity:1;fill:#4d4d4d;fill-opacity:1;stroke:none;stroke-width:2.91964531;stroke-linecap:butt;stroke-linejoin:round;stroke-miterlimit:4;stroke-dasharray:none;stroke-dashoffset:0;stroke-opacity:1"
       id="circle874"
       cx="11.224584"
       cy="12.417066"
       r="0.89449763" />
    <circle
       r="0.89449763"
       cy="12.417066"
       cx="13.427709"
       id="circle876"
       style="opacity:1;fill:#4d4d4d;fill-opacity:1;stroke:none;stroke-width:2.91964531;stroke-linecap:butt;stroke-linejoin:round;stroke-miterlimit:4;stroke-dasharray:none;stroke-dashoffset:0;stroke-opacity:1" />
  </g>
</svg>
