<?xml version="1.0" encoding="UTF-8" standalone="no"?>
<svg
   xmlns:dc="http://purl.org/dc/elements/1.1/"
   xmlns:cc="http://creativecommons.org/ns#"
   xmlns:rdf="http://www.w3.org/1999/02/22-rdf-syntax-ns#"
   xmlns:svg="http://www.w3.org/2000/svg"
   xmlns="http://www.w3.org/2000/svg"
   xmlns:xlink="http://www.w3.org/1999/xlink"
   xmlns:sodipodi="http://sodipodi.sourceforge.net/DTD/sodipodi-0.dtd"
   xmlns:inkscape="http://www.inkscape.org/namespaces/inkscape"
   viewBox="0 0 16 16"
   version="1.1"
   id="svg25"
   sodipodi:docname="flowvar_string_array-icon.svg"
   inkscape:version="0.92.3 (2405546, 2018-03-11)"
   inkscape:export-filename="flowvar_string_array.png"
   inkscape:export-xdpi="95.786018"
   inkscape:export-ydpi="95.786018">
  <metadata
     id="metadata29">
    <rdf:RDF>
      <cc:Work
         rdf:about="">
        <dc:format>image/svg+xml</dc:format>
        <dc:type
           rdf:resource="http://purl.org/dc/dcmitype/StillImage" />
      </cc:Work>
    </rdf:RDF>
  </metadata>
  <sodipodi:namedview
     pagecolor="#ffffff"
     bordercolor="#666666"
     borderopacity="1"
     objecttolerance="10"
     gridtolerance="10"
     guidetolerance="10"
     inkscape:pageopacity="0"
     inkscape:pageshadow="2"
     inkscape:window-width="1918"
     inkscape:window-height="1004"
     id="namedview27"
     showgrid="false"
     inkscape:zoom="7.375"
     inkscape:cx="45.042743"
     inkscape:cy="47.585308"
     inkscape:window-x="1910"
     inkscape:window-y="0"
     inkscape:window-maximized="0"
     inkscape:current-layer="svg25" />
  <defs
     id="defs14">
    <style
       id="style2">.cls-1{fill:#ff4b4b;}.cls-2{fill:#fff;}.cls-3{fill:gray;}.cls-4{fill:#4d4d4d;}</style>
    <symbol
       id="Border_type"
       data-name="Border_type"
       viewBox="0 0 16 16">
      <rect
         class="cls-2"
         x="0.5"
         y="0.5"
         width="15"
         height="15"
         id="rect4" />
      <path
         class="cls-3"
         d="M15,1V15H1V1H15m1-1H0V16H16V0Z"
         id="path6" />
    </symbol>
    <symbol
       id="Border_flowvar"
       data-name="Border_flowvar"
       viewBox="0 0 16 16">
      <use
         width="16"
         height="16"
         xlink:href="#Border_type"
         id="use9" />
      <circle
         class="cls-1"
         cx="12"
         cy="4"
         r="2"
         id="circle11" />
    </symbol>
  </defs>
  <title
     id="title16">flowvar_string</title>
  <use
     y="0"
     x="0"
     id="use18"
     xlink:href="#Border_flowvar"
     height="16"
     width="16" />
  <path
     style="opacity:1;fill:#4d4d4d"
     inkscape:connector-curvature="0"
     id="path20"
     d="m 1.6922815,11.38 1.79,-0.27 a 1.29,1.29 0 0 0 0.47,0.79 1.55,1.55 0 0 0 1,0.27 1.79,1.79 0 0 0 1,-0.25 0.59,0.59 0 0 0 0.23,-0.48 0.47,0.47 0 0 0 -0.13,-0.34 1.37,1.37 0 0 0 -0.59,-0.23 9.88,9.88 0 0 1 -2.72,-0.87 1.74,1.74 0 0 1 -0.8,-1.52 1.88,1.88 0 0 1 0.69,-1.48 3.23,3.23 0 0 1 2.15,-0.6 3.77,3.77 0 0 1 2.06,0.45 2.38,2.38 0 0 1 0.92,1.35 l -1.68,0.31 a 1,1 0 0 0 -0.41,-0.6 1.5,1.5 0 0 0 -0.86,-0.21 2,2 0 0 0 -1,0.19 0.45,0.45 0 0 0 -0.2,0.36 0.4,0.4 0 0 0 0.18,0.33 6.74,6.74 0 0 0 1.66,0.5 5,5 0 0 1 2,0.79 1.63,1.63 0 0 1 0.56,1.33 2,2 0 0 1 -0.77,1.59 3.41,3.41 0 0 1 -2.3,0.67 3.75,3.75 0 0 1 -2.17,-0.56 2.59,2.59 0 0 1 -1.08,-1.52 z"
     class="cls-4" />
  <g
     aria-label="["
     style="font-style:normal;font-variant:normal;font-weight:bold;font-stretch:normal;font-size:7.38635111px;line-height:1.25;font-family:sans-serif;-inkscape-font-specification:'sans-serif Bold';letter-spacing:0px;word-spacing:0px;fill:#4d4d4d;fill-opacity:1;stroke:none;stroke-width:1"
     id="text830">
    <path
       d="M 11.109992,13.428101 H 8.7007721 V 6.4024114 h 2.4092199 v 0.865588 H 9.8296432 v 5.2945136 h 1.2803488 z"
       style="font-style:normal;font-variant:normal;font-weight:bold;font-stretch:normal;font-family:sans-serif;-inkscape-font-specification:'sans-serif Bold';fill:#4d4d4d;fill-opacity:1;stroke-width:1"
       id="path830" />
  </g>
  <g
     aria-label="]"
     style="font-style:normal;font-variant:normal;font-weight:bold;font-stretch:normal;font-size:7.38635111px;line-height:1.25;font-family:sans-serif;-inkscape-font-specification:'sans-serif Bold';letter-spacing:0px;word-spacing:0px;fill:#4d4d4d;fill-opacity:1;stroke:none;stroke-width:1"
     id="text838">
    <path
       d="m 14.319491,13.428101 h -2.40922 V 12.562513 H 13.19062 V 7.2679994 h -1.280349 v -0.865588 h 2.40922 z"
       style="font-style:normal;font-variant:normal;font-weight:bold;font-stretch:normal;font-family:sans-serif;-inkscape-font-specification:'sans-serif Bold';fill:#4d4d4d;fill-opacity:1;stroke-width:1"
       id="path833" />
  </g>
</svg>
