<svg xmlns="http://www.w3.org/2000/svg" xmlns:xlink="http://www.w3.org/1999/xlink" viewBox="0 0 16 16"><defs><style>.cls-1{fill:#ff4b4b;}.cls-2{fill:#fff;}.cls-3{fill:gray;}.cls-4{fill:#4d4d4d;}</style><symbol id="Border_type" data-name="Border_type" viewBox="0 0 16 16"><rect class="cls-2" x="0.5" y="0.5" width="15" height="15"/><path class="cls-3" d="M15,1V15H1V1H15m1-1H0V16H16V0Z"/></symbol><symbol id="Border_flowvar" data-name="Border_flowvar" viewBox="0 0 16 16"><use width="16" height="16" xlink:href="#Border_type"/><circle class="cls-1" cx="12" cy="4" r="2"/></symbol></defs><title>flowvar_string</title><g id="Layer_2" data-name="Layer 2"><g id="rework"><g id="flowvar_string"><use width="16" height="16" xlink:href="#Border_flowvar"/><path class="cls-4" d="M3.31,11.38l1.79-.27a1.29,1.29,0,0,0,.47.79,1.55,1.55,0,0,0,1,.27,1.79,1.79,0,0,0,1-.25.59.59,0,0,0,.23-.48.47.47,0,0,0-.13-.34,1.37,1.37,0,0,0-.59-.23A9.88,9.88,0,0,1,4.36,10a1.74,1.74,0,0,1-.8-1.52A1.88,1.88,0,0,1,4.25,7a3.23,3.23,0,0,1,2.15-.6,3.77,3.77,0,0,1,2.06.45A2.38,2.38,0,0,1,9.38,8.2L7.7,8.51a1,1,0,0,0-.41-.6,1.5,1.5,0,0,0-.86-.21,2,2,0,0,0-1,.19.45.45,0,0,0-.2.36.4.4,0,0,0,.18.33,6.74,6.74,0,0,0,1.66.5,5,5,0,0,1,2,.79,1.63,1.63,0,0,1,.56,1.33,2,2,0,0,1-.77,1.59,3.41,3.41,0,0,1-2.3.67,3.75,3.75,0,0,1-2.17-.56A2.59,2.59,0,0,1,3.31,11.38Z"/></g></g></g></svg>