<?xml version="1.0" encoding="UTF-8" standalone="no"?>
<svg
   xmlns:dc="http://purl.org/dc/elements/1.1/"
   xmlns:cc="http://creativecommons.org/ns#"
   xmlns:rdf="http://www.w3.org/1999/02/22-rdf-syntax-ns#"
   xmlns:svg="http://www.w3.org/2000/svg"
   xmlns="http://www.w3.org/2000/svg"
   xmlns:xlink="http://www.w3.org/1999/xlink"
   xmlns:sodipodi="http://sodipodi.sourceforge.net/DTD/sodipodi-0.dtd"
   xmlns:inkscape="http://www.inkscape.org/namespaces/inkscape"
   viewBox="0 0 16 16"
   version="1.1"
   id="svg25"
   sodipodi:docname="flowvar_boolean_array-icon.svg"
   inkscape:version="0.92.3 (2405546, 2018-03-11)"
   inkscape:export-filename="flowvar_boolean_array.png"
   inkscape:export-xdpi="96"
   inkscape:export-ydpi="96">
  <metadata
     id="metadata29">
    <rdf:RDF>
      <cc:Work
         rdf:about="">
        <dc:format>image/svg+xml</dc:format>
        <dc:type
           rdf:resource="http://purl.org/dc/dcmitype/StillImage" />
      </cc:Work>
    </rdf:RDF>
  </metadata>
  <sodipodi:namedview
     pagecolor="#ffffff"
     bordercolor="#666666"
     borderopacity="1"
     objecttolerance="10"
     gridtolerance="10"
     guidetolerance="10"
     inkscape:pageopacity="0"
     inkscape:pageshadow="2"
     inkscape:window-width="1918"
     inkscape:window-height="1004"
     id="namedview27"
     showgrid="false"
     inkscape:zoom="14.75"
     inkscape:cx="-18.372881"
     inkscape:cy="8"
     inkscape:window-x="-10"
     inkscape:window-y="1050"
     inkscape:window-maximized="0"
     inkscape:current-layer="svg25" />
  <defs
     id="defs14">
    <style
       id="style2">.cls-1{fill:#ff4b4b;}.cls-2{fill:#fff;}.cls-3{fill:gray;}.cls-4{fill:#4d4d4d;}</style>
    <symbol
       id="Border_type"
       data-name="Border_type"
       viewBox="0 0 16 16">
      <rect
         class="cls-2"
         x="0.5"
         y="0.5"
         width="15"
         height="15"
         id="rect4" />
      <path
         class="cls-3"
         d="M15,1V15H1V1H15m1-1H0V16H16V0Z"
         id="path6" />
    </symbol>
    <symbol
       id="Border_flowvar"
       data-name="Border_flowvar"
       viewBox="0 0 16 16">
      <use
         width="16"
         height="16"
         xlink:href="#Border_type"
         id="use9" />
      <circle
         class="cls-1"
         cx="12"
         cy="4"
         r="2"
         id="circle11" />
    </symbol>
  </defs>
  <title
     id="title16">flowvar_boolean</title>
  <use
     y="0"
     x="0"
     id="use18"
     xlink:href="#Border_flowvar"
     height="16"
     width="16" />
  <path
     style="fill:#4d4d4d"
     inkscape:connector-curvature="0"
     id="path20"
     d="M 1.6033964,13.31 V 4 h 1.78 v 3.35 a 2.57,2.57 0 0 1 2,-0.94 2.63,2.63 0 0 1 2,0.9 3.66,3.66 0 0 1 0.8,2.56 3.89,3.89 0 0 1 -0.82,2.66 2.56,2.56 0 0 1 -2,0.93 2.47,2.47 0 0 1 -1.14,-0.29 2.71,2.71 0 0 1 -1,-0.85 v 1 z m 1.77,-3.52 a 2.86,2.86 0 0 0 0.33,1.55 1.42,1.42 0 0 0 1.23,0.71 1.28,1.28 0 0 0 1,-0.5 2.48,2.48 0 0 0 0.43,-1.55 2.64,2.64 0 0 0 -0.42,-1.67 1.39,1.39 0 0 0 -2.14,0 2.23,2.23 0 0 0 -0.43,1.46 z"
     class="cls-4" />
  <g
     aria-label="["
     style="font-style:normal;font-variant:normal;font-weight:bold;font-stretch:normal;font-size:7.38635111px;line-height:1.25;font-family:sans-serif;-inkscape-font-specification:'sans-serif Bold';letter-spacing:0px;word-spacing:0px;fill:#4d4d4d;fill-opacity:1;stroke:none;stroke-width:1"
     id="text830">
    <path
       d="M 11.198851,13.428 H 8.7896307 V 6.4023103 h 2.4092203 v 0.865588 H 9.9185018 v 5.2945137 h 1.2803492 z"
       style="font-style:normal;font-variant:normal;font-weight:bold;font-stretch:normal;font-family:sans-serif;-inkscape-font-specification:'sans-serif Bold';fill:#4d4d4d;fill-opacity:1;stroke-width:1"
       id="path830" />
  </g>
  <g
     aria-label="]"
     style="font-style:normal;font-variant:normal;font-weight:bold;font-stretch:normal;font-size:7.38635111px;line-height:1.25;font-family:sans-serif;-inkscape-font-specification:'sans-serif Bold';letter-spacing:0px;word-spacing:0px;fill:#4d4d4d;fill-opacity:1;stroke:none;stroke-width:1"
     id="text838">
    <path
       d="m 14.40835,13.428 h -2.40922 v -0.865588 h 1.280349 V 7.2678983 H 11.99913 v -0.865588 h 2.40922 z"
       style="font-style:normal;font-variant:normal;font-weight:bold;font-stretch:normal;font-family:sans-serif;-inkscape-font-specification:'sans-serif Bold';fill:#4d4d4d;fill-opacity:1;stroke-width:1"
       id="path833" />
  </g>
</svg>
