<svg xmlns="http://www.w3.org/2000/svg" xmlns:xlink="http://www.w3.org/1999/xlink" viewBox="0 0 16 16"><defs><style>.cls-1{fill:#fff;}.cls-2{fill:gray;}.cls-3{fill:#4d4d4d;}</style><symbol id="Border_type" data-name="Border_type" viewBox="0 0 16 16"><rect class="cls-1" x="0.5" y="0.5" width="15" height="15"/><path class="cls-2" d="M15,1V15H1V1H15m1-1H0V16H16V0Z"/></symbol></defs><title>fuzzy</title><g id="Layer_2" data-name="Layer 2"><g id="rework"><g id="fuzzy"><use width="16" height="16" xlink:href="#Border_type"/><path class="cls-3" d="M5,13.43V5.56h5.4V6.89H6.59V8.75H9.88v1.33H6.59v3.35Z"/><path class="cls-3" d="M5,4.75V3.35a2.13,2.13,0,0,1,1.59-.74,2.94,2.94,0,0,1,.62.07,10.38,10.38,0,0,1,1,.37,3.54,3.54,0,0,0,1,.29,1.68,1.68,0,0,0,.69-.18,2.55,2.55,0,0,0,.78-.59V4a2.67,2.67,0,0,1-.7.48,2,2,0,0,1-.91.23,2.24,2.24,0,0,1-.52-.06,7.72,7.72,0,0,1-.81-.31A3.61,3.61,0,0,0,6.47,4,2.07,2.07,0,0,0,5,4.75Z"/></g></g></g></svg>