<svg xmlns="http://www.w3.org/2000/svg" xmlns:xlink="http://www.w3.org/1999/xlink" viewBox="0 0 16 16"><defs><style>.cls-1{fill:#fff;}.cls-2{fill:#4d4d4d;}</style><symbol id="Array" data-name="Array" viewBox="0 0 16 16"><rect class="cls-1" width="16" height="16"/><rect class="cls-2" width="2" height="16"/><rect class="cls-2" x="2" width="2" height="2"/><rect class="cls-2" x="2" y="14" width="2" height="2"/><polygon class="cls-2" points="14 0 16 0 16 16 14 16 14 0"/><polygon class="cls-2" points="12 14 14 14 14 16 12 16 12 14"/><polygon class="cls-2" points="12 0 14 0 14 2 12 2 12 0"/></symbol></defs><title>fuzzy_interval</title><g id="Layer_2" data-name="Layer 2"><g id="rework"><g id="fuzzy_interval"><use width="16" height="16" xlink:href="#Array"/><path class="cls-2" d="M4.63,13V11.31a2.46,2.46,0,0,1,1.88-.88,3.5,3.5,0,0,1,.74.08,10.67,10.67,0,0,1,1.2.43,3.91,3.91,0,0,0,1.19.35,2,2,0,0,0,.82-.21,3.13,3.13,0,0,0,.91-.7v1.71a2.88,2.88,0,0,1-.82.58,2.42,2.42,0,0,1-1.08.26,2.56,2.56,0,0,1-.62-.07,8.87,8.87,0,0,1-.95-.37,4.25,4.25,0,0,0-1.54-.42A2.41,2.41,0,0,0,4.63,13Z"/></g></g></g></svg>