<svg xmlns="http://www.w3.org/2000/svg" viewBox="0 0 16 16"><defs><style>.cls-1{fill:gray;}</style></defs><title>help</title><g id="Layer_2" data-name="Layer 2"><g id="new_icons"><g id="help"><path class="cls-1" d="M8,0a8,8,0,1,0,8,8A8,8,0,0,0,8,0ZM9,12.82H7.12V10.93H9Zm2.24-5.94A7.91,7.91,0,0,1,9.75,8.4,2.9,2.9,0,0,0,9,9.2a2.59,2.59,0,0,0-.13,1.08H7.12c0-.25,0-.4,0-.45a2.9,2.9,0,0,1,.28-1.37A4.26,4.26,0,0,1,8.51,7.25a7.53,7.53,0,0,0,1-.88,1.16,1.16,0,0,0,.26-.73,1.21,1.21,0,0,0-.45-.94,1.78,1.78,0,0,0-1.21-.39,1.82,1.82,0,0,0-1.22.41A2.19,2.19,0,0,0,6.21,6L4.45,5.75a2.87,2.87,0,0,1,1-2A3.74,3.74,0,0,1,8,2.87a3.85,3.85,0,0,1,2.63.85,2.55,2.55,0,0,1,1,2A2.15,2.15,0,0,1,11.28,6.88Z"/></g></g></g></svg>