<svg xmlns="http://www.w3.org/2000/svg" xmlns:xlink="http://www.w3.org/1999/xlink" viewBox="0 0 16 16"><defs><style>.cls-1{fill:#fff;}.cls-2{fill:gray;}.cls-3,.cls-4{fill:#4d4d4d;}.cls-4{fill-rule:evenodd;}</style><symbol id="Border_type" data-name="Border_type" viewBox="0 0 16 16"><rect class="cls-1" x="0.5" y="0.5" width="15" height="15"/><path class="cls-2" d="M15,1V15H1V1H15m1-1H0V16H16V0Z"/></symbol></defs><title>literal</title><g id="Layer_2" data-name="Layer 2"><g id="row3"><g id="literal"><g id="t"><use width="16" height="16" xlink:href="#Border_type"/><rect class="cls-3" x="6" y="12" width="4" height="1"/><rect class="cls-3" x="7" y="3" width="2" height="10"/><rect class="cls-3" x="4" y="3" width="8" height="1"/><rect class="cls-3" x="11" y="3" width="1" height="3"/><rect class="cls-3" x="4" y="3" width="1" height="3"/></g><use width="16" height="16" xlink:href="#Border_type"/><polygon class="cls-4" points="8.57 4.33 2 10.89 2 14 5.11 14 11.67 7.43 8.57 4.33"/><path class="cls-3" d="M10.85,1.85h1.21a1,1,0,0,1,1,1V5.28a1,1,0,0,1-1,1H10.85a0,0,0,0,1,0,0V1.85A0,0,0,0,1,10.85,1.85Z" transform="translate(0.63 9.65) rotate(-45)"/></g></g></g></svg>