<svg xmlns="http://www.w3.org/2000/svg" xmlns:xlink="http://www.w3.org/1999/xlink" viewBox="0 0 16 16"><defs><style>.cls-1{fill:#fff;}.cls-2{fill:gray;}.cls-3{fill:#4d4d4d;}</style><symbol id="Border_type" data-name="Border_type" viewBox="0 0 16 16"><rect class="cls-1" x="0.5" y="0.5" width="15" height="15"/><path class="cls-2" d="M15,1V15H1V1H15m1-1H0V16H16V0Z"/></symbol></defs><title>pmml</title><g id="Layer_2" data-name="Layer 2"><g id="rework"><g id="pmml"><use width="16" height="16" xlink:href="#Border_type"/><path class="cls-3" d="M3,2V7H4.33V5H7V2ZM5.67,4H4.33V3H5.67Z"/><polygon class="cls-3" points="8 7 8 2 9 2 10 4 11 2 12 2 12 7 11 7 11 4 10 6 9 4 9 7 8 7"/><polygon class="cls-3" points="3 14 3 9 4 9 5 11 6 9 7 9 7 14 6 14 6 11 5 13 4 11 4 14 3 14"/><polygon class="cls-3" points="8 9 8 14 12 14 12 13.17 8.8 13.17 8.8 9 8 9"/></g></g></g></svg>