<svg xmlns="http://www.w3.org/2000/svg" xmlns:xlink="http://www.w3.org/1999/xlink" viewBox="0 0 16 16"><defs><style>.cls-1{fill:#fff;}.cls-2{fill:gray;}.cls-3{fill:#4d4d4d;}</style><symbol id="Border_type" data-name="Border_type" viewBox="0 0 16 16"><rect class="cls-1" x="0.5" y="0.5" width="15" height="15"/><path class="cls-2" d="M15,1V15H1V1H15m1-1H0V16H16V0Z"/></symbol></defs><title>png</title><g id="Layer_2" data-name="Layer 2"><g id="rework"><g id="png"><use width="16" height="16" xlink:href="#Border_type"/><polygon class="cls-3" points="11 5 10 6 10 9 11 10 13 10 14 9 14 7 12 7 12 8 13 8 13 9 11 9 11 6 13 6 14 6 13 5 11 5"/><path class="cls-3" d="M2,5v5H3V8H5V5ZM4,7H3V6H4Z"/><polyline class="cls-3" points="6 10 6 5 7 5 8 8 8 5 9 5 9 10 8 10 7 7 7 10"/></g></g></g></svg>