<svg xmlns="http://www.w3.org/2000/svg" xmlns:xlink="http://www.w3.org/1999/xlink" viewBox="0 0 16 16"><defs><style>.cls-1{fill:#fff;}.cls-2{fill:gray;}.cls-3{fill:#4d4d4d;}</style><symbol id="Border_type" data-name="Border_type" viewBox="0 0 16 16"><rect class="cls-1" x="0.5" y="0.5" width="15" height="15"/><path class="cls-2" d="M15,1V15H1V1H15m1-1H0V16H16V0Z"/></symbol></defs><title>port</title><g id="Layer_2" data-name="Layer 2"><g id="rework"><g id="port"><use width="16" height="16" xlink:href="#Border_type"/><path class="cls-3" d="M4.44,12.65V3.35h3a10.53,10.53,0,0,1,2.24.14A2.44,2.44,0,0,1,11,4.4a3,3,0,0,1,.53,1.81,3,3,0,0,1-.31,1.44,2.46,2.46,0,0,1-.79.92,2.71,2.71,0,0,1-1,.44,10.71,10.71,0,0,1-1.95.13H6.31v3.51ZM6.31,4.92V7.56h1a5.22,5.22,0,0,0,1.49-.14,1.22,1.22,0,0,0,.8-1.19,1.19,1.19,0,0,0-.3-.83A1.34,1.34,0,0,0,8.57,5a9.44,9.44,0,0,0-1.35-.06Z"/></g></g></g></svg>