<svg xmlns="http://www.w3.org/2000/svg" viewBox="0 0 16 16"><defs><style>.cls-1{opacity:0;}.cls-2{fill:#fff;}.cls-3{fill:gray;}</style></defs><title>search</title><g id="Layer_2" data-name="Layer 2"><g id="new_icons"><g id="search"><g id="dont_crop_me" data-name="dont crop me" class="cls-1"><rect class="cls-2" width="16" height="16"/></g><path class="cls-3" d="M6,2A4,4,0,1,1,2,6,4,4,0,0,1,6,2M6,0a6,6,0,1,0,6,6A6,6,0,0,0,6,0Z"/><path class="cls-3" d="M10,8.84a1,1,0,0,0-.71.29l-.11.11a1,1,0,0,0,0,1.42L14,15.53a1,1,0,0,0,1.42,0l.11-.11a1,1,0,0,0,0-1.42L10.66,9.13A1,1,0,0,0,10,8.84Z"/></g></g></g></svg>