<svg xmlns="http://www.w3.org/2000/svg" viewBox="0 0 16 16"><defs><style>.cls-1{opacity:0;}.cls-2{fill:#fff;}.cls-3{fill:gray;}</style></defs><title>settings</title><g id="Layer_2" data-name="Layer 2"><g id="new_icons"><g id="settings"><g class="cls-1"><rect class="cls-2" width="16" height="16"/></g><rect class="cls-3" x="0.8" y="3" width="4" height="4" transform="translate(-2.93 4.93) rotate(-60)"/><rect class="cls-3" x="11.2" y="9" width="4" height="4" transform="translate(-2.93 16.93) rotate(-60)"/><path class="cls-3" d="M8,5A3,3,0,1,1,5.4,6.5,3,3,0,0,1,8,5M8,2H8A6,6,0,0,0,5,13.2,6,6,0,1,0,11,2.8,6.07,6.07,0,0,0,8,2Z"/><rect class="cls-3" x="6" width="4" height="4"/><rect class="cls-3" x="6" y="12" width="4" height="4"/><rect class="cls-3" x="11.2" y="3" width="4" height="4" transform="translate(-0.73 7.27) rotate(-30)"/><rect class="cls-3" x="0.8" y="9" width="4" height="4" transform="translate(-5.12 2.88) rotate(-30)"/></g></g></g></svg>