<?xml version="1.0" encoding="utf-8"?>
<!-- Generator: Adobe Illustrator 14.0.0, SVG Export Plug-In . SVG Version: 6.00 Build 43363)  -->
<!DOCTYPE svg PUBLIC "-//W3C//DTD SVG 1.1//EN" "http://www.w3.org/Graphics/SVG/1.1/DTD/svg11.dtd">
<svg version="1.1" id="Ebene_1" xmlns="http://www.w3.org/2000/svg" xmlns:xlink="http://www.w3.org/1999/xlink" x="0px" y="0px"
	 width="16px" height="16px" viewBox="-412 290.3 16 16" style="enable-background:new -412 290.3 16 16;" xml:space="preserve">
<g id="XMLID_6_">
	<path id="XMLID_11_" d="M-412,306.3v-16h3.5v2h-1.7v12.3h1.7v1.8H-412z"/>
	<path id="XMLID_8_" d="M-396,290.3v16h-3.7v-2h1.7V292h-1.7v-1.8H-396z"/>
	<g>
		<path d="M-407.2,301.1c0.6,0.3,1.7,0.7,2.7,0.7c1.1,0,1.7-0.5,1.7-1.2c0-0.7-0.5-1.1-1.8-1.5c-1.8-0.6-3-1.6-3-3.2
			c0-1.8,1.6-3.2,4.1-3.2c1.2,0,2.1,0.2,2.8,0.5l-0.5,2c-0.4-0.2-1.2-0.5-2.2-0.5c-1.1,0-1.6,0.5-1.6,1c0,0.7,0.6,1,2,1.5
			c1.9,0.7,2.8,1.7,2.8,3.2c0,1.8-1.4,3.3-4.3,3.3c-1.2,0-2.4-0.3-3.1-0.7L-407.2,301.1z"/>
	</g>
</g>
</svg>
