<svg xmlns="http://www.w3.org/2000/svg" xmlns:xlink="http://www.w3.org/1999/xlink" viewBox="0 0 16 16"><defs><style>.cls-1{fill:#fff;}.cls-2{fill:#4d4d4d;}</style><symbol id="Array" data-name="Array" viewBox="0 0 16 16"><rect class="cls-1" width="16" height="16"/><rect class="cls-2" width="2" height="16"/><rect class="cls-2" x="2" width="2" height="2"/><rect class="cls-2" x="2" y="14" width="2" height="2"/><polygon class="cls-2" points="14 0 16 0 16 16 14 16 14 0"/><polygon class="cls-2" points="12 14 14 14 14 16 12 16 12 14"/><polygon class="cls-2" points="12 0 14 0 14 2 12 2 12 0"/></symbol></defs><title>string_vector</title><g id="Layer_2" data-name="Layer 2"><g id="rework"><g id="string_vector"><use width="16" height="16" xlink:href="#Array"/><path class="cls-2" d="M4.22,9.62,6,9.44a2.33,2.33,0,0,0,.67,1.36,2.08,2.08,0,0,0,1.37.43,2,2,0,0,0,1.36-.39A1.11,1.11,0,0,0,9.9,10a.87.87,0,0,0-.19-.57A1.62,1.62,0,0,0,9,9c-.22-.08-.72-.21-1.5-.41a5,5,0,0,1-2.12-.92A2.42,2.42,0,0,1,5,4.45a2.49,2.49,0,0,1,1.16-.94A4.54,4.54,0,0,1,8,3.19,3.94,3.94,0,0,1,10.59,4,2.73,2.73,0,0,1,11.52,6l-1.88.09a1.58,1.58,0,0,0-.52-1,1.88,1.88,0,0,0-1.19-.32,2.09,2.09,0,0,0-1.28.34.66.66,0,0,0-.3.57.72.72,0,0,0,.28.57,4.81,4.81,0,0,0,1.73.62,9.19,9.19,0,0,1,2,.67,2.63,2.63,0,0,1,1,1,2.73,2.73,0,0,1,.37,1.48,2.81,2.81,0,0,1-.44,1.5,2.76,2.76,0,0,1-1.26,1,5.37,5.37,0,0,1-2,.33A4,4,0,0,1,5.35,12,3.54,3.54,0,0,1,4.22,9.62Z"/></g></g></g></svg>