<svg xmlns="http://www.w3.org/2000/svg" viewBox="0 0 16 16"><defs><style>.cls-1{fill:#fff;}.cls-2{fill:#4d4d4d;}</style></defs><title>time</title><g id="Layer_2" data-name="Layer 2"><g id="rework"><g id="time"><rect class="cls-1" width="16" height="16"/><path class="cls-2" d="M8,1A7,7,0,1,1,1,8,7,7,0,0,1,8,1M8,0a8,8,0,1,0,8,8A8,8,0,0,0,8,0Z"/><polygon class="cls-2" points="9 2 8 2 8 8 9 8 9 2 9 2"/><polygon class="cls-2" points="8 8 3.76 12.24 4.46 12.95 8.71 8.71 8 8 8 8"/><polygon class="cls-2" points="9 8 8 8 8.71 8.71 9 8 9 8"/></g></g></g></svg>