<svg xmlns="http://www.w3.org/2000/svg" xmlns:xlink="http://www.w3.org/1999/xlink" viewBox="0 0 16 16"><defs><style>.cls-1{fill:#fff;}.cls-2{fill:gray;}.cls-3{fill:#4d4d4d;}</style><symbol id="Border_type" data-name="Border_type" viewBox="0 0 16 16"><rect class="cls-1" x="0.5" y="0.5" width="15" height="15"/><path class="cls-2" d="M15,1V15H1V1H15m1-1H0V16H16V0Z"/></symbol></defs><title>xml</title><g id="Layer_2" data-name="Layer 2"><g id="rework"><g id="xml"><use width="16" height="16" xlink:href="#Border_type"/><polygon class="cls-3" points="6 11 6 5 7 5 8 7 9 5 10 5 10 11 9 11 9 7 8 9 7 7 7 11 6 11"/><polygon class="cls-3" points="5 5 4 5 3.5 6.5 3 5 2 5 3 8 2 11 3 11 3.5 9.5 4 11 5 11 4 8 5 5"/><polygon class="cls-3" points="11 5 11 11 14 11 14 10 12 10 12 5 11 5"/></g></g></g></svg>