<?xml version="1.0" encoding="utf-8"?>
<!-- Generator: Adobe Illustrator 19.0.0, SVG Export Plug-In . SVG Version: 6.00 Build 0)  -->
<!DOCTYPE svg PUBLIC "-//W3C//DTD SVG 1.1//EN" "http://www.w3.org/Graphics/SVG/1.1/DTD/svg11.dtd">
<svg version="1.1" id="Ebene_1" xmlns="http://www.w3.org/2000/svg" xmlns:xlink="http://www.w3.org/1999/xlink" x="0px" y="0px"
	 viewBox="0 0 16 16" style="enable-background:new 0 0 16 16;" xml:space="preserve">
<style type="text/css">
	.st0{fill:#FFFFFF;}
</style>
<g>
	<polygon points="16,8.5 16,3.1 11.4,3.1 11.4,0 9.3,0 9.3,3.1 4.6,3.1 4.6,9.1 0,9.1 0,16 2.1,16 2.1,11.3 9.2,11.3 9.2,15.3 
		11.4,15.3 11.3,9.1 6.8,9.1 6.8,5.3 13.9,5.3 13.9,8.5 	"/>
</g>
<g>
	<circle class="st0" cx="11.1" cy="11.1" r="4.9"/>
	<g>
		<path d="M9.8,14l-1.3-1c0.5-0.6,1.1-1.1,1.6-1.6c-0.7-0.1-1.5-0.3-2.2-0.5l0.5-1.5c0.7,0.3,1.4,0.6,2,1c-0.1-0.9-0.2-1.7-0.2-2.2
			h1.5c0,0.4-0.1,1.2-0.2,2.3c0.7-0.3,1.4-0.6,2.1-0.9l0.4,1.5c-0.6,0.1-1.4,0.3-2.2,0.4c0.5,0.6,1,1.1,1.5,1.7L12.1,14L11,12.1
			C10.6,12.7,10.2,13.3,9.8,14z"/>
	</g>
</g>
</svg>
