<?xml version="1.0" encoding="utf-8"?>
<!-- Generator: Adobe Illustrator 19.0.0, SVG Export Plug-In . SVG Version: 6.00 Build 0)  -->
<!DOCTYPE svg PUBLIC "-//W3C//DTD SVG 1.0//EN" "http://www.w3.org/TR/2001/REC-SVG-20010904/DTD/svg10.dtd">
<svg version="1.0" id="Ebene_1" xmlns="http://www.w3.org/2000/svg" xmlns:xlink="http://www.w3.org/1999/xlink" x="0px" y="0px"
	 viewBox="0 0 16 16" enable-background="new 0 0 16 16" xml:space="preserve">
<g id="XMLID_1_">
	<g id="XMLID_7_">
		<polygon id="XMLID_9_" points="6.9,1.6 4.2,0 4.2,1.3 0,1.3 0,2 4.2,2 4.2,3.3 		"/>
	</g>
	<rect id="XMLID_2_" x="7.9" y="0" width="1" height="3.3"/>
</g>
<g id="XMLID_6_">
	<g id="XMLID_4_">
		<polygon id="XMLID_5_" points="6.9,14.4 4.2,12.7 4.2,14 0,14 0,14.7 4.2,14.7 4.2,16 		"/>
	</g>
	<rect id="XMLID_3_" x="7.9" y="12.7" width="1" height="3.3"/>
</g>
<g id="XMLID_10_">
	<polygon id="XMLID_11_" points="16,5.8 13.3,4.2 13.3,5.5 0,5.5 0,6.2 13.3,6.2 13.3,7.5 	"/>
</g>
<g id="XMLID_13_">
	<polygon id="XMLID_14_" points="16,10.1 13.3,8.5 13.3,9.8 0,9.8 0,10.5 13.3,10.5 13.3,11.8 	"/>
</g>
</svg>
