<?xml version="1.0" encoding="utf-8"?>
<!-- Generator: Adobe Illustrator 21.0.0, SVG Export Plug-In . SVG Version: 6.00 Build 0)  -->
<svg version="1.0" id="Ebene_1" xmlns="http://www.w3.org/2000/svg" xmlns:xlink="http://www.w3.org/1999/xlink" x="0px" y="0px"
	 viewBox="0 0 16 16" style="enable-background:new 0 0 16 16;" xml:space="preserve">
<style type="text/css">
	.st0{fill:#FFFFFF;}
	.st1{fill:#222221;}
	.st2{fill:#9B9A9A;}
</style>
<g>
	<g>
		<rect x="1.3" y="1.2" class="st0" width="13.4" height="13.6"/>
		<path class="st1" d="M15.2,15.3H0.8V0.7h14.4V15.3z M1.8,14.3h12.4V1.7H1.8V14.3z"/>
	</g>
	<rect x="1.3" y="3.6" class="st1" width="13.8" height="1"/>
	<rect x="1.8" y="1.6" class="st2" width="12.4" height="2.1"/>
</g>
<g>
	<rect x="10.1" y="6.2" class="st2" width="3" height="3"/>
	<rect x="6.3" y="6.2" class="st2" width="3" height="3"/>
	<g>
		<path class="st1" d="M3,6.8h0.8l0.3,0.5l0.3-0.5h0.8L4.6,7.7l0.7,1H4.4L4.1,8.1L3.7,8.7H2.9l0.7-1L3,6.8z"/>
	</g>
</g>
<g>
	<rect x="2.9" y="10.1" transform="matrix(-1 -1.224647e-16 1.224647e-16 -1 8.8642 23.2993)" class="st2" width="3" height="3"/>
	<rect x="6.7" y="10.1" transform="matrix(-1 -1.224647e-16 1.224647e-16 -1 16.3281 23.2993)" class="st2" width="3" height="3"/>
	<g>
		<path class="st1" d="M13,12.6h-0.8l-0.3-0.5l-0.3,0.5h-0.8l0.6-0.9l-0.7-1h0.8l0.3,0.6l0.4-0.6h0.8l-0.7,1L13,12.6z"/>
	</g>
</g>
</svg>
