<?xml version="1.0" encoding="utf-8"?>
<!-- Generator: Adobe Illustrator 19.1.0, SVG Export Plug-In . SVG Version: 6.00 Build 0)  -->
<!DOCTYPE svg PUBLIC "-//W3C//DTD SVG 1.1//EN" "http://www.w3.org/Graphics/SVG/1.1/DTD/svg11.dtd">
<svg version="1.1" id="Ebene_1" xmlns="http://www.w3.org/2000/svg" xmlns:xlink="http://www.w3.org/1999/xlink" x="0px" y="0px"
	 viewBox="-289 412.9 16 16" style="enable-background:new -289 412.9 16 16;" xml:space="preserve">
<style type="text/css">
	.st0{fill:#FFFFFF;}
	.st1{enable-background:new    ;}
	.st2{fill:#F1933B;}
</style>
<rect id="XMLID_14_" x="-283" y="412.9" class="st0" width="3.9" height="4.5"/>
<polygon id="XMLID_15_" class="st0" points="-284,417.4 -284,412.9 -284.1,412.9 -288,412.9 -288,417.4 "/>
<polygon id="XMLID_16_" points="-284.1,418.4 -283,418.4 -279.1,418.4 -278.1,418.4 -273,418.4 -273,412.9 -274,412.9 -274,412.9 
	-274,417.4 -278.1,417.4 -278.1,412.9 -278.1,412.9 -279.1,412.9 -279.1,412.9 -279.1,417.4 -283,417.4 -283,412.9 -283,412.9 
	-283.1,412.9 -284,412.9 -284.1,412.9 -284.1,412.9 -284,412.9 -284,417.4 -288,417.4 -288,412.9 -288,412.9 -289,412.9 -289,418.4 
	"/>
<rect id="XMLID_17_" x="-278.1" y="412.9" class="st0" width="4.1" height="4.5"/>
<rect id="XMLID_18_" x="-283" y="424.3" class="st0" width="4" height="4.6"/>
<polygon id="XMLID_19_" points="-284,428.9 -283.5,428.9 -283,428.9 -283,424.3 -279,424.3 -279,428.9 -278.5,428.9 -278,428.9 
	-278,423.3 -284,423.3 "/>
<g id="XMLID_7_">
	<polygon id="XMLID_9_" points="-281,422.9 -279.4,420.1 -280.6,420.1 -280.6,416 -281.4,416 -281.4,420.1 -282.6,420.1 	"/>
</g>
<g id="XMLID_2_">
	<polygon id="XMLID_3_" points="-275.6,422.9 -274,420.1 -275.3,420.1 -275.3,416 -276,416 -276,420.1 -277.3,420.1 	"/>
</g>
<g id="XMLID_4_">
	<polygon id="XMLID_5_" points="-286.3,422.9 -284.7,420.1 -286,420.1 -286,416 -286.7,416 -286.7,420.1 -288,420.1 	"/>
</g>
<g class="st1">
	<g>
		<rect x="-283.5" y="423.8" class="st2" width="5" height="3.2"/>
		<path d="M-278,427.5h-6v-4.2h6V427.5z M-283,426.5h4v-2.2h-4V426.5z"/>
	</g>
</g>
</svg>
