<?xml version="1.0" encoding="utf-8"?>
<!-- Generator: Adobe Illustrator 19.0.0, SVG Export Plug-In . SVG Version: 6.00 Build 0)  -->
<!DOCTYPE svg PUBLIC "-//W3C//DTD SVG 1.0//EN" "http://www.w3.org/TR/2001/REC-SVG-20010904/DTD/svg10.dtd">
<svg version="1.0" id="Ebene_1" xmlns="http://www.w3.org/2000/svg" xmlns:xlink="http://www.w3.org/1999/xlink" x="0px" y="0px"
	 viewBox="0 0 16 16" enable-background="new 0 0 16 16" xml:space="preserve">
<g id="XMLID_11_">
	<polygon id="XMLID_12_" points="12.4,7.7 8.5,5.5 8.5,10 	"/>
</g>
<g>
	<path d="M0,9.6l1.1-0.1c0.1,0.5,0.2,0.8,0.4,1.1c0.2,0.3,0.5,0.5,0.9,0.7c0.4,0.2,0.9,0.3,1.4,0.3c0.5,0,0.9-0.1,1.2-0.2
		c0.4-0.1,0.6-0.3,0.8-0.6C6,10.5,6.1,10.3,6.1,10c0-0.3-0.1-0.5-0.2-0.7C5.7,9.1,5.4,8.9,5,8.7C4.8,8.6,4.2,8.5,3.4,8.3
		C2.6,8.1,2,7.9,1.6,7.7c-0.4-0.2-0.8-0.5-1-0.8S0.3,6.2,0.3,5.7c0-0.5,0.1-0.9,0.4-1.3C1,4.1,1.4,3.8,1.9,3.6
		c0.5-0.2,1.1-0.3,1.7-0.3c0.7,0,1.3,0.1,1.8,0.3s0.9,0.5,1.2,1C6.8,4.9,6.9,5.4,7,6L5.8,6C5.7,5.5,5.5,5,5.2,4.7S4.3,4.3,3.6,4.3
		C2.9,4.3,2.3,4.4,2,4.7C1.7,5,1.5,5.3,1.5,5.7c0,0.3,0.1,0.6,0.4,0.8c0.2,0.2,0.8,0.4,1.8,0.6s1.6,0.4,2,0.6
		c0.5,0.2,0.9,0.6,1.2,0.9C7.1,9,7.2,9.4,7.2,9.9c0,0.5-0.1,0.9-0.4,1.4c-0.3,0.4-0.7,0.8-1.2,1c-0.5,0.2-1.1,0.4-1.7,0.4
		c-0.8,0-1.5-0.1-2.1-0.4c-0.6-0.2-1-0.6-1.3-1.1C0.2,10.7,0,10.2,0,9.6z"/>
	<polygon points="16,4.2 16,3.2 12.6,3.2 12.6,4.2 13.7,4.2 13.7,11.5 12.6,11.5 12.6,12.5 16,12.5 16,11.5 14.8,11.5 14.8,4.2 	"/>
</g>
</svg>
