<?xml version="1.0" encoding="utf-8"?>
<!-- Generator: Adobe Illustrator 19.0.0, SVG Export Plug-In . SVG Version: 6.00 Build 0)  -->
<!DOCTYPE svg PUBLIC "-//W3C//DTD SVG 1.1//EN" "http://www.w3.org/Graphics/SVG/1.1/DTD/svg11.dtd">
<svg version="1.1" id="Ebene_1" xmlns="http://www.w3.org/2000/svg" xmlns:xlink="http://www.w3.org/1999/xlink" x="0px" y="0px"
	 viewBox="0 0 16 16" style="enable-background:new 0 0 16 16;" xml:space="preserve">
<style type="text/css">
	.st0{fill:#FFFFFF;}
	.st1{fill:#CBCBCB;}
</style>
<g>
	<g>
		<circle class="st0" cx="2.9" cy="10.6" r="1.9"/>
		<path d="M2.9,7.7C1.3,7.7,0,9,0,10.6c0,1.6,1.3,2.9,2.9,2.9s2.9-1.3,2.9-2.9C5.8,9,4.5,7.7,2.9,7.7z M2.9,12.4
			c-1,0-1.9-0.8-1.9-1.9s0.8-1.9,1.9-1.9s1.9,0.8,1.9,1.9S3.9,12.4,2.9,12.4z"/>
	</g>
	<g>
		<path class="st0" d="M9,7.2c0-1.6-1.3-2.8-2.8-2.8S3.4,5.7,3.4,7.2c0,1.6,1.3,2.8,2.8,2.8S9,8.8,9,7.2z"/>
		<path d="M6.2,3.4c-2.1,0-3.8,1.7-3.8,3.8c0,2.1,1.7,3.8,3.8,3.8c2.1,0,3.8-1.7,3.8-3.8C10,5.1,8.3,3.4,6.2,3.4z M3.4,7.2
			c0-1.6,1.3-2.8,2.8-2.8S9,5.7,9,7.2c0,1.6-1.3,2.8-2.8,2.8S3.4,8.8,3.4,7.2z"/>
	</g>
	<g>
		<circle class="st0" cx="2.9" cy="2.9" r="1.9"/>
		<path d="M2.9,0C1.3,0,0,1.3,0,2.9s1.3,2.9,2.9,2.9s2.9-1.3,2.9-2.9S4.5,0,2.9,0z M2.9,4.8C1.8,4.8,1,3.9,1,2.9S1.8,1,2.9,1
			s1.9,0.8,1.9,1.9S3.9,4.8,2.9,4.8z"/>
	</g>
	<g>
		<circle class="st0" cx="9.5" cy="3.9" r="1.9"/>
		<path d="M9.5,1C7.9,1,6.6,2.3,6.6,3.9s1.3,2.9,2.9,2.9s2.9-1.3,2.9-2.9S11.1,1,9.5,1z M7.6,3.9c0-1,0.8-1.9,1.9-1.9
			c1,0,1.9,0.8,1.9,1.9s-0.8,1.9-1.9,1.9C8.5,5.8,7.6,5,7.6,3.9z"/>
	</g>
</g>
<g>
	<path class="st1" d="M12.2,8.7L12,6.4l-1.6,1.7c0,0.1-0.5,0.2-0.7,0.1l-2-1l0.6,2.1c0.1,0.2,0.1,0.3-0.1,0.6l-2,1.2l2.3,0.6
		c0.2,0,0.5,0.2,0.5,0.5v2.2l1.6-1.7c0.1-0.2,0.5-0.2,0.7-0.1l2,1l-0.7-2.1c-0.1-0.2,0-0.5,0.2-0.7l2-1.1L12.4,9
		C12.3,9,12.3,8.9,12.2,8.7z"/>
	<path d="M16,9.5c0-0.2-0.2-0.3-0.4-0.4l-2.7-0.6l-0.2-2.8c-0.1-1.1-1.2,0-1.4,0.3c-0.4,0.5-0.9,1-1.3,1.4L7.4,6.2
		C6.4,5.7,6.9,7.3,7,7.7c0.2,0.6,0.4,1.2,0.5,1.8l-2.3,1.6c-0.9,0.6,0.6,1,1,1.1c0.6,0.2,1.3,0.3,1.9,0.5l0.2,2.8
		c0.1,1.1,1.2,0,1.4-0.3c0.4-0.5,0.9-1,1.3-1.4l2.5,1.2c1.1,0.5,0.5-1.1,0.4-1.5c-0.2-0.6-0.4-1.2-0.5-1.8l2.3-1.6
		C16,9.9,16,9.6,16,9.5C16,9.5,16,9.6,16,9.5C16,9.3,16,9.7,16,9.5z M12.6,10.9c-0.2,0.1-0.3,0.3-0.2,0.6l0.6,1.9l-1.8-0.9
		c-0.2-0.1-0.4-0.1-0.6,0.1l-1.4,1.5l-0.2-2c0-0.2-0.2-0.4-0.4-0.4l-2-0.5l1.7-1.1C8.5,10,8.6,9.8,8.5,9.5L8,7.6l1.8,0.9
		c0.2,0.1,0.4,0.1,0.6-0.1l1.4-1.5l0.2,2c0,0.2,0.2,0.4,0.4,0.4l2,0.5L12.6,10.9z"/>
</g>
</svg>
