<?xml version="1.0" encoding="utf-8"?>
<!-- Generator: Adobe Illustrator 19.1.0, SVG Export Plug-In . SVG Version: 6.00 Build 0)  -->
<!DOCTYPE svg PUBLIC "-//W3C//DTD SVG 1.1//EN" "http://www.w3.org/Graphics/SVG/1.1/DTD/svg11.dtd">
<svg version="1.1" id="Ebene_1" xmlns="http://www.w3.org/2000/svg" xmlns:xlink="http://www.w3.org/1999/xlink" x="0px" y="0px"
	 viewBox="-412 290.3 16 16" style="enable-background:new -412 290.3 16 16;" xml:space="preserve">
<style type="text/css">
	.st0{fill:#FFFFFF;}
	.st1{fill:#FFD302;}
</style>
<g>
	<g>
		<circle class="st0" cx="-409.1" cy="300.9" r="1.9"/>
		<path d="M-409.1,298c-1.6,0-2.9,1.3-2.9,2.9s1.3,2.9,2.9,2.9s2.9-1.3,2.9-2.9S-407.5,298-409.1,298z M-409.1,302.7
			c-1,0-1.9-0.8-1.9-1.9s0.8-1.9,1.9-1.9s1.9,0.8,1.9,1.9S-408.1,302.7-409.1,302.7z"/>
	</g>
	<g>
		<path class="st0" d="M-403,297.5c0-1.6-1.3-2.8-2.8-2.8s-2.8,1.3-2.8,2.8c0,1.6,1.3,2.8,2.8,2.8S-403,299.1-403,297.5z"/>
		<path d="M-405.8,293.7c-2.1,0-3.8,1.7-3.8,3.8c0,2.1,1.7,3.8,3.8,3.8c2.1,0,3.8-1.7,3.8-3.8C-402,295.4-403.7,293.7-405.8,293.7z
			 M-408.6,297.5c0-1.6,1.3-2.8,2.8-2.8s2.8,1.3,2.8,2.8c0,1.6-1.3,2.8-2.8,2.8S-408.6,299.1-408.6,297.5z"/>
	</g>
	<g>
		<circle class="st0" cx="-409.1" cy="293.2" r="1.9"/>
		<path d="M-409.1,290.3c-1.6,0-2.9,1.3-2.9,2.9s1.3,2.9,2.9,2.9s2.9-1.3,2.9-2.9S-407.5,290.3-409.1,290.3z M-409.1,295.1
			c-1.1,0-1.9-0.9-1.9-1.9s0.8-1.9,1.9-1.9s1.9,0.8,1.9,1.9S-408.1,295.1-409.1,295.1z"/>
	</g>
	<g>
		<circle class="st0" cx="-402.5" cy="294.2" r="1.9"/>
		<path d="M-402.5,291.3c-1.6,0-2.9,1.3-2.9,2.9s1.3,2.9,2.9,2.9s2.9-1.3,2.9-2.9S-400.9,291.3-402.5,291.3z M-404.4,294.2
			c0-1,0.8-1.9,1.9-1.9c1,0,1.9,0.8,1.9,1.9s-0.8,1.9-1.9,1.9C-403.5,296.1-404.4,295.3-404.4,294.2z"/>
	</g>
</g>
<g>
	<path class="st1" d="M-399.8,299l-0.2-2.3l-1.6,1.7c0,0.1-0.5,0.2-0.7,0.1l-2-1l0.6,2.1c0.1,0.2,0.1,0.3-0.1,0.6l-2,1.2l2.3,0.6
		c0.2,0,0.5,0.2,0.5,0.5v2.2l1.6-1.7c0.1-0.2,0.5-0.2,0.7-0.1l2,1l-0.7-2.1c-0.1-0.2,0-0.5,0.2-0.7l2-1.1l-2.4-0.7
		C-399.7,299.3-399.7,299.2-399.8,299z"/>
	<path d="M-396,299.8c0-0.2-0.2-0.3-0.4-0.4l-2.7-0.6l-0.2-2.8c-0.1-1.1-1.2,0-1.4,0.3c-0.4,0.5-0.9,1-1.3,1.4l-2.6-1.2
		c-1-0.5-0.5,1.1-0.4,1.5c0.2,0.6,0.4,1.2,0.5,1.8l-2.3,1.6c-0.9,0.6,0.6,1,1,1.1c0.6,0.2,1.3,0.3,1.9,0.5l0.2,2.8
		c0.1,1.1,1.2,0,1.4-0.3c0.4-0.5,0.9-1,1.3-1.4l2.5,1.2c1.1,0.5,0.5-1.1,0.4-1.5c-0.2-0.6-0.4-1.2-0.5-1.8l2.3-1.6
		C-396,300.2-396,299.9-396,299.8C-396,299.8-396,299.9-396,299.8C-396,299.6-396,300-396,299.8z M-399.4,301.2
		c-0.2,0.1-0.3,0.3-0.2,0.6l0.6,1.9l-1.8-0.9c-0.2-0.1-0.4-0.1-0.6,0.1l-1.4,1.5l-0.2-2c0-0.2-0.2-0.4-0.4-0.4l-2-0.5l1.7-1.1
		c0.2-0.1,0.3-0.3,0.2-0.6l-0.5-1.9l1.8,0.9c0.2,0.1,0.4,0.1,0.6-0.1l1.4-1.5l0.2,2c0,0.2,0.2,0.4,0.4,0.4l2,0.5L-399.4,301.2z"/>
</g>
</svg>
