<?xml version="1.0" encoding="utf-8"?>
<!-- Generator: Adobe Illustrator 19.0.0, SVG Export Plug-In . SVG Version: 6.00 Build 0)  -->
<!DOCTYPE svg PUBLIC "-//W3C//DTD SVG 1.1//EN" "http://www.w3.org/Graphics/SVG/1.1/DTD/svg11.dtd">
<svg version="1.1" id="Ebene_1" xmlns="http://www.w3.org/2000/svg" xmlns:xlink="http://www.w3.org/1999/xlink" x="0px" y="0px"
	 viewBox="0 0 16 16" style="enable-background:new 0 0 16 16;" xml:space="preserve">
<style type="text/css">
	.st0{fill:#FFFFFF;}
	.st1{fill:#CBCBCB;}
</style>
<g>
	<rect x="0.6" y="8.7" class="st0" width="0" height="3"/>
	<rect x="0.6" y="12.7" class="st0" width="4.4" height="2.7"/>
	<polygon class="st0" points="0.6,1 0.6,7.7 5,7.7 5.3,7.7 5.3,0.5 5.3,0.5 5.3,1 	"/>
	<polygon class="st0" points="6,15.3 10.2,15.3 10.2,15.3 	"/>
	<rect x="11.2" y="4.9" class="st0" width="4.2" height="2.8"/>
	<polygon class="st0" points="15.4,1 15.4,1 11.2,1 11.2,3.9 11.2,3.9 11.2,1 	"/>
	<rect x="11.2" y="8.7" class="st0" width="4.2" height="3"/>
	<rect x="11.2" y="12.7" class="st0" width="4.2" height="2.7"/>
	<path d="M10.2,0v7.7H0.6V1h4.7V0h-5.7v16.4h16.9V0H10.2z M5,15.4H0.6v-2.7H5V15.4z M5,11.7H0.6l0,0v-3l0,0H5V11.7z M10.2,15.3
		L10.2,15.3L10.2,15.3H6l0,0l0,0v-2.7h4.2V15.3z M10.2,11.7H6v-3l0,0h4.2l0,0V11.7z M15.4,15.4h-4.2v-2.7h4.2V15.4z M15.4,11.7h-4.2
		v-3h4.2V11.7z M15.4,7.7h-4.2V4.9h4.2V7.7z M15.4,4.4L15.4,4.4V3.9h-4.2l0,0V1h4.2l0,0l0,0V4.4z"/>
	<rect x="0.6" y="8.7" class="st1" width="4.4" height="3"/>
	<polygon class="st1" points="6,8.7 6,8.7 6,11.7 10.2,11.7 10.2,8.7 10.2,8.7 	"/>
	<polygon class="st1" points="6,15.3 6,15.3 10.2,15.3 10.2,15.3 10.2,12.6 6,12.6 	"/>
	<polygon class="st1" points="11.2,1 11.2,3.9 15.4,3.9 15.4,1 15.4,1 	"/>
</g>
<g id="XMLID_7_">
	<polygon id="XMLID_9_" points="7.9,6.9 9.5,4.1 8.3,4.1 8.3,0 7.5,0 7.5,4.1 6.3,4.1 	"/>
</g>
</svg>
