<?xml version="1.0" encoding="utf-8"?>
<!-- Generator: Adobe Illustrator 19.1.0, SVG Export Plug-In . SVG Version: 6.00 Build 0)  -->
<!DOCTYPE svg PUBLIC "-//W3C//DTD SVG 1.1//EN" "http://www.w3.org/Graphics/SVG/1.1/DTD/svg11.dtd">
<svg version="1.1" id="Ebene_1" xmlns="http://www.w3.org/2000/svg" xmlns:xlink="http://www.w3.org/1999/xlink" x="0px" y="0px"
	 viewBox="-289 412.9 16 16" style="enable-background:new -289 412.9 16 16;" xml:space="preserve">
<style type="text/css">
	.st0{fill:#FFFFFF;}
	.st1{fill:#E64E4F;}
</style>
<g>
	<rect x="-288.4" y="421.6" class="st0" width="0" height="3"/>
	<rect x="-288.4" y="425.6" class="st0" width="4.4" height="2.7"/>
	<polygon class="st0" points="-288.4,413.9 -288.4,420.6 -284,420.6 -283.7,420.6 -283.7,413.4 -283.7,413.4 -283.7,413.9 	"/>
	<polygon class="st0" points="-283,428.2 -278.8,428.2 -278.8,428.2 	"/>
	<rect x="-277.8" y="417.8" class="st0" width="4.2" height="2.8"/>
	<polygon class="st0" points="-273.6,413.9 -273.6,413.9 -277.8,413.9 -277.8,416.8 -277.8,416.8 -277.8,413.9 	"/>
	<rect x="-277.8" y="421.6" class="st0" width="4.2" height="3"/>
	<rect x="-277.8" y="425.6" class="st0" width="4.2" height="2.7"/>
	<path d="M-278.8,412.9v7.7h-9.6v-6.7h4.7v-1h-5.7v16.4h16.9v-16.4H-278.8z M-284,428.3h-4.4v-2.7h4.4V428.3z M-284,424.6h-4.4l0,0
		v-3l0,0h4.4V424.6z M-278.8,428.2L-278.8,428.2L-278.8,428.2h-4.2l0,0l0,0v-2.7h4.2V428.2z M-278.8,424.6h-4.2v-3l0,0h4.2l0,0
		V424.6z M-273.6,428.3h-4.2v-2.7h4.2V428.3z M-273.6,424.6h-4.2v-3h4.2V424.6z M-273.6,420.6h-4.2v-2.8h4.2V420.6z M-273.6,417.3
		L-273.6,417.3v-0.5h-4.2l0,0v-2.9h4.2l0,0l0,0V417.3z"/>
	<rect x="-288.4" y="421.6" class="st1" width="4.4" height="3"/>
	<polygon class="st1" points="-283,421.6 -283,421.6 -283,424.6 -278.8,424.6 -278.8,421.6 -278.8,421.6 	"/>
	<polygon class="st1" points="-283,428.2 -283,428.2 -278.8,428.2 -278.8,428.2 -278.8,425.5 -283,425.5 	"/>
	<polygon class="st1" points="-277.8,413.9 -277.8,416.8 -273.6,416.8 -273.6,413.9 -273.6,413.9 	"/>
</g>
<g id="XMLID_7_">
	<polygon id="XMLID_9_" points="-281.1,419.8 -279.5,417 -280.7,417 -280.7,412.9 -281.5,412.9 -281.5,417 -282.7,417 	"/>
</g>
</svg>
