<?xml version="1.0" encoding="UTF-8" standalone="no"?>
<!-- Created with Inkscape (http://www.inkscape.org/) -->

<svg
   xmlns:dc="http://purl.org/dc/elements/1.1/"
   xmlns:cc="http://creativecommons.org/ns#"
   xmlns:rdf="http://www.w3.org/1999/02/22-rdf-syntax-ns#"
   xmlns:svg="http://www.w3.org/2000/svg"
   xmlns="http://www.w3.org/2000/svg"
   xmlns:xlink="http://www.w3.org/1999/xlink"
   xmlns:sodipodi="http://sodipodi.sourceforge.net/DTD/sodipodi-0.dtd"
   xmlns:inkscape="http://www.inkscape.org/namespaces/inkscape"
   width="50"
   height="50"
   id="svg2"
   sodipodi:version="0.32"
   inkscape:version="0.48.4 r9939"
   sodipodi:docname="jean_victor_balin_arrow_go_left.svg"
   inkscape:export-filename="/home/thor/workspace/KNIME-trunk-3.7/plugins/org.knime.workbench.core/icons/server_space/replace_head.png"
   inkscape:export-xdpi="28.799999"
   inkscape:export-ydpi="28.799999"
   inkscape:output_extension="org.inkscape.output.svg.inkscape"
   version="1.0">
  <defs
     id="defs4">
    <linearGradient
       id="linearGradient1416">
      <stop
         id="stop1418"
         offset="0.0000000"
         style="stop-color:#3ec549;stop-opacity:0.50836122;" />
      <stop
         id="stop1420"
         offset="1.0000000"
         style="stop-color:#4fe756;stop-opacity:0.11705685;" />
    </linearGradient>
    <linearGradient
       id="linearGradient1406">
      <stop
         style="stop-color:#56d760;stop-opacity:0.58862877;"
         offset="0.0000000"
         id="stop1408" />
      <stop
         style="stop-color:#18b01f;stop-opacity:0.39215687;"
         offset="1.0000000"
         id="stop1410" />
    </linearGradient>
    <linearGradient
       id="linearGradient2127">
      <stop
         style="stop-color:#1b611f;stop-opacity:1.0000000;"
         offset="0.0000000"
         id="stop2129" />
      <stop
         style="stop-color:#103f14;stop-opacity:1.0000000;"
         offset="1.0000000"
         id="stop2131" />
    </linearGradient>
    <linearGradient
       id="linearGradient1352">
      <stop
         style="stop-color:#179907;stop-opacity:1.0000000;"
         offset="0.0000000"
         id="stop1354" />
      <stop
         style="stop-color:#0f7402;stop-opacity:1.0000000;"
         offset="1.0000000"
         id="stop1356" />
    </linearGradient>
    <linearGradient
       inkscape:collect="always"
       xlink:href="#linearGradient1416"
       id="linearGradient1454"
       gradientUnits="userSpaceOnUse"
       gradientTransform="matrix(0,1,-1,0,70.70302,7.128229)"
       x1="23.254534"
       y1="16.125437"
       x2="23.254532"
       y2="59.48378" />
    <linearGradient
       inkscape:collect="always"
       xlink:href="#linearGradient1406"
       id="linearGradient1457"
       gradientUnits="userSpaceOnUse"
       gradientTransform="matrix(0,1,-1,0,70.64063,7.616408)"
       x1="28.414125"
       y1="16.25"
       x2="20.353058"
       y2="62.974236" />
    <linearGradient
       inkscape:collect="always"
       xlink:href="#linearGradient1352"
       id="linearGradient1460"
       gradientUnits="userSpaceOnUse"
       gradientTransform="matrix(0,1,-1,0,70.62693,7.434728)"
       x1="32.382065"
       y1="15.40625"
       x2="16.504204"
       y2="62.810131" />
    <linearGradient
       inkscape:collect="always"
       xlink:href="#linearGradient2127"
       id="linearGradient1463"
       gradientUnits="userSpaceOnUse"
       gradientTransform="matrix(0,1,-1,0,70.62693,7.434728)"
       x1="5.0680437"
       y1="34.687023"
       x2="44.70229"
       y2="42.612633" />
    <linearGradient
       inkscape:collect="always"
       xlink:href="#linearGradient1416"
       id="linearGradient2503"
       gradientUnits="userSpaceOnUse"
       gradientTransform="matrix(0,1,-1,0,63.70302,7.128229)"
       x1="23.254534"
       y1="16.125437"
       x2="23.254532"
       y2="59.48378" />
    <linearGradient
       inkscape:collect="always"
       xlink:href="#linearGradient1406"
       id="linearGradient2506"
       gradientUnits="userSpaceOnUse"
       gradientTransform="matrix(0,1,-1,0,63.64063,7.616408)"
       x1="28.414125"
       y1="16.25"
       x2="20.353058"
       y2="62.974236" />
    <linearGradient
       inkscape:collect="always"
       xlink:href="#linearGradient1352"
       id="linearGradient2509"
       gradientUnits="userSpaceOnUse"
       gradientTransform="matrix(0,1,-1,0,63.62693,7.434728)"
       x1="32.382065"
       y1="15.40625"
       x2="16.504204"
       y2="62.810131" />
    <linearGradient
       inkscape:collect="always"
       xlink:href="#linearGradient2127"
       id="linearGradient2512"
       gradientUnits="userSpaceOnUse"
       gradientTransform="matrix(0,1,-1,0,63.62693,7.434728)"
       x1="5.0680437"
       y1="34.687023"
       x2="44.70229"
       y2="42.612633" />
    <linearGradient
       inkscape:collect="always"
       xlink:href="#linearGradient2127"
       id="linearGradient2520"
       gradientUnits="userSpaceOnUse"
       gradientTransform="matrix(0,1,-1,0,63.62693,1.434728)"
       x1="5.0680437"
       y1="34.687023"
       x2="44.70229"
       y2="42.612633" />
    <linearGradient
       inkscape:collect="always"
       xlink:href="#linearGradient1352"
       id="linearGradient2522"
       gradientUnits="userSpaceOnUse"
       gradientTransform="matrix(0,1,-1,0,63.62693,1.434728)"
       x1="32.382065"
       y1="15.40625"
       x2="16.504204"
       y2="62.810131" />
    <linearGradient
       inkscape:collect="always"
       xlink:href="#linearGradient1406"
       id="linearGradient2524"
       gradientUnits="userSpaceOnUse"
       gradientTransform="matrix(0,1,-1,0,63.64063,1.616408)"
       x1="28.414125"
       y1="16.25"
       x2="20.353058"
       y2="62.974236" />
    <linearGradient
       inkscape:collect="always"
       xlink:href="#linearGradient1416"
       id="linearGradient2526"
       gradientUnits="userSpaceOnUse"
       gradientTransform="matrix(0,1,-1,0,63.70302,1.128229)"
       x1="23.254534"
       y1="16.125437"
       x2="23.254532"
       y2="59.48378" />
  </defs>
  <sodipodi:namedview
     id="base"
     pagecolor="#ffffff"
     bordercolor="#666666"
     borderopacity="1.0"
     inkscape:pageopacity="0.0"
     inkscape:pageshadow="2"
     inkscape:zoom="14.265879"
     inkscape:cx="21.654276"
     inkscape:cy="20"
     inkscape:document-units="px"
     inkscape:current-layer="g2514"
     showgrid="false"
     inkscape:grid-bbox="false"
     inkscape:grid-points="false"
     inkscape:window-width="1914"
     inkscape:window-height="1133"
     inkscape:window-x="0"
     inkscape:window-y="0"
     showguides="false"
     inkscape:window-maximized="1">
    <inkscape:grid
       id="GridFromPre046Settings"
       type="xygrid"
       originx="0px"
       originy="0px"
       spacingx="1px"
       spacingy="1px"
       color="#0000ff"
       empcolor="#0000ff"
       opacity="0.2"
       empopacity="0.4"
       empspacing="4"
       visible="true"
       enabled="true"
       snapvisiblegridlinesonly="true" />
  </sodipodi:namedview>
  <g
     inkscape:label="Calque 1"
     inkscape:groupmode="layer"
     id="layer1"
     transform="translate(0,10)">
    <g
       id="g2514"
       transform="translate(3.2245634e-8,-12)">
      <path
         sodipodi:nodetypes="cccsccccscccccssccc"
         id="path1388"
         d="m 32.470676,12.590978 c -1.582974,0 -13.163757,0 -14.0625,0 -0.0488,-1 0,-5 0,-5 -0.0091,-0.447249 -0.117322,-0.830357 -0.53125,-1 -0.413927,-0.169642 -0.867117,-0.09345 -1.1875,0.21875 l -15.9999998,16 c -0.421803,0.435434 -0.421803,1.127067 0,1.5625 l 15.9999998,16 c 0.320383,0.312202 0.773572,0.419642 1.1875,0.25 0.413929,-0.169644 0.522117,-0.584001 0.53125,-1.03125 0,10e-7 0,-4 0,-5 0.582417,0 3.778195,0 7.9375,0 2.28125,-0.15625 3.28125,0.84375 3.28125,3.84375 0,3 0,6.0625 0,6.0625 0,0 0,1 1,1 6,0 12.000001,-0.0625 18,-0.0625 1,0 1,-1 1,-1 0,0 0,-11.593825 0,-12.5 0,-14.5 -8,-19.5 -17.15625,-19.34375 z"
         style="fill:url(#linearGradient2520);fill-opacity:1;stroke:none"
         inkscape:connector-curvature="0" />
      <path
         id="path2147"
         d="m 48.22068,31.872228 c 0,-7.002917 -1.916192,-11.445219 -4.75,-14.1875 -2.833808,-2.742281 -6.704245,-3.88634 -11.03125,-3.8125 -0.01042,1.21e-4 -0.02083,1.21e-4 -0.03125,0 -1.582974,0 -13.163757,0 -14.0625,0 -0.718416,8.31e-4 -1.310389,-0.563609 -1.34375,-1.28125 -0.05031,-1.030996 -0.01155,-3.438647 0,-4.3125 l -15.2499998,15.25 15.2499998,15.28125 c -5.8e-5,-0.832654 0,-3.419615 0,-4.28125 -5.8e-5,-0.742156 0.601594,-1.343808 1.34375,-1.34375 0.575538,0 3.75629,0 7.84375,0 0.03183,-0.0022 0.06191,0.0018 0.09375,0 1.317417,-0.0728 2.637064,0.211185 3.5,1.1875 0.88379,0.999908 1.125,2.350721 1.125,4 0,2.829897 0,5.400625 0,5.71875 5.762205,-0.0023 11.533034,-0.06025 17.3125,-0.0625 0,-0.603738 0,-11.274995 0,-12.15625 z"
         style="fill:url(#linearGradient2522);fill-opacity:1;stroke:none"
         inkscape:connector-curvature="0" />
      <path
         id="path1412"
         d="m 47.39063,32.053908 c 0,-6.848955 -1.856886,-11.036004 -4.5,-13.59375 -2.642128,-2.556792 -6.267784,-3.633656 -10.4375,-3.5625 -0.01695,1.97e-4 -0.0143,1.97e-4 -0.03125,0 -1.582974,0 -13.163757,0 -14.0625,0 -1.161025,0.0013 -2.133586,-0.933978 -2.1875,-2.09375 -0.02899,-0.594113 -0.0066,-1.4212 0,-2.3125 l -13.2187498,13.21875 13.2187498,13.25 c 7e-6,-0.900812 0,-1.79719 0,-2.25 -9.4e-5,-1.198336 0.989164,-2.187594 2.1875,-2.1875 0.570952,0 3.740802,0 7.78125,0 0.06857,-0.0047 0.04509,-5.42e-4 0.0625,0 0.01741,5.42e-4 0.09585,-0.0018 0.0625,0 1.469158,-0.08119 3.064331,0.233367 4.15625,1.46875 1.083121,1.225428 1.34375,2.83093 1.34375,4.5625 0,2.412371 0,4.074171 0,4.875 5.19688,-0.0067 10.405206,-0.0558 15.625,-0.0625 0,-1.773354 0,-10.492412 0,-11.3125 z"
         style="fill:url(#linearGradient2524);fill-opacity:1;stroke:none"
         inkscape:connector-curvature="0" />
      <path
         sodipodi:nodetypes="cssssscccsc"
         id="path4351"
         d="m 47.365452,33.790199 c 0.265711,-6.440267 -0.593016,-11.681178 -4.352796,-15.246696 -2.681931,-2.543361 -5.503823,-3.642887 -10.622137,-3.571524 -0.01532,2.14e-4 -0.01593,1.78e-4 -0.03125,0 -1.582974,0 -13.163757,0 -14.0625,0 -1.129362,0.0013 -2.072545,-0.902879 -2.125,-2.03125 -0.03043,-0.623453 -0.01152,-1.544296 0,-2.4375 L 2.9575652,23.717433 12.750747,33.510615 c 1.931965,-7.882255 9.080336,-13.389542 17.952272,-13.389542 7.152419,1e-6 12.298379,2.104749 16.662433,13.669126 z"
         style="fill:url(#linearGradient2526);fill-opacity:1;stroke:none"
         inkscape:connector-curvature="0" />
    </g>
  </g>
  <metadata
     id="metadata36">
    <rdf:RDF>
      <cc:Work>
        <dc:format>image/svg+xml</dc:format>
        <dc:type
           rdf:resource="http://purl.org/dc/dcmitype/StillImage" />
        <cc:license
           rdf:resource="http://creativecommons.org/licenses/publicdomain/" />
        <dc:publisher>
          <cc:Agent
             rdf:about="http://openclipart.org/">
            <dc:title>Open Clip Art Library</dc:title>
          </cc:Agent>
        </dc:publisher>
        <dc:title></dc:title>
        <dc:date>2008-05-26T11:32:36</dc:date>
        <dc:description />
        <dc:source>http://openclipart.org/detail/16963/arrow_go_left-by-jean_victor_balin</dc:source>
        <dc:creator>
          <cc:Agent>
            <dc:title>jean_victor_balin</dc:title>
          </cc:Agent>
        </dc:creator>
        <dc:subject>
          <rdf:Bag>
            <rdf:li>arrow</rdf:li>
            <rdf:li>arrow</rdf:li>
            <rdf:li>clip art</rdf:li>
            <rdf:li>clipart</rdf:li>
            <rdf:li>icon</rdf:li>
            <rdf:li>icon</rdf:li>
            <rdf:li>image</rdf:li>
            <rdf:li>media</rdf:li>
            <rdf:li>png</rdf:li>
            <rdf:li>public domain</rdf:li>
            <rdf:li>svg</rdf:li>
          </rdf:Bag>
        </dc:subject>
      </cc:Work>
      <cc:License
         rdf:about="http://creativecommons.org/licenses/publicdomain/">
        <cc:permits
           rdf:resource="http://creativecommons.org/ns#Reproduction" />
        <cc:permits
           rdf:resource="http://creativecommons.org/ns#Distribution" />
        <cc:permits
           rdf:resource="http://creativecommons.org/ns#DerivativeWorks" />
      </cc:License>
    </rdf:RDF>
  </metadata>
</svg>
