<?xml version="1.0" encoding="utf-8"?>
<!-- Generator: Adobe Illustrator 19.0.0, SVG Export Plug-In . SVG Version: 6.00 Build 0)  -->
<!DOCTYPE svg PUBLIC "-//W3C//DTD SVG 1.1//EN" "http://www.w3.org/Graphics/SVG/1.1/DTD/svg11.dtd">
<svg version="1.1" id="Ebene_1" xmlns="http://www.w3.org/2000/svg" xmlns:xlink="http://www.w3.org/1999/xlink" x="0px" y="0px"
	 viewBox="0 0 16 16" style="enable-background:new 0 0 16 16;" xml:space="preserve">
<g id="XMLID_13_">
	<path id="XMLID_14_" d="M8.7,13.5H7.2c0,0-0.1-1.7,0.2-2s2.1-1.6,2.1-2.4S9,8,8.1,8C7.2,8,6.4,8.8,6.4,9.3L4.9,9.1
		C5.1,7.7,6.3,6.6,8,6.6s3.1,0.9,3.1,2.4s-2,2.9-2.3,3.2S8.7,13.5,8.7,13.5z M7.2,16v-1.7h1.6V16H7.2L7.2,16z"/>
</g>
<g id="XMLID_11_">
	<polygon id="XMLID_12_" points="12.8,2.3 8.9,0 8.9,1.7 3.2,1.7 3.2,2.8 8.9,2.8 8.9,4.5 	"/>
</g>
</svg>
