<?xml version="1.0" encoding="UTF-8" standalone="no"?>
<!-- Generator: Adobe Illustrator 21.0.0, SVG Export Plug-In . SVG Version: 6.00 Build 0)  -->

<svg
   xmlns:dc="http://purl.org/dc/elements/1.1/"
   xmlns:cc="http://creativecommons.org/ns#"
   xmlns:rdf="http://www.w3.org/1999/02/22-rdf-syntax-ns#"
   xmlns:svg="http://www.w3.org/2000/svg"
   xmlns="http://www.w3.org/2000/svg"
   xmlns:sodipodi="http://sodipodi.sourceforge.net/DTD/sodipodi-0.dtd"
   xmlns:inkscape="http://www.inkscape.org/namespaces/inkscape"
   version="1.0"
   id="Ebene_1"
   x="0px"
   y="0px"
   viewBox="0 0 16 16"
   style="enable-background:new 0 0 16 16;"
   xml:space="preserve"
   inkscape:version="0.91 r13725"
   sodipodi:docname="stringtoduration-icon.svg"><metadata
     id="metadata31"><rdf:RDF><cc:Work
         rdf:about=""><dc:format>image/svg+xml</dc:format><dc:type
           rdf:resource="http://purl.org/dc/dcmitype/StillImage" /></cc:Work></rdf:RDF></metadata><defs
     id="defs29" /><sodipodi:namedview
     pagecolor="#ffffff"
     bordercolor="#666666"
     borderopacity="1"
     objecttolerance="10"
     gridtolerance="10"
     guidetolerance="10"
     inkscape:pageopacity="0"
     inkscape:pageshadow="2"
     inkscape:window-width="2259"
     inkscape:window-height="1328"
     id="namedview27"
     showgrid="false"
     inkscape:zoom="41.7193"
     inkscape:cx="10.652452"
     inkscape:cy="7.22972"
     inkscape:window-x="0"
     inkscape:window-y="27"
     inkscape:window-maximized="0"
     inkscape:current-layer="Ebene_1" /><style
     type="text/css"
     id="style3">
	.st0{fill:#222221;}
	.st1{fill:#FFFFFF;}
	.st2{fill:#9B9A9A;}
	.st3{fill:none;stroke:#222221;stroke-linecap:round;stroke-linejoin:round;stroke-miterlimit:10;}
</style><g
     id="g5"
     transform="matrix(0.65998386,0,0,0.65998386,6.1813743,5.8025912)"><path
       class="st0"
       d="m 9.1,3.6 -2,0 c -0.6,0 -1,-0.4 -1,-1 l 0,-1 c 0,-0.6 0.4,-1 1,-1 l 2,0 c 0.6,0 1,0.4 1,1 l 0,0.9 c 0,0.6 -0.5,1.1 -1,1.1 z"
       id="path7"
       inkscape:connector-curvature="0"
       style="fill:#222221" /><path
       class="st0"
       d="M 12.4,5.9 11.7,5.2 c -0.4,-0.4 -0.4,-1 0,-1.4 l 0.7,-0.7 c 0.4,-0.4 1,-0.4 1.4,0 l 0.7,0.7 c 0.4,0.4 0.4,1 0,1.4 l -0.7,0.7 c -0.4,0.4 -1,0.4 -1.4,0 z"
       id="path9"
       inkscape:connector-curvature="0"
       style="fill:#222221" /><g
       id="g11"><g
         id="g13"><circle
           class="st1"
           cx="8"
           cy="8.6000004"
           r="6.3000002"
           id="circle15"
           style="fill:#ffffff" /></g></g><g
       id="g17"><path
         class="st2"
         d="M 14.1,9 8,9 8,2.5 c 3.6,0 6.3,3 6.1,6.5 z"
         id="path19"
         inkscape:connector-curvature="0"
         style="fill:#9b9a9a" /></g><line
       class="st3"
       x1="8"
       y1="9"
       x2="8"
       y2="4.5999999"
       id="line21"
       style="fill:none;stroke:#222221;stroke-linecap:round;stroke-linejoin:round;stroke-miterlimit:10" /><line
       class="st3"
       x1="8"
       y1="9"
       x2="11.5"
       y2="9"
       id="line23"
       style="fill:none;stroke:#222221;stroke-linecap:round;stroke-linejoin:round;stroke-miterlimit:10" /><path
       class="st0"
       d="M 8,15.4 C 4.2,15.4 1.2,12.3 1.2,8.6 1.2,4.8 4.3,1.8 8,1.8 c 3.8,0 6.8,3.1 6.8,6.8 0,3.7 -3.1,6.8 -6.8,6.8 z M 8,2.7 c -3.2,0 -5.9,2.6 -5.9,5.9 0,3.2 2.6,5.9 5.9,5.9 3.3,0 5.9,-2.6 5.9,-5.9 C 13.8,5.3 11.2,2.7 8,2.7 Z"
       id="path25"
       inkscape:connector-curvature="0"
       style="fill:#222221" /></g><polygon
     transform="translate(0.07344351,-0.66484284)"
     id="XMLID_19_"
     points="8.7,3.6 10.4,6.4 12,3.6 10.7,3.6 10.7,1.2 10.7,1.2 10.7,1.2 5.4,1.2 5.4,1.9 10,1.9 10,3.6 " /><g
     transform="translate(0.02924931,0.10855516)"
     id="XMLID_140_"><path
       inkscape:connector-curvature="0"
       id="XMLID_141_"
       d="M 0,4 C 0.2,4 1.1,3.9 1.1,3.9 1.1,3.9 1.3,4.4 1.4,4.6 1.6,4.9 2,5 2.4,5 2.9,5 3.7,4.7 3.5,4 3.3,3.5 2.3,3.4 1.9,3.3 1.2,3.1 0.5,2.8 0.3,2.1 0,1.5 0.3,0.7 1,0.3 2.3,-0.5 4.5,0 4.5,1.7 4.3,1.7 3.4,1.7 3.4,1.7 3.4,1.7 3.2,1.3 3,1.2 2.8,1 2.5,1 2.3,1 1.7,1 0.9,1.4 1.6,2 2.1,2.4 3,2.3 3.5,2.6 5,3.2 5,5.2 3.5,5.8 2,6.4 0.2,5.7 0,4 Z" /></g></svg>