<?xml version="1.0" encoding="utf-8"?>
<!-- Generator: Adobe Illustrator 19.1.0, SVG Export Plug-In . SVG Version: 6.00 Build 0)  -->
<!DOCTYPE svg PUBLIC "-//W3C//DTD SVG 1.1//EN" "http://www.w3.org/Graphics/SVG/1.1/DTD/svg11.dtd">
<svg version="1.1" id="Ebene_1" xmlns="http://www.w3.org/2000/svg" xmlns:xlink="http://www.w3.org/1999/xlink" x="0px" y="0px"
	 viewBox="-412 290.3 16 16" style="enable-background:new -412 290.3 16 16;" xml:space="preserve">
<style type="text/css">
	.st0{fill:#FFFFFF;}
	.st1{fill:#4EAF75;}
</style>
<g>
	<rect x="-407" y="290.8" class="st0" width="6" height="15"/>
	<path d="M-400.5,306.3h-7v-16h7V306.3z M-406.5,305.3h5v-14h-5V305.3z"/>
</g>
<g id="XMLID_1_">
	<path id="XMLID_3_" class="st1" d="M-397.9,301.5c-2,3.1-7.3,4.5-10.2,1.9l1.3-0.9l-4.6-2.2l0.6,5l1.5-1c3.5,3.5,10.2,2,12.7-2
		L-397.9,301.5z"/>
	<path id="XMLID_2_" class="st1" d="M-406.4,292.2c2.2-0.7,4.4-0.4,5.9,0.6l-1.2,0.9l4.7,2l-0.8-5l-1.5,1.1
		c-3.4-2.7-8.9-1.6-11.6,1.5l1.1,1C-409,293.3-407.8,292.6-406.4,292.2C-404.2,291.5-407.8,292.6-406.4,292.2z"/>
</g>
</svg>
