<?xml version="1.0" encoding="utf-8"?>
<!-- Generator: Adobe Illustrator 22.0.1, SVG Export Plug-In . SVG Version: 6.00 Build 0)  -->
<svg version="1.1" xmlns="http://www.w3.org/2000/svg" xmlns:xlink="http://www.w3.org/1999/xlink" x="0px" y="0px"
	 viewBox="0 0 16 16" style="enable-background:new 0 0 16 16;" xml:space="preserve">
<style type="text/css">
	.st0{display:none;}
	.st1{display:inline;fill:#4BA1BF;}
	.st2{display:none;fill:none;}
	.st3{fill:#FFFFFF;}
	.st4{display:inline;}
	.st5{display:inline;fill:#3322E5;}
	.st6{display:inline;fill:#1AFF98;}
	.st7{display:inline;fill:#E57717;}
	.st8{display:inline;fill:#FF26A1;}
	.st9{display:inline;fill:#FFFF00;}
</style>
<g id="experimental" class="st0">
	<rect x="-44" y="-61" class="st1" width="118" height="84"/>
</g>
<g id="production">
	<g id="colormanager">
		<rect id="dont_crop_2_" class="st2" width="16" height="16"/>
		<g id="drop_2_">
			<g id="drop">
				<path class="st3" d="M8,15.5c-3.4,0-5.6-2.2-5.6-5.6c0,0,0.1-3.6,5.6-9.2c5.5,5.6,5.6,9.2,5.6,9.2C13.6,13.3,11.4,15.5,8,15.5z"
					/>
				<path d="M8,1.4c4.9,5.2,5.1,8.5,5.1,8.5c0,3.1-1.9,5.1-5.1,5.1s-5.1-1.9-5.1-5.1C2.9,9.9,3.1,6.6,8,1.4 M8,0
					C1.9,6.1,1.9,9.9,1.9,9.9C1.9,13.6,4.3,16,8,16s6.1-2.4,6.1-6.1C14.1,9.9,14.1,6.1,8,0L8,0z"/>
			</g>
			<g id="half">
				<path d="M8,0c6.1,6.1,6.1,9.9,6.1,9.9c0,3.7-2.4,6.1-6.1,6.1V0z"/>
			</g>
		</g>
		<g id="triad" class="st0">
			<g class="st4">
				<path d="M5,2c2.2,0,4,1.8,4,4s-1.8,4-4,4S1,8.2,1,6S2.8,2,5,2 M5,1C2.2,1,0,3.2,0,6s2.2,5,5,5s5-2.2,5-5S7.8,1,5,1L5,1z"/>
			</g>
			<g class="st4">
				<path d="M11,2c2.2,0,4,1.8,4,4s-1.8,4-4,4S7,8.2,7,6S8.8,2,11,2 M11,1C8.2,1,6,3.2,6,6s2.2,5,5,5s5-2.2,5-5S13.8,1,11,1L11,1z"
					/>
			</g>
			<g class="st4">
				<path d="M8,7c2.2,0,4,1.8,4,4s-1.8,4-4,4s-4-1.8-4-4S5.8,7,8,7 M8,6c-2.8,0-5,2.2-5,5s2.2,5,5,5s5-2.2,5-5S10.8,6,8,6L8,6z"/>
			</g>
		</g>
		<g id="blocks" class="st0">
			<rect class="st5" width="8" height="8"/>
			<rect x="8" class="st6" width="8" height="8"/>
			<rect y="8" class="st7" width="8" height="8"/>
			<rect x="8" y="8" class="st8" width="8" height="8"/>
			<rect x="4" y="4" class="st9" width="8" height="8"/>
		</g>
	</g>
</g>
</svg>
