<?xml version="1.0" encoding="UTF-8" standalone="no"?>
<!-- Created with Inkscape (http://www.inkscape.org/) -->
<svg:svg
   xmlns:dc="http://purl.org/dc/elements/1.1/"
   xmlns:cc="http://web.resource.org/cc/"
   xmlns:rdf="http://www.w3.org/1999/02/22-rdf-syntax-ns#"
   xmlns:svg="http://www.w3.org/2000/svg"
   xmlns:sodipodi="http://sodipodi.sourceforge.net/DTD/sodipodi-0.dtd"
   xmlns:inkscape="http://www.inkscape.org/namespaces/inkscape"
   height="295"
   id="svg2"
   inkscape:export-xdpi="90"
   inkscape:export-ydpi="90"
   inkscape:output_extension="org.inkscape.output.svg.inkscape"
   inkscape:version="0.45.1"
   sodipodi:docbase="/var/tmp/kdecache-thor/krun"
   sodipodi:docname="20211.0.splash.svg"
   sodipodi:version="0.32"
   version="1.0"
   width="455"
   inkscape:export-filename="/var/tmp/kdecache-thor/krun/splash.png">
  <svg:defs
     id="defs4">
    <font
       horiz-adv-x="990">
      <font-face
         alphabetic="0"
         ascent="1938"
         descent="-432"
         font-family="Arial Rounded MT Bold"
         panose-1="2 15 7 4 3 5 4 3 2 4"
         units-per-em="2048" />
      <missing-glyph
         d="M82 1365H942V0H82V1365ZM123 1324V41H901V1324H123Z"
         horiz-adv-x="1024" />
      <glyph
         glyph-name="space"
         horiz-adv-x="512"
         unicode=" " />
      <glyph
         d="M231 635L199 1114Q190 1254 190 1315Q190 1398 233 1444T348 1491Q434 1491 463 1432T492 1260Q492 1194 485 1126L442 633Q435 545 412 498T336 451Q282 451 261 496T231 635ZM342 -23Q281 -23 236 16T190 127Q190 189 233 232T340 276Q403 276 447 233T492 127Q492 57 447 17T342 -23Z"
         glyph-name="exclam"
         horiz-adv-x="682"
         unicode="!" />
      <glyph
         d="M373 944H166L113 1219V1466H420V1219L373 944ZM823 944H616L563 1219V1466H870V1219L823 944Z"
         glyph-name="quotedbl"
         horiz-adv-x="981"
         unicode="&quot;" />
      <glyph
         d="M117 178L154 365Q16 368 16 475Q16 525 50 556T152 588H199L256 879H152Q87 879 52 911T16 991Q16 1041 50 1071T152 1102H301L348 1331Q359 1389 372 1422T409 1472T471 1489Q524 1489 552 1461T580 1389Q580 1379 563 1288L526 1102H745L793 1331Q803 1383 812 1415T844 1469T913 1491Q965 1491 993 1464T1022 1391Q1022 1370 1020 1350T1013 1312T1008 1288L971 1100Q1114 1097 1114 989Q1114 939 1080 909T979 879H928L868 588H979Q1046 588 1080 556T1114 475Q1114 426 1081 396T979 365H825L778 135Q767 80 759 50T726 -2T657 -25Q607 -25 578 3T549 76Q549 117 563 178L600 365H379L332 135Q314 50 295 13T211 -25Q160 -25 131 3T102 76Q102 99 107 127T117 178ZM702 879H481L422 588H645L702 879Z"
         glyph-name="numbersign"
         horiz-adv-x="1130"
         unicode="#" />
      <glyph
         d="M670 1593V1485Q777 1474 853 1441T987 1341Q1032 1290 1056 1236T1081 1137Q1081 1087 1045 1051T956 1014Q858 1014 829 1120Q796 1245 670 1286V870Q794 836 867 808T999 727Q1061 672 1094 596T1128 428Q1128 314 1075 215T917 52T670 -23V-272Q670 -331 659 -358T608 -385Q572 -385 558 -363T543 -295V-25Q426 -12 339 30T193 134T106 264T78 397Q78 445 115 483T209 522Q254 522 285 501T328 442Q355 360 375 317T435 237T543 182V647Q409 684 319 729T173 859T117 1075Q117 1247 226 1357T543 1485V1591Q543 1675 606 1675Q670 1675 670 1593ZM543 907V1290Q459 1265 412 1224T365 1100Q365 1021 409 981T543 907ZM670 610V172Q771 192 826 253T881 395Q881 482 828 529T670 610Z"
         glyph-name="dollar"
         horiz-adv-x="1217"
         unicode="$" />
      <glyph
         d="M676 1090Q676 899 592 806T362 713Q272 713 201 752T89 876T49 1081Q49 1211 80 1298T180 1430T358 1475Q436 1475 495 1451T595 1378T656 1257T676 1090ZM489 1100Q489 1231 461 1290T362 1350Q314 1350 286 1322T247 1238T236 1096Q236 1007 246 951T285 867T362 838Q436 838 462 901T489 1100ZM1700 367Q1700 176 1616 83T1386 -10Q1295 -10 1224 30T1112 153T1071 358Q1071 553 1145 651T1382 750Q1460 750 1518 726T1618 654T1680 535T1700 367ZM1513 377Q1513 506 1485 565T1386 625Q1336 625 1308 597T1269 515T1257 373Q1257 239 1285 177T1386 115Q1459 115 1486 178T1513 377ZM1343 1343L510 0Q478 -55 438 -55Q415 -55 392 -38T369 8Q369 29 389 59L1227 1413Q1249 1450 1265 1468T1313 1487Q1343 1487 1361 1470T1380 1423Q1380 1402 1343 1343Z"
         glyph-name="percent"
         horiz-adv-x="1749"
         unicode="%" />
      <glyph
         d="M317 1155Q317 1248 365 1324T508 1446T729 1491Q855 1491 947 1444T1084 1321T1130 1163Q1130 1051 1056 968T838 799Q888 740 931 688T1014 591T1087 514Q1102 542 1133 619T1192 730T1270 764Q1317 764 1353 731T1389 649Q1389 605 1358 525T1268 346Q1305 314 1385 249T1484 161T1503 98Q1503 46 1466 11T1382 -25Q1335 -25 1291 5T1104 152Q1039 91 970 52T821 -6T643 -25Q518 -25 419 11T253 110T155 247T123 401Q123 476 147 538T214 651T321 747T469 836Q394 930 356 1003T317 1155ZM600 676Q498 617 448 558T397 418Q397 372 415 330T469 252T552 197T651 178Q702 178 750 194T841 239T930 313Q841 395 770 475T600 676ZM702 950Q804 1015 849 1059T895 1167Q895 1229 850 1271T735 1313Q666 1313 620 1270T573 1169Q573 1139 590 1105T634 1036T702 950Z"
         glyph-name="ampersand"
         horiz-adv-x="1556"
         unicode="&amp;" />
      <glyph
         d="M352 944H145L92 1219V1466H399V1219L352 944Z"
         glyph-name="quotesingle"
         horiz-adv-x="492"
         unicode="'" />
      <glyph
         d="M129 530Q129 681 155 812T234 1071T365 1327Q412 1405 444 1439T504 1482T578 1491Q627 1491 627 1464Q627 1455 581 1356T495 1147T420 875T385 530Q385 350 419 189T496 -90T583 -301T627 -403Q627 -430 578 -430Q532 -430 504 -421T444 -376T365 -264Q286 -132 235 -10T156 245T129 530Z"
         glyph-name="parenleft"
         horiz-adv-x="725"
         unicode="(" />
      <glyph
         d="M598 530Q598 310 540 121T362 -264Q295 -374 256 -402T150 -430Q100 -430 100 -403Q100 -394 142 -307T229 -98T308 186T342 530Q342 711 308 875T229 1159T142 1367T100 1464Q100 1491 150 1491Q220 1491 258 1465T362 1327Q421 1229 465 1134T538 944T583 746T598 530Z"
         glyph-name="parenright"
         horiz-adv-x="725"
         unicode=")" />
      <glyph
         d="M504 1221Q569 1251 628 1281T722 1325T778 1339Q813 1339 838 1316T864 1257Q864 1237 852 1216T825 1188Q696 1137 541 1114Q569 1088 610 1045T653 999Q668 978 695 947T732 899T743 856Q743 824 719 800T657 776Q619 776 572 835T449 1047Q373 909 347 865T297 799T242 776Q205 776 181 801T156 856Q156 883 166 897Q258 1022 358 1114Q274 1127 208 1143T68 1190Q56 1196 45 1217T33 1257Q33 1292 58 1315T117 1339Q141 1339 177 1325T268 1283T395 1221Q382 1284 374 1365T365 1477Q365 1514 388 1540T449 1567Q485 1567 508 1541T532 1470Q532 1458 529 1423T519 1337T504 1221Z"
         glyph-name="asterisk"
         horiz-adv-x="897"
         unicode="*" />
      <glyph
         d="M725 211H467V592H84V854H467V1237H725V854H1110V592H725V211Z"
         glyph-name="plus"
         horiz-adv-x="1194"
         unicode="+" />
      <glyph
         d="M326 -27Q260 -27 212 13T164 127Q164 190 211 233T322 276Q370 276 409 250T470 174T492 49Q492 -50 450 -136T348 -273T238 -324Q207 -324 188 -304T168 -256Q168 -215 209 -190Q326 -125 326 -27Z"
         glyph-name="comma"
         horiz-adv-x="641"
         unicode="," />
      <glyph
         d="M500 412H184Q112 412 75 445T37 532Q37 586 73 619T184 653H500Q574 653 610 620T647 532Q647 479 611 446T500 412Z"
         glyph-name="hyphen"
         horiz-adv-x="682"
         unicode="-" />
      <glyph
         d="M322 -25Q260 -25 215 15T170 127Q170 188 213 232T319 276Q382 276 426 233T471 127Q471 56 427 16T322 -25Z"
         glyph-name="period"
         horiz-adv-x="641"
         unicode="." />
      <glyph
         d="M528 1288L248 135Q234 78 224 45T192 -6T129 -25Q27 -25 27 63Q27 86 47 178L326 1331Q348 1423 368 1457T446 1491Q496 1491 522 1467T549 1401Q549 1370 528 1288Z"
         glyph-name="slash"
         horiz-adv-x="575"
         unicode="/" />
      <glyph
         d="M1120 719Q1120 555 1100 437T1026 223Q958 105 850 41T610 -23Q458 -23 338 63T156 301Q125 384 111 484T96 702Q96 853 112 974T162 1182Q221 1326 333 1401T602 1477Q705 1477 789 1444T936 1346T1044 1186Q1120 1021 1120 719ZM846 739Q846 922 824 1038T750 1214T606 1274Q474 1274 423 1141T371 731Q371 543 393 423T467 242T608 180Q700 180 752 244T825 427T846 739Z"
         glyph-name="zero"
         horiz-adv-x="1217"
         unicode="0" />
      <glyph
         d="M578 137V1047Q324 852 236 852Q194 852 162 885T129 963Q129 1014 161 1038T274 1100Q395 1157 467 1220T596 1361T669 1457T733 1475Q786 1475 818 1434T850 1321V176Q850 -25 713 -25Q652 -25 615 16T578 137Z"
         glyph-name="one"
         horiz-adv-x="1217"
         unicode="1" />
      <glyph
         d="M457 236H979Q1057 236 1098 204T1139 117Q1139 68 1107 34T1008 0H272Q197 0 155 41T113 139Q113 175 140 234T199 328Q332 466 439 564T592 694Q674 752 728 810T811 930T840 1051Q840 1115 810 1165T727 1244T612 1272Q481 1272 406 1157Q396 1142 373 1075T320 972T233 936Q183 936 150 969T117 1059Q117 1128 148 1203T240 1339T396 1437T618 1475Q771 1475 879 1427Q949 1395 1002 1339T1084 1210T1114 1057Q1114 933 1053 832T927 673T713 492T506 301Q482 274 457 236Z"
         glyph-name="two"
         horiz-adv-x="1217"
         unicode="2" />
      <glyph
         d="M561 885Q653 885 719 939T786 1094Q786 1171 733 1226T590 1282Q529 1282 490 1265T427 1220T384 1148T346 1065Q336 1044 310 1032T250 1020Q210 1020 177 1052T143 1139Q143 1191 174 1248T266 1358T417 1441T618 1473Q715 1473 795 1447T934 1370T1023 1254T1053 1112Q1053 1012 1010 941T885 801Q963 759 1016 705T1097 586T1124 444Q1124 353 1088 268T980 117T812 13T596 -25Q476 -25 381 18T225 125T132 259T100 373Q100 431 137 466T231 502Q259 502 285 486T319 446Q371 307 430 240T598 172Q660 172 717 202T812 293T850 432Q850 549 786 615T608 682Q588 682 546 678T492 674Q437 674 407 701T377 778Q377 826 413 855T520 885H561Z"
         glyph-name="three"
         horiz-adv-x="1217"
         unicode="3" />
      <glyph
         d="M717 127V313H215Q120 313 73 356T25 473Q25 492 32 511T53 552T82 594T119 643L649 1352Q701 1422 734 1453T815 1485Q967 1485 967 1311V537H1010Q1087 537 1133 516T1180 424Q1180 366 1142 340T1028 313H967V127Q967 50 933 13T842 -25Q786 -25 752 13T717 127ZM287 537H717V1118L287 537Z"
         glyph-name="four"
         horiz-adv-x="1217"
         unicode="4" />
      <glyph
         d="M948 1219H473L416 895Q558 971 678 971Q774 971 857 935T1004 836T1103 685T1139 498Q1139 353 1074 234T887 45T604 -25Q425 -25 314 41T156 192T109 342Q109 381 141 416T223 451Q307 451 348 354Q388 265 456 216T608 166Q685 166 743 206T832 316T864 475Q864 571 830 639T739 740T612 774Q526 774 489 753T383 680T268 627Q219 627 181 662T143 743Q143 748 154 811L238 1290Q252 1376 290 1415T414 1454H942Q1098 1454 1098 1335Q1098 1283 1060 1251T948 1219Z"
         glyph-name="five"
         horiz-adv-x="1217"
         unicode="5" />
      <glyph
         d="M371 793Q439 874 519 913T698 952Q793 952 873 917T1014 816T1108 661T1141 475Q1141 334 1077 219T897 40T635 -25Q467 -25 345 57T159 299T94 692Q94 881 133 1030T245 1277T422 1425T659 1475Q787 1475 884 1425T1031 1301T1081 1159Q1081 1118 1050 1085T971 1051Q929 1051 893 1077T840 1151Q817 1211 767 1247T651 1284Q598 1284 546 1254T457 1171Q384 1065 371 793ZM641 172Q742 172 808 254T874 471Q874 562 843 627T758 727T639 762Q577 762 521 729T430 634T395 487Q395 352 465 262T641 172Z"
         glyph-name="six"
         horiz-adv-x="1217"
         unicode="6" />
      <glyph
         d="M319 1452H985Q1081 1452 1124 1422T1167 1323Q1167 1281 1117 1212T1002 1060T869 852T743 549Q719 470 709 418T687 283T666 156Q645 54 607 15T504 -25Q443 -25 406 17T369 143Q369 207 396 317T484 580T636 895T854 1217H319Q235 1217 194 1247T152 1343Q152 1412 196 1432T319 1452Z"
         glyph-name="seven"
         horiz-adv-x="1217"
         unicode="7" />
      <glyph
         d="M137 1094Q137 1194 191 1282T351 1424T598 1477Q717 1477 807 1446T957 1361T1046 1238T1075 1092Q1075 994 1025 917T874 791Q959 758 1015 705T1099 581T1128 424Q1128 298 1067 196T888 35T610 -23Q444 -23 326 35T148 194T88 422Q88 691 342 791Q137 887 137 1094ZM854 432Q854 510 822 568T732 657T602 688Q500 688 431 620T362 430Q362 352 394 293T483 201T608 168Q678 168 734 201T822 294T854 432ZM604 1286Q510 1286 453 1228T395 1077Q395 992 454 936T606 879Q653 879 691 894T757 935T800 998T815 1079Q815 1138 789 1185T714 1259T604 1286Z"
         glyph-name="eight"
         horiz-adv-x="1217"
         unicode="8" />
      <glyph
         d="M834 657Q768 579 687 540T506 500Q412 500 331 536T190 638T98 791T66 975Q66 1078 102 1170T205 1331T364 1437T569 1475Q698 1475 799 1428T969 1292T1075 1066T1112 758Q1112 566 1073 420T960 174T781 26T545 -23Q415 -23 319 26T173 149T123 291Q123 333 154 366T233 399Q277 399 312 375T365 301Q387 241 438 205T553 168Q610 168 661 197T748 279Q820 386 834 657ZM811 963Q811 1031 793 1088T741 1188T661 1254T559 1278Q464 1278 398 1197T332 981Q332 848 398 769T565 690Q627 690 683 722T775 817T811 963Z"
         glyph-name="nine"
         horiz-adv-x="1217"
         unicode="9" />
      <glyph
         d="M322 -25Q260 -25 215 15T170 127Q170 188 213 232T319 276Q382 276 426 233T471 127Q471 56 427 16T322 -25ZM170 936Q170 1007 214 1046T322 1085Q383 1085 427 1046T471 936Q471 880 423 833T319 786Q258 786 214 831T170 936Z"
         glyph-name="colon"
         horiz-adv-x="641"
         unicode=":" />
      <glyph
         d="M307 -27Q241 -27 193 13T145 127Q145 190 192 233T303 276Q351 276 390 250T451 174T473 49Q473 -50 431 -136T329 -273T219 -324Q188 -324 169 -304T150 -256Q150 -215 190 -190Q307 -126 307 -27ZM170 936Q170 1007 214 1046T322 1085Q383 1085 427 1046T471 936Q471 879 425 833T322 786Q280 786 246 806T191 859T170 936Z"
         glyph-name="semicolon"
         horiz-adv-x="641"
         unicode=";" />
      <glyph
         d="M1100 451V168L94 604V846L1100 1282V997L399 727L1100 451Z"
         glyph-name="less"
         horiz-adv-x="1194"
         unicode="&lt;" />
      <glyph
         d="M1110 371H84V633H1110V371ZM1110 815H84V1077H1110V815Z"
         glyph-name="equal"
         horiz-adv-x="1194"
         unicode="=" />
      <glyph
         d="M1100 604L94 166V449L797 725L94 997V1278L1100 844V604Z"
         glyph-name="greater"
         horiz-adv-x="1194"
         unicode="&gt;" />
      <glyph
         d="M90 1073Q90 1168 151 1265T329 1427T602 1491Q747 1491 858 1438T1029 1292T1090 1092Q1090 1007 1056 943T974 833T803 676Q769 645 749 622T718 579T703 540T686 471Q667 367 567 367Q515 367 480 401T444 502Q444 586 470 647T539 755T655 866Q719 922 747 950T795 1014T815 1090Q815 1170 756 1225T602 1280Q492 1280 440 1225T352 1061Q318 948 223 948Q167 948 129 987T90 1073ZM578 -23Q517 -23 472 16T426 127Q426 190 470 233T578 276Q641 276 684 233T727 127Q727 57 682 17T578 -23Z"
         glyph-name="question"
         horiz-adv-x="1174"
         unicode="?" />
      <glyph
         d="M1243 948L1268 1059H1532L1380 342Q1366 274 1366 252Q1366 229 1377 216T1405 203Q1459 203 1544 273T1693 465T1757 731Q1757 851 1712 957T1580 1141T1368 1263T1081 1307Q918 1307 782 1265T543 1143T371 946Q310 844 278 720T246 467Q246 295 314 153T513 -86T829 -223T1247 -240Q1432 -218 1560 -156T1778 18H1991Q1939 -89 1856 -173T1660 -314T1409 -402T1106 -432Q860 -432 663 -368T332 -182T128 108T59 481Q59 694 130 879T334 1200T660 1414T1085 1491Q1275 1491 1433 1436T1705 1276T1877 1030T1937 715Q1937 581 1889 453T1752 222T1541 60T1280 0Q1199 0 1154 27T1094 115Q1007 29 894 7T675 27T504 174T438 428Q438 585 505 737T697 986T979 1083Q1159 1083 1243 948ZM696 430Q696 310 746 246T877 182Q971 182 1042 257T1151 446T1188 668Q1188 721 1176 763T1139 838T1080 886T1001 903Q913 903 843 835T734 657T696 430Z"
         glyph-name="at"
         horiz-adv-x="2005"
         unicode="@" />
      <glyph
         d="M1098 166L1028 350H432L362 162Q321 52 292 14T197 -25Q141 -25 98 16T55 109Q55 139 65 171T98 260L473 1212Q489 1253 511 1310T559 1406T626 1467T729 1491Q791 1491 832 1468T899 1407T942 1328T987 1214L1370 268Q1415 160 1415 111Q1415 60 1373 18T1270 -25Q1235 -25 1210 -13T1168 21T1132 87T1098 166ZM510 573H948L727 1178L510 573Z"
         glyph-name="A"
         horiz-adv-x="1473"
         unicode="A" />
      <glyph
         d="M786 0H338Q241 0 200 43T158 182V1284Q158 1381 200 1423T338 1466H813Q918 1466 995 1453T1133 1403Q1185 1372 1225 1325T1286 1220T1307 1098Q1307 878 1087 776Q1376 684 1376 418Q1376 295 1313 197T1143 51Q1076 23 989 12T786 0ZM764 651H455V223H774Q1075 223 1075 440Q1075 551 997 601T764 651ZM455 1243V864H727Q838 864 898 885T991 965Q1016 1007 1016 1059Q1016 1170 937 1206T696 1243H455Z"
         glyph-name="B"
         horiz-adv-x="1473"
         unicode="B" />
      <glyph
         d="M1409 463Q1409 393 1375 312T1266 152T1077 24T809 -25Q693 -25 598 -3T426 65T283 188Q225 257 184 342T123 525T102 731Q102 908 153 1048T301 1287T526 1439T801 1491Q979 1491 1118 1420T1331 1245T1405 1047Q1405 996 1369 957T1282 918Q1225 918 1197 945T1133 1038Q1075 1147 997 1201T803 1255Q620 1255 512 1116T403 721Q403 550 451 437T587 267T793 211Q921 211 1009 274T1143 461Q1162 519 1190 555T1280 592Q1333 592 1371 555T1409 463Z"
         glyph-name="C"
         horiz-adv-x="1516"
         unicode="C" />
      <glyph
         d="M344 1466H731Q882 1466 990 1438T1186 1333Q1415 1137 1415 737Q1415 605 1392 496T1321 300T1198 143Q1139 90 1069 58T919 13T737 0H350Q269 0 228 24T175 93T162 209V1284Q162 1380 205 1423T344 1466ZM459 1231V236H684Q758 236 800 240T887 260T965 305Q1114 431 1114 739Q1114 956 1049 1064T887 1201T655 1231H459Z"
         glyph-name="D"
         horiz-adv-x="1516"
         unicode="D" />
      <glyph
         d="M1126 1237H457V877H1073Q1141 877 1174 847T1208 766Q1208 716 1175 685T1073 653H457V236H1149Q1219 236 1254 204T1290 117Q1290 65 1255 33T1149 0H342Q245 0 203 43T160 182V1284Q160 1348 179 1388T238 1447T342 1466H1126Q1197 1466 1231 1435T1266 1352Q1266 1300 1232 1269T1126 1237Z"
         glyph-name="E"
         horiz-adv-x="1366"
         unicode="E" />
      <glyph
         d="M1036 1237H451V862H940Q1008 862 1041 832T1075 750Q1075 699 1041 669T940 639H451V156Q451 64 410 20T303 -25Q237 -25 196 20T154 156V1284Q154 1348 173 1388T232 1447T336 1466H1036Q1107 1466 1141 1435T1176 1352Q1176 1300 1142 1269T1036 1237Z"
         glyph-name="F"
         horiz-adv-x="1237"
         unicode="F" />
      <glyph
         d="M1499 596V315Q1499 259 1488 226T1448 165T1372 113Q1239 41 1116 8T848 -25Q679 -25 540 27T303 178T153 418T100 733Q100 904 151 1046T301 1287T542 1438T864 1491Q1012 1491 1126 1452T1311 1352T1418 1225T1454 1106Q1454 1050 1413 1011T1313 971Q1281 971 1252 986T1202 1028Q1147 1114 1109 1158T1007 1232T842 1262Q739 1262 658 1227T520 1124T432 958T401 741Q401 483 519 344T850 205Q953 205 1043 232T1227 309V547H997Q914 547 872 572T829 657Q829 706 864 738T961 770H1298Q1360 770 1403 759T1472 710T1499 596Z"
         glyph-name="G"
         horiz-adv-x="1622"
         unicode="G" />
      <glyph
         d="M459 1311V891H1100V1311Q1100 1401 1140 1446T1247 1491Q1314 1491 1355 1447T1397 1311V156Q1397 65 1355 20T1247 -25Q1180 -25 1140 20T1100 156V649H459V156Q459 65 417 20T309 -25Q242 -25 202 20T162 156V1311Q162 1401 201 1446T309 1491Q376 1491 417 1447T459 1311Z"
         glyph-name="H"
         horiz-adv-x="1556"
         unicode="H" />
      <glyph
         d="M172 156V1311Q172 1401 213 1446T319 1491Q386 1491 427 1447T469 1311V156Q469 65 428 20T319 -25Q255 -25 214 20T172 156Z"
         glyph-name="I"
         horiz-adv-x="641"
         unicode="I" />
      <glyph
         d="M1012 1311V543Q1012 443 1004 373T965 231Q915 110 800 43T520 -25Q371 -25 272 22T111 174Q79 230 59 303T39 442Q39 512 78 549T178 586Q237 586 267 552T313 446Q330 369 347 323T404 244T518 211Q715 211 715 500V1311Q715 1401 754 1446T862 1491Q931 1491 971 1446T1012 1311Z"
         glyph-name="J"
         horiz-adv-x="1174"
         unicode="J" />
      <glyph
         d="M459 1311V797L1042 1405Q1084 1449 1113 1470T1192 1491Q1256 1491 1295 1454T1335 1362Q1335 1297 1268 1233L907 891L1323 295Q1367 233 1389 187T1411 96Q1411 47 1373 11T1268 -25Q1206 -25 1167 1T1101 72T1053 152L702 692L459 459V156Q459 64 417 20T309 -25Q271 -25 236 -5T182 49Q168 77 165 114T162 221V1311Q162 1401 201 1446T309 1491Q376 1491 417 1447T459 1311Z"
         glyph-name="K"
         horiz-adv-x="1516"
         unicode="K" />
      <glyph
         d="M451 1311V244H1053Q1125 244 1163 209T1202 121Q1202 67 1164 34T1053 0H336Q239 0 197 43T154 182V1311Q154 1401 194 1446T301 1491Q368 1491 409 1447T451 1311Z"
         glyph-name="L"
         horiz-adv-x="1237"
         unicode="L" />
      <glyph
         d="M655 221L420 1155V143Q420 59 383 17T283 -25Q223 -25 185 16T147 143V1303Q147 1399 197 1432T332 1466H424Q507 1466 544 1451T600 1397T641 1270L854 467L1067 1270Q1090 1358 1108 1397T1163 1451T1284 1466H1376Q1461 1466 1511 1433T1561 1303V143Q1561 59 1524 17T1423 -25Q1364 -25 1326 17T1288 143V1155L1053 221Q1030 130 1016 88T962 10T854 -25Q802 -25 766 -3T710 55T679 132T655 221Z"
         glyph-name="M"
         horiz-adv-x="1706"
         unicode="M" />
      <glyph
         d="M547 1313L1118 449V1321Q1118 1406 1154 1448T1253 1491Q1317 1491 1354 1449T1391 1321V168Q1391 -25 1231 -25Q1191 -25 1159 -14T1099 23T1047 81T999 150L442 1004V145Q442 61 403 18T303 -25Q240 -25 202 18T164 145V1276Q164 1348 180 1389Q199 1434 243 1462T338 1491Q378 1491 406 1478T456 1443T500 1386T547 1313Z"
         glyph-name="N"
         horiz-adv-x="1556"
         unicode="N" />
      <glyph
         d="M805 1491Q1033 1491 1196 1399T1444 1136T1528 735Q1528 565 1482 426T1344 185T1118 29T811 -25Q639 -25 503 30T276 187T139 430T92 737Q92 906 140 1047T281 1287T505 1438T805 1491ZM1227 737Q1227 898 1175 1016T1027 1194T805 1255Q716 1255 641 1222T511 1124T425 961T393 737Q393 612 424 511T513 344T645 244T809 211Q923 211 1018 268T1170 444T1227 737Z"
         glyph-name="O"
         horiz-adv-x="1622"
         unicode="O" />
      <glyph
         d="M729 571H457V156Q457 67 415 21T309 -25Q242 -25 201 20T160 154V1284Q160 1382 205 1424T348 1466H729Q898 1466 989 1440Q1079 1415 1144 1357T1244 1215T1278 1026Q1278 802 1140 687T729 571ZM657 1243H457V795H657Q762 795 832 817T940 889T977 1020Q977 1117 920 1178Q856 1243 657 1243Z"
         glyph-name="P"
         horiz-adv-x="1366"
         unicode="P" />
      <glyph
         d="M1339 182Q1404 138 1481 97T1583 31T1608 -39Q1608 -71 1579 -103T1507 -135Q1473 -135 1425 -113T1311 -49T1167 49Q1022 -25 811 -25Q640 -25 505 29T277 186T139 430T92 737Q92 906 140 1047T281 1287T505 1438T805 1491Q1033 1491 1196 1399T1444 1136T1528 735Q1528 386 1339 182ZM1106 344Q1168 415 1197 512T1227 737Q1227 898 1175 1016T1027 1194T805 1255Q716 1255 641 1222T511 1124T425 961T393 737Q393 484 511 348T809 211Q883 211 961 242Q914 277 844 312T747 366T721 420Q721 450 746 473T801 496Q892 496 1106 344Z"
         glyph-name="Q"
         horiz-adv-x="1622"
         unicode="Q" />
      <glyph
         d="M559 627H455V156Q455 63 414 19T307 -25Q236 -25 197 21T158 156V1284Q158 1380 201 1423T340 1466H823Q923 1466 994 1458T1122 1423Q1191 1394 1244 1340T1324 1215T1352 1063Q1352 899 1260 801T979 662Q1058 620 1130 538T1258 364T1346 197T1378 94Q1378 65 1360 37T1309 -8T1235 -25Q1185 -25 1151 -2T1093 58T1026 164L907 362Q843 471 793 528T690 606T559 627ZM729 1243H455V840H721Q828 840 901 858T1012 921T1051 1044Q1051 1105 1020 1151T934 1221Q882 1243 729 1243Z"
         glyph-name="R"
         horiz-adv-x="1473"
         unicode="R" />
      <glyph
         d="M1274 440Q1274 307 1206 201T1005 35T692 -25Q475 -25 334 57Q234 116 172 214T109 406Q109 460 146 498T242 537Q289 537 321 507T377 418Q405 348 437 301T529 224T684 193Q816 193 898 254T981 408Q981 481 937 526T822 596T633 647Q475 684 369 733T200 868T137 1081Q137 1202 203 1296T394 1440T688 1491Q823 1491 921 1458T1085 1369T1180 1252T1210 1133Q1210 1080 1173 1038T1079 995Q1028 995 1002 1020T944 1104Q904 1187 848 1233T668 1280Q553 1280 483 1230T412 1108Q412 1064 436 1032T502 977T587 941T729 903Q853 874 953 839T1124 754T1234 628T1274 440Z"
         glyph-name="S"
         horiz-adv-x="1366"
         unicode="S" />
      <glyph
         d="M1112 1221H788V156Q788 64 747 20T641 -25Q575 -25 534 20T492 156V1221H168Q92 1221 55 1254T18 1343Q18 1400 56 1433T168 1466H1112Q1189 1466 1226 1432T1264 1343Q1264 1288 1226 1255T1112 1221Z"
         glyph-name="T"
         horiz-adv-x="1280"
         unicode="T" />
      <glyph
         d="M162 606V1311Q162 1401 202 1446T309 1491Q378 1491 418 1446T459 1311V590Q459 467 486 385T584 257T780 211Q954 211 1026 303T1098 584V1311Q1098 1402 1138 1446T1245 1491Q1312 1491 1353 1447T1395 1311V606Q1395 434 1362 319T1235 117Q1155 43 1049 9T801 -25Q632 -25 510 11T311 124T198 320T162 606Z"
         glyph-name="U"
         horiz-adv-x="1556"
         unicode="U" />
      <glyph
         d="M377 1296L709 313L1042 1303Q1068 1381 1081 1411T1124 1466T1206 1491Q1244 1491 1276 1472T1327 1422T1346 1358Q1346 1336 1340 1311T1325 1261T1307 1210L952 252Q933 197 914 148T870 61T804 -1T702 -25Q642 -25 601 -2T534 60T489 148T451 252L102 1202Q93 1228 84 1253T68 1307T61 1356Q61 1407 102 1449T205 1491Q281 1491 312 1445T377 1296Z"
         glyph-name="V"
         horiz-adv-x="1409"
         unicode="V" />
      <glyph
         d="M1198 231L961 1110L721 231Q693 131 677 88T619 10T510 -25Q455 -25 420 -5T362 53T326 142T301 238L57 1225Q35 1311 35 1356Q35 1413 75 1452T174 1491Q255 1491 283 1439T332 1288L524 432L739 1233Q763 1325 782 1373T844 1456T961 1491Q1036 1491 1077 1455T1135 1375T1178 1233L1395 432L1587 1288Q1601 1355 1613 1393T1656 1461T1745 1491Q1803 1491 1843 1453T1884 1356Q1884 1315 1862 1225L1618 238Q1593 138 1577 92T1521 10T1409 -25Q1341 -25 1300 9T1243 85T1198 231Z"
         glyph-name="W"
         horiz-adv-x="1921"
         unicode="W" />
      <glyph
         d="M106 285L434 764L158 1190Q119 1252 100 1296T80 1382Q80 1424 117 1457T209 1491Q271 1491 305 1455T401 1319L621 963L856 1319Q885 1364 905 1396T945 1449T987 1480T1042 1491Q1098 1491 1133 1458T1169 1378Q1169 1311 1092 1196L803 764L1114 285Q1156 222 1175 181T1194 102Q1194 67 1177 38T1129 -8T1059 -25Q1017 -25 988 -8T941 36T874 137L616 543L342 125Q310 75 297 55T264 16T219 -14T158 -25Q104 -25 69 8T33 104Q33 178 106 285Z"
         glyph-name="X"
         horiz-adv-x="1237"
         unicode="X" />
      <glyph
         d="M487 156V621L129 1176Q82 1251 63 1293T43 1366Q43 1417 82 1454T180 1491Q241 1491 272 1457T367 1319L641 874L918 1319Q943 1360 960 1388T997 1440T1043 1478T1104 1491Q1160 1491 1197 1455T1235 1370Q1235 1331 1216 1292T1151 1184L784 621V156Q784 65 742 20T635 -25Q569 -25 528 19T487 156Z"
         glyph-name="Y"
         horiz-adv-x="1280"
         unicode="Y" />
      <glyph
         d="M121 342L874 1243H227Q159 1243 125 1273T90 1352Q90 1403 124 1434T227 1466H1061Q1223 1466 1223 1315Q1223 1243 1196 1200T1087 1061L383 223H1159Q1228 223 1262 195T1296 115Q1296 62 1262 31T1159 0H207Q110 0 61 43T12 160Q12 185 20 206T41 245T79 292T121 342Z"
         glyph-name="Z"
         horiz-adv-x="1323"
         unicode="Z" />
      <glyph
         d="M573 1278H406V-172H573Q702 -172 702 -279Q702 -385 573 -385H324Q263 -385 224 -365T166 -305T147 -203V1309Q147 1403 189 1447T324 1491H573Q638 1491 670 1462T702 1384Q702 1278 573 1278Z"
         glyph-name="bracketleft"
         horiz-adv-x="725"
         unicode="[" />
      <glyph
         d="M248 1331L528 178Q549 96 549 63Q549 -25 446 -25Q404 -25 383 -7T352 38T326 135L47 1288Q27 1374 27 1401Q27 1443 53 1467T129 1491Q188 1491 207 1457T248 1331Z"
         glyph-name="backslash"
         horiz-adv-x="575"
         unicode="\" />
      <glyph
         d="M319 -172V1278H154Q90 1278 57 1307T23 1384Q23 1432 56 1461T154 1491H401Q493 1491 535 1447T578 1309V-203Q578 -296 536 -340T401 -385H154Q90 -385 57 -356T23 -279Q23 -231 56 -202T154 -172H319Z"
         glyph-name="bracketright"
         horiz-adv-x="725"
         unicode="]" />
      <glyph
         d="M401 692H115L492 1491H713L1079 692H797L598 1182L401 692Z"
         glyph-name="asciicircum"
         horiz-adv-x="1194"
         unicode="^" />
      <glyph
         d="M-12 -256V-154H1036V-256H-12Z"
         glyph-name="underscore"
         horiz-adv-x="1024"
         unicode="_" />
      <glyph
         d="M424 1364L469 1280Q496 1237 496 1221Q496 1196 453 1196Q387 1196 330 1225Q302 1239 192 1344T82 1462Q82 1477 133 1477H268Q327 1477 357 1456T424 1364Z"
         glyph-name="grave"
         horiz-adv-x="682"
         unicode="`" />
      <glyph
         d="M831 129Q732 52 640 14T432 -25Q327 -25 248 16T125 129T82 283Q82 395 153 474T348 580Q374 586 477 607T653 645T813 688Q808 796 770 846T610 897Q506 897 454 868T364 781T311 705T244 686Q198 686 165 715T131 791Q131 863 182 931T341 1043T610 1087Q790 1087 893 1045T1038 910T1081 666Q1081 570 1081 503T1079 354Q1079 277 1104 194T1130 86Q1130 44 1091 10T1001 -25Q959 -25 918 14T831 129ZM813 524Q753 502 639 478T480 442T396 397T356 303Q356 241 403 198T526 154Q607 154 675 189T776 281Q813 343 813 485V524Z"
         glyph-name="a"
         horiz-adv-x="1217"
         unicode="a" />
      <glyph
         d="M393 1335V918Q470 998 550 1040T748 1083Q884 1083 986 1019T1145 832T1202 541Q1202 417 1171 314T1079 134T934 17T745 -25Q682 -25 627 -10T532 29T466 80T393 158V131Q393 54 356 15T262 -25Q204 -25 170 14T135 131V1323Q135 1406 168 1448T262 1491Q325 1491 359 1451T393 1335ZM406 524Q406 361 480 274T676 186Q779 186 853 275T928 532Q928 640 897 718T809 838T676 881Q598 881 537 839T441 716T406 524Z"
         glyph-name="b"
         horiz-adv-x="1280"
         unicode="b" />
      <glyph
         d="M1120 313Q1120 262 1090 204T997 94T839 9T625 -23Q372 -23 230 124T88 520Q88 688 153 817T341 1016T635 1087Q741 1087 829 1056T979 976T1073 872T1106 768Q1106 719 1070 685T981 651Q947 651 925 668T874 725Q824 801 770 839T631 877Q510 877 436 783T362 524Q362 447 381 383T436 273T523 204T635 180Q717 180 775 218T879 334Q904 380 933 406T1004 432Q1054 432 1087 394T1120 313Z"
         glyph-name="c"
         horiz-adv-x="1217"
         unicode="c" />
      <glyph
         d="M889 131V158Q834 95 781 56T665 -4T528 -25Q430 -25 347 16T202 135T110 316T78 541Q78 797 203 940T532 1083Q650 1083 731 1043T889 918V1321Q889 1405 922 1448T1018 1491Q1080 1491 1113 1452T1147 1335V131Q1147 53 1111 14T1018 -25Q962 -25 926 15T889 131ZM352 532Q352 421 386 343T481 226T612 186Q684 186 743 223T838 338T874 532Q874 641 839 719T743 839T610 881Q535 881 476 839T385 717T352 532Z"
         glyph-name="d"
         horiz-adv-x="1280"
         unicode="d" />
      <glyph
         d="M903 463H369Q370 370 406 299T503 192T637 156Q686 156 726 167T805 203T875 256T958 332Q979 350 1018 350Q1060 350 1086 327T1112 262Q1112 225 1083 176T996 81T849 5T645 -25Q382 -25 236 125T90 532Q90 653 126 756T231 934T401 1047T625 1087Q785 1087 899 1020T1071 845T1128 627Q1128 524 1069 494T903 463ZM369 618H864Q854 758 789 827T616 897Q514 897 449 827T369 618Z"
         glyph-name="e"
         horiz-adv-x="1217"
         unicode="e" />
      <glyph
         d="M119 1061H184V1143Q184 1271 216 1346T326 1456T539 1491Q778 1491 778 1374Q778 1336 753 1309T694 1282Q678 1282 639 1288T573 1294Q499 1294 478 1251T457 1126V1061H524Q680 1061 680 967Q680 900 639 882T524 864H457V141Q457 60 419 18T319 -25Q261 -25 223 17T184 141V864H109Q48 864 15 891T-18 963Q-18 1061 119 1061Z"
         glyph-name="f"
         horiz-adv-x="682"
         unicode="f" />
      <glyph
         d="M1145 885V92Q1145 -44 1116 -142T1023 -304T856 -399T598 -430Q457 -430 346 -391T175 -289T115 -160Q115 -110 149 -79T231 -47Q291 -47 336 -100Q358 -127 381 -154T433 -201T502 -230T594 -240Q700 -240 758 -211T840 -128T868 -15T874 180Q811 92 729 46T532 0Q395 0 293 70T135 266T80 557Q80 680 113 779T209 946T352 1048T530 1083Q646 1083 731 1039T889 899V936Q889 1007 924 1046T1014 1085Q1093 1085 1119 1034T1145 885ZM354 539Q354 373 426 288T614 203Q682 203 742 239T841 349T879 528Q879 695 806 788T612 881Q495 881 425 792T354 539Z"
         glyph-name="g"
         horiz-adv-x="1280"
         unicode="g" />
      <glyph
         d="M408 1325V920Q460 980 509 1015T619 1067T748 1085Q852 1085 932 1041T1059 913Q1088 864 1098 804T1108 664V141Q1108 59 1071 17T971 -25Q836 -25 836 141V602Q836 733 797 803T649 874Q576 874 518 833T430 719Q408 658 408 502V141Q408 60 372 18T270 -25Q135 -25 135 141V1325Q135 1408 170 1449T270 1491Q335 1491 371 1449T408 1325Z"
         glyph-name="h"
         horiz-adv-x="1237"
         unicode="h" />
      <glyph
         d="M414 930V141Q414 59 375 17T276 -25Q216 -25 179 18T141 141V922Q141 1003 178 1044T276 1085Q336 1085 375 1044T414 930ZM279 1212Q222 1212 182 1247T141 1346Q141 1404 182 1441T279 1479Q332 1479 373 1445T414 1346Q414 1283 374 1248T279 1212Z"
         glyph-name="i"
         horiz-adv-x="555"
         unicode="i" />
      <glyph
         d="M416 922V-4Q416 -103 410 -165T391 -256Q323 -430 102 -430Q-22 -430 -86 -396T-150 -297Q-150 -249 -121 -219T-45 -188Q-39 -188 -26 -189T14 -193T51 -195Q106 -195 124 -152T143 2V922Q143 1003 181 1044T281 1085Q341 1085 378 1045T416 922ZM281 1212Q224 1212 184 1247T143 1346Q143 1404 184 1441T281 1479Q334 1479 375 1445T416 1346Q416 1283 376 1248T281 1212Z"
         glyph-name="j"
         horiz-adv-x="555"
         unicode="j" />
      <glyph
         d="M821 100L580 496L432 356V139Q432 60 391 18T295 -25Q232 -25 196 17T160 141V1305Q160 1396 195 1443T295 1491Q358 1491 395 1448T432 1321V659L739 981Q796 1041 826 1063T899 1085Q950 1085 984 1053T1018 971Q1018 911 907 811L762 678L1042 238Q1073 189 1086 164T1100 115Q1100 50 1065 13T971 -25Q921 -25 894 2T821 100Z"
         glyph-name="k"
         horiz-adv-x="1174"
         unicode="k" />
      <glyph
         d="M141 141V1325Q141 1407 177 1449T276 1491Q338 1491 376 1450T414 1325V141Q414 58 376 17T276 -25Q216 -25 179 18T141 141Z"
         glyph-name="l"
         horiz-adv-x="555"
         unicode="l" />
      <glyph
         d="M1049 510V147Q1049 61 1010 18T907 -25Q845 -25 807 18T768 147V582Q768 685 761 742T723 835T625 872Q491 872 449 780T406 516V147Q406 62 368 19T266 -25Q204 -25 165 18T125 147V928Q125 1005 160 1045T254 1085Q310 1085 347 1048T385 944V918Q456 1003 537 1043T717 1083Q820 1083 894 1042T1016 918Q1085 1002 1164 1042T1339 1083Q1451 1083 1532 1039T1653 913Q1688 839 1688 680V147Q1688 61 1649 18T1546 -25Q1484 -25 1445 18T1405 147V606Q1405 694 1398 747T1357 836T1257 872Q1203 872 1155 840T1079 754Q1049 685 1049 510Z"
         glyph-name="m"
         horiz-adv-x="1812"
         unicode="m" />
      <glyph
         d="M389 934V901Q461 996 546 1040T743 1085Q851 1085 936 1038T1063 905Q1090 855 1098 797T1106 649V141Q1106 59 1069 17T971 -25Q910 -25 872 18T834 141V596Q834 731 797 802T647 874Q574 874 514 831T426 711Q406 650 406 483V141Q406 58 368 17T268 -25Q209 -25 171 18T133 141V930Q133 1008 167 1046T260 1085Q296 1085 325 1068T371 1017T389 934Z"
         glyph-name="n"
         horiz-adv-x="1237"
         unicode="n" />
      <glyph
         d="M1163 530Q1163 408 1125 305T1015 128T843 15T618 -25Q494 -25 395 15T224 129T114 305T76 530Q76 654 114 757T223 933T395 1045T618 1085Q742 1085 843 1045T1016 931T1125 755T1163 530ZM889 530Q889 697 816 790T618 883Q538 883 477 842T383 719T350 530Q350 423 382 343T475 221T618 178Q742 178 815 271T889 530Z"
         glyph-name="o"
         horiz-adv-x="1237"
         unicode="o" />
      <glyph
         d="M393 932V899Q470 994 553 1038T741 1083Q867 1083 973 1018T1140 828T1202 532Q1202 406 1167 301T1069 124T923 14T741 -25Q624 -25 545 22T393 160V-250Q393 -430 262 -430Q185 -430 160 -384T135 -248V930Q135 1008 169 1046T262 1085Q320 1085 356 1046T393 932ZM928 535Q928 643 895 720T804 839T674 881Q561 881 484 792T406 530Q406 367 483 277T674 186Q742 186 800 225T893 344T928 535Z"
         glyph-name="p"
         horiz-adv-x="1280"
         unicode="p" />
      <glyph
         d="M889 -248V137Q810 58 725 17T535 -25Q408 -25 304 42T140 234T80 530Q80 704 140 828T306 1018T543 1083Q653 1083 740 1038T889 899V932Q889 1007 925 1046T1018 1085Q1075 1085 1111 1047T1147 932V-248Q1147 -430 1018 -430Q938 -430 914 -381T889 -248ZM354 532Q354 422 389 343T483 225T608 186Q681 186 742 224T840 342T877 537Q877 619 856 685T797 794T712 859T610 881Q500 881 427 790T354 532Z"
         glyph-name="q"
         horiz-adv-x="1280"
         unicode="q" />
      <glyph
         d="M412 369V141Q412 58 373 17T274 -25Q215 -25 177 17T139 141V901Q139 1085 272 1085Q340 1085 370 1042T403 915Q452 999 503 1042T641 1085Q727 1085 808 1042T889 928Q889 878 855 846T780 813Q765 813 708 831T606 850Q546 850 508 819T449 725T420 578T412 369Z"
         glyph-name="r"
         horiz-adv-x="897"
         unicode="r" />
      <glyph
         d="M1020 332Q1020 219 965 139T803 17T541 -25Q394 -25 289 20T134 132T84 268Q84 313 116 345T197 377Q240 377 263 356T307 297Q349 224 407 188T567 152Q649 152 701 188T754 272Q754 344 700 377T520 440Q379 475 291 513T149 615T96 770Q96 852 145 925T289 1041T520 1085Q626 1085 710 1063T851 1004T937 922T967 834Q967 787 936 757T846 727Q804 727 775 751T707 823Q676 863 634 887T520 911Q446 911 397 880T348 801Q348 758 384 731T481 685T649 641Q776 610 856 567T978 466T1020 332Z"
         glyph-name="s"
         horiz-adv-x="1110"
         unicode="s" />
      <glyph
         d="M156 1061H186V1225Q186 1291 189 1328T209 1393Q225 1421 255 1438T322 1456Q374 1456 416 1417Q444 1391 451 1354T459 1247V1061H559Q617 1061 647 1034T678 963Q678 908 635 886T510 864H459V362Q459 298 463 264T487 208T551 186Q575 186 616 194T680 203Q713 203 739 177T766 111Q766 45 694 10T487 -25Q359 -25 293 18T207 137T186 340V864H150Q91 864 60 892T29 963Q29 1006 61 1033T156 1061Z"
         glyph-name="t"
         horiz-adv-x="725"
         unicode="t" />
      <glyph
         d="M850 129V164Q801 102 747 60T629 -2T483 -23Q384 -23 306 18T184 131Q133 218 133 381V922Q133 1004 170 1044T268 1085Q330 1085 368 1044T406 922V485Q406 390 422 326T479 225T592 188Q661 188 722 229T811 336Q834 394 834 590V922Q834 1003 872 1044T971 1085Q1032 1085 1069 1045T1106 922V131Q1106 53 1071 14T979 -25Q923 -25 887 15T850 129Z"
         glyph-name="u"
         horiz-adv-x="1237"
         unicode="u" />
      <glyph
         d="M334 915L555 295L793 942Q821 1020 848 1052T930 1085Q982 1085 1018 1050T1055 969Q1055 951 1049 927T1034 882T1014 834L752 184Q741 156 724 113T685 40T632 -8T555 -25Q497 -25 463 1T412 59T356 184L96 827Q87 851 78 875T62 924T55 967Q55 995 72 1022T119 1067T184 1085Q252 1085 277 1046T334 915Z"
         glyph-name="v"
         horiz-adv-x="1110"
         unicode="v" />
      <glyph
         d="M311 915L489 305L651 872Q677 961 689 993T736 1055T831 1085Q892 1085 926 1056T975 992T1014 872L1176 305L1356 915Q1374 981 1385 1010T1422 1062T1497 1085Q1546 1085 1582 1051T1618 971Q1618 929 1587 844L1364 190Q1335 107 1319 70T1269 4T1174 -25Q1112 -25 1077 6T1024 82T987 199L831 731L680 199Q650 88 615 32T492 -25Q447 -25 416 -8T363 42T326 119T301 190L80 844Q47 936 47 971Q47 1015 82 1050T168 1085Q236 1085 260 1047T311 915Z"
         glyph-name="w"
         horiz-adv-x="1665"
         unicode="w" />
      <glyph
         d="M733 88L535 379L332 88Q288 27 258 1T180 -25Q128 -25 92 7T55 82Q55 125 111 205L358 559L139 854Q82 927 82 981Q82 1023 116 1054T205 1085Q253 1085 284 1058T358 973L535 731L707 973Q750 1033 781 1059T860 1085Q914 1085 949 1055T985 981Q985 950 971 922T926 854L707 559L954 205Q1012 122 1012 80Q1012 37 976 6T887 -25Q840 -25 808 2T733 88Z"
         glyph-name="x"
         horiz-adv-x="1067"
         unicode="x" />
      <glyph
         d="M393 -59L418 2L82 848Q51 921 51 954Q51 989 69 1019T118 1067T184 1085Q243 1085 273 1048T326 940L557 268L776 893Q802 969 823 1012T867 1070T934 1085Q965 1085 993 1069T1037 1024T1053 965Q1049 946 1040 911T1018 840L662 -92Q616 -215 572 -285T456 -392T260 -430Q140 -430 80 -404T20 -309Q20 -262 48 -237T133 -211Q155 -211 176 -217Q202 -223 221 -223Q268 -223 295 -209T343 -161T393 -59Z"
         glyph-name="y"
         horiz-adv-x="1110"
         unicode="y" />
      <glyph
         d="M883 772L383 213H918Q983 213 1016 183T1049 104Q1049 58 1017 29T918 0H178Q100 0 62 34T23 127Q23 162 50 197T162 328Q252 428 325 509T462 660T566 780T633 864H227Q143 864 100 879T57 958Q57 1005 89 1033T182 1061H809Q896 1061 942 1036T989 944Q989 922 980 899T960 860T930 824T883 772Z"
         glyph-name="z"
         horiz-adv-x="1067"
         unicode="z" />
      <glyph
         d="M352 530Q423 486 463 432T519 293T535 76Q535 -23 539 -70T557 -141T590 -173T655 -188Q693 -193 718 -225T743 -309Q743 -430 596 -430Q505 -430 434 -392T323 -285T283 -125Q280 27 277 119T268 238Q253 305 224 339T147 402T79 455T59 530Q59 604 117 641Q189 686 219 717T262 798T277 906T283 1188Q286 1326 370 1408T596 1491Q743 1491 743 1372Q743 1318 719 1287T655 1251Q597 1243 574 1227T544 1165T535 987Q533 858 520 776T467 635T352 530Z"
         glyph-name="braceleft"
         horiz-adv-x="788"
         unicode="{" />
      <glyph
         d="M399 1354V-293Q399 -361 369 -395T289 -430Q240 -430 208 -395T176 -293V1354Q176 1421 208 1456T289 1491Q338 1491 368 1456T399 1354Z"
         glyph-name="bar"
         horiz-adv-x="575"
         unicode="|" />
      <glyph
         d="M436 530Q382 564 348 601T292 691T261 816T252 987Q252 1082 248 1132T232 1206T199 1237T133 1251Q96 1256 71 1287T45 1372Q45 1491 190 1491Q283 1491 353 1454T464 1347T506 1188Q512 856 520 823Q536 757 567 723T642 662T707 609T729 530Q729 455 672 420Q602 377 571 345T527 264T512 118T506 -125Q503 -263 418 -346T190 -430Q120 -430 83 -399T45 -309Q45 -276 57 -249T88 -206T133 -188Q178 -182 200 -173T233 -139T248 -66T252 76Q254 214 268 292T321 426T436 530Z"
         glyph-name="braceright"
         horiz-adv-x="788"
         unicode="}" />
      <glyph
         d="M338 657Q197 657 66 520V778Q132 852 204 883T367 915Q436 915 498 897T627 853T756 803T854 780Q917 780 989 817T1128 924V655Q1098 624 1050 593T950 542T854 522Q782 522 721 539T581 589T451 640T338 657Z"
         glyph-name="asciitilde"
         horiz-adv-x="1194"
         unicode="~" />
      </font>
</svg>
