<?xml version="1.0" encoding="utf-8"?>
<!-- Generator: Adobe Illustrator 19.1.0, SVG Export Plug-In . SVG Version: 6.00 Build 0)  -->
<!DOCTYPE svg PUBLIC "-//W3C//DTD SVG 1.1//EN" "http://www.w3.org/Graphics/SVG/1.1/DTD/svg11.dtd">
<svg version="1.1" id="Ebene_1" xmlns="http://www.w3.org/2000/svg" xmlns:xlink="http://www.w3.org/1999/xlink" x="0px" y="0px"
	 viewBox="-289 412.9 16 16" style="enable-background:new -289 412.9 16 16;" xml:space="preserve">
<style type="text/css">
	.st0{fill:none;}
	.st1{fill:#FFFFFF;}
	.st2{fill:#88D8EA;}
</style>
<g>
	<rect x="-279.4" y="418.2" class="st0" width="0" height="6.4"/>
	<polygon class="st1" points="-283.7,417.1 -279.4,417.1 -279.4,413.9 -288,413.9 -288,424.7 -283.7,424.7 	"/>
	<polygon class="st1" points="-278.3,425.6 -282.7,425.6 -282.7,427.9 -274,427.9 -274,418.2 -278.3,418.2 	"/>
	<path d="M-278.3,417.1v-4.2H-289v12.7h5.3v3.3h10.7v-11.8H-278.3z M-274,427.9h-8.7v-2.3h4.4v-7.4h4.3V427.9z M-288,413.9h8.6v3.2
		h-4.3v7.6h-4.3V413.9z M-282.7,418.2h3.3v6.5h-3.3V418.2z"/>
	<rect x="-282.7" y="418.2" class="st2" width="3.3" height="6.5"/>
</g>
</svg>
