<?xml version="1.0" encoding="utf-8"?>
<!-- Generator: Adobe Illustrator 19.0.0, SVG Export Plug-In . SVG Version: 6.00 Build 0)  -->
<!DOCTYPE svg PUBLIC "-//W3C//DTD SVG 1.1//EN" "http://www.w3.org/Graphics/SVG/1.1/DTD/svg11.dtd">
<svg version="1.1" id="Ebene_1" xmlns="http://www.w3.org/2000/svg" xmlns:xlink="http://www.w3.org/1999/xlink" x="0px" y="0px"
	 viewBox="0 0 16 16" style="enable-background:new 0 0 16 16;" xml:space="preserve">
<style type="text/css">
	.st0{fill:none;}
	.st1{fill:#FFFFFF;}
	.st2{fill:#CBCBCB;}
</style>
<g>
	<rect x="9.6" y="5.3" class="st0" width="0" height="6.4"/>
	<polygon class="st1" points="5.3,4.2 9.6,4.2 9.6,1 1,1 1,11.8 5.3,11.8 	"/>
	<polygon class="st1" points="10.7,12.7 6.3,12.7 6.3,15 15,15 15,5.3 10.7,5.3 	"/>
	<path d="M10.7,4.2V0H0v12.7h5.3V16H16V4.2H10.7z M15,15H6.3v-2.3h4.4V5.3H15V15z M1,1h8.6v3.2H5.3v7.6H1V1z M6.3,5.3h3.3v6.5H6.3
		V5.3z"/>
	<rect x="6.3" y="5.3" class="st2" width="3.3" height="6.5"/>
</g>
</svg>
