<?xml version="1.0" encoding="utf-8"?>
<!-- Generator: Adobe Illustrator 19.1.0, SVG Export Plug-In . SVG Version: 6.00 Build 0)  -->
<!DOCTYPE svg PUBLIC "-//W3C//DTD SVG 1.1//EN" "http://www.w3.org/Graphics/SVG/1.1/DTD/svg11.dtd">
<svg version="1.1" id="Ebene_1" xmlns="http://www.w3.org/2000/svg" xmlns:xlink="http://www.w3.org/1999/xlink" x="0px" y="0px"
	 viewBox="-412 290.3 16 16" style="enable-background:new -412 290.3 16 16;" xml:space="preserve">
<style type="text/css">
	.st0{fill:#F1933B;enable-background:new    ;}
	.st1{fill:#FFFFFF;}
</style>
<g>
	<rect x="-400.4" y="301.1" class="st0" width="3.5" height="4.4"/>
	<path d="M-401.2,300.3v6.1h5.2v-6.1C-396,300.3-401.2,300.3-401.2,300.3z M-396.9,305.5h-3.5v-4.4h3.5V305.5z"/>
</g>
<g>
	<polygon class="st1" points="-406.8,301.1 -403.5,301.1 -403.5,290.3 -406.8,290.3 -406.8,290.4 	"/>
	<polygon points="-403.5,290.3 -403.5,290.3 -403.5,301.1 -406.8,301.1 -406.8,290.4 -406.8,290.4 -406.8,290.3 -407.8,290.3 
		-407.8,290.3 -407.8,290.4 -407.8,301.1 -411,301.1 -411,290.3 -411,290.3 -412,290.3 -412,302.1 -407.8,302.1 -406.8,302.1 
		-402.5,302.1 -402.5,290.3 	"/>
	<polygon class="st1" points="-407.8,301.1 -407.8,290.4 -407.8,290.3 -411,290.3 -411,301.1 	"/>
</g>
<g id="XMLID_308_">
	<polygon id="XMLID_309_" points="-398.6,299.9 -396.4,296 -398.1,296 -398.1,290.3 -399.2,290.3 -399.2,296 -400.9,296 	"/>
</g>
</svg>
