<?xml version="1.0" encoding="utf-8"?>
<!-- Generator: Adobe Illustrator 19.1.0, SVG Export Plug-In . SVG Version: 6.00 Build 0)  -->
<!DOCTYPE svg PUBLIC "-//W3C//DTD SVG 1.1//EN" "http://www.w3.org/Graphics/SVG/1.1/DTD/svg11.dtd">
<svg version="1.1" id="Ebene_1" xmlns="http://www.w3.org/2000/svg" xmlns:xlink="http://www.w3.org/1999/xlink" x="0px" y="0px"
	 viewBox="-412 290.3 16 16" style="enable-background:new -412 290.3 16 16;" xml:space="preserve">
<style type="text/css">
	.st0{fill:#C4D13B;}
	.st1{fill:#1A171B;}
</style>
<g>
	<polygon points="-396,298.8 -396,293.4 -400.6,293.4 -400.6,290.3 -402.7,290.3 -402.7,293.4 -407.4,293.4 -407.4,299.4 
		-412,299.4 -412,306.3 -409.9,306.3 -409.9,301.6 -402.8,301.6 -402.8,306.3 -400.6,306.3 -400.7,299.4 -405.2,299.4 -405.2,295.6 
		-398.1,295.6 -398.1,298.8 	"/>
</g>
<g>
	<polygon class="st0" points="-409.5,291.3 -398.1,298.3 -409.5,305.3 	"/>
	<path class="st1" d="M-409.5,305.8c-0.1,0-0.2,0-0.2-0.1c-0.2-0.1-0.3-0.3-0.3-0.4v-14c0-0.2,0.1-0.3,0.3-0.4s0.4-0.1,0.5,0l11.4,7
		c0.1,0.1,0.2,0.3,0.2,0.4s-0.1,0.3-0.2,0.4l-11.4,7C-409.3,305.7-409.4,305.8-409.5,305.8z M-409,292.2v12.2l9.9-6.1L-409,292.2z"
		/>
</g>
</svg>
