<?xml version="1.0" encoding="utf-8"?>
<!-- Generator: Adobe Illustrator 19.0.0, SVG Export Plug-In . SVG Version: 6.00 Build 0)  -->
<!DOCTYPE svg PUBLIC "-//W3C//DTD SVG 1.1//EN" "http://www.w3.org/Graphics/SVG/1.1/DTD/svg11.dtd">
<svg version="1.1" id="Ebene_1" xmlns="http://www.w3.org/2000/svg" xmlns:xlink="http://www.w3.org/1999/xlink" x="0px" y="0px"
	 viewBox="0 0 16 16" style="enable-background:new 0 0 16 16;" xml:space="preserve">
<style type="text/css">
	.st0{fill:#CBCBCB;}
</style>
<g>
	<polygon points="16,8.5 16,3.1 11.4,3.1 11.4,0 9.3,0 9.3,3.1 4.6,3.1 4.6,9.1 0,9.1 0,16 2.1,16 2.1,11.3 9.2,11.3 9.2,16 
		11.4,16 11.3,9.1 6.8,9.1 6.8,5.3 13.9,5.3 13.9,8.5 	"/>
</g>
<g id="XMLID_18_">
	<polygon id="XMLID_51_" class="st0" points="3,14.1 12.9,8 3,1.9 	"/>
	<path id="XMLID_20_" d="M14.1,7.6l-11.4-7C2.4,0.4,2,0.6,2,1v14c0,0.4,0.4,0.6,0.8,0.4l11.4-7C14.5,8.2,14.5,7.8,14.1,7.6z M3,14.1
		V1.9L12.9,8L3,14.1z"/>
</g>
</svg>
