<?xml version="1.0" encoding="utf-8"?>
<!-- Generator: Adobe Illustrator 19.1.0, SVG Export Plug-In . SVG Version: 6.00 Build 0)  -->
<!DOCTYPE svg PUBLIC "-//W3C//DTD SVG 1.1//EN" "http://www.w3.org/Graphics/SVG/1.1/DTD/svg11.dtd">
<svg version="1.1" id="Ebene_1" xmlns="http://www.w3.org/2000/svg" xmlns:xlink="http://www.w3.org/1999/xlink" x="0px" y="0px"
	 viewBox="-412 290.3 16 16" style="enable-background:new -412 290.3 16 16;" xml:space="preserve">
<style type="text/css">
	.st0{fill:#4EAF75;}
</style>
<g>
	<path d="M-401.5,295.8c-1.3-0.3-2.2,0.6-2.9,1.6c-1.2-1.7-3.8-1.6-3.8,0.9s2.6,2.6,3.9,0.9c0.6,1.1,1.6,2,3,1.6
		c1.1-0.3,1.6-1.4,1.6-2.5C-399.8,297.1-400.3,296-401.5,295.8z M-405.9,299.2c-1,0.6-1.7-0.8-1.1-1.6c0.6-0.9,1.6,0.1,2,0.7
		C-405.3,298.7-405.6,299-405.9,299.2z M-402.8,299.4c-0.2-0.1-0.5-0.5-0.9-1.1c0.5-0.8,1.9-2.3,2.7-0.9
		C-400.3,298.6-401.5,300.6-402.8,299.4z"/>
</g>
<g id="XMLID_1_">
	<path id="XMLID_3_" class="st0" d="M-397.9,301.5c-2,3.1-7.3,4.5-10.2,1.9l1.3-0.9l-4.6-2.2l0.6,5l1.5-1c3.5,3.5,10.2,2,12.7-2
		L-397.9,301.5z"/>
	<path id="XMLID_2_" class="st0" d="M-406.4,292.2c2.2-0.7,4.4-0.4,5.9,0.6l-1.2,0.9l4.7,2l-0.8-5l-1.5,1.1
		c-3.4-2.7-8.9-1.6-11.6,1.5l1.1,1C-409,293.3-407.8,292.6-406.4,292.2C-404.2,291.5-407.8,292.6-406.4,292.2z"/>
</g>
</svg>
