<?xml version="1.0" encoding="utf-8"?>
<!-- Generator: Adobe Illustrator 19.0.0, SVG Export Plug-In . SVG Version: 6.00 Build 0)  -->
<!DOCTYPE svg PUBLIC "-//W3C//DTD SVG 1.1//EN" "http://www.w3.org/Graphics/SVG/1.1/DTD/svg11.dtd">
<svg version="1.1" id="Ebene_1" xmlns="http://www.w3.org/2000/svg" xmlns:xlink="http://www.w3.org/1999/xlink" x="0px" y="0px"
	 viewBox="0 0 16 16" style="enable-background:new 0 0 16 16;" xml:space="preserve">
<g id="XMLID_96_">
	<path id="XMLID_98_" d="M14.1,11.2c-2,3.1-7.3,4.5-10.2,1.9l1.3-0.9L0.6,10l0.6,5L2.7,14c3.5,3.5,10.2,2,12.7-2L14.1,11.2z"/>
	<path id="XMLID_97_" d="M5.6,1.9c2.2-0.7,4.4-0.4,5.9,0.6l-1.2,0.9l4.7,2l-0.8-5l-1.5,1.1C9.3-1.2,3.8-0.1,1.1,3l1.1,1
		C3,3,4.2,2.3,5.6,1.9C7.8,1.2,4.2,2.3,5.6,1.9z"/>
</g>
<g>
	<path d="M10.5,5.5C9.2,5.2,8.3,6.1,7.6,7.1C6.4,5.4,3.8,5.5,3.8,8s2.6,2.6,3.9,0.9c0.6,1.1,1.6,2,3,1.6c1.1-0.3,1.6-1.4,1.6-2.5
		C12.2,6.8,11.7,5.7,10.5,5.5z M6.1,8.9C5.1,9.5,4.4,8.1,5,7.3C5.6,6.4,6.6,7.4,7,8C6.7,8.4,6.4,8.7,6.1,8.9z M9.2,9.1
		C9,9,8.7,8.6,8.3,8c0.5-0.8,1.9-2.3,2.7-0.9C11.7,8.3,10.5,10.3,9.2,9.1z"/>
</g>
</svg>
