<?xml version="1.0" encoding="utf-8"?>
<!-- Generator: Adobe Illustrator 19.1.0, SVG Export Plug-In . SVG Version: 6.00 Build 0)  -->
<!DOCTYPE svg PUBLIC "-//W3C//DTD SVG 1.1//EN" "http://www.w3.org/Graphics/SVG/1.1/DTD/svg11.dtd">
<svg version="1.1" id="Ebene_1" xmlns="http://www.w3.org/2000/svg" xmlns:xlink="http://www.w3.org/1999/xlink" x="0px" y="0px"
	 viewBox="-412 290.3 16 16" style="enable-background:new -412 290.3 16 16;" xml:space="preserve">
<style type="text/css">
	.st0{fill:#FFFFFF;}
	.st1{fill:none;}
	.st2{fill:#E64E4F;}
</style>
<circle class="st0" cx="-404.6" cy="298.3" r="6.2"/>
<g>
	<path class="st1" d="M-404.6,292.4c-3.3,0-5.9,2.6-5.9,5.9c0,3.2,2.6,5.9,5.9,5.9c3.2,0,5.9-2.6,5.9-5.9S-401.4,292.4-404.6,292.4z
		"/>
	<path class="st2" d="M-404.6,290.9c-4.1,0-7.4,3.3-7.4,7.4s3.3,7.4,7.4,7.4s7.4-3.3,7.4-7.4S-400.5,290.9-404.6,290.9z
		 M-404.6,304.2c-3.2,0-5.9-2.6-5.9-5.9c0-3.2,2.6-5.9,5.9-5.9c3.2,0,5.9,2.6,5.9,5.9C-398.7,301.5-401.4,304.2-404.6,304.2z"/>
</g>
<rect x="-400.8" y="295.9" width="4.8" height="4.8"/>
<g id="XMLID_99_">
	<path id="XMLID_100_" d="M-405.3,301.2l-2-5.7h1.3l1.4,4.2l1.4-4.2h1.2l-2.1,5.7H-405.3z"/>
</g>
</svg>
