<?xml version="1.0" encoding="utf-8"?>
<!-- Generator: Adobe Illustrator 19.0.0, SVG Export Plug-In . SVG Version: 6.00 Build 0)  -->
<!DOCTYPE svg PUBLIC "-//W3C//DTD SVG 1.1//EN" "http://www.w3.org/Graphics/SVG/1.1/DTD/svg11.dtd">
<svg version="1.1" id="Ebene_1" xmlns="http://www.w3.org/2000/svg" xmlns:xlink="http://www.w3.org/1999/xlink" x="0px" y="0px"
	 viewBox="0 0 16 16" style="enable-background:new 0 0 16 16;" xml:space="preserve">
<style type="text/css">
	.st0{fill:none;}
	.st1{fill:#FFFFFF;}
</style>
<g>
	<path class="st0" d="M14.3,8"/>
	<path class="st0" d="M10.5,7.1c-0.2,0-0.4,0-0.4,0S10.3,7.1,10.5,7.1z"/>
	<path class="st1" d="M10.7,12c-0.2,0.1-0.4,0.1-0.6,0L4.9,8.8L1,12.2V15h14V8.5c0,0.1,0,0.2-0.1,0.3L10.7,12z"/>
	<path class="st1" d="M10.6,7.1h-0.1c-0.2,0-0.4,0-0.4,0L5,3.9H4.9L1,7.3v3.6l3.6-3.1C4.7,7.6,5,7.6,5.2,7.7l5.2,3.3l3.9-3
		c0.2-0.1,0.6,0,0.7,0.2c0-0.9-0.1-4.5-0.1-4.4l-0.1,0.1L10.6,7.1z"/>
	<path d="M15,15H1v-2.8l3.9-3.4l5.2,3.2c0.2,0.1,0.4,0.1,0.6,0l4.2-3.2C15,8.7,15.1,8.4,15,8.2c-0.1-0.2-0.6-0.3-0.7-0.2l-3.9,3
		L5.2,7.7C5,7.6,4.7,7.6,4.6,7.8L1,10.9V7.3l3.9-3.4H5l5.1,3.2c0,0,0.3,0.1,0.5,0c0.2-0.1,4.2-3.2,4.2-3.2l0.1-0.1
		c0.1-0.4-0.3-0.9-0.8-0.6l-3.9,3l-5-3.4C5,2.7,4.7,2.7,4.6,2.8L1,5.9V0H0v16h16v-1H15z"/>
</g>
</svg>
