<?xml version="1.0" encoding="utf-8"?>
<!-- Generator: Adobe Illustrator 19.1.0, SVG Export Plug-In . SVG Version: 6.00 Build 0)  -->
<!DOCTYPE svg PUBLIC "-//W3C//DTD SVG 1.1//EN" "http://www.w3.org/Graphics/SVG/1.1/DTD/svg11.dtd">
<svg version="1.1" id="Ebene_1" xmlns="http://www.w3.org/2000/svg" xmlns:xlink="http://www.w3.org/1999/xlink" x="0px" y="0px"
	 viewBox="-412 290.3 16 16" style="enable-background:new -412 290.3 16 16;" xml:space="preserve">
<style type="text/css">
	.st0{fill:#FFD104;}
</style>
<g id="YCp0BI.tif_6_">
	<g>
		<path d="M-400.6,300.1c-0.7-0.1-0.4-1.2-0.7-1.5c-0.4-0.6-1.2-0.1-1.8,0.2c-0.4,0.2-0.9,0.1-0.7-0.5c0.1-0.4,0.5-0.6,0.5-1
			c0.1-0.4,0.1-0.8-0.4-1c-0.4-0.2-1.6,0-1.3-0.8c0.2-0.6,1.2-0.2,1.6-0.8s0-1-0.3-1.5c-0.2-0.4-0.3-0.5,0.1-0.8
			c0.4-0.3,0.4,0,0.8,0.2c0.5,0.4,1.2,0.4,1.6-0.2c0.2-0.3,0.1-1.6,1-1.3c0.4,0.1,0,1.3,0.8,1.7c0.2,0.1,0.4,0.2,0.7,0.1
			c0.4-0.1,0.6-0.6,0.9-0.6c0.2,0,0.4,0.1,0.5,0.3c0.2,0.3,0.1,0.4-0.1,0.7c-0.4,0.6-0.6,1.3,0.1,1.7c0.5,0.3,1.4,0,1.3,0.7
			c-0.1,0.7-0.8,0.3-1.3,0.6c-0.7,0.5-0.4,1.2,0,1.7c0.2,0.3,0.3,0.3,0.1,0.7c-0.2,0.2-0.2,0.3-0.6,0.2c-0.4-0.1-0.8-0.6-1.3-0.6
			c-0.3,0-0.6,0.2-0.8,0.5C-400.2,299.3-399.8,300.1-400.6,300.1C-400.7,300.1-400.6,300.1-400.6,300.1z M-402.7,295.6
			c0,1.2,0.9,2.1,2.1,2.1c1.2,0,2.1-0.9,2.1-2.1c0-1.2-0.9-2.1-2.1-2.1C-401.7,293.5-402.7,294.5-402.7,295.6z"/>
	</g>
</g>
<g id="XMLID_11_">
	<polygon id="XMLID_12_" points="-396,303.2 -399.8,300.9 -399.8,302.7 -404.9,302.7 -404.9,303.7 -399.8,303.7 -399.8,305.4 	"/>
</g>
<g>
	<path class="st0" d="M-412,300.4c2.8,0,3.9-0.5,4.5-1.1c0.5-0.6,0.6-2.5,0.6-3c-1.7,0.8-3.4,1.2-5.1,1.2V300.4L-412,300.4z"/>
	<path class="st0" d="M-412,305.2L-412,305.2c2.8,0,3.9-0.5,4.5-1.1c0.5-0.6,0.6-2.5,0.6-3c-1.7,0.8-3.4,1.2-5.1,1.2V305.2z"/>
	<path class="st0" d="M-406.9,293.5c0-1.2-2.3-2.1-5.1-2.1v4.3C-409.2,295.6-406.9,294.7-406.9,293.5z"/>
</g>
</svg>
