<?xml version="1.0" encoding="utf-8"?>
<!-- Generator: Adobe Illustrator 19.1.0, SVG Export Plug-In . SVG Version: 6.00 Build 0)  -->
<!DOCTYPE svg PUBLIC "-//W3C//DTD SVG 1.1//EN" "http://www.w3.org/Graphics/SVG/1.1/DTD/svg11.dtd">
<svg version="1.1" id="Ebene_1" xmlns="http://www.w3.org/2000/svg" xmlns:xlink="http://www.w3.org/1999/xlink" x="0px" y="0px"
	 viewBox="0 0 16 16" style="enable-background:new 0 0 16 16;" xml:space="preserve">
<g>
	<g id="XMLID_1_">
		<g id="XMLID_8_">
			<polygon id="XMLID_10_" points="14.4,5.6 16,3 14.7,3 14.7,1 14,1 14,3 12.7,3 			"/>
		</g>
		<rect id="XMLID_2_" x="12.7" y="6.6" width="3.3" height="1"/>
	</g>
	<g id="XMLID_6_">
		<g id="XMLID_4_">
			<polygon id="XMLID_5_" points="7.8,5.6 9.5,3 8.2,3 8.2,1 7.5,1 7.5,3 6.2,3 			"/>
		</g>
		<rect id="XMLID_3_" x="6.2" y="6.6" width="3.3" height="1"/>
	</g>
	<g id="XMLID_11_">
		<polygon id="XMLID_12_" points="11.1,15 13.4,11.1 11.6,11.1 11.6,5.4 10.6,5.4 10.6,11.1 8.8,11.1 		"/>
	</g>
</g>
<g>
	<path d="M0,10.1c2.8,0,3.9-0.5,4.5-1.1C5,8.4,5.1,6.5,5.1,6C3.4,6.8,1.7,7.2,0,7.2V10.1L0,10.1z"/>
	<path d="M0,15L0,15c2.8,0,3.9-0.5,4.5-1.1c0.5-0.6,0.6-2.5,0.6-3c-1.7,0.8-3.4,1.2-5.1,1.2V15z"/>
	<path d="M5.1,3.2C5.1,2,2.8,1.1,0,1.1v4.3C2.8,5.4,5.1,4.5,5.1,3.2z"/>
</g>
</svg>
