<?xml version="1.0" encoding="utf-8"?>
<!-- Generator: Adobe Illustrator 19.1.0, SVG Export Plug-In . SVG Version: 6.00 Build 0)  -->
<!DOCTYPE svg PUBLIC "-//W3C//DTD SVG 1.1//EN" "http://www.w3.org/Graphics/SVG/1.1/DTD/svg11.dtd">
<svg version="1.1" id="Ebene_1" xmlns="http://www.w3.org/2000/svg" xmlns:xlink="http://www.w3.org/1999/xlink" x="0px" y="0px"
	 viewBox="0 0 16 16" style="enable-background:new 0 0 16 16;" xml:space="preserve">
<g id="YCp0BI.tif_6_">
	<g>
		<path d="M11.4,9.9c-0.7-0.1-0.4-1.2-0.7-1.5c-0.4-0.6-1.2-0.1-1.8,0.2C8.5,8.8,8,8.7,8.2,8.1c0.1-0.4,0.5-0.6,0.5-1
			c0.1-0.4,0.1-0.8-0.4-1C7.9,5.9,6.7,6.1,7,5.3c0.2-0.6,1.2-0.2,1.6-0.8s0-1-0.3-1.5C8.1,2.6,8,2.5,8.4,2.2c0.4-0.3,0.4,0,0.8,0.2
			c0.5,0.4,1.2,0.4,1.6-0.2c0.2-0.3,0.1-1.6,1-1.3c0.4,0.1,0,1.3,0.8,1.7c0.2,0.1,0.4,0.2,0.7,0.1c0.4-0.1,0.6-0.6,0.9-0.6
			c0.2,0,0.4,0.1,0.5,0.3c0.2,0.3,0.1,0.4-0.1,0.7c-0.4,0.6-0.6,1.3,0.1,1.7c0.5,0.3,1.4,0,1.3,0.7s-0.8,0.3-1.3,0.6
			c-0.7,0.5-0.4,1.2,0,1.7c0.2,0.3,0.3,0.3,0.1,0.7c-0.2,0.2-0.2,0.3-0.6,0.2c-0.4-0.1-0.8-0.6-1.3-0.6c-0.3,0-0.6,0.2-0.8,0.5
			C11.8,9.1,12.2,9.9,11.4,9.9C11.3,9.9,11.4,9.9,11.4,9.9z M9.3,5.4c0,1.2,0.9,2.1,2.1,2.1s2.1-0.9,2.1-2.1s-0.9-2.1-2.1-2.1
			C10.3,3.3,9.3,4.3,9.3,5.4z"/>
	</g>
</g>
<g id="XMLID_11_">
	<polygon id="XMLID_12_" points="7.1,12.9 10.9,15.2 10.9,13.4 16,13.4 16,12.4 10.9,12.4 10.9,10.7 	"/>
</g>
<g>
	<path d="M0,10.2c2.8,0,3.9-0.5,4.5-1.1c0.5-0.6,0.6-2.5,0.6-3C3.4,6.9,1.7,7.3,0,7.3V10.2L0,10.2z"/>
	<path d="M0,15L0,15c2.8,0,3.9-0.5,4.5-1.1c0.5-0.6,0.6-2.5,0.6-3c-1.7,0.8-3.4,1.2-5.1,1.2V15z"/>
	<path d="M5.1,3.3c0-1.2-2.3-2.1-5.1-2.1v4.3C2.8,5.4,5.1,4.5,5.1,3.3z"/>
</g>
</svg>
