<?xml version="1.0" encoding="utf-8"?>
<!-- Generator: Adobe Illustrator 19.1.0, SVG Export Plug-In . SVG Version: 6.00 Build 0)  -->
<!DOCTYPE svg PUBLIC "-//W3C//DTD SVG 1.1//EN" "http://www.w3.org/Graphics/SVG/1.1/DTD/svg11.dtd">
<svg version="1.1" id="Ebene_1" xmlns="http://www.w3.org/2000/svg" xmlns:xlink="http://www.w3.org/1999/xlink" x="0px" y="0px"
	 viewBox="0 0 16 16" style="enable-background:new 0 0 16 16;" xml:space="preserve">
<g>
	<polygon points="16,2.2 16,1.4 13.8,1.4 13.8,1.4 13.8,5.6 12.5,5.6 14.2,8.4 15.8,5.6 14.5,5.6 14.5,2.2 	"/>
	<polygon points="6.4,2.2 6.4,1.4 8.6,1.4 8.6,1.4 8.6,5.6 9.9,5.6 8.2,8.4 6.6,5.6 7.9,5.6 7.9,2.2 	"/>
	<g id="XMLID_11_">
		<polygon id="XMLID_12_" points="11.2,14.5 13.5,10.6 11.7,10.6 11.7,4.9 10.7,4.9 10.7,10.6 8.9,10.6 		"/>
	</g>
</g>
<g>
	<path d="M0,10.1c2.8,0,3.9-0.5,4.5-1.1C5,8.4,5.1,6.5,5.1,6C3.4,6.8,1.7,7.2,0,7.2V10.1L0,10.1z"/>
	<path d="M0,14.9L0,14.9c2.8,0,3.9-0.5,4.5-1.1c0.5-0.6,0.6-2.5,0.6-3C3.4,11.6,1.7,12,0,12V14.9z"/>
	<path d="M5.1,3.2C5.1,2,2.8,1.1,0,1.1v4.3C2.8,5.3,5.1,4.4,5.1,3.2z"/>
</g>
</svg>
