<?xml version="1.0" encoding="utf-8"?>
<!-- Generator: Adobe Illustrator 19.1.0, SVG Export Plug-In . SVG Version: 6.00 Build 0)  -->
<!DOCTYPE svg PUBLIC "-//W3C//DTD SVG 1.1//EN" "http://www.w3.org/Graphics/SVG/1.1/DTD/svg11.dtd">
<svg version="1.1" id="Ebene_1" xmlns="http://www.w3.org/2000/svg" xmlns:xlink="http://www.w3.org/1999/xlink" x="0px" y="0px"
	 viewBox="-412 290.3 16 16" style="enable-background:new -412 290.3 16 16;" xml:space="preserve">
<style type="text/css">
	.st0{fill:#FFD104;}
</style>
<g>
	<polygon points="-396,292.5 -396,291.7 -398.2,291.7 -398.2,291.7 -398.2,295.9 -399.5,295.9 -397.8,298.7 -396.2,295.9 
		-397.5,295.9 -397.5,292.5 	"/>
	<polygon points="-405.6,292.5 -405.6,291.7 -403.4,291.7 -403.4,291.7 -403.4,295.9 -402.1,295.9 -403.8,298.7 -405.4,295.9 
		-404.1,295.9 -404.1,292.5 	"/>
	<g id="XMLID_11_">
		<polygon id="XMLID_12_" points="-400.8,304.8 -398.5,300.9 -400.3,300.9 -400.3,295.2 -401.3,295.2 -401.3,300.9 -403.1,300.9 		
			"/>
	</g>
</g>
<g>
	<path class="st0" d="M-412,300.4c2.8,0,3.9-0.5,4.5-1.1c0.5-0.6,0.6-2.5,0.6-3c-1.7,0.8-3.4,1.2-5.1,1.2V300.4L-412,300.4z"/>
	<path class="st0" d="M-412,305.2L-412,305.2c2.8,0,3.9-0.5,4.5-1.1c0.5-0.6,0.6-2.5,0.6-3c-1.7,0.8-3.4,1.2-5.1,1.2V305.2z"/>
	<path class="st0" d="M-406.9,293.5c0-1.2-2.3-2.1-5.1-2.1v4.3C-409.2,295.6-406.9,294.7-406.9,293.5z"/>
</g>
</svg>
