<?xml version="1.0" encoding="utf-8"?>
<!-- Generator: Adobe Illustrator 19.1.0, SVG Export Plug-In . SVG Version: 6.00 Build 0)  -->
<!DOCTYPE svg PUBLIC "-//W3C//DTD SVG 1.1//EN" "http://www.w3.org/Graphics/SVG/1.1/DTD/svg11.dtd">
<svg version="1.1" id="Ebene_1" xmlns="http://www.w3.org/2000/svg" xmlns:xlink="http://www.w3.org/1999/xlink" x="0px" y="0px"
	 viewBox="-412 290.3 16 16" style="enable-background:new -412 290.3 16 16;" xml:space="preserve">
<style type="text/css">
	.st0{fill:#FFD104;}
</style>
<path d="M-397.2,295.2c-1.6-1.6-4.2-1.6-5.8,0c-0.3,0.3-0.3,0.7,0,0.9c0.3,0.3,0.7,0.3,0.9,0c1.1-1.1,2.9-1.1,4,0
	c1.1,1.1,1.1,2.9,0,4c-0.9,0.9-2.4,1.1-3.5,0.4l1-1l-4.3-1.2l1.2,4.2l1.1-1.1c0.7,0.5,1.6,0.8,2.4,0.8c1.1,0,2.1-0.4,2.9-1.2
	C-395.6,299.5-395.6,296.8-397.2,295.2z"/>
<g>
	<path class="st0" d="M-412,300.4c2.8,0,3.9-0.5,4.5-1.1c0.5-0.6,0.6-2.5,0.6-3c-1.7,0.8-3.4,1.2-5.1,1.2V300.4L-412,300.4z"/>
	<path class="st0" d="M-412,305.2L-412,305.2c2.8,0,3.9-0.5,4.5-1.1c0.5-0.6,0.6-2.5,0.6-3c-1.7,0.8-3.4,1.2-5.1,1.2V305.2z"/>
	<path class="st0" d="M-406.9,293.5c0-1.2-2.3-2.1-5.1-2.1v4.3C-409.2,295.6-406.9,294.7-406.9,293.5z"/>
</g>
</svg>
