<?xml version="1.0" encoding="utf-8"?>
<!-- Generator: Adobe Illustrator 19.1.0, SVG Export Plug-In . SVG Version: 6.00 Build 0)  -->
<!DOCTYPE svg PUBLIC "-//W3C//DTD SVG 1.1//EN" "http://www.w3.org/Graphics/SVG/1.1/DTD/svg11.dtd">
<svg version="1.1" id="Ebene_1" xmlns="http://www.w3.org/2000/svg" xmlns:xlink="http://www.w3.org/1999/xlink" x="0px" y="0px"
	 viewBox="0 0 16 16" style="enable-background:new 0 0 16 16;" xml:space="preserve">
<path d="M14.8,4.9c-1.6-1.6-4.2-1.6-5.8,0C8.7,5.2,8.7,5.6,9,5.8c0.3,0.3,0.7,0.3,0.9,0c1.1-1.1,2.9-1.1,4,0s1.1,2.9,0,4
	c-0.9,0.9-2.4,1.1-3.5,0.4l1-1L7.1,8l1.2,4.2l1.1-1.1c0.7,0.5,1.6,0.8,2.4,0.8c1.1,0,2.1-0.4,2.9-1.2C16.4,9.2,16.4,6.5,14.8,4.9z"
	/>
<g>
	<path d="M0,10.1c2.8,0,3.9-0.5,4.5-1.1C5,8.4,5.1,6.5,5.1,6C3.4,6.8,1.7,7.2,0,7.2V10.1L0,10.1z"/>
	<path d="M0,14.9L0,14.9c2.8,0,3.9-0.5,4.5-1.1c0.5-0.6,0.6-2.5,0.6-3C3.4,11.6,1.7,12,0,12V14.9z"/>
	<path d="M5.1,3.2C5.1,2,2.8,1.1,0,1.1v4.3C2.8,5.3,5.1,4.4,5.1,3.2z"/>
</g>
</svg>
