<?xml version="1.0" encoding="utf-8"?>
<!-- Generator: Adobe Illustrator 19.1.0, SVG Export Plug-In . SVG Version: 6.00 Build 0)  -->
<!DOCTYPE svg PUBLIC "-//W3C//DTD SVG 1.1//EN" "http://www.w3.org/Graphics/SVG/1.1/DTD/svg11.dtd">
<svg version="1.1" id="Ebene_1" xmlns="http://www.w3.org/2000/svg" xmlns:xlink="http://www.w3.org/1999/xlink" x="0px" y="0px"
	 viewBox="-412 290.3 16 16" style="enable-background:new -412 290.3 16 16;" xml:space="preserve">
<style type="text/css">
	.st0{fill:#FFD104;}
</style>
<g id="XMLID_11_">
	<polygon id="XMLID_12_" points="-396,303.3 -399.9,301 -399.9,302.8 -405.6,302.8 -405.6,303.8 -399.9,303.8 -399.9,305.6 	"/>
</g>
<g id="XMLID_13_">
	<path id="XMLID_14_" d="M-400.9,297.8h-1.5c0,0-0.1-1.7,0.2-2c0.3-0.3,2.1-1.6,2.1-2.4c0-0.8-0.5-1.1-1.4-1.1s-1.7,0.8-1.7,1.3
		l-1.5-0.2c0.2-1.4,1.4-2.5,3.1-2.5c1.7,0,3.1,0.9,3.1,2.4s-2,2.9-2.3,3.2C-401.1,296.8-400.9,297.8-400.9,297.8z M-402.4,300.3
		v-1.7h1.6v1.7H-402.4L-402.4,300.3z"/>
</g>
<g>
	<path class="st0" d="M-412,300.4c2.8,0,3.9-0.5,4.5-1.1c0.5-0.6,0.6-2.5,0.6-3c-1.7,0.8-3.4,1.2-5.1,1.2V300.4L-412,300.4z"/>
	<path class="st0" d="M-412,305.2L-412,305.2c2.8,0,3.9-0.5,4.5-1.1c0.5-0.6,0.6-2.5,0.6-3c-1.7,0.8-3.4,1.2-5.1,1.2V305.2z"/>
	<path class="st0" d="M-406.9,293.5c0-1.2-2.3-2.1-5.1-2.1v4.3C-409.2,295.6-406.9,294.7-406.9,293.5z"/>
</g>
</svg>
