<?xml version="1.0" encoding="utf-8"?>
<!-- Generator: Adobe Illustrator 19.1.0, SVG Export Plug-In . SVG Version: 6.00 Build 0)  -->
<!DOCTYPE svg PUBLIC "-//W3C//DTD SVG 1.1//EN" "http://www.w3.org/Graphics/SVG/1.1/DTD/svg11.dtd">
<svg version="1.1" id="Ebene_1" xmlns="http://www.w3.org/2000/svg" xmlns:xlink="http://www.w3.org/1999/xlink" x="0px" y="0px"
	 viewBox="0 0 16 16" style="enable-background:new 0 0 16 16;" xml:space="preserve">
<g id="XMLID_11_">
	<polygon id="XMLID_12_" points="16,13.1 12.1,10.8 12.1,12.6 6.4,12.6 6.4,13.6 12.1,13.6 12.1,15.4 	"/>
</g>
<g id="XMLID_13_">
	<path id="XMLID_14_" d="M11.1,7.6H9.6c0,0-0.1-1.7,0.2-2c0.3-0.3,2.1-1.6,2.1-2.4s-0.5-1.1-1.4-1.1S8.8,2.8,8.8,3.3L7.3,3.1
		c0.2-1.4,1.4-2.5,3.1-2.5s3.1,0.9,3.1,2.4s-2,2.9-2.3,3.2C10.9,6.6,11.1,7.6,11.1,7.6z M9.6,10.1V8.3h1.6v1.7H9.6L9.6,10.1z"/>
</g>
<g>
	<path d="M0,10.2c2.8,0,3.9-0.5,4.5-1.1c0.5-0.6,0.6-2.5,0.6-3C3.4,6.8,1.7,7.3,0,7.3V10.2L0,10.2z"/>
	<path d="M0,15L0,15c2.8,0,3.9-0.5,4.5-1.1c0.5-0.6,0.6-2.5,0.6-3c-1.7,0.8-3.4,1.2-5.1,1.2V15z"/>
	<path d="M5.1,3.3c0-1.2-2.3-2.1-5.1-2.1v4.3C2.8,5.4,5.1,4.5,5.1,3.3z"/>
</g>
</svg>
