<?xml version="1.0" encoding="utf-8"?>
<!-- Generator: Adobe Illustrator 19.1.0, SVG Export Plug-In . SVG Version: 6.00 Build 0)  -->
<!DOCTYPE svg PUBLIC "-//W3C//DTD SVG 1.1//EN" "http://www.w3.org/Graphics/SVG/1.1/DTD/svg11.dtd">
<svg version="1.1" id="Ebene_1" xmlns="http://www.w3.org/2000/svg" xmlns:xlink="http://www.w3.org/1999/xlink" x="0px" y="0px"
	 viewBox="-412 290.3 16 16" style="enable-background:new -412 290.3 16 16;" xml:space="preserve">
<style type="text/css">
	.st0{fill:#FFD104;}
</style>
<g>
	<g id="XMLID_1_">
		<g id="XMLID_8_">
			<polygon id="XMLID_10_" points="-401,293.2 -403.7,291.6 -403.7,292.9 -405.6,292.9 -405.6,293.6 -403.7,293.6 -403.7,294.9 			
				"/>
		</g>
		<rect id="XMLID_2_" x="-400" y="291.6" width="1" height="3.3"/>
	</g>
	<g id="XMLID_6_">
		<g id="XMLID_4_">
			<polygon id="XMLID_5_" points="-401,303.3 -403.7,301.6 -403.7,302.9 -405.6,302.9 -405.6,303.6 -403.7,303.6 -403.7,304.9 			
				"/>
		</g>
		<rect id="XMLID_3_" x="-400" y="301.6" width="1" height="3.3"/>
	</g>
	<g id="XMLID_11_">
		<polygon id="XMLID_12_" points="-396,298.3 -399.9,296 -399.9,297.8 -405.6,297.8 -405.6,298.8 -399.9,298.8 -399.9,300.6 		"/>
	</g>
</g>
<g>
	<path class="st0" d="M-412,300.4c2.8,0,3.9-0.5,4.5-1.1c0.5-0.6,0.6-2.5,0.6-3c-1.7,0.8-3.4,1.2-5.1,1.2V300.4L-412,300.4z"/>
	<path class="st0" d="M-412,305.2L-412,305.2c2.8,0,3.9-0.5,4.5-1.1c0.5-0.6,0.6-2.5,0.6-3c-1.7,0.8-3.4,1.2-5.1,1.2V305.2z"/>
	<path class="st0" d="M-406.9,293.5c0-1.2-2.3-2.1-5.1-2.1v4.3C-409.2,295.6-406.9,294.7-406.9,293.5z"/>
</g>
</svg>
