<?xml version="1.0" encoding="utf-8"?>
<!-- Generator: Adobe Illustrator 19.1.0, SVG Export Plug-In . SVG Version: 6.00 Build 0)  -->
<!DOCTYPE svg PUBLIC "-//W3C//DTD SVG 1.1//EN" "http://www.w3.org/Graphics/SVG/1.1/DTD/svg11.dtd">
<svg version="1.1" id="Ebene_1" xmlns="http://www.w3.org/2000/svg" xmlns:xlink="http://www.w3.org/1999/xlink" x="0px" y="0px"
	 viewBox="0 0 16 16" style="enable-background:new 0 0 16 16;" xml:space="preserve">
<g>
	<g id="XMLID_1_">
		<g id="XMLID_8_">
			<polygon id="XMLID_10_" points="11,2.9 8.3,1.3 8.3,2.6 6.4,2.6 6.4,3.3 8.3,3.3 8.3,4.6 			"/>
		</g>
		<rect id="XMLID_2_" x="12" y="1.3" width="1" height="3.3"/>
	</g>
	<g id="XMLID_6_">
		<g id="XMLID_4_">
			<polygon id="XMLID_5_" points="11,13 8.3,11.3 8.3,12.6 6.4,12.6 6.4,13.3 8.3,13.3 8.3,14.6 			"/>
		</g>
		<rect id="XMLID_3_" x="12" y="11.3" width="1" height="3.3"/>
	</g>
	<g id="XMLID_11_">
		<polygon id="XMLID_12_" points="16,8 12.1,5.7 12.1,7.5 6.4,7.5 6.4,8.5 12.1,8.5 12.1,10.3 		"/>
	</g>
</g>
<g>
	<path d="M0,10.1c2.8,0,3.9-0.5,4.5-1.1C5,8.4,5.1,6.5,5.1,6C3.4,6.8,1.7,7.2,0,7.2V10.1L0,10.1z"/>
	<path d="M0,14.9L0,14.9c2.8,0,3.9-0.5,4.5-1.1c0.5-0.6,0.6-2.5,0.6-3C3.4,11.6,1.7,12,0,12V14.9z"/>
	<path d="M5.1,3.2C5.1,2,2.8,1.1,0,1.1v4.3C2.8,5.3,5.1,4.4,5.1,3.2z"/>
</g>
</svg>
