<?xml version="1.0" encoding="utf-8"?>
<!-- Generator: Adobe Illustrator 19.1.0, SVG Export Plug-In . SVG Version: 6.00 Build 0)  -->
<!DOCTYPE svg PUBLIC "-//W3C//DTD SVG 1.1//EN" "http://www.w3.org/Graphics/SVG/1.1/DTD/svg11.dtd">
<svg version="1.1" id="Ebene_1" xmlns="http://www.w3.org/2000/svg" xmlns:xlink="http://www.w3.org/1999/xlink" x="0px" y="0px"
	 viewBox="0 0 16 16" style="enable-background:new 0 0 16 16;" xml:space="preserve">
<g>
	<path d="M1.5,10.1C4.3,10.1,5.4,9.6,6,9c0.5-0.6,0.6-2.5,0.6-3C4.9,6.8,3.2,7.2,1.5,7.2V10.1L1.5,10.1z"/>
	<path d="M1.5,14.9L1.5,14.9c2.8,0,3.9-0.5,4.5-1.1c0.5-0.6,0.6-2.5,0.6-3C4.9,11.6,3.2,12,1.5,12V14.9z"/>
	<path d="M6.6,3.2c0-1.2-2.3-2.1-5.1-2.1v4.3C4.3,5.3,6.6,4.4,6.6,3.2z"/>
</g>
<g>
	<g id="XMLID_11_">
		<polygon id="XMLID_12_" points="14.5,4.5 10.7,2.3 10.7,6.8 		"/>
	</g>
	<g>
		<path d="M9.9,12.9c0.2,0,1.1-0.1,1.1-0.1s0.2,0.5,0.3,0.7c0.2,0.3,0.6,0.4,1,0.4c0.5,0,1.3-0.3,1.1-1c-0.2-0.5-1.2-0.6-1.6-0.7
			c-0.7-0.2-1.3-0.5-1.6-1.2c-0.2-0.7,0.1-1.4,0.7-1.8c1.3-0.8,3.5-0.3,3.5,1.4c-0.2,0-1.1,0-1.1,0s-0.2-0.5-0.4-0.6
			c-0.2-0.2-0.5-0.2-0.7-0.2c-0.6,0-1.4,0.4-0.7,1c0.5,0.4,1.4,0.4,1.9,0.6c1.5,0.6,1.5,2.6,0,3.2C11.9,15.3,10.1,14.6,9.9,12.9z"/>
	</g>
</g>
</svg>
