<?xml version="1.0" encoding="UTF-8" standalone="no"?>
<!-- Generator: Adobe Illustrator 19.0.0, SVG Export Plug-In . SVG Version: 6.00 Build 0)  -->

<svg
   xmlns:osb="http://www.openswatchbook.org/uri/2009/osb"
   xmlns:dc="http://purl.org/dc/elements/1.1/"
   xmlns:cc="http://creativecommons.org/ns#"
   xmlns:rdf="http://www.w3.org/1999/02/22-rdf-syntax-ns#"
   xmlns:svg="http://www.w3.org/2000/svg"
   xmlns="http://www.w3.org/2000/svg"
   xmlns:sodipodi="http://sodipodi.sourceforge.net/DTD/sodipodi-0.dtd"
   xmlns:inkscape="http://www.inkscape.org/namespaces/inkscape"
   version="1.1"
   id="Ebene_1"
   x="0px"
   y="0px"
   viewBox="0 0 16 16"
   style="enable-background:new 0 0 16 16;"
   xml:space="preserve"
   inkscape:version="0.91 r13725"
   sodipodi:docname="outlier.svg"><metadata
     id="metadata17"><rdf:RDF><cc:Work
         rdf:about=""><dc:format>image/svg+xml</dc:format><dc:type
           rdf:resource="http://purl.org/dc/dcmitype/StillImage" /><dc:title></dc:title></cc:Work></rdf:RDF></metadata><defs
     id="defs15"><linearGradient
       id="linearGradient5670"
       osb:paint="solid"><stop
         style="stop-color:#000000;stop-opacity:1;"
         offset="0"
         id="stop5672" /></linearGradient><linearGradient
       id="linearGradient5652"
       osb:paint="solid"><stop
         style="stop-color:#000000;stop-opacity:1;"
         offset="0"
         id="stop5654" /></linearGradient><linearGradient
       id="linearGradient5646"
       osb:paint="solid"><stop
         style="stop-color:#000000;stop-opacity:1;"
         offset="0"
         id="stop5648" /></linearGradient><linearGradient
       id="linearGradient4196"
       osb:paint="solid"><stop
         style="stop-color:#ff0000;stop-opacity:1;"
         offset="0"
         id="stop4198" /></linearGradient></defs><sodipodi:namedview
     pagecolor="#ffffff"
     bordercolor="#666666"
     borderopacity="1"
     objecttolerance="10"
     gridtolerance="10"
     guidetolerance="10"
     inkscape:pageopacity="0"
     inkscape:pageshadow="2"
     inkscape:window-width="3440"
     inkscape:window-height="1376"
     id="namedview13"
     showgrid="true"
     inkscape:zoom="74.1875"
     inkscape:cx="8"
     inkscape:cy="8"
     inkscape:window-x="0"
     inkscape:window-y="27"
     inkscape:window-maximized="1"
     inkscape:current-layer="Ebene_1"><inkscape:grid
       type="xygrid"
       id="grid3375" /></sodipodi:namedview><style
     type="text/css"
     id="style3">
	.st0{fill:#FFFFFF;}
</style><path
     inkscape:connector-curvature="0"
     id="path11"
     d="m 11.072684,10.865257 0,-5.742753 -2.8089551,0 0,-1.4981096 1.4356884,0 0,-0.6242123 -3.4955891,0 0,0.6242123 1.4356884,0 0,1.4981096 -2.8089555,0 0,5.742753 2.8089555,0 0,1.49811 -1.4356884,0 0,0.624212 3.5580103,0 0,-0.624212 -1.4981096,0 0,-1.49811 2.8089551,0 z m -5.6179106,-5.1185406 4.9936986,0 0,1.9974794 -4.9936986,0 0,-1.9974794 z m 0,4.4943286 0,-1.8726369 4.9936986,0 0,1.8726369 -4.9936986,0 z" /><path
     inkscape:connector-curvature="0"
     id="path4164"
     d="m 5.4625542,6.7430658 0,-0.9864943 2.4876815,0 2.4876813,0 0,0.9864943 0,0.9864944 -2.4876813,0 -2.4876815,0 0,-0.9864944 z"
     style="fill:#ffd800;fill-opacity:0;stroke:none;stroke-opacity:1" /><path
     inkscape:connector-curvature="0"
     id="path4166"
     d="m 5.4625542,6.7430658 0,-0.9864943 2.4876815,0 2.4876813,0 0,0.9864943 0,0.9864944 -2.4876813,0 -2.4876815,0 0,-0.9864944 z"
     style="fill:#ffd800;fill-opacity:0;stroke:none;stroke-opacity:1" /><path
     inkscape:connector-curvature="0"
     id="path4168"
     d="m 5.4625542,9.3069981 0,-0.9293063 2.4876815,0 2.4876813,0 0,0.9293063 0,0.9293059 -2.4876813,0 -2.4876815,0 0,-0.9293059 z"
     style="fill:#ffd800;fill-opacity:0;stroke:none;stroke-opacity:1" /><path
     inkscape:connector-curvature="0"
     id="rect3379-7"
     d="m 0.98957884,12.994809 14.00720116,0 0,3.005027 -14.00720116,0 z"
     style="fill:#ff0000;fill-opacity:0.50847461;fill-rule:evenodd;stroke:none;stroke-width:1px;stroke-linecap:butt;stroke-linejoin:miter;stroke-opacity:1" /><path
     inkscape:connector-curvature="0"
     id="rect3379-7-5"
     d="m 1.0090393,-1.6396213e-4 13.9952097,0 0,3.00502686213 -13.9952097,0 z"
     style="fill:#ff0000;fill-opacity:0.50847461;fill-rule:evenodd;stroke:none;stroke-width:1px;stroke-linecap:butt;stroke-linejoin:miter;stroke-opacity:1" /><path
     style="fill:#ffffff;fill-opacity:0;stroke:none"
     d="m 5.4804561,6.7411481 0,-0.9839932 2.4802022,0 2.4802027,0 0,0.9839932 0,0.9839933 -2.4802027,0 -2.4802022,0 0,-0.9839933 z"
     id="path4324"
     inkscape:connector-curvature="0" /><path
     style="fill:#ffffff;fill-opacity:0;stroke:none"
     d="m 5.4804561,6.7411481 0,-0.9839932 2.4802022,0 2.4802027,0 0,0.9839932 0,0.9839933 -2.4802027,0 -2.4802022,0 0,-0.9839933 z"
     id="path4326"
     inkscape:connector-curvature="0" /><path
     style="fill:#ffffff;fill-opacity:0;stroke:none"
     d="m 5.4804561,6.7411481 0,-0.9839932 2.4802022,0 2.4802027,0 0,0.9839932 0,0.9839933 -2.4802027,0 -2.4802022,0 0,-0.9839933 z"
     id="path4328"
     inkscape:connector-curvature="0" /><path
     style="fill:#ffffff;fill-opacity:0;stroke:none"
     d="m 5.4804561,6.7411481 0,-0.9839932 2.4802022,0 2.4802027,0 0,0.9839932 0,0.9839933 -2.4802027,0 -2.4802022,0 0,-0.9839933 z"
     id="path4330"
     inkscape:connector-curvature="0" /></svg>