<?xml version="1.0" encoding="utf-8"?>
<!-- Generator: Adobe Illustrator 19.0.0, SVG Export Plug-In . SVG Version: 6.00 Build 0)  -->
<!DOCTYPE svg PUBLIC "-//W3C//DTD SVG 1.1//EN" "http://www.w3.org/Graphics/SVG/1.1/DTD/svg11.dtd">
<svg version="1.1" id="Ebene_1" xmlns="http://www.w3.org/2000/svg" xmlns:xlink="http://www.w3.org/1999/xlink" x="0px" y="0px"
	 viewBox="0 0 16 16" style="enable-background:new 0 0 16 16;" xml:space="preserve">
<g>
	<path d="M0,10.1c2.8,0,3.9-0.5,4.5-1.1c0.5-0.6,0.6-2.5,0.6-3C3.4,6.8,1.7,7.2,0,7.2L0,10.1C0,10.1,0,10.1,0,10.1z"/>
	<path d="M0,14.9C0,14.9,0,14.9,0,14.9c2.8,0,3.9-0.5,4.5-1.1c0.5-0.6,0.6-2.5,0.6-3C3.4,11.6,1.7,12,0,12V14.9z"/>
	<path d="M5.1,3.2C5.1,2,2.8,1.1,0,1.1v4.3C2.8,5.3,5.1,4.4,5.1,3.2z"/>
</g>
<g id="XMLID_2_">
	<polygon id="XMLID_3_" points="16,8.9 16,7.2 12.6,7.2 12.6,3.4 6.9,3.4 6.9,5.1 10.8,5.1 10.8,10.8 6.9,10.8 6.9,12.6 12.6,12.6 
		12.6,8.9 	"/>
</g>
</svg>
