<?xml version="1.0" encoding="utf-8"?>
<!-- Generator: Adobe Illustrator 19.0.0, SVG Export Plug-In . SVG Version: 6.00 Build 0)  -->
<!DOCTYPE svg PUBLIC "-//W3C//DTD SVG 1.1//EN" "http://www.w3.org/Graphics/SVG/1.1/DTD/svg11.dtd">
<svg version="1.1" id="Ebene_1" xmlns="http://www.w3.org/2000/svg" xmlns:xlink="http://www.w3.org/1999/xlink" x="0px" y="0px"
	 viewBox="0 0 16 16" style="enable-background:new 0 0 16 16;" xml:space="preserve">
<style type="text/css">
	.st0{fill:#FFFFFF;}
</style>
<g id="XMLID_78_">
	<g id="XMLID_80_">
		<path id="XMLID_76_" class="st0" d="M5.6,0.8C3,0.8,0.8,3,0.8,5.6s2.2,4.8,4.8,4.8s4.8-2.2,4.8-4.8S8.3,0.8,5.6,0.8z"/>
		<path id="XMLID_81_" d="M5.6,0C2.6,0,0,2.5,0,5.6c0,3,2.5,5.6,5.6,5.6c3,0,5.6-2.5,5.6-5.6S8.7,0,5.6,0z M5.6,10.4
			c-2.6,0-4.8-2.2-4.8-4.8S3,0.8,5.6,0.8s4.8,2.2,4.8,4.8S8.3,10.4,5.6,10.4z"/>
	</g>
	<polygon id="XMLID_73_" points="6,6 2.4,6 2.4,5.2 5.2,5.2 5.2,1.3 6,1.3 	"/>
</g>
<g id="XMLID_11_">
	<polygon id="XMLID_12_" points="16,13.7 12.1,11.5 12.1,13.2 6.4,13.2 6.4,14.2 12.1,14.2 12.1,16 	"/>
</g>
</svg>
