<?xml version="1.0" encoding="utf-8"?>
<!-- Generator: Adobe Illustrator 19.1.0, SVG Export Plug-In . SVG Version: 6.00 Build 0)  -->
<!DOCTYPE svg PUBLIC "-//W3C//DTD SVG 1.1//EN" "http://www.w3.org/Graphics/SVG/1.1/DTD/svg11.dtd">
<svg version="1.1" id="Ebene_1" xmlns="http://www.w3.org/2000/svg" xmlns:xlink="http://www.w3.org/1999/xlink" x="0px" y="0px"
	 viewBox="0 0 16 16" style="enable-background:new 0 0 16 16;" xml:space="preserve">
<style type="text/css">
	.st0{fill:#FFFFFF;}
</style>
<g id="XMLID_163_">
	<rect id="XMLID_167_" x="1" y="11" class="st0" width="14" height="4"/>
	<path id="XMLID_164_" d="M16,10H0v6h16V10z M1,15v-4h14v4H1z"/>
</g>
<polygon id="XMLID_19_" points="13.6,5.3 13.6,2.2 13.6,2.2 13.6,2.1 10.4,2.1 10.4,2.9 12.8,2.9 12.8,5.3 11.6,5.3 13.2,8.1 
	14.9,5.3 "/>
<g>
	<g>
		<path class="st0" d="M4.6,0.6c-2.2,0-4,1.8-4,4s1.8,4,4,4s4-1.8,4-4S6.8,0.6,4.6,0.6z"/>
		<path d="M4.6,0C2.1,0,0,2,0,4.6c0,2.5,2,4.6,4.6,4.6c2.5,0,4.6-2,4.6-4.6S7.1,0,4.6,0z M4.6,8.6c-2.2,0-4-1.8-4-4s1.8-4,4-4
			s4,1.8,4,4S6.8,8.6,4.6,8.6z"/>
	</g>
	<polygon points="4.9,4.9 2,4.9 2,4.3 4.3,4.3 4.3,1 4.9,1 	"/>
</g>
</svg>
