<?xml version="1.0" encoding="utf-8"?>
<!-- Generator: Adobe Illustrator 19.1.0, SVG Export Plug-In . SVG Version: 6.00 Build 0)  -->
<!DOCTYPE svg PUBLIC "-//W3C//DTD SVG 1.1//EN" "http://www.w3.org/Graphics/SVG/1.1/DTD/svg11.dtd">
<svg version="1.1" id="Ebene_1" xmlns="http://www.w3.org/2000/svg" xmlns:xlink="http://www.w3.org/1999/xlink" x="0px" y="0px"
	 viewBox="-289 412.9 16 16" style="enable-background:new -289 412.9 16 16;" xml:space="preserve">
<style type="text/css">
	.st0{fill:#E64E4F;}
	.st1{fill:#C4D13B;}
	.st2{fill:#4BA1BF;}
</style>
<polygon id="XMLID_9_" points="-287.1,419.9 -287.1,422.3 -286.1,422.3 -286.1,419.9 -283.5,419.9 -283.5,422.3 -282.5,422.3 
	-282.5,419.9 -280,419.9 -280,422.3 -279,422.3 -279,419.9 -276.5,419.9 -276.5,422.3 -275.5,422.3 -275.5,419.9 "/>
<polygon id="XMLID_1_" class="st0" points="-283.7,417.9 -289,417.9 -289,419.9 -283.7,419.9 "/>
<polygon id="XMLID_3_" class="st1" points="-278.3,417.9 -283.7,417.9 -283.7,419.9 -278.3,419.9 "/>
<polygon id="XMLID_4_" class="st2" points="-273,417.9 -278.3,417.9 -278.3,419.9 -273,419.9 "/>
<path id="XMLID_6_" d="M-286.8,423c-0.1,0.3-0.4,0.7-0.7,0.9c-0.3,0.2-0.6,0.4-0.9,0.5v1c0.5-0.2,1-0.5,1.4-0.8v4.1h1.1v-5.8
	L-286.8,423L-286.8,423z"/>
<path id="XMLID_2_" d="M-280.7,426c-0.3-0.3-0.5-0.4-0.8-0.5c0.5-0.3,0.8-0.7,0.8-1.2c0-0.4-0.1-0.7-0.4-1c-0.3-0.3-0.8-0.5-1.3-0.5
	c-0.3,0-0.5,0-0.8,0.1c-0.3,0.1-0.6,0.4-0.7,0.6c-0.1,0.2-0.2,0.8-0.2,0.8l0.9,0.2c0,0,0-0.4,0.2-0.6c0.2-0.2,0.4-0.2,0.6-0.2
	c0.2,0,0.3,0.1,0.5,0.2c0.2,0.1,0.2,0.3,0.2,0.5c0,0.2-0.1,0.4-0.2,0.5c-0.1,0.1-0.4,0.2-0.7,0.2v0.8c0.2,0,0.3,0,0.4,0
	c0.2,0,0.4,0.1,0.5,0.2c0.1,0.1,0.2,0.4,0.2,0.7c0,0.3-0.1,0.5-0.2,0.7c-0.2,0.2-0.5,0.3-0.7,0.3c-0.2,0-0.4-0.1-0.5-0.2
	s-0.3-0.4-0.3-0.7l-1.1,0.1c0.1,0.5,0.3,0.9,0.6,1.2c0.3,0.3,0.8,0.5,1.3,0.5s1-0.2,1.4-0.5s0.6-0.8,0.6-1.3
	C-280.4,426.5-280.5,426.3-280.7,426z"/>
</svg>
