<?xml version="1.0" encoding="utf-8"?>
<!-- Generator: Adobe Illustrator 19.0.0, SVG Export Plug-In . SVG Version: 6.00 Build 0)  -->
<!DOCTYPE svg PUBLIC "-//W3C//DTD SVG 1.1//EN" "http://www.w3.org/Graphics/SVG/1.1/DTD/svg11.dtd">
<svg version="1.1" id="Ebene_1" xmlns="http://www.w3.org/2000/svg" xmlns:xlink="http://www.w3.org/1999/xlink" x="0px" y="0px"
	 viewBox="0 0 16 16" style="enable-background:new 0 0 16 16;" xml:space="preserve">
<style type="text/css">
	.st0{fill:#FFFFFF;}
	.st1{opacity:0.8;fill:#CBCBCB;}
</style>
<g>
	<g>
		<g>
			<rect x="1" y="1" class="st0" width="9.2" height="1.2"/>
			<rect x="1" y="3.2" class="st0" width="9.2" height="7.5"/>
			<path d="M0,0v11.7h11.2V0H0z M10.2,10.7H1V3.2h9.2V10.7z M10.2,2.2H1V1h9.2V2.2z"/>
		</g>
		<g>
			<path d="M2.7,8l0.9-0.1c0.1,0.7,0.9,1,1.2,0.3c0.4-0.7-0.3-1.3-1-1.1l0.1-0.7c0.5,0,1-0.4,0.7-0.9c-0.4-0.5-1-0.1-1,0.4L2.7,5.8
				c0.2-1,1.2-1.6,2.1-1.1c0.9,0.5,0.9,1.6,0,2.1C6.1,7,6,8.5,5.2,9.1C4.3,9.8,2.8,9.2,2.7,8z"/>
			<path d="M8.7,9.3H7.8V5.9C7.5,6.2,7.1,6.4,6.6,6.6V5.7C7.2,5.6,7.8,5.1,8,4.5h0.7V9.3z"/>
		</g>
	</g>
	<rect x="1" y="3.2" class="st1" width="9.2" height="7.5"/>
</g>
<g id="XMLID_78_">
	<g id="XMLID_80_">
		<path id="XMLID_76_" class="st0" d="M10.4,5.6c-2.6,0-4.8,2.2-4.8,4.8s2.2,4.8,4.8,4.8s4.8-2.2,4.8-4.8S13,5.6,10.4,5.6z"/>
		<path id="XMLID_81_" d="M10.4,4.8c-3,0-5.6,2.5-5.6,5.6c0,3,2.5,5.6,5.6,5.6c3,0,5.6-2.5,5.6-5.6S13.4,4.8,10.4,4.8z M10.4,15.2
			c-2.6,0-4.8-2.2-4.8-4.8s2.2-4.8,4.8-4.8s4.8,2.2,4.8,4.8S13,15.2,10.4,15.2z"/>
	</g>
	<polygon id="XMLID_73_" points="10.8,10.8 7.2,10.8 7.2,10 10,10 10,6.1 10.8,6.1 	"/>
</g>
</svg>
