<?xml version="1.0" encoding="utf-8"?>
<!-- Generator: Adobe Illustrator 19.1.0, SVG Export Plug-In . SVG Version: 6.00 Build 0)  -->
<!DOCTYPE svg PUBLIC "-//W3C//DTD SVG 1.1//EN" "http://www.w3.org/Graphics/SVG/1.1/DTD/svg11.dtd">
<svg version="1.1" id="Ebene_1" xmlns="http://www.w3.org/2000/svg" xmlns:xlink="http://www.w3.org/1999/xlink" x="0px" y="0px"
	 viewBox="-7 9 16 16" style="enable-background:new -7 9 16 16;" xml:space="preserve">
<style type="text/css">
	.st0{fill:#E64E4F;}
	.st1{fill:#FFD104;}
	.st2{fill:#C4D13B;}
</style>
<g>
	<g>
		<g>
			<path class="st0" d="M2.7,9v6.3H9C8.7,11.9,6,9.2,2.7,9z"/>
			<path class="st1" d="M6.8,20.8c1.2-1.3,2-2.9,2.1-4.7H2.7L6.8,20.8z"/>
			<path class="st2" d="M1.7,16.4V9c-3.5,0.2-6.6,2.5-6.6,6.9s3.2,6.9,7,6.9c2.4,0,3.9-1.3,3.9-1.3L1.7,16.4z"/>
		</g>
	</g>
	<path d="M-6.2,20.8c0-0.5,0-0.9,0-1.3c0.1-1.1,1-1.8,2-1.8c1.1,0,1.9,0.8,2,1.8c0,0.4,0,0.9,0,1.3c0.2,0,0.4,0,0.5,0
		c0.2,0,0.3,0.1,0.3,0.3c0,1.2,0,2.4,0,3.6c0,0.2-0.1,0.3-0.3,0.3c-1.7,0-3.4,0-5.1,0C-6.9,25-7,24.9-7,24.7c0-1.2,0-2.4,0-3.6
		c0-0.2,0.1-0.3,0.3-0.3C-6.5,20.8-6.4,20.8-6.2,20.8z M-2.9,20.8c0-0.4,0-0.8,0-1.1c0-0.7-0.5-1.2-1.1-1.3s-1.3,0.3-1.4,1
		c-0.1,0.4,0,0.9,0,1.4C-4.5,20.8-3.7,20.8-2.9,20.8z"/>
</g>
</svg>
