<?xml version="1.0" encoding="utf-8"?>
<!-- Generator: Adobe Illustrator 19.1.0, SVG Export Plug-In . SVG Version: 6.00 Build 0)  -->
<!DOCTYPE svg PUBLIC "-//W3C//DTD SVG 1.1//EN" "http://www.w3.org/Graphics/SVG/1.1/DTD/svg11.dtd">
<svg version="1.1" id="Ebene_1" xmlns="http://www.w3.org/2000/svg" xmlns:xlink="http://www.w3.org/1999/xlink" x="0px" y="0px"
	 viewBox="-412 290.3 16 16" style="enable-background:new -412 290.3 16 16;" xml:space="preserve">
<style type="text/css">
	.st0{fill:#FFFFFF;}
	.st1{fill:#C4D13B;}
</style>
<g>
	<circle class="st0" cx="-409.6" cy="292.7" r="1.4"/>
	<path d="M-409.6,290.3c-1.3,0-2.4,1.1-2.4,2.4c0,1.3,1.1,2.4,2.4,2.4c1.3,0,2.4-1.1,2.4-2.4C-407.2,291.4-408.3,290.3-409.6,290.3z
		 M-409.6,294.1c-0.8,0-1.4-0.6-1.4-1.4c0-0.8,0.6-1.4,1.4-1.4c0.8,0,1.4,0.6,1.4,1.4C-408.2,293.5-408.8,294.1-409.6,294.1z"/>
</g>
<g>
	<circle class="st0" cx="-404" cy="296" r="1.4"/>
	<path d="M-404,293.6c-1.3,0-2.4,1.1-2.4,2.4c0,1.3,1.1,2.4,2.4,2.4s2.4-1.1,2.4-2.4C-401.6,294.7-402.7,293.6-404,293.6z
		 M-404,297.4c-0.8,0-1.4-0.6-1.4-1.4c0-0.8,0.6-1.4,1.4-1.4s1.4,0.6,1.4,1.4C-402.6,296.8-403.2,297.4-404,297.4z"/>
</g>
<g>
	<circle class="st0" cx="-404" cy="301.5" r="1.4"/>
	<path d="M-404,299c-1.3,0-2.4,1.1-2.4,2.4c0,1.3,1.1,2.4,2.4,2.4s2.4-1.1,2.4-2.4C-401.6,300.1-402.7,299-404,299z M-404,302.9
		c-0.8,0-1.4-0.6-1.4-1.4c0-0.8,0.6-1.5,1.4-1.5s1.4,0.6,1.4,1.4C-402.6,302.2-403.2,302.9-404,302.9z"/>
</g>
<g>
	<circle class="st0" cx="-409.6" cy="298.3" r="1.4"/>
	<path d="M-409.6,295.9c-1.3,0-2.4,1.1-2.4,2.4s1.1,2.4,2.4,2.4c1.3,0,2.4-1.1,2.4-2.4S-408.3,295.9-409.6,295.9z M-411,298.3
		c0-0.8,0.6-1.4,1.4-1.4c0.8,0,1.4,0.6,1.4,1.4s-0.6,1.4-1.4,1.4C-410.4,299.7-411,299.1-411,298.3z"/>
</g>
<g>
	<circle class="st0" cx="-409.6" cy="303.9" r="1.4"/>
	<path d="M-409.6,301.5c-1.3,0-2.4,1.1-2.4,2.4c0,1.3,1.1,2.4,2.4,2.4c1.3,0,2.4-1.1,2.4-2.4C-407.2,302.6-408.3,301.5-409.6,301.5z
		 M-411,303.9c0-0.8,0.6-1.4,1.4-1.4c0.8,0,1.4,0.6,1.4,1.4c0,0.8-0.6,1.4-1.4,1.4C-410.4,305.3-411,304.7-411,303.9z"/>
</g>
<g>
	<circle class="st0" cx="-398.4" cy="292.7" r="1.4"/>
	<path d="M-398.4,290.3c-1.3,0-2.4,1.1-2.4,2.4c0,1.3,1.1,2.4,2.4,2.4c1.3,0,2.4-1.1,2.4-2.4C-396,291.4-397.1,290.3-398.4,290.3z
		 M-398.4,294.1c-0.8,0-1.4-0.6-1.4-1.4c0-0.8,0.6-1.4,1.4-1.4c0.8,0,1.4,0.6,1.4,1.4C-397,293.5-397.6,294.1-398.4,294.1z"/>
</g>
<g>
	<circle class="st0" cx="-398.4" cy="298.3" r="1.4"/>
	<path d="M-398.4,295.9c-1.3,0-2.4,1.1-2.4,2.4s1.1,2.4,2.4,2.4c1.3,0,2.4-1.1,2.4-2.4S-397.1,295.9-398.4,295.9z M-399.8,298.3
		c0-0.8,0.6-1.4,1.4-1.4c0.8,0,1.4,0.6,1.4,1.4s-0.6,1.4-1.4,1.4C-399.2,299.7-399.8,299.1-399.8,298.3z"/>
</g>
<g>
	<circle class="st0" cx="-398.4" cy="303.9" r="1.4"/>
	<path d="M-398.4,301.5c-1.3,0-2.4,1.1-2.4,2.4c0,1.3,1.1,2.4,2.4,2.4c1.3,0,2.4-1.1,2.4-2.4C-396,302.6-397.1,301.5-398.4,301.5z
		 M-399.8,303.9c0-0.8,0.6-1.4,1.4-1.4c0.8,0,1.4,0.6,1.4,1.4c0,0.8-0.6,1.4-1.4,1.4C-399.2,305.3-399.8,304.7-399.8,303.9z"/>
</g>
<rect x="-408" y="293.8" transform="matrix(0.8094 0.5873 -0.5873 0.8094 95.3369 294.9248)" width="2.7" height="1"/>
<rect x="-401.6" y="293.2" transform="matrix(0.5155 0.8569 -0.8569 0.5155 57.9126 486.3602)" width="1" height="2.3"/>
<rect x="-402.4" y="296.6" transform="matrix(0.8714 0.4906 -0.4906 0.8714 94.1404 235.1354)" width="2" height="1"/>
<rect x="-407.3" y="295.9" transform="matrix(0.4757 0.8796 -0.8796 0.4757 48.1135 513.6053)" width="1" height="2.5"/>
<rect x="-408.2" y="299.5" transform="matrix(0.7931 0.6091 -0.6091 0.7931 98.5633 309.9039)" width="2.6" height="1"/>
<rect x="-401.6" y="298.8" transform="matrix(0.5408 0.8411 -0.8411 0.5408 68.2794 475.2465)" width="1" height="2.7"/>
<rect x="-402.3" y="302.4" transform="matrix(0.8813 0.4726 -0.4726 0.8813 95.5303 225.5812)" width="2.1" height="1"/>
<rect x="-407.1" y="302" transform="matrix(0.5222 0.8528 -0.8528 0.5222 64.0976 491.537)" width="1" height="1.9"/>
<g id="XMLID_18_">
	<polygon id="XMLID_51_" class="st1" points="-408.6,304.4 -398.7,298.3 -408.6,292.2 	"/>
	<path id="XMLID_20_" d="M-397.4,297.9l-11.4-7c-0.4-0.2-0.8,0-0.8,0.4v14c0,0.4,0.4,0.6,0.8,0.4l11.4-7
		C-397.1,298.5-397.1,298.1-397.4,297.9z M-408.6,304.4v-12.2l9.9,6.1L-408.6,304.4z"/>
</g>
</svg>
