<?xml version="1.0" encoding="utf-8"?>
<!-- Generator: Adobe Illustrator 19.0.0, SVG Export Plug-In . SVG Version: 6.00 Build 0)  -->
<!DOCTYPE svg PUBLIC "-//W3C//DTD SVG 1.1//EN" "http://www.w3.org/Graphics/SVG/1.1/DTD/svg11.dtd">
<svg version="1.1" id="Ebene_1" xmlns="http://www.w3.org/2000/svg" xmlns:xlink="http://www.w3.org/1999/xlink" x="0px" y="0px"
	 viewBox="0 0 16 16" style="enable-background:new 0 0 16 16;" xml:space="preserve">
<style type="text/css">
	.st0{fill:#FFFFFF;}
	.st1{fill:#CBCBCB;}
	.st2{fill:#1A171B;}
</style>
<g>
	<circle class="st0" cx="2.4" cy="2.4" r="1.4"/>
	<path d="M2.4,0C1.1,0,0,1.1,0,2.4s1.1,2.4,2.4,2.4s2.4-1.1,2.4-2.4S3.7,0,2.4,0z M2.4,3.8C1.6,3.8,1,3.2,1,2.4S1.6,1,2.4,1
		s1.4,0.6,1.4,1.4S3.2,3.8,2.4,3.8z"/>
</g>
<g>
	<circle class="st0" cx="8" cy="5.7" r="1.4"/>
	<path d="M8,3.3c-1.3,0-2.4,1.1-2.4,2.4S6.7,8.1,8,8.1s2.4-1.1,2.4-2.4S9.3,3.3,8,3.3z M8,7.1c-0.8,0-1.4-0.6-1.4-1.4S7.2,4.3,8,4.3
		s1.4,0.6,1.4,1.4S8.8,7.1,8,7.1z"/>
</g>
<g>
	<circle class="st0" cx="8" cy="11.2" r="1.4"/>
	<path d="M8,8.7c-1.3,0-2.4,1.1-2.4,2.4s1.1,2.4,2.4,2.4s2.4-1.1,2.4-2.4S9.3,8.7,8,8.7z M8,12.6c-0.8,0-1.4-0.6-1.4-1.4
		S7.2,9.7,8,9.7s1.4,0.6,1.4,1.4S8.8,12.6,8,12.6z"/>
</g>
<g>
	<circle class="st0" cx="2.4" cy="8" r="1.4"/>
	<path d="M2.4,5.6C1.1,5.6,0,6.7,0,8s1.1,2.4,2.4,2.4S4.8,9.3,4.8,8S3.7,5.6,2.4,5.6z M1,8c0-0.8,0.6-1.4,1.4-1.4S3.8,7.2,3.8,8
		S3.2,9.4,2.4,9.4S1,8.8,1,8z"/>
</g>
<g>
	<circle class="st0" cx="2.4" cy="13.6" r="1.4"/>
	<path d="M2.4,11.2c-1.3,0-2.4,1.1-2.4,2.4S1.1,16,2.4,16s2.4-1.1,2.4-2.4S3.7,11.2,2.4,11.2z M1,13.6c0-0.8,0.6-1.4,1.4-1.4
		s1.4,0.6,1.4,1.4S3.2,15,2.4,15S1,14.4,1,13.6z"/>
</g>
<g>
	<circle class="st0" cx="13.6" cy="2.4" r="1.4"/>
	<path d="M13.6,0c-1.3,0-2.4,1.1-2.4,2.4s1.1,2.4,2.4,2.4S16,3.7,16,2.4S14.9,0,13.6,0z M13.6,3.8c-0.8,0-1.4-0.6-1.4-1.4
		S12.8,1,13.6,1S15,1.6,15,2.4S14.4,3.8,13.6,3.8z"/>
</g>
<g>
	<circle class="st0" cx="13.6" cy="8" r="1.4"/>
	<path d="M13.6,5.6c-1.3,0-2.4,1.1-2.4,2.4s1.1,2.4,2.4,2.4S16,9.3,16,8S14.9,5.6,13.6,5.6z M12.2,8c0-0.8,0.6-1.4,1.4-1.4
		S15,7.2,15,8s-0.6,1.4-1.4,1.4S12.2,8.8,12.2,8z"/>
</g>
<g>
	<circle class="st0" cx="13.6" cy="13.6" r="1.4"/>
	<path d="M13.6,11.2c-1.3,0-2.4,1.1-2.4,2.4s1.1,2.4,2.4,2.4s2.4-1.1,2.4-2.4S14.9,11.2,13.6,11.2z M12.2,13.6
		c0-0.8,0.6-1.4,1.4-1.4s1.4,0.6,1.4,1.4S14.4,15,13.6,15S12.2,14.4,12.2,13.6z"/>
</g>
<rect x="4" y="3.6" transform="matrix(-0.8094 -0.5873 0.5873 -0.8094 7.2708 10.5057)" width="2.7" height="1"/>
<rect x="10.4" y="2.9" transform="matrix(-0.5155 -0.8569 0.8569 -0.5155 13.0177 15.5401)" width="1" height="2.3"/>
<rect x="9.6" y="6.4" transform="matrix(-0.8714 -0.4906 0.4906 -0.8714 16.4552 18.0519)" width="2" height="1"/>
<rect x="4.7" y="5.6" transform="matrix(-0.4757 -0.8796 0.8796 -0.4757 1.6707 14.7148)" width="1" height="2.5"/>
<rect x="3.8" y="9.3" transform="matrix(-0.7931 -0.6091 0.6091 -0.7931 3.2004 20.6291)" width="2.6" height="1"/>
<rect x="10.3" y="8.5" transform="matrix(-0.5408 -0.8411 0.8411 -0.5408 8.4088 24.2923)" width="1" height="2.7"/>
<rect x="9.7" y="12.2" transform="matrix(-0.8813 -0.4726 0.4726 -0.8813 14.2418 28.9265)" width="2.1" height="1"/>
<rect x="4.8" y="11.8" transform="matrix(-0.5222 -0.8528 0.8528 -0.5222 -2.734 23.871)" width="1" height="1.9"/>
<g id="XMLID_18_">
	<polygon id="XMLID_51_" class="st1" points="3.4,14.1 13.3,8 3.4,1.9 	"/>
	<path id="XMLID_20_" class="st2" d="M14.6,7.6l-11.4-7C2.8,0.4,2.4,0.6,2.4,1v14c0,0.4,0.4,0.6,0.8,0.4l11.4-7
		C14.9,8.2,14.9,7.8,14.6,7.6z M3.4,14.1V1.9L13.3,8L3.4,14.1z"/>
</g>
</svg>
