<?xml version="1.0" encoding="utf-8"?>
<!-- Generator: Adobe Illustrator 19.0.0, SVG Export Plug-In . SVG Version: 6.00 Build 0)  -->
<!DOCTYPE svg PUBLIC "-//W3C//DTD SVG 1.1//EN" "http://www.w3.org/Graphics/SVG/1.1/DTD/svg11.dtd">
<svg version="1.1" id="Ebene_1" xmlns="http://www.w3.org/2000/svg" xmlns:xlink="http://www.w3.org/1999/xlink" x="0px" y="0px"
	 viewBox="0 0 16 16" style="enable-background:new 0 0 16 16;" xml:space="preserve">
<style type="text/css">
	.st0{opacity:0.8;fill:#CBCBCB;enable-background:new    ;}
</style>
<g>
	<path id="XMLID_41_" d="M15.8,4.8c-0.4-0.4-1-0.5-1.4-0.1L9,9.2L5,5.8c-0.3-0.3-0.9-0.3-1.2,0L0.4,8.3c-1,0.8,0.2,2.4,1.2,1.6
		l2.7-2l4.1,3.4c0.4,0.3,0.9,0.3,1.3,0l6-5C16.1,5.9,16.1,5.3,15.8,4.8C15.4,4.4,16.1,5.3,15.8,4.8z"/>
</g>
<rect x="5" y="0" class="st0" width="6" height="16"/>
<g>
	<path d="M8.6,10.2H7.4c0-1.5,0.8-1.7,1.6-2.7c0.9-1.2-1.8-2.2-2.2-0.3L5.6,7.1c0.1-1.8,2.3-2.4,3.7-1.7C11.1,6.3,10.4,8,9.2,9
		C8.7,9.3,8.6,9.6,8.6,10.2z M7.4,12v-1.3h1.3V12H7.4z"/>
</g>
</svg>
