<?xml version="1.0" encoding="utf-8"?>
<!-- Generator: Adobe Illustrator 21.0.0, SVG Export Plug-In . SVG Version: 6.00 Build 0)  -->
<svg version="1.0" id="Ebene_1" xmlns="http://www.w3.org/2000/svg" xmlns:xlink="http://www.w3.org/1999/xlink" x="0px" y="0px"
	 viewBox="0 0 16 16" style="enable-background:new 0 0 16 16;" xml:space="preserve">
<style type="text/css">
	.st0{fill:#FFFFFF;}
	.st1{fill:#9B9A9A;}
</style>
<g>
	<g>
		<g>
			<rect x="1.2" y="1.1" class="st0" width="10.8" height="10.9"/>
			<path d="M12.4,12.4H0.8V0.7h11.6C12.4,0.7,12.4,12.4,12.4,12.4z M1.6,11.6h9.9V1.5H1.6V11.6z"/>
		</g>
		<rect x="1.2" y="3.1" width="11.2" height="0.8"/>
		<rect x="1.6" y="1.4" class="st1" width="10" height="1.7"/>
	</g>
</g>
<g>
	<g>
		<ellipse class="st0" cx="11.9" cy="9.6" rx="3.8" ry="4"/>
		<path d="M11.9,13.9c-2.3,0-4.1-1.9-4.1-4.3s1.9-4.3,4.1-4.3c2.3,0,4.1,1.9,4.1,4.3S14.1,13.9,11.9,13.9z M11.9,6
			c-2,0-3.5,1.6-3.5,3.6s1.6,3.6,3.5,3.6s3.5-1.6,3.5-3.6C15.3,7.6,13.8,6,11.9,6z"/>
	</g>
	<path d="M11.9,9.9c-0.2,0-0.3-0.1-0.3-0.3v-3c0-0.2,0.1-0.3,0.3-0.3s0.3,0.1,0.3,0.3v3C12.2,9.8,12,9.9,11.9,9.9z"/>
	<path d="M11.9,9.9H10c-0.2,0-0.3-0.1-0.3-0.3S9.8,9.3,10,9.3h1.9c0.2,0,0.3,0.1,0.3,0.3C12.2,9.8,12,9.9,11.9,9.9z"/>
</g>
<g id="aNQFsz.tif_2_">
	<g>
		<path d="M2,10.5c0-1.7,1-3.3,2.7-3.7C6.8,6.4,8.6,7.7,9,9.6c0.2,0.8,0,1.6-0.2,2.3c-0.3,0.8-0.8,1.6-1.4,2.3
			c-0.5,0.6-1.1,1.2-1.8,1.8c-0.1,0-0.1,0.1-0.2,0c-1-0.8-1.9-1.8-2.6-2.9c-0.4-0.6-0.6-1.2-0.8-1.9C2,11,2,10.6,2,10.5z M5.6,9
			c-0.7,0-1.3,0.6-1.3,1.3s0.6,1.3,1.3,1.3s1.3-0.6,1.3-1.3C6.9,9.6,6.3,9,5.6,9z"/>
	</g>
</g>
</svg>
