<?xml version="1.0" encoding="utf-8"?>
<!-- Generator: Adobe Illustrator 19.1.0, SVG Export Plug-In . SVG Version: 6.00 Build 0)  -->
<!DOCTYPE svg PUBLIC "-//W3C//DTD SVG 1.1//EN" "http://www.w3.org/Graphics/SVG/1.1/DTD/svg11.dtd">
<svg version="1.1" id="Ebene_1" xmlns="http://www.w3.org/2000/svg" xmlns:xlink="http://www.w3.org/1999/xlink" x="0px" y="0px"
	 viewBox="-412 290.3 16 16" style="enable-background:new -412 290.3 16 16;" xml:space="preserve">
<style type="text/css">
	.st0{fill:#FFFFFF;}
	.st1{fill:#88D8EA;}
	.st2{fill:#F1933B;enable-background:new    ;}
	.st3{fill:#1A171B;}
</style>
<g id="XMLID_7_">
	<polygon id="XMLID_9_" points="-404,296.7 -404,297.9 -406,297.9 -406,298.7 -404,298.7 -404,299.9 -401.2,298.3 	"/>
</g>
<polygon points="-396,305.3 -396,306.3 -400.8,306.3 -400.8,290.3 -396,290.3 -396,291.3 -399.8,291.3 -399.8,299.2 -399.8,301.1 
	-399.8,305.3 "/>
<g>
	<path class="st0" d="M-396,291.3v7.1c-2-0.3-3.6,0.7-3.8,0.8v-7.9H-396z"/>
	<path class="st1" d="M-396,298.4v6.9h-3.8v-4.2v-1.9C-399.6,299.1-398,298.1-396,298.4z"/>
	<path class="st1" d="M-396,293.1c-0.3-0.3-0.6-0.5-1.1-0.5c-0.8,0-1.4,0.6-1.4,1.4c0,0.8,0.6,1.4,1.4,1.4c0.5,0,0.8-0.2,1.1-0.5
		V293.1z"/>
</g>
<g>
	<rect x="-409.5" y="294.6" class="st0" width="2.2" height="3.1"/>
	<rect x="-409.5" y="298.7" class="st0" width="2.2" height="3.1"/>
	<polygon class="st0" points="-412,293.7 -412,293.7 -407.3,293.7 	"/>
	<rect x="-412" y="298.7" class="st0" width="1.8" height="3.1"/>
	<rect x="-412" y="294.6" class="st0" width="1.8" height="3.1"/>
	<rect x="-409.5" y="302.7" class="st0" width="2.2" height="2.6"/>
	<rect x="-412" y="302.7" class="st0" width="1.8" height="2.6"/>
	<polygon class="st2" points="-407.3,291.2 -412,291.2 -412,291.2 -412,293.7 -407.4,293.7 -407.3,293.7 	"/>
	<path class="st3" d="M-412,290.3v0.5v0.4h4.7v2.5l0,0l0,0h-4.7v0.9h1.8v3.1h-1.8v1h1.8v3.1h-1.8v0.9h1.8v2.6h-1.8v0.5v0.5h5.6v-16
		H-412z M-407.3,297.7h-2.2v-3.1h2.2V297.7z M-407.3,301.8h-2.2v-3.1h2.2V301.8z M-407.3,305.3h-2.2v-2.6h2.2V305.3z"/>
</g>
</svg>
