<?xml version="1.0" encoding="utf-8"?>
<!-- Generator: Adobe Illustrator 19.1.0, SVG Export Plug-In . SVG Version: 6.00 Build 0)  -->
<!DOCTYPE svg PUBLIC "-//W3C//DTD SVG 1.1//EN" "http://www.w3.org/Graphics/SVG/1.1/DTD/svg11.dtd">
<svg version="1.1" id="Ebene_1" xmlns="http://www.w3.org/2000/svg" xmlns:xlink="http://www.w3.org/1999/xlink" x="0px" y="0px"
	 viewBox="-412 290.3 16 16" style="enable-background:new -412 290.3 16 16;" xml:space="preserve">
<style type="text/css">
	.st0{fill:#FFFFFF;}
	.st1{fill:#4BA1BF;}
</style>
<g>
	<path d="M-406,295.2h3.7c0.1-0.4,0.2-0.6,0.4-0.9H-412v6h4.3c0.1-0.4,0.3-0.7,0.6-1h-3.9v-4h4v3.8l0.3-0.3c0.2-0.2,0.5-0.4,0.7-0.6
		V295.2L-406,295.2z"/>
	<path class="st0" d="M-402.3,295.2h-3.7v0.1v2.9c0.1-0.1,0.2-0.2,0.3-0.3c0.8-0.8,1.6-0.7,2.7-0.3h0.2l0.5-0.5V297
		C-402.8,296.6-402.3,295.2-402.3,295.2z"/>
	<path class="st0" d="M-411,295.3v4h3.9c0-0.1,0.1-0.1,0.1-0.2v-3.8H-411z"/>
</g>
<g id="ioRV70.tif_1_">
	<g id="XMLID_11_">
		<path id="XMLID_14_" class="st1" d="M-400.1,298.8c0.3-0.3,2-1.9,2.6-2.4c0.4-0.4,0.3-1.3-0.2-1.7c-0.4-0.3-1.2-0.4-1.5,0
			c-0.8,0.8-1.6,1.6-2.5,2.4l-0.1,0.1c-0.3-0.4-0.4-1.2,0.6-2.3c0.3-0.4,0.7-0.8,1.1-1.2c0.9-0.8,2.3-0.6,3.3,0.5
			c1.2,1.5,0.9,2.4,0,3.1c-0.4,0.5-0.8,0.7-1.2,1.1C-398.6,298.9-399.4,299.2-400.1,298.8z"/>
		<path id="XMLID_13_" class="st1" d="M-403.1,298.2c0,0-1.7,1.6-2.5,2.4c-0.4,0.4,0,1.3,0.2,1.5c0.4,0.4,1.3,0.6,1.7,0.2
			c0.8-0.8,1.6-1.6,2.5-2.3l0.1-0.1l0,0c0,0.1,0.1,0.3,0.1,0.4c0.1,0.7-0.1,1.3-0.6,1.7c-0.5,0.5-1,0.9-1.4,1.3
			c-0.8,0.7-1.8,1.2-3.4-0.6c-1.2-1.3-0.8-2.3-0.1-3.1c0.4-0.3,0.8-0.7,1.2-1.1C-404.6,298-403.9,297.8-403.1,298.2
			C-403.1,298.1-403.1,298.2-403.1,298.2z"/>
		<path id="XMLID_12_" class="st1" d="M-399.9,296c0.3,0,0.7,0.2,0.8,0.5c0.1,0.3,0.1,0.7-0.2,0.9c-1.1,1.1-2.2,2.1-3.3,3.1
			c-0.3,0.3-0.9,0.3-1.2,0c-0.3-0.2-0.3-0.8,0-1.1C-402.7,298.4-400.1,296-399.9,296z"/>
	</g>
</g>
</svg>
