<?xml version="1.0" encoding="utf-8"?>
<!-- Generator: Adobe Illustrator 19.0.0, SVG Export Plug-In . SVG Version: 6.00 Build 0)  -->
<!DOCTYPE svg PUBLIC "-//W3C//DTD SVG 1.1//EN" "http://www.w3.org/Graphics/SVG/1.1/DTD/svg11.dtd">
<svg version="1.1" id="Ebene_1" xmlns="http://www.w3.org/2000/svg" xmlns:xlink="http://www.w3.org/1999/xlink" x="0px" y="0px"
	 viewBox="0 0 16 16" style="enable-background:new 0 0 16 16;" xml:space="preserve">
<style type="text/css">
	.st0{fill:#FFFFFF;}
</style>
<g>
	<g>
		<rect x="5.4" y="5.3" class="st0" width="9.7" height="6.8"/>
		<path d="M4.5,4.3V13H16V4.3H4.5z M15.1,12H5.4V5.3h9.7V12z"/>
	</g>
	<g>
		<polygon points="10.2,10 4.8,5.5 5.3,4.7 10.2,8.8 15.2,4.7 15.7,5.6 		"/>
	</g>
</g>
<rect x="1.2" y="5.5" transform="matrix(0.1328 0.9911 -0.9911 0.1328 8.6627 4.5436)" width="1" height="3.4"/>
<rect x="1.2" y="7.8" transform="matrix(0.1329 0.9911 -0.9911 0.1329 10.9057 6.5052)" width="1" height="3.4"/>
<rect x="1.2" y="9.9" transform="matrix(0.1329 0.9911 -0.9911 0.1329 13.0184 8.3534)" width="1" height="3.4"/>
</svg>
