<?xml version="1.0" encoding="utf-8"?>
<!-- Generator: Adobe Illustrator 19.1.0, SVG Export Plug-In . SVG Version: 6.00 Build 0)  -->
<!DOCTYPE svg PUBLIC "-//W3C//DTD SVG 1.1//EN" "http://www.w3.org/Graphics/SVG/1.1/DTD/svg11.dtd">
<svg version="1.1" id="Ebene_1" xmlns="http://www.w3.org/2000/svg" xmlns:xlink="http://www.w3.org/1999/xlink" x="0px" y="0px"
	 viewBox="-289 412.9 16 16" style="enable-background:new -289 412.9 16 16;" xml:space="preserve">
<style type="text/css">
	.st0{fill:#EEF7FC;}
	.st1{fill:#8B95AA;}
</style>
<g>
	<g>
		<rect x="-283.6" y="417.7" class="st0" width="9.7" height="6.8"/>
		<path class="st1" d="M-284.5,416.7v8.7h11.5v-8.7H-284.5z M-273.9,424.4h-9.7v-6.7h9.7V424.4z"/>
	</g>
	<g>
		<polygon class="st1" points="-278.8,422.4 -284.2,417.9 -283.7,417.1 -278.8,421.2 -273.8,417.1 -273.3,418 		"/>
	</g>
</g>
<rect x="-287.7" y="417.8" transform="matrix(0.1328 0.9911 -0.9911 0.1328 166.6735 648.4821)" class="st1" width="1" height="3.4"/>
<rect x="-287.8" y="420.1" transform="matrix(0.1329 0.9911 -0.9911 0.1329 168.9411 650.5574)" class="st1" width="1" height="3.4"/>
<rect x="-287.7" y="422.3" transform="matrix(0.1329 0.9911 -0.9911 0.1329 171.164 652.3139)" class="st1" width="1" height="3.4"/>
</svg>
