<?xml version="1.0" encoding="utf-8"?>
<!-- Generator: Adobe Illustrator 19.0.0, SVG Export Plug-In . SVG Version: 6.00 Build 0)  -->
<!DOCTYPE svg PUBLIC "-//W3C//DTD SVG 1.1//EN" "http://www.w3.org/Graphics/SVG/1.1/DTD/svg11.dtd">
<svg version="1.1" id="Ebene_1" xmlns="http://www.w3.org/2000/svg" xmlns:xlink="http://www.w3.org/1999/xlink" x="0px" y="0px"
	 viewBox="0 0 16 16" style="enable-background:new 0 0 16 16;" xml:space="preserve">
<style type="text/css">
	.st0{fill:#FFFFFF;}
</style>
<g id="XMLID_96_">
	<path id="XMLID_98_" d="M14.1,11.2c-2,3.1-7.3,4.5-10.2,1.9l1.3-0.9L0.6,10l0.6,5L2.7,14c3.5,3.5,10.2,2,12.7-2L14.1,11.2z"/>
	<path id="XMLID_97_" d="M5.6,1.9c2.2-0.7,4.4-0.4,5.9,0.6l-1.2,0.9l4.7,2l-0.8-5l-1.5,1.1C9.3-1.2,3.8-0.1,1.1,3l1.1,1
		C3,3,4.2,2.3,5.6,1.9C7.8,1.2,4.2,2.3,5.6,1.9z"/>
</g>
<g>
	<rect x="5.5" y="5.5" class="st0" width="2" height="2"/>
	<rect x="8.5" y="5.5" class="st0" width="2" height="2"/>
	<path d="M4.5,4.5v7.1h7.1V4.5H4.5z M10.5,10.5h-2v-2h2V10.5z M7.5,10.5h-2v-2h2V10.5z M5.5,5.5h2v2h-2V5.5z M10.5,7.5h-2v-2h2V7.5z
		"/>
	<rect x="5.5" y="8.5" class="st0" width="2" height="2"/>
	<rect x="8.5" y="8.5" class="st0" width="2" height="2"/>
</g>
</svg>
