<?xml version="1.0" encoding="utf-8"?>
<!-- Generator: Adobe Illustrator 19.1.0, SVG Export Plug-In . SVG Version: 6.00 Build 0)  -->
<!DOCTYPE svg PUBLIC "-//W3C//DTD SVG 1.1//EN" "http://www.w3.org/Graphics/SVG/1.1/DTD/svg11.dtd">
<svg version="1.1" id="Ebene_1" xmlns="http://www.w3.org/2000/svg" xmlns:xlink="http://www.w3.org/1999/xlink" x="0px" y="0px"
	 viewBox="-289 412.9 16 16" style="enable-background:new -289 412.9 16 16;" xml:space="preserve">
<style type="text/css">
	.st0{fill:#E64E4F;enable-background:new    ;}
	.st1{fill:#FFFFFF;}
	.st2{fill:#F1933B;enable-background:new    ;}
	.st3{fill:#4BA1BF;}
</style>
<g>
	<rect x="-288" y="421.9" class="st0" width="4" height="6"/>
	<polygon class="st1" points="-283,420.9 -283,421.9 -279,421.9 -279,413.9 -283,413.9 	"/>
	<rect x="-278" y="417.6" class="st1" width="4" height="4.3"/>
	<path d="M-277.9,416.6v-3.7h-6.1v8h-5v8h16v-12.3H-277.9z M-284,427.9h-4v-6h4V427.9z M-279,421.9v6h-4v-6v-1v-7h4V421.9z
		 M-274,421.9v6h-4v-6v-4.3h4V421.9z"/>
	<rect x="-283" y="421.9" class="st2" width="4" height="6"/>
	<rect x="-278" y="421.9" class="st3" width="4" height="6"/>
</g>
</svg>
