<?xml version="1.0" encoding="utf-8"?>
<!-- Generator: Adobe Illustrator 19.2.1, SVG Export Plug-In . SVG Version: 6.00 Build 0)  -->
<svg version="1.1" id="Ebene_1" xmlns="http://www.w3.org/2000/svg" xmlns:xlink="http://www.w3.org/1999/xlink" x="0px" y="0px"
	 viewBox="0 0 12 12" style="enable-background:new 0 0 12 12;" xml:space="preserve">
<style type="text/css">
	.st0{fill:#CC091C;}
	.st1{fill:#E64F51;}
</style>
<g>
	<path class="st0" d="M11.7,3.2c-0.2,0-0.6,0-0.6,0c0-0.1,0-0.9,0-1.2c-0.2-1.2-0.8-2-2.2-2l0,0C7.7,0,6.8,0.9,6.8,1.9
		c0,0.3,0,1.2,0,1.3H6.3C6.1,3.2,6,3.5,6,3.7C6,4.9,6,5.9,6,7c0,0.2,0.1,0.5,0.4,0.5c1.8,0,3.4,0,5.1,0h-0.1c0.4,0,0.6-0.3,0.6-0.4
		V3.6C12,3.4,11.9,3.2,11.7,3.2z M9.9,3.2h-2c0,0,0-0.9,0-1.2c0-0.4,0.2-0.7,0.9-0.8c0.4,0,1,0.2,1,0.7C9.9,2.3,9.9,3.2,9.9,3.2z"/>
	<path class="st1" d="M7,3.5C7,3.1,7,2.4,7,2c0.1-1,0.9-1.8,1.9-1.8s1.9,0.7,1.9,1.9c0.1,0.4,0,0.9,0,1.4c0.3,0,0.4,0,0.6,0
		c0.3,0,0.3,0.2,0.3,0.3c0,1.2,0,2.2,0,3.2c0,0.3-0.2,0.3-0.3,0.3c-1.8,0-3,0-4.8,0C6.3,7.2,6.3,7,6.3,6.9V3.8c0-0.2,0-0.3,0.1-0.3
		C6.4,3.5,7,3.5,7,3.5z M10.1,3.5c0-0.4,0-1,0-1.3c0-0.8-0.3-1.2-1.2-1.3c-0.7,0-1.1,0.4-1.2,1c-0.1,0.4,0,1.2,0,1.6H10.1L10.1,3.5z
		"/>
</g>
</svg>
