<?xml version="1.0" encoding="utf-8"?>
<!-- Generator: Adobe Illustrator 19.2.1, SVG Export Plug-In . SVG Version: 6.00 Build 0)  -->
<svg version="1.1" id="Ebene_1" xmlns="http://www.w3.org/2000/svg" xmlns:xlink="http://www.w3.org/1999/xlink" x="0px" y="0px"
	 viewBox="0 0 12 12" style="enable-background:new 0 0 12 12;" xml:space="preserve">
<style type="text/css">
	.st0{fill:#798C22;}
	.st1{fill:#D1E545;}
</style>
<g>
	<path class="st0" d="M11.4,3.1c-0.2,0-3.3,0-3.3,0c0-0.1-0.1-0.8,0-1c0.2-0.6,0.6-1,1.2-1c0.3,0,0.7,0.1,1,0.4l0.2,0.2l0.9-0.8
		c0,0-0.6-1-2.1-0.9C8,0,7,0.7,6.9,2c0,0.4,0,1,0,1.1H6.3C6,3.1,5.9,3.5,5.9,3.7c0,1.3,0,2.1,0,3.3c0,0.5,0.2,0.5,0.6,0.5l0,0
		c1.9,0,3.1,0,5,0C11.9,7.5,12,7.2,12,7V3.5C11.9,3.2,11.9,3.1,11.4,3.1z"/>
	<path class="st1" d="M11.4,3.4c-0.2,0-3.6,0-3.6,0s-0.1-1.1,0-1.5C8,1.2,8.5,0.8,9.5,0.7c0.4,0,0.7,0.2,1,0.5l0.4-0.4
		c-0.4-0.4-1-0.6-1.6-0.6C8.2,0.3,7.3,1,7.2,2.1c0,0.3,0,1.3,0,1.3H6.5c-0.2,0-0.3,0.2-0.3,0.3c0,1.3,0,2,0,3.3
		c0,0.1,0.1,0.2,0.2,0.2h0.2c1.9,0,3,0,4.9,0c0.2,0,0.2-0.2,0.2-0.4V3.6C11.7,3.4,11.5,3.4,11.4,3.4z"/>
</g>
</svg>
