<?xml version="1.0" encoding="utf-8"?>
<!-- Generator: Adobe Illustrator 19.0.0, SVG Export Plug-In . SVG Version: 6.00 Build 0)  -->
<!DOCTYPE svg PUBLIC "-//W3C//DTD SVG 1.1//EN" "http://www.w3.org/Graphics/SVG/1.1/DTD/svg11.dtd">
<svg version="1.1" id="Ebene_1" xmlns="http://www.w3.org/2000/svg" xmlns:xlink="http://www.w3.org/1999/xlink" x="0px" y="0px"
	 viewBox="-5 11 12 12" style="enable-background:new -5 11 12 12;" xml:space="preserve">
<style type="text/css">
	.st0{fill:#E64F51;enable-background:new    ;}
	.st1{fill:#FFFFFF;enable-background:new    ;}
</style>
<circle class="st0" cx="1" cy="17" r="6"/>
<path class="st1" d="M1.7,17l2.5-2.5c0.2-0.2,0.2-0.5,0-0.7s-0.5-0.2-0.7,0L1,16.3l-2.5-2.5c-0.2-0.2-0.5-0.2-0.7,0s-0.2,0.5,0,0.7
	L0.3,17l-2.5,2.5c-0.2,0.2-0.2,0.5,0,0.7c0.1,0.1,0.2,0.1,0.4,0.1s0.3,0,0.4-0.1L1,17.7l2.5,2.5c0.1,0.1,0.2,0.1,0.4,0.1
	s0.3,0,0.4-0.1c0.2-0.2,0.2-0.5,0-0.7L1.7,17z"/>
</svg>
