<?xml version="1.0" encoding="utf-8"?>
<!-- Generator: Adobe Illustrator 19.0.0, SVG Export Plug-In . SVG Version: 6.00 Build 0)  -->
<!DOCTYPE svg PUBLIC "-//W3C//DTD SVG 1.1//EN" "http://www.w3.org/Graphics/SVG/1.1/DTD/svg11.dtd">
<svg version="1.1" id="Ebene_1" xmlns="http://www.w3.org/2000/svg" xmlns:xlink="http://www.w3.org/1999/xlink" x="0px" y="0px"
	 viewBox="-7 9 16 16" style="enable-background:new -7 9 16 16;" xml:space="preserve">
<style type="text/css">
	.st0{enable-background:new    ;}
	.st1{fill:#D1E545;}
	.st2{fill:#798C22;}
</style>
<g class="st0">
	<path class="st1" d="M0.1,23.8c-0.4,0-0.8-0.2-1.1-0.5l-4.7-4.7c-0.6-0.6-0.6-1.6,0-2.2c0.6-0.6,1.6-0.6,2.2,0l3.3,3.3l5.4-8.7
		c0.5-0.7,1.4-1,2.2-0.5c0.7,0.5,1,1.4,0.5,2.2L1.5,23.1c-0.3,0.4-0.7,0.7-1.2,0.7C0.2,23.8,0.2,23.8,0.1,23.8z"/>
	<path class="st2" d="M0.1,24c-0.5,0-0.9-0.2-1.3-0.5l-4.7-4.7c-0.3-0.3-0.5-0.8-0.5-1.3c0-0.5,0.2-0.9,0.5-1.3
		c0.7-0.7,1.9-0.7,2.6,0l3.1,3.1l5.3-8.5c0.5-0.9,1.7-1.1,2.5-0.6c0.9,0.5,1.1,1.7,0.6,2.5L1.7,23.2C1.4,23.7,0.9,24,0.3,24
		C0.3,24,0.2,24,0.1,24z M-4.6,16.1c-0.4,0-0.7,0.1-0.9,0.4c-0.3,0.3-0.4,0.6-0.4,0.9c0,0.4,0.1,0.7,0.4,0.9l4.7,4.7
		c0.3,0.3,0.7,0.4,1.1,0.4c0.4,0,0.8-0.3,1-0.6l6.5-10.4c0.4-0.6,0.2-1.4-0.4-1.8c-0.3-0.2-0.7-0.2-1-0.2c-0.3,0.1-0.6,0.3-0.8,0.6
		l-5.6,9l-3.6-3.6C-3.9,16.3-4.3,16.1-4.6,16.1z"/>
</g>
</svg>
