<?xml version="1.0" encoding="utf-8"?>
<!-- Generator: Adobe Illustrator 19.0.0, SVG Export Plug-In . SVG Version: 6.00 Build 0)  -->
<!DOCTYPE svg PUBLIC "-//W3C//DTD SVG 1.1//EN" "http://www.w3.org/Graphics/SVG/1.1/DTD/svg11.dtd">
<svg version="1.1" id="Ebene_1" xmlns="http://www.w3.org/2000/svg" xmlns:xlink="http://www.w3.org/1999/xlink" x="0px" y="0px"
	 viewBox="-9 11 12 12" style="enable-background:new -9 11 12 12;" xml:space="preserve">
<style type="text/css">
	.st0{fill:#798C22;}
	.st1{fill:#D1E545;}
</style>
<path class="st0" d="M1.1,16c-0.2,0-5.5,0-5.5,0c0-0.1-0.1-1.4,0-1.8c0.1-0.8,1-1.3,1.8-1.3c0.4,0,0.8,0.3,1.1,0.6l0.2,0.2l1.2-1.3
	c0,0-0.9-1.3-2.7-1.3s-3.2,1.3-3.4,3c0,0.5,0,1.8,0,1.9h-0.9c-0.4,0-0.4,0.3-0.4,0.6c0,1.8,0,3.6,0,5.5c0,0.6,0.2,0.7,0.7,0.7l0,0
	c2.6,0,5.2,0,7.8,0c0.6,0,0.7-0.4,0.7-0.7v-5.6C1.7,16.2,1.7,16,1.1,16z"/>
<path class="st1" d="M1.1,16.3c-0.2,0-6,0-6,0s-0.1-1.8,0-2.3c0.2-1,1.2-1.8,2.4-1.7c0.5,0,0.9,0.3,1.3,0.6l0.5-0.5
	c-0.5-0.5-1.3-0.8-2-0.8c-1.5,0-2.7,1.1-2.9,2.6c0,0.4,0,2.1,0,2.1h-1.3c-0.1,0-0.2,0.2-0.2,0.4c0,1.8,0,3.6,0,5.5
	c0,0.1,0.1,0.2,0.2,0.2h0.2c2.6,0,5.2,0,7.8,0c0.2,0,0.2,0,0.2-0.2v-5.6C1.3,16.6,1.2,16.3,1.1,16.3z"/>
</svg>
