<?xml version="1.0" encoding="utf-8"?>
<!-- Generator: Adobe Illustrator 19.2.1, SVG Export Plug-In . SVG Version: 6.00 Build 0)  -->
<svg version="1.1" id="Ebene_1" xmlns="http://www.w3.org/2000/svg" xmlns:xlink="http://www.w3.org/1999/xlink" x="0px" y="0px"
	 viewBox="0 0 16 16" style="enable-background:new 0 0 16 16;" xml:space="preserve">
<style type="text/css">
	.st0{enable-background:new    ;}
	.st1{fill:#D1E545;}
	.st2{fill:#798C22;}
</style>
<g class="st0">
	<path class="st1" d="M7.5,14.1c-0.4,0-0.8-0.2-1.1-0.5L1.7,8.9c-0.6-0.6-0.6-1.6,0-2.2s1.6-0.6,2.2,0L7.2,10l4.5-7.3
		c0.5-0.7,1.4-1,2.2-0.5c0.7,0.5,1,1.4,0.5,2.2l-5.5,9c-0.3,0.4-0.7,0.7-1.2,0.7C7.6,14.1,7.6,14.1,7.5,14.1z"/>
	<path class="st2" d="M7.5,14.3c-0.5,0-0.9-0.2-1.3-0.5L1.5,9.1C1.2,8.8,1,8.3,1,7.8s0.2-0.9,0.5-1.3c0.7-0.7,1.9-0.7,2.6,0l3.1,3.1
		l4.4-7.1c0.5-0.9,1.7-1.1,2.5-0.6c0.9,0.5,1.1,1.7,0.6,2.5l-5.6,9.1c-0.3,0.5-0.8,0.8-1.4,0.8C7.7,14.3,7.6,14.3,7.5,14.3z
		 M2.7,6.5c-0.4,0-0.6,0.1-0.8,0.3C1.6,7.1,1.5,7.4,1.5,7.7c0,0.4,0.1,0.7,0.4,0.9l4.7,4.7c0.3,0.3,0.7,0.4,1.1,0.4
		c0.4,0,0.8-0.3,1-0.6l5.5-8.9c0.4-0.6,0.2-1.4-0.4-1.8c-0.3-0.2-0.6-0.3-1-0.2c-0.3,0.1-0.6,0.3-0.8,0.6l-4.7,7.5L3.7,6.8
		C3.2,6.5,3,6.5,2.7,6.5z"/>
</g>
</svg>
