<?xml version="1.0" encoding="utf-8"?>
<!-- Generator: Adobe Illustrator 19.2.1, SVG Export Plug-In . SVG Version: 6.00 Build 0)  -->
<svg version="1.1" id="Ebene_1" xmlns="http://www.w3.org/2000/svg" xmlns:xlink="http://www.w3.org/1999/xlink" x="0px" y="0px"
	 viewBox="0 0 12 12" style="enable-background:new 0 0 12 12;" xml:space="preserve">
<style type="text/css">
	.st0{fill:#E64F51;}
	.st1{fill:#FFFFFF;}
</style>
<g>
	<circle class="st0" cx="5" cy="7" r="5"/>
	<path class="st1" d="M5.5,7L7.6,5c0.2-0.2,0.2-0.4,0-0.6S7.2,4.2,7,4.4L5,6.5L2.9,4.4c-0.2-0.2-0.4-0.2-0.6,0
		C2.1,4.6,2.1,4.8,2.3,5L4.4,7L2.3,9.1c-0.2,0.2-0.2,0.4,0,0.6c0.1,0.1,0.2,0.1,0.3,0.1s0.2,0,0.3-0.1l2-2.1L7,9.7
		c0.1,0.1,0.2,0.1,0.3,0.1c0.2,0,0.2,0,0.3-0.1c0.2-0.2,0.2-0.4,0-0.6L5.5,7z"/>
</g>
</svg>
