<?xml version="1.0" encoding="utf-8"?>
<!-- Generator: Adobe Illustrator 19.0.0, SVG Export Plug-In . SVG Version: 6.00 Build 0)  -->
<!DOCTYPE svg PUBLIC "-//W3C//DTD SVG 1.1//EN" "http://www.w3.org/Graphics/SVG/1.1/DTD/svg11.dtd">
<svg version="1.1" id="Ebene_1" xmlns="http://www.w3.org/2000/svg" xmlns:xlink="http://www.w3.org/1999/xlink" x="0px" y="0px"
	 viewBox="-9 11 12 12" style="enable-background:new -9 11 12 12;" xml:space="preserve">
<style type="text/css">
	.st0{fill:#CC091C;}
	.st1{fill:#E64F51;}
</style>
<g>
	<path class="st0" d="M1,16c-0.2,0-0.6,0-0.6,0c0-0.1,0-1.4,0-1.9c-0.1-1.8-1.6-3.1-3.4-3.1l0,0c-1.8,0-3.3,1.3-3.4,3.1
		c0,0.5,0,1.7,0,1.9c0,0-0.4,0-0.5,0c-0.6,0-0.8,0.3-0.8,0.7c0,1.9,0,3.7,0,5.5c0,0.2,0.1,0.4,0.2,0.5c0.1,0.1,0.3,0.2,0.5,0.2
		c2.7,0,5.2,0,7.9,0l0,0c0.2,0,0.4-0.1,0.5-0.2c0.1-0.1,0.2-0.3,0.2-0.5v-5.6C1.6,16.2,1.5,16,1,16z M-1.2,15.9h-3.4
		c0-0.2-0.1-1.4,0-1.9c0.1-0.8,1-1.4,1.9-1.3c0.8,0.1,1.5,0.8,1.5,1.6C-1.2,14.8-1.2,15.9-1.2,15.9z"/>
	<path class="st1" d="M-6.1,16.3c0-0.7,0-1.6,0-2.3c0.1-1.6,1.5-2.8,3.1-2.8s3,1.1,3.1,2.8c0.1,0.7,0,1.5,0,2.3c0.3,0,0.6,0,0.8,0
		c0.3,0,0.4,0.1,0.4,0.4c0,1.9,0,3.6,0,5.4c0,0.3-0.2,0.4-0.5,0.4c-2.7,0-4.9,0-7.6,0c-0.3,0-0.4-0.2-0.4-0.6c0-1.9,0-3.5,0-5.3
		c0-0.3,0.2-0.3,0.4-0.3C-6.9,16.3-6.1,16.3-6.1,16.3z M-1,16.2c0-0.6,0-1.2,0-1.8c0-1-0.8-1.8-1.7-1.9c-1-0.1-2,0.5-2.1,1.5
		c-0.1,0.7,0,1.4,0,2.2C-3.6,16.2-2.3,16.2-1,16.2z"/>
</g>
</svg>
