<?xml version="1.0" encoding="utf-8"?>
<!-- Generator: Adobe Illustrator 19.1.0, SVG Export Plug-In . SVG Version: 6.00 Build 0)  -->
<!DOCTYPE svg PUBLIC "-//W3C//DTD SVG 1.1//EN" "http://www.w3.org/Graphics/SVG/1.1/DTD/svg11.dtd">
<svg version="1.1" id="Ebene_1" xmlns="http://www.w3.org/2000/svg" xmlns:xlink="http://www.w3.org/1999/xlink" x="0px" y="0px"
	 viewBox="-289 412.9 16 16" style="enable-background:new -289 412.9 16 16;" xml:space="preserve">
<style type="text/css">
	.st0{fill:#8B95AA;}
</style>
<g id="XMLID_143_">
	<g id="XMLID_144_">
		<path id="XMLID_147_" class="st0" d="M-286.8,418.8c3.9,1.7,7.7,1.7,11.6,0c0,0.5-0.1,2.4-0.7,3c-0.6,0.6-1.9,1.1-5.1,1.1
			s-4.6-0.4-5.2-1C-286.8,421.3-286.8,418.8-286.8,418.8z"/>
		<path id="XMLID_146_" class="st0" d="M-286.8,423.6c3.9,1.7,7.7,1.7,11.6,0c0,0.5-0.1,2.4-0.7,3s-1.9,1.1-5.1,1.1
			s-4.6-0.5-5.2-1.1C-286.8,426-286.8,423.6-286.8,423.6z"/>
		<ellipse id="XMLID_145_" class="st0" cx="-281" cy="416.1" rx="5.8" ry="2.1"/>
	</g>
</g>
</svg>
