<?xml version="1.0" encoding="utf-8"?>
<!-- Generator: Adobe Illustrator 19.1.0, SVG Export Plug-In . SVG Version: 6.00 Build 0)  -->
<!DOCTYPE svg PUBLIC "-//W3C//DTD SVG 1.1//EN" "http://www.w3.org/Graphics/SVG/1.1/DTD/svg11.dtd">
<svg version="1.1" id="Ebene_1" xmlns="http://www.w3.org/2000/svg" xmlns:xlink="http://www.w3.org/1999/xlink" x="0px" y="0px"
	 viewBox="0 0 16 16" style="enable-background:new 0 0 16 16;" xml:space="preserve">
<style type="text/css">
	.st0{opacity:0.3;enable-background:new    ;}
	.st1{fill:#CBCBCB;}
	.st2{fill:#9B9C9E;}
	.st3{opacity:0.6;enable-background:new    ;}
	.st4{fill:#FFFFFF;enable-background:new    ;}
	.st5{fill:#1A171B;}
	.st6{opacity:0.6;fill:#4AA0BE;enable-background:new    ;}
	.st7{fill:#DCEEF1;enable-background:new    ;}
</style>
<g id="XMLID_423_" class="st0">
	<g id="XMLID_425_">
		<g>
			<line id="XMLID_6_" class="st1" x1="10" y1="12.8" x2="14" y2="14.6"/>
			<path class="st2" d="M14,15.7c-0.1,0-0.3,0-0.4-0.1l-4-1.8c-0.5-0.2-0.8-0.9-0.5-1.4c0.2-0.5,0.9-0.8,1.4-0.5l4,1.8
				c0.5,0.2,0.8,0.9,0.5,1.4C14.8,15.4,14.4,15.7,14,15.7z"/>
		</g>
		<g class="st3">
			<circle id="XMLID_5_" class="st1" cx="5.1" cy="10.3" r="4.6"/>
			<path class="st2" d="M5.1,15.4c-2.1,0-4-1.3-4.8-3.3c-1-2.6,0.4-5.6,3-6.6C4.6,5.1,6,5.1,7.3,5.7c1.2,0.6,2.2,1.6,2.7,2.9l0,0
				c1,2.6-0.4,5.6-3,6.6C6.3,15.3,5.7,15.4,5.1,15.4z M5.1,6.3c-0.5,0-1,0.1-1.4,0.3c-2.1,0.8-3.2,3.1-2.4,5.2
				c0.8,2.1,3.1,3.2,5.2,2.4c2.1-0.8,3.2-3.1,2.4-5.2l0,0c-0.4-1-1.1-1.8-2.1-2.3C6.3,6.4,5.7,6.3,5.1,6.3z"/>
		</g>
		<g>
			<circle id="XMLID_4_" class="st1" cx="5.1" cy="10.3" r="4.6"/>
			<path class="st2" d="M5.1,15.4c-2.1,0-4-1.3-4.8-3.3c-1-2.6,0.4-5.6,3-6.6C4.6,5.1,6,5.1,7.3,5.7c1.2,0.6,2.2,1.6,2.7,2.9l0,0
				c1,2.6-0.4,5.6-3,6.6C6.3,15.3,5.7,15.4,5.1,15.4z M5.1,6.3c-0.5,0-1,0.1-1.4,0.3c-2.1,0.8-3.2,3.1-2.4,5.2
				c0.8,2.1,3.1,3.2,5.2,2.4c2.1-0.8,3.2-3.1,2.4-5.2l0,0c-0.4-1-1.1-1.8-2.1-2.3C6.3,6.4,5.7,6.3,5.1,6.3z"/>
		</g>
	</g>
	<path class="st4" d="M3,11.8c-0.2,0-0.5-0.2-0.5-0.4c-0.1-0.4-0.2-1-0.2-1.5c0.1-0.7,0.3-1.2,0.8-1.6c0.2-0.2,0.6-0.1,0.7,0.1
		C4,8.7,3.9,9.1,3.7,9.2C3.5,9.4,3.4,9.7,3.3,10c0,0.4,0.1,0.8,0.1,1.2c0.1,0.3-0.1,0.6-0.4,0.6C3,11.8,3,11.8,3,11.8z"/>
</g>
<g id="XMLID_407_" class="st3">
	<g id="XMLID_409_">
		<g>
			<line id="XMLID_3_" class="st1" x1="10.5" y1="10.8" x2="13.6" y2="14"/>
			<path class="st2" d="M13.6,15c-0.3,0-0.5-0.1-0.8-0.3l-3-3.1c-0.4-0.4-0.4-1.1,0-1.5c0.4-0.4,1.1-0.4,1.5,0l3,3.1
				c0.4,0.4,0.4,1.1,0,1.5C14.1,14.9,13.8,15,13.6,15z"/>
		</g>
		<g class="st3">
			<circle id="XMLID_2_" class="st1" cx="6.9" cy="6.8" r="4.6"/>
			<path class="st2" d="M6.9,11.9C6.8,11.9,6.8,11.9,6.9,11.9c-2.9,0-5.2-2.4-5.1-5.2c0-2.8,2.3-5.1,5.2-5c2.8,0,5.1,2.4,5,5.2v0
				C11.9,9.6,9.6,11.9,6.9,11.9z M6.9,2.7c-2.2,0-4,1.8-4.1,4c0,2.2,1.8,4.1,4,4.1c2.2,0,4.1-1.8,4.1-4S9.2,2.7,6.9,2.7
				C6.9,2.7,6.9,2.7,6.9,2.7z"/>
		</g>
		<g>
			<circle id="XMLID_1_" class="st1" cx="6.9" cy="6.8" r="4.6"/>
			<path class="st2" d="M6.9,11.9C6.8,11.9,6.8,11.9,6.9,11.9c-2.9,0-5.2-2.4-5.1-5.2c0-2.8,2.3-5.1,5.2-5c2.8,0,5.1,2.4,5,5.2v0
				C11.9,9.6,9.6,11.9,6.9,11.9z M6.9,2.7c-2.2,0-4,1.8-4.1,4c0,2.2,1.8,4.1,4,4.1c2.2,0,4.1-1.8,4.1-4S9.2,2.7,6.9,2.7
				C6.9,2.7,6.9,2.7,6.9,2.7z"/>
		</g>
	</g>
	<path class="st4" d="M4.5,7.4C4.5,7.4,4.4,7.4,4.5,7.4C4.1,7.4,3.9,7.1,4,6.8c0.1-0.5,0.2-1,0.4-1.4c0.3-0.6,0.8-1,1.3-1.2
		c0.3-0.1,0.6,0.1,0.6,0.4c0.1,0.3-0.1,0.6-0.4,0.6C5.7,5.3,5.5,5.5,5.3,5.9C5.1,6.2,5.1,6.6,5,7C5,7.3,4.7,7.4,4.5,7.4z"/>
</g>
<g id="XMLID_413_">
	<g id="XMLID_418_">
		<path class="st5" d="M14.4,15.7c-0.4,0-0.8-0.2-1-0.7l-1.6-4c-0.2-0.5,0-1.2,0.6-1.4c0.5-0.2,1.2,0,1.4,0.6l1.6,4
			c0.2,0.5,0,1.2-0.6,1.4C14.6,15.6,14.5,15.7,14.4,15.7z"/>
		<circle id="XMLID_421_" class="st6" cx="10.9" cy="5.4" r="4.6"/>
		<path class="st5" d="M10.9,10.5c-0.7,0-1.3-0.1-2-0.4C6.3,9,5.1,6,6.2,3.4C6.7,2.2,7.7,1.2,9,0.7c1.3-0.5,2.7-0.5,3.9,0
			c1.3,0.5,2.2,1.5,2.7,2.8c0.5,1.3,0.5,2.7,0,3.9C14.8,9.4,12.9,10.5,10.9,10.5z M10.9,1.4c-1.6,0-3.1,0.9-3.7,2.5
			C6.3,5.9,7.2,8.3,9.3,9.2c2.1,0.9,4.5-0.1,5.3-2.2c0.4-1,0.4-2.1,0-3.1c-0.4-1-1.2-1.8-2.2-2.2C11.9,1.5,11.4,1.4,10.9,1.4z"/>
	</g>
	<path class="st7" d="M8.6,5.2c-0.1,0-0.2,0-0.3-0.1C8.1,5,8,4.6,8.2,4.4C8.4,4,8.7,3.6,9.1,3.2c0.5-0.4,1.1-0.7,1.6-0.6
		c0.3,0,0.5,0.3,0.5,0.6c0,0.3-0.3,0.5-0.6,0.5C10.4,3.6,10,3.8,9.8,4c-0.3,0.3-0.5,0.6-0.7,1C9,5.1,8.8,5.2,8.6,5.2z"/>
</g>
<g>
	<path class="st5" d="M4.6,12.5H0.5C0.2,12.5,0,12.3,0,12s0.2-0.5,0.5-0.5h4.1c0.3,0,0.5,0.2,0.5,0.5S4.9,12.5,4.6,12.5z"/>
	<path class="st5" d="M4.6,14.2H0.5C0.2,14.2,0,14,0,13.7s0.2-0.5,0.5-0.5h4.1c0.3,0,0.5,0.2,0.5,0.5S4.9,14.2,4.6,14.2z"/>
	<path class="st5" d="M4.6,15.9H0.5c-0.3,0-0.5-0.2-0.5-0.5s0.2-0.5,0.5-0.5h4.1c0.3,0,0.5,0.2,0.5,0.5S4.9,15.9,4.6,15.9z"/>
</g>
</svg>
