<?xml version="1.0" encoding="utf-8"?>
<!-- Generator: Adobe Illustrator 19.0.0, SVG Export Plug-In . SVG Version: 6.00 Build 0)  -->
<!DOCTYPE svg PUBLIC "-//W3C//DTD SVG 1.1//EN" "http://www.w3.org/Graphics/SVG/1.1/DTD/svg11.dtd">
<svg version="1.1" id="Ebene_1" xmlns="http://www.w3.org/2000/svg" xmlns:xlink="http://www.w3.org/1999/xlink" x="0px" y="0px"
	 viewBox="0 0 16 16" style="enable-background:new 0 0 16 16;" xml:space="preserve">
<g>
	<g id="XMLID_99_">
		<path id="XMLID_100_" d="M3,7.6L1,1.9h1.3l1.4,4.2l1.4-4.2h1.2L4.3,7.6H3z"/>
	</g>
	<g id="XMLID_2_">
		<polygon id="XMLID_12_" points="9.6,11.8 5.8,9.5 5.8,11.3 0,11.3 0,12.3 5.8,12.3 5.8,14 		"/>
	</g>
	<g>
		<path d="M16,10.1c-3.2,0-4.5-0.5-5.1-1.1c-0.6-0.6-0.7-2.5-0.7-3c2,0.8,3.9,1.3,5.8,1.3L16,10.1C16,10.1,16,10.1,16,10.1z"/>
		<path d="M16,12v2.9c0,0,0,0,0,0c-3.2,0-4.5-0.5-5.1-1.1c-0.6-0.6-0.7-2.5-0.7-3C12.1,11.6,14.1,12,16,12z"/>
		<path d="M16,5.3c-3.2,0-5.8-1-5.8-2.1c0-1.2,2.6-2.1,5.8-2.1c0,0,0,0,0,0L16,5.3C16,5.3,16,5.3,16,5.3z"/>
	</g>
</g>
</svg>
