<?xml version="1.0" encoding="utf-8"?>
<!-- Generator: Adobe Illustrator 19.1.0, SVG Export Plug-In . SVG Version: 6.00 Build 0)  -->
<!DOCTYPE svg PUBLIC "-//W3C//DTD SVG 1.1//EN" "http://www.w3.org/Graphics/SVG/1.1/DTD/svg11.dtd">
<svg version="1.1" id="Ebene_1" xmlns="http://www.w3.org/2000/svg" xmlns:xlink="http://www.w3.org/1999/xlink" x="0px" y="0px"
	 viewBox="-412 290.3 16 16" style="enable-background:new -412 290.3 16 16;" xml:space="preserve">
<style type="text/css">
	.st0{fill:#4EAF75;}
	.st1{fill:#FFD104;}
</style>
<g>
	<g id="XMLID_99_">
		<path id="XMLID_100_" d="M-409,297.9l-2-5.7h1.3l1.4,4.2l1.4-4.2h1.2l-2,5.7H-409z"/>
	</g>
	<g id="XMLID_2_">
		<polygon id="XMLID_12_" class="st0" points="-402.4,302.1 -406.2,299.8 -406.2,301.6 -412,301.6 -412,302.6 -406.2,302.6 
			-406.2,304.3 		"/>
	</g>
	<g>
		<path class="st1" d="M-396,300.4c-3.2,0-4.5-0.5-5.1-1.1s-0.7-2.5-0.7-3c2,0.8,3.9,1.3,5.8,1.3V300.4L-396,300.4z"/>
		<path class="st1" d="M-396,302.3v2.9l0,0c-3.2,0-4.5-0.5-5.1-1.1c-0.6-0.6-0.7-2.5-0.7-3C-399.9,301.9-397.9,302.3-396,302.3z"/>
		<path class="st1" d="M-396,295.6c-3.2,0-5.8-1-5.8-2.1c0-1.2,2.6-2.1,5.8-2.1l0,0V295.6L-396,295.6z"/>
	</g>
</g>
</svg>
