<?xml version="1.0" encoding="utf-8"?>
<!-- Generator: Adobe Illustrator 19.0.0, SVG Export Plug-In . SVG Version: 6.00 Build 0)  -->
<!DOCTYPE svg PUBLIC "-//W3C//DTD SVG 1.1//EN" "http://www.w3.org/Graphics/SVG/1.1/DTD/svg11.dtd">
<svg version="1.1" id="Ebene_1" xmlns="http://www.w3.org/2000/svg" xmlns:xlink="http://www.w3.org/1999/xlink" x="0px" y="0px"
	 viewBox="0 0 16 16" style="enable-background:new 0 0 16 16;" xml:space="preserve">
<g id="XMLID_11_">
	<polygon id="XMLID_12_" points="9.6,13.7 5.7,11.5 5.7,13.2 0,13.2 0,14.2 5.7,14.2 5.7,16 	"/>
</g>
<g>
	<path d="M4.4,7.8h-1L3,6.8H1.3L1,7.8H0l1.7-4.4h0.9L4.4,7.8z M2.8,6.1L2.2,4.5L1.6,6.1H2.8z"/>
	<path d="M4.9,7.8V3.5c0.8,0,1.6-0.1,2.3,0c1.5,0.2,1.7,2.2,0.1,2.4C8,6.3,8.4,7.1,8.8,7.8c-0.8,0-1.1,0-1.1,0C7.2,7.2,6.6,6,5.8,6
		v1.8H4.9z M5.8,5.3c0.5,0,1.8,0.2,1.8-0.6S6.3,4.2,5.8,4.2V5.3z"/>
	<path d="M9.3,7.8V3.5h3v0.7h-2.1v1H12V6h-1.8v1.8H9.3L9.3,7.8z"/>
	<path d="M13,7.8V3.5h3v0.7h-2.1v1h1.8V6h-1.8v1.8H13L13,7.8z"/>
</g>
</svg>
