<?xml version="1.0" encoding="utf-8"?>
<!-- Generator: Adobe Illustrator 19.1.0, SVG Export Plug-In . SVG Version: 6.00 Build 0)  -->
<!DOCTYPE svg PUBLIC "-//W3C//DTD SVG 1.1//EN" "http://www.w3.org/Graphics/SVG/1.1/DTD/svg11.dtd">
<svg version="1.1" id="Ebene_1" xmlns="http://www.w3.org/2000/svg" xmlns:xlink="http://www.w3.org/1999/xlink" x="0px" y="0px"
	 viewBox="-289 412.9 16 16" style="enable-background:new -289 412.9 16 16;" xml:space="preserve">
<style type="text/css">
	.st0{fill:#F1933B;}
	.st1{fill:#FFFFFF;}
</style>
<g>
	<polygon class="st0" points="-278,427.9 -274,427.9 -274,413.9 -278,413.9 -278,417.9 	"/>
	<rect x="-288" y="413.9" class="st1" width="4" height="4"/>
	<rect x="-288" y="418.9" class="st1" width="4" height="4"/>
	<rect x="-288" y="423.9" class="st1" width="4" height="4"/>
	<rect x="-283" y="413.9" class="st1" width="4" height="4"/>
	<path d="M-289,412.9v16h16v-16H-289z M-284,427.9h-4v-4h4V427.9z M-284,422.9h-4v-4h4V422.9z M-284,417.9h-4v-4h4V417.9z
		 M-279,427.9h-4v-4h4V427.9z M-279,422.9h-4v-4h4V422.9z M-279,417.9h-4v-4h4V417.9z M-274,427.9h-4v-10v-4h4V427.9z"/>
	<rect x="-283" y="418.9" class="st1" width="4" height="4"/>
	<rect x="-283" y="423.9" class="st1" width="4" height="4"/>
</g>
</svg>
