<?xml version="1.0" encoding="utf-8"?>
<!-- Generator: Adobe Illustrator 19.0.0, SVG Export Plug-In . SVG Version: 6.00 Build 0)  -->
<!DOCTYPE svg PUBLIC "-//W3C//DTD SVG 1.1//EN" "http://www.w3.org/Graphics/SVG/1.1/DTD/svg11.dtd">
<svg version="1.1" id="Ebene_1" xmlns="http://www.w3.org/2000/svg" xmlns:xlink="http://www.w3.org/1999/xlink" x="0px" y="0px"
	 viewBox="0 0 16 16" style="enable-background:new 0 0 16 16;" xml:space="preserve">
<style type="text/css">
	.st0{fill:#CBCBCB;}
	.st1{fill:#FFFFFF;}
</style>
<g id="XMLID_163_">
	<rect id="XMLID_167_" x="1" y="11" class="st0" width="14" height="4"/>
	<path id="XMLID_164_" d="M16,10H0l0,6h16V10z M1,15v-4h14v4H1z"/>
</g>
<g>
	<rect x="1" y="2.7" class="st1" width="6.8" height="5.5"/>
	<rect x="1" y="1" class="st1" width="6.8" height="0.7"/>
	<path d="M0,0v9.2h8.8V0H0z M1,2.7h6.8v5.5H1V2.7z M7.8,1.7H1V1h6.8V1.7z"/>
</g>
<g>
	<path id="XMLID_6_" d="M6.3,3.3C6.2,3.5,6,3.8,5.7,4C5.5,4.1,5.3,4.3,5.1,4.4v0.8C5.4,5,5.8,4.7,6.1,4.5v3.1H7V3.2L6.3,3.3L6.3,3.3
		z"/>
	<path id="XMLID_2_" d="M3.7,5.2C4.1,5,4.3,4.7,4.3,4.3S4.1,3.2,3,3.2S1.7,4.3,1.7,4.3l0.7,0.1c0,0,0.1-0.6,0.6-0.6s0.5,0.2,0.5,0.5
		c0,0.3-0.5,0.5-0.7,0.5l0,0.6c0.2,0,0.8,0.1,0.8,0.7S3.5,7,3,7S2.4,6.5,2.4,6.3L1.6,6.4C1.7,6.7,1.9,7.6,3,7.6s1.5-0.7,1.5-1.4
		S3.9,5.3,3.7,5.2z"/>
</g>
<polygon id="XMLID_19_" points="13.6,5.3 13.6,2.2 13.6,2.2 13.6,2.1 10.4,2.1 10.4,2.9 12.8,2.9 12.8,5.3 11.6,5.3 13.2,8.1 
	14.9,5.3 "/>
</svg>
