<?xml version="1.0" encoding="utf-8"?>
<!-- Generator: Adobe Illustrator 19.0.0, SVG Export Plug-In . SVG Version: 6.00 Build 0)  -->
<!DOCTYPE svg PUBLIC "-//W3C//DTD SVG 1.1//EN" "http://www.w3.org/Graphics/SVG/1.1/DTD/svg11.dtd">
<svg version="1.1" id="Ebene_1" xmlns="http://www.w3.org/2000/svg" xmlns:xlink="http://www.w3.org/1999/xlink" x="0px" y="0px"
	 viewBox="0 0 16 16" style="enable-background:new 0 0 16 16;" xml:space="preserve">
<style type="text/css">
	.st0{fill:#FFFFFF;}
</style>
<polygon points="9.6,13.7 5.7,11.5 5.7,13.2 0,13.2 0,14.2 5.7,14.2 5.7,16 "/>
<g>
	<rect x="6.4" y="7.3" class="st0" width="2.3" height="2.3"/>
	<rect x="12.8" y="0.9" class="st0" width="2.3" height="2.3"/>
	<polygon class="st0" points="9.6,6.4 11.9,6.4 12,6.4 12,4.1 9.6,4.1 	"/>
	<rect x="12.8" y="7.3" class="st0" width="2.3" height="2.3"/>
	<rect x="12.8" y="4.1" class="st0" width="2.3" height="2.2"/>
	<rect x="6.4" y="4.1" class="st0" width="2.3" height="2.2"/>
	<rect x="6.4" y="0.9" class="st0" width="2.3" height="2.3"/>
	<polygon class="st0" points="9.6,3.2 11.9,3.2 12,3.2 12,0.9 9.6,0.9 	"/>
	<polygon class="st0" points="9.6,9.6 11.9,9.6 12,9.6 12,7.3 9.6,7.3 	"/>
	<path d="M5.5,0v0.4v9.6v0.4H16V0H5.5z M8.7,9.6H6.4V7.3h2.3V9.6z M8.7,6.4H6.4V4.1h2.3V6.4z M8.7,3.2H6.4V0.9h2.3V3.2z M12,9.6
		L12,9.6H9.6V7.3H12V9.6z M12,6.4L12,6.4H9.6V4.1H12V6.4z M12,3.2L12,3.2H9.6V0.9H12V3.2z M15.1,9.6h-2.3V7.3h2.3V9.6z M15.1,6.4
		h-2.3V4.1h2.3V6.4z M15.1,3.2h-2.3V0.9h2.3V3.2z"/>
</g>
</svg>
