<?xml version="1.0" encoding="utf-8"?>
<!-- Generator: Adobe Illustrator 19.0.0, SVG Export Plug-In . SVG Version: 6.00 Build 0)  -->
<!DOCTYPE svg PUBLIC "-//W3C//DTD SVG 1.1//EN" "http://www.w3.org/Graphics/SVG/1.1/DTD/svg11.dtd">
<svg version="1.1" id="Ebene_1" xmlns="http://www.w3.org/2000/svg" xmlns:xlink="http://www.w3.org/1999/xlink" x="0px" y="0px"
	 viewBox="0 0 16 16" style="enable-background:new 0 0 16 16;" xml:space="preserve">
<style type="text/css">
	.st0{fill:#1A171B;}
</style>
<g id="XMLID_129_">
	<path id="XMLID_130_" d="M14.6,4.3H16v4.5c0,0.6,0,1.1-0.2,1.4c-0.4,1.1-0.9,1.4-2.2,1.4c-0.7,0-1.2-0.2-1.6-0.6s-0.6-1-0.6-1.7
		l1.4-0.2c0,0.4,0.1,0.7,0.2,0.9c0.2,0.3,0.4,0.4,0.7,0.4c0.7,0,0.9-0.3,0.9-1.4V4.3z"/>
</g>
<g id="XMLID_7_">
	<polygon id="XMLID_9_" points="6.9,1.6 4.2,0 4.2,1.2 0,1.2 0,2 4.2,2 4.2,3.3 	"/>
</g>
<rect id="XMLID_176_" x="7.9" y="0" class="st0" width="1" height="3.3"/>
<g id="XMLID_2_">
	<polygon id="XMLID_3_" points="6.9,14.4 4.2,12.7 4.2,14 0,14 0,14.7 4.2,14.7 4.2,16 	"/>
</g>
<rect id="XMLID_1_" x="7.9" y="12.7" class="st0" width="1" height="3.3"/>
<polygon id="XMLID_5_" points="10.7,5.9 7.9,4.2 7.9,5.5 0,5.5 0,6.2 7.9,6.2 7.9,7.5 "/>
<polygon id="XMLID_8_" points="10.7,10.1 7.9,8.5 7.9,9.7 0,9.7 0,10.5 7.9,10.5 7.9,11.7 "/>
</svg>
