<?xml version="1.0" encoding="utf-8"?>
<!-- Generator: Adobe Illustrator 19.1.0, SVG Export Plug-In . SVG Version: 6.00 Build 0)  -->
<!DOCTYPE svg PUBLIC "-//W3C//DTD SVG 1.1//EN" "http://www.w3.org/Graphics/SVG/1.1/DTD/svg11.dtd">
<svg version="1.1" id="Ebene_1" xmlns="http://www.w3.org/2000/svg" xmlns:xlink="http://www.w3.org/1999/xlink" x="0px" y="0px"
	 viewBox="0 0 16 16" style="enable-background:new 0 0 16 16;" xml:space="preserve">
<g>
	<path d="M1.5,10.1C4.3,10.1,5.4,9.6,6,9c0.5-0.6,0.6-2.5,0.6-3C4.9,6.8,3.2,7.2,1.5,7.2V10.1L1.5,10.1z"/>
	<path d="M1.5,14.9L1.5,14.9c2.8,0,3.9-0.5,4.5-1.1c0.5-0.6,0.6-2.5,0.6-3C4.9,11.6,3.2,12,1.5,12V14.9z"/>
	<path d="M6.6,3.2c0-1.2-2.3-2.1-5.1-2.1v4.3C4.3,5.3,6.6,4.4,6.6,3.2z"/>
</g>
<g>
	<path d="M13.1,4.3h1.4v4.5c0,0.6,0,1.1-0.2,1.4c-0.4,1.1-0.9,1.4-2.2,1.4c-0.7,0-1.2-0.2-1.6-0.6s-0.6-1-0.6-1.7l1.4-0.2
		c0,0.4,0.1,0.7,0.2,0.9c0.2,0.3,0.4,0.4,0.7,0.4c0.7,0,0.9-0.3,0.9-1.4C13.1,9,13.1,4.3,13.1,4.3z"/>
</g>
</svg>
