<?xml version="1.0" encoding="utf-8"?>
<!-- Generator: Adobe Illustrator 19.1.0, SVG Export Plug-In . SVG Version: 6.00 Build 0)  -->
<!DOCTYPE svg PUBLIC "-//W3C//DTD SVG 1.1//EN" "http://www.w3.org/Graphics/SVG/1.1/DTD/svg11.dtd">
<svg version="1.1" id="Ebene_1" xmlns="http://www.w3.org/2000/svg" xmlns:xlink="http://www.w3.org/1999/xlink" x="0px" y="0px"
	 viewBox="-412 290.3 16 16" style="enable-background:new -412 290.3 16 16;" xml:space="preserve">
<style type="text/css">
	.st0{fill:#FFD104;}
</style>
<g>
	<path class="st0" d="M-412,300.4c2.8,0,3.9-0.5,4.5-1.1c0.5-0.6,0.6-2.5,0.6-3c-1.7,0.8-3.4,1.2-5.1,1.2V300.4L-412,300.4z"/>
	<path class="st0" d="M-412,305.2L-412,305.2c2.8,0,3.9-0.5,4.5-1.1c0.5-0.6,0.6-2.5,0.6-3c-1.7,0.8-3.4,1.2-5.1,1.2V305.2z"/>
	<path class="st0" d="M-406.9,293.5c0-1.2-2.3-2.1-5.1-2.1v4.3C-409.2,295.6-406.9,294.7-406.9,293.5z"/>
</g>
<g>
	<path d="M-400.4,294.6h1.4v4.5c0,0.6,0,1.1-0.2,1.4c-0.4,1.1-0.9,1.4-2.2,1.4c-0.7,0-1.2-0.2-1.6-0.6s-0.6-1-0.6-1.7l1.4-0.2
		c0,0.4,0.1,0.7,0.2,0.9c0.2,0.3,0.4,0.4,0.7,0.4c0.7,0,0.9-0.3,0.9-1.4C-400.4,299.3-400.4,294.6-400.4,294.6z"/>
</g>
</svg>
