<?xml version="1.0" encoding="utf-8"?>
<!-- Generator: Adobe Illustrator 19.1.0, SVG Export Plug-In . SVG Version: 6.00 Build 0)  -->
<!DOCTYPE svg PUBLIC "-//W3C//DTD SVG 1.1//EN" "http://www.w3.org/Graphics/SVG/1.1/DTD/svg11.dtd">
<svg version="1.1" id="Ebene_1" xmlns="http://www.w3.org/2000/svg" xmlns:xlink="http://www.w3.org/1999/xlink" x="0px" y="0px"
	 viewBox="0 0 16 16" style="enable-background:new 0 0 16 16;" xml:space="preserve">
<path d="M0.8,10.1c2.8,0,3.9-0.5,4.5-1.1c0.5-0.6,0.6-2.5,0.6-3C4.2,6.8,2.5,7.2,0.8,7.2V10.1L0.8,10.1z"/>
<path d="M0.8,14.9L0.8,14.9c2.8,0,3.9-0.5,4.5-1.1c0.5-0.6,0.6-2.5,0.6-3C4.2,11.6,2.5,12,0.8,12V14.9z"/>
<path d="M5.9,3.2c0-1.2-2.3-2.1-5.1-2.1v4.3C3.6,5.3,5.9,4.4,5.9,3.2z"/>
<path d="M10.3,13c-0.3,0-0.5-0.1-0.7-0.3c-0.4-0.4-0.4-1,0-1.4L12.8,8L9.6,4.7c-0.4-0.4-0.4-1,0-1.4s1-0.4,1.4,0l3.9,4
	c0.4,0.4,0.4,1,0,1.4l-3.9,4C10.8,12.9,10.5,13,10.3,13z"/>
</svg>
