<?xml version="1.0" encoding="utf-8"?>
<!-- Generator: Adobe Illustrator 19.0.0, SVG Export Plug-In . SVG Version: 6.00 Build 0)  -->
<!DOCTYPE svg PUBLIC "-//W3C//DTD SVG 1.0//EN" "http://www.w3.org/TR/2001/REC-SVG-20010904/DTD/svg10.dtd">
<svg version="1.0" id="Ebene_1" xmlns="http://www.w3.org/2000/svg" xmlns:xlink="http://www.w3.org/1999/xlink" x="0px" y="0px"
	 viewBox="0 0 16 16" enable-background="new 0 0 16 16" xml:space="preserve">
<polygon id="XMLID_13_" points="16,7.5 16,7.5 16,6.6 15,6.6 15,7.5 13,7.5 13,4.6 12,4.6 12,7.5 10,7.5 10,6.6 9,6.6 9,7.5 7,7.5 
	7,6.6 6,6.6 6,7.5 4,7.5 4,4.6 3,4.6 3,7.5 1,7.5 1,6.6 0,6.6 0,9.4 1,9.4 1,8.5 3,8.5 3,11.4 4,11.4 4,8.5 6,8.5 6,9.4 7,9.4 
	7,8.5 9,8.5 9,9.4 10,9.4 10,8.5 12,8.5 12,11.4 13,11.4 13,8.5 15,8.5 15,9.4 16,9.4 16,8.5 16,8.5 "/>
<g id="XMLID_7_">
	<polygon id="XMLID_9_" points="6.1,1.6 3.3,0 3.3,1.3 0,1.3 0,2 3.3,2 3.3,3.3 	"/>
</g>
<g id="XMLID_5_">
	<polygon id="XMLID_6_" points="9.9,1.6 12.7,3.3 12.7,2 16,2 16,1.3 12.7,1.3 12.7,0 	"/>
</g>
</svg>
