<?xml version="1.0" encoding="UTF-8" standalone="no"?>
<!-- Generator: Adobe Illustrator 19.0.0, SVG Export Plug-In . SVG Version: 6.00 Build 0)  -->

<svg
   xmlns:dc="http://purl.org/dc/elements/1.1/"
   xmlns:cc="http://creativecommons.org/ns#"
   xmlns:rdf="http://www.w3.org/1999/02/22-rdf-syntax-ns#"
   xmlns:svg="http://www.w3.org/2000/svg"
   xmlns="http://www.w3.org/2000/svg"
   xmlns:sodipodi="http://sodipodi.sourceforge.net/DTD/sodipodi-0.dtd"
   xmlns:inkscape="http://www.inkscape.org/namespaces/inkscape"
   version="1.1"
   id="Ebene_1"
   x="0px"
   y="0px"
   viewBox="0 0 16 16"
   style="enable-background:new 0 0 16 16;"
   xml:space="preserve"
   inkscape:version="0.48.4 r9939"
   sodipodi:docname="icon.svg"
   inkscape:export-filename="/data/dev/eclipse/eclipse trunk2/plugins/org.knime.base/src/org/knime/base/node/io/database/columnrename/icon.png"
   inkscape:export-xdpi="90"
   inkscape:export-ydpi="90"
   width="100%"
   height="100%"><metadata
     id="metadata23"><rdf:RDF><cc:Work
         rdf:about=""><dc:format>image/svg+xml</dc:format><dc:type
           rdf:resource="http://purl.org/dc/dcmitype/StillImage" /><dc:title></dc:title></cc:Work></rdf:RDF></metadata><defs
     id="defs21" /><sodipodi:namedview
     pagecolor="#ffffff"
     bordercolor="#666666"
     borderopacity="1"
     objecttolerance="10"
     gridtolerance="10"
     guidetolerance="10"
     inkscape:pageopacity="0"
     inkscape:pageshadow="2"
     inkscape:window-width="828"
     inkscape:window-height="480"
     id="namedview19"
     showgrid="false"
     inkscape:zoom="14.75"
     inkscape:cx="8"
     inkscape:cy="8"
     inkscape:window-x="0"
     inkscape:window-y="0"
     inkscape:window-maximized="0"
     inkscape:current-layer="Ebene_1" /><g
     id="g11"><path
       d="M14,5.8h-1.3l-0.5-1.3H10L9.5,5.8H8.3l2.2-5.7h1.2L14,5.8z M11.9,3.6l-0.8-2.1l-0.8,2.1H11.9z"
       id="path13" /><path
       d="M10.1,8.7V7.6h2.2v1.1H10.1z"
       id="path15" /><path
       d="M8.7,10.1c0.8,0,1.5,0,2.3,0c0.8,0,1.6,0,2.1,0.8c0.4,0.7,0.1,1.6-0.6,1.9c0.8,0.2,1.3,1.1,1,1.9c-0.3,0.8-1,1.1-1.8,1.1   c-1,0.1-2,0-3,0V10.1z M9.8,11.1v1.3c0.6,0,2.2,0.3,2.2-0.7C12.1,10.8,10.5,11.1,9.8,11.1z M9.8,13.4v1.5c0.7,0,2.3,0.3,2.4-0.6   C12.5,13.1,10.6,13.4,9.8,13.4z"
       id="path17" /></g><path
     style="fill:#000000"
     inkscape:connector-curvature="0"
     id="path11"
     d="m 0,10.100012 c 2.8,0 3.9,-0.5 4.5,-1.1 0.5,-0.6 0.6,-2.5 0.6,-3 -1.7,0.8 -3.4,1.2 -5.1,1.2 l 0,2.9 0,0 z"
     class="st0" /><path
     style="fill:#000000"
     inkscape:connector-curvature="0"
     id="path13-7"
     d="m 0,14.900012 0,0 c 2.8,0 3.9,-0.5 4.5,-1.1 0.5,-0.6 0.6,-2.5 0.6,-3 -1.7,0.8 -3.4,1.2 -5.1,1.2 l 0,2.9 z"
     class="st0" /><path
     style="fill:#000000"
     inkscape:connector-curvature="0"
     id="path15-8"
     d="m 5.1,3.200012 c 0,-1.2 -2.3,-2.1 -5.1,-2.1 l 0,4.3 c 2.8,-0.1 5.1,-1 5.1,-2.2 z"
     class="st0" /></svg>