<?xml version="1.0" encoding="utf-8"?>
<!-- Generator: Adobe Illustrator 19.0.0, SVG Export Plug-In . SVG Version: 6.00 Build 0)  -->
<!DOCTYPE svg PUBLIC "-//W3C//DTD SVG 1.1//EN" "http://www.w3.org/Graphics/SVG/1.1/DTD/svg11.dtd">
<svg version="1.1" id="Ebene_1" xmlns="http://www.w3.org/2000/svg" xmlns:xlink="http://www.w3.org/1999/xlink" x="0px" y="0px"
	 viewBox="0 0 16 16" style="enable-background:new 0 0 16 16;" xml:space="preserve">
<g>
	<path d="M0,10.1c2.8,0,3.9-0.5,4.5-1.1C5,8.4,5.1,6.5,5.1,6C3.4,6.8,1.7,7.2,0,7.2V10.1L0,10.1z"/>
	<path d="M0,14.9L0,14.9c2.8,0,3.9-0.5,4.5-1.1c0.5-0.6,0.6-2.5,0.6-3C3.4,11.6,1.7,12,0,12V14.9z"/>
	<path d="M5.1,3.2C5.1,2,2.8,1.1,0,1.1v4.3C2.8,5.3,5.1,4.4,5.1,3.2z"/>
</g>
<g>
	<path d="M14,5.8h-1.3l-0.5-1.3H10L9.5,5.8H8.3l2.2-5.7h1.2L14,5.8z M11.9,3.6l-0.8-2.1l-0.8,2.1H11.9z"/>
	<path d="M10.1,8.7V7.6h2.2v1.1H10.1z"/>
	<path d="M8.7,10.1c0.8,0,1.5,0,2.3,0c0.8,0,1.6,0,2.1,0.8c0.4,0.7,0.1,1.6-0.6,1.9c0.8,0.2,1.3,1.1,1,1.9c-0.3,0.8-1,1.1-1.8,1.1
		c-1,0.1-2,0-3,0V10.1z M9.8,11.1v1.3c0.6,0,2.2,0.3,2.2-0.7C12.1,10.8,10.5,11.1,9.8,11.1z M9.8,13.4v1.5c0.7,0,2.3,0.3,2.4-0.6
		C12.5,13.1,10.6,13.4,9.8,13.4z"/>
</g>
</svg>
