<?xml version="1.0" encoding="utf-8"?>
<!-- Generator: Adobe Illustrator 19.1.0, SVG Export Plug-In . SVG Version: 6.00 Build 0)  -->
<!DOCTYPE svg PUBLIC "-//W3C//DTD SVG 1.1//EN" "http://www.w3.org/Graphics/SVG/1.1/DTD/svg11.dtd">
<svg version="1.1" id="Ebene_1" xmlns="http://www.w3.org/2000/svg" xmlns:xlink="http://www.w3.org/1999/xlink" x="0px" y="0px"
	 viewBox="-289 412.9 16 16" style="enable-background:new -289 412.9 16 16;" xml:space="preserve">
<style type="text/css">
	.st0{fill:#E64E4F;}
	.st1{fill:#4BA1BF;}
</style>
<g id="XMLID_11_">
	<polygon id="XMLID_12_" points="-280.9,428.9 -278.6,425 -280.4,425 -280.4,419.3 -281.4,419.3 -281.4,425 -283.2,425 	"/>
</g>
<polygon class="st0" points="-285.3,418.7 -274.6,413.6 -274.6,412.9 -286,418.1 -286,418.1 -286,418.1 -286,421.5 -287.3,421.5 
	-285.7,424.3 -284,421.5 -285.3,421.5 "/>
<polygon class="st1" points="-276.7,418.7 -287.4,413.6 -287.4,412.9 -276,418.1 -276,418.1 -276,418.1 -276,421.5 -274.7,421.5 
	-276.3,424.3 -278,421.5 -276.7,421.5 "/>
</svg>
