<?xml version="1.0" encoding="utf-8"?>
<!-- Generator: Adobe Illustrator 19.0.0, SVG Export Plug-In . SVG Version: 6.00 Build 0)  -->
<!DOCTYPE svg PUBLIC "-//W3C//DTD SVG 1.1//EN" "http://www.w3.org/Graphics/SVG/1.1/DTD/svg11.dtd">
<svg version="1.1" id="Ebene_1" xmlns="http://www.w3.org/2000/svg" xmlns:xlink="http://www.w3.org/1999/xlink" x="0px" y="0px"
	 viewBox="0 0 16 16" style="enable-background:new 0 0 16 16;" xml:space="preserve">
<style type="text/css">
	.st0{fill:#FFFFFF;}
	.st1{fill:#CBCBCB;}
	.st2{fill:none;}
</style>
<g>
	<g>
		<g>
			<path class="st0" d="M4.4,9.2C4.6,9.1,7,7.6,9.7,8.9C12,10.1,15,7,15,7V2.3H4.4V9.2z M7.1,3.5c0.8,0,1.4,0.6,1.4,1.4
				S7.9,6.3,7.1,6.3S5.7,5.7,5.7,4.9S6.3,3.5,7.1,3.5z"/>
			<path d="M3.4,1.3v13.4H16V1.3H3.4z M15,7v6.7H4.4V9.2V2.3H15V7z"/>
			<circle class="st1" cx="7.1" cy="4.9" r="1.4"/>
			<path class="st1" d="M9.7,8.9C7,7.6,4.6,9.1,4.4,9.2v4.5H15V7C15,7,12,10.1,9.7,8.9z"/>
		</g>
		<g>
			<line class="st2" x1="8.5" y1="7" x2="8.5" y2="7"/>
			<polygon points="8.5,6.5 8.5,7 8.5,7.5 13,7.5 13,6.5 			"/>
			<line class="st2" x1="8.5" y1="9.1" x2="8.5" y2="9.1"/>
			<polygon points="8.5,9.1 8.5,9.6 13,9.6 13,8.6 8.5,8.6 			"/>
			<line class="st2" x1="8.5" y1="11.1" x2="8.5" y2="11.1"/>
			<polygon points="8.5,11.1 8.5,11.6 13,11.6 13,10.6 8.5,10.6 			"/>
		</g>
	</g>
	<g id="XMLID_11_">
		<polygon id="XMLID_12_" points="6.3,10 2.5,7.7 2.5,9.4 0,9.4 0,10.5 2.5,10.5 2.5,12.2 		"/>
	</g>
</g>
</svg>
