<?xml version="1.0" encoding="utf-8"?>
<!-- Generator: Adobe Illustrator 19.1.0, SVG Export Plug-In . SVG Version: 6.00 Build 0)  -->
<!DOCTYPE svg PUBLIC "-//W3C//DTD SVG 1.1//EN" "http://www.w3.org/Graphics/SVG/1.1/DTD/svg11.dtd">
<svg version="1.1" id="Ebene_1" xmlns="http://www.w3.org/2000/svg" xmlns:xlink="http://www.w3.org/1999/xlink" x="0px" y="0px"
	 viewBox="-412 290.3 16 16" style="enable-background:new -412 290.3 16 16;" xml:space="preserve">
<style type="text/css">
	.st0{fill:#FFFFFF;}
	.st1{fill:#88D8EA;}
	.st2{fill:none;}
</style>
<g>
	<g>
		<g>
			<path class="st0" d="M-407.6,299.5c0.2-0.1,2.6-1.6,5.3-0.3c2.3,1.2,5.3-1.9,5.3-1.9v-4.7h-10.6L-407.6,299.5L-407.6,299.5z
				 M-404.9,293.8c0.8,0,1.4,0.6,1.4,1.4s-0.6,1.4-1.4,1.4s-1.4-0.6-1.4-1.4S-405.7,293.8-404.9,293.8z"/>
			<path d="M-408.6,291.6V305h12.6v-13.4H-408.6z M-397,297.3v6.7h-10.6v-4.5v-6.9h10.6V297.3z"/>
			<circle class="st1" cx="-404.9" cy="295.2" r="1.4"/>
			<path class="st1" d="M-402.3,299.2c-2.7-1.3-5.1,0.2-5.3,0.3v4.5h10.6v-6.7C-397,297.3-400,300.4-402.3,299.2z"/>
		</g>
		<g>
			<line class="st2" x1="-403.5" y1="297.3" x2="-403.5" y2="297.3"/>
			<polygon points="-403.5,296.8 -403.5,297.3 -403.5,297.8 -399,297.8 -399,296.8 			"/>
			<line class="st2" x1="-403.5" y1="299.4" x2="-403.5" y2="299.4"/>
			<polygon points="-403.5,299.4 -403.5,299.9 -399,299.9 -399,298.9 -403.5,298.9 			"/>
			<line class="st2" x1="-403.5" y1="301.4" x2="-403.5" y2="301.4"/>
			<polygon points="-403.5,301.4 -403.5,301.9 -399,301.9 -399,300.9 -403.5,300.9 			"/>
		</g>
	</g>
	<g id="XMLID_11_">
		<polygon id="XMLID_12_" points="-405.7,300.3 -409.5,298 -409.5,299.7 -412,299.7 -412,300.8 -409.5,300.8 -409.5,302.5 		"/>
	</g>
</g>
</svg>
