<?xml version="1.0" encoding="utf-8"?>
<!-- Generator: Adobe Illustrator 19.1.0, SVG Export Plug-In . SVG Version: 6.00 Build 0)  -->
<!DOCTYPE svg PUBLIC "-//W3C//DTD SVG 1.1//EN" "http://www.w3.org/Graphics/SVG/1.1/DTD/svg11.dtd">
<svg version="1.1" id="Ebene_1" xmlns="http://www.w3.org/2000/svg" xmlns:xlink="http://www.w3.org/1999/xlink" x="0px" y="0px"
	 viewBox="-412 290.3 16 16" style="enable-background:new -412 290.3 16 16;" xml:space="preserve">
<style type="text/css">
	.st0{fill:#FFFFFF;}
	.st1{fill:#1A171B;}
	.st2{fill:#C4D13B;}
</style>
<polygon class="st0" points="-406.7,300.5 -405.5,299.9 -405.5,296.2 -400.8,296.2 -400.2,300.5 "/>
<g>
	<path d="M-399.2,300.6l-0.7-4.9l0.9-4.7l-1-0.2l-0.8,4.4h-5l-5.6-4.7l-0.6,0.8l5.5,4.6v3.4l-5.4,2.9l0.5,0.9l2.9-1.6h8.7l3,4.6
		l0.8-0.6L-399.2,300.6z M-406.7,300.5l1.2-0.6v-3.7h4.7l0.6,4.3C-400.2,300.5-406.7,300.5-406.7,300.5z"/>
	<rect x="-405" y="290.9" width="1" height="1.2"/>
	<rect x="-398.4" y="295.2" width="1.2" height="1"/>
	<rect x="-410.1" y="296.3" width="1.4" height="1"/>
	<rect x="-404.2" y="297.8" class="st1" width="2.7" height="1"/>
</g>
<g>
	<polygon class="st2" points="-408.9,291.3 -397.5,298.3 -408.9,305.3 	"/>
	<path class="st1" d="M-408.9,305.8c-0.1,0-0.2,0-0.2-0.1c-0.2-0.1-0.3-0.3-0.3-0.4v-14c0-0.2,0.1-0.3,0.3-0.4
		c0.2-0.1,0.4-0.1,0.5,0l11.4,7c0.1,0.1,0.2,0.3,0.2,0.4s-0.1,0.3-0.2,0.4l-11.4,7C-408.7,305.7-408.8,305.8-408.9,305.8z
		 M-408.4,292.2v12.2l9.9-6.1L-408.4,292.2z"/>
</g>
</svg>
