<?xml version="1.0" encoding="utf-8"?>
<!-- Generator: Adobe Illustrator 19.1.0, SVG Export Plug-In . SVG Version: 6.00 Build 0)  -->
<!DOCTYPE svg PUBLIC "-//W3C//DTD SVG 1.1//EN" "http://www.w3.org/Graphics/SVG/1.1/DTD/svg11.dtd">
<svg version="1.1" id="Ebene_1" xmlns="http://www.w3.org/2000/svg" xmlns:xlink="http://www.w3.org/1999/xlink" x="0px" y="0px"
	 viewBox="-7 9 16 16" style="enable-background:new -7 9 16 16;" xml:space="preserve">
<style type="text/css">
	.st0{fill:#88D8EA;}
	.st1{fill:#E64E4F;}
	.st2{fill:#C4D13B;}
	.st3{fill:#FFFFFF;}
	.st4{fill:#F1933B;}
	.st5{fill:none;}
</style>
<g>
	<g>
		<circle class="st0" cx="0.5" cy="12.5" r="2.8"/>
		<circle class="st1" cx="-4.2" cy="11.8" r="2.8"/>
		<circle class="st2" cx="-2.2" cy="15.7" r="2.8"/>
	</g>
	<polygon id="XMLID_19_" points="-2.6,23.1 -5.7,23.1 -5.7,23.1 -5.8,23.1 -5.8,19.9 -5,19.9 -5,22.4 -2.6,22.4 -2.6,21.1 0.2,22.7 
		-2.6,24.4 	"/>
	<g>
		<rect x="6.8" y="19.4" class="st3" width="2.2" height="2.6"/>
		<rect x="3.3" y="23" class="st3" width="2.5" height="2"/>
		<rect x="6.8" y="23" class="st3" width="2.2" height="2"/>
		<rect x="3.3" y="19.4" class="st3" width="2.5" height="2.6"/>
		<rect x="3.1" y="16.7" class="st4" width="5.9" height="1.9"/>
		<g>
			<rect x="3.3" y="23" class="st5" width="2.5" height="2"/>
			<rect x="3.3" y="19.4" class="st5" width="2.5" height="2.6"/>
			<path d="M3.3,23h2.5v2h1v-2H9v-1H6.8v-2.6H9v-0.8H3.1v-1.9H9v-0.8H2.3V25h1V23z M3.3,19.4h2.5V22H3.3V19.4z"/>
		</g>
	</g>
</g>
</svg>
