<?xml version="1.0" encoding="utf-8"?>
<!-- Generator: Adobe Illustrator 19.0.0, SVG Export Plug-In . SVG Version: 6.00 Build 0)  -->
<!DOCTYPE svg PUBLIC "-//W3C//DTD SVG 1.1//EN" "http://www.w3.org/Graphics/SVG/1.1/DTD/svg11.dtd">
<svg version="1.1" id="Ebene_1" xmlns="http://www.w3.org/2000/svg" xmlns:xlink="http://www.w3.org/1999/xlink" x="0px" y="0px"
	 viewBox="0 0 16 16" style="enable-background:new 0 0 16 16;" xml:space="preserve">
<style type="text/css">
	.st0{fill:#FFFFFF;}
</style>
<g>
	<polygon points="5.7,5.7 0,5.7 0,6.7 6.7,6.7 6.7,0 5.7,0 	"/>
	<rect y="0" class="st0" width="5.7" height="5.7"/>
</g>
<g>
	<polygon points="10.3,5.7 10.3,0 9.3,0 9.3,6.7 16,6.7 16,5.7 	"/>
	<rect x="10.3" y="0" class="st0" width="5.7" height="5.7"/>
</g>
<g>
	<polygon points="10.3,10.3 16,10.3 16,9.3 9.3,9.3 9.3,16 10.3,16 	"/>
	<rect x="10.3" y="10.3" class="st0" width="5.7" height="5.7"/>
</g>
<g>
	<polygon points="5.7,10.3 5.7,16 6.7,16 6.7,9.3 0,9.3 0,10.3 	"/>
	<rect x="0" y="10.3" class="st0" width="5.7" height="5.7"/>
</g>
<g>
	<circle cx="3.3" cy="4.4" r="0.7"/>
	<circle cx="3.3" cy="1.1" r="0.7"/>
	<circle cx="1.7" cy="2.7" r="0.7"/>
</g>
<g>
	<circle cx="12.3" cy="4.5" r="0.7"/>
	<circle cx="14.5" cy="2.1" r="0.7"/>
	<circle cx="12.3" cy="2.2" r="0.7"/>
</g>
<g>
	<circle cx="11.6" cy="11.8" r="0.7"/>
	<circle cx="12.9" cy="14.8" r="0.7"/>
	<circle cx="13.7" cy="12.8" r="0.7"/>
</g>
<g>
	<circle cx="3.2" cy="11.6" r="0.7"/>
	<circle cx="1.7" cy="14.5" r="0.7"/>
	<circle cx="3.8" cy="13.8" r="0.7"/>
</g>
</svg>
