<?xml version="1.0" encoding="utf-8"?>
<!-- Generator: Adobe Illustrator 19.0.0, SVG Export Plug-In . SVG Version: 6.00 Build 0)  -->
<!DOCTYPE svg PUBLIC "-//W3C//DTD SVG 1.1//EN" "http://www.w3.org/Graphics/SVG/1.1/DTD/svg11.dtd">
<svg version="1.1" id="Ebene_1" xmlns="http://www.w3.org/2000/svg" xmlns:xlink="http://www.w3.org/1999/xlink" x="0px" y="0px"
	 viewBox="0 0 16 16" style="enable-background:new 0 0 16 16;" xml:space="preserve">
<style type="text/css">
	.st0{fill:#FFFFFF;}
	.st1{fill:#CBCBCB;}
	.st2{fill:#1A171B;}
</style>
<g>
	<rect x="0.8" y="0.9" class="st0" width="4.8" height="5.1"/>
	<rect x="6.5" y="0.9" class="st0" width="4.8" height="5.1"/>
	<path d="M0,0v6.9h12.1V0H0z M11.2,6H6.5V0.9h4.8V6z M5.6,6H0.8V0.9h4.8V6z"/>
</g>
<g>
	<rect x="0.8" y="10" class="st1" width="4.8" height="5.1"/>
	<rect x="6.5" y="10" class="st1" width="4.8" height="5.1"/>
	<path d="M0,9.1V16h12.1V9.1H0z M11.2,15.1H6.5V10h4.8V15.1z M5.6,15.1H0.8V10h4.8V15.1z"/>
</g>
<g>
	<g id="XMLID_7_">
		<polygon id="XMLID_9_" points="14.4,12.2 16,9.4 14.7,9.4 14.7,2.1 14,2.1 14,9.4 12.7,9.4 		"/>
	</g>
	<rect id="XMLID_176_" x="12.7" y="13.2" class="st2" width="3.3" height="1"/>
</g>
</svg>
