<?xml version="1.0" encoding="utf-8"?>
<!-- Generator: Adobe Illustrator 19.1.0, SVG Export Plug-In . SVG Version: 6.00 Build 0)  -->
<!DOCTYPE svg PUBLIC "-//W3C//DTD SVG 1.1//EN" "http://www.w3.org/Graphics/SVG/1.1/DTD/svg11.dtd">
<svg version="1.1" id="Ebene_1" xmlns="http://www.w3.org/2000/svg" xmlns:xlink="http://www.w3.org/1999/xlink" x="0px" y="0px"
	 viewBox="-289 412.9 16 16" style="enable-background:new -289 412.9 16 16;" xml:space="preserve">
<style type="text/css">
	.st0{fill:#1A171B;}
	.st1{fill:#4EAF75;}
	.st2{fill:#35724D;}
	.st3{fill:#E64E4F;}
	.st4{fill:#8C3136;}
</style>
<g>
	<g id="XMLID_7_">
		<polygon id="XMLID_9_" points="-274.6,425.1 -273,422.3 -274.3,422.3 -274.3,415 -275,415 -275,422.3 -276.3,422.3 		"/>
	</g>
	<rect id="XMLID_176_" x="-276.3" y="426.1" class="st0" width="3.3" height="1"/>
</g>
<g>
	<rect x="-288.2" y="413.8" class="st1" width="4.7" height="5.1"/>
	<rect x="-282.6" y="413.8" class="st1" width="4.7" height="5.1"/>
	<path class="st2" d="M-289,412.9v6.9h12.1v-6.9H-289z M-277.8,418.9h-4.8v-5.1h4.7L-277.8,418.9L-277.8,418.9z M-283.4,418.9h-4.7
		v-5.1h4.7V418.9z"/>
</g>
<g>
	<rect x="-288.2" y="422.9" class="st3" width="4.7" height="5.1"/>
	<rect x="-282.5" y="422.9" class="st3" width="4.7" height="5.1"/>
	<path class="st4" d="M-289,422v6.9h12.1V422H-289z M-277.8,428h-4.7v-5.1h4.7V428z M-283.3,428h-4.8v-5.1h4.7L-283.3,428
		L-283.3,428z"/>
</g>
</svg>
