<?xml version="1.0" encoding="utf-8"?>
<!-- Generator: Adobe Illustrator 19.1.0, SVG Export Plug-In . SVG Version: 6.00 Build 0)  -->
<!DOCTYPE svg PUBLIC "-//W3C//DTD SVG 1.1//EN" "http://www.w3.org/Graphics/SVG/1.1/DTD/svg11.dtd">
<svg version="1.1" id="Ebene_1" xmlns="http://www.w3.org/2000/svg" xmlns:xlink="http://www.w3.org/1999/xlink" x="0px" y="0px"
	 viewBox="-7 9 16 16" style="enable-background:new -7 9 16 16;" xml:space="preserve">
<style type="text/css">
	.st0{fill:#FFFFFF;}
</style>
<g id="XMLID_83_">
	<polygon id="XMLID_84_" points="9,22.7 5.1,20.5 5.1,22.2 1.6,22.2 1.6,23.2 5.1,23.2 5.1,25 	"/>
</g>
<g>
	<g>
		<rect x="-6.5" y="21.5" class="st0" width="2.9" height="3"/>
		<path d="M-3.1,25H-7v-4h3.9V25z M-6.1,24.1h2V22h-2V24.1z"/>
	</g>
	<g>
		<rect x="-2.6" y="15.7" class="st0" width="4.5" height="4.5"/>
		<path d="M2.4,20.7H-3v-5.5h5.5V20.7z M-2.1,19.7h3.6v-3.6h-3.6V19.7z"/>
	</g>
	<g>
		<rect x="3.2" y="9.5" class="st0" width="5.4" height="5.5"/>
		<path d="M9,15.4H2.7V9H9V15.4z M3.6,14.5h4.4V9.9H3.6V14.5z"/>
	</g>
</g>
</svg>
