<?xml version="1.0" encoding="utf-8"?>
<!-- Generator: Adobe Illustrator 19.0.0, SVG Export Plug-In . SVG Version: 6.00 Build 0)  -->
<!DOCTYPE svg PUBLIC "-//W3C//DTD SVG 1.1//EN" "http://www.w3.org/Graphics/SVG/1.1/DTD/svg11.dtd">
<svg version="1.1" id="Ebene_1" xmlns="http://www.w3.org/2000/svg" xmlns:xlink="http://www.w3.org/1999/xlink" x="0px" y="0px"
	 viewBox="0 0 16 16" style="enable-background:new 0 0 16 16;" xml:space="preserve">
<style type="text/css">
	.st0{fill:#FFFFFF;}
</style>
<polygon id="XMLID_19_" points="10.7,3.6 10.7,1.2 10.7,1.2 10.7,1.2 5.4,1.2 5.4,1.9 10,1.9 10,3.6 8.7,3.6 10.4,6.4 12,3.6 "/>
<g id="XMLID_140_">
	<path id="XMLID_141_" d="M0,4c0.2,0,1.1-0.1,1.1-0.1s0.2,0.5,0.3,0.7C1.6,4.9,2,5,2.4,5c0.5,0,1.3-0.3,1.1-1
		C3.3,3.5,2.3,3.4,1.9,3.3C1.2,3.1,0.5,2.8,0.3,2.1C0,1.5,0.3,0.7,1,0.3c1.3-0.8,3.5-0.3,3.5,1.4c-0.2,0-1.1,0-1.1,0S3.2,1.3,3,1.2
		C2.8,1,2.5,1,2.3,1C1.7,1,0.9,1.4,1.6,2C2.1,2.4,3,2.3,3.5,2.6C5,3.2,5,5.2,3.5,5.8C2,6.4,0.2,5.7,0,4z"/>
</g>
<g>
	<g>
		<rect x="8.2" y="9.5" class="st0" width="6.8" height="5.5"/>
		<rect x="8.2" y="7.8" class="st0" width="6.8" height="0.7"/>
		<path d="M7.2,6.8V16H16V6.8H7.2z M8.2,9.5H15V15H8.2V9.5z M15,8.5H8.2V7.8H15V8.5z"/>
	</g>
	<g>
		<path id="XMLID_6_" d="M13.5,10.1c-0.1,0.2-0.3,0.5-0.6,0.7c-0.2,0.1-0.4,0.3-0.6,0.4V12c0.3-0.2,0.7-0.5,1-0.7v3.1h0.9V10
			L13.5,10.1L13.5,10.1z"/>
		<path id="XMLID_2_" d="M10.9,12c0.4-0.2,0.6-0.5,0.6-0.9S11.3,10,10.2,10s-1.3,1.1-1.3,1.1l0.7,0.1c0,0,0.1-0.6,0.6-0.6
			s0.5,0.2,0.5,0.5s-0.5,0.5-0.7,0.5v0.6c0.2,0,0.8,0.1,0.8,0.7c0,0.6-0.1,0.9-0.6,0.9s-0.6-0.5-0.6-0.7l-0.8,0.1
			c0.1,0.3,0.3,1.2,1.4,1.2s1.5-0.7,1.5-1.4S11.1,12.1,10.9,12z"/>
	</g>
</g>
</svg>
