/* XPM */
static char *knime____[] = {
/* columns rows colors chars-per-pixel */
"128 128 2 1",
"  c #FED900",
". c None",
/* pixels */
"................................................................................................................................",
"................................................................................................................................",
"................................................................................................................................",
"................................................................................................................................",
"................................................................................................................................",
"................................................................................................................................",
"................................................................................................................................",
"................................................................................................................................",
"................................................................................................................................",
"...............................................................  ...............................................................",
"...............................................................  ...............................................................",
"..............................................................    ..............................................................",
"..............................................................    ..............................................................",
".............................................................      .............................................................",
".............................................................       ............................................................",
"............................................................        ............................................................",
"............................................................         ...........................................................",
"...........................................................          ...........................................................",
"..........................................................            ..........................................................",
"..........................................................     ..     ..........................................................",
".........................................................      ..      .........................................................",
".........................................................     ....      ........................................................",
"........................................................      .....     ........................................................",
".......................................................        ....      .......................................................",
".......................................................        .....     .......................................................",
"......................................................          ....      ......................................................",
"......................................................           ....      .....................................................",
".....................................................            ....      .....................................................",
".....................................................             ....      ....................................................",
"....................................................        .      ....     ....................................................",
"...................................................        ...     ....      ...................................................",
"...................................................        ....     ....     ...................................................",
"..................................................        .....      ...      ..................................................",
"..................................................        ......     ....      .................................................",
".................................................          ......     ...      .................................................",
".................................................           .....      ...      ................................................",
"................................................            ......     ....     ................................................",
"...............................................              ......     ...      ...............................................",
"...............................................               .....      ...     ...............................................",
"..............................................          ..     .....     ...      ..............................................",
"..............................................          ...     .....     ...      .............................................",
".............................................           ....     ....      ...     .............................................",
".............................................          ......    .....     ...      ............................................",
"............................................           ......     .....     ...     ............................................",
"...........................................           ........     ....      ..      ...........................................",
"...........................................            ........     ....     ...      ..........................................",
"..........................................               .......     ....     ..      ..........................................",
"..........................................                .......    ....      ..      .........................................",
".........................................            .     .......    ....     ...     .........................................",
"........................................             ..     ......     ....     ..      ........................................",
"........................................             ...     ......     ...      ..     ........................................",
".......................................             .....     ......     ...     ..      .......................................",
".......................................             ......     ......     ...     ..      ......................................",
"......................................              ........    ......    ....     .      ......................................",
"......................................              .........    .....     ...     ..      .....................................",
".....................................               ..........    .....     ...     ..     .....................................",
"....................................                 ..........    .....     ...     .      ....................................",
"....................................                   .........    .....     ..     ..     ....................................",
"...................................                .     ........     ....    ...     .      ...................................",
"...................................               ...     ........     ....    ...     .      ..................................",
"..................................                .....     .......     ...     ..     ..     ..................................",
"..................................                .......     ......     ...     ..     .      .................................",
".................................                 .........     .....     ...     ..     .     .................................",
"................................                  ..........     .....     ...    ..     .      ................................",
"................................                  ............     .....    ...    ..     .     ................................",
"...............................                   ..............     ....    ..     ..     .     ...............................",
"...............................     .             ...............     ....    ..     .     .      ..............................",
"..............................      .    .        .................     ...    ..     .     .     ..............................",
".............................      .    ..        ...................     ..    ..    ..           .............................",
".............................     ..    .         .....................    ..    ..    .           .............................",
"............................      .    ..         ......................     .    ..    .           ............................",
"............................     ..    .    .     ........................               .           ...........................",
"...........................      .     .    .     ..........................                         ...........................",
"...........................     ..    ..   ..     ............................                        ..........................",
"..........................      .     .    .      .............................                       ..........................",
".........................      ..    ..   ..      ...............................                      .........................",
".........................     ..     .    ..      .................................                    .........................",
"........................      ..    ..    .       ...................................                   ........................",
"........................     ..     ..   ..   .   ....................................                   .......................",
".......................      ..    ..    ..   .   ......................................                 .......................",
".......................     ..     ..    ..   .   .......................................                 ......................",
"......................      ..    ..    ...   .   ........................................                ......................",
".....................      ..     ..    ..   ..   .........................................                .....................",
".....................      ..    ...    ..   ..   ..........................................               .....................",
"....................      ..     ..    ...   ..   ........................................                  ....................",
"....................     ...    ...    ...   ..   ......................................     .               ...................",
"...................      ..     ...   ...    ..   ....................................     ....              ...................",
"...................     ...    ...    ...   ...   ...................................     .......             ..................",
"..................      ..     ...    ...   ...   .................................     ..........            ..................",
".................      ...    ...    ....   ...   ...............................     .............            .................",
".................     ...     ...    ...    ...   .............................     ...............            .................",
"................      ...    ....    ...   ....   ............................     ..............               ................",
"................     ...     ...    ....   ....   ..........................     ............                    ...............",
"...............      ...    ....    ....   ....   ........................     ...........          ..           ...............",
"..............      ...     ....   .....   ....   ......................     ..........          ......           ..............",
"..............      ...    ....    ....    ....   .....................     ........          ..........          ..............",
".............      ...     ....    ....   .....   ...................     .......          ..............          .............",
".............     ....    ....    .....   .....   .................     .....           ..................          ............",
"............      ...     ....    .....   .....   ................    ....           .....................          ............",
"............     ....    .....    ....    .....   ..............     ..          ...................                 ...........",
"...........      ...     ....    .....   ......   ............                ................                       ...........",
"..........      ....    .....    .....   ......   ..........               .............                              ..........",
"..........      ...     ....    ......   ......   .........             ..........                       .....        ..........",
".........      ....    .....    .....    ......   .......           ........                      .............        .........",
".........     ....     .....    .....    ......   .....          .....                       ...................        ........",
"........      ....    .....    ......   .......   ..                                  ..........................        ........",
"........     ....     .....    ......   .......                                  ................................        .......",
".......      ....     .....    ......   .....                             ........................                       .......",
"......      ....     .....    ......   ...                         ..................                                     ......",
"......     .....     .....    ......                          ........                                                    ......",
".....      ....     .....    ....                                                                                          .....",
".....     .....    ......                                                                             ................      ....",
"....      ....     .....                                                                 ..............................     ....",
"...      .....                                                         ................................................      ...",
"...      ....                                                  ........................................................      ...",
"..                                                                                                                            ..",
"..                                                                                                                            ..",
".                                                                                                                              .",
"                                                                                                                                ",
".                                                                                                                               ",
"................................................................................................................................",
"................................................................................................................................",
"................................................................................................................................",
"................................................................................................................................",
"................................................................................................................................",
"................................................................................................................................",
"................................................................................................................................",
"................................................................................................................................"
};
