<?xml version="1.0" encoding="utf-8"?>
<!-- Generator: Adobe Illustrator 19.0.0, SVG Export Plug-In . SVG Version: 6.00 Build 0)  -->
<!DOCTYPE svg PUBLIC "-//W3C//DTD SVG 1.0//EN" "http://www.w3.org/TR/2001/REC-SVG-20010904/DTD/svg10.dtd">
<svg version="1.0" id="Ebene_1" xmlns="http://www.w3.org/2000/svg" xmlns:xlink="http://www.w3.org/1999/xlink" x="0px" y="0px"
	 viewBox="0 0 16 16" enable-background="new 0 0 16 16" xml:space="preserve">
<g id="XMLID_11_">
	<polygon id="XMLID_12_" points="11,8.9 7.6,6.9 7.6,10.8 	"/>
</g>
<g>
	<path d="M0,9.9l1-0.1c0,0.4,0.2,0.7,0.3,1s0.4,0.5,0.8,0.6c0.4,0.2,0.8,0.2,1.2,0.2c0.4,0,0.8-0.1,1.1-0.2C4.7,11.4,5,11.2,5.1,11
		c0.2-0.2,0.2-0.4,0.2-0.7c0-0.3-0.1-0.5-0.2-0.7C5,9.5,4.7,9.3,4.4,9.2C4.2,9.1,3.7,9,3,8.8S1.7,8.5,1.4,8.3
		C1.1,8.1,0.8,7.9,0.6,7.6s-0.3-0.6-0.3-1c0-0.4,0.1-0.8,0.3-1.1s0.6-0.6,1-0.8c0.4-0.2,0.9-0.3,1.5-0.3c0.6,0,1.1,0.1,1.6,0.3
		c0.5,0.2,0.8,0.5,1,0.8C6,5.9,6.1,6.3,6.1,6.8l-1,0.1C5.1,6.3,4.9,5.9,4.6,5.7S3.8,5.3,3.2,5.3c-0.6,0-1.1,0.1-1.4,0.4
		S1.3,6.2,1.3,6.5c0,0.3,0.1,0.5,0.3,0.7c0.2,0.2,0.7,0.4,1.6,0.6C4.1,8,4.7,8.1,5,8.3c0.5,0.2,0.8,0.5,1,0.8s0.3,0.7,0.3,1.1
		c0,0.4-0.1,0.8-0.4,1.2c-0.2,0.4-0.6,0.7-1,0.9c-0.5,0.2-1,0.3-1.5,0.3c-0.7,0-1.3-0.1-1.8-0.3s-0.9-0.5-1.1-1
		C0.2,10.9,0,10.5,0,9.9z"/>
</g>
<g>
	<path d="M16,11.7v1h-5.4c0-0.2,0-0.5,0.1-0.7c0.1-0.4,0.4-0.7,0.7-1.1c0.3-0.4,0.7-0.8,1.3-1.2c0.9-0.7,1.5-1.3,1.8-1.7
		S15,7,15,6.6c0-0.4-0.1-0.7-0.4-1c-0.3-0.3-0.7-0.4-1.1-0.4c-0.5,0-0.9,0.1-1.2,0.4s-0.4,0.7-0.4,1.2l-1-0.1
		C10.8,6,11.1,5.4,11.6,5c0.5-0.4,1.1-0.6,1.9-0.6c0.8,0,1.4,0.2,1.9,0.7C15.8,5.5,16,6,16,6.7c0,0.3-0.1,0.7-0.2,1s-0.4,0.7-0.7,1
		c-0.3,0.4-0.8,0.8-1.6,1.4c-0.6,0.5-1,0.9-1.2,1c-0.2,0.2-0.3,0.4-0.4,0.5H16z"/>
</g>
</svg>
