<?xml version="1.0" encoding="utf-8"?>
<!-- Generator: Adobe Illustrator 19.1.0, SVG Export Plug-In . SVG Version: 6.00 Build 0)  -->
<!DOCTYPE svg PUBLIC "-//W3C//DTD SVG 1.1//EN" "http://www.w3.org/Graphics/SVG/1.1/DTD/svg11.dtd">
<svg version="1.1" id="Ebene_1" xmlns="http://www.w3.org/2000/svg" xmlns:xlink="http://www.w3.org/1999/xlink" x="0px" y="0px"
	 viewBox="0 0 16 16" style="enable-background:new 0 0 16 16;" xml:space="preserve">
<style type="text/css">
	.st0{fill:#F1933B;}
	.st1{fill:#FFFFFF;}
</style>
<g id="XMLID_7_">
	<rect id="XMLID_11_" x="6.1" y="5.9" class="st0" width="9.4" height="2.7"/>
	<path id="XMLID_8_" d="M16.1,5.3H5.3v4h10.7V5.3z M6.1,8.6V5.9h9.4v2.7H6.1z"/>
</g>
<polygon id="XMLID_19_" points="14.2,12.6 14.2,14.8 14.2,14.8 14.2,14.8 10.9,14.8 10.9,14.3 13.6,14.3 13.6,12.6 12.8,12.6 
	13.8,10.8 14.9,12.6 "/>
<g id="XMLID_2_">
	<rect id="XMLID_6_" x="5.9" y="5.9" class="st1" width="2.8" height="9.4"/>
	<path id="XMLID_3_" d="M5.3,5.3V16h4V5.3H5.3z M8.7,15.3H5.9V5.9h2.7V15.3z"/>
</g>
<g>
	<g>
		<path d="M0.1,2c1.5,0.7,3,0.7,4.5,0c0,0.2,0,0.4,0,0.7c0,0.1-0.2,0.2-0.3,0.3C4,3.2,3.6,3.3,3.2,3.4C2.4,3.5,1.6,3.5,0.8,3.3
			c-0.1,0-0.1,0-0.2-0.1C0.1,3-0.1,2.9-0.1,2.3V2H0.1z"/>
		<path d="M0.1,3.7c1.5,0.7,3,0.7,4.5,0c0,0.2,0,0.4,0,0.7c0,0.1-0.2,0.2-0.3,0.3C4,4.9,3.6,5,3.2,5.1C2.4,5.2,1.6,5.2,0.8,5
			C0.7,5,0.7,5,0.6,4.9C0.1,4.7-0.1,4.6-0.1,4V3.7H0.1z"/>
		<ellipse cx="2.3" cy="0.8" rx="2.3" ry="0.8"/>
	</g>
</g>
</svg>
