<?xml version="1.0" encoding="UTF-8" standalone="no"?>
<!-- Generator: Adobe Illustrator 19.1.0, SVG Export Plug-In . SVG Version: 6.00 Build 0)  -->

<svg
   xmlns:dc="http://purl.org/dc/elements/1.1/"
   xmlns:cc="http://creativecommons.org/ns#"
   xmlns:rdf="http://www.w3.org/1999/02/22-rdf-syntax-ns#"
   xmlns:svg="http://www.w3.org/2000/svg"
   xmlns="http://www.w3.org/2000/svg"
   xmlns:sodipodi="http://sodipodi.sourceforge.net/DTD/sodipodi-0.dtd"
   xmlns:inkscape="http://www.inkscape.org/namespaces/inkscape"
   version="1.1"
   id="Ebene_1"
   x="0px"
   y="0px"
   viewBox="0 0 16 16"
   style="enable-background:new 0 0 16 16;"
   xml:space="preserve"
   inkscape:version="0.91 r13725"
   sodipodi:docname="db_pivot-icon.svg"
   inkscape:export-filename="C:\DEVELOPMENT\workspaces\trunk_3.1\org.knime.base\src\org\knime\base\node\io\database\pivot\db_pivot-icon.png"
   inkscape:export-xdpi="90"
   inkscape:export-ydpi="90"><metadata
     id="metadata26"><rdf:RDF><cc:Work
         rdf:about=""><dc:format>image/svg+xml</dc:format><dc:type
           rdf:resource="http://purl.org/dc/dcmitype/StillImage" /></cc:Work></rdf:RDF></metadata><defs
     id="defs24" /><sodipodi:namedview
     pagecolor="#ffffff"
     bordercolor="#666666"
     borderopacity="1"
     objecttolerance="10"
     gridtolerance="10"
     guidetolerance="10"
     inkscape:pageopacity="0"
     inkscape:pageshadow="2"
     inkscape:window-width="2498"
     inkscape:window-height="1417"
     id="namedview22"
     showgrid="true"
     inkscape:zoom="83.4386"
     inkscape:cx="7.2273431"
     inkscape:cy="10.121581"
     inkscape:window-x="54"
     inkscape:window-y="-8"
     inkscape:window-maximized="1"
     inkscape:current-layer="Ebene_1"><inkscape:grid
       type="xygrid"
       id="grid4143" /></sodipodi:namedview><style
     type="text/css"
     id="style3">
	.st0{fill:#F1933B;}
	.st1{fill:#FFFFFF;}
</style><g
     id="XMLID_7_"
     transform="matrix(0.92592593,0,0,1.25,1.0925926,-4.625)"><rect
       id="XMLID_11_"
       x="6.0999999"
       y="5.9000001"
       class="st0"
       width="9.3999996"
       height="2.7"
       style="fill:#f1933b" /><path
       id="XMLID_8_"
       d="m 16.1,5.3 -10.8,0 0,4 10.7,0 0,-4 z m -9.9995601,3.2 0,-2.4 8.9195601,0 0,2.4 z"
       inkscape:connector-curvature="0"
       sodipodi:nodetypes="ccccccccccc" /></g><polygon
     id="XMLID_19_"
     points="10.9,14.8 10.9,14.3 13.6,14.3 13.6,12.6 12.8,12.6 13.8,10.8 14.9,12.6 14.2,12.6 14.2,14.8 14.2,14.8 14.2,14.8 "
     transform="matrix(1.1198486,0,0,1,-1.2063498,-2.8)" /><g
     id="XMLID_2_"
     transform="translate(0.7,-3)"><rect
       id="XMLID_6_"
       x="5.9000001"
       y="5.9000001"
       class="st1"
       width="2.8"
       height="9.3999996"
       style="fill:#ffffff" /><path
       id="XMLID_3_"
       d="m 5.3,5.3 0,10.7 4,0 0,-10.7 z m 3.05,9.7 -2.05,0 0,-9 1.95,0 0,9 z"
       inkscape:connector-curvature="0"
       sodipodi:nodetypes="ccccccccccc" /></g><path
     style="fill:#000000"
     inkscape:connector-curvature="0"
     id="path11"
     d="m 0,10.100012 c 2.8,0 3.9,-0.5 4.5,-1.1 0.5,-0.6 0.6,-2.5 0.6,-3 -1.7,0.8 -3.4,1.2 -5.1,1.2 l 0,2.9 0,0 z"
     class="st0" /><path
     style="fill:#000000"
     inkscape:connector-curvature="0"
     id="path13"
     d="m 0,14.900012 0,0 c 2.8,0 3.9,-0.5 4.5,-1.1 0.5,-0.6 0.6,-2.5 0.6,-3 -1.7,0.8 -3.4,1.2 -5.1,1.2 l 0,2.9 z"
     class="st0" /><path
     style="fill:#000000"
     inkscape:connector-curvature="0"
     id="path15"
     d="m 5.1,3.200012 c 0,-1.2 -2.3,-2.1 -5.1,-2.1 l 0,4.3 c 2.8,-0.1 5.1,-1 5.1,-2.2 z"
     class="st0" /></svg>