<?xml version="1.0" encoding="UTF-8" standalone="no"?>
<!-- Generator: Adobe Illustrator 19.1.0, SVG Export Plug-In . SVG Version: 6.00 Build 0)  -->

<svg
   xmlns:dc="http://purl.org/dc/elements/1.1/"
   xmlns:cc="http://creativecommons.org/ns#"
   xmlns:rdf="http://www.w3.org/1999/02/22-rdf-syntax-ns#"
   xmlns:svg="http://www.w3.org/2000/svg"
   xmlns="http://www.w3.org/2000/svg"
   xmlns:sodipodi="http://sodipodi.sourceforge.net/DTD/sodipodi-0.dtd"
   xmlns:inkscape="http://www.inkscape.org/namespaces/inkscape"
   version="1.1"
   id="Ebene_1"
   x="0px"
   y="0px"
   viewBox="-289 412.9 16 16"
   style="enable-background:new -289 412.9 16 16;"
   xml:space="preserve"
   inkscape:version="0.91 r13725"
   sodipodi:docname="icon.svg"
   inkscape:export-filename="C:\DEVELOPMENT\workspaces\trunk_3.1\org.knime.base\src\org\knime\base\node\io\database\pivot\icon.png"
   inkscape:export-xdpi="90"
   inkscape:export-ydpi="90"><metadata
     id="metadata16"><rdf:RDF><cc:Work
         rdf:about=""><dc:format>image/svg+xml</dc:format><dc:type
           rdf:resource="http://purl.org/dc/dcmitype/StillImage" /></cc:Work></rdf:RDF></metadata><defs
     id="defs14" /><sodipodi:namedview
     pagecolor="#ffffff"
     bordercolor="#666666"
     borderopacity="1"
     objecttolerance="10"
     gridtolerance="10"
     guidetolerance="10"
     inkscape:pageopacity="0"
     inkscape:pageshadow="2"
     inkscape:window-width="2498"
     inkscape:window-height="1417"
     id="namedview12"
     showgrid="false"
     inkscape:zoom="14.75"
     inkscape:cx="8"
     inkscape:cy="8"
     inkscape:window-x="54"
     inkscape:window-y="-8"
     inkscape:window-maximized="1"
     inkscape:current-layer="Ebene_1" /><style
     type="text/css"
     id="style3">
	.st0{fill:#F1933B;}
	.st1{fill:#FFFFFF;}
</style><g
     id="XMLID_7_"
     transform="matrix(0.625,0,0,1,-102.375,0)"><rect
       id="XMLID_11_"
       x="-288"
       y="413.89999"
       class="st0"
       width="14"
       height="4"
       style="fill:#f1933b" /><path
       id="XMLID_8_"
       d="m -273,412.9 -16,0 0,6 16,0 0,-6 z m -15,5 0,-4 14,0 0,4 -14,0 z"
       inkscape:connector-curvature="0" /></g><polygon
     id="XMLID_19_"
     points="-275.9,427.1 -275.9,427.1 -280.6,427.1 -280.6,426.4 -276.7,426.4 -276.7,423.9 -277.9,423.9 -276.3,421.1 -274.7,423.9 -275.9,423.9 -275.9,427.1 "
     transform="translate(1.6,0)" /><g
     id="XMLID_2_"
     transform="matrix(0.66666667,0,0,1,-91.333332,0)"><rect
       id="XMLID_6_"
       x="-288"
       y="413.89999"
       class="st1"
       width="4"
       height="14.1"
       style="fill:#ffffff" /><path
       id="XMLID_3_"
       d="m -289,412.9 0,16 6,0 0,-16 -6,0 z m 5,15 -4,0 0,-14 4,0 0,14 z"
       inkscape:connector-curvature="0" /></g><path
     style="fill:#ffd104"
     inkscape:connector-curvature="0"
     id="path11"
     d="m -289,423.00001 c 2.8,0 3.9,-0.5 4.5,-1.1 0.5,-0.6 0.6,-2.5 0.6,-3 -1.7,0.8 -3.4,1.2 -5.1,1.2 l 0,2.9 0,0 z"
     class="st0" /><path
     style="fill:#ffd104"
     inkscape:connector-curvature="0"
     id="path13"
     d="m -289,427.80001 0,0 c 2.8,0 3.9,-0.5 4.5,-1.1 0.5,-0.6 0.6,-2.5 0.6,-3 -1.7,0.8 -3.4,1.2 -5.1,1.2 l 0,2.9 z"
     class="st0" /><path
     style="fill:#ffd104"
     inkscape:connector-curvature="0"
     id="path15"
     d="m -283.9,416.10001 c 0,-1.2 -2.3,-2.1 -5.1,-2.1 l 0,4.3 c 2.8,-0.1 5.1,-1 5.1,-2.2 z"
     class="st0" /></svg>