<?xml version="1.0" encoding="utf-8"?>
<!-- Generator: Adobe Illustrator 19.0.0, SVG Export Plug-In . SVG Version: 6.00 Build 0)  -->
<!DOCTYPE svg PUBLIC "-//W3C//DTD SVG 1.1//EN" "http://www.w3.org/Graphics/SVG/1.1/DTD/svg11.dtd">
<svg version="1.1" id="Ebene_1" xmlns="http://www.w3.org/2000/svg" xmlns:xlink="http://www.w3.org/1999/xlink" x="0px" y="0px"
	 viewBox="0 0 16 16" style="enable-background:new 0 0 16 16;" xml:space="preserve">
<style type="text/css">
	.st0{fill:#CBCBCB;}
</style>
<rect y="0" class="st0" width="6" height="16"/>
<rect x="0" y="0" class="st0" width="16" height="6"/>
<g>
	<polygon points="10.8,10 13.6,5.5 12.9,5 10.4,9.2 5,4.9 4.5,5.6 9.8,9.8 5.1,12.9 5.5,13.6 10.8,10.1 	"/>
	<g>
		<path d="M4.7,7.9c1.5,0,2.7-1.2,2.7-2.7S6.2,2.5,4.7,2.5C3.2,2.5,2,3.8,2,5.2S3.2,7.9,4.7,7.9z"/>
		<path d="M13.3,2.5c-1.5,0-2.7,1.2-2.7,2.7s1.2,2.7,2.7,2.7S16,6.7,16,5.2S14.8,2.5,13.3,2.5z"/>
		<path d="M5.3,10.6c-1.5,0-2.7,1.2-2.7,2.7S3.8,16,5.3,16S8,14.8,8,13.3S6.7,10.6,5.3,10.6z"/>
	</g>
	<circle cx="10.5" cy="9.8" r="1.9"/>
</g>
</svg>
