<?xml version="1.0" encoding="utf-8"?>
<!-- Generator: Adobe Illustrator 19.1.0, SVG Export Plug-In . SVG Version: 6.00 Build 0)  -->
<!DOCTYPE svg PUBLIC "-//W3C//DTD SVG 1.1//EN" "http://www.w3.org/Graphics/SVG/1.1/DTD/svg11.dtd">
<svg version="1.1" id="Ebene_1" xmlns="http://www.w3.org/2000/svg" xmlns:xlink="http://www.w3.org/1999/xlink" x="0px" y="0px"
	 viewBox="0 0 16 16" style="enable-background:new 0 0 16 16;" xml:space="preserve">
<style type="text/css">
	.st0{fill:#FFFFFF;}
	.st1{fill:#F1933B;enable-background:new    ;}
	.st2{fill:#1A171B;}
	.st3{fill:none;}
</style>
<rect x="10.2" y="0.4" class="st0" width="5.8" height="15.2"/>
<polygon id="XMLID_55_" points="5.6,2 3.5,2 3.5,-0.1 2.1,-0.1 2.1,2 0,2 0,3.5 2.1,3.5 2.1,5.6 3.5,5.6 3.5,3.5 5.6,3.5 "/>
<rect x="10.6" y="0.8" class="st1" width="5.4" height="2.8"/>
<path class="st2" d="M16,0.8v-0.9H9.8V16H16v-0.9h-2v-3.2h2V11h-2V7.8h2V6.9h-2V4.2h2V3.3h-5.3V0.8H16z M13.1,15.1h-2.4v-3.2h2.4
	V15.1z M13.1,11h-2.4V7.8h2.4V11z M13.1,4.2v2.7h-2.4V4.2H13.1z"/>
<g>
	<polygon points="9.3,5.6 7.3,4.2 7.3,5.2 5.3,5.2 5.3,6 7.3,6 7.3,7 	"/>
</g>
<g>
	<rect y="14.9" class="st3" width="4.1" height="1.1"/>
	<polygon points="5.6,9.2 5.6,7 4.1,7 4.1,9.2 1,9.2 1,13.4 0,13.4 0,14.9 4.1,14.9 4.1,16 5.5,16 5.5,13.4 2.4,13.4 2.4,10.7 
		7.3,10.7 7.3,13 8.7,13 8.7,9.2 	"/>
</g>
</svg>
