<?xml version="1.0" encoding="utf-8"?>
<!-- Generator: Adobe Illustrator 19.0.0, SVG Export Plug-In . SVG Version: 6.00 Build 0)  -->
<!DOCTYPE svg PUBLIC "-//W3C//DTD SVG 1.1//EN" "http://www.w3.org/Graphics/SVG/1.1/DTD/svg11.dtd">
<svg version="1.1" id="Ebene_1" xmlns="http://www.w3.org/2000/svg" xmlns:xlink="http://www.w3.org/1999/xlink" x="0px" y="0px"
	 viewBox="0 0 32 32" style="enable-background:new 0 0 32 32;" xml:space="preserve">
<style type="text/css">
	.st0{fill:#FFFFFF;}
	.st1{fill:#E64E4F;}
</style>
<path class="st0" d="M0,29.2L0,2.8C0,1.3,1.3,0,2.8,0l26.3,0C30.7,0,32,1.3,32,2.8v26.3c0,1.6-1.3,2.8-2.8,2.8H2.8
	C1.3,32,0,30.7,0,29.2z"/>
<path class="st1" d="M32,5.3v-1h-4.1V0h-1v4.3h-4.6V0h-1v4.3h-4.6V0h-1v4.3h-4.6V0h-1v4.3H5.5V0h-1v4.3H0v1h4.5v4.6H0v1h4.5v4.6H0v1
	h4.5v4.6H0v1h4.5v4.6H0v1h4.5V32h1v-4.3h4.6V32h1v-4.3h4.6V32h1v-4.3h4.6V32h1v-4.3h4.6V32h1v-4.3H32v-1h-4.1v-4.6H32v-1h-4.1v-4.6
	H32v-1h-4.1v-4.6H32v-1h-4.1V5.3H32z M21.3,5.3v4.6h-4.6V5.3H21.3z M15.7,16.5v4.6h-4.6v-4.6H15.7z M11.1,15.5v-4.6h4.6v4.6H11.1z
	 M16.7,16.5h4.6v4.6h-4.6V16.5z M16.7,15.5v-4.6h4.6v4.6H16.7z M15.7,5.3v4.6h-4.6V5.3H15.7z M5.5,5.3h4.6v4.6H5.5V5.3z M5.5,10.9
	h4.6v4.6H5.5V10.9z M5.5,16.5h4.6v4.6H5.5V16.5z M5.5,26.7v-4.6h4.6v4.6H5.5z M11.1,26.7v-4.6h4.6v4.6H11.1z M16.7,26.7v-4.6h4.6
	v4.6H16.7z M26.9,26.7h-4.6v-4.6h4.6V26.7z M26.9,21.1h-4.6v-4.6h4.6V21.1z M26.9,15.5h-4.6v-4.6h4.6V15.5z M26.9,9.9h-4.6V5.3h4.6
	V9.9z"/>
</svg>
