<?xml version="1.0" encoding="utf-8"?>
<!-- Generator: Adobe Illustrator 21.0.0, SVG Export Plug-In . SVG Version: 6.00 Build 0)  -->
<svg version="1.0" id="Ebene_1" xmlns="http://www.w3.org/2000/svg" xmlns:xlink="http://www.w3.org/1999/xlink" x="0px" y="0px"
	 viewBox="0 0 16 16" style="enable-background:new 0 0 16 16;" xml:space="preserve">
<style type="text/css">
	.st0{fill:#222221;}
	.st1{fill:#FFFFFF;}
	.st2{fill:#9B9A9A;}
	.st3{fill:none;stroke:#222221;stroke-linecap:round;stroke-linejoin:round;stroke-miterlimit:10;}
</style>
<g>
	<path class="st0" d="M9.1,3.6h-2c-0.6,0-1-0.4-1-1V1.6c0-0.6,0.4-1,1-1h2c0.6,0,1,0.4,1,1v0.9C10.1,3.1,9.6,3.6,9.1,3.6z"/>
	<path class="st0" d="M12.4,5.9l-0.7-0.7c-0.4-0.4-0.4-1,0-1.4l0.7-0.7c0.4-0.4,1-0.4,1.4,0l0.7,0.7c0.4,0.4,0.4,1,0,1.4l-0.7,0.7
		C13.4,6.3,12.8,6.3,12.4,5.9z"/>
	<g>
		<g>
			<circle class="st1" cx="8" cy="8.6" r="6.3"/>
		</g>
	</g>
	<g>
		<path class="st2" d="M14.1,9H8V2.5C11.6,2.5,14.3,5.5,14.1,9z"/>
	</g>
	<line class="st3" x1="8" y1="9" x2="8" y2="4.6"/>
	<line class="st3" x1="8" y1="9" x2="11.5" y2="9"/>
	<path class="st0" d="M8,15.4c-3.8,0-6.8-3.1-6.8-6.8c0-3.8,3.1-6.8,6.8-6.8c3.8,0,6.8,3.1,6.8,6.8C14.8,12.3,11.7,15.4,8,15.4z
		 M8,2.7c-3.2,0-5.9,2.6-5.9,5.9c0,3.2,2.6,5.9,5.9,5.9s5.9-2.6,5.9-5.9C13.8,5.3,11.2,2.7,8,2.7z"/>
</g>
</svg>
