<?xml version="1.0" encoding="utf-8"?>
<!-- Generator: Adobe Illustrator 19.1.0, SVG Export Plug-In . SVG Version: 6.00 Build 0)  -->
<!DOCTYPE svg PUBLIC "-//W3C//DTD SVG 1.1//EN" "http://www.w3.org/Graphics/SVG/1.1/DTD/svg11.dtd">
<svg version="1.1" id="Ebene_1" xmlns="http://www.w3.org/2000/svg" xmlns:xlink="http://www.w3.org/1999/xlink" x="0px" y="0px"
	 viewBox="-289 412.9 16 16" style="enable-background:new -289 412.9 16 16;" xml:space="preserve">
<style type="text/css">
	.st0{fill:#FFFFFF;}
	.st1{fill:#F1933B;}
</style>
<rect id="XMLID_37_" x="-284.1" y="412.9" class="st0" width="2.5" height="5.3"/>
<rect id="XMLID_38_" x="-280.6" y="412.9" class="st0" width="2.6" height="5.3"/>
<polygon id="XMLID_39_" points="-276.9,412.9 -277.5,412.9 -278,412.9 -278,418.2 -280.6,418.2 -280.6,412.9 -280.6,412.9 
	-281.1,412.9 -281.1,412.9 -281.6,412.9 -281.6,412.9 -281.6,418.2 -284.1,418.2 -284.1,412.9 -284.6,412.9 -285.1,412.9 
	-285.1,419.2 -281.6,419.2 -280.6,419.2 -276.9,419.2 "/>
<g id="XMLID_2_">
	<polygon id="XMLID_40_" class="st0" points="-285.7,425.3 -288,425.3 -288,428.9 -288.5,428.9 -288.5,428.9 -285.2,428.9 
		-285.2,428.9 -285.7,428.9 	"/>
	<rect id="XMLID_41_" x="-288" y="422.5" class="st1" width="2.3" height="1.8"/>
	<path id="XMLID_44_" d="M-289,424.3v1v3.6h0.5h0.5v-3.6h2.3v3.6h0.5h0.5v-3.6v-1v-2.8h-4.3V424.3z M-288,422.5h2.3v1.8h-2.3V422.5z
		"/>
</g>
<g id="XMLID_4_">
	<polygon id="XMLID_11_" class="st0" points="-274,425.3 -276.3,425.3 -276.3,428.9 -276.8,428.9 -276.8,428.9 -273.5,428.9 
		-273.5,428.9 -274,428.9 	"/>
	<rect id="XMLID_10_" x="-276.3" y="422.5" class="st1" width="2.3" height="1.8"/>
	<path id="XMLID_5_" d="M-277.3,424.3v1v3.6h0.5h0.5v-3.6h2.3v3.6h0.5h0.5v-3.6v-1v-2.8h-4.3V424.3z M-276.3,422.5h2.3v1.8h-2.3
		V422.5z"/>
</g>
<g id="XMLID_1_">
	<g id="XMLID_7_">
		<polygon id="XMLID_9_" points="-281,426.6 -279.4,423.8 -280.6,423.8 -280.6,420.6 -281.4,420.6 -281.4,423.8 -282.6,423.8 		"/>
	</g>
</g>
</svg>
