<?xml version="1.0" encoding="utf-8"?>
<!-- Generator: Adobe Illustrator 19.1.0, SVG Export Plug-In . SVG Version: 6.00 Build 0)  -->
<!DOCTYPE svg PUBLIC "-//W3C//DTD SVG 1.1//EN" "http://www.w3.org/Graphics/SVG/1.1/DTD/svg11.dtd">
<svg version="1.1" id="Ebene_1" xmlns="http://www.w3.org/2000/svg" xmlns:xlink="http://www.w3.org/1999/xlink" x="0px" y="0px"
	 viewBox="-412 290.3 16 16" style="enable-background:new -412 290.3 16 16;" xml:space="preserve">
<style type="text/css">
	.st0{fill:#FFFFFF;}
	.st1{fill:#CBCBCB;}
	.st2{enable-background:new    ;}
	.st3{fill:#F1933B;}
</style>
<g id="XMLID_5_">
	<rect id="XMLID_18_" x="-411" y="291.3" class="st0" width="2.9" height="14"/>
	<rect id="XMLID_19_" x="-407.1" y="291.3" class="st0" width="3.1" height="14"/>
	<path id="XMLID_22_" d="M-408.1,290.3h-3.9v16h3.9h1h4.1v-16h-4.1H-408.1z M-404,305.3h-3.1v-14h3.1V305.3z M-408.1,305.3h-2.9v-14
		h2.9V305.3z"/>
	<rect id="XMLID_24_" x="-400.1" y="291.3" class="st1" width="3.1" height="14"/>
	<path id="XMLID_27_" d="M-401.1,290.3v16h5.1v-16H-401.1z M-397,305.3h-3.1v-14h3.1V305.3z"/>
</g>
<g id="XMLID_11_">
	<polygon id="XMLID_12_" points="-401.4,298.3 -405.2,296 -405.2,297.8 -409.9,297.8 -409.9,298.8 -405.2,298.8 -405.2,300.6 	"/>
</g>
<g class="st2">
	<g>
		<rect x="-411.5" y="290.8" class="st3" width="4" height="3.2"/>
		<path d="M-407.1,294.5h-4.9v-4.2h4.9V294.5z M-411.1,293.5h3v-2.2h-3V293.5z"/>
	</g>
</g>
<g class="st2">
	<g>
		<rect x="-407.5" y="290.8" class="st3" width="4" height="3.2"/>
		<path d="M-403.1,294.5h-4.9v-4.2h4.9V294.5z M-407.1,293.5h3v-2.2h-3V293.5z"/>
	</g>
</g>
<g class="st2">
	<g>
		<rect x="-400.6" y="290.8" class="st3" width="4.1" height="3.2"/>
		<path d="M-396,294.5h-5.1v-4.2h5.1V294.5z M-400.1,293.5h3.2v-2.2h-3.2V293.5z"/>
	</g>
</g>
</svg>
