<?xml version="1.0" encoding="utf-8"?>
<!-- Generator: Adobe Illustrator 19.0.0, SVG Export Plug-In . SVG Version: 6.00 Build 0)  -->
<!DOCTYPE svg PUBLIC "-//W3C//DTD SVG 1.0//EN" "http://www.w3.org/TR/2001/REC-SVG-20010904/DTD/svg10.dtd">
<svg version="1.0" id="Ebene_1" xmlns="http://www.w3.org/2000/svg" xmlns:xlink="http://www.w3.org/1999/xlink" x="0px" y="0px"
	 viewBox="0 0 16 16" enable-background="new 0 0 16 16" xml:space="preserve">
<g id="XMLID_10_">
	<rect id="XMLID_7_" x="11" y="1" fill="#FFFFFF" width="4" height="4"/>
	<path id="XMLID_8_" d="M16,0L0,0l0,6h11h5V0z M6,5V1h4v4H6z M1,5V1h4v4H1z M11,5V1h4v4H11z"/>
	<rect id="XMLID_2_" x="6" y="1" fill="#FFFFFF" width="4" height="4"/>
	<rect id="XMLID_1_" x="1" y="1" fill="#FFFFFF" width="4" height="4"/>
</g>
<g id="XMLID_11_">
	<rect id="XMLID_19_" x="11" y="11" fill="#FFFFFF" width="4" height="4"/>
	<path id="XMLID_14_" d="M16,10H0l0,6h11h5V10z M6,15v-4h4v4H6z M1,15v-4h4v4H1z M11,15v-4h4v4H11z"/>
	<rect id="XMLID_13_" x="6" y="11" fill="#FFFFFF" width="4" height="4"/>
	<rect id="XMLID_12_" x="1" y="11" fill="#FFFFFF" width="4" height="4"/>
</g>
</svg>
