<?xml version="1.0" encoding="utf-8"?>
<!-- Generator: Adobe Illustrator 19.1.0, SVG Export Plug-In . SVG Version: 6.00 Build 0)  -->
<!DOCTYPE svg PUBLIC "-//W3C//DTD SVG 1.1//EN" "http://www.w3.org/Graphics/SVG/1.1/DTD/svg11.dtd">
<svg version="1.1" id="Ebene_1" xmlns="http://www.w3.org/2000/svg" xmlns:xlink="http://www.w3.org/1999/xlink" x="0px" y="0px"
	 viewBox="-412 290.3 16 16" style="enable-background:new -412 290.3 16 16;" xml:space="preserve">
<style type="text/css">
	.st0{fill:#E64E4F;}
	.st1{fill:#FFFFFF;}
	.st2{fill:#E4E4E4;}
</style>
<g>
	<circle class="st0" cx="-406.9" cy="295.7" r="5.1"/>
	<g id="XMLID_132_">
		<path id="XMLID_133_" class="st1" d="M-405.8,295.7l1.8-1.8c0.3-0.3,0.3-0.8,0-1.1c-0.3-0.3-0.8-0.3-1.1,0l-1.8,1.9l-1.8-1.9
			c-0.3-0.3-0.8-0.3-1.1,0c-0.3,0.3-0.3,0.8,0,1.1l1.8,1.8l-1.8,1.8c-0.3,0.3-0.3,0.8,0,1.1c0.1,0.1,0.3,0.2,0.5,0.2
			c0.2,0,0.4-0.1,0.5-0.2l1.8-1.8l1.9,1.8c0.1,0.1,0.3,0.2,0.5,0.2c0.2,0,0.4,0,0.6-0.2c0.3-0.3,0.3-0.8,0-1.1L-405.8,295.7z"/>
	</g>
</g>
<path class="st2" d="M-396,296.9c0.2-0.6-0.3-1-0.8-0.7c-0.5,0.3-1.4,3.2-1.4,3.2c-0.4,1-1.5,0.6-1-0.4l1.7-4.2c0.4-1-0.6-1.4-1-0.4
	c0,0-1.9,4.2-2.1,4.3c-0.3,0-0.3,0-0.4-0.3c-0.2-0.3,2.4-6.1,1.4-6.1c-1,0.2-2.8,5.3-3,5.4c-0.3,0.2-0.4,0.1-0.5-0.1
	c-0.1-0.2,2-5.2,0.9-5.1c-0.7,0.1-3.4,7.3-3.4,7.3l-0.6-2.2c-0.3-0.9-1.4-1.4-1.5-0.2c-0.1,1,0.4,2.3,0.6,3.2c0.2,1,0.4,1.9,0.8,2.9
	c0.7,2,3.8,2.5,3.8,2.5c1.5,0.2,2.8-0.5,3.5-1.8C-398,302.3-396,296.9-396,296.9z"/>
</svg>
