<?xml version="1.0" encoding="UTF-8" standalone="no"?>
<svg
   xmlns:dc="http://purl.org/dc/elements/1.1/"
   xmlns:cc="http://creativecommons.org/ns#"
   xmlns:rdf="http://www.w3.org/1999/02/22-rdf-syntax-ns#"
   xmlns:svg="http://www.w3.org/2000/svg"
   xmlns="http://www.w3.org/2000/svg"
   xmlns:sodipodi="http://sodipodi.sourceforge.net/DTD/sodipodi-0.dtd"
   xmlns:inkscape="http://www.inkscape.org/namespaces/inkscape"
   width="500"
   height="500"
   id="svg2"
   version="1.1"
   inkscape:version="0.48.2 r9819"
   sodipodi:docname="orange-hand.svg"
   inkscape:export-filename="C:\Users\adae\Desktop\orange-hand.png"
   inkscape:export-xdpi="2.8800001"
   inkscape:export-ydpi="2.8800001">
  <metadata
     id="metadata19">
    <rdf:RDF>
      <cc:Work
         rdf:about="">
        <dc:format>image/svg+xml</dc:format>
        <dc:type
           rdf:resource="http://purl.org/dc/dcmitype/StillImage" />
        <dc:title></dc:title>
      </cc:Work>
    </rdf:RDF>
  </metadata>
  <defs
     id="defs17" />
  <sodipodi:namedview
     pagecolor="#ffffff"
     bordercolor="#666666"
     borderopacity="1"
     objecttolerance="10"
     gridtolerance="10"
     guidetolerance="10"
     inkscape:pageopacity="0"
     inkscape:pageshadow="2"
     inkscape:window-width="770"
     inkscape:window-height="433"
     id="namedview15"
     showgrid="false"
     inkscape:zoom="0.43098489"
     inkscape:cx="313.97825"
     inkscape:cy="70.463958"
     inkscape:window-x="221"
     inkscape:window-y="115"
     inkscape:window-maximized="0"
     inkscape:current-layer="svg2" />
  <path
     style="fill:#552200;fill-opacity:1;stroke:none"
     d=""
     id="path3006"
     inkscape:connector-curvature="0" />
  <path
     style="fill:#552200;fill-opacity:1;stroke:none"
     d="M 122.90939,475.07513 C 86.802137,461.70032 53.448157,430.97131 42.320837,400.82899 c -5.25911,-14.24618 -5.77913,-19.09829 -3.60872,-33.67182 2.28563,-15.34724 3.86608,-18.81109 16.01914,-35.109 17.17907,-23.03807 29.23674,-32.40497 43.65499,-33.91297 6.073293,-0.63522 13.125333,-1.42824 15.671203,-1.7623 6.79668,-0.8918 21.50376,-11.39971 28.60869,-20.44033 3.40711,-4.33537 9.92016,-17.42025 14.47344,-29.07753 4.55327,-11.65727 10.658,-23.61497 13.56608,-26.57267 14.17419,-14.41605 47.56324,-11.0329 79.4244,8.04767 48.88756,29.27713 74.53526,70.64279 68.43597,110.37638 -2.37476,15.47026 -3.5789,17.56144 -37.64622,65.37934 -38.56667,54.1333 -51.47434,66.89752 -74.83338,74.00186 -24.96434,7.59253 -57.75324,6.40501 -83.17704,-3.01249 z"
     id="path2996"
     inkscape:connector-curvature="0" />
  <path
     style="fill:#552200;fill-opacity:1;stroke:none"
     d="m 33.186177,292.49933 c -5.54336,-6.64249 -5.41436,-10.74499 1.4252,-45.32555 6.47976,-32.76146 4.44539,-52.91829 -9.51193,-94.24517 -12.10594,-35.84508 -12.27604,-48.1152 -0.80107,-57.784191 18.47374,-15.56623 46.6287,8.389641 62.86565,53.489741 10.68721,29.68501 14.249133,59.15113 10.78777,89.24199 -4.09037,35.55903 -12.73684,50.1745 -34.73305,58.71066 -12.70915,4.93209 -23.76071,3.42795 -30.03257,-4.08748 z"
     id="path2998"
     inkscape:connector-curvature="0" />
  <path
     style="fill:#552200;fill-opacity:1;stroke:none"
     d="m 180.3102,193.12766 c -7.18728,-10.91834 -7.0289,-20.95791 1.32153,-83.76734 9.42025,-70.856211 13.29947,-83.842901 27.92815,-93.496621 10.08306,-6.6539898 13.69766,-6.6102698 23.12631,0.27971 12.67625,9.26316 13.58326,23.45508 4.95526,77.53441 -9.18592,57.576191 -19.20749,85.870911 -35.35969,99.833741 -8.52704,7.37125 -16.96356,7.22385 -21.97156,-0.3839 z"
     id="path3000"
     inkscape:connector-curvature="0" />
  <path
     style="fill:#552200;fill-opacity:1;stroke:none"
     d="m 260.75837,212.24276 c -10.0466,-10.74743 -3.69775,-28.84135 26.98224,-76.89825 22.73721,-35.615359 32.93589,-55.981866 39.10276,-78.087206 9.28468,-33.281262 36.3363,-49.0726954 54.29157,-31.69281 6.77503,6.557924 7.2995,8.722052 6.46831,26.690759 -0.79937,17.280987 -2.93658,23.659532 -18.38433,54.868457 -25.70567,51.93293 -57.92517,93.7998 -80.44831,104.53661 -14.37176,6.85106 -22.00407,7.00975 -28.01224,0.58244 z"
     id="path3002"
     inkscape:connector-curvature="0" />
  <path
     style="fill:#552200;fill-opacity:1;stroke:none"
     d="m 309.87558,254.22986 c -6.00635,-5.21513 -3.7957,-15.44834 5.0543,-23.39662 4.06901,-3.65442 23.52396,-14.62543 43.23323,-24.38 19.70928,-9.75458 47.53997,-25.00589 61.84599,-33.89178 33.10711,-20.56379 38.78635,-22.95491 51.07771,-21.50495 13.89698,1.63936 19.63927,9.42596 17.13692,23.23786 -2.49596,13.77654 -10.11003,20.60062 -47.34536,42.43294 -38.23625,22.4192 -47.01309,26.50554 -77.71239,36.18154 -26.99296,8.5078 -44.51305,8.9421 -53.2904,1.32101 z"
     id="path3004"
     inkscape:connector-curvature="0" />
  <path
     style="fill:#552200;fill-opacity:1;stroke:none"
     d="m 338.12696,325.06882 c -10.49539,-12.21656 3.97763,-22.71027 39.81428,-28.86746 27.36146,-4.70104 52.1391,-11.09282 73.87182,-19.05642 15.69376,-5.75071 25.47521,-5.63302 33.66943,0.40509 6.89489,5.08069 5.51263,15.73421 -3.05812,23.5699 -15.56722,14.23215 -53.58988,26.03338 -93.11285,28.89981 -32.14057,2.33101 -46.08756,0.98196 -51.18456,-4.95092 z"
     id="path3008"
     inkscape:connector-curvature="0" />
</svg>
