<?xml version="1.0" encoding="utf-8"?>
<!-- Generator: Adobe Illustrator 19.0.0, SVG Export Plug-In . SVG Version: 6.00 Build 0)  -->
<!DOCTYPE svg PUBLIC "-//W3C//DTD SVG 1.1//EN" "http://www.w3.org/Graphics/SVG/1.1/DTD/svg11.dtd">
<svg version="1.1" id="Ebene_1" xmlns="http://www.w3.org/2000/svg" xmlns:xlink="http://www.w3.org/1999/xlink" x="0px" y="0px"
	 viewBox="0 0 16 16" style="enable-background:new 0 0 16 16;" xml:space="preserve">
<style type="text/css">
	.st0{fill:#CBCBCB;}
</style>
<g>
	<circle class="st0" cx="5.1" cy="5.1" r="5.1"/>
	<g id="XMLID_132_">
		<path id="XMLID_133_" d="M6.2,5.1L8,3.3C8.3,3,8.3,2.5,8,2.2c-0.3-0.3-0.8-0.3-1.1,0L5.1,4.1L3.3,2.2C3,1.9,2.5,1.9,2.2,2.2
			S1.9,3,2.2,3.3L4,5.1L2.2,6.9C1.9,7.2,1.9,7.7,2.2,8c0.1,0.1,0.3,0.2,0.5,0.2c0.2,0,0.4-0.1,0.5-0.2l1.8-1.8L6.9,8
			c0.1,0.1,0.3,0.2,0.5,0.2S7.8,8.2,8,8c0.3-0.3,0.3-0.8,0-1.1L6.2,5.1z"/>
	</g>
</g>
<path d="M15.9,6.9c0.2-0.6-0.3-1-0.8-0.7c-0.5,0.3-1.4,3.2-1.4,3.2c-0.4,1-1.5,0.6-1-0.4l1.7-4.2c0.4-1-0.6-1.4-1-0.4
	c0,0-1.9,4.2-2.1,4.3C11,8.7,11,8.7,10.9,8.4c-0.2-0.3,2.4-6.1,1.4-6.1c-1,0.2-2.8,5.3-3,5.4C9,7.9,8.9,7.8,8.8,7.6
	c-0.1-0.2,2-5.2,0.9-5.1C9,2.6,6.3,9.8,6.3,9.8L5.7,7.6C5.4,6.7,4.3,6.2,4.2,7.4c-0.1,1,0.4,2.3,0.6,3.2c0.2,1,0.4,1.9,0.8,2.9
	C6.3,15.5,9.4,16,9.4,16c1.5,0.2,2.8-0.5,3.5-1.8C13.9,12.3,15.9,6.9,15.9,6.9z"/>
</svg>
