<?xml version="1.0" encoding="utf-8"?>
<!-- Generator: Adobe Illustrator 19.0.0, SVG Export Plug-In . SVG Version: 6.00 Build 0)  -->
<!DOCTYPE svg PUBLIC "-//W3C//DTD SVG 1.1//EN" "http://www.w3.org/Graphics/SVG/1.1/DTD/svg11.dtd">
<svg version="1.1" id="Ebene_1" xmlns="http://www.w3.org/2000/svg" xmlns:xlink="http://www.w3.org/1999/xlink" x="0px" y="0px"
	 viewBox="0 0 16 16" style="enable-background:new 0 0 16 16;" xml:space="preserve">
<style type="text/css">
	.st0{fill:#FFFFFF;}
</style>
<g>
	<polygon class="st0" points="1,1 1,7.6 5.4,7.6 5.4,2.2 4.2,1 	"/>
	<path d="M4.6,0H0v8.6h6.4V1.8L4.6,0z M5.4,7.6H1V1h3.2l1.2,1.2C5.4,2.2,5.4,7.6,5.4,7.6z"/>
</g>
<g>
	<polygon class="st0" points="3.5,4.7 3.5,11.3 7.9,11.3 7.9,5.9 6.7,4.7 	"/>
	<path d="M7.1,3.7H2.5v8.6h6.4V5.5L7.1,3.7z M3.5,11.3V4.7h3.2l1.2,1.2l0,5.4H3.5z"/>
</g>
<polygon id="XMLID_19_" points="14.1,5.8 14.1,2.7 14.1,2.7 14.1,2.7 10.9,2.7 10.9,3.4 13.4,3.4 13.4,5.8 12.1,5.8 13.7,8.6 
	15.4,5.8 "/>
<g>
	<polygon points="10.3,10.9 10.3,11.4 10.3,11.9 16,11.9 16,10.9 	"/>
	<polygon points="10.3,13.4 10.3,13.9 16,13.9 16,12.9 10.3,12.9 	"/>
	<polygon points="10.3,15.5 10.3,16 16,16 16,15 10.3,15 	"/>
</g>
</svg>
