<?xml version="1.0" encoding="utf-8"?>
<!-- Generator: Adobe Illustrator 19.1.0, SVG Export Plug-In . SVG Version: 6.00 Build 0)  -->
<!DOCTYPE svg PUBLIC "-//W3C//DTD SVG 1.1//EN" "http://www.w3.org/Graphics/SVG/1.1/DTD/svg11.dtd">
<svg version="1.1" id="Ebene_1" xmlns="http://www.w3.org/2000/svg" xmlns:xlink="http://www.w3.org/1999/xlink" x="0px" y="0px"
	 viewBox="-412 290.3 16 16" style="enable-background:new -412 290.3 16 16;" xml:space="preserve">
<style type="text/css">
	.st0{fill:#FFFFFF;}
	.st1{fill:#C4D13B;}
	.st2{fill:#1A171B;}
</style>
<g>
	<g>
		<circle class="st0" cx="-404" cy="292.8" r="1.5"/>
		<path d="M-404,290.3c-1.4,0-2.5,1.1-2.5,2.5s1.1,2.5,2.5,2.5s2.5-1.1,2.5-2.5S-402.6,290.3-404,290.3z M-404,294.3
			c-0.8,0-1.5-0.7-1.5-1.5c0-0.9,0.7-1.5,1.5-1.5s1.5,0.7,1.5,1.5S-403.2,294.3-404,294.3z"/>
	</g>
	<circle cx="-409.9" cy="304.2" r="2.1"/>
	<circle cx="-404" cy="304.2" r="2.1"/>
	<circle cx="-398.1" cy="304.2" r="2.1"/>
	<g>
		<rect x="-408.1" y="293.8" transform="matrix(-0.9002 -0.4355 0.4355 -0.9002 -904.8206 391.1771)" width="1" height="11"/>
		<rect x="-404.5" y="294.8" width="1" height="9.4"/>
		<rect x="-400.8" y="293.7" transform="matrix(0.9084 -0.4181 0.4181 0.9084 -161.7618 -139.9502)" width="1" height="11"/>
	</g>
</g>
<g>
	<polygon class="st1" points="-409.1,291.3 -397.7,298.3 -409.1,305.3 	"/>
	<path class="st2" d="M-409.1,305.8c-0.1,0-0.2,0-0.2-0.1c-0.2-0.1-0.3-0.3-0.3-0.4v-14c0-0.2,0.1-0.3,0.3-0.4
		c0.2-0.1,0.4-0.1,0.5,0l11.4,7c0.1,0.1,0.2,0.3,0.2,0.4s-0.1,0.3-0.2,0.4l-11.4,7C-408.9,305.7-409,305.8-409.1,305.8z
		 M-408.6,292.2v12.2l9.9-6.1L-408.6,292.2z"/>
</g>
</svg>
