<?xml version="1.0" encoding="utf-8"?>
<!-- Generator: Adobe Illustrator 19.0.0, SVG Export Plug-In . SVG Version: 6.00 Build 0)  -->
<!DOCTYPE svg PUBLIC "-//W3C//DTD SVG 1.1//EN" "http://www.w3.org/Graphics/SVG/1.1/DTD/svg11.dtd">
<svg version="1.1" id="Ebene_1" xmlns="http://www.w3.org/2000/svg" xmlns:xlink="http://www.w3.org/1999/xlink" x="0px" y="0px"
	 viewBox="0 0 16 16" style="enable-background:new 0 0 16 16;" xml:space="preserve">
<style type="text/css">
	.st0{fill:#FFFFFF;}
	.st1{fill:#CBCBCB;}
</style>
<g>
	<g>
		<circle class="st0" cx="8" cy="2.5" r="1.5"/>
		<path d="M8,0C6.6,0,5.5,1.1,5.5,2.5S6.6,5,8,5s2.5-1.1,2.5-2.5S9.4,0,8,0z M8,4C7.2,4,6.5,3.3,6.5,2.5C6.5,1.6,7.2,1,8,1
			s1.5,0.7,1.5,1.5S8.8,4,8,4z"/>
	</g>
	<circle cx="2.1" cy="13.9" r="2.1"/>
	<circle cx="8" cy="13.9" r="2.1"/>
	<circle cx="13.9" cy="13.9" r="2.1"/>
	<g>
		<rect x="3.9" y="3.5" transform="matrix(0.9002 0.4355 -0.4355 0.9002 4.3743 -1.0237)" width="1" height="11"/>
		<rect x="7.5" y="4.5" width="1" height="9.4"/>
		<rect x="11.2" y="3.5" transform="matrix(-0.9084 0.4181 -0.4181 -0.9084 26.1119 12.2061)" width="1" height="11"/>
	</g>
</g>
<g id="XMLID_18_">
	<polygon id="XMLID_51_" class="st1" points="3.3,14.1 13.2,8 3.3,1.9 	"/>
	<path id="XMLID_20_" d="M14.5,7.6l-11.4-7C2.7,0.4,2.3,0.6,2.3,1v14c0,0.4,0.4,0.6,0.8,0.4l11.4-7C14.8,8.2,14.8,7.8,14.5,7.6z
		 M3.3,14.1V1.9L13.2,8L3.3,14.1z"/>
</g>
</svg>
